<svg width="81" height="61" viewBox="0 0 81 61" fill="none" xmlns="http://www.w3.org/2000/svg">
<g clip-path="url(#clip0_4447_29386)">
<path d="M0.289062 0.514893H80.2891V60.5149H0.289062V0.514893Z" fill="white"/>
<path d="M34.2891 0.514893H46.2891V60.5149H34.2891V0.514893Z" fill="#FF0000"/>
<path d="M0.289062 24.5149H80.2891V36.5149H0.289062V24.5149Z" fill="#FF0000"/>
<g style="mix-blend-mode:multiply">
<path fill-rule="evenodd" clip-rule="evenodd" d="M18.6391 47.1524C18.7641 45.0524 19.1391 43.2649 19.1391 43.2649C19.1391 43.2649 17.9141 43.3899 17.2891 43.3899C16.6766 43.3899 15.4391 43.2649 15.4391 43.2649C15.4391 43.2649 15.8141 45.0524 15.9391 47.1649C13.8266 47.0399 12.0391 46.6649 12.0391 46.6649C12.0391 46.6649 12.1641 47.5899 12.1641 48.5149C12.1641 49.4399 12.0391 50.3649 12.0391 50.3649C12.0391 50.3649 13.8266 49.9899 15.9391 49.8649C15.8141 51.9774 15.4391 53.7649 15.4391 53.7649C15.4391 53.7649 16.3641 53.6399 17.2891 53.6399C18.2141 53.6399 19.1391 53.7649 19.1391 53.7649C19.1391 53.7649 18.7641 51.9774 18.6391 49.8649C20.7516 49.9899 22.5391 50.3649 22.5391 50.3649C22.5391 50.3649 22.4141 49.1399 22.4141 48.5149C22.4141 47.9024 22.5391 46.6649 22.5391 46.6649C22.5391 46.6649 20.7516 47.0399 18.6516 47.1649L18.6391 47.1524ZM64.6391 11.1524C64.7641 9.05239 65.1391 7.26489 65.1391 7.26489C65.1391 7.26489 63.9141 7.38989 63.2891 7.38989C62.6766 7.38989 61.4391 7.26489 61.4391 7.26489C61.4391 7.26489 61.8141 9.05239 61.9391 11.1524C59.8266 11.0274 58.0391 10.6649 58.0391 10.6649C58.0391 10.6649 58.1641 11.5899 58.1641 12.5149C58.1641 13.4399 58.0391 14.3649 58.0391 14.3649C58.0391 14.3649 59.8266 13.9899 61.9391 13.8649C61.8141 15.9774 61.4391 17.7649 61.4391 17.7649C61.4391 17.7649 62.3641 17.6399 63.2891 17.6399C64.2141 17.6399 65.1391 17.7649 65.1391 17.7649C65.1391 17.7649 64.7641 15.9774 64.6391 13.8774C66.7516 14.0024 68.5391 14.3774 68.5391 14.3774C68.5391 14.3774 68.4141 13.1274 68.4141 12.5149C68.4141 11.9024 68.5391 10.6649 68.5391 10.6649C68.5391 10.6649 66.7516 11.0399 64.6391 11.1649V11.1524ZM18.6391 11.1524C18.7641 9.05239 19.1391 7.26489 19.1391 7.26489C19.1391 7.26489 17.9141 7.38989 17.2891 7.38989C16.6766 7.38989 15.4391 7.26489 15.4391 7.26489C15.4391 7.26489 15.8141 9.05239 15.9391 11.1649C13.8266 11.0399 12.0391 10.6649 12.0391 10.6649C12.0391 10.6649 12.1641 11.5899 12.1641 12.5149C12.1641 13.4399 12.0391 14.3649 12.0391 14.3649C12.0391 14.3649 13.8266 13.9899 15.9391 13.8649C15.8141 15.9774 15.4391 17.7649 15.4391 17.7649C15.4391 17.7649 16.3641 17.6399 17.2891 17.6399C18.2141 17.6399 19.1391 17.7649 19.1391 17.7649C19.1391 17.7649 18.7641 15.9774 18.6391 13.8649C20.7516 13.9899 22.5391 14.3649 22.5391 14.3649C22.5391 14.3649 22.4141 13.1399 22.4141 12.5149C22.4141 11.9024 22.5391 10.6649 22.5391 10.6649C22.5391 10.6649 20.7516 11.0399 18.6516 11.1649L18.6391 11.1524ZM64.6391 47.1524C64.7641 45.0524 65.1391 43.2649 65.1391 43.2649C65.1391 43.2649 63.9141 43.3899 63.2891 43.3899C62.6766 43.3899 61.4391 43.2649 61.4391 43.2649C61.4391 43.2649 61.8141 45.0524 61.9391 47.1649C59.8266 47.0399 58.0391 46.6649 58.0391 46.6649C58.0391 46.6649 58.1641 47.5899 58.1641 48.5149C58.1641 49.4399 58.0391 50.3649 58.0391 50.3649C58.0391 50.3649 59.8266 49.9899 61.9391 49.8649C61.8141 51.9774 61.4391 53.7649 61.4391 53.7649C61.4391 53.7649 62.3641 53.6399 63.2891 53.6399C64.2141 53.6399 65.1391 53.7649 65.1391 53.7649C65.1391 53.7649 64.7641 51.9774 64.6391 49.8649C66.7516 49.9899 68.5391 50.3649 68.5391 50.3649C68.5391 50.3649 68.4141 49.1399 68.4141 48.5149C68.4141 47.9024 68.5391 46.6649 68.5391 46.6649C68.5391 46.6649 66.7516 47.0399 64.6391 47.1649V47.1524Z" fill="#FF0000"/>
</g>
</g>
<defs>
<clipPath id="clip0_4447_29386">
<rect width="80" height="60" fill="white" transform="translate(0.289062 0.514893)"/>
</clipPath>
</defs>
</svg>
