<svg width="81" height="61" viewBox="0 0 81 61" fill="none" xmlns="http://www.w3.org/2000/svg">
<g clip-path="url(#clip0_4447_35624)">
<path fill-rule="evenodd" clip-rule="evenodd" d="M0.289062 0.514893H80.2891V60.5149H0.289062V0.514893Z" fill="#E30A17"/>
<path fill-rule="evenodd" clip-rule="evenodd" d="M51.1641 31.4523C51.1641 39.7273 44.3391 46.4398 35.9141 46.4398C27.4891 46.4398 20.6641 39.7273 20.6641 31.4398C20.6641 23.1523 27.4891 16.4648 35.9141 16.4648C44.3391 16.4648 51.1641 23.1773 51.1641 31.4523Z" fill="white"/>
<path fill-rule="evenodd" clip-rule="evenodd" d="M51.9148 31.4523C51.9148 38.0773 46.4648 43.4398 39.7273 43.4398C32.9898 43.4398 27.5273 38.0648 27.5273 31.4398C27.5273 24.8148 32.9898 19.4648 39.7273 19.4648C46.4648 19.4648 51.9273 24.8273 51.9273 31.4523H51.9148Z" fill="#E30A17"/>
<path fill-rule="evenodd" clip-rule="evenodd" d="M54.1273 24.4524L54.0023 29.9899L48.8398 31.3899L53.9398 33.2024L53.8148 38.2899L57.1273 34.3149L62.1523 36.0649L59.2523 31.8024L62.7898 27.5649L57.3523 29.0649L54.1273 24.4399V24.4524Z" fill="white"/>
</g>
<defs>
<clipPath id="clip0_4447_35624">
<rect width="80" height="60" fill="white" transform="translate(0.289062 0.514893)"/>
</clipPath>
</defs>
</svg>
