<svg width="81" height="61" viewBox="0 0 81 61" fill="none" xmlns="http://www.w3.org/2000/svg">
<g clip-path="url(#clip0_4447_30907)">
<mask id="mask0_4447_30907" style="mask-type:luminance" maskUnits="userSpaceOnUse" x="0" y="0" width="81" height="61">
<path d="M0.289062 0.518066H80.293V60.5181H0.289062V0.518066Z" fill="white"/>
</mask>
<g mask="url(#mask0_4447_30907)">
<path fill-rule="evenodd" clip-rule="evenodd" d="M0.289062 0.518066H80.3047V60.5181H0.289062V0.518066Z" fill="white"/>
<path fill-rule="evenodd" clip-rule="evenodd" d="M9.05859 18.74L17.3813 6.26067L19.4611 7.64779L11.1385 20.1271L9.05859 18.74ZM12.1784 20.8207L20.5011 8.34134L22.581 9.72845L14.2583 22.2078L12.1784 20.8207ZM15.2983 22.9013L23.6209 10.422L25.7008 11.8091L17.3781 24.2884L15.2983 22.9013Z" fill="black"/>
<path fill-rule="evenodd" clip-rule="evenodd" d="M9.05859 18.74L17.3813 6.26067L19.4611 7.64779L11.1385 20.1271L9.05859 18.74ZM12.1784 20.8207L20.5011 8.34134L22.581 9.72845L14.2583 22.2078L12.1784 20.8207ZM15.2983 22.9013L23.6209 10.422L25.7008 11.8091L17.3781 24.2884L15.2983 22.9013Z" fill="black"/>
<path fill-rule="evenodd" clip-rule="evenodd" d="M57.9375 42.3232L68.3369 49.2588L57.9375 42.3232Z" fill="black"/>
<path d="M57.9375 42.3232L68.3369 49.2588" stroke="white" stroke-width="1.25"/>
<path fill-rule="evenodd" clip-rule="evenodd" d="M27.7812 22.2102C29.9886 18.9005 33.4202 16.6032 37.3214 15.8236C41.2225 15.0441 45.2735 15.8462 48.5832 18.0536C51.893 20.2609 54.1903 23.6926 54.9698 27.5937C55.7493 31.4948 54.9472 35.5458 52.7399 38.8555L27.7812 22.2102Z" fill="#CD2E3A"/>
<path fill-rule="evenodd" clip-rule="evenodd" d="M27.7797 22.2101C25.5724 25.5199 24.7703 29.5709 25.5498 33.472C26.3293 37.3731 28.6266 40.8048 31.9363 43.0121C35.2461 45.2194 39.2971 46.0216 43.1982 45.242C47.0993 44.4625 50.531 42.1652 52.7383 38.8555C53.842 37.2006 54.2431 35.1751 53.8533 33.2245C53.4635 31.274 52.3149 29.5581 50.66 28.4545C49.0051 27.3508 46.9796 26.9498 45.0291 27.3395C43.0785 27.7293 41.3627 28.8779 40.259 30.5328L27.7797 22.2101Z" fill="#0047A0"/>
<path d="M40.2578 30.533C42.5561 27.0869 41.6256 22.4302 38.1795 20.132C34.7334 17.8337 30.0768 18.7642 27.7785 22.2103C25.4803 25.6564 26.4108 30.313 29.8568 32.6113C33.3029 34.9095 37.9596 33.979 40.2578 30.533Z" fill="#CD2E3A"/>
<path fill-rule="evenodd" clip-rule="evenodd" d="M17.4102 54.8135L9.08749 42.3342L11.1674 40.947L19.49 53.4264L17.4102 54.8135ZM20.53 52.7328L12.2073 40.2535L14.2872 38.8664L22.6099 51.3457L20.53 52.7328ZM23.6498 50.6521L15.3271 38.1728L17.407 36.7857L25.7297 49.265L23.6498 50.6521Z" fill="black"/>
<path fill-rule="evenodd" clip-rule="evenodd" d="M17.4102 54.8135L9.08749 42.3342L11.1674 40.947L19.49 53.4264L17.4102 54.8135ZM20.53 52.7328L12.2073 40.2535L14.2872 38.8664L22.6099 51.3457L20.53 52.7328ZM23.6498 50.6521L15.3271 38.1728L17.407 36.7857L25.7297 49.265L23.6498 50.6521Z" fill="black"/>
<path fill-rule="evenodd" clip-rule="evenodd" d="M15.8477 46.8398L18.9675 44.7592L15.8477 46.8398ZM57.9653 18.7508L61.6051 16.3234L57.9653 18.7508ZM64.725 14.2427L67.8448 12.1621L64.725 14.2427Z" fill="black"/>
<path d="M15.8477 46.8398L18.9675 44.7592M57.9653 18.7508L61.6051 16.3234M64.725 14.2427L67.8448 12.1621" stroke="white" stroke-width="1.25"/>
</g>
</g>
<defs>
<clipPath id="clip0_4447_30907">
<rect width="80" height="60" fill="white" transform="translate(0.289062 0.514893)"/>
</clipPath>
</defs>
</svg>
