<svg width="81" height="61" viewBox="0 0 81 61" fill="none" xmlns="http://www.w3.org/2000/svg">
<g clip-path="url(#clip0_4447_29826)">
<mask id="mask0_4447_29826" style="mask-type:luminance" maskUnits="userSpaceOnUse" x="0" y="0" width="81" height="61">
<path d="M0.269531 0.514893H80.475V60.6749H0.269531V0.514893Z" fill="white"/>
</mask>
<g mask="url(#mask0_4447_29826)">
<path fill-rule="evenodd" clip-rule="evenodd" d="M83.3419 60.6749H-2.59766V0.514893H83.3419V60.6749Z" fill="#BA0000"/>
<path fill-rule="evenodd" clip-rule="evenodd" d="M39.1499 29.6314C39.1499 29.6314 33.0869 27.0229 33.9564 20.2549C34.7907 17.0002 36.2829 14.7794 38.9737 13.5692C40.2427 13.1814 41.5352 13.0052 42.8512 12.8994C42.4987 13.2284 42.2167 13.5574 42.0639 13.9569C41.7819 14.7089 41.9934 15.4139 42.3812 16.1307C42.8629 16.9532 43.1567 17.7992 43.2507 18.9037C43.339 19.6563 43.2268 20.4189 42.9255 21.1143C42.6243 21.8097 42.1446 22.4131 41.5352 22.8634C40.7597 23.4627 39.8432 23.6742 39.0912 24.3557C38.5037 24.9197 38.1512 25.4954 38.0337 26.4824C38.0102 28.3742 38.5154 28.6444 39.1499 29.6314Z" fill="white"/>
<path fill-rule="evenodd" clip-rule="evenodd" d="M37.9883 19.8436V19.8083V19.8436Z" fill="#BA0000"/>
<path d="M37.9883 19.8436V19.8083" stroke="black" stroke-width="0.24675"/>
<path d="M38.3728 28.9265C36.0228 26.8468 36.2226 21.5945 38.0203 19.8438" stroke="#BA0000" stroke-width="0.24675"/>
<path fill-rule="evenodd" clip-rule="evenodd" d="M39.4688 18.6686L39.8565 19.3148L39.1515 19.0211L38.5993 19.6086L38.6933 18.8448L37.9883 18.5511L38.752 18.3748L38.846 17.6228L39.2338 18.2691L40.0093 18.0928" fill="#BA0000"/>
<path fill-rule="evenodd" clip-rule="evenodd" d="M39.668 29.1849C39.668 29.1849 40.373 22.6167 47.1057 21.4652C50.4662 21.3242 53.0277 22.0879 54.9782 24.3204C55.7185 25.4132 56.259 26.5999 56.7407 27.8219C56.3295 27.5869 55.9417 27.4107 55.4952 27.3872C54.708 27.3284 54.0852 27.7397 53.5212 28.3154C52.8626 29.0445 52.0414 29.6081 51.1242 29.9604C50.4313 30.2668 49.6698 30.3847 48.9166 30.3022C48.1635 30.2196 47.4456 29.9396 46.8355 29.4904C46.0365 28.9147 45.5665 28.1039 44.697 27.5869C43.9903 27.1669 43.1527 27.0245 42.347 27.1874C40.5257 27.7279 40.4317 28.2919 39.668 29.1849Z" fill="white"/>
<path fill-rule="evenodd" clip-rule="evenodd" d="M48.6797 25.2134H48.7149H48.6797Z" fill="#BA0000"/>
<path d="M48.6797 25.2134H48.7149" stroke="black" stroke-width="0.24675"/>
<path d="M40.1016 28.2449C41.4176 25.3779 46.4936 24.0384 48.6908 25.2369" stroke="#BA0000" stroke-width="0.24675"/>
<path fill-rule="evenodd" clip-rule="evenodd" d="M50.2413 26.2827L49.7361 26.835L49.8066 26.0712L49.1016 25.7187L49.8418 25.6012L49.9123 24.814L50.3118 25.519L51.0638 25.378L50.5586 25.9302L50.9463 26.6352" fill="#BA0000"/>
<path fill-rule="evenodd" clip-rule="evenodd" d="M40.1133 29.655C40.1133 29.655 46.5758 28.245 49.7953 34.2727C51.0055 37.41 51.0878 40.0772 49.5955 42.627C48.7965 43.6845 47.833 44.5657 46.8343 45.4235C46.9283 44.9535 46.9635 44.5305 46.846 44.1075C46.658 43.332 46.0705 42.8737 45.342 42.5212C44.4381 42.1259 43.6408 41.5219 43.0155 40.7587C42.5086 40.1988 42.1581 39.5152 41.9993 38.7767C41.8404 38.0383 41.8789 37.2711 42.1108 36.5522C42.3928 35.6122 43.0155 34.9072 43.227 33.9202C43.4029 33.1189 43.273 32.2807 42.8628 31.5702C41.77 30.0192 41.206 30.1015 40.1133 29.655Z" fill="white"/>
<path fill-rule="evenodd" clip-rule="evenodd" d="M46.7422 36.9517L46.7657 36.9752L46.7422 36.9517Z" fill="#BA0000"/>
<path d="M46.7422 36.9517L46.7657 36.9752" stroke="black" stroke-width="0.24675"/>
<path d="M41.1602 29.7725C44.2857 30.1132 47.1644 34.496 46.7297 36.9752" stroke="#BA0000" stroke-width="0.24675"/>
<path fill-rule="evenodd" clip-rule="evenodd" d="M46.2245 38.7729L45.5312 38.4674L46.295 38.2912L46.389 37.5039L46.7532 38.1737L47.517 37.9974L46.9882 38.5849L47.3407 39.2547L46.6592 38.9492L46.1305 39.5484" fill="#BA0000"/>
<path fill-rule="evenodd" clip-rule="evenodd" d="M39.9727 30.3247C39.9727 30.3247 43.1335 36.1292 38.269 40.8997C35.59 42.9442 33.052 43.7785 30.185 43.0617C28.9513 42.5917 27.835 41.922 26.7188 41.1935C27.1888 41.1582 27.6235 41.076 27.9995 40.841C28.681 40.4415 28.9512 39.7482 29.0922 38.961C29.2146 37.9792 29.569 37.0407 30.1263 36.2232C30.5205 35.5782 31.0779 35.0485 31.7421 34.6874C32.4063 34.3264 33.154 34.1469 33.9097 34.167C34.8968 34.1787 35.7428 34.59 36.7533 34.5195C37.564 34.4137 38.1985 34.1905 38.9152 33.4855C40.0902 32.0167 39.8552 31.488 39.9727 30.313V30.3247Z" fill="white"/>
<path fill-rule="evenodd" clip-rule="evenodd" d="M34.8243 38.7375L34.8125 38.7611L34.8243 38.7375Z" fill="#BA0000"/>
<path d="M34.8243 38.7375L34.8125 38.7611" stroke="black" stroke-width="0.24675"/>
<path d="M40.1353 31.3469C40.711 34.4489 37.3035 38.4557 34.8008 38.7142" stroke="#BA0000" stroke-width="0.24675"/>
<path fill-rule="evenodd" clip-rule="evenodd" d="M32.9356 38.7493L33.0414 37.9973L33.4291 38.6671L34.2046 38.5496L33.6641 39.0901L34.0519 39.7598L33.3351 39.4191L32.7946 39.9596L32.8886 39.2076L32.1719 38.8668" fill="#BA0000"/>
<path fill-rule="evenodd" clip-rule="evenodd" d="M39.2554 30.1954C39.2554 30.1954 34.8374 35.1069 28.7039 32.1224C25.8839 30.2777 24.2624 28.1509 23.9922 25.2134C24.0274 23.8857 24.2742 22.6167 24.5914 21.3359C24.7912 21.7589 25.0144 22.1349 25.3552 22.4169C25.9544 22.9222 26.7064 22.9457 27.5054 22.8164C28.4645 22.6064 29.46 22.6306 30.4077 22.8869C31.1497 23.0431 31.8373 23.3928 32.4006 23.9004C32.964 24.408 33.3831 25.0556 33.6154 25.7774C33.9327 26.7057 33.8269 27.6457 34.2382 28.5739C34.5907 29.3024 35.0137 29.8194 35.9184 30.2659C37.7044 30.8887 38.1157 30.4892 39.2554 30.2072V30.1954Z" fill="white"/>
<path fill-rule="evenodd" clip-rule="evenodd" d="M29.6094 28.1509L29.5859 28.1392L29.6094 28.1509Z" fill="#BA0000"/>
<path d="M29.6094 28.1509L29.5859 28.1392" stroke="black" stroke-width="0.24675"/>
<path d="M38.3396 30.7007C35.6136 32.2635 30.7021 30.3835 29.6211 28.1157" stroke="#BA0000" stroke-width="0.24675"/>
<path fill-rule="evenodd" clip-rule="evenodd" d="M28.9758 26.3649L29.7161 26.2121L29.2108 26.7996L29.5751 27.4929L28.8936 27.1639L28.3883 27.7514L28.4706 26.9524L27.7773 26.6234L28.5176 26.4706L28.5998 25.6716" fill="#BA0000"/>
</g>
</g>
<defs>
<clipPath id="clip0_4447_29826">
<rect width="80" height="60" fill="white" transform="translate(0.289062 0.514893)"/>
</clipPath>
</defs>
</svg>
