<svg width="81" height="61" viewBox="0 0 81 61" fill="none" xmlns="http://www.w3.org/2000/svg">
<g clip-path="url(#clip0_4447_18608)">
<path d="M0.289062 0.514893H80.2891V60.5149H0.289062V0.514893Z" fill="#74ACDF"/>
<path d="M0.289062 20.5149H80.2891V40.5149H0.289062V20.5149Z" fill="white"/>
<path d="M39.9062 30.6709L43.3263 38.1109C43.3263 38.1109 43.3863 38.2549 43.4823 38.2189C43.5783 38.1709 43.5183 38.0389 43.5183 38.0389L40.6743 30.3589M40.5903 33.2509C40.5423 34.3789 41.2383 35.0029 41.1543 36.0109C41.0583 37.0309 41.6103 37.5949 41.7543 37.9909C41.8743 38.3869 41.5983 38.6149 41.7183 38.6749C41.8383 38.7349 42.0783 38.4229 42.0063 37.8589C41.9223 37.3069 41.5023 37.1389 41.5983 35.9029C41.6943 34.6669 41.0943 34.3789 41.2383 33.2629" fill="#F6B40E"/>
<path d="M39.9062 30.6709L43.3263 38.1109C43.3263 38.1109 43.3863 38.2549 43.4823 38.2189C43.5783 38.1709 43.5183 38.0389 43.5183 38.0389L40.6743 30.3589M40.5903 33.2509C40.5423 34.3789 41.2383 35.0029 41.1543 36.0109C41.0583 37.0309 41.6103 37.5949 41.7543 37.9909C41.8743 38.3869 41.5983 38.6149 41.7183 38.6749C41.8383 38.7349 42.0783 38.4229 42.0063 37.8589C41.9223 37.3069 41.5023 37.1389 41.5983 35.9029C41.6943 34.6669 41.0943 34.3789 41.2383 33.2629" stroke="#85340A" stroke-width="0.132"/>
<path d="M39.8767 30.5119L40.1892 38.6943C40.1892 38.6943 40.1895 38.8503 40.292 38.8538C40.3991 38.8462 40.3941 38.7013 40.3941 38.7013L40.7056 30.5175M39.5213 33.1572C39.0453 34.181 39.4495 35.0239 38.9862 35.923C38.5071 36.8286 38.8013 37.5609 38.7828 37.9819C38.7421 38.3937 38.3999 38.4987 38.4878 38.6C38.5757 38.7014 38.9168 38.505 39.0661 37.9564C39.1997 37.4142 38.876 37.0983 39.4377 35.9931C39.9994 34.8879 39.5553 34.3923 40.1154 33.4163" fill="#F6B40E"/>
<path d="M39.8767 30.5119L40.1892 38.6943C40.1892 38.6943 40.1895 38.8503 40.292 38.8538C40.3991 38.8462 40.3941 38.7013 40.3941 38.7013L40.7056 30.5175M39.5213 33.1572C39.0453 34.181 39.4495 35.0239 38.9862 35.923C38.5071 36.8286 38.8013 37.5609 38.7828 37.9819C38.7421 38.3937 38.3999 38.4987 38.4878 38.6C38.5757 38.7014 38.9168 38.505 39.0661 37.9564C39.1997 37.4142 38.876 37.0983 39.4377 35.9931C39.9994 34.8879 39.5553 34.3923 40.1154 33.4163" stroke="#85340A" stroke-width="0.132"/>
<path d="M39.9083 30.3537L37.0657 38.0329C37.0657 38.0329 37.0063 38.1771 37.0997 38.2195C37.2015 38.2535 37.2524 38.1177 37.2524 38.1177L40.672 30.6761M38.5676 32.6617C37.7361 33.4253 37.787 34.3587 37.0148 35.0121C36.2257 35.6655 36.2172 36.4546 36.039 36.8364C35.8438 37.2013 35.4875 37.1674 35.5299 37.2946C35.5723 37.4219 35.9626 37.371 36.3105 36.9213C36.6415 36.4716 36.4633 36.0558 37.4051 35.2497C38.347 34.4436 38.1264 33.8157 39.0173 33.1284" fill="#F6B40E"/>
<path d="M39.9083 30.3537L37.0657 38.0329C37.0657 38.0329 37.0063 38.1771 37.0997 38.2195C37.2015 38.2535 37.2524 38.1177 37.2524 38.1177L40.672 30.6761M38.5676 32.6617C37.7361 33.4253 37.787 34.3587 37.0148 35.0121C36.2257 35.6655 36.2172 36.4546 36.039 36.8364C35.8438 37.2013 35.4875 37.1674 35.5299 37.2946C35.5723 37.4219 35.9626 37.371 36.3105 36.9213C36.6415 36.4716 36.4633 36.0558 37.4051 35.2497C38.347 34.4436 38.1264 33.8157 39.0173 33.1284" stroke="#85340A" stroke-width="0.132"/>
<path d="M40.0008 30.2197L34.4359 36.2266C34.4359 36.2266 34.3258 36.3371 34.3958 36.412C34.4769 36.4824 34.5759 36.3764 34.5759 36.3764L40.583 30.8099M37.879 31.839C36.8185 32.2263 36.5083 33.1081 35.5449 33.4163C34.5658 33.7179 34.256 34.4437 33.9452 34.7283C33.6253 34.9907 33.309 34.823 33.2995 34.9568C33.29 35.0906 33.6701 35.193 34.1636 34.9106C34.6414 34.6218 34.6359 34.1694 35.8146 33.7851C36.9932 33.4008 37.0297 32.7363 38.1159 32.4423" fill="#F6B40E"/>
<path d="M40.0008 30.2197L34.4359 36.2266C34.4359 36.2266 34.3258 36.3371 34.3958 36.412C34.4769 36.4824 34.5759 36.3764 34.5759 36.3764L40.583 30.8099M37.879 31.839C36.8185 32.2263 36.5083 33.1081 35.5449 33.4163C34.5658 33.7179 34.256 34.4437 33.9452 34.7283C33.6253 34.9907 33.309 34.823 33.2995 34.9568C33.29 35.0906 33.6701 35.193 34.1636 34.9106C34.6414 34.6218 34.6359 34.1694 35.8146 33.7851C36.9932 33.4008 37.0297 32.7363 38.1159 32.4423" stroke="#85340A" stroke-width="0.132"/>
<path d="M40.8057 33.4429C40.8657 34.5229 41.4777 35.0029 41.3577 35.9989C41.6217 35.2189 40.9857 34.6069 41.0217 33.4549M40.0977 30.5989L42.4377 35.7109L40.4817 30.4429" fill="#85340A"/>
<path d="M39.6467 33.4173C39.2888 34.4381 39.6705 35.1158 39.1785 35.99C39.7209 35.3704 39.3675 34.5616 39.8416 33.5111M40.0809 30.5189L40.2865 36.1372L40.4954 30.5217" fill="#85340A"/>
<path d="M38.5863 32.9501C37.8651 33.7562 37.9584 34.5283 37.1693 35.1478C37.9075 34.7829 37.8906 33.9004 38.7306 33.1113M40.0967 30.4384L38.1366 35.7078L40.4786 30.5997" fill="#85340A"/>
<path d="M37.7845 32.112C36.8096 32.5807 36.6004 33.3298 35.6343 33.6001C36.4559 33.5455 36.7779 32.7237 37.856 32.3161M40.141 30.3695L36.3136 34.4877L40.4321 30.6646" fill="#85340A"/>
<path d="M40.1333 30.1309L32.6933 33.5509C32.6933 33.5509 32.5493 33.6109 32.5853 33.7069C32.6333 33.8029 32.7653 33.7429 32.7653 33.7429L40.4453 30.8989M37.5533 30.8149C36.4253 30.7669 35.8013 31.4629 34.7933 31.3789C33.7733 31.2829 33.2093 31.8349 32.8133 31.9789C32.4173 32.0989 32.1893 31.8229 32.1293 31.9429C32.0693 32.0629 32.3813 32.3029 32.9453 32.2309C33.4973 32.1469 33.6653 31.7269 34.9013 31.8229C36.1373 31.9189 36.4253 31.3189 37.5413 31.4629" fill="#F6B40E"/>
<path d="M40.1333 30.1309L32.6933 33.5509C32.6933 33.5509 32.5493 33.6109 32.5853 33.7069C32.6333 33.8029 32.7653 33.7429 32.7653 33.7429L40.4453 30.8989M37.5533 30.8149C36.4253 30.7669 35.8013 31.4629 34.7933 31.3789C33.7733 31.2829 33.2093 31.8349 32.8133 31.9789C32.4173 32.0989 32.1893 31.8229 32.1293 31.9429C32.0693 32.0629 32.3813 32.3029 32.9453 32.2309C33.4973 32.1469 33.6653 31.7269 34.9013 31.8229C36.1373 31.9189 36.4253 31.3189 37.5413 31.4629" stroke="#85340A" stroke-width="0.132"/>
<path d="M40.2899 30.1003L32.1074 30.4128C32.1074 30.4128 31.9514 30.4132 31.948 30.5156C31.9556 30.6227 32.1005 30.6178 32.1005 30.6178L40.2842 30.9293M37.6445 29.7449C36.6207 29.2689 35.7779 29.6732 34.8788 29.2098C33.9731 28.7308 33.2408 29.0249 32.8199 29.0064C32.4081 28.9657 32.3031 28.6235 32.2017 28.7114C32.1004 28.7993 32.2968 29.1404 32.8454 29.2897C33.3875 29.4234 33.7035 29.0996 34.8086 29.6613C35.9138 30.223 36.4095 29.7789 37.3854 30.339" fill="#F6B40E"/>
<path d="M40.2899 30.1003L32.1074 30.4128C32.1074 30.4128 31.9514 30.4132 31.948 30.5156C31.9556 30.6227 32.1005 30.6178 32.1005 30.6178L40.2842 30.9293M37.6445 29.7449C36.6207 29.2689 35.7779 29.6732 34.8788 29.2098C33.9732 28.7308 33.2408 29.0249 32.8199 29.0064C32.4081 28.9657 32.3031 28.6235 32.2017 28.7114C32.1004 28.7993 32.2968 29.1404 32.8454 29.2897C33.3875 29.4234 33.7035 29.0996 34.8086 29.6613C35.9138 30.223 36.4095 29.7789 37.3854 30.339" stroke="#85340A" stroke-width="0.132"/>
<path d="M40.4513 30.1329L32.7721 27.2903C32.7721 27.2903 32.6278 27.2309 32.5854 27.3243C32.5515 27.4261 32.6872 27.477 32.6872 27.477L40.1288 30.8966M38.1433 28.7922C37.3796 27.9607 36.4462 28.0116 35.7928 27.2394C35.1395 26.4503 34.3503 26.4418 33.9685 26.2636C33.6036 26.0685 33.6376 25.7121 33.5103 25.7545C33.383 25.7969 33.4339 26.1872 33.8836 26.5351C34.3334 26.8661 34.7491 26.6879 35.5553 27.6297C36.3614 28.5716 36.9893 28.351 37.6766 29.2419" fill="#F6B40E"/>
<path d="M40.4513 30.1329L32.7721 27.2903C32.7721 27.2903 32.6278 27.2309 32.5854 27.3243C32.5515 27.4261 32.6872 27.477 32.6872 27.477L40.1288 30.8966M38.1433 28.7922C37.3796 27.9607 36.4462 28.0116 35.7928 27.2394C35.1395 26.4503 34.3503 26.4418 33.9685 26.2636C33.6036 26.0685 33.6376 25.7121 33.5103 25.7545C33.383 25.7969 33.4339 26.1872 33.8836 26.5351C34.3334 26.8661 34.7491 26.6879 35.5553 27.6297C36.3614 28.5716 36.9893 28.351 37.6766 29.2419" stroke="#85340A" stroke-width="0.132"/>
<path d="M40.5837 30.2237L34.5769 24.6588C34.5769 24.6588 34.4664 24.5487 34.3914 24.6187C34.3211 24.6998 34.4271 24.7988 34.4271 24.7988L39.9936 30.8059M38.9645 28.1019C38.5771 27.0414 37.6953 26.7312 37.3872 25.7678C37.0855 24.7887 36.3597 24.4789 36.0752 24.1681C35.8127 23.8482 35.9805 23.5319 35.8467 23.5224C35.7128 23.5129 35.6105 23.893 35.8929 24.3865C36.1817 24.8643 36.634 24.8588 37.0183 26.0375C37.4026 27.2161 38.0672 27.2526 38.3612 28.3388" fill="#F6B40E"/>
<path d="M40.5837 30.2237L34.5769 24.6588C34.5769 24.6588 34.4664 24.5487 34.3914 24.6187C34.3211 24.6998 34.4271 24.7988 34.4271 24.7988L39.9936 30.8059M38.9645 28.1019C38.5771 27.0414 37.6953 26.7312 37.3872 25.7678C37.0855 24.7887 36.3597 24.4789 36.0752 24.1681C35.8127 23.8482 35.9805 23.5319 35.8467 23.5224C35.7128 23.5129 35.6105 23.893 35.8929 24.3865C36.1817 24.8643 36.634 24.8588 37.0183 26.0375C37.4026 27.2161 38.0672 27.2526 38.3612 28.3388" stroke="#85340A" stroke-width="0.132"/>
<path d="M37.3594 31.0308C36.2794 31.0908 35.7994 31.7028 34.8034 31.5828C35.5834 31.8468 36.1954 31.2108 37.3474 31.2468M40.2034 30.3228L35.0914 32.6628L40.3594 30.7068" fill="#85340A"/>
<path d="M37.3871 29.871C36.3664 29.5132 35.6887 29.8949 34.8144 29.4029C35.434 29.9453 36.2428 29.5919 37.2934 30.066M40.2856 30.3053L34.6672 30.5109L40.2827 30.7198" fill="#85340A"/>
<path d="M37.8546 28.8092C37.0485 28.088 36.2763 28.1813 35.6569 27.3922C36.0218 28.1304 36.9043 28.1135 37.6934 28.9535M40.3663 30.3196L35.0969 28.3595L40.205 30.7015" fill="#85340A"/>
<path d="M38.69 28.0071C38.2213 27.0323 37.4722 26.823 37.2019 25.8569C37.2565 26.6786 38.0783 27.0006 38.4859 28.0787M40.4325 30.3637L36.3143 26.5363L40.1374 30.6548" fill="#85340A"/>
<path d="M40.6719 30.3589L37.2519 22.9189C37.2519 22.9189 37.1919 22.7749 37.0959 22.8109C36.9999 22.8589 37.0599 22.9909 37.0599 22.9909L39.9039 30.6709M39.9879 27.7789C40.0359 26.6509 39.3399 26.0269 39.4239 25.0189C39.5199 23.9989 38.9679 23.4349 38.8239 23.0389C38.7039 22.6429 38.9799 22.4149 38.8599 22.3549C38.7399 22.2949 38.4999 22.6069 38.5719 23.1709C38.6559 23.7229 39.0759 23.8909 38.9799 25.1269C38.8839 26.3629 39.4839 26.6509 39.3399 27.7669" fill="#F6B40E"/>
<path d="M40.6719 30.3589L37.2519 22.9189C37.2519 22.9189 37.1919 22.7749 37.0959 22.8109C36.9999 22.8589 37.0599 22.9909 37.0599 22.9909L39.9039 30.6709M39.9879 27.7789C40.0359 26.6509 39.3399 26.0269 39.4239 25.0189C39.5199 23.9989 38.9679 23.4349 38.8239 23.0389C38.7039 22.6429 38.9799 22.4149 38.8599 22.3549C38.7399 22.2949 38.4999 22.6069 38.5719 23.1709C38.6559 23.7229 39.0759 23.8909 38.9799 25.1269C38.8839 26.3629 39.4839 26.6509 39.3399 27.7669" stroke="#85340A" stroke-width="0.132"/>
<path d="M40.7014 30.5179L40.3889 22.3355C40.3889 22.3355 40.3886 22.1795 40.2861 22.176C40.1791 22.1836 40.184 22.3285 40.184 22.3285L39.8725 30.5123M41.0568 27.8725C41.5328 26.8488 41.1286 26.0059 41.592 25.1068C42.071 24.2012 41.7768 23.4689 41.7953 23.0479C41.836 22.6361 42.1783 22.5311 42.0904 22.4297C42.0025 22.3284 41.6613 22.5248 41.512 23.0734C41.3784 23.6155 41.7021 23.9315 41.1404 25.0367C40.5787 26.1418 41.0228 26.6375 40.4627 27.6135" fill="#F6B40E"/>
<path d="M40.7014 30.5179L40.3889 22.3355C40.3889 22.3355 40.3886 22.1795 40.2861 22.176C40.1791 22.1836 40.184 22.3285 40.184 22.3285L39.8725 30.5123M41.0568 27.8725C41.5328 26.8488 41.1286 26.0059 41.592 25.1068C42.071 24.2012 41.7768 23.4689 41.7953 23.0479C41.836 22.6361 42.1783 22.5311 42.0904 22.4297C42.0025 22.3284 41.6613 22.5248 41.512 23.0734C41.3784 23.6155 41.7021 23.9315 41.1404 25.0367C40.5787 26.1418 41.0228 26.6375 40.4627 27.6135" stroke="#85340A" stroke-width="0.132"/>
<path d="M40.6698 30.6761L43.5124 22.9969C43.5124 22.9969 43.5718 22.8527 43.4785 22.8103C43.3766 22.7763 43.3257 22.9121 43.3257 22.9121L39.9062 30.3537M42.0105 28.3681C42.8421 27.6044 42.7912 26.6711 43.5633 26.0177C44.3524 25.3643 44.3609 24.5752 44.5391 24.1934C44.7343 23.8285 45.0907 23.8624 45.0482 23.7352C45.0058 23.6079 44.6155 23.6588 44.2676 24.1085C43.9367 24.5582 44.1149 24.974 43.173 25.7801C42.2311 26.5862 42.4517 27.2141 41.5608 27.9014" fill="#F6B40E"/>
<path d="M40.6698 30.6761L43.5124 22.9969C43.5124 22.9969 43.5718 22.8527 43.4785 22.8103C43.3766 22.7763 43.3257 22.9121 43.3257 22.9121L39.9062 30.3537M42.0105 28.3681C42.8421 27.6044 42.7912 26.6711 43.5633 26.0177C44.3524 25.3643 44.3609 24.5752 44.5391 24.1934C44.7343 23.8285 45.0907 23.8624 45.0482 23.7352C45.0058 23.6079 44.6155 23.6588 44.2676 24.1085C43.9367 24.5582 44.1149 24.974 43.173 25.7801C42.2311 26.5862 42.4517 27.2141 41.5608 27.9014" stroke="#85340A" stroke-width="0.132"/>
<path d="M40.5773 30.81L46.1422 24.8032C46.1422 24.8032 46.2523 24.6927 46.1823 24.6178C46.1012 24.5474 46.0022 24.6534 46.0022 24.6534L39.9952 30.2199M42.6992 29.1908C43.7597 28.8035 44.0698 27.9217 45.0332 27.6135C46.0123 27.3119 46.3222 26.5861 46.6329 26.3015C46.9528 26.0391 47.2691 26.2068 47.2786 26.073C47.2881 25.9392 46.908 25.8368 46.4145 26.1192C45.9367 26.408 45.9422 26.8603 44.7635 27.2446C43.5849 27.6289 43.5484 28.2935 42.4623 28.5875" fill="#F6B40E"/>
<path d="M40.5773 30.81L46.1422 24.8032C46.1422 24.8032 46.2523 24.6927 46.1823 24.6178C46.1012 24.5474 46.0022 24.6534 46.0022 24.6534L39.9952 30.2199M42.6992 29.1908C43.7597 28.8035 44.0698 27.9217 45.0332 27.6135C46.0123 27.3119 46.3222 26.5861 46.6329 26.3015C46.9528 26.0391 47.2691 26.2068 47.2786 26.073C47.2881 25.9392 46.908 25.8368 46.4145 26.1192C45.9367 26.408 45.9422 26.8603 44.7635 27.2446C43.5849 27.6289 43.5484 28.2935 42.4623 28.5875" stroke="#85340A" stroke-width="0.132"/>
<path d="M39.7725 27.5869C39.7125 26.5069 39.1005 26.0269 39.2205 25.0309C38.9565 25.8109 39.5925 26.4229 39.5565 27.5749M40.4805 30.4309L38.1405 25.3189L40.0965 30.5869" fill="#85340A"/>
<path d="M40.9314 27.6125C41.2893 26.5917 40.9076 25.914 41.3996 25.0398C40.8572 25.6594 41.2106 26.4682 40.7365 27.5187M40.4972 30.5109L40.2916 24.8926L40.0827 30.5081" fill="#85340A"/>
<path d="M41.9918 28.0797C42.713 27.2736 42.6197 26.5014 43.4088 25.882C42.6706 26.2469 42.6876 27.1294 41.8475 27.9185M40.4814 30.5914L42.4415 25.322L40.0996 30.4301" fill="#85340A"/>
<path d="M42.7937 28.9178C43.7685 28.4491 43.9778 27.7 44.9439 27.4297C44.1222 27.4843 43.8002 28.3061 42.7221 28.7137M40.4371 30.6603L44.2645 26.5421L40.146 30.3652" fill="#85340A"/>
<path d="M40.4448 30.8989L47.8848 27.4789C47.8848 27.4789 48.0288 27.4189 47.9928 27.3229C47.9448 27.2269 47.8128 27.2869 47.8128 27.2869L40.1328 30.1309M43.0248 30.2149C44.1528 30.2629 44.7768 29.5669 45.7848 29.6509C46.8048 29.7469 47.3688 29.1949 47.7648 29.0509C48.1608 28.9309 48.3888 29.2069 48.4488 29.0869C48.5088 28.9669 48.1968 28.7269 47.6328 28.7989C47.0808 28.8829 46.9128 29.3029 45.6768 29.2069C44.4408 29.1109 44.1528 29.7109 43.0368 29.5669" fill="#F6B40E"/>
<path d="M40.4448 30.8989L47.8848 27.4789C47.8848 27.4789 48.0288 27.4189 47.9928 27.3229C47.9448 27.2269 47.8128 27.2869 47.8128 27.2869L40.1328 30.1309M43.0248 30.2149C44.1528 30.2629 44.7768 29.5669 45.7848 29.6509C46.8048 29.7469 47.3688 29.1949 47.7648 29.0509C48.1608 28.9309 48.3888 29.2069 48.4488 29.0869C48.5088 28.9669 48.1968 28.7269 47.6328 28.7989C47.0808 28.8829 46.9128 29.3029 45.6768 29.2069C44.4408 29.1109 44.1528 29.7109 43.0368 29.5669" stroke="#85340A" stroke-width="0.132"/>
<path d="M40.2883 30.9295L48.4707 30.617C48.4707 30.617 48.6267 30.6166 48.6302 30.5142C48.6226 30.4071 48.4776 30.412 48.4776 30.412L40.2939 30.1005M42.9336 31.2848C43.9574 31.7609 44.8002 31.3566 45.6994 31.82C46.605 32.299 47.3373 32.0049 47.7582 32.0234C48.17 32.064 48.275 32.4063 48.3764 32.3184C48.4778 32.2305 48.2814 31.8894 47.7327 31.74C47.1906 31.6064 46.8747 31.9301 45.7695 31.3685C44.6643 30.8068 44.1686 31.2509 43.1927 30.6908" fill="#F6B40E"/>
<path d="M40.2883 30.9295L48.4707 30.617C48.4707 30.617 48.6267 30.6166 48.6302 30.5142C48.6226 30.4071 48.4776 30.412 48.4776 30.412L40.2939 30.1005M42.9336 31.2848C43.9574 31.7609 44.8002 31.3566 45.6994 31.82C46.605 32.299 47.3373 32.0049 47.7582 32.0234C48.17 32.064 48.275 32.4063 48.3764 32.3184C48.4778 32.2305 48.2814 31.8894 47.7327 31.74C47.1906 31.6064 46.8747 31.9301 45.7695 31.3685C44.6643 30.8068 44.1686 31.2509 43.1927 30.6908" stroke="#85340A" stroke-width="0.132"/>
<path d="M40.1269 30.8969L47.806 33.7395C47.806 33.7395 47.9503 33.7989 47.9927 33.7055C48.0267 33.6037 47.8909 33.5528 47.8909 33.5528L40.4493 30.1332M42.4349 32.2376C43.1985 33.0691 44.1319 33.0182 44.7853 33.7904C45.4387 34.5795 46.2278 34.588 46.6096 34.7662C46.9745 34.9613 46.9405 35.3177 47.0678 35.2753C47.1951 35.2329 47.1442 34.8425 46.6945 34.4946C46.2448 34.1637 45.829 34.3419 45.0229 33.4C44.2168 32.4582 43.5889 32.6788 42.9016 31.7878" fill="#F6B40E"/>
<path d="M40.1269 30.8969L47.806 33.7395C47.806 33.7395 47.9503 33.7989 47.9927 33.7055C48.0267 33.6037 47.8909 33.5528 47.8909 33.5528L40.4493 30.1332M42.4349 32.2376C43.1985 33.0691 44.1319 33.0182 44.7853 33.7904C45.4387 34.5795 46.2278 34.588 46.6096 34.7662C46.9745 34.9613 46.9405 35.3177 47.0678 35.2753C47.1951 35.2329 47.1442 34.8425 46.6945 34.4946C46.2448 34.1637 45.829 34.3419 45.0229 33.4C44.2168 32.4582 43.5889 32.6788 42.9016 31.7878" stroke="#85340A" stroke-width="0.132"/>
<path d="M39.9944 30.8061L46.0012 36.371C46.0012 36.371 46.1118 36.481 46.1867 36.411C46.257 36.33 46.1511 36.231 46.1511 36.231L40.5845 30.2239M41.6137 32.9279C42.001 33.9884 42.8828 34.2986 43.1909 35.262C43.4926 36.2411 44.2184 36.5509 44.503 36.8617C44.7654 37.1816 44.5976 37.4979 44.7315 37.5074C44.8653 37.5169 44.9676 37.1368 44.6853 36.6433C44.3964 36.1654 43.9441 36.171 43.5598 34.9923C43.1755 33.8137 42.511 33.7772 42.2169 32.691" fill="#F6B40E"/>
<path d="M39.9944 30.8061L46.0012 36.371C46.0012 36.371 46.1118 36.481 46.1867 36.411C46.257 36.33 46.1511 36.231 46.1511 36.231L40.5845 30.2239M41.6137 32.9279C42.001 33.9884 42.8828 34.2986 43.1909 35.262C43.4926 36.2411 44.2184 36.5509 44.503 36.8617C44.7654 37.1816 44.5976 37.4979 44.7315 37.5074C44.8653 37.5169 44.9676 37.1368 44.6853 36.6433C44.3964 36.1654 43.9441 36.171 43.5598 34.9923C43.1755 33.8137 42.511 33.7772 42.2169 32.691" stroke="#85340A" stroke-width="0.132"/>
<path d="M43.2188 29.999C44.2987 29.939 44.7788 29.327 45.7748 29.447C44.9948 29.183 44.3828 29.819 43.2308 29.783M40.3748 30.707L45.4867 28.367L40.2188 30.323" fill="#85340A"/>
<path d="M43.191 31.1587C44.2118 31.5166 44.8894 31.1349 45.7637 31.6269C45.1441 31.0845 44.3353 31.4379 43.2848 30.9638M40.2926 30.7245L45.9109 30.5189L40.2954 30.31" fill="#85340A"/>
<path d="M42.7235 32.2205C43.5296 32.9418 44.3018 32.8485 44.9212 33.6376C44.5563 32.8994 43.6739 32.9163 42.8847 32.0763M40.2119 30.7102L45.4812 32.6703L40.3731 30.3283" fill="#85340A"/>
<path d="M41.8881 33.0227C42.3568 33.9975 43.1059 34.2068 43.3762 35.1729C43.3216 34.3512 42.4998 34.0292 42.0922 32.9511M40.1456 30.6661L44.2638 34.4935L40.4407 30.375" fill="#85340A"/>
<path d="M40.2906 33.8525C42.1339 33.8525 43.6281 32.3582 43.6281 30.515C43.6281 28.6717 42.1339 27.1775 40.2906 27.1775C38.4474 27.1775 36.9531 28.6717 36.9531 30.515C36.9531 32.3582 38.4474 33.8525 40.2906 33.8525Z" fill="#F6B40E" stroke="#85340A" stroke-width="0.175"/>
<path d="M41.4266 29.8025C41.2016 29.8025 40.9766 29.9025 40.8516 30.1025C41.1016 30.34 41.6766 30.3525 42.0641 30.0775C41.9822 29.9906 41.8834 29.9213 41.7738 29.8741C41.6641 29.8268 41.546 29.8024 41.4266 29.8025ZM41.4266 29.8525C41.6391 29.8525 41.8516 29.9525 41.8766 30.0525C41.6266 30.34 41.2141 30.3025 40.9516 30.1025C41.0019 30.0228 41.0723 29.9578 41.1556 29.914C41.239 29.8701 41.3324 29.8489 41.4266 29.8525Z" fill="#843511"/>
<path d="M41.464 29.6399C41.1265 29.6399 41.0515 29.7274 40.9015 29.8524C40.7515 29.9774 40.664 29.9524 40.6515 29.9774C40.614 30.0024 40.6515 30.0774 40.689 30.0524C40.7515 30.0274 40.8515 29.9774 41.0015 29.8524C41.1515 29.7274 41.314 29.7274 41.464 29.7274C41.9265 29.7274 42.1765 30.1024 42.239 30.0774C42.2765 30.0524 41.9765 29.6399 41.464 29.6399Z" fill="#85340A"/>
<path d="M42.3906 29.8025C41.8031 29.29 41.0531 29.2025 40.6406 29.59C40.5438 29.7186 40.4795 29.8687 40.4531 30.0275C40.4031 30.315 40.4906 30.6275 40.7156 30.9525L40.6156 31.0025C40.4193 30.6443 40.3489 30.2305 40.4156 29.8275C40.432 29.7296 40.4571 29.6334 40.4906 29.54C41.0531 29.0775 41.8281 29.04 42.3906 29.79V29.8025Z" fill="#85340A"/>
<path d="M41.4133 30.2899C41.5444 30.2899 41.6508 30.1836 41.6508 30.0524C41.6508 29.9213 41.5444 29.8149 41.4133 29.8149C41.2821 29.8149 41.1758 29.9213 41.1758 30.0524C41.1758 30.1836 41.2821 30.2899 41.4133 30.2899Z" fill="#85340A"/>
<path d="M42.0781 30.2023C41.6406 30.5398 41.2031 30.5148 40.9531 30.3648C40.7031 30.2023 40.7031 30.1523 40.7531 30.1523C40.8031 30.1523 40.8531 30.2023 41.0531 30.3148C41.2656 30.4148 41.5656 30.4148 42.0781 30.2023Z" fill="#85340A"/>
<path d="M39.7875 30.9773C39.7474 30.9814 39.709 30.9956 39.6759 31.0186C39.6427 31.0415 39.616 31.0726 39.5982 31.1088C39.5804 31.1449 39.5721 31.185 39.5741 31.2253C39.5761 31.2655 39.5882 31.3046 39.6095 31.3389C39.6308 31.3731 39.6604 31.4014 39.6956 31.4211C39.7308 31.4407 39.7704 31.4511 39.8107 31.4511C39.8511 31.4512 39.8907 31.4411 39.926 31.4216C39.9613 31.4021 39.9911 31.374 40.0125 31.3398C40.0949 31.391 40.1905 31.4171 40.2875 31.4148H40.3125C40.4138 31.4204 40.5143 31.3942 40.6 31.3398C40.6231 31.3716 40.6537 31.397 40.689 31.4141C40.7244 31.4311 40.7634 31.439 40.8026 31.4373C40.8417 31.4356 40.8799 31.4241 40.9136 31.4041C40.9473 31.384 40.9755 31.3559 40.9956 31.3222C41.0158 31.2886 41.0274 31.2505 41.0292 31.2113C41.0311 31.1721 41.0232 31.1331 41.0063 31.0977C40.9894 31.0623 40.964 31.0316 40.9324 31.0085C40.9007 30.9853 40.8638 30.9703 40.825 30.9648C40.8875 31.0023 40.925 31.0523 40.925 31.1273C40.925 31.2023 40.8625 31.2773 40.775 31.2773C40.7352 31.2773 40.6971 31.2615 40.6689 31.2334C40.6408 31.2053 40.625 31.1671 40.625 31.1273C40.5954 31.1891 40.5494 31.2415 40.4921 31.2789C40.4349 31.3164 40.3684 31.3375 40.3 31.3398C40.2338 31.3353 40.1699 31.3132 40.115 31.2758C40.0601 31.2385 40.0161 31.1873 39.9875 31.1273C39.9876 31.1481 39.9833 31.1687 39.975 31.1878C39.9667 31.2069 39.9545 31.224 39.9392 31.2381C39.924 31.2522 39.9059 31.263 39.8862 31.2697C39.8666 31.2765 39.8457 31.2791 39.825 31.2773C39.75 31.2773 39.675 31.2023 39.675 31.1273C39.675 31.0523 39.7125 31.0023 39.775 30.9773H39.7875ZM40.0375 31.6648C39.775 31.6648 39.6625 31.8898 39.4375 32.0398C39.5625 31.9898 39.675 31.8898 39.85 31.7898C40.025 31.6898 40.1875 31.8148 40.2875 31.8148C40.3875 31.8148 40.5375 31.6898 40.725 31.7898C40.9 31.8898 41.0125 31.9898 41.1375 32.0398C40.9 31.8898 40.8 31.6648 40.5375 31.6648C40.4501 31.6736 40.3653 31.6991 40.2875 31.7398C40.2106 31.6947 40.1257 31.665 40.0375 31.6523V31.6648Z" fill="#85340A"/>
<path d="M39.9406 31.9649C39.8406 31.9649 39.7156 31.9899 39.5156 32.0399C39.9781 31.9399 40.0781 32.1024 40.2906 32.1024C40.4906 32.1024 40.5906 31.9399 41.0531 32.0399C40.5531 31.8899 40.4406 31.9899 40.2906 31.9899C40.1906 31.9899 40.1156 31.9524 39.9406 31.9649Z" fill="#85340A"/>
<path d="M39.5375 32.04H39.4375C39.975 32.1025 39.725 32.415 40.2875 32.415C40.85 32.415 40.6 32.1025 41.1375 32.04C40.575 31.99 40.75 32.3275 40.2875 32.3275C39.85 32.3275 39.9875 32.04 39.5375 32.04ZM40.75 32.8775C40.75 32.7548 40.7013 32.6372 40.6145 32.5504C40.5278 32.4637 40.4102 32.415 40.2875 32.415C40.1648 32.415 40.0472 32.4637 39.9605 32.5504C39.8737 32.6372 39.825 32.7548 39.825 32.8775C39.8494 32.7731 39.9084 32.6801 39.9924 32.6135C40.0763 32.547 40.1803 32.5107 40.2875 32.5107C40.3947 32.5107 40.4987 32.547 40.5826 32.6135C40.6666 32.6801 40.7256 32.7731 40.75 32.8775Z" fill="#85340A"/>
<path d="M38.2148 29.8025C38.8023 29.29 39.5523 29.2025 39.9648 29.59C40.0616 29.7186 40.126 29.8687 40.1523 30.0275C40.2023 30.315 40.1148 30.6275 39.8898 30.9525L39.9898 31.0025C40.1861 30.6443 40.2566 30.2305 40.1898 29.8275C40.1735 29.7296 40.1484 29.6334 40.1148 29.54C39.5523 29.0775 38.7773 29.04 38.2148 29.79V29.8025Z" fill="#85340A"/>
<path d="M39.1375 29.6399C39.475 29.6399 39.55 29.7274 39.7 29.8524C39.85 29.9774 39.9375 29.9524 39.95 29.9774C39.9875 30.0024 39.95 30.0774 39.9125 30.0524C39.85 30.0274 39.75 29.9774 39.6 29.8524C39.45 29.7274 39.2875 29.7274 39.1375 29.7274C38.675 29.7274 38.425 30.1024 38.3625 30.0774C38.325 30.0524 38.625 29.6399 39.1375 29.6399Z" fill="#85340A"/>
<path d="M39.1258 29.8025C38.9008 29.8025 38.6758 29.9025 38.5508 30.1025C38.8008 30.34 39.3758 30.3525 39.7633 30.0775C39.6814 29.9906 39.5826 29.9213 39.473 29.8741C39.3633 29.8268 39.2452 29.8024 39.1258 29.8025ZM39.1258 29.8525C39.3383 29.8525 39.5508 29.9525 39.5758 30.0525C39.3258 30.34 38.9133 30.3025 38.6508 30.1025C38.7011 30.0228 38.7715 29.9578 38.8548 29.914C38.9382 29.8701 39.0316 29.8489 39.1258 29.8525Z" fill="#843511"/>
<path d="M39.1516 30.2899C39.2827 30.2899 39.3891 30.1836 39.3891 30.0524C39.3891 29.9213 39.2827 29.8149 39.1516 29.8149C39.0204 29.8149 38.9141 29.9213 38.9141 30.0524C38.9141 30.1836 39.0204 30.2899 39.1516 30.2899Z" fill="#85340A"/>
<path d="M38.5273 30.2023C38.9648 30.5398 39.4023 30.5148 39.6523 30.3648C39.9023 30.2023 39.9023 30.1523 39.8523 30.1523C39.8023 30.1523 39.7523 30.2023 39.5523 30.3148C39.3398 30.4148 39.0398 30.4148 38.5273 30.2023Z" fill="#85340A"/>
</g>
<defs>
<clipPath id="clip0_4447_18608">
<rect width="80" height="60" fill="white" transform="translate(0.289062 0.514893)"/>
</clipPath>
</defs>
</svg>
