<svg width="81" height="61" viewBox="0 0 81 61" fill="none" xmlns="http://www.w3.org/2000/svg">
<g clip-path="url(#clip0_4447_20184)">
<path d="M0.289062 0.514893H80.2891V60.5149H0.289062V0.514893Z" fill="#DE2910"/>
<path d="M9.88902 22.7149L15.2889 6.51489L20.6889 22.7149L6.28906 12.8149H24.2888L9.88902 22.7149Z" fill="#FFDE00"/>
<path d="M33.3121 6.82547L27.7549 8.05698L31.4618 3.7374L31.0982 9.55099L28.0143 4.40422L33.3121 6.82547Z" fill="#FFDE00"/>
<path d="M38.9188 13.9333L33.319 12.9131L38.411 10.3693L35.8212 15.5868L34.9747 9.64681L38.9188 13.9333Z" fill="#FFDE00"/>
<path d="M38.0999 23.9055L33.403 20.6901L39.0897 20.4443L34.5972 24.1519L36.2469 18.3832L38.0999 23.9055Z" fill="#FFDE00"/>
<path d="M31.0357 30.42L27.9452 25.64L33.2856 27.6097L27.7097 29.2944L31.4594 24.6105L31.0357 30.42Z" fill="#FFDE00"/>
</g>
<defs>
<clipPath id="clip0_4447_20184">
<rect width="80" height="60" fill="white" transform="translate(0.289062 0.514893)"/>
</clipPath>
</defs>
</svg>
