<svg width="81" height="61" viewBox="0 0 81 61" fill="none" xmlns="http://www.w3.org/2000/svg">
<g clip-path="url(#clip0_4447_20247)">
<path d="M0.289062 0.514893H80.2891V60.5149H0.289062V0.514893Z" fill="white"/>
<path d="M38.7635 50.3399C38.7537 50.3331 38.7452 50.3246 38.7385 50.3149H38.726L38.5635 50.1399L38.0885 49.5774L37.476 48.7899L37.401 48.6774L36.626 48.4399L36.051 48.1774L36.351 47.8399L37.401 48.2774L38.176 48.4399L39.6135 49.5024L39.201 49.8649C39.0542 50.0016 38.9164 50.1478 38.7885 50.3024L38.876 50.2399L38.976 50.3149L38.776 50.3399H38.7635ZM33.4385 48.7399C32.7336 48.7336 32.0432 48.5394 31.4385 48.1774C31.4385 48.1774 31.526 48.0149 31.726 47.8774C31.926 47.7274 32.276 47.5649 32.851 47.5524C33.526 47.5524 34.351 47.7899 35.2885 48.2274C34.7283 48.5581 34.089 48.7309 33.4385 48.7274V48.7399ZM30.501 48.0899C30.376 48.0899 30.251 48.0399 30.176 47.9649C30.1051 47.8784 30.0577 47.775 30.0385 47.6649C30.0052 47.5258 29.9926 47.3826 30.001 47.2399C30.0531 47.2213 30.1082 47.2128 30.1635 47.2149C30.4135 47.2149 30.6135 47.4274 30.701 47.6399C30.751 47.7649 30.7635 47.8649 30.726 47.9524C30.701 48.0274 30.601 48.0774 30.501 48.0774V48.0899ZM35.6635 47.4899C33.926 47.2399 33.1885 46.6149 32.876 46.1274C32.551 45.6149 32.626 45.1274 32.626 45.1274C32.626 45.1274 32.726 45.1024 32.876 45.1024C33.351 45.1024 34.526 45.3399 35.6635 47.4774V47.4899ZM32.101 47.1399C31.3635 47.1399 30.801 47.0149 30.426 46.7649C30.2657 46.6641 30.136 46.5215 30.051 46.3524C30.0241 46.2886 30.0073 46.2212 30.001 46.1524C30.286 46.0336 30.5922 45.974 30.901 45.9774C31.3471 45.9934 31.7856 46.0977 32.1912 46.2844C32.5967 46.4711 32.9612 46.7363 33.2635 47.0649C32.8385 47.1149 32.451 47.1399 32.101 47.1399ZM28.5135 47.0149C27.7385 47.0149 26.6635 46.7649 25.9885 46.1024C25.9885 46.1024 26.726 45.9149 27.5385 45.8899H27.6885C28.426 45.8899 28.9885 46.0274 29.3635 46.3149C29.4885 46.4149 29.5635 46.5024 29.576 46.5899C29.5885 46.6649 29.551 46.7399 29.476 46.8024C29.301 46.9274 29.001 47.0024 28.576 47.0024H28.5135V47.0149ZM25.976 45.7024C25.9276 45.7014 25.8801 45.6897 25.8368 45.6681C25.7936 45.6465 25.7557 45.6155 25.726 45.5774C25.6737 45.5029 25.6395 45.4173 25.626 45.3274C25.5885 45.1524 25.601 44.9774 25.601 44.9649C25.6403 44.9477 25.683 44.9391 25.726 44.9399C25.8385 44.9399 25.926 45.0024 25.976 45.0649C26.052 45.1343 26.1117 45.2197 26.151 45.3149C26.176 45.4274 26.1885 45.5149 26.151 45.5899C26.151 45.6399 26.076 45.7149 25.9885 45.7149L25.976 45.7024ZM31.8385 45.5774C31.7135 45.5774 31.5885 45.5274 31.5135 45.4524C31.4426 45.3659 31.3952 45.2625 31.376 45.1524C31.3427 45.0133 31.3301 44.8701 31.3385 44.7274C31.3906 44.7088 31.4457 44.7003 31.501 44.7024C31.751 44.7024 31.9635 44.9149 32.0385 45.1274C32.0885 45.2524 32.101 45.3524 32.076 45.4399C32.0385 45.5149 31.951 45.5649 31.826 45.5649L31.8385 45.5774ZM28.9885 45.4524C27.4135 45.4024 26.5885 44.9524 26.1885 44.5774C26.0141 44.4266 25.8699 44.2443 25.7635 44.0399C25.701 43.9149 25.676 43.8149 25.676 43.7899C25.676 43.7649 25.826 43.7399 26.051 43.7399H26.101C26.626 43.7399 27.7135 43.9649 28.976 45.4524H28.9885ZM30.6885 45.3024C29.7888 45.2046 28.9524 44.793 28.326 44.1399C28.0954 43.8876 27.9207 43.5894 27.8135 43.2649C27.8135 43.2649 27.9635 43.2274 28.1885 43.2149C28.2301 43.2134 28.2718 43.2134 28.3135 43.2149C28.9385 43.2274 30.101 43.5149 30.6885 45.3024ZM24.1885 44.6774C23.7892 44.681 23.3907 44.6391 23.001 44.5524C22.3385 44.3774 22.051 44.1274 21.926 43.9399C21.8749 43.8648 21.8407 43.7795 21.826 43.6899C21.822 43.6566 21.822 43.6231 21.826 43.5899C21.826 43.5899 22.2635 43.4649 22.876 43.4524C23.1861 43.4445 23.4962 43.4696 23.801 43.5274C24.4386 43.6617 25.0066 44.0211 25.401 44.5399C25.401 44.5399 24.901 44.6899 24.1885 44.6899V44.6774ZM27.126 43.6274C27.0681 43.6289 27.0105 43.6186 26.9568 43.5971C26.9031 43.5756 26.8543 43.5434 26.8135 43.5024C26.7426 43.4159 26.6952 43.3125 26.676 43.2024C26.626 43.0024 26.6385 42.8024 26.6385 42.7774C26.6858 42.7561 26.7366 42.7434 26.7885 42.7399H26.801C27.051 42.7399 27.251 42.9649 27.3385 43.1774C27.3885 43.3024 27.3885 43.4024 27.3635 43.4774C27.326 43.5649 27.2385 43.6149 27.126 43.6149V43.6274ZM24.926 43.3149C24.504 43.1952 24.1002 43.0186 23.726 42.7899C23.176 42.4524 22.4885 41.8524 22.4135 40.9149L22.5385 40.9024H22.576C22.7385 40.9024 23.076 40.9399 23.4885 41.2524C24.0135 41.6524 24.4885 42.3524 24.926 43.3149ZM26.3635 43.2649C26.0187 43.1079 25.6987 42.9016 25.4135 42.6524C24.6819 42.0209 24.1119 41.2238 23.751 40.3274C23.751 40.3274 23.8635 40.2649 24.0385 40.2524C24.0468 40.2521 24.0551 40.2521 24.0635 40.2524H24.1135C24.3635 40.2524 24.726 40.3649 25.126 40.8024C25.601 41.3024 26.0135 42.1274 26.376 43.2649H26.3635ZM22.626 43.1524C22.1385 43.1524 21.976 42.9024 21.926 42.7774C21.8775 42.6587 21.8603 42.5296 21.876 42.4024C21.958 42.3842 22.0419 42.3758 22.126 42.3774C22.2812 42.3725 22.4355 42.4038 22.5765 42.4689C22.7175 42.534 22.8415 42.631 22.9385 42.7524C22.9635 42.8024 23.0385 42.9274 22.976 43.0399C22.926 43.1149 22.8135 43.1649 22.626 43.1649V43.1524ZM21.5635 41.8024C21.1866 41.8064 20.8101 41.7772 20.4385 41.7149C20.0135 41.6399 19.776 41.2774 19.6385 40.9774C19.5135 40.6649 19.4635 40.3524 19.4635 40.3524C20.7885 40.3899 21.426 40.7774 21.7135 41.1024C21.895 41.2892 22.0093 41.531 22.0385 41.7899C22.0385 41.7899 21.8385 41.8149 21.5635 41.8149V41.8024ZM22.9385 40.4274C22.8316 40.2907 22.7315 40.1488 22.6385 40.0024C22.476 39.7524 22.3385 39.5024 22.3385 39.3024C22.3385 39.0899 22.2885 38.6774 22.2635 38.4274L22.1885 37.8649C22.226 37.8649 23.0135 38.1649 23.0135 38.9149C23.0135 39.6649 22.9385 40.4149 22.9385 40.4149V40.4274ZM21.9135 40.3524H21.8885C21.031 40.0956 20.2497 39.632 19.6135 39.0024C19.401 38.7524 19.2635 38.3524 19.226 37.8274C19.201 37.4524 19.226 37.1399 19.226 37.1024C19.2708 37.0905 19.3172 37.0863 19.3635 37.0899C19.5385 37.0899 19.7385 37.1649 19.9885 37.3399C20.2205 37.5042 20.438 37.6882 20.6385 37.8899C21.0385 38.2899 21.351 38.6899 21.351 38.6899C21.3885 38.7399 21.601 39.1524 21.7885 39.5524C21.8762 39.736 21.9433 39.9289 21.9885 40.1274C22.001 40.2024 22.0135 40.2524 21.9885 40.3024C21.9825 40.3231 21.9692 40.3409 21.951 40.3524C21.9345 40.3561 21.9174 40.3561 21.901 40.3524H21.9135Z" fill="#435125"/>
<path d="M36.0256 50.3399C36.0354 50.3331 36.0438 50.3246 36.0506 50.3149H36.0631L36.2256 50.1399L36.7006 49.5774L37.3131 48.7899L37.3881 48.6774L38.1631 48.4399L38.7381 48.1774L38.4381 47.8399L37.3881 48.2774L36.6131 48.4399L35.1756 49.5024L35.5881 49.8649C35.7349 50.0016 35.8727 50.1478 36.0006 50.3024L35.9131 50.2399L35.8131 50.3149L36.0131 50.3399H36.0256ZM41.3506 48.7399C42.0554 48.7336 42.7458 48.5394 43.3506 48.1774C43.3506 48.1774 43.2631 48.0149 43.0631 47.8774C42.8631 47.7274 42.5131 47.5649 41.9381 47.5524C41.2631 47.5524 40.4381 47.7899 39.5006 48.2274C40.0608 48.5581 40.7001 48.7309 41.3506 48.7274V48.7399ZM44.2881 48.0899C44.4131 48.0899 44.5381 48.0399 44.6131 47.9649C44.684 47.8784 44.7313 47.775 44.7506 47.6649C44.7838 47.5258 44.7965 47.3826 44.7881 47.2399C44.736 47.2213 44.6809 47.2128 44.6256 47.2149C44.3756 47.2149 44.1756 47.4274 44.0881 47.6399C44.0381 47.7649 44.0256 47.8649 44.0631 47.9524C44.0881 48.0274 44.1881 48.0774 44.2881 48.0774V48.0899ZM39.1256 47.4899C40.8631 47.2399 41.6006 46.6149 41.9131 46.1274C42.2381 45.6149 42.1631 45.1274 42.1631 45.1274C42.1631 45.1274 42.0631 45.1024 41.9131 45.1024C41.4381 45.1024 40.2631 45.3399 39.1256 47.4774V47.4899ZM42.6881 47.1399C43.4256 47.1399 43.9881 47.0149 44.3631 46.7649C44.5234 46.6641 44.6531 46.5215 44.7381 46.3524C44.7649 46.2886 44.7818 46.2212 44.7881 46.1524C44.5031 46.0336 44.1969 45.974 43.8881 45.9774C43.442 45.9934 43.0034 46.0977 42.5979 46.2844C42.1924 46.4711 41.8279 46.7363 41.5256 47.0649C41.9506 47.1149 42.3381 47.1399 42.6881 47.1399ZM46.2756 47.0149C47.0506 47.0149 48.1256 46.7649 48.8006 46.1024C48.8006 46.1024 48.0631 45.9149 47.2506 45.8899H47.1006C46.3631 45.8899 45.8006 46.0274 45.4256 46.3149C45.3006 46.4149 45.2256 46.5024 45.2131 46.5899C45.2006 46.6649 45.2381 46.7399 45.3131 46.8024C45.4881 46.9274 45.7881 47.0024 46.2131 47.0024H46.2756V47.0149ZM48.8131 45.7024C48.8615 45.7014 48.909 45.6897 48.9522 45.6681C48.9955 45.6465 49.0334 45.6155 49.0631 45.5774C49.1153 45.5029 49.1496 45.4173 49.1631 45.3274C49.2006 45.1524 49.1881 44.9774 49.1881 44.9649C49.1487 44.9477 49.1061 44.9391 49.0631 44.9399C48.9506 44.9399 48.8631 45.0024 48.8131 45.0649C48.7371 45.1343 48.6773 45.2197 48.6381 45.3149C48.6131 45.4274 48.6006 45.5149 48.6381 45.5899C48.6381 45.6399 48.7131 45.7149 48.8006 45.7149L48.8131 45.7024ZM42.9506 45.5774C43.0756 45.5774 43.2006 45.5274 43.2756 45.4524C43.3465 45.3659 43.3938 45.2625 43.4131 45.1524C43.4463 45.0133 43.459 44.8701 43.4506 44.7274C43.3985 44.7088 43.3434 44.7003 43.2881 44.7024C43.0381 44.7024 42.8256 44.9149 42.7506 45.1274C42.7006 45.2524 42.6881 45.3524 42.7131 45.4399C42.7506 45.5149 42.8381 45.5649 42.9631 45.5649L42.9506 45.5774ZM45.8006 45.4524C47.3756 45.4024 48.2006 44.9524 48.6006 44.5774C48.7749 44.4266 48.9191 44.2443 49.0256 44.0399C49.0881 43.9149 49.1131 43.8149 49.1131 43.7899C49.1131 43.7649 48.9631 43.7399 48.7381 43.7399H48.6881C48.1631 43.7399 47.0756 43.9649 45.8131 45.4524H45.8006ZM44.1006 45.3024C45.0003 45.2046 45.8367 44.793 46.4631 44.1399C46.6937 43.8876 46.8683 43.5894 46.9756 43.2649C46.9756 43.2649 46.8256 43.2274 46.6006 43.2149C46.559 43.2134 46.5173 43.2134 46.4756 43.2149C45.8506 43.2274 44.6881 43.5149 44.1006 45.3024ZM50.6006 44.6774C50.9999 44.681 51.3983 44.6391 51.7881 44.5524C52.4506 44.3774 52.7381 44.1274 52.8631 43.9399C52.9142 43.8648 52.9483 43.7795 52.9631 43.6899C52.967 43.6566 52.967 43.6231 52.9631 43.5899C52.9631 43.5899 52.5256 43.4649 51.9131 43.4524C51.603 43.4445 51.2929 43.4696 50.9881 43.5274C50.3505 43.6617 49.7825 44.0211 49.3881 44.5399C49.3881 44.5399 49.8881 44.6899 50.6006 44.6899V44.6774ZM47.6631 43.6274C47.721 43.6289 47.7785 43.6186 47.8323 43.5971C47.886 43.5756 47.9348 43.5434 47.9756 43.5024C48.0465 43.4159 48.0938 43.3125 48.1131 43.2024C48.1631 43.0024 48.1506 42.8024 48.1506 42.7774C48.1032 42.7561 48.0524 42.7434 48.0006 42.7399H47.9881C47.7381 42.7399 47.5381 42.9649 47.4506 43.1774C47.4006 43.3024 47.4006 43.4024 47.4256 43.4774C47.4631 43.5649 47.5506 43.6149 47.6631 43.6149V43.6274ZM49.8631 43.3149C50.2851 43.1952 50.6888 43.0186 51.0631 42.7899C51.6131 42.4524 52.3006 41.8524 52.3756 40.9149L52.2506 40.9024H52.2131C52.0506 40.9024 51.7131 40.9399 51.3006 41.2524C50.7756 41.6524 50.3006 42.3524 49.8631 43.3149ZM48.4256 43.2649C48.7703 43.1079 49.0904 42.9016 49.3756 42.6524C50.1072 42.0209 50.6772 41.2238 51.0381 40.3274C51.0381 40.3274 50.9256 40.2649 50.7506 40.2524C50.7423 40.2521 50.7339 40.2521 50.7256 40.2524H50.6756C50.4256 40.2524 50.0631 40.3649 49.6631 40.8024C49.1881 41.3024 48.7756 42.1274 48.4131 43.2649H48.4256ZM52.1631 43.1524C52.6506 43.1524 52.8131 42.9024 52.8631 42.7774C52.9115 42.6587 52.9288 42.5296 52.9131 42.4024C52.8311 42.3842 52.7471 42.3758 52.6631 42.3774C52.5079 42.3725 52.3536 42.4038 52.2126 42.4689C52.0715 42.534 51.9476 42.631 51.8506 42.7524C51.8256 42.8024 51.7506 42.9274 51.8131 43.0399C51.8631 43.1149 51.9756 43.1649 52.1631 43.1649V43.1524ZM53.2256 41.8024C53.6025 41.8064 53.9789 41.7772 54.3506 41.7149C54.7756 41.6399 55.0131 41.2774 55.1506 40.9774C55.2756 40.6649 55.3256 40.3524 55.3256 40.3524C54.0006 40.3899 53.3631 40.7774 53.0756 41.1024C52.8941 41.2892 52.7797 41.531 52.7506 41.7899C52.7506 41.7899 52.9506 41.8149 53.2256 41.8149V41.8024ZM51.8506 40.4274C51.9575 40.2907 52.0576 40.1488 52.1506 40.0024C52.3131 39.7524 52.4506 39.5024 52.4506 39.3024C52.4506 39.0899 52.5006 38.6774 52.5256 38.4274L52.6006 37.8649C52.5631 37.8649 51.7756 38.1649 51.7756 38.9149C51.7756 39.6649 51.8506 40.4149 51.8506 40.4149V40.4274ZM52.8756 40.3524H52.9006C53.7581 40.0956 54.5393 39.632 55.1756 39.0024C55.3881 38.7524 55.5256 38.3524 55.5631 37.8274C55.5881 37.4524 55.5631 37.1399 55.5631 37.1024C55.5183 37.0905 55.4718 37.0863 55.4256 37.0899C55.2506 37.0899 55.0506 37.1649 54.8006 37.3399C54.5685 37.5042 54.3511 37.6882 54.1506 37.8899C53.7506 38.2899 53.4381 38.6899 53.4381 38.6899C53.4006 38.7399 53.1881 39.1524 53.0006 39.5524C52.9129 39.736 52.8458 39.9289 52.8006 40.1274C52.7881 40.2024 52.7756 40.2524 52.8006 40.3024C52.8065 40.3231 52.8199 40.3409 52.8381 40.3524C52.8546 40.3561 52.8717 40.3561 52.8881 40.3524H52.8756Z" fill="#435125"/>
<path d="M65.1656 10.0649L64.9406 10.1524L64.8406 10.1899L64.5656 10.1774L64.2906 10.3024L63.8156 10.6274L63.8031 10.6399L63.6156 10.6899L63.4531 10.6149L63.3656 10.6649L63.3281 10.8524L63.2406 10.9899L63.1281 11.0649L62.7531 11.1024L62.4406 11.2774L62.0156 11.1524L61.8281 11.2399L61.4156 11.6149L61.2031 11.7024H61.1406L60.8531 11.6899L60.7406 11.7274L60.5656 11.8899L60.2406 11.9149L60.1281 11.9899L59.9656 12.3149L59.7906 12.5149L59.6906 12.5274L59.5906 12.4899L59.5031 12.5024L59.4656 12.7149L59.3906 12.8024L59.1656 12.8774L58.9906 13.0274L58.8281 13.1024H58.5781L58.3656 13.2274L57.9781 13.2524L57.8156 13.4024L57.7781 13.4399L57.7031 13.4774L57.5781 13.5524L57.5531 13.5774L57.4031 13.5524L57.2281 13.6149L57.1531 13.5149L57.0281 13.5774L56.8781 13.5899L56.6781 13.5024L56.5156 13.4274L56.4031 13.4524L56.3656 13.6399V13.6649L56.2406 13.8149L56.0281 13.9524L56.0031 13.9899L55.7531 14.3149L55.2781 14.8149L54.8781 15.0149L54.4656 15.1399L54.1781 15.3774L53.4281 15.7524L52.2156 16.3524L51.9656 16.4274L51.6156 16.4774L50.9906 16.7149L50.4406 16.8774L50.4031 16.8899L50.3031 16.9274L49.5156 17.1649L49.1531 17.1149L48.9406 17.2024L48.3781 17.1399H47.9906L47.7406 17.1899L47.2781 17.4149L46.4906 17.7899L46.2406 18.0399L45.8406 18.2399L45.3656 18.3899V18.1899L45.2031 18.2399L45.0781 18.2774L44.7031 18.3274H44.4906L44.3531 18.2899H44.3281L43.5531 18.5524L42.6781 18.6399L42.2406 18.7774H41.9156L41.7156 18.8399L41.3156 18.8899L41.1656 18.8524L41.1406 18.8399L39.9656 18.8899L39.4281 18.8274L39.1781 18.8899L38.7406 18.7399L38.1156 18.6649L37.9656 18.6274L37.6406 18.5274L37.4906 18.6149L37.3656 18.6274L37.1156 18.5274H37.0156L36.7906 18.6024L36.6656 18.5774L36.5406 18.4774L36.2781 18.4399L36.1031 18.3024L35.1656 18.4274L34.9156 18.3524L34.0531 18.1024H33.9281L33.7531 18.2274L33.5031 18.3274L33.2656 18.3774L32.9656 18.3899L32.6156 18.3024L32.2656 18.1274L32.1281 18.0899L31.8281 18.1274H31.7406L31.1906 17.8399L30.4906 17.4024L30.0156 17.1649L29.8281 17.1399L29.8031 17.2274L29.8906 17.5024L29.9281 17.7899V18.0399L29.9156 18.2024L29.9531 18.3399L30.1281 18.5399L30.2031 18.7274L30.2531 19.2524V19.7899L30.1656 20.6399L30.1406 20.7649L30.0406 21.2149L29.9531 21.6274L29.5906 22.7149L29.5031 22.8399L29.2531 23.0024L28.7156 23.3774L28.3156 23.6024L28.1906 23.6524L27.8656 23.6774H27.6656L27.4156 23.5399L27.1656 23.4774L26.8406 23.2399L26.4906 23.1649L26.0906 22.9399L25.9906 22.8149L25.7781 22.7899L25.4781 22.7024L25.3656 22.6649L25.2906 22.6524L24.9156 22.6399L24.5531 22.4774L24.3656 22.4274H24.1156L23.8531 22.5524L23.7156 22.6024L23.5406 22.5399H23.4156L23.2906 22.7524L23.2656 22.7899L23.1656 22.8399H22.9531L22.8531 22.8774L22.7156 22.9399L22.5906 22.9899L22.5281 23.0149H22.4906L22.4281 23.0399H22.3531L22.2031 22.9649L22.1281 22.9274L22.0031 22.9024L21.9406 22.9399L21.9281 23.1774L21.8656 23.3149L21.6656 23.4899L21.4656 23.6649L21.3406 23.8649L20.9656 24.7024L20.7281 25.0399L20.6656 25.1274L20.4156 25.3899L20.2031 25.5524L19.7156 25.9274L19.2531 26.1149L18.8531 26.1899H18.6531L18.2781 26.1399L17.9531 26.0399L17.5781 25.8149L17.1906 25.4899L16.6031 24.9274L16.5281 24.8774L16.5031 24.8649L16.3281 24.7399H16.1906L16.1406 24.8399L16.1031 24.9649L16.0781 25.0774L16.0156 25.7024V25.7399L16.0531 26.0024L16.5031 26.6274L16.6281 26.9524L16.6531 26.9899L16.7406 27.1399L16.8156 27.2649L16.9781 27.7149L16.8656 27.9649L16.9156 28.1399L16.7906 28.2399L16.7656 28.3899L17.1531 28.8899L17.2406 29.1024L17.1531 29.4024L16.9906 29.5774L16.9531 29.6149L16.9781 29.7399L17.1531 29.9149L17.4656 30.1899L17.6281 30.5899L17.7531 30.7149L17.9031 30.6774L17.9781 30.7399H18.1031L18.2281 30.8649L18.3031 30.8899L18.4281 30.9524L18.5281 31.0774L18.5406 31.4774L18.7281 31.9524V32.2649L18.8531 32.4524L18.8781 32.6024L18.8156 33.0149L18.9656 33.1399L19.1156 33.1149L19.2156 33.1274L19.3781 33.2649L19.5781 33.5649L19.7781 33.5399L19.9031 33.5899L20.4906 34.1274L20.6156 34.2024L20.7281 34.2524L20.8531 34.3774L21.0281 34.2524H21.0531L21.2531 34.2274L21.3406 34.2899L21.5156 34.4024H21.7281L22.2281 34.5524L22.4281 34.6024L22.8531 34.8649L23.0406 34.9774L23.1406 35.0649L23.2906 35.1899L23.5656 35.3149L23.8156 35.3649L23.9406 35.3899L24.0531 35.4274L24.5781 35.6399L24.8656 35.7024L25.1156 35.8024L25.3156 35.8649H25.4656L25.6656 35.7024H25.8531L26.0156 35.7274L26.1781 35.7024L26.4281 35.5524L26.4656 35.4774L26.6406 35.4024L27.2406 35.3274L27.4156 35.3774L27.8656 35.1899L28.1656 35.2649L28.4156 35.1774L29.0031 35.3024L29.1531 35.4149L29.3281 35.6024H29.5406L29.4531 35.7399L29.7031 36.0149L29.9406 36.3524L29.9531 36.4024L30.1156 36.8899L30.2406 37.0649L30.3281 37.3024V37.4524L30.2031 37.5649L30.1781 37.6149V37.6399L30.2031 37.7024L30.2531 37.6774L30.3406 37.6274L30.4656 37.6024L30.6656 37.6274L30.8031 37.6399L31.0156 37.5399L31.1656 37.4649L31.3906 37.5649H31.6406L31.7531 37.6024L32.0531 37.7399L32.2031 37.7524L32.2531 37.7149L32.2906 37.6399L32.2781 37.5399L32.1531 37.4024L31.9031 37.1024L31.8031 36.9524L31.7281 36.7399L31.7031 36.4649L31.6781 36.2774L31.7156 36.0274L31.7781 35.9399L31.8281 35.7399L31.8406 35.6899L31.9906 35.5024L32.3656 35.2524L32.7656 34.9024L33.0781 34.6899L33.4031 34.5524V34.5149L33.4531 34.5274L34.2781 34.2399L34.6531 34.1774L37.1531 34.3524L37.2406 34.3274L37.3281 34.0899L37.3656 34.0524L37.4031 34.0274L37.6781 33.9024L37.8031 33.8774L38.1531 33.9649L38.3031 34.0024L38.5406 33.8774H38.7031L39.0406 33.6899H39.2531L39.3406 33.6649L39.7531 33.3649L40.1406 33.2524L40.2406 33.2024L40.2781 33.1774L40.6906 32.9649L40.9406 32.7649L41.1656 32.6399L41.4156 32.5899L42.0406 32.5399L42.1781 32.3274L42.4531 32.2899L42.6156 32.1024L42.8031 32.0274L42.9406 31.8274L43.0656 31.6649L43.2156 31.5774L43.7281 31.5399L44.3281 31.6149L44.4156 31.5649L44.5406 31.0774L44.6906 30.9899L45.0656 30.4274V30.2274L45.0781 30.0524L45.1406 29.8024L45.1031 29.3774L45.1531 28.9274L45.3906 28.3649L45.6031 28.1399L45.9406 27.9024L46.1156 27.8274L46.3656 27.7899H46.3906L46.4531 27.7649H47.6031L47.8906 27.7524L48.6031 27.8774H48.6531L48.8906 27.9649L49.1656 28.1774L49.4656 28.4649L49.5156 28.5149L49.7031 28.6024L49.7656 28.6274L49.9156 28.6024L50.1406 28.4774L50.3156 28.3524L50.5406 28.2274V28.2024L50.6781 28.0149L50.7281 27.9274L51.1781 27.7524L51.7031 27.7274L51.7656 27.6899H51.7906L51.9281 27.5149H52.0531L52.3781 27.6399L52.5906 27.5899L52.7656 27.6524L52.9031 27.6399L53.1531 27.6024L53.4406 27.8024L53.6031 27.8274L54.1656 28.1524H54.2156L54.2406 28.1649L54.3031 28.1399L54.4031 28.1149H54.4156L54.4281 28.1274L54.5031 28.2149L54.5906 28.2274L54.6906 28.1024L54.6531 28.0274L54.6406 28.0024L54.4281 27.9649L54.2531 27.6524L54.4281 27.4649L54.1531 27.1399L54.1031 27.0774V27.0649L54.0031 26.9149L53.5281 26.1899L52.9031 25.6899L52.6906 25.5274L52.6156 25.4649L52.2781 25.1274L52.0406 24.8149L52.0156 24.7524L51.9656 24.6399L51.8281 24.3399L51.5781 24.1524L51.3781 23.9274L50.9531 23.3524L50.8906 23.2649L50.7906 23.2024H50.5781L50.5656 23.1774H50.5531V23.1649L50.6531 23.0649L50.7781 23.0399L50.8156 22.9274L50.6031 22.3149V22.2899L50.5906 22.1024L50.7531 21.2149L50.7781 21.1024L51.0781 20.5149L51.2531 20.3649L51.4531 19.9774L51.6281 19.7274L51.7906 19.5649L51.8156 19.5524L52.1031 19.3774L52.3531 19.3399L52.5906 19.3024L53.0031 19.4274H53.3781L53.4656 19.4149L53.6406 19.3899L53.9281 19.3024L54.0656 19.2149L54.1406 19.1149L54.2906 18.6149L54.3406 18.4524L54.4281 18.2774L54.9656 17.6649L55.3656 17.2899L56.2656 16.6399L56.7031 16.3774L56.9281 16.2399L58.9406 15.3399L59.4656 14.8149L59.7406 14.5399L60.2156 14.2149L60.7781 13.9774L61.2781 13.6024L61.3781 13.4649L61.5031 13.0274L61.6281 13.0024L61.7156 12.7899L61.7531 12.7274L62.1406 12.4524L62.1906 12.4274L63.7281 11.6524L63.9531 11.6899L64.0781 11.5024L64.5156 11.4274H64.6031L64.7156 11.3649L64.8031 11.2024V11.1649L64.8156 10.7399L64.9156 10.6274L64.9656 10.3524L65.0156 10.2774L65.0656 10.2149L65.1906 10.1274L65.1656 10.0774V10.0649Z" fill="#D47600"/>
</g>
<defs>
<clipPath id="clip0_4447_20247">
<rect width="80" height="60" fill="white" transform="translate(0.289062 0.514893)"/>
</clipPath>
</defs>
</svg>
