<svg width="81" height="61" viewBox="0 0 81 61" fill="none" xmlns="http://www.w3.org/2000/svg">
<g clip-path="url(#clip0_4447_30677)">
<mask id="mask0_4447_30677" style="mask-type:luminance" maskUnits="userSpaceOnUse" x="0" y="0" width="81" height="61">
<path d="M0.289062 0.514893H80.2891V60.5149H0.289062V0.514893Z" fill="white"/>
</mask>
<g mask="url(#mask0_4447_30677)">
<path d="M0.289062 0.514893H80.2891V60.5149H0.289062V0.514893Z" fill="white"/>
<path fill-rule="evenodd" clip-rule="evenodd" d="M-9.71094 0.514893V4.51489L34.0891 30.5149L-9.51094 56.5149V60.5149H-3.11094L40.4891 34.5149L83.8891 60.5149H90.2891V56.5149L46.8891 30.5149L90.4891 4.51489V0.514893H83.8891L40.2891 26.5149L-3.11094 0.514893H-9.51094H-9.71094Z" fill="#DF112D"/>
<path d="M45.5279 9.55486C46.7899 14.7669 46.0979 21.2009 40.2739 24.7849C34.4939 21.2009 33.7599 14.7669 35.0619 9.55486C36.4479 8.33486 42.6359 7.55886 45.5279 9.55486Z" fill="#E8112D" stroke="black" stroke-width="0.040722"/>
<path d="M40.3144 8.49489C42.1501 8.45221 43.9638 8.90251 45.5664 9.79889C45.8344 8.02258 46.5183 6.33472 47.5624 4.87289C46.5444 4.87289 46.0964 5.40089 46.0964 5.93089C45.8524 5.23889 44.8764 5.27889 44.5484 5.64489C45.6484 6.37889 44.7944 7.68289 43.8164 7.43689C43.3684 7.31689 43.1244 6.98889 43.0024 6.50089C43.1316 6.47554 43.2468 6.40299 43.3254 6.29737C43.4041 6.19175 43.4406 6.06063 43.4279 5.92955C43.4152 5.79848 43.3541 5.67684 43.2566 5.58833C43.159 5.49982 43.0321 5.45079 42.9004 5.45079C42.7687 5.45079 42.6417 5.49982 42.5442 5.58833C42.4467 5.67684 42.3856 5.79848 42.3729 5.92955C42.3601 6.06063 42.3966 6.19175 42.4753 6.29737C42.554 6.40299 42.6691 6.47554 42.7984 6.50089C42.5124 6.90889 42.0244 7.15289 41.5364 7.03089C41.0064 6.90889 40.7624 6.41889 40.7624 6.01089C40.7624 4.91289 41.8224 4.75089 42.1464 4.95289C42.1464 4.22089 40.9664 3.60889 40.5984 4.22089C41.0064 3.44689 40.9244 2.46889 40.2724 1.85889C39.9749 2.15865 39.7826 2.54671 39.7242 2.96495C39.6658 3.38319 39.7444 3.8091 39.9484 4.17889C39.5804 3.56889 38.4404 4.17889 38.4404 4.91289C38.7264 4.70889 39.7844 4.87289 39.7844 5.97289C39.7844 6.37889 39.5404 6.86689 39.0524 6.98889C38.8071 7.04626 38.5501 7.02631 38.3166 6.93178C38.0831 6.83724 37.8846 6.67275 37.7484 6.46089C37.8284 6.46089 37.9124 6.37889 37.9924 6.29689C38.0739 6.20988 38.1237 6.09792 38.1338 5.97909C38.1438 5.86027 38.1135 5.74153 38.0477 5.64207C37.982 5.54261 37.8846 5.46824 37.7713 5.43098C37.658 5.39372 37.5355 5.39575 37.4235 5.43674C37.3115 5.47774 37.2166 5.5553 37.1542 5.65688C37.0917 5.75847 37.0654 5.87815 37.0793 5.99657C37.0933 6.115 37.1468 6.22525 37.2312 6.30951C37.3156 6.39376 37.4259 6.44709 37.5444 6.46089C37.4644 6.94889 37.1784 7.27489 36.7304 7.39689C36.5023 7.45361 36.2614 7.42629 36.0518 7.31991C35.8421 7.21354 35.6779 7.03523 35.589 6.81763C35.5001 6.60002 35.4925 6.35769 35.5677 6.13498C35.6429 5.91227 35.7958 5.72409 35.9984 5.60489C35.6724 5.19889 34.6944 5.19889 34.4504 5.89089C34.4504 5.36089 34.0024 4.83089 32.9844 4.83089C34.043 6.28955 34.7407 7.97839 35.0204 9.75889C36.6449 8.88413 38.4699 8.44709 40.3144 8.49489Z" fill="#F9DD16" stroke="black" stroke-width="0.040722"/>
<path d="M44.7145 13.6268C44.5505 13.6268 44.5505 13.8308 44.5105 13.8308C44.8365 13.8308 44.9985 13.7088 45.0805 13.5468V13.7908C45.3245 13.7088 45.4065 13.5048 45.3245 13.3828L45.6105 13.4628C45.4465 13.3428 45.5705 13.0568 45.2845 12.8948C45.3645 12.8948 45.5285 12.9748 45.6105 13.0988C45.5705 12.8128 45.5285 12.6508 45.2845 12.4868H45.4885C45.4351 12.4515 45.3918 12.4029 45.363 12.3457C45.3342 12.2885 45.321 12.2247 45.3245 12.1608C45.3245 11.9988 45.2445 11.9988 45.0805 12.0408L44.3485 12.0808C43.9405 12.0808 43.5325 12.0808 43.2085 11.8348C43.7365 12.0808 44.4285 11.5908 44.4285 11.2248C44.4285 10.8168 43.8585 10.4108 42.8005 10.6548C41.7405 10.8988 40.4385 10.8168 40.4385 10.4508C40.4385 10.0848 41.3745 10.0428 41.8645 10.1248C42.3525 10.2048 42.6785 10.2468 43.5745 9.92078C43.3705 10.0028 42.6365 10.0428 42.0665 9.88078C41.4965 9.71878 40.1125 9.71878 40.1125 10.4508C40.1125 11.2248 41.5785 11.1428 42.8825 10.9388C43.6145 10.8588 44.0225 10.9388 44.0225 11.1428C44.0225 11.3868 43.3305 11.4688 42.8005 11.4288C42.2416 11.3527 41.6729 11.3935 41.1305 11.5488C40.6005 11.7128 40.2345 11.5488 39.6645 11.6728C39.3805 11.6728 38.6865 11.6728 38.3625 11.1028C38.1585 11.2648 37.5465 11.5508 37.4245 11.8768C37.3045 12.1208 37.4245 12.4048 37.5885 12.6908C37.8325 13.0168 37.4665 12.9748 37.1805 12.9748C36.8545 12.9748 36.3665 12.9748 36.1205 12.6508C35.8765 12.4048 35.5925 12.2028 35.3485 12.3648C35.2265 12.4868 35.3485 12.6088 35.4285 12.5688L35.7545 12.6488C35.6893 12.6192 35.6174 12.6074 35.5462 12.6144C35.4749 12.6214 35.4067 12.6471 35.3485 12.6888C35.2265 12.7728 35.3485 12.9348 35.4685 12.8948C35.5525 12.8548 35.7545 12.8128 35.8765 12.8948C35.7565 12.8948 35.5925 12.8948 35.5525 12.9748C35.5125 13.0548 35.5525 13.1388 35.6725 13.1388C35.9185 13.1388 35.9585 13.3008 36.2025 13.2608C36.1459 13.2639 36.0907 13.2802 36.0414 13.3083C35.9921 13.3364 35.9501 13.3756 35.9185 13.4228C36.1625 13.3028 36.3665 13.5868 36.6505 13.5048C36.5705 13.5448 36.3665 13.6688 36.3665 13.7488C36.5285 13.5468 37.6685 13.9128 37.6685 13.4648L37.6285 13.7908C37.7505 13.7088 38.1985 13.6688 38.3625 13.3828C38.3625 13.4628 38.3625 13.5868 38.2805 13.6268C38.4005 13.6268 38.6065 13.5468 38.8085 13.2608C38.8905 13.1388 38.8905 13.0568 38.8905 12.9748C39.0945 12.9748 39.2165 12.9348 39.3805 12.8128C39.5425 12.6908 39.7045 12.9348 39.9905 12.7328C40.2345 12.5688 40.4785 12.7328 40.6425 12.6508C40.7625 12.5688 40.9685 12.6508 41.1305 12.5688C41.2925 12.4868 41.5385 12.6088 41.7825 12.4048C42.1885 12.5688 42.7185 12.8128 43.9005 12.6088C44.5505 12.4888 44.7965 12.7308 44.7965 13.0168C44.7965 13.2608 44.6325 13.2608 44.5505 13.2608C44.1445 13.3008 44.0225 13.1388 43.8585 13.1808C43.7785 13.2208 43.6965 13.3828 43.8585 13.4648C43.7385 13.5048 43.7385 13.6268 43.8185 13.6688C43.8985 13.7108 44.0225 13.6688 44.1445 13.6288C43.9805 13.6688 43.8585 13.7888 43.9405 13.9128C43.9805 13.9928 44.1025 14.0328 44.2245 13.9128C44.3485 13.7488 44.5505 13.6268 44.7145 13.6268ZM37.1405 10.3688C36.8145 10.2488 36.7325 10.2488 36.7725 10.5328C36.7725 10.6528 36.8965 10.8168 36.9765 10.8988C36.9765 10.7768 37.0165 10.4908 37.1405 10.4108V10.3688Z" fill="#F9DD16" stroke="black" stroke-width="0.040722"/>
<path d="M38.2383 10.4109C38.5643 10.2469 38.6863 10.2469 38.6063 10.5309C38.6063 10.6549 38.4843 10.8169 38.4023 10.8989C38.4023 10.7769 38.4023 10.4909 38.2383 10.4109Z" fill="#F9DD16" stroke="black" stroke-width="0.040722"/>
<path d="M37.7106 10.2068C38.3626 10.2068 38.4426 10.5328 38.4026 10.8988C38.4026 11.3068 38.1986 11.1428 38.0766 11.7128C38.0366 11.8768 37.8726 11.9168 37.6686 11.9168C37.5486 11.9168 37.3846 11.9168 37.3026 11.6728C37.1806 11.1428 36.9766 11.2648 36.9766 10.8588C36.9766 10.5328 37.0586 10.2068 37.7106 10.2068Z" fill="#F9DD16" stroke="black" stroke-width="0.040722"/>
<path d="M36.0393 11.7147C35.8753 11.6327 35.7533 11.7147 35.6733 11.7147C35.9173 11.7547 35.9173 12.0387 36.4053 12.1207C36.2853 12.1207 36.2433 12.2007 36.1213 12.1207C36.3233 12.2827 36.5273 12.4867 37.0173 12.4867C37.3013 12.4867 37.0973 12.6087 36.9353 12.5267C37.0973 12.7307 37.4653 12.5667 37.7093 12.9347C37.7093 12.6507 37.3013 12.2427 37.5053 11.9567C36.8133 11.9167 36.7713 11.5507 36.4053 11.2647C36.0793 11.0207 36.0393 10.7767 35.9173 10.3287C35.8773 10.1247 35.6313 10.0027 35.5093 10.0427C35.3893 10.0427 35.3053 10.1667 35.4293 10.2467C35.5093 10.3287 35.6733 10.3287 35.6733 10.5327C35.5513 10.3687 35.3473 10.3287 35.2653 10.4107C35.2253 10.4907 35.2653 10.6147 35.3453 10.6147C35.5513 10.6147 35.4293 10.8587 35.6313 11.0207C35.4293 10.8167 35.2653 10.7767 35.1433 10.9007C35.1033 10.9807 35.1433 11.1007 35.3053 11.1007C35.5093 11.1007 35.7133 11.5927 36.0393 11.7147ZM41.3333 13.5867C41.2533 13.5867 41.2933 13.7907 41.1293 13.7907C41.4553 13.7907 41.6593 13.7087 41.7813 13.5867L41.7013 13.7907C41.8613 13.6687 42.3113 13.6267 42.5133 13.6687C42.7153 13.7107 42.7573 13.6287 42.8393 13.5047C42.9193 13.3427 42.8393 13.2607 42.7193 13.1787C42.5953 13.0587 42.5553 12.8947 42.5953 12.6507C42.0253 11.8347 40.9673 12.2427 40.9673 12.5687C41.3333 13.0167 41.3733 12.9747 41.6993 13.0167C41.9853 13.0967 42.1873 13.0967 41.9853 13.2607C41.9033 13.3407 41.5773 13.2607 41.3733 13.3007C40.8453 13.3007 40.5593 12.9347 40.4373 13.1387C40.3153 13.3007 40.4373 13.3827 40.6813 13.3827C40.5193 13.3827 40.2733 13.3827 40.3153 13.5467C40.3953 13.8307 40.6413 13.5067 40.7633 13.5867C40.6833 13.5867 40.5193 13.6267 40.5193 13.7087C40.5193 13.7887 40.7213 13.9127 40.9253 13.7087C41.0438 13.6235 41.1875 13.5806 41.3333 13.5867Z" fill="#F9DD16" stroke="black" stroke-width="0.040722"/>
<path d="M41.7817 12.4049C41.6057 12.3163 41.4053 12.2882 41.2117 12.3249M38.9317 12.3249C38.7677 12.6509 38.8497 12.8129 38.8917 12.9749M37.2617 10.6949C37.3417 10.7769 37.4237 10.6149 37.5877 10.7769M37.5877 10.7769C37.5477 10.7369 37.4657 10.8989 37.3417 10.7769M37.5877 10.7769V10.8989C37.5457 11.1849 37.4657 11.3069 37.6697 11.3069C37.9137 11.3069 37.8297 11.1849 37.7897 10.8989V10.7769M38.1577 10.7369C38.0357 10.7369 37.9537 10.6149 37.7897 10.7769M37.7897 10.7769C37.8297 10.7369 37.9137 10.8989 38.0357 10.7769" stroke="black" stroke-width="0.040722"/>
<path d="M37.708 11.7949C37.87 11.7949 37.952 11.7949 37.952 11.5509C37.952 11.4709 38.074 11.4289 37.992 11.2649C38.074 11.4289 37.708 11.4289 37.708 11.3469C37.708 11.4269 37.3 11.4269 37.382 11.2669C37.342 11.4269 37.462 11.4689 37.422 11.5509C37.422 11.7949 37.502 11.7949 37.708 11.7949Z" fill="#FF0016" stroke="black" stroke-width="0.040722"/>
<path d="M37.5057 11.3068L37.0977 11.1848L37.5057 11.3068ZM37.5057 11.3048H37.0977H37.5057ZM37.5057 11.3468L37.1397 11.4688L37.5057 11.3468ZM37.8317 11.3068L38.2377 11.1848L37.8317 11.3068ZM37.8317 11.3048H38.3197H37.8317ZM37.8317 11.3468L38.2377 11.4688L37.8317 11.3468Z" fill="black"/>
<path d="M37.5057 11.3068L37.0977 11.1848M37.5057 11.3048H37.0977M37.5057 11.3468L37.1397 11.4688M37.8317 11.3068L38.2377 11.1848M37.8317 11.3048H38.3197M37.8317 11.3468L38.2377 11.4688" stroke="black" stroke-width="0.040722"/>
<path d="M35.5087 10.0429C35.3887 9.88088 35.1027 10.0429 35.1027 10.2069C35.1827 10.0849 35.3467 10.2469 35.4687 10.2069C35.5087 10.2069 35.5907 10.1269 35.5087 10.0429ZM35.3887 10.4109C35.2647 10.2469 34.9387 10.4109 34.9387 10.5729C35.0187 10.4529 35.1827 10.6129 35.3047 10.5729C35.3447 10.5729 35.4287 10.4529 35.3867 10.4109H35.3887ZM35.3047 10.8989C35.1427 10.7369 34.8567 10.8989 34.8987 11.1029C34.9787 10.9809 35.1427 11.1029 35.2247 11.1029C35.3047 11.0629 35.3447 10.9389 35.2647 10.8989H35.3047ZM35.4287 12.4049C35.2647 12.2429 35.0207 12.4449 35.0207 12.6509C35.1007 12.4869 35.3047 12.6509 35.4287 12.5689C35.4287 12.5689 35.5087 12.4469 35.4287 12.3649V12.4049ZM35.4287 12.6909C35.2247 12.6509 35.0207 12.9349 35.1427 13.0989C35.1427 12.8949 35.3867 12.9749 35.4687 12.8949L35.4287 12.6909ZM35.6727 12.9749C35.4687 12.8949 35.2647 13.1389 35.3867 13.3009C35.3867 13.1809 35.6307 13.2209 35.6727 13.1389V12.9349V12.9749ZM40.4367 13.4229C40.2327 13.3829 40.0287 13.6269 40.1507 13.8309C40.1507 13.6269 40.3967 13.7089 40.4767 13.6269L40.4367 13.4229ZM40.6807 13.6689C40.4767 13.6289 40.3147 13.9129 40.4367 14.0749C40.4367 13.8709 40.6807 13.9129 40.7207 13.8309C40.7607 13.7909 40.7607 13.6689 40.7207 13.6689H40.6807ZM40.5187 13.0989C40.3547 13.0169 40.1107 13.2609 40.1507 13.4229C40.2327 13.2609 40.4367 13.3829 40.5187 13.3029V13.1369V13.0989ZM43.8987 13.5049C43.7347 13.4649 43.5727 13.7489 43.6527 13.9129C43.6527 13.7489 43.8987 13.7909 43.9787 13.7089C43.9787 13.6289 43.9787 13.5049 43.8987 13.5049ZM43.8987 13.2209C43.7347 13.0989 43.4907 13.3409 43.5727 13.5049C43.6527 13.3849 43.8567 13.4649 43.9387 13.3849V13.1769L43.8987 13.2209ZM44.0607 13.7489C43.8567 13.7489 43.6947 14.0349 43.8167 14.1569C43.8167 13.9929 44.0607 14.0349 44.1007 13.9529C44.1407 13.8729 44.1007 13.7909 44.0607 13.7489ZM37.7087 11.6349C37.8287 11.6349 37.8707 11.6749 37.8707 11.9189C37.8707 12.3269 37.8707 12.5709 37.7087 12.5709C37.5867 12.5709 37.5867 12.3669 37.5867 12.0409C37.5867 11.8789 37.5867 11.7569 37.5467 11.7969C37.5467 11.6749 37.5887 11.6349 37.7087 11.6349Z" fill="#0051BA"/>
<path d="M44.0987 17.9028C43.9787 17.9028 43.9787 18.0668 43.9367 18.0668C44.2207 18.0668 44.3447 17.9848 44.4247 17.8208V18.0248C44.6687 17.9848 44.7507 17.7808 44.6687 17.6588L44.9147 17.7388C44.7927 17.6588 44.9147 17.3728 44.6287 17.2508C44.7087 17.2508 44.8327 17.2908 44.9147 17.4148C44.9147 17.1708 44.8327 17.0068 44.6287 16.8848H44.7927C44.7433 16.8478 44.7054 16.7975 44.6835 16.7398C44.6615 16.6821 44.6564 16.6193 44.6687 16.5588C44.6687 16.4388 44.5887 16.4388 44.4247 16.4788H43.7747C43.4067 16.4788 43.0407 16.4788 42.7547 16.2748C43.2447 16.5188 43.8547 16.0708 43.8547 15.7448C43.8547 15.3368 43.3267 15.0128 42.3887 15.2148C41.4527 15.4588 40.2707 15.3788 40.2707 15.0528C40.2707 14.7268 41.0867 14.6448 41.5347 14.7268C41.9827 14.8068 42.2667 14.8488 43.0807 14.5648C42.9187 14.6448 42.2667 14.6848 41.7367 14.5248C41.2067 14.3648 39.9867 14.3608 39.9867 15.0528C39.9867 15.7448 41.2907 15.6628 42.4307 15.4588C43.1227 15.4188 43.4887 15.4588 43.4887 15.6628C43.4887 15.8668 42.8787 15.9488 42.3887 15.9068C41.8836 15.843 41.3707 15.8853 40.8827 16.0308C40.3947 16.1928 40.0687 16.0308 39.5787 16.1508C39.2947 16.1508 38.6827 16.1508 38.3587 15.6228C38.1947 15.7848 37.6647 16.0308 37.5427 16.3148C37.4627 16.5588 37.5427 16.8028 37.7067 17.0488C37.9107 17.3328 37.5847 17.2928 37.2987 17.2928C37.0547 17.2928 36.6067 17.2928 36.3627 17.0068C36.1587 16.8028 35.9147 16.6008 35.6707 16.7628C35.5887 16.8848 35.6707 16.9668 35.7507 16.9248L36.0367 17.0068C35.9776 16.9805 35.9126 16.9704 35.8483 16.9774C35.784 16.9845 35.7228 17.0084 35.6707 17.0468C35.5887 17.1288 35.6707 17.2928 35.7907 17.2508C35.8727 17.2108 36.0367 17.1708 36.1587 17.2508L35.8727 17.2908C35.8327 17.3328 35.8727 17.4548 35.9967 17.4548C36.1987 17.4548 36.2407 17.6188 36.4447 17.5768C36.3973 17.578 36.3507 17.5896 36.3083 17.6106C36.2658 17.6317 36.2284 17.6618 36.1987 17.6988C36.4027 17.6188 36.6067 17.8628 36.8507 17.7808C36.7707 17.8208 36.6067 17.9448 36.6067 18.0248C36.7287 17.8208 37.7867 18.1468 37.7867 17.7408L37.7467 18.0248C37.8267 17.9848 38.2347 17.9448 38.3987 17.6588C38.3987 17.7388 38.3987 17.8628 38.3187 17.9028C38.4387 17.9028 38.6027 17.8228 38.8047 17.5768C38.8867 17.4568 38.8867 17.3748 38.8867 17.2948C39.0507 17.2948 39.1727 17.2948 39.2947 17.1728C39.4567 17.0508 39.6207 17.2928 39.8647 17.0908C40.0687 16.9268 40.2707 17.0908 40.4347 17.0108C40.5567 16.9268 40.7607 17.0108 40.8827 16.9268C41.0047 16.8428 41.2907 16.9668 41.4927 16.8068C41.8607 16.9268 42.3087 17.1728 43.3667 16.9668C43.9767 16.8868 44.1807 17.0908 44.1807 17.3748C44.1807 17.5788 44.0607 17.5788 43.9767 17.5788C43.5707 17.5788 43.4887 17.4588 43.3267 17.4988C43.2867 17.4988 43.2027 17.6608 43.3267 17.7428C43.2447 17.7828 43.2447 17.9048 43.3267 17.9468C43.4087 17.9888 43.4887 17.9468 43.6107 17.9068C43.4487 17.9068 43.3267 18.0268 43.4067 18.1488C43.4467 18.2308 43.5707 18.2708 43.6927 18.1488C43.7727 18.0288 43.9767 17.9028 44.0987 17.9028ZM37.2987 14.9708C37.0147 14.8508 36.8927 14.8508 36.9727 15.0928C36.9727 15.2148 37.0947 15.3788 37.1367 15.4588C37.1367 15.3388 37.1767 15.0528 37.2987 15.0128V14.9708Z" fill="#F9DD16" stroke="black" stroke-width="0.040722"/>
<path d="M38.3173 15.0129C38.5613 14.8489 38.7253 14.8489 38.6033 15.0929C38.6033 15.2149 38.5213 15.3789 38.4393 15.4589C38.4393 15.3389 38.4393 15.0529 38.2773 15.0129H38.3173Z" fill="#F9DD16" stroke="black" stroke-width="0.040722"/>
<path d="M37.8267 14.8088C38.3987 14.8088 38.4807 15.0928 38.4387 15.4588C38.4387 15.8268 38.2347 15.6628 38.1547 16.1928C38.1147 16.3148 37.9507 16.3548 37.7467 16.3548C37.6667 16.3548 37.5027 16.3548 37.4627 16.1528C37.3387 15.6628 37.1367 15.7448 37.1367 15.4188C37.1367 15.0928 37.2147 14.8088 37.8267 14.8088Z" fill="#F9DD16" stroke="black" stroke-width="0.040722"/>
<path d="M36.2812 16.1927C36.1592 16.1127 36.0372 16.1927 35.9972 16.1927C36.1992 16.1927 36.1992 16.4787 36.6472 16.5587H36.3632C36.5672 16.6807 36.7692 16.8847 37.1772 16.8847C37.4632 16.8847 37.2572 16.9647 37.0972 16.8847C37.2572 17.0887 37.5852 16.9247 37.8292 17.2927C37.8292 17.0067 37.4212 16.6407 37.6252 16.3967C37.0152 16.3567 36.9732 15.9887 36.6472 15.7847C36.3632 15.5407 36.3212 15.3367 36.1992 14.9307C36.1592 14.7267 35.9552 14.6447 35.7932 14.6867C35.7112 14.6867 35.6292 14.7667 35.7932 14.8487C35.7932 14.9287 35.9972 14.9287 35.9972 15.0927C35.8732 14.9727 35.6712 14.9307 35.5892 15.0127C35.5892 15.0927 35.5892 15.1747 35.6692 15.1747C35.8732 15.1747 35.7512 15.4187 35.9552 15.5827C35.7512 15.3787 35.6292 15.3367 35.5072 15.4587C35.4672 15.4987 35.5072 15.6227 35.6292 15.6227C35.8332 15.6227 36.0372 16.0307 36.3212 16.1927H36.2812ZM41.0872 17.8207C41.0052 17.8207 41.0472 18.0247 40.8832 18.0247C41.1672 18.0247 41.3712 17.9847 41.4932 17.8627L41.4132 18.0247C41.5332 17.9447 41.9412 17.9047 42.1452 17.9447C42.3492 17.9847 42.3492 17.9047 42.4312 17.7807C42.5112 17.6587 42.4312 17.5767 42.3092 17.4967C42.2272 17.3727 42.1852 17.2507 42.2272 17.0067C41.6972 16.2747 40.7612 16.6407 40.7612 16.9267C41.0872 17.3327 41.1272 17.3327 41.4132 17.3327C41.6572 17.4127 41.8192 17.4127 41.6572 17.5767C41.5752 17.6587 41.2912 17.5767 41.1272 17.5767C40.6392 17.5767 40.3952 17.2927 40.2712 17.4567C40.1512 17.6167 40.2712 17.6587 40.4752 17.6587C40.3552 17.6587 40.1092 17.6587 40.1492 17.8207C40.2312 18.0667 40.4352 17.8207 40.5572 17.8207C40.4772 17.8207 40.3532 17.9027 40.3532 17.9847C40.3532 18.0247 40.5172 18.1467 40.7192 17.9847C40.8238 17.9023 40.954 17.8591 41.0872 17.8627V17.8207Z" fill="#F9DD16" stroke="black" stroke-width="0.040722"/>
<path d="M41.4939 16.8029C41.3319 16.7176 41.1459 16.6894 40.9659 16.7229M38.9299 16.7229C38.7659 17.0069 38.8479 17.1289 38.8899 17.2929M37.4219 15.2569C37.4619 15.3369 37.5439 15.1749 37.7079 15.3369M37.7079 15.3369C37.6679 15.2969 37.5859 15.4589 37.4639 15.3369M37.7079 15.3369V15.4189C37.6659 15.7049 37.5879 15.8269 37.7899 15.8269C37.9919 15.8269 37.9099 15.7049 37.8699 15.4589V15.2969M38.1959 15.2969C38.1159 15.2969 38.0339 15.1749 37.8699 15.2969M37.8699 15.2969C37.9099 15.2969 37.9919 15.4589 38.1139 15.2969" stroke="black" stroke-width="0.040722"/>
<path d="M37.8271 16.2349C37.9511 16.2349 38.0331 16.2349 38.0331 16.0309C38.0331 15.9489 38.1531 15.9069 38.0331 15.7849C38.1531 15.9069 37.8291 15.9069 37.8291 15.8249C37.8291 15.9069 37.4211 15.9069 37.5031 15.7849C37.5031 15.9069 37.5831 15.9489 37.5431 16.0309C37.5431 16.2329 37.6251 16.2329 37.8291 16.2329L37.8271 16.2349Z" fill="#FF0016" stroke="black" stroke-width="0.040722"/>
<path d="M37.6277 15.8268L37.2617 15.7048L37.6277 15.8268ZM37.6277 15.8248H37.2617H37.6277ZM37.6277 15.8248L37.3017 15.9488L37.6277 15.8248ZM37.9137 15.8268L38.3197 15.7048L37.9137 15.8268ZM37.9137 15.8248H38.3617H37.9137ZM37.9537 15.8248L38.2797 15.9488L37.9537 15.8248Z" fill="black"/>
<path d="M37.6277 15.8268L37.2617 15.7048M37.2617 15.8248H37.6277L37.3017 15.9488M37.9137 15.8268L38.3197 15.7048M37.9137 15.8248H38.3617M37.9537 15.8248L38.2797 15.9488" stroke="black" stroke-width="0.040722"/>
<path d="M35.8355 14.687C35.7135 14.523 35.4295 14.687 35.4295 14.807C35.5495 14.727 35.6735 14.849 35.7955 14.807C35.7955 14.807 35.9155 14.727 35.7955 14.687H35.8355ZM35.7135 15.013C35.6335 14.849 35.3055 15.013 35.3055 15.133C35.3875 15.053 35.5515 15.175 35.6315 15.133C35.6715 15.133 35.7535 15.053 35.7135 15.013ZM35.6335 15.419C35.5095 15.297 35.2255 15.419 35.2655 15.623C35.3455 15.501 35.5095 15.623 35.5915 15.623C35.6315 15.623 35.6715 15.459 35.5915 15.459L35.6335 15.419ZM35.7535 16.803C35.6335 16.641 35.3875 16.803 35.3875 17.007C35.4675 16.887 35.6315 17.007 35.7955 16.927V16.803H35.7535ZM35.7535 17.049C35.5915 17.049 35.3875 17.293 35.5095 17.455C35.5095 17.251 35.7135 17.293 35.7955 17.251V17.049H35.7535ZM35.9995 17.293C35.7955 17.253 35.5915 17.455 35.7135 17.619C35.7135 17.497 35.9575 17.537 35.9995 17.455V17.295V17.293ZM40.2735 17.699C40.0715 17.699 39.8675 17.903 40.0295 18.107C40.0295 17.903 40.2335 17.985 40.3155 17.903L40.2735 17.699ZM40.4775 17.945C40.3155 17.905 40.1515 18.147 40.2735 18.311C40.2735 18.107 40.4775 18.147 40.5195 18.067V17.945H40.4775ZM40.3575 17.415C40.1935 17.335 39.9495 17.577 40.0295 17.699C40.0695 17.579 40.2735 17.699 40.3555 17.619V17.455L40.3575 17.415ZM43.3695 17.821C43.2475 17.741 43.0835 18.025 43.1655 18.147C43.1655 18.027 43.3695 18.027 43.4515 17.985C43.4515 17.905 43.4515 17.781 43.3695 17.781V17.821ZM43.3695 17.537C43.2475 17.415 43.0035 17.659 43.0835 17.781C43.1655 17.659 43.3295 17.781 43.4095 17.659V17.497L43.3695 17.537ZM43.5315 18.025C43.3295 18.025 43.2055 18.269 43.3295 18.391C43.3295 18.229 43.5315 18.271 43.5735 18.189L43.5335 18.025H43.5315ZM37.8315 16.111C37.9115 16.111 37.9515 16.111 37.9515 16.355C37.9515 16.723 37.9515 16.925 37.8315 16.925C37.7115 16.925 37.7095 16.763 37.7095 16.479C37.7095 16.315 37.7095 16.193 37.6695 16.233C37.6695 16.153 37.6695 16.113 37.8295 16.113L37.8315 16.111Z" fill="#0051BA"/>
<path d="M44.0458 21.3749C43.9338 21.3749 43.9338 21.5249 43.9058 21.5249C44.1298 21.5249 44.2419 21.4349 44.2979 21.3149V21.4949C44.4659 21.4349 44.5218 21.2849 44.4658 21.1949L44.6618 21.2549C44.5498 21.1649 44.6339 20.9549 44.4379 20.8349C44.4939 20.8349 44.6058 20.8949 44.6618 20.9849C44.6338 20.7749 44.6059 20.6549 44.4379 20.5349H44.5779C44.5413 20.5088 44.5117 20.4729 44.4921 20.4308C44.4724 20.3887 44.4634 20.3419 44.4658 20.2949C44.4658 20.1749 44.4099 20.1749 44.2979 20.2049L43.7939 20.2349C43.5139 20.2349 43.2339 20.2349 43.0099 20.0549C43.3738 20.2349 43.8499 19.8749 43.8499 19.6049C43.8499 19.3049 43.4578 19.0049 42.7299 19.1849C42.0019 19.3649 41.1058 19.3049 41.1058 19.0349C41.1058 18.7649 41.7498 18.7349 42.0858 18.7949C42.4218 18.8549 42.6459 18.8849 43.2619 18.6449C43.1219 18.7049 42.6178 18.7349 42.2258 18.6149C41.8338 18.4949 40.8819 18.4949 40.8819 19.0349C40.8819 19.6049 41.8898 19.5449 42.7858 19.3949C43.2898 19.3349 43.5698 19.3949 43.5698 19.5449C43.5698 19.7249 43.0939 19.7849 42.7299 19.7549C42.3455 19.6994 41.9546 19.73 41.5819 19.8449C41.2179 19.9649 40.9659 19.8449 40.5739 19.9349C40.3779 19.9349 39.9018 19.9349 39.6778 19.5149C39.5378 19.6349 39.1179 19.8449 39.0339 20.0849C38.9499 20.2649 39.0338 20.4749 39.1458 20.6849C39.3138 20.9249 39.0618 20.8949 38.8658 20.8949C38.6418 20.8949 38.3058 20.8949 38.1378 20.6549C37.9698 20.4749 37.7738 20.3249 37.6058 20.4449C37.5218 20.5349 37.6059 20.6249 37.6619 20.5949L37.8858 20.6549C37.8409 20.6329 37.7913 20.6242 37.7421 20.6294C37.6929 20.6347 37.6459 20.6538 37.6058 20.6849C37.5218 20.7449 37.6058 20.8649 37.6898 20.8349C37.7458 20.8049 37.8858 20.7749 37.9698 20.8349C37.8858 20.8349 37.7738 20.8349 37.7458 20.8949C37.7178 20.9549 37.7458 21.0149 37.8298 21.0149C37.9978 21.0149 38.0259 21.1349 38.1939 21.1049C38.1547 21.1072 38.1166 21.1192 38.0826 21.14C38.0486 21.1609 38.0196 21.1899 37.9978 21.2249C38.1658 21.1349 38.3059 21.3449 38.5019 21.2849C38.4459 21.3149 38.3058 21.4049 38.3058 21.4649C38.4178 21.3149 39.2019 21.5849 39.2019 21.2549L39.1739 21.4949C39.2579 21.4349 39.5658 21.4049 39.6778 21.1949C39.6778 21.2549 39.6779 21.3449 39.6219 21.3749C39.7059 21.3749 39.8458 21.3149 39.9858 21.1049C40.0418 21.0149 40.0419 20.9549 40.0419 20.8949C40.1819 20.8949 40.2658 20.8649 40.3778 20.7749C40.4898 20.6849 40.6018 20.8649 40.7978 20.7149C40.9658 20.5949 41.1338 20.7149 41.2458 20.6549C41.3298 20.5949 41.4699 20.6549 41.5819 20.5949C41.6939 20.5349 41.8618 20.6249 42.0299 20.4749C42.3098 20.5949 42.6738 20.7749 43.4858 20.6249C43.9338 20.5349 44.1018 20.7149 44.1018 20.9249C44.1018 21.1049 43.9899 21.1049 43.9339 21.1049C43.6539 21.1349 43.5699 21.0149 43.4579 21.0449C43.4019 21.0749 43.3459 21.1949 43.4579 21.2549C43.3739 21.2849 43.3738 21.3749 43.4299 21.4049C43.4859 21.4349 43.5699 21.4049 43.6539 21.3749C43.5419 21.4049 43.4579 21.4949 43.5139 21.5849C43.5419 21.6449 43.6259 21.6749 43.7099 21.5849C43.7938 21.4649 43.9338 21.3749 44.0458 21.3749ZM38.8378 18.9749C38.6138 18.8849 38.5578 18.8849 38.5858 19.0949C38.5858 19.1849 38.6698 19.3049 38.7258 19.3649C38.7258 19.2749 38.7538 19.0649 38.8378 19.0049V18.9749Z" fill="#F9DD16" stroke="black" stroke-width="0.0289828"/>
<path d="M39.5938 19.0049C39.8178 18.8849 39.9017 18.8849 39.8457 19.0949C39.8457 19.1849 39.7617 19.3049 39.7057 19.3649C39.7057 19.2749 39.7058 19.0649 39.5938 19.0049Z" fill="#F9DD16" stroke="black" stroke-width="0.0289828"/>
<path d="M39.2306 18.855C39.6786 18.855 39.7346 19.095 39.7066 19.365C39.7066 19.665 39.5666 19.545 39.4826 19.965C39.4546 20.085 39.3426 20.115 39.2026 20.115C39.1186 20.115 39.0066 20.115 38.9506 19.935C38.8666 19.545 38.7266 19.635 38.7266 19.335C38.7266 19.095 38.7826 18.855 39.2306 18.855Z" fill="#F9DD16" stroke="black" stroke-width="0.0289828"/>
<path d="M38.0831 19.9648C37.9711 19.9048 37.8871 19.9648 37.8311 19.9648C37.9991 19.9948 37.9991 20.2048 38.3351 20.2648C38.2511 20.2648 38.2231 20.3248 38.1391 20.2648C38.2791 20.3848 38.4191 20.5348 38.7551 20.5348C38.9511 20.5348 38.8111 20.6248 38.6991 20.5648C38.8111 20.7148 39.0631 20.5948 39.2311 20.8648C39.2311 20.6548 38.9511 20.3548 39.0911 20.1448C38.6151 20.1148 38.5871 19.8448 38.3351 19.6348C38.1111 19.4548 38.0831 19.2748 37.9991 18.9448C37.9711 18.7948 37.8031 18.7048 37.7191 18.7348C37.6351 18.7348 37.5791 18.8248 37.6631 18.8848C37.7191 18.9448 37.8311 18.9448 37.8311 19.0948C37.7471 18.9748 37.6071 18.9448 37.5511 19.0048C37.5231 19.0648 37.5511 19.1548 37.6071 19.1548C37.7471 19.1548 37.6631 19.3348 37.8031 19.4548C37.6631 19.3048 37.5511 19.2748 37.4671 19.3648C37.4391 19.4248 37.4671 19.5148 37.5791 19.5148C37.7191 19.5148 37.8591 19.8748 38.0831 19.9648ZM41.7231 21.3448C41.6671 21.3448 41.6951 21.4948 41.5831 21.4948C41.8071 21.4948 41.9471 21.4348 42.0311 21.3448L41.9751 21.4948C42.0871 21.4048 42.3951 21.3748 42.5351 21.4048C42.6751 21.4348 42.7031 21.3748 42.7591 21.2848C42.8151 21.1648 42.7591 21.1048 42.6751 21.0448C42.5911 20.9548 42.5631 20.8348 42.5911 20.6548C42.1991 20.0548 41.4711 20.3548 41.4711 20.5948C41.7231 20.9248 41.7511 20.8948 41.9751 20.9248C42.1711 20.9848 42.3111 20.9848 42.1711 21.1048C42.1151 21.1648 41.8911 21.1048 41.7511 21.1348C41.3871 21.1348 41.1911 20.8648 41.1071 21.0148C41.0231 21.1348 41.1071 21.1948 41.2751 21.1948C41.1631 21.1948 40.9951 21.1948 41.0231 21.3148C41.0791 21.5248 41.2471 21.2848 41.3311 21.3448C41.2751 21.3448 41.1631 21.3748 41.1631 21.4348C41.1631 21.4948 41.3031 21.5848 41.4431 21.4348C41.5244 21.3721 41.623 21.3404 41.7231 21.3448Z" fill="#F9DD16" stroke="black" stroke-width="0.0289828"/>
<path d="M42.0338 20.4748C41.9218 20.4148 41.7818 20.3848 41.6418 20.4148M40.0738 20.4148C39.9618 20.6548 40.0178 20.7748 40.0458 20.8948M38.9258 19.2148C38.9818 19.2748 39.0378 19.1548 39.1498 19.2748M39.1498 19.2748C39.1218 19.2448 39.0658 19.3648 38.9818 19.2748M39.1498 19.2748V19.3648C39.1218 19.5748 39.0658 19.6648 39.2058 19.6648C39.3738 19.6648 39.3178 19.5748 39.2898 19.3648V19.2748M39.5418 19.2448C39.4578 19.2448 39.4018 19.1548 39.2898 19.2748M39.2898 19.2748C39.3178 19.2448 39.3738 19.3648 39.4578 19.2748" stroke="black" stroke-width="0.0289828"/>
<path d="M39.2314 20.0248C39.3434 20.0248 39.3994 20.0248 39.3994 19.8448C39.3994 19.7848 39.4834 19.7548 39.4274 19.6348C39.4834 19.7548 39.2314 19.7548 39.2314 19.6948C39.2314 19.7548 38.9514 19.7548 39.0074 19.6348C38.9794 19.7548 39.0634 19.7848 39.0354 19.8448C39.0354 20.0248 39.0914 20.0248 39.2314 20.0248Z" fill="#FF0016" stroke="black" stroke-width="0.0289828"/>
<path d="M39.0925 19.665L38.8125 19.575L39.0925 19.665ZM39.0925 19.665H38.8125H39.0925ZM39.0925 19.695L38.8405 19.785L39.0925 19.695ZM39.3165 19.665L39.5965 19.575L39.3165 19.665ZM39.3165 19.665H39.6525H39.3165ZM39.3165 19.695L39.5965 19.785L39.3165 19.695Z" fill="black"/>
<path d="M38.8125 19.575L39.0925 19.665H38.8125M39.0925 19.695L38.8405 19.785M39.5965 19.575L39.3165 19.665H39.6525M39.3165 19.695L39.5965 19.785" stroke="black" stroke-width="0.0289828"/>
<path d="M36.9459 18.8609C36.8659 18.7389 36.6739 18.8609 36.6739 18.9809C36.7279 18.8909 36.8379 19.0129 36.9199 18.9809C36.9459 18.9809 36.9999 18.9209 36.9459 18.8609ZM36.8659 19.1349C36.7839 19.0129 36.5659 19.1349 36.5659 19.2569C36.6199 19.1649 36.7279 19.2869 36.8099 19.2569C36.8379 19.2569 36.8919 19.1649 36.8639 19.1369L36.8659 19.1349ZM36.8099 19.5009C36.7019 19.3809 36.5099 19.5009 36.5379 19.6549C36.5919 19.5629 36.7019 19.6549 36.7559 19.6549C36.8099 19.6229 36.8359 19.5329 36.7839 19.5009H36.8099ZM36.8919 20.6309C36.7839 20.5109 36.6199 20.6629 36.6199 20.8149C36.6739 20.6929 36.8099 20.8149 36.8919 20.7549C36.8919 20.7549 36.9459 20.6629 36.8919 20.6009V20.6309ZM36.8919 20.8449C36.7559 20.8149 36.6199 21.0289 36.7019 21.1509C36.7019 20.9989 36.8639 21.0589 36.9199 20.9989L36.8899 20.8449H36.8919ZM37.0559 21.0589C36.9199 20.9989 36.7839 21.1809 36.8639 21.3029C36.8639 21.2109 37.0279 21.2429 37.0559 21.1829V21.0289V21.0589ZM40.2479 21.3949C40.1119 21.3649 39.9759 21.5469 40.0579 21.7009C40.0579 21.5469 40.2199 21.6089 40.2759 21.5469L40.2479 21.3949ZM40.4119 21.5789C40.2759 21.5469 40.1659 21.7609 40.2479 21.8829C40.2479 21.7309 40.4119 21.7629 40.4399 21.7009C40.4659 21.6709 40.4659 21.5789 40.4399 21.5789H40.4119ZM40.3019 21.1509C40.1939 21.0909 40.0299 21.2729 40.0579 21.3949C40.1119 21.2729 40.2479 21.3649 40.3019 21.3029V21.1829V21.1509ZM42.5679 21.4569C42.4579 21.4249 42.3479 21.6389 42.4039 21.7609C42.4039 21.6409 42.5679 21.6709 42.6219 21.6089C42.6219 21.5489 42.6219 21.4569 42.5679 21.4569ZM42.5679 21.2429C42.4579 21.1509 42.2939 21.3349 42.3479 21.4569C42.4039 21.3649 42.5399 21.4249 42.5939 21.3649V21.2109L42.5679 21.2429ZM42.6759 21.6389C42.5399 21.6389 42.4299 21.8529 42.5119 21.9449C42.5119 21.8229 42.6759 21.8529 42.7039 21.7929C42.7299 21.7329 42.7039 21.6709 42.6759 21.6389ZM38.4199 20.0509C38.5019 20.0509 38.5299 20.0809 38.5299 20.2649C38.5299 20.5709 38.5299 20.7529 38.4199 20.7529C38.3399 20.7529 38.3399 20.6009 38.3399 20.3569C38.3399 20.2349 38.3399 20.1429 38.3099 20.1729C38.3099 20.0809 38.3379 20.0529 38.4199 20.0529V20.0509Z" fill="#0051BA"/>
</g>
</g>
<defs>
<clipPath id="clip0_4447_30677">
<rect width="80" height="60" fill="white" transform="translate(0.289062 0.514893)"/>
</clipPath>
</defs>
</svg>
