<svg width="81" height="61" viewBox="0 0 81 61" fill="none" xmlns="http://www.w3.org/2000/svg">
<g clip-path="url(#clip0_4447_29396)">
<path d="M0.289062 0.514893H80.2891V60.5149H0.289062V0.514893Z" fill="white"/>
<path d="M32.2891 0.514893H48.2891V60.5149H32.2891V0.514893Z" fill="#E8112D"/>
<path d="M0.289062 22.5149H80.2891V38.5149H0.289062V22.5149Z" fill="#E8112D"/>
<path d="M14.0391 36.3525L16.9516 33.4275H43.2016V27.6025H16.9516L14.0391 24.6775V36.3525Z" fill="#F9DD16"/>
<path d="M34.45 4.26489L37.375 7.17739V33.4274H43.2V7.17739L46.125 4.26489L34.45 4.26489Z" fill="#F9DD16"/>
<path d="M46.1281 56.7649L43.2031 53.8524V27.6024H37.3781V53.8524L34.4531 56.7649H46.1281Z" fill="#F9DD16"/>
<path d="M66.5391 24.6773L63.6266 27.6023L37.3766 27.6023V33.4273H63.6266L66.5391 36.3523V24.6773Z" fill="#F9DD16"/>
</g>
<defs>
<clipPath id="clip0_4447_29396">
<rect width="80" height="60" fill="white" transform="translate(0.289062 0.514893)"/>
</clipPath>
</defs>
</svg>
