<svg width="81" height="61" viewBox="0 0 81 61" fill="none" xmlns="http://www.w3.org/2000/svg">
<g clip-path="url(#clip0_4447_34059)">
<mask id="mask0_4447_34059" style="mask-type:luminance" maskUnits="userSpaceOnUse" x="0" y="0" width="81" height="61">
<path d="M0.292969 0.514893H80.2851V60.5149H0.28125L0.292969 0.514893Z" fill="white"/>
</mask>
<g mask="url(#mask0_4447_34059)">
<path fill-rule="evenodd" clip-rule="evenodd" d="M-5.21484 0.514893H114.785V60.5149H-5.21484V0.514893Z" fill="white"/>
<path fill-rule="evenodd" clip-rule="evenodd" d="M-5.21484 40.511H114.785V60.5149H-5.21484V40.511Z" fill="#D50000"/>
<path fill-rule="evenodd" clip-rule="evenodd" d="M-5.21484 20.5188H114.785V40.511H-5.21484V20.5188Z" fill="#0000BF"/>
<path fill-rule="evenodd" clip-rule="evenodd" d="M28.8164 11.4133C28.3477 18.6321 28.0664 22.593 26.9766 24.4211C25.7812 26.3899 24.6328 27.8313 19.9805 29.5774C15.3398 27.8313 14.1914 26.3899 12.9961 24.4211C11.8945 22.593 11.625 18.6321 11.1562 11.4133L11.8359 11.179C13.2188 10.7571 14.25 10.4172 15.0117 10.2649C16.1016 10.0305 17.0391 9.77271 19.9688 9.71411C22.8984 9.76099 23.8359 10.0422 24.9258 10.2766C25.6758 10.4407 26.7539 10.7454 28.125 11.179L28.8164 11.4133Z" fill="#D50000"/>
<path fill-rule="evenodd" clip-rule="evenodd" d="M28.1367 11.179C27.6914 18.386 27.3164 21.6907 26.7305 23.2727C25.6055 25.9915 23.8242 27.4797 19.9805 28.8977C16.1367 27.4797 14.3555 25.9915 13.2188 23.2727C12.6328 21.679 12.2812 18.386 11.8359 11.1672C13.1953 10.7454 14.25 10.4172 15.0117 10.2649C16.1016 10.0305 17.0391 9.76099 19.9687 9.71411C22.8984 9.76099 23.8359 10.0305 24.9258 10.2649C26.0105 10.5118 27.0822 10.813 28.1367 11.1672V11.179Z" fill="#0000BF"/>
<path fill-rule="evenodd" clip-rule="evenodd" d="M19.9805 13.3821L20.1562 13.8157L20.9766 13.9329L20.4492 14.2493L20.9531 14.5891L20.2148 14.7063L19.9805 15.1047L19.7461 14.6946L19.043 14.6008L19.5117 14.2493L19.0195 13.9329L19.8047 13.8157L19.9805 13.3821Z" fill="#FFDF00"/>
<path fill-rule="evenodd" clip-rule="evenodd" d="M26.4609 21.5618L26.0039 21.2102L25.6875 20.6711L25.0547 20.1204L24.7148 19.5696L24.082 18.9954L23.7773 18.4446L23.4258 18.175L23.2148 17.9524L22.6289 18.4563L22.3242 19.0071L21.9375 19.3586L21.5039 19.0188L21.1875 18.4563L19.9805 16.3118L18.7734 18.4563L18.457 19.0188L18.0234 19.3586L17.6367 19.0071L17.3203 18.4563L16.7461 17.9524L16.5234 18.1633L16.1836 18.4446L15.8789 18.9954L15.2461 19.5696L14.9062 20.1204L14.2734 20.6711L13.957 21.2102L13.5 21.5618C13.7576 23.1748 14.5209 24.6644 15.6797 25.8157C16.9369 26.8916 18.3946 27.7081 19.9687 28.218C21.5549 27.7195 23.0225 26.902 24.2812 25.8157C24.9609 25.1125 26.2266 23.554 26.4609 21.5618Z" fill="white"/>
<path fill-rule="evenodd" clip-rule="evenodd" d="M21.9023 10.3469L22.0898 10.7805L22.9102 10.8977L22.3711 11.2141L22.8867 11.554L22.1484 11.6711L21.9141 12.0696L21.6797 11.6594L20.9766 11.5657L21.4453 11.2141L20.9531 10.8977L21.7266 10.7805L21.9141 10.3469H21.9023ZM18.0352 10.3469L18.2227 10.7805L19.043 10.886L18.5156 11.2024L19.0195 11.5422L18.2812 11.6594L18.0469 12.0579L17.8125 11.6594L17.1094 11.554L17.5781 11.2024L17.0859 10.886L17.8711 10.7688L18.0469 10.3352L18.0352 10.3469Z" fill="#FFDF00"/>
<path fill-rule="evenodd" clip-rule="evenodd" d="M25.4531 24.304H24.5859L23.7656 24.2454L22.793 23.7766H21.6914L20.7422 24.2454L19.9805 24.3157L19.2305 24.2454L18.2812 23.7766H17.168L16.1836 24.2454L15.375 24.3157L14.4844 24.304L14.0625 23.5774L14.0742 23.554L15.3867 23.7766L16.1953 23.718L17.168 23.2375H18.2695L19.2305 23.7063L19.9805 23.7766L20.7422 23.7063L21.6914 23.2375H22.793L23.7773 23.7063L24.5859 23.7766L25.8516 23.5422L25.875 23.5891L25.4414 24.304H25.4531ZM15.3281 25.4172L16.1953 25.3586L17.168 24.8899H18.2695L19.2305 25.3586L19.9805 25.4172L20.7305 25.3586L21.6914 24.8899H22.793L23.7656 25.3586L24.6445 25.4172L25.207 24.7141H25.1953L24.5859 24.8782L23.7773 24.8196L22.8047 24.3508H21.7031L20.7422 24.8196L19.9922 24.8899L19.2305 24.8196L18.2812 24.3508H17.168L16.1836 24.8196L15.375 24.8899L14.7891 24.7375V24.761L15.3164 25.4172H15.3281Z" fill="#0000BF"/>
</g>
</g>
<defs>
<clipPath id="clip0_4447_34059">
<rect width="80" height="60" fill="white" transform="translate(0.289062 0.514893)"/>
</clipPath>
</defs>
</svg>
