<svg width="81" height="61" viewBox="0 0 81 61" fill="none" xmlns="http://www.w3.org/2000/svg">
<g clip-path="url(#clip0_4447_29483)">
<path fill-rule="evenodd" clip-rule="evenodd" d="M0.289062 0.514893H80.2891V7.17739H0.289062V0.514893Z" fill="#005BAE"/>
<path fill-rule="evenodd" clip-rule="evenodd" d="M0.289062 7.17749H80.2891V13.8525H0.289062V7.17749Z" fill="white"/>
<path fill-rule="evenodd" clip-rule="evenodd" d="M0.289062 13.8523H80.2891V20.5148H0.289062V13.8523Z" fill="#005BAE"/>
<path fill-rule="evenodd" clip-rule="evenodd" d="M0.289062 20.5149H80.2891V27.1774H0.289062V20.5149Z" fill="white"/>
<path d="M0.289062 0.514893H33.6266V33.8524H0.289062V0.514893Z" fill="#005BAE"/>
<path fill-rule="evenodd" clip-rule="evenodd" d="M0.289062 27.1775H80.2891V33.8525H0.289062V27.1775Z" fill="#005BAE"/>
<path fill-rule="evenodd" clip-rule="evenodd" d="M0.289062 33.8523H80.2891V40.5148H0.289062V33.8523Z" fill="white"/>
<path fill-rule="evenodd" clip-rule="evenodd" d="M0.289062 40.5149H80.2891V47.1774H0.289062V40.5149Z" fill="#005BAE"/>
<path fill-rule="evenodd" clip-rule="evenodd" d="M0.289062 47.1775H80.2891V53.8525H0.289062V47.1775Z" fill="white"/>
<path fill-rule="evenodd" clip-rule="evenodd" d="M13.6211 0.514893H20.2877V33.8481H13.6211V0.514893Z" fill="white"/>
<path fill-rule="evenodd" clip-rule="evenodd" d="M0.289062 13.8484H33.6223V20.515H0.289062V13.8484Z" fill="white"/>
<path d="M0.289062 53.8523H80.2891V60.5148H0.289062V53.8523Z" fill="#005BAE"/>
</g>
<defs>
<clipPath id="clip0_4447_29483">
<rect width="80" height="60" fill="white" transform="translate(0.289062 0.514893)"/>
</clipPath>
</defs>
</svg>
