<svg width="81" height="61" viewBox="0 0 81 61" fill="none" xmlns="http://www.w3.org/2000/svg">
<g clip-path="url(#clip0_4447_31423)">
<path d="M0.289062 0.514893H80.2891V60.5149H0.289062V0.514893Z" fill="#D20000"/>
<path d="M0.289062 0.514893H12.2891L40.2891 29.4399L68.2891 0.514893H80.2891L0.289062 60.5149H12.2891L40.2891 31.5899L68.2891 60.5149H80.2891L0.289062 0.514893ZM80.2891 24.5149V36.5149L0.289062 24.5149V36.5149L80.2891 24.5149ZM35.2891 0.514893L40.2891 26.2274L45.2891 0.514893H35.2891ZM35.2891 60.5149L40.2891 34.8024L45.2891 60.5149H35.2891Z" fill="#FFE600"/>
<path d="M40.2898 40.1524C45.6125 40.1524 49.9273 35.8376 49.9273 30.5149C49.9273 25.1923 45.6125 20.8774 40.2898 20.8774C34.9672 20.8774 30.6523 25.1923 30.6523 30.5149C30.6523 35.8376 34.9672 40.1524 40.2898 40.1524Z" fill="#FFE600" stroke="#D20000" stroke-width="2.1375"/>
</g>
<defs>
<clipPath id="clip0_4447_31423">
<rect width="80" height="60" fill="white" transform="translate(0.289062 0.514893)"/>
</clipPath>
</defs>
</svg>
