<svg width="81" height="61" viewBox="0 0 81 61" fill="none" xmlns="http://www.w3.org/2000/svg">
<g clip-path="url(#clip0_4447_18737)">
<path d="M0.289062 0.514893H80.2891V60.5149H0.289062V0.514893Z" fill="#000066"/>
<path fill-rule="evenodd" clip-rule="evenodd" d="M37.7625 49.5773L32.3 50.0523L33.05 55.4773L29.2875 51.5148L25.525 55.4773L26.275 50.0523L20.8125 49.5773L25.525 46.7898L22.4875 42.2273L27.6125 44.1648L29.2875 38.9523L30.975 44.1648L36.1 42.2273L33.0625 46.7898M61.1125 54.5773L59.7875 52.6023L62.0125 53.4398L62.7375 51.1773L63.4625 53.4398L65.6875 52.6023L64.375 54.5773L66.425 55.7898L64.05 56.0023L64.375 58.3648L62.75 56.6273L61.1 58.3648L61.425 56.0023L59.05 55.8023M61.1 19.3148L59.7875 17.3398L62.0125 18.1773L62.7375 15.9148L63.4625 18.1773L65.6875 17.3398L64.375 19.3148L66.425 20.5398L64.05 20.7398L64.375 23.1023L62.75 21.3773L61.1 23.0898L61.425 20.7398L59.05 20.5398M47.8875 33.6398L46.575 31.6648L48.8 32.5023L49.525 30.2398L50.2625 32.5023L52.4875 31.6648L51.1625 33.6398L53.2125 34.8523L50.8375 35.0648L51.175 37.4273L49.525 35.6898L47.9 37.4273L48.2125 35.0648L45.8375 34.8648M72.875 30.1148L71.5375 28.1398L73.7625 28.9773L74.4875 26.7148L75.225 28.9773L77.45 28.1398L76.1375 30.1148L78.175 31.3273L75.8 31.5398L76.125 33.8898L74.5 32.1648L72.85 33.8898L73.175 31.5398L70.8 31.3273M68.0375 40.5148L66.75 41.3273L67.1125 39.8398L65.95 38.8648L67.4625 38.7398L68.0375 37.3398L68.625 38.7523L70.1375 38.8648L68.975 39.8398L69.3375 41.3273" fill="white"/>
<path d="M0.289062 0.514893H40.2891V30.5149H0.289062V0.514893Z" fill="#000066"/>
<path d="M4.97656 0.514893L20.2266 11.8274L35.4141 0.514893H40.2891V4.38989L25.2891 15.5774L40.2891 26.7024V30.5149H35.2891L20.2891 19.3274L5.35156 30.5149H0.289062V26.7649L15.2266 15.6399L0.289062 4.51489V0.514893H4.97656Z" fill="white"/>
<path d="M26.7891 18.0774L40.2891 28.0149V30.5149L23.3516 18.0774H26.7891ZM15.2891 19.3274L15.6641 21.5149L3.66406 30.5149H0.289062L15.2891 19.3274ZM40.2891 0.514893V0.702393L24.7266 12.4524L24.8516 9.70239L37.1641 0.514893H40.2891ZM0.289062 0.514893L15.2266 11.5149H11.4766L0.289062 3.13989V0.514893Z" fill="#C8102E"/>
<path d="M15.3516 0.514893V30.5149H25.3516V0.514893H15.3516ZM0.289062 10.5149V20.5149H40.2891V10.5149H0.289062Z" fill="white"/>
<path d="M0.289062 12.5774V18.5774H40.2891V12.5774H0.289062ZM17.3516 0.514893V30.5149H23.3516V0.514893H17.3516Z" fill="#C8102E"/>
</g>
<defs>
<clipPath id="clip0_4447_18737">
<rect width="80" height="60" fill="white" transform="translate(0.289062 0.514893)"/>
</clipPath>
</defs>
</svg>
