<svg width="81" height="61" viewBox="0 0 81 61" fill="none" xmlns="http://www.w3.org/2000/svg">
<g clip-path="url(#clip0_4447_29860)">
<path d="M0.289062 0.514893H80.2891V60.5149H0.289062V0.514893Z" fill="#18C3DF"/>
<path d="M0.289062 20.5149H80.2891V40.5149H0.289062V20.5149Z" fill="white"/>
<path d="M39.2891 30.515L40.9557 30.8483L40.2891 27.1816L39.2891 30.515Z" fill="#18C3DF"/>
<path d="M41.2891 30.515L39.6224 30.8483L40.2891 27.1816L41.2891 30.515Z" fill="#18C3DF"/>
<path d="M39.9783 29.564L40.1763 31.2521L43.4575 29.485L39.9783 29.564Z" fill="#18C3DF"/>
<path d="M40.5954 31.4661L39.7634 29.984L43.4566 29.485L40.5954 31.4661Z" fill="#18C3DF"/>
<path d="M39.9788 31.4661L40.8108 29.984L37.1176 29.485L39.9788 31.4661Z" fill="#18C3DF"/>
<path d="M40.596 29.564L40.398 31.2521L37.1168 29.485L40.596 29.564Z" fill="#18C3DF"/>
<path d="M41.0954 29.9273L39.5511 30.6373L42.2457 33.2118L41.0954 29.9273Z" fill="#18C3DF"/>
<path d="M39.4782 31.1028L40.6306 29.8535L42.2465 33.2118L39.4782 31.1028Z" fill="#18C3DF"/>
<path d="M41.096 31.1028L39.9436 29.8535L38.3277 33.2118L41.096 31.1028Z" fill="#18C3DF"/>
<path d="M39.4788 29.9273L41.0231 30.6373L38.3285 33.2118L39.4788 29.9273Z" fill="#18C3DF"/>
<path d="M55.9531 25.1773L57.6198 25.5107L56.9531 21.844L55.9531 25.1773Z" fill="#18C3DF"/>
<path d="M57.9531 25.1773L56.2865 25.5107L56.9531 21.844L57.9531 25.1773Z" fill="#18C3DF"/>
<path d="M56.6423 24.2263L56.8403 25.9144L60.1215 24.1473L56.6423 24.2263Z" fill="#18C3DF"/>
<path d="M57.2595 26.1284L56.4275 24.6464L60.1207 24.1473L57.2595 26.1284Z" fill="#18C3DF"/>
<path d="M56.6428 26.1284L57.4749 24.6464L53.7817 24.1473L56.6428 26.1284Z" fill="#18C3DF"/>
<path d="M57.26 24.2263L57.062 25.9144L53.7808 24.1473L57.26 24.2263Z" fill="#18C3DF"/>
<path d="M57.7595 24.5897L56.2152 25.2996L58.9097 27.8742L57.7595 24.5897Z" fill="#18C3DF"/>
<path d="M56.1423 25.7652L57.2947 24.5159L58.9106 27.8741L56.1423 25.7652Z" fill="#18C3DF"/>
<path d="M57.7601 25.7652L56.6076 24.5159L54.9918 27.8741L57.7601 25.7652Z" fill="#18C3DF"/>
<path d="M56.1429 24.5897L57.6872 25.2996L54.9926 27.8742L56.1429 24.5897Z" fill="#18C3DF"/>
<path d="M55.9531 35.1773L57.6198 35.5107L56.9531 31.844L55.9531 35.1773Z" fill="#18C3DF"/>
<path d="M57.9531 35.1773L56.2865 35.5107L56.9531 31.844L57.9531 35.1773Z" fill="#18C3DF"/>
<path d="M56.6423 34.2263L56.8403 35.9144L60.1215 34.1473L56.6423 34.2263Z" fill="#18C3DF"/>
<path d="M57.2595 36.1284L56.4275 34.6464L60.1207 34.1473L57.2595 36.1284Z" fill="#18C3DF"/>
<path d="M56.6428 36.1284L57.4749 34.6464L53.7817 34.1473L56.6428 36.1284Z" fill="#18C3DF"/>
<path d="M57.26 34.2263L57.062 35.9144L53.7808 34.1473L57.26 34.2263Z" fill="#18C3DF"/>
<path d="M57.7595 34.5897L56.2152 35.2996L58.9097 37.8742L57.7595 34.5897Z" fill="#18C3DF"/>
<path d="M56.1423 35.7652L57.2947 34.5159L58.9106 37.8741L56.1423 35.7652Z" fill="#18C3DF"/>
<path d="M57.7601 35.7652L56.6076 34.5159L54.9918 37.8741L57.7601 35.7652Z" fill="#18C3DF"/>
<path d="M56.1429 34.5897L57.6872 35.2996L54.9926 37.8742L56.1429 34.5897Z" fill="#18C3DF"/>
<path d="M22.6289 25.1773L24.2956 25.5107L23.6289 21.844L22.6289 25.1773Z" fill="#18C3DF"/>
<path d="M24.6289 25.1773L22.9622 25.5107L23.6289 21.844L24.6289 25.1773Z" fill="#18C3DF"/>
<path d="M23.3181 24.2263L23.5161 25.9144L26.7973 24.1473L23.3181 24.2263Z" fill="#18C3DF"/>
<path d="M23.9353 26.1284L23.1032 24.6464L26.7965 24.1473L23.9353 26.1284Z" fill="#18C3DF"/>
<path d="M23.3186 26.1284L24.1507 24.6464L20.4575 24.1473L23.3186 26.1284Z" fill="#18C3DF"/>
<path d="M23.9358 24.2263L23.7378 25.9144L20.4566 24.1473L23.9358 24.2263Z" fill="#18C3DF"/>
<path d="M24.4352 24.5897L22.891 25.2996L25.5855 27.8742L24.4352 24.5897Z" fill="#18C3DF"/>
<path d="M22.8181 25.7652L23.9705 24.5159L25.5864 27.8741L22.8181 25.7652Z" fill="#18C3DF"/>
<path d="M24.4358 25.7652L23.2834 24.5159L21.6675 27.8741L24.4358 25.7652Z" fill="#18C3DF"/>
<path d="M22.8187 24.5897L24.3629 25.2996L21.6684 27.8742L22.8187 24.5897Z" fill="#18C3DF"/>
<path d="M22.6289 35.1773L24.2956 35.5107L23.6289 31.844L22.6289 35.1773Z" fill="#18C3DF"/>
<path d="M24.6289 35.1773L22.9622 35.5107L23.6289 31.844L24.6289 35.1773Z" fill="#18C3DF"/>
<path d="M23.3181 34.2263L23.5161 35.9144L26.7973 34.1473L23.3181 34.2263Z" fill="#18C3DF"/>
<path d="M23.9353 36.1284L23.1032 34.6464L26.7965 34.1473L23.9353 36.1284Z" fill="#18C3DF"/>
<path d="M23.3186 36.1284L24.1507 34.6464L20.4575 34.1473L23.3186 36.1284Z" fill="#18C3DF"/>
<path d="M23.9358 34.2263L23.7378 35.9144L20.4566 34.1473L23.9358 34.2263Z" fill="#18C3DF"/>
<path d="M24.4352 34.5897L22.891 35.2996L25.5855 37.8742L24.4352 34.5897Z" fill="#18C3DF"/>
<path d="M22.8181 35.7652L23.9705 34.5159L25.5864 37.8741L22.8181 35.7652Z" fill="#18C3DF"/>
<path d="M24.4358 35.7652L23.2834 34.5159L21.6675 37.8741L24.4358 35.7652Z" fill="#18C3DF"/>
<path d="M22.8187 34.5897L24.3629 35.2996L21.6684 37.8742L22.8187 34.5897Z" fill="#18C3DF"/>
</g>
<defs>
<clipPath id="clip0_4447_29860">
<rect width="80" height="60" fill="white" transform="translate(0.289062 0.514893)"/>
</clipPath>
</defs>
</svg>
