<svg width="81" height="61" viewBox="0 0 81 61" fill="none" xmlns="http://www.w3.org/2000/svg">
<g clip-path="url(#clip0_4447_29611)">
<path d="M0.289062 0.514893H80.2891V60.5149H0.289062V0.514893Z" fill="#4997D0"/>
<path d="M26.9531 0.514893H53.6281V60.5149H26.9531V0.514893Z" fill="white"/>
<path d="M37.9636 36.9733C38.1886 36.94 38.3136 36.8733 38.4636 36.8233M38.6552 36.49C38.7649 36.5985 38.8502 36.7292 38.9052 36.8733M38.2302 36.4483C38.3327 36.5501 38.4172 36.6684 38.4802 36.7983M34.3552 25.4149C34.2719 25.5483 34.0969 25.6399 33.9552 25.6983M33.9302 25.6816C33.9302 25.5649 33.9052 25.4316 33.9302 25.3149M33.7635 25.7316L33.8219 25.8983M33.9885 25.9816L33.8219 26.0066M33.4885 25.9316C33.4885 26.1483 33.5219 26.3983 33.5385 26.5899M33.3885 26.5066C33.4215 26.5681 33.4669 26.622 33.5219 26.6649M33.1385 27.1983C33.1802 27.2816 33.2219 27.3816 33.2469 27.5316M33.5552 27.1483L33.3885 27.2733M33.5302 27.64C33.4469 27.715 33.3469 27.765 33.2385 27.815M32.9219 31.1816C33.0065 31.3326 33.1197 31.4656 33.2552 31.5733M33.3052 31.715C33.2172 31.7041 33.1322 31.6758 33.0552 31.6316M33.4219 32.34L33.5635 32.4233M33.5302 32.7066C33.6302 32.7733 33.7385 32.8983 33.8385 33.0316M33.7219 33.265C33.8385 33.29 33.9302 33.3233 33.9885 33.3483M33.9052 33.5566H34.0719M34.1802 33.115L34.1385 33.465M34.2219 33.5983L34.2552 33.465M34.6469 33.965L34.6386 34.2317M37.9052 36.565L37.8052 36.69M37.6052 36.3567L37.5469 36.215" stroke="#24420E" stroke-width="0.0333335"/>
<path d="M40.7976 37.5985C40.731 37.4901 40.631 37.4235 40.5226 37.3735C39.881 37.0401 39.2393 36.8818 38.5226 36.7651C38.3476 36.7401 38.181 36.5818 38.006 36.4984C37.5893 36.3068 37.131 36.2318 36.731 36.0234C36.669 35.991 36.6128 35.9488 36.5643 35.8984C36.3976 35.7151 36.106 35.6568 35.9309 35.4818C35.2309 34.8318 34.4976 34.2318 34.1143 33.3568C33.6476 32.2984 33.0726 31.2068 33.1476 29.9984C33.1976 29.2484 33.0893 28.4734 33.2726 27.7484C33.5559 26.6734 33.9059 25.6151 34.5559 24.7234L34.4476 24.7901C33.8301 25.7069 33.3944 26.7339 33.1643 27.8151C32.9726 28.5401 33.0809 29.3151 33.0393 30.0651C32.9559 31.2734 33.5393 32.3651 33.9976 33.4234C34.3809 34.2901 35.1226 34.8984 35.8143 35.5568C35.9976 35.7234 36.281 35.7818 36.4476 35.9734C36.4977 36.0219 36.5537 36.0639 36.6143 36.0984C37.0226 36.2984 37.481 36.3734 37.8976 36.5734C38.0643 36.6568 38.231 36.8068 38.3976 36.8318C39.099 36.9212 39.7805 37.1268 40.4143 37.4401C40.5236 37.4866 40.6186 37.5614 40.6893 37.6568L40.7976 37.5901" fill="#406325"/>
<path d="M40.7976 37.5985C40.731 37.4901 40.631 37.4235 40.5226 37.3735C39.881 37.0401 39.2393 36.8818 38.5226 36.7651C38.3476 36.7401 38.181 36.5818 38.006 36.4984C37.5893 36.3068 37.131 36.2318 36.731 36.0234C36.669 35.991 36.6128 35.9488 36.5643 35.8984C36.3976 35.7151 36.106 35.6568 35.9309 35.4818C35.2309 34.8318 34.4976 34.2318 34.1143 33.3568C33.6476 32.2984 33.0726 31.2068 33.1476 29.9984C33.1976 29.2484 33.0893 28.4734 33.2726 27.7484C33.5559 26.6734 33.9059 25.6151 34.5559 24.7234L34.4476 24.7901C33.8301 25.7069 33.3944 26.7339 33.1643 27.8151C32.9726 28.5401 33.0809 29.3151 33.0393 30.0651C32.9559 31.2734 33.5393 32.3651 33.9976 33.4234C34.3809 34.2901 35.1226 34.8984 35.8143 35.5568C35.9976 35.7234 36.281 35.7818 36.4476 35.9734C36.4977 36.0219 36.5537 36.0639 36.6143 36.0984C37.0226 36.2984 37.481 36.3734 37.8976 36.5734C38.0643 36.6568 38.231 36.8068 38.3976 36.8318C39.099 36.9212 39.7805 37.1268 40.4143 37.4401C40.5236 37.4866 40.6186 37.5614 40.6893 37.6568L40.7976 37.5901" stroke="#24420E" stroke-width="0.0166668"/>
<path d="M34.1487 33.1483C33.9771 32.5075 33.9713 31.8336 34.1321 31.1899C34.6904 32.2733 34.5071 33.165 34.1487 33.1483ZM37.9738 36.9316C37.3821 36.965 36.2571 37.7066 36.1488 37.8816C37.4071 37.89 38.1488 37.2733 37.9738 36.9316ZM38.5988 36.5733C38.0293 35.9477 37.6279 35.1879 37.4321 34.365C38.6821 35.265 39.0071 36.39 38.5988 36.5733Z" fill="#67923D" stroke="#24420E" stroke-width="0.0166668"/>
<path d="M38.1737 36.5816C37.5739 36.0729 37.1148 35.4187 36.8404 34.6816C38.1154 35.3649 38.5321 36.3649 38.1737 36.5816ZM36.8737 36.0149C36.957 35.3649 36.407 33.9983 36.2487 33.8483C35.9987 35.2233 36.4987 36.1483 36.882 36.0149H36.8737ZM34.5987 33.9899C34.4641 33.4125 34.4785 32.8103 34.6404 32.2399C35.0987 33.2149 34.9154 34.0066 34.5987 33.9899ZM33.457 27.5982C33.9132 27.0079 34.5168 26.548 35.207 26.2649C34.6487 27.4816 33.707 27.9232 33.457 27.5982Z" fill="#67923D" stroke="#24420E" stroke-width="0.0166668"/>
<path d="M33.5146 27.1232C33.8449 26.4511 34.3446 25.8766 34.9646 25.4565C34.6563 26.7649 33.8229 27.3899 33.5146 27.1232ZM35.8396 35.3899C35.4229 34.8733 35.1729 33.3983 35.2313 33.1899C36.1646 34.2316 36.2313 35.2899 35.8313 35.3899H35.8396ZM33.4479 32.3482C32.8646 32.4399 31.6646 31.9649 31.5312 31.8232C32.7479 31.5566 33.5646 31.9899 33.4479 32.3482ZM33.2646 31.5399C33.3313 31.0816 33.9813 30.2232 34.1229 30.1566C34.0396 31.1566 33.5063 31.7066 33.2646 31.5399ZM37.5396 36.4316C36.728 36.6128 35.9781 37.0036 35.3646 37.5649C36.8646 37.5733 37.7563 36.8399 37.5396 36.4316Z" fill="#67923D" stroke="#24420E" stroke-width="0.0166668"/>
<path d="M34.1581 33.14C34.5081 33.1567 34.6914 32.2733 34.1331 31.19C34.2382 31.8351 34.2466 32.4923 34.1581 33.14ZM35.0914 34.8067C34.5775 34.3473 33.9552 34.0262 33.2831 33.8733C34.0248 34.8817 34.9414 35.1317 35.0914 34.8067ZM33.0581 30.39C32.821 29.6305 32.3969 28.9428 31.8247 28.39C31.9497 29.8233 32.7081 30.615 33.0581 30.39ZM33.7581 33.2483C33.3414 32.94 32.1747 32.7983 32.0081 32.8567C32.8581 33.54 33.6914 33.5567 33.7581 33.2483ZM32.9747 31.1733C32.6137 30.6757 32.128 30.2819 31.5664 30.0316C32.0247 31.065 32.7831 31.4483 32.9747 31.1733ZM33.1997 27.215C33.2831 26.5816 32.7414 25.2649 32.5914 25.1149C32.3497 26.4483 32.8331 27.34 33.1997 27.215ZM33.5748 25.965C33.7348 25.2976 33.7205 24.6002 33.5331 23.9399C32.9997 25.0649 33.2164 25.99 33.5748 25.9733V25.965Z" fill="#406325" stroke="#24420E" stroke-width="0.0166668"/>
<path d="M33.9914 25.3316C34.2213 24.8253 34.3215 24.2697 34.2831 23.715C33.6831 24.5233 33.6997 25.29 33.9914 25.3316ZM34.4914 24.8233C34.861 24.4119 35.1192 23.9127 35.2414 23.3733C34.4331 23.9566 34.2247 24.69 34.4914 24.8233ZM33.1581 28.4233C33.1581 28.4983 33.0747 27.74 32.3164 26.8983C32.3497 28.1316 32.8331 28.5983 33.1497 28.4233H33.1581ZM35.8664 35.5734C35.2035 35.2277 34.4638 35.0557 33.7164 35.0733C34.7664 35.94 35.7914 35.9567 35.8664 35.5734ZM36.8664 36.0067C36.4914 36.14 35.9998 35.2233 36.2414 33.8483C36.3496 34.5958 36.5599 35.3248 36.8664 36.015V36.0067ZM37.9831 36.94C38.1498 37.2734 37.4164 37.89 36.1664 37.8817C37.1664 37.465 37.9331 37.0567 37.9748 36.94H37.9831ZM38.5914 36.565C39.0081 36.3734 38.6831 35.2734 37.4248 34.365C38.1414 35.465 38.6331 36.415 38.5914 36.565Z" fill="#406325" stroke="#24420E" stroke-width="0.0166668"/>
<path d="M38.1737 36.5733C38.5237 36.3483 38.1154 35.3649 36.8404 34.6816C37.6321 35.6149 38.1904 36.4316 38.1737 36.5733ZM34.607 33.9899C34.9154 34.0066 35.107 33.2149 34.6487 32.2399C34.707 33.1566 34.682 33.9066 34.607 33.9899ZM33.457 27.5899C33.707 27.9232 34.6237 27.4816 35.1987 26.2649C34.6861 26.7918 34.0994 27.2409 33.457 27.5982V27.5899Z" fill="#406325" stroke="#24420E" stroke-width="0.0166668"/>
<path d="M33.5313 27.1232C33.8313 27.3899 34.6563 26.7649 34.9646 25.4565C34.2979 26.3982 33.6646 27.1065 33.5313 27.1232ZM35.8396 35.3816C36.2313 35.2899 36.1729 34.2316 35.2313 33.1899C35.6479 34.3149 35.8979 35.2566 35.8396 35.3816ZM33.4313 32.3482C33.5479 31.9899 32.7396 31.5649 31.5312 31.8232C32.5563 32.0066 33.3646 32.2399 33.4313 32.3482ZM33.2646 31.5399C33.5146 31.7066 34.0396 31.1566 34.1313 30.1566C33.9124 30.6562 33.6234 31.122 33.2729 31.5399H33.2646ZM37.5396 36.4316C37.7563 36.8483 36.8729 37.5733 35.3729 37.5566C36.5563 37.0733 37.4813 36.5816 37.5396 36.4316Z" fill="#406325" stroke="#24420E" stroke-width="0.0166668"/>
<path d="M33.5729 32.7066C33.2236 32.1516 32.7352 31.6977 32.1562 31.3899C32.5729 32.5232 33.3396 32.9816 33.5729 32.7066Z" fill="#406325" stroke="#24420E" stroke-width="0.0166668"/>
<path d="M32.9914 28.3483C33.3247 27.9566 34.4498 27.5816 34.6248 27.5983C33.9581 28.4733 33.1247 28.6483 32.9914 28.3483ZM35.0748 34.8067C34.9331 35.14 34.0248 34.89 33.2747 33.8817C33.8298 34.2755 34.4389 34.587 35.0831 34.8067H35.0748ZM33.0497 30.39C32.6997 30.615 31.9581 29.8233 31.8247 28.39C32.3747 29.4983 32.9081 30.3483 33.0497 30.39ZM33.7498 33.2483C33.6914 33.5567 32.8581 33.5483 32.0164 32.8567C32.5725 33.0696 33.1562 33.2015 33.7498 33.2483ZM32.9664 31.165C32.7664 31.44 32.0247 31.065 31.5664 30.0317C32.2497 30.6983 32.8581 31.1733 32.9664 31.165ZM33.1914 27.2066C32.8247 27.34 32.3497 26.4566 32.5831 25.1233C32.8081 26.2483 33.0831 27.14 33.1914 27.2066ZM33.5664 25.965C33.2081 25.99 32.9914 25.065 33.5247 23.94C33.4581 25.0066 33.4831 25.8733 33.5664 25.965ZM33.9831 25.3316C33.6998 25.2816 33.6748 24.5233 34.2831 23.715C34.1029 24.2358 34.0018 24.7808 33.9831 25.3316ZM34.4831 24.8233C34.2248 24.6816 34.4248 23.9566 35.2331 23.3733C34.9126 23.8168 34.6598 24.3054 34.4831 24.8233Z" fill="#67923D" stroke="#24420E" stroke-width="0.0166668"/>
<path d="M33.1484 28.4232C32.8234 28.5982 32.3484 28.1315 32.3151 26.8982C32.7318 27.8732 33.0318 28.3815 33.1484 28.4232ZM35.8568 35.5732C35.7818 35.9566 34.7651 35.9399 33.7151 35.0816C34.8151 35.4399 35.7401 35.6399 35.8568 35.5732ZM35.1735 34.7816C34.8589 34.3028 34.6697 33.7526 34.6235 33.1816C35.3735 33.9066 35.4735 34.6899 35.1901 34.7816H35.1735ZM33.7734 32.6982C33.5214 32.0929 33.4351 31.4313 33.5234 30.7815C34.2151 31.7732 34.1318 32.6732 33.7734 32.6982ZM33.5484 32.7066C33.3234 32.9816 32.5568 32.5316 32.1484 31.3899C32.5471 31.8959 33.019 32.3397 33.5484 32.7066Z" fill="#67923D" stroke="#24420E" stroke-width="0.0166668"/>
<path d="M32.9883 28.3484C33.1216 28.6484 33.9383 28.4734 34.6133 27.6067C33.6133 28.1734 33.2216 28.4234 32.9883 28.3484ZM33.7633 32.6817C34.1216 32.6567 34.205 31.765 33.5133 30.7817C33.6976 31.4005 33.782 32.0447 33.7633 32.69V32.6817ZM35.18 34.7817C35.4633 34.6984 35.3633 33.9067 34.6216 33.1817C34.9883 33.9901 35.2216 34.6817 35.18 34.7817Z" fill="#406325" stroke="#24420E" stroke-width="0.0166668"/>
<path d="M33.1378 29.8316C33.2526 29.1004 33.1268 28.3518 32.7795 27.6982C32.3878 28.9816 32.7628 29.9149 33.1378 29.8316Z" fill="#406325" stroke="#24420E" stroke-width="0.0166668"/>
<path d="M33.1247 29.9983C32.6247 30.1067 32.3997 28.9983 32.7831 27.74C32.8664 28.865 33.0164 29.915 33.1164 29.99L33.1247 29.9983Z" fill="#67923D" stroke="#24420E" stroke-width="0.0166668"/>
<path d="M33.0156 29.99C33.0888 29.2518 33.3467 28.5439 33.7656 27.9316C33.9323 29.2483 33.3906 30.1233 33.0156 29.99Z" fill="#67923D" stroke="#24420E" stroke-width="0.0166668"/>
<path d="M33.0234 29.9817C33.3901 30.115 33.9318 29.2483 33.7651 27.9316C33.4734 29.04 33.1401 29.915 33.0234 29.9817Z" fill="#406325" stroke="#24420E" stroke-width="0.0166668"/>
<path d="M33.1328 30.7899C33.2482 30.0653 33.5529 29.384 34.0162 28.8149C34.0828 30.1649 33.4911 30.9733 33.1328 30.7899Z" fill="#67923D" stroke="#24420E" stroke-width="0.0166668"/>
<path d="M33.1406 30.7984C33.4906 30.9818 34.0823 30.1901 34.0156 28.8401C33.649 29.9068 33.2656 30.7484 33.1406 30.7984Z" fill="#406325" stroke="#24420E" stroke-width="0.0166668"/>
<path d="M33.3573 26.5483C33.4079 26.5483 33.449 26.5073 33.449 26.4567C33.449 26.406 33.4079 26.365 33.3573 26.365C33.3067 26.365 33.2656 26.406 33.2656 26.4567C33.2656 26.5073 33.3067 26.5483 33.3573 26.5483Z" fill="#BA1F3E" stroke="#511124" stroke-width="0.0166668"/>
<path d="M34.0565 26.0317C34.1071 26.0317 34.1482 25.9907 34.1482 25.9401C34.1482 25.8894 34.1071 25.8484 34.0565 25.8484C34.0059 25.8484 33.9648 25.8894 33.9648 25.9401C33.9648 25.9907 34.0059 26.0317 34.0565 26.0317Z" fill="#BA1F3E" stroke="#511124" stroke-width="0.0166668"/>
<path d="M33.7557 25.7483C33.8064 25.7483 33.8474 25.7072 33.8474 25.6566C33.8474 25.606 33.8064 25.5649 33.7557 25.5649C33.7051 25.5649 33.6641 25.606 33.6641 25.6566C33.6641 25.7072 33.7051 25.7483 33.7557 25.7483Z" fill="#BA1F3E" stroke="#511124" stroke-width="0.0166668"/>
<path d="M32.999 31.715C33.0588 31.715 33.1073 31.6665 33.1073 31.6066C33.1073 31.5468 33.0588 31.4983 32.999 31.4983C32.9391 31.4983 32.8906 31.5468 32.8906 31.6066C32.8906 31.6665 32.9391 31.715 32.999 31.715Z" fill="#BA1F3E" stroke="#511124" stroke-width="0.0166668"/>
<path d="M33.206 30.3817C33.2658 30.3817 33.3143 30.3332 33.3143 30.2734C33.3143 30.2135 33.2658 30.165 33.206 30.165C33.1462 30.165 33.0977 30.2135 33.0977 30.2734C33.0977 30.3332 33.1462 30.3817 33.206 30.3817Z" fill="#BA1F3E" stroke="#511124" stroke-width="0.0166668"/>
<path d="M34.3076 33.4984C34.3674 33.4984 34.4159 33.4499 34.4159 33.3901C34.4159 33.3302 34.3674 33.2817 34.3076 33.2817C34.2477 33.2817 34.1992 33.3302 34.1992 33.3901C34.1992 33.4499 34.2477 33.4984 34.3076 33.4984Z" fill="#BA1F3E" stroke="#511124" stroke-width="0.0166668"/>
<path d="M33.8232 33.6566C33.883 33.6566 33.9315 33.6081 33.9315 33.5483C33.9315 33.4884 33.883 33.4399 33.8232 33.4399C33.7633 33.4399 33.7148 33.4884 33.7148 33.5483C33.7148 33.6081 33.7633 33.6566 33.8232 33.6566Z" fill="#BA1F3E" stroke="#511124" stroke-width="0.0166668"/>
<path d="M37.5146 36.2567C37.5744 36.2567 37.6229 36.2082 37.6229 36.1484C37.6229 36.0885 37.5744 36.04 37.5146 36.04C37.4548 36.04 37.4062 36.0885 37.4062 36.1484C37.4062 36.2082 37.4548 36.2567 37.5146 36.2567Z" fill="#BA1F3E" stroke="#511124" stroke-width="0.0166668"/>
<path d="M37.7568 36.8483C37.8166 36.8483 37.8651 36.7998 37.8651 36.7399C37.8651 36.6801 37.8166 36.6316 37.7568 36.6316C37.6969 36.6316 37.6484 36.6801 37.6484 36.7399C37.6484 36.7998 37.6969 36.8483 37.7568 36.8483Z" fill="#BA1F3E" stroke="#511124" stroke-width="0.0166668"/>
<path d="M47.0508 27.0983C47.1091 27.1483 47.1508 27.1649 47.2425 27.2566M46.6925 25.6733C46.6925 25.5649 46.6425 25.3733 46.6175 25.2566M46.9091 25.5066C46.9091 25.6733 46.8841 25.8233 46.8175 25.9649M46.4675 25.9233C46.6175 26.0566 46.7591 26.1733 46.9091 26.2483M47.2258 26.3483C47.2341 26.5149 47.2175 26.6816 47.1675 26.8483M47.2008 26.9733L47.3091 26.7816M47.1508 27.7983C47.2675 27.8233 47.3841 27.9649 47.4425 28.0899M47.4841 27.9816L47.6175 27.7983M47.7591 30.365C47.7008 30.465 47.6339 30.5598 47.5591 30.6483M47.2258 30.6483C47.2925 30.765 47.3591 30.8983 47.4425 30.9816M47.6508 31.4733C47.5532 31.6118 47.4248 31.7259 47.2758 31.8066M47.2925 32.1816C47.2008 32.2483 47.0841 32.4316 46.9841 32.5733M47.6841 30.89L47.5091 30.965M47.3925 30.34L47.5008 30.4316M46.7258 33.5483H46.5425M46.3758 33.3983L46.4341 33.5316M45.7841 33.9566C45.7675 34.115 45.7841 34.265 45.8008 34.4233M46.1591 33.6733L46.2425 33.8566M46.5675 33.84L46.3591 33.8816M43.7841 35.9816L43.7008 36.1316M44.7008 35.7983C44.5758 35.815 44.4675 35.7983 44.3591 35.7816M43.9008 36.2816C43.8191 36.2491 43.7357 36.2212 43.6508 36.1983M42.4341 36.4233C42.3508 36.4816 42.2675 36.6233 42.1758 36.7566M42.1258 36.3816C41.9258 36.49 41.8674 36.69 41.7591 36.865M41.9924 37.1067C41.8423 37.0591 41.6949 37.0035 41.5508 36.94M42.9425 36.8733C42.7508 36.7733 42.5508 36.79 42.3508 36.7566M43.2508 36.7233C42.9425 36.665 42.6675 36.6733 42.3925 36.715M43.0425 36.4983L42.9258 36.4483M42.4591 36.9067L42.2675 36.7983M47.1008 32.6983C46.9925 32.765 46.8841 32.89 46.7841 33.0233M46.9341 26.3899L46.7591 26.3233" stroke="#24420E" stroke-width="0.0333335"/>
<path d="M39.8242 37.5899C39.8938 37.4914 39.9889 37.4137 40.0992 37.3649C40.7409 37.0316 41.3826 36.8816 42.0992 36.7649C42.2742 36.7316 42.4409 36.5732 42.6159 36.4982C43.0326 36.2982 43.4909 36.2232 43.8909 36.0232C43.9534 35.9883 44.0097 35.9432 44.0576 35.8899C44.2242 35.7066 44.5159 35.6482 44.6909 35.4732C45.3909 34.8232 46.1242 34.2232 46.5076 33.3482C46.9743 32.2899 47.5493 31.1982 47.4743 29.9982C47.4243 29.2315 47.5326 28.4649 47.3493 27.7482C47.1177 26.6648 46.6822 25.6354 46.0659 24.7148L46.1742 24.7815C46.7914 25.6986 47.227 26.7255 47.4576 27.8065C47.6493 28.5315 47.5409 29.3065 47.5826 30.0649C47.6659 31.2649 47.0826 32.3565 46.6243 33.4232C46.2409 34.2899 45.4992 34.8899 44.8076 35.5482C44.6242 35.7149 44.3409 35.7732 44.1742 35.9649C44.1241 36.0134 44.0681 36.0554 44.0076 36.0899C43.5992 36.2982 43.1409 36.3732 42.7242 36.5649C42.5576 36.6482 42.3909 36.7982 42.2242 36.8316C41.5234 36.9183 40.8419 37.1211 40.2076 37.4316C40.0972 37.4803 40.0022 37.5581 39.9326 37.6566L39.8242 37.5816" fill="#406325"/>
<path d="M39.8242 37.5899C39.8938 37.4914 39.9889 37.4137 40.0992 37.3649C40.7409 37.0316 41.3826 36.8816 42.0992 36.7649C42.2742 36.7316 42.4409 36.5732 42.6159 36.4982C43.0326 36.2982 43.4909 36.2232 43.8909 36.0232C43.9534 35.9883 44.0097 35.9432 44.0576 35.8899C44.2242 35.7066 44.5159 35.6482 44.6909 35.4732C45.3909 34.8232 46.1242 34.2232 46.5076 33.3482C46.9743 32.2899 47.5493 31.1982 47.4743 29.9982C47.4243 29.2315 47.5326 28.4649 47.3493 27.7482C47.1177 26.6648 46.6822 25.6354 46.0659 24.7148L46.1742 24.7815C46.7914 25.6986 47.227 26.7255 47.4576 27.8065C47.6493 28.5315 47.5409 29.3065 47.5826 30.0649C47.6659 31.2649 47.0826 32.3565 46.6243 33.4232C46.2409 34.2899 45.4992 34.8899 44.8076 35.5482C44.6242 35.7149 44.3409 35.7732 44.1742 35.9649C44.1241 36.0134 44.0681 36.0554 44.0076 36.0899C43.5992 36.2982 43.1409 36.3732 42.7242 36.5649C42.5576 36.6482 42.3909 36.7982 42.2242 36.8316C41.5234 36.9183 40.8419 37.1211 40.2076 37.4316C40.0972 37.4803 40.0022 37.5581 39.9326 37.6566L39.8242 37.5816" stroke="#24420E" stroke-width="0.0166668"/>
<path d="M46.4242 33.3984C46.6576 32.7818 46.4242 31.3318 46.3076 31.1484C45.7492 32.4318 46.0242 33.4484 46.4242 33.3984Z" fill="#406325" stroke="#24420E" stroke-width="0.0166668"/>
<path d="M45.8328 33.9815C46.0244 33.5149 45.8828 32.3732 45.7994 32.2315C45.3328 33.2065 45.5244 34.0065 45.8328 33.9815ZM47.2328 27.8065C46.8143 27.2687 46.2628 26.8493 45.6328 26.5898C46.1494 27.6982 47.0078 28.1065 47.2328 27.8065Z" fill="#406325" stroke="#24420E" stroke-width="0.0166668"/>
<path d="M47.1068 27.14C46.8313 26.5793 46.4149 26.0998 45.8984 25.7483C46.1484 26.8316 46.8484 27.3566 47.1068 27.14ZM47.4984 28.39C47.2068 28.0483 46.2318 27.7233 46.0818 27.74C46.6651 28.49 47.3818 28.6483 47.4984 28.3816V28.39ZM47.2651 32.2483C47.8613 32.2441 48.4455 32.0801 48.9568 31.7733C47.8818 31.54 47.1651 31.9317 47.2651 32.2483ZM47.2568 31.7733C47.2568 31.3067 46.7234 30.3733 46.5901 30.2733C46.5401 31.2733 46.9901 31.8983 47.2568 31.7733Z" fill="#406325" stroke="#24420E" stroke-width="0.0166668"/>
<path d="M47.2917 30.6317C47.1749 29.91 46.8702 29.2317 46.4084 28.665C46.3417 30.015 46.9334 30.8151 47.2917 30.6317ZM42.875 36.9067C43.4002 37.3699 44.0384 37.6861 44.725 37.8234C43.9917 36.7984 43.05 36.5651 42.8833 36.9067H42.875Z" fill="#406325" stroke="#24420E" stroke-width="0.0166668"/>
<path d="M46.4228 33.3818C46.0144 33.4318 45.7478 32.4318 46.3061 31.1484C46.2644 32.3318 46.3228 33.2901 46.4228 33.3818ZM41.9727 37.0234C42.6506 37.1769 43.2767 37.5043 43.7894 37.9735C42.5394 37.9818 41.7894 37.3651 41.9727 37.0234ZM41.9727 36.3568C42.1394 35.6901 43.2228 34.5901 43.4311 34.5151C43.1311 35.9401 42.2894 36.6401 41.9727 36.3651V36.3568ZM43.7478 36.0068C43.6644 35.3568 44.2144 33.9901 44.3728 33.8401C44.6228 35.2151 44.1228 36.1401 43.7478 36.0068ZM45.5311 34.7984C46.045 34.3391 46.6673 34.0179 47.3394 33.8651C46.5978 34.8734 45.6811 35.1234 45.5311 34.7984ZM47.6811 30.3567C47.7644 29.8317 48.4894 28.8651 48.6478 28.7817C48.5478 29.9151 47.9561 30.5317 47.6811 30.3651V30.3567Z" fill="#67923D" stroke="#24420E" stroke-width="0.0166668"/>
<path d="M46.7073 33.5316C47.3358 33.2104 48.0351 33.0528 48.7406 33.0733C47.7573 33.8816 46.7823 33.89 46.7073 33.5316ZM47.5656 31.49C47.9432 30.9672 48.452 30.5533 49.0406 30.29C48.5573 31.3733 47.7656 31.7733 47.5656 31.49ZM47.4406 27.6899C47.4406 27.0566 48.1073 25.7983 48.274 25.6733C48.3656 27.0149 47.799 27.8566 47.4406 27.6899ZM46.8573 25.5233C46.7183 24.9764 46.7183 24.4035 46.8573 23.8566C47.3156 24.7733 47.1656 25.5399 46.8573 25.5233ZM46.5156 25.3483C46.0753 24.8167 45.7746 24.1837 45.6406 23.5066C46.624 24.2816 46.8406 25.2066 46.5073 25.3483H46.5156Z" fill="#67923D" stroke="#24420E" stroke-width="0.0166668"/>
<path d="M47.4823 28.2233C47.4573 28.2983 47.7323 27.5816 48.6656 26.9483C48.3323 28.14 47.749 28.4733 47.4823 28.2233ZM44.6406 35.7233C45.224 35.29 46.849 35.0817 47.074 35.1567C45.8906 36.14 44.724 36.1567 44.6406 35.715V35.7233ZM45.8323 33.9817C45.524 33.9983 45.3323 33.2067 45.7906 32.2317C45.7323 33.1483 45.7573 33.8983 45.8323 33.9817ZM47.2406 27.815C47.0156 28.1066 46.1573 27.7066 45.6406 26.59C46.1084 27.0752 46.648 27.4856 47.2406 27.8066V27.815ZM47.099 27.14C46.8406 27.3566 46.1573 26.84 45.899 25.7483C46.4573 26.5316 46.9823 27.1233 47.099 27.14ZM47.499 28.39C47.3823 28.6566 46.674 28.4983 46.0906 27.7483C46.9573 28.24 47.299 28.4566 47.5073 28.39H47.499ZM47.2823 32.24C47.174 31.9317 47.8906 31.5483 48.9656 31.7817C48.3845 31.8479 47.8168 32.0025 47.2823 32.24ZM47.249 31.7733C46.9823 31.8983 46.5406 31.2817 46.5823 30.2816C46.7311 30.8112 46.9556 31.3164 47.249 31.7817V31.7733Z" fill="#67923D" stroke="#24420E" stroke-width="0.0166668"/>
<path d="M47.2823 30.6483C46.9323 30.8316 46.3406 30.0316 46.4073 28.6899C46.774 29.7566 47.1573 30.5983 47.2823 30.6483ZM42.8906 36.8983C43.0573 36.565 43.9823 36.79 44.724 37.815C44.1636 37.4171 43.5452 37.1079 42.8906 36.8983Z" fill="#67923D" stroke="#24420E" stroke-width="0.0166668"/>
<path d="M43.75 35.9984C44.1333 36.1318 44.625 35.2151 44.3833 33.8401C44.15 35.0068 43.8667 35.9318 43.75 36.0068V35.9984Z" fill="#406325" stroke="#24420E" stroke-width="0.0166668"/>
<path d="M44.6068 35.565C44.9222 34.8593 45.0541 34.0853 44.9901 33.315C44.1568 34.4483 44.2067 35.5067 44.6068 35.565ZM41.9651 37.015C41.7984 37.3567 42.5234 37.9733 43.7817 37.9567C43.1314 37.7379 42.5187 37.4203 41.9651 37.015ZM41.9817 36.3483C42.2984 36.6233 43.1317 35.9317 43.4317 34.5066C42.7567 35.54 42.1234 36.3233 41.9817 36.34V36.3483ZM45.5401 34.79C45.6901 35.1233 46.5984 34.8733 47.3484 33.865C46.7935 34.2591 46.1844 34.5707 45.5401 34.79ZM47.6901 30.3483C47.9651 30.5233 48.5484 29.9066 48.6484 28.7816C48.4083 29.3484 48.0853 29.8764 47.6901 30.3483ZM46.7068 33.5316C46.7818 33.8983 47.7401 33.8816 48.7318 33.0733C47.6901 33.4066 46.8151 33.59 46.7068 33.5316ZM47.5651 31.4816C47.7734 31.765 48.5568 31.365 49.0401 30.2816C48.6124 30.7544 48.115 31.1591 47.5651 31.4816ZM47.4568 27.6816C47.8151 27.8483 48.3734 27.0149 48.2901 25.6816C47.9401 26.7649 47.5818 27.6233 47.4568 27.6816ZM46.8734 25.5233C47.1734 25.5316 47.3318 24.7733 46.8734 23.8566C46.9484 24.7316 46.9401 25.4483 46.8734 25.5233ZM46.5234 25.3399C46.8568 25.1983 46.6401 24.2816 45.6568 23.5066C46.0354 24.0711 46.3276 24.689 46.5234 25.3399ZM47.4901 28.2316C47.7568 28.4816 48.3401 28.1483 48.6734 26.9483C48.0234 27.7899 47.6151 28.215 47.4901 28.2316ZM44.6568 35.7233C44.7401 36.1567 45.8984 36.14 47.0734 35.165C45.8318 35.565 44.7901 35.7983 44.6568 35.7233Z" fill="#406325" stroke="#24420E" stroke-width="0.0166668"/>
<path d="M45.2164 35.0815C45.4561 34.5574 45.5593 33.9812 45.5164 33.4065C44.8914 34.2399 44.9164 35.0315 45.2164 35.0732V35.0815ZM46.8498 32.6899C47.1018 32.0845 47.1881 31.423 47.0998 30.7732C46.4081 31.7649 46.4914 32.6649 46.8498 32.6899Z" fill="#406325" stroke="#24420E" stroke-width="0.0166668"/>
<path d="M44.6081 35.5566C44.2081 35.5066 44.1664 34.4483 44.9831 33.3233C44.6831 34.4733 44.5331 35.44 44.6081 35.5566ZM47.5414 29.8649C47.4581 29.2233 47.8748 28.1899 48.0914 27.9899C48.2998 29.1899 47.8664 29.9899 47.5331 29.8649H47.5414ZM45.2081 35.0733C44.9081 35.0316 44.8831 34.24 45.4998 33.4066C45.3191 33.9443 45.2207 34.5062 45.2081 35.0733ZM47.1581 26.3899C46.9748 25.8899 47.1581 24.7232 47.2581 24.5732C47.6998 25.5899 47.4748 26.4149 47.1581 26.3899ZM42.3164 36.3983C42.5247 35.7316 43.6664 34.6483 43.8831 34.5733C43.5247 36.0233 42.6331 36.6983 42.3164 36.4066V36.3983ZM46.8581 32.9316C47.2074 32.3767 47.6958 31.9227 48.2748 31.6149C47.8581 32.7483 47.0831 33.2066 46.8581 32.9316ZM46.8498 32.6816C46.4914 32.6483 46.4081 31.7649 47.0998 30.7733C46.9154 31.392 46.831 32.0363 46.8498 32.6816Z" fill="#67923D" stroke="#24420E" stroke-width="0.0166668"/>
<path d="M47.5391 30.0149C47.9724 30.1732 48.2891 29.1982 48.0891 28.0232C47.9913 28.7105 47.8065 29.3826 47.5391 30.0232V30.0149Z" fill="#406325" stroke="#24420E" stroke-width="0.0166668"/>
<path d="M47.6071 29.9816C47.6487 29.3566 47.0237 28.0649 46.8571 27.9233C46.6904 29.2399 47.2321 30.1149 47.6071 29.9816ZM47.1737 26.3816C47.4904 26.4149 47.7071 25.5982 47.2654 24.5732C47.3225 25.1776 47.2888 25.7872 47.1654 26.3816H47.1737ZM42.332 36.39C42.6487 36.69 43.532 36.0233 43.8904 34.5733C43.157 35.5983 42.4737 36.3733 42.332 36.39ZM46.8821 32.9316C47.1154 33.2066 47.8821 32.7566 48.2987 31.6149C47.895 32.1222 47.4175 32.566 46.8821 32.9316Z" fill="#406325" stroke="#24420E" stroke-width="0.0166668"/>
<path d="M47.6012 29.9733C47.2262 30.115 46.6929 29.2483 46.8595 27.9316C47.1512 29.0316 47.4845 29.9067 47.6012 29.9733Z" fill="#67923D" stroke="#24420E" stroke-width="0.0166668"/>
<path d="M47.3378 26.8481C47.3884 26.8481 47.4294 26.8071 47.4294 26.7565C47.4294 26.7058 47.3884 26.6648 47.3378 26.6648C47.2871 26.6648 47.2461 26.7058 47.2461 26.7565C47.2461 26.8071 47.2871 26.8481 47.3378 26.8481Z" fill="#BA1F3E" stroke="#511124" stroke-width="0.0166668"/>
<path d="M47.6542 27.8398C47.7048 27.8398 47.7458 27.7988 47.7458 27.7482C47.7458 27.6975 47.7048 27.6565 47.6542 27.6565C47.6035 27.6565 47.5625 27.6975 47.5625 27.7482C47.5625 27.7988 47.6035 27.8398 47.6542 27.8398Z" fill="#BA1F3E" stroke="#511124" stroke-width="0.0166668"/>
<path d="M47.7724 30.9816C47.8322 30.9816 47.8807 30.9331 47.8807 30.8732C47.8807 30.8134 47.8322 30.7649 47.7724 30.7649C47.7126 30.7649 47.6641 30.8134 47.6641 30.8732C47.6641 30.9331 47.7126 30.9816 47.7724 30.9816Z" fill="#BA1F3E" stroke="#511124" stroke-width="0.0166668"/>
<path d="M47.3388 30.3983C47.3986 30.3983 47.4471 30.3498 47.4471 30.29C47.4471 30.2301 47.3986 30.1816 47.3388 30.1816C47.279 30.1816 47.2305 30.2301 47.2305 30.29C47.2305 30.3498 47.279 30.3983 47.3388 30.3983Z" fill="#BA1F3E" stroke="#511124" stroke-width="0.0166668"/>
<path d="M46.1122 33.7233C46.1721 33.7233 46.2206 33.6748 46.2206 33.6149C46.2206 33.5551 46.1721 33.5066 46.1122 33.5066C46.0524 33.5066 46.0039 33.5551 46.0039 33.6149C46.0039 33.6748 46.0524 33.7233 46.1122 33.7233Z" fill="#BA1F3E" stroke="#511124" stroke-width="0.0166668"/>
<path d="M46.6396 33.9484C46.6994 33.9484 46.7479 33.8999 46.7479 33.84C46.7479 33.7802 46.6994 33.7317 46.6396 33.7317C46.5798 33.7317 46.5312 33.7802 46.5312 33.84C46.5312 33.8999 46.5798 33.9484 46.6396 33.9484Z" fill="#BA1F3E" stroke="#511124" stroke-width="0.0166668"/>
<path d="M43.1044 36.6483C43.1643 36.6483 43.2128 36.5998 43.2128 36.54C43.2128 36.4801 43.1643 36.4316 43.1044 36.4316C43.0446 36.4316 42.9961 36.4801 42.9961 36.54C42.9961 36.5998 43.0446 36.6483 43.1044 36.6483Z" fill="#BA1F3E" stroke="#511124" stroke-width="0.0166668"/>
<path d="M42.5224 37.0651C42.5822 37.0651 42.6307 37.0166 42.6307 36.9567C42.6307 36.8969 42.5822 36.8484 42.5224 36.8484C42.4626 36.8484 42.4141 36.8969 42.4141 36.9567C42.4141 37.0166 42.4626 37.0651 42.5224 37.0651Z" fill="#BA1F3E" stroke="#511124" stroke-width="0.0166668"/>
<path d="M46.7049 26.3816C46.7556 26.3816 46.7966 26.3405 46.7966 26.2899C46.7966 26.2393 46.7556 26.1982 46.7049 26.1982C46.6543 26.1982 46.6133 26.2393 46.6133 26.2899C46.6133 26.3405 46.6543 26.3816 46.7049 26.3816Z" fill="#BA1F3E" stroke="#511124" stroke-width="0.0166668"/>
<path d="M36.4787 33.5398C36.462 33.6231 36.5454 33.7315 36.6454 33.7065C36.687 33.7065 36.7037 33.6648 36.662 33.6648C36.6287 33.6731 36.587 33.6648 36.562 33.6398C36.5392 33.6194 36.5236 33.5921 36.5176 33.562C36.5116 33.532 36.5155 33.5008 36.5287 33.4731L36.4787 33.5398Z" fill="#8C959D" stroke="#485654" stroke-width="0.00833338"/>
<path d="M36.7208 33.7064C36.6375 33.8064 36.5125 33.8481 36.4375 33.7814C36.3875 33.7314 36.3708 33.6814 36.3958 33.6148L36.3125 33.7231C36.3421 33.7845 36.3883 33.8365 36.4458 33.8731C36.5458 33.9148 36.6958 33.8481 36.7792 33.7398C36.8458 33.6564 36.9125 33.5398 36.8625 33.4398C36.8245 33.3751 36.7657 33.3252 36.6958 33.2981L36.6125 33.3814C36.6542 33.3648 36.7125 33.3814 36.7542 33.4148C36.8625 33.4981 36.7958 33.6231 36.7208 33.7064Z" fill="#8C959D"/>
<path d="M36.7214 33.7065C36.6963 33.7397 36.6652 33.768 36.6297 33.7898C36.588 33.8065 36.5464 33.8231 36.5047 33.8148C36.4834 33.8116 36.4633 33.803 36.4464 33.7898C36.4298 33.7755 36.4158 33.7586 36.4047 33.7398C36.3918 33.7227 36.3832 33.7026 36.3797 33.6815C36.3797 33.6565 36.3797 33.6398 36.3964 33.6148L36.4047 33.6231L36.313 33.7231C36.338 33.7565 36.363 33.7981 36.3964 33.8231L36.4547 33.8648C36.4761 33.8721 36.4988 33.8749 36.5214 33.8731C36.5689 33.8722 36.6151 33.8577 36.6547 33.8315C36.6951 33.8097 36.7316 33.7816 36.763 33.7481L36.8464 33.6315C36.863 33.5898 36.8714 33.5481 36.8714 33.4981C36.871 33.4749 36.8653 33.4521 36.8547 33.4315C36.843 33.4131 36.829 33.3962 36.813 33.3815C36.7803 33.3459 36.7406 33.3176 36.6964 33.2981H36.7047L36.6214 33.3898H36.613C36.6297 33.3731 36.6547 33.3731 36.6797 33.3731C36.7106 33.3781 36.7396 33.3916 36.7631 33.4123C36.7867 33.4329 36.804 33.4598 36.813 33.4898C36.8214 33.5315 36.813 33.5731 36.7964 33.6065C36.7764 33.6433 36.7511 33.677 36.7214 33.7065ZM36.7214 33.7065C36.7547 33.6815 36.7714 33.6481 36.788 33.6065C36.8047 33.5731 36.813 33.5231 36.8047 33.4898C36.7901 33.4542 36.7636 33.4247 36.7297 33.4065C36.6964 33.3815 36.6464 33.3731 36.6214 33.3898H36.613L36.6964 33.2898C36.7644 33.3158 36.8227 33.3624 36.863 33.4231C36.8797 33.4481 36.888 33.4731 36.888 33.5065C36.888 33.5481 36.8797 33.5898 36.8547 33.6398C36.8323 33.6823 36.8043 33.7215 36.7714 33.7565C36.7464 33.7981 36.7047 33.8231 36.663 33.8481C36.6214 33.8731 36.5797 33.8898 36.5214 33.8898C36.4988 33.8912 36.4762 33.8883 36.4547 33.8815C36.4302 33.8716 36.4076 33.8575 36.388 33.8398C36.3537 33.806 36.3255 33.7665 36.3047 33.7231L36.388 33.6148H36.4047L36.3964 33.6815C36.3964 33.6981 36.3964 33.7231 36.413 33.7398L36.4547 33.7815L36.5047 33.8065C36.5464 33.8148 36.588 33.8065 36.6297 33.7815C36.6645 33.7621 36.6955 33.7367 36.7214 33.7065Z" fill="#485654"/>
<path d="M43.2216 26.2898L39.88 29.5815L36.4549 32.8482L36.0716 33.2982C35.9049 33.4899 35.7049 33.7399 35.4716 33.9649C35.4383 34.0149 35.3799 33.9982 35.3299 34.0315C35.1748 34.1307 35.0346 34.2514 34.9133 34.3899L33.8883 35.5149C33.8299 35.5899 33.8049 35.6315 33.8549 35.6815L34.4049 36.4149C34.5049 36.5149 34.6216 36.5649 34.6716 36.4815C34.9299 36.0232 35.5883 35.3315 35.8383 34.7899C35.9799 34.4565 36.1633 33.8649 36.2966 33.7232C36.4633 33.5399 36.8883 33.0732 37.28 32.6649L37.3633 32.5815L37.4383 32.4982C39.3966 30.4982 41.6633 28.0732 43.3133 26.3648L43.23 26.2815L43.2216 26.2898Z" fill="#6C301E" stroke="#351710" stroke-width="0.0166668" stroke-linejoin="round"/>
<path d="M36.2807 32.8564C36.1807 32.8564 36.1141 32.7981 36.0391 32.7397C36.1391 32.7731 36.2391 32.8064 36.3307 32.7731L36.2807 32.8564Z" fill="#8C959D" stroke="#485654" stroke-width="0.00833338"/>
<path d="M46.705 23.8564L44.055 26.0398C44.03 26.0731 44.005 26.0648 43.98 26.0398L43.7383 25.8398V25.7898L43.855 25.6731C43.8717 25.6565 43.855 25.6481 43.8467 25.6231L43.7967 25.5731C43.7717 25.5648 43.755 25.5731 43.7383 25.5898L43.6217 25.7148C43.5633 25.7148 43.5133 25.7648 43.505 25.8315C41.905 27.3898 40.5216 28.7815 38.93 30.3148L37.0466 32.1148C36.98 32.1982 36.6883 32.3565 36.4966 32.4815C36.4384 32.5121 36.3872 32.5547 36.3466 32.6065L36.1966 33.0648L35.9883 33.4148C36.1799 33.6148 36.1716 33.5982 36.305 33.7232L37.2383 32.7315L37.305 32.6482C37.2697 32.6006 37.2307 32.5561 37.1883 32.5148C37.1556 32.4863 37.1223 32.4585 37.0883 32.4315L37.0383 32.3815C37.0216 32.3648 37.055 32.3398 37.0716 32.3232C39.28 30.1981 41.655 27.8481 43.5967 25.9398C43.6235 25.95 43.6532 25.95 43.68 25.9398L43.9133 26.2065C43.9633 26.2565 44.0133 26.2565 44.055 26.2398L46.7133 23.8564H46.705Z" fill="#B2B6BA" stroke="#485654" stroke-width="0.0166668"/>
<path d="M36.2036 33.0481H36.2453C36.2624 33.0488 36.2794 33.0459 36.2953 33.0398C36.3343 32.9056 36.376 32.7723 36.4203 32.6398C36.4043 32.6236 36.3841 32.612 36.362 32.6064C36.387 32.6064 36.4036 32.6231 36.4203 32.6398L36.362 32.8398L36.3036 33.0398C36.2885 33.0491 36.2714 33.0548 36.2536 33.0564C36.2339 33.0561 36.2143 33.0533 36.1953 33.0481H36.2036Z" fill="#485654"/>
<path d="M36.8039 32.9064C36.8315 32.9064 36.8539 32.884 36.8539 32.8564C36.8539 32.8288 36.8315 32.8064 36.8039 32.8064C36.7763 32.8064 36.7539 32.8288 36.7539 32.8564C36.7539 32.884 36.7763 32.9064 36.8039 32.9064Z" stroke="#485654" stroke-width="0.0166668"/>
<path d="M36.4875 33.223C36.5151 33.223 36.5375 33.2007 36.5375 33.173C36.5375 33.1454 36.5151 33.123 36.4875 33.123C36.4599 33.123 36.4375 33.1454 36.4375 33.173C36.4375 33.2007 36.4599 33.223 36.4875 33.223Z" stroke="#485654" stroke-width="0.0166668"/>
<path d="M37.0367 32.3814L36.9534 32.3147C36.9301 32.2936 36.9078 32.2713 36.8867 32.248C36.9413 32.2871 36.9916 32.3318 37.0367 32.3814Z" fill="#485654"/>
<path d="M42.1367 27.0981L42.4284 27.3897L42.4784 27.3397L42.1867 27.0564L42.1367 27.1064V27.0981Z" fill="#8C959D" stroke="#485654" stroke-width="0.00833338"/>
<path d="M40.6622 -16.1381L40.3851 -16.4436L40.3327 -16.3961L40.6102 -16.0989L40.6626 -16.1464L40.6622 -16.1381Z" fill="#8C959D" stroke="#485654" stroke-width="0.00833338"/>
<path d="M36.4573 35.965C35.6512 35.7724 34.8084 35.7982 34.0156 36.04C35.374 36.7067 36.474 36.4233 36.449 35.9567L36.4573 35.965ZM43.874 36.24C44.6778 36.0479 45.5186 36.0767 46.3074 36.3233C44.949 36.9817 43.8407 36.6983 43.8657 36.24H43.874Z" fill="#67923D" stroke="#24420E" stroke-width="0.0166668"/>
<path d="M36.4406 35.9734C36.4656 36.4318 35.374 36.7151 34.0156 36.0484C35.2906 36.1318 36.3323 36.0818 36.4323 35.9651L36.4406 35.9734ZM43.8823 36.2484C43.8573 36.7068 44.949 36.9901 46.299 36.3234C45.0323 36.4068 43.9907 36.3568 43.8823 36.2401V36.2484Z" fill="#406325" stroke="#24420E" stroke-width="0.0166668"/>
<path d="M42.6659 35.5149C40.9876 33.1888 38.8238 31.2553 36.3242 29.8482C36.6242 29.8316 37.2826 30.1732 37.5492 30.3482C39.5409 31.6316 41.2409 33.3233 43.0159 35.3316C42.927 35.421 42.8323 35.5045 42.7326 35.5816L42.6659 35.5149Z" fill="#B2B6BA" stroke="#485654" stroke-width="0.0166668"/>
<path d="M42.8414 35.4982L42.7081 35.5982C40.7914 33.1315 38.1164 30.7732 36.3164 29.8398C38.8248 30.9982 40.9331 33.3232 42.8164 35.4815H42.8331L42.8414 35.4982Z" fill="#8C959D"/>
<path d="M42.8414 35.4982L42.7081 35.5982C42.2624 35.0311 41.7925 34.4834 41.2998 33.9566C40.8112 33.4288 40.3025 32.9201 39.7748 32.4316C39.2464 31.94 38.6958 31.4728 38.1247 31.0316C37.8374 30.8107 37.5428 30.5995 37.2414 30.3982C36.9414 30.2065 36.6331 30.0149 36.3164 29.8482V29.8315C36.9755 30.1399 37.6034 30.5111 38.1914 30.9399C38.7749 31.3663 39.3315 31.8283 39.8581 32.3232C40.3848 32.8186 40.8935 33.3328 41.3831 33.8649C41.8831 34.3982 42.3498 34.9482 42.8331 35.4816L42.8414 35.4982ZM42.8414 35.4982C42.3632 34.9523 41.877 34.4134 41.3831 33.8816C40.8935 33.3495 40.3848 32.8352 39.8581 32.3399C39.3313 31.8451 38.7747 31.3831 38.1914 30.9565C37.6061 30.5305 36.981 30.1622 36.3247 29.8565V29.8399C36.9526 30.1977 37.5567 30.5957 38.1331 31.0316C38.7069 31.4727 39.2603 31.9399 39.7914 32.4316C40.3192 32.9201 40.8279 33.4288 41.3164 33.9566C41.8065 34.4863 42.2736 35.0368 42.7164 35.6066L42.8414 35.4899V35.4982Z" fill="#485654"/>
<path d="M43.418 35.0981C43.2615 35.1382 43.1125 35.2029 42.9763 35.2898C42.9597 35.4065 42.8096 35.5398 42.6763 35.5648L42.6346 35.4981C42.6346 35.4959 42.6338 35.4938 42.6322 35.4923C42.6306 35.4907 42.6285 35.4898 42.6263 35.4898C42.6241 35.4898 42.622 35.4907 42.6204 35.4923C42.6189 35.4938 42.618 35.4959 42.618 35.4981C42.6009 35.5057 42.5842 35.514 42.568 35.5231C42.518 35.5231 42.4596 35.5398 42.4346 35.6065C42.4013 35.6898 42.468 35.7981 42.5346 35.8648C42.618 35.9231 42.6513 35.9481 42.7346 35.9481C42.8263 35.9231 42.8763 35.8398 42.9013 35.8148C43.2096 36.1898 43.443 36.3982 43.8347 36.6982C44.0097 36.6982 44.1013 36.5898 44.043 36.4648C44.0263 36.4232 43.9763 36.3981 43.9347 36.4148V36.3731C44.1347 36.1898 44.2263 35.9565 44.0097 35.5481C43.8263 35.2148 43.618 35.1065 43.4263 35.1065L43.418 35.0981ZM43.943 35.4815L44.0263 35.6481C44.1513 35.8981 44.043 36.1981 43.8263 36.2981H43.8097C43.843 36.2398 43.743 36.1148 43.693 36.1565C43.718 36.0982 43.6347 35.9898 43.568 36.0148C43.6013 35.9565 43.5263 35.8565 43.4513 35.8898C43.4847 35.8315 43.4263 35.7398 43.343 35.7565C43.368 35.6815 43.3096 35.6065 43.2346 35.6231C43.2346 35.5565 43.218 35.5231 43.193 35.4981C43.2763 35.4315 43.3847 35.3231 43.4763 35.2731C43.7013 35.1731 43.843 35.3565 43.9347 35.4815H43.943Z" fill="#FAB81C" stroke="#6C301E" stroke-width="0.0166668"/>
<path d="M44.0357 35.7481C43.994 35.7231 43.969 35.6814 43.9857 35.6564C44.0024 35.6231 44.044 35.6148 44.0857 35.6398C44.1274 35.6564 44.1524 35.6981 44.1357 35.7231C44.1274 35.7564 44.0774 35.7648 44.0357 35.7481Z" fill="#FAB81C" stroke="#6C301E" stroke-width="0.00833338"/>
<path d="M44.0083 35.6649C43.9667 35.6399 43.9417 35.5983 43.9583 35.5649C43.975 35.5399 44.0167 35.5316 44.0583 35.5566C44.1 35.5733 44.125 35.6149 44.1083 35.6399C44.1 35.6733 44.05 35.6816 44.0083 35.6649Z" fill="#FAB81C" stroke="#6C301E" stroke-width="0.00833338"/>
<path d="M43.9615 35.5649C43.9198 35.5482 43.8948 35.5066 43.9115 35.4816C43.9281 35.4482 43.9698 35.4399 44.0115 35.4566C44.0531 35.4816 44.0781 35.5232 44.0615 35.5482C44.0531 35.5816 44.0031 35.5899 43.9615 35.5649Z" fill="#FAB81C" stroke="#6C301E" stroke-width="0.00833338"/>
<path d="M43.8912 35.4815C43.8495 35.4565 43.8245 35.4148 43.8412 35.3898C43.8578 35.3648 43.8995 35.3565 43.9412 35.3732C43.9828 35.3982 44.0078 35.4398 43.9995 35.4648C43.9828 35.4898 43.9328 35.5065 43.8912 35.4815Z" fill="#FAB81C" stroke="#6C301E" stroke-width="0.00833338"/>
<path d="M43.8102 35.398C43.7602 35.3814 43.7435 35.3314 43.7602 35.3147V35.298C43.7768 35.3064 43.8185 35.3147 43.8102 35.2897C43.8102 35.273 43.8018 35.2647 43.8102 35.273L43.8602 35.2897C43.9018 35.3147 43.9268 35.3564 43.9102 35.3814C43.8935 35.4147 43.8518 35.423 43.8102 35.398Z" fill="#FAB81C" stroke="#6C301E" stroke-width="0.00833338"/>
<path d="M42.8984 35.815C42.9484 35.665 43.0651 35.5316 43.1901 35.4983L42.8984 35.815ZM42.9151 35.8316C43.0234 35.8566 43.1901 35.7316 43.2318 35.6233L42.9151 35.8316ZM43.0151 35.9566C43.1484 35.99 43.2901 35.8566 43.3484 35.7566L43.0151 35.9566ZM43.1401 36.09C43.3068 36.09 43.3984 35.9816 43.4484 35.89L43.1401 36.09ZM43.2651 36.2233C43.3984 36.2233 43.5318 36.1066 43.5651 36.015L43.2651 36.2233ZM43.3818 36.3316C43.4436 36.3352 43.5052 36.3215 43.5596 36.2921C43.6141 36.2627 43.6593 36.2186 43.6901 36.165M43.5234 36.4483C43.6568 36.4566 43.7734 36.3733 43.8068 36.2983L43.5234 36.4483ZM43.6734 36.5733C43.8068 36.5733 43.8984 36.49 43.9318 36.4066L43.6734 36.5733Z" fill="#FAB81C"/>
<path d="M42.8984 35.815C42.9222 35.7449 42.959 35.6798 43.0068 35.6233L43.0901 35.54L43.1901 35.4983C43.1542 35.5092 43.1204 35.5261 43.0901 35.5483L43.0068 35.6316C42.9624 35.6875 42.9259 35.7492 42.8984 35.815ZM42.9151 35.84C42.9484 35.84 42.9818 35.84 43.0151 35.8233C43.0448 35.81 43.0728 35.7932 43.0984 35.7733L43.1818 35.7066L43.2318 35.6233C43.2238 35.6554 43.2063 35.6844 43.1818 35.7066C43.1575 35.7353 43.1295 35.7605 43.0984 35.7816C43.0725 35.7989 43.0445 35.8128 43.0151 35.8233C42.9841 35.8386 42.9494 35.8444 42.9151 35.84ZM43.0151 35.9566H43.1151L43.1984 35.9066C43.2553 35.8667 43.3034 35.8156 43.3401 35.7566C43.3244 35.7868 43.3048 35.8148 43.2818 35.84C43.2599 35.8679 43.2348 35.8931 43.2068 35.915C43.1813 35.933 43.1532 35.947 43.1234 35.9566H43.0151ZM43.1401 36.09C43.1713 36.0885 43.2021 36.0829 43.2318 36.0733C43.2615 36.0636 43.2895 36.0496 43.3151 36.0316C43.3458 36.0133 43.3738 35.9909 43.3984 35.965L43.4484 35.8816C43.422 35.9448 43.3788 35.9996 43.3234 36.04C43.2699 36.0772 43.2052 36.0949 43.1401 36.09ZM43.2651 36.215C43.3285 36.2095 43.3891 36.1864 43.4401 36.1483C43.491 36.1134 43.5336 36.0679 43.5651 36.015C43.5568 36.04 43.5401 36.0733 43.5151 36.0983L43.4484 36.1566C43.4226 36.1742 43.3946 36.1882 43.3651 36.1983C43.3318 36.215 43.2984 36.215 43.2651 36.215ZM43.3901 36.3316C43.4183 36.3281 43.4461 36.3225 43.4734 36.315C43.5024 36.3072 43.5304 36.296 43.5568 36.2816C43.6131 36.2548 43.6597 36.2112 43.6901 36.1566L43.6401 36.24C43.6151 36.2566 43.5901 36.2816 43.5568 36.29C43.5052 36.3166 43.4481 36.3308 43.3901 36.3316ZM43.5234 36.4483H43.6068C43.6364 36.4384 43.6644 36.4244 43.6901 36.4066L43.7568 36.365C43.7818 36.34 43.7984 36.3233 43.8068 36.2983C43.7972 36.323 43.7831 36.3456 43.7651 36.365C43.7428 36.3853 43.7175 36.4022 43.6901 36.415C43.6388 36.4415 43.581 36.453 43.5234 36.4483ZM43.6734 36.5733C43.7015 36.574 43.7295 36.5712 43.7568 36.565C43.8084 36.5508 43.8547 36.5218 43.8901 36.4816C43.9066 36.4611 43.9206 36.4388 43.9318 36.415C43.913 36.4665 43.8779 36.5104 43.8318 36.54C43.8057 36.5531 43.7775 36.5616 43.7484 36.565C43.7209 36.5696 43.6927 36.5696 43.6651 36.565L43.6734 36.5733Z" fill="#6C301E"/>
<path d="M34.3908 25.5149C35.0512 25.1649 35.6108 24.6513 36.0158 24.0232C34.7158 24.3732 34.1242 25.2232 34.3908 25.5232V25.5149ZM46.5409 25.9065C46.2568 25.2515 45.8092 24.6805 45.2409 24.2482C45.4742 25.5149 46.2409 26.1482 46.5409 25.9149V25.9065Z" fill="#406325" stroke="#24420E" stroke-width="0.0166668"/>
<path d="M34.3903 25.5148C34.1153 25.2232 34.707 24.3815 36.007 24.0315C35.0903 24.7315 34.407 25.3815 34.3903 25.5148ZM46.5404 25.9065C46.232 26.1565 45.482 25.5232 45.2487 24.2648C45.8487 25.1815 46.4154 25.8898 46.5404 25.9065Z" fill="#67923D" stroke="#24420E" stroke-width="0.0166668"/>
<path d="M37.9718 32.0232C37.9718 32.0232 37.4551 32.0816 37.3134 31.3732C37.1634 30.6149 37.7551 30.5399 37.7551 30.5399C37.7551 30.5399 38.4301 30.4649 38.8551 30.4565L39.0384 31.9566L37.9718 32.0232Z" fill="url(#paint0_radial_4447_29611)" stroke="#999270" stroke-width="0.0166668"/>
<path d="M38.0398 31.7984C38.0398 31.7984 37.7065 31.8567 37.6398 31.3317C37.5898 30.9567 37.8232 30.9067 37.8232 30.9067L38.5898 31.0401V31.7234L38.0398 31.7984Z" fill="url(#paint1_radial_4447_29611)" stroke="#999270" stroke-width="0.0166668"/>
<path d="M37.8242 30.9065C37.8242 30.9065 38.3159 30.8732 38.5742 30.8398L38.6826 31.3148L38.0909 31.3482C38.0909 31.3482 38.0492 30.9232 37.8242 30.9065Z" fill="url(#paint2_radial_4447_29611)" stroke="#999270" stroke-width="0.0166668"/>
<path d="M37.7227 30.5483C37.7227 30.5483 38.3477 30.39 38.431 31.09C38.4477 31.265 38.3477 31.6817 38.0393 31.7983L39.1977 31.6733L39.0893 30.4233L38.706 30.4567C38.706 30.4567 37.8727 30.4817 37.7227 30.54V30.5483Z" fill="url(#paint3_radial_4447_29611)" stroke="#999270" stroke-width="0.0166668"/>
<path d="M37.9727 32.0232C37.9727 32.0232 42.2977 31.7315 42.7394 31.7482C44.056 31.0315 42.7394 28.2065 41.631 26.6232C41.756 26.2648 39.1394 25.4648 37.9643 25.5398C37.806 25.5398 37.6643 25.5565 37.531 25.5648C36.8893 25.6315 36.881 26.4565 37.1393 26.9815C37.3893 27.4815 39.6644 31.5649 38.0727 32.0065L37.9727 32.0232Z" fill="#F9F0AA" stroke="#999270" stroke-width="0.0166668"/>
<path d="M42.606 28.2899C42.325 27.7097 41.999 27.1525 41.631 26.6232C41.756 26.2648 39.1394 25.4648 37.9643 25.5398C37.806 25.5398 37.6643 25.5565 37.531 25.5648C36.8893 25.6315 36.881 26.4565 37.1393 26.9815C37.2227 27.1315 37.4977 27.6482 37.7977 28.2899" fill="url(#paint4_linear_4447_29611)"/>
<path d="M42.606 28.2899C42.325 27.7097 41.999 27.1525 41.631 26.6232C41.756 26.2648 39.1394 25.4648 37.9643 25.5398C37.806 25.5398 37.6643 25.5565 37.531 25.5648C36.8893 25.6315 36.881 26.4565 37.1393 26.9815C37.2227 27.1315 37.4977 27.6482 37.7977 28.2899" stroke="#999270" stroke-width="0.0166668"/>
<path d="M38.206 29.265C38.6727 30.4816 38.931 31.765 38.0727 31.9983L37.9727 32.0233C37.9727 32.0233 42.306 31.7316 42.7393 31.7483C43.456 31.3566 43.3893 30.3483 43.006 29.2483" fill="url(#paint5_linear_4447_29611)"/>
<path d="M38.206 29.265C38.6727 30.4816 38.931 31.765 38.0727 31.9983L37.9727 32.0233C37.9727 32.0233 42.306 31.7316 42.7393 31.7483C43.456 31.3566 43.3893 30.3483 43.006 29.2483" stroke="#999270" stroke-width="0.0166668"/>
<path d="M37.5714 25.8066C37.2631 25.8066 37.1797 26.1066 37.1881 26.2899C37.1964 26.7899 37.5714 26.8066 37.5714 26.8066L38.0714 26.7816L38.3047 25.7649L37.5714 25.8066Z" fill="url(#paint6_radial_4447_29611)" stroke="#999270" stroke-width="0.0166668"/>
<path d="M37.5742 25.8066L38.3076 25.7649L38.3909 26.5232L37.7409 26.5566C37.7409 26.5566 37.9492 25.9482 37.5742 25.8066Z" fill="url(#paint7_linear_4447_29611)" stroke="#999270" stroke-width="0.0166668"/>
<path d="M41.6326 26.6233C42.1909 26.5399 42.1826 25.7899 41.7992 25.4816C40.5076 25.4399 38.8076 25.4733 37.5826 25.5649C37.7242 25.5649 38.1076 25.5983 38.1576 26.1066C38.1662 26.2168 38.1479 26.3275 38.1044 26.4291C38.0608 26.5307 37.9933 26.6202 37.9076 26.6899C37.7409 26.8066 37.5742 26.8066 37.5742 26.8066H37.8742L38.1242 26.7733C39.8742 26.5483 41.6242 26.6233 41.6242 26.6233H41.6326Z" fill="url(#paint8_linear_4447_29611)" stroke="#999270" stroke-width="0.0166668"/>
<path d="M38.4964 27.7982C38.4797 27.7732 38.4714 27.7398 38.4297 27.7315C38.413 27.7315 38.3797 27.7315 38.388 27.6982H38.4547L38.588 27.6815C38.6214 27.6898 38.613 27.7315 38.588 27.7232C38.5464 27.7232 38.5714 27.7648 38.5797 27.7898L38.688 28.0398C38.6964 28.0732 38.7214 28.0982 38.7464 28.0982L38.838 28.0898C38.863 28.0732 38.8547 28.0398 38.8547 28.0065C38.8464 27.9815 38.8964 27.9898 38.8964 28.0065L38.9297 28.1232C38.9297 28.1398 38.913 28.1315 38.8964 28.1315L38.6464 28.1482C38.6214 28.1482 38.5797 28.1732 38.563 28.1482C38.563 28.1148 38.613 28.1315 38.613 28.1065L38.588 28.0232L38.4964 27.7982ZM38.8964 27.7732C38.888 27.7482 38.8714 27.7148 38.838 27.7065C38.8214 27.7065 38.788 27.7065 38.788 27.6732H38.8464L38.988 27.6565C39.013 27.6565 39.0214 27.6982 38.988 27.6898C38.963 27.6898 38.963 27.7232 38.9714 27.7482L39.0964 28.0315C39.0964 28.0482 39.113 28.0732 39.138 28.0815C39.163 28.0815 39.1964 28.0815 39.1964 28.1065C39.1964 28.1232 39.163 28.1148 39.1464 28.1148C39.1014 28.1149 39.0566 28.1205 39.013 28.1315C38.9964 28.1315 38.9714 28.1315 38.9714 28.1065C38.9714 28.0815 39.013 28.1065 39.0214 28.0732C39.0214 28.0482 39.0047 28.0232 38.988 27.9898L38.8964 27.7732ZM39.2714 27.8315C39.2714 27.8482 39.3047 27.8315 39.313 27.8315C39.338 27.8315 39.363 27.8232 39.363 27.7982C39.3609 27.7783 39.3546 27.7592 39.3446 27.7419C39.3345 27.7247 39.3209 27.7098 39.3047 27.6982C39.2797 27.6732 39.238 27.6815 39.213 27.6815L39.2214 27.7232L39.2714 27.8315ZM39.3214 27.9648C39.338 27.9898 39.3464 28.0232 39.3714 28.0482C39.388 28.0648 39.4214 28.0565 39.438 28.0482C39.463 28.0482 39.4797 28.0232 39.4714 28.0065C39.463 27.9482 39.4297 27.8982 39.3714 27.8815C39.3439 27.8757 39.3155 27.8757 39.288 27.8815L39.3047 27.9232L39.3214 27.9648ZM39.1547 27.7648C39.138 27.7398 39.1297 27.7065 39.0964 27.6815C39.0797 27.6815 39.0464 27.6898 39.038 27.6648C39.038 27.6398 39.088 27.6565 39.1047 27.6482C39.1797 27.6482 39.2464 27.6232 39.3214 27.6482C39.3797 27.6648 39.438 27.7148 39.4464 27.7815C39.4464 27.8148 39.4214 27.8398 39.3964 27.8482L39.438 27.8565C39.488 27.8732 39.5297 27.9065 39.5547 27.9482C39.5714 27.9815 39.5797 28.0315 39.5547 28.0648C39.5214 28.0982 39.4714 28.0982 39.438 28.0982C39.3714 28.0982 39.313 28.0982 39.2464 28.1148C39.2297 28.1148 39.213 28.0732 39.2464 28.0732C39.2714 28.0732 39.2714 28.0398 39.263 28.0232L39.1547 27.7732V27.7648ZM39.7714 27.6065C39.7964 27.6065 39.8047 27.6315 39.813 27.6482L39.838 27.7232C39.813 27.7398 39.7964 27.7065 39.788 27.6898C39.7797 27.6732 39.7547 27.6482 39.7297 27.6565C39.6964 27.6541 39.663 27.6541 39.6297 27.6565C39.613 27.6732 39.6297 27.6898 39.638 27.7065L39.688 27.8148C39.7047 27.8148 39.738 27.8148 39.7547 27.7982C39.7547 27.7815 39.7297 27.7398 39.7714 27.7482C39.7964 27.7648 39.788 27.7982 39.8047 27.8232L39.8464 27.9148C39.8214 27.9398 39.8047 27.9065 39.7964 27.8815C39.7797 27.8565 39.738 27.8565 39.713 27.8565C39.6964 27.8565 39.713 27.8732 39.713 27.8815L39.763 28.0065C39.7797 28.0315 39.8214 28.0315 39.8464 28.0315C39.8797 28.0315 39.913 28.0315 39.9297 27.9982C39.9464 27.9815 39.9047 27.9398 39.9297 27.9315C39.963 27.9315 39.963 27.9648 39.9714 27.9815C39.9714 28.0065 39.988 28.0315 39.9964 28.0482C39.9964 28.0648 39.9714 28.0648 39.963 28.0648L39.713 28.0815C39.6797 28.0815 39.638 28.0982 39.6297 28.0648C39.6297 28.0398 39.6797 28.0565 39.6797 28.0148L39.6464 27.9315L39.5547 27.7148C39.538 27.6898 39.5214 27.6648 39.488 27.6565C39.4714 27.6565 39.438 27.6565 39.4547 27.6232H39.538L39.7714 27.6065ZM39.963 27.7148C39.9547 27.6898 39.938 27.6565 39.9047 27.6398C39.888 27.6398 39.8464 27.6398 39.8464 27.6065C39.8714 27.5898 39.9047 27.6065 39.9297 27.6065C39.9964 27.6065 40.063 27.5815 40.1297 27.6065C40.1964 27.6232 40.2547 27.6815 40.263 27.7565C40.263 27.7898 40.238 27.8148 40.2047 27.8232C40.1797 27.8232 40.2214 27.8315 40.2297 27.8398C40.288 27.8648 40.313 27.9148 40.3464 27.9648C40.3547 27.9815 40.388 28.0232 40.3964 27.9815C40.3964 27.9398 40.4547 27.9815 40.438 28.0065C40.438 28.0398 40.413 28.0565 40.3797 28.0565C40.3464 28.0565 40.3047 28.0398 40.288 28.0065C40.2547 27.9565 40.2297 27.8982 40.1797 27.8648C40.163 27.8482 40.138 27.8398 40.113 27.8565V27.8898L40.163 27.9898C40.1797 28.0148 40.213 28.0148 40.2464 28.0148C40.2714 28.0232 40.263 28.0648 40.2297 28.0565H40.088C40.063 28.0732 40.013 28.0565 40.0297 28.0315C40.0547 28.0315 40.088 28.0148 40.0714 27.9898L39.988 27.7732L39.963 27.7148ZM40.0797 27.7982C40.0964 27.8232 40.1297 27.7982 40.1547 27.7982C40.1797 27.7982 40.1797 27.7565 40.1714 27.7398C40.163 27.6982 40.138 27.6565 40.0964 27.6398C40.0797 27.6398 40.0297 27.6232 40.0214 27.6482L40.0797 27.7815V27.7898V27.7982ZM40.6797 27.9315C40.6964 27.9565 40.7047 27.9815 40.7297 27.9898C40.7464 27.9898 40.7797 27.9898 40.788 28.0148C40.788 28.0398 40.7547 28.0232 40.738 28.0315C40.6937 28.0264 40.649 28.0264 40.6047 28.0315C40.5797 28.0398 40.5547 28.0315 40.5547 28.0065C40.5714 27.9898 40.613 28.0065 40.613 27.9732L40.5714 27.8815L40.4797 27.6398C40.4714 27.6148 40.438 27.6148 40.4214 27.6148C40.3964 27.6148 40.363 27.6148 40.363 27.6482C40.363 27.6732 40.3797 27.7065 40.363 27.7148C40.338 27.7148 40.3297 27.6898 40.3214 27.6732L40.2964 27.5898C40.2964 27.5732 40.3214 27.5815 40.3297 27.5815L40.6797 27.5648C40.7047 27.5648 40.7214 27.5815 40.7214 27.6065C40.7214 27.6315 40.7464 27.6565 40.7547 27.6898C40.7464 27.7148 40.713 27.6898 40.713 27.6648C40.6964 27.6398 40.663 27.6148 40.6297 27.6065C40.613 27.6065 40.5797 27.6065 40.563 27.6232L40.5797 27.6815L40.6797 27.9315ZM40.9964 27.8565C40.9797 27.8565 40.988 27.8815 40.988 27.8898V27.9565C40.9964 27.9815 41.0297 27.9815 41.0547 27.9898C41.0714 27.9898 41.063 28.0315 41.038 28.0232H40.938C40.913 28.0315 40.8797 28.0148 40.8964 27.9898C40.913 27.9898 40.9297 27.9815 40.938 27.9648V27.5482C40.9547 27.5232 40.988 27.5482 40.988 27.5565L41.288 27.9398C41.3047 27.9565 41.3297 27.9732 41.3547 27.9732C41.3797 27.9732 41.388 28.0148 41.3547 28.0065H41.2297C41.213 28.0065 41.188 28.0232 41.1714 28.0065C41.1547 27.9982 41.1714 27.9732 41.188 27.9732C41.213 27.9732 41.188 27.9398 41.1797 27.9232L41.1297 27.8565H40.9964ZM41.088 27.8148C41.1047 27.8148 41.088 27.8065 41.088 27.7982L40.9797 27.6565V27.8232H41.088V27.8148ZM41.3464 27.6648C41.338 27.6315 41.3214 27.5815 41.2797 27.5815C41.2547 27.5815 41.2214 27.5648 41.238 27.5398H41.3797C41.438 27.5398 41.4964 27.5398 41.5464 27.5565C41.6103 27.5758 41.6676 27.6125 41.7118 27.6625C41.7559 27.7126 41.7852 27.774 41.7964 27.8398C41.7964 27.8898 41.7881 27.9482 41.7464 27.9732C41.6797 28.0148 41.6047 28.0065 41.538 27.9982L41.4214 28.0065C41.3964 28.0065 41.388 27.9648 41.4214 27.9732C41.4547 27.9732 41.4547 27.9315 41.438 27.9148L41.3464 27.6648ZM41.513 27.8732C41.5214 27.8982 41.5297 27.9315 41.5547 27.9565H41.6381C41.6797 27.9565 41.6964 27.9148 41.6964 27.8815C41.6951 27.8198 41.6778 27.7596 41.6464 27.7065C41.6314 27.6773 41.6102 27.6517 41.5843 27.6316C41.5584 27.6114 41.5284 27.5972 41.4964 27.5898H41.413C41.4047 27.5898 41.413 27.6065 41.413 27.6232L41.513 27.8732ZM39.7547 28.9065C39.7547 28.9315 39.788 28.9565 39.8214 28.9565C39.838 28.9565 39.8797 28.9565 39.8797 28.9899C39.863 29.0065 39.838 28.9899 39.813 28.9899C39.771 28.9917 39.7291 28.9973 39.688 29.0065H39.613C39.5964 29.0065 39.5964 28.9732 39.6214 28.9732C39.6464 28.9732 39.6714 28.9649 39.6797 28.9399C39.6797 28.9149 39.663 28.8899 39.6547 28.8732L39.5547 28.6399C39.5547 28.6149 39.5214 28.6149 39.4964 28.6149C39.4797 28.6149 39.4464 28.6232 39.438 28.5982C39.438 28.5732 39.4797 28.5815 39.4964 28.5649L39.5797 28.5398C39.5964 28.5398 39.6047 28.5482 39.613 28.5649L39.7547 28.8982V28.9065ZM39.813 28.5315H39.9797C40.013 28.5315 39.9964 28.4899 40.013 28.4899C40.0464 28.4899 40.0464 28.5315 40.0464 28.5482C40.048 28.5551 40.0478 28.5623 40.0458 28.5691C40.0439 28.5759 40.0402 28.5821 40.0352 28.5871C40.0302 28.5921 40.0241 28.5957 40.0173 28.5977C40.0105 28.5996 40.0033 28.5998 39.9964 28.5982H39.8714L39.913 28.6982L39.963 28.6815C40.0082 28.6804 40.0527 28.6924 40.0911 28.7161C40.1296 28.7397 40.1604 28.774 40.1797 28.8149C40.1964 28.8482 40.2047 28.8982 40.1797 28.9399C40.1464 28.9815 40.0964 28.9899 40.0464 28.9899C40.0047 28.9899 39.963 28.9815 39.9297 28.9399C39.9214 28.9232 39.9214 28.8815 39.9464 28.8899C39.9797 28.8899 40.0047 28.9065 40.0047 28.9399C40.013 28.9565 40.0464 28.9482 40.063 28.9482C40.088 28.9482 40.113 28.9315 40.113 28.8982C40.113 28.8649 40.0964 28.8149 40.0714 28.7899C40.0547 28.7565 40.013 28.7315 39.9714 28.7315L39.8964 28.7399C39.8714 28.7399 39.8714 28.7149 39.863 28.6982C39.8414 28.6463 39.8219 28.5934 39.8047 28.5398C39.8047 28.5398 39.813 28.5232 39.8214 28.5315H39.813ZM40.388 28.6149C40.3714 28.5815 40.3547 28.5399 40.313 28.5315C40.2964 28.5315 40.2547 28.5148 40.2797 28.4982H40.413C40.4705 28.4798 40.5326 28.4827 40.588 28.5065C40.652 28.5258 40.7093 28.5625 40.7534 28.6126C40.7976 28.6626 40.8269 28.724 40.838 28.7899C40.838 28.8399 40.8297 28.8899 40.7797 28.9149C40.7214 28.9565 40.6464 28.9482 40.5797 28.9482L40.4714 28.9649C40.4464 28.9649 40.438 28.9232 40.4714 28.9232C40.5047 28.9232 40.4964 28.8899 40.488 28.8649L40.388 28.6149ZM40.5547 28.8149C40.5714 28.8482 40.5797 28.8815 40.6047 28.8982C40.6297 28.9149 40.6547 28.9065 40.688 28.8982C40.7214 28.8982 40.738 28.8565 40.738 28.8232C40.7354 28.7605 40.7152 28.6999 40.6797 28.6482C40.6643 28.6202 40.6428 28.5959 40.6169 28.5772C40.5909 28.5585 40.5612 28.5457 40.5297 28.5398C40.5021 28.5352 40.474 28.5352 40.4464 28.5398V28.5649L40.5547 28.8149ZM41.088 28.4649C41.113 28.4649 41.1214 28.4899 41.1297 28.5065C41.1297 28.5315 41.1464 28.5482 41.1547 28.5732C41.138 28.5982 41.113 28.5732 41.1047 28.5482C41.0964 28.5315 41.0797 28.5065 41.0547 28.5065C41.0186 28.5041 40.9824 28.5041 40.9464 28.5065C40.9297 28.5232 40.9464 28.5482 40.9464 28.5565L40.9964 28.6732C41.0214 28.6732 41.0464 28.6732 41.063 28.6565C41.0797 28.6399 41.0464 28.5982 41.0797 28.6065C41.113 28.6065 41.1047 28.6482 41.113 28.6732L41.1547 28.7649C41.1464 28.7982 41.113 28.7649 41.1047 28.7399C41.0964 28.7149 41.063 28.7149 41.038 28.7149C41.0214 28.7149 41.0047 28.7149 41.0214 28.7315L41.0714 28.8565C41.088 28.8899 41.1297 28.8815 41.1547 28.8815C41.188 28.8815 41.2214 28.8815 41.238 28.8565C41.2547 28.8399 41.2214 28.8065 41.238 28.7899C41.2714 28.7899 41.2797 28.8149 41.2797 28.8315L41.3047 28.9149C41.3047 28.9232 41.2797 28.9149 41.2714 28.9149L41.013 28.9315C40.988 28.9315 40.9547 28.9482 40.938 28.9315C40.9214 28.8899 40.9797 28.9065 40.988 28.8815L40.963 28.8065L40.8714 28.5649C40.8547 28.5399 40.838 28.5149 40.8047 28.5065C40.788 28.5065 40.7547 28.5065 40.7714 28.4732H40.8547L41.088 28.4649ZM38.8214 29.6565C38.8297 29.6982 38.8714 29.7149 38.9047 29.7232C38.9714 29.7399 39.0464 29.7649 39.088 29.8149C39.113 29.8482 39.1297 29.8899 39.1297 29.9315C39.1297 29.9732 39.088 30.0065 39.0464 30.0149C38.9996 30.0287 38.9495 30.0258 38.9047 30.0065C38.888 29.9982 38.8964 30.0399 38.8714 30.0232C38.8464 30.0149 38.8547 29.9815 38.838 29.9565C38.8313 29.9283 38.823 29.9005 38.813 29.8732C38.813 29.8482 38.8464 29.8732 38.8547 29.8899C38.8797 29.9399 38.9297 29.9732 38.988 29.9815C39.0214 29.9815 39.0547 29.9649 39.0547 29.9315C39.0547 29.8899 39.0214 29.8482 38.988 29.8315C38.9297 29.8065 38.8714 29.7982 38.8214 29.7649C38.7976 29.7512 38.7775 29.7319 38.763 29.7086C38.7485 29.6854 38.7399 29.6589 38.738 29.6315C38.738 29.5982 38.7714 29.5649 38.8047 29.5565C38.848 29.5425 38.8947 29.5425 38.938 29.5565C38.9547 29.5565 38.963 29.5315 38.988 29.5482C38.988 29.5649 38.988 29.5815 39.0047 29.5982L39.0297 29.6732C39.013 29.6899 38.988 29.6732 38.988 29.6565C38.963 29.6232 38.938 29.5899 38.9047 29.5899C38.8714 29.5899 38.838 29.5899 38.8214 29.6149V29.6565ZM39.3714 29.5149C39.4047 29.5149 39.4047 29.5399 39.413 29.5565C39.413 29.5815 39.4297 29.6065 39.438 29.6232C39.4214 29.6482 39.3964 29.6232 39.388 29.6065C39.3797 29.5899 39.363 29.5649 39.3297 29.5649H39.2297C39.213 29.5815 39.2297 29.5982 39.2297 29.6149L39.2714 29.7315C39.2964 29.7315 39.3214 29.7315 39.338 29.7149C39.3547 29.6982 39.3214 29.6649 39.3464 29.6565C39.3797 29.6565 39.3797 29.6899 39.388 29.7149C39.388 29.7482 39.413 29.7815 39.4297 29.8232C39.413 29.8482 39.3797 29.8232 39.3797 29.7982C39.3714 29.7732 39.338 29.7649 39.313 29.7732C39.2964 29.7732 39.2797 29.7732 39.288 29.7899L39.338 29.9149C39.3464 29.9399 39.3714 29.9399 39.3964 29.9399C39.4297 29.9399 39.4714 29.9399 39.4964 29.9149C39.513 29.8982 39.4964 29.8649 39.4964 29.8482C39.5214 29.8315 39.5464 29.8482 39.5464 29.8732L39.563 29.9565C39.563 29.9732 39.538 29.9732 39.5297 29.9732L39.2797 29.9899C39.2464 29.9899 39.213 30.0149 39.1964 29.9899C39.1964 29.9565 39.238 29.9649 39.2464 29.9399C39.2464 29.9149 39.2464 29.8982 39.2297 29.8732L39.1464 29.6232C39.1464 29.5982 39.1214 29.5732 39.088 29.5732C39.0714 29.5732 39.038 29.5565 39.0547 29.5399H39.138L39.3714 29.5149ZM39.7214 29.8649C39.7297 29.8899 39.7464 29.9149 39.7714 29.9232C39.7964 29.9232 39.8297 29.9149 39.838 29.9399C39.838 29.9732 39.7964 29.9565 39.7797 29.9565C39.7351 29.9536 39.6903 29.9564 39.6464 29.9649C39.6297 29.9649 39.6047 29.9815 39.5964 29.9565C39.5964 29.9232 39.638 29.9399 39.6464 29.9232L39.638 29.8565L39.5547 29.6065C39.538 29.5815 39.5297 29.5482 39.4964 29.5482C39.4797 29.5482 39.4464 29.5482 39.4547 29.5149C39.463 29.4982 39.4964 29.5149 39.513 29.5149C39.5714 29.5149 39.6297 29.4899 39.6964 29.4982C39.7269 29.5003 39.7562 29.5107 39.7812 29.5283C39.8062 29.546 39.8259 29.5701 39.838 29.5982C39.8547 29.6315 39.8547 29.6815 39.838 29.7065C39.7964 29.7399 39.7464 29.7482 39.6964 29.7565C39.6797 29.7565 39.6964 29.7732 39.6964 29.7815L39.7214 29.8649ZM39.6797 29.7149H39.7297C39.7547 29.7065 39.7714 29.6815 39.763 29.6565C39.7595 29.6198 39.745 29.5849 39.7214 29.5565C39.6964 29.5315 39.6547 29.5315 39.6297 29.5399C39.613 29.5482 39.6297 29.5649 39.6297 29.5815L39.6714 29.7149H39.6797ZM40.188 29.8399C40.188 29.8565 40.2047 29.8899 40.2297 29.8899C40.2464 29.8899 40.288 29.8899 40.288 29.9149C40.288 29.9399 40.2464 29.9315 40.2297 29.9315C40.1851 29.9292 40.1404 29.932 40.0964 29.9399C40.0797 29.9399 40.0547 29.9399 40.0547 29.9149C40.0714 29.8982 40.113 29.9149 40.113 29.8815L40.088 29.7815L40.0047 29.5399C40.0047 29.5149 39.9714 29.5149 39.9464 29.5232C39.9297 29.5232 39.8964 29.5232 39.888 29.5482V29.6149C39.8714 29.6315 39.8547 29.6149 39.8547 29.5899C39.8459 29.5612 39.8347 29.5333 39.8214 29.5065C39.8214 29.4815 39.8464 29.4815 39.863 29.4815L40.2047 29.4649C40.2297 29.4649 40.2464 29.4815 40.2464 29.5065L40.2797 29.5899C40.2714 29.6065 40.238 29.5899 40.238 29.5732C40.2214 29.5482 40.1964 29.5149 40.1547 29.5065C40.138 29.5065 40.113 29.5065 40.088 29.5232L40.1047 29.5732L40.188 29.8399ZM40.363 29.5649C40.3547 29.5399 40.3464 29.5065 40.313 29.4982C40.2964 29.4982 40.263 29.4982 40.263 29.4649C40.2714 29.4482 40.2964 29.4649 40.313 29.4649L40.463 29.4482C40.488 29.4399 40.5047 29.4815 40.4797 29.4815C40.4547 29.4815 40.4297 29.4982 40.438 29.5232L40.4797 29.6565L40.538 29.8399C40.538 29.8565 40.563 29.8732 40.5797 29.8732C40.6047 29.8732 40.638 29.8732 40.6297 29.9065H40.5714L40.438 29.9232C40.4214 29.9232 40.3964 29.9065 40.4047 29.8899C40.4214 29.8815 40.4547 29.8899 40.4547 29.8565L40.4297 29.7565L40.363 29.5649ZM40.8464 29.4315C40.8714 29.4315 40.8714 29.4565 40.8797 29.4732L40.8964 29.5399C40.888 29.5649 40.8547 29.5399 40.8547 29.5232C40.8464 29.4982 40.8297 29.4732 40.7964 29.4732C40.7631 29.4711 40.7297 29.4711 40.6964 29.4732C40.6797 29.4899 40.6964 29.5149 40.6964 29.5232L40.738 29.6399C40.7547 29.6399 40.7797 29.6399 40.8047 29.6232C40.8214 29.6065 40.788 29.5732 40.813 29.5649C40.8464 29.5649 40.8464 29.6065 40.8464 29.6232L40.888 29.7315C40.8797 29.7565 40.8464 29.7315 40.8464 29.7149C40.838 29.6899 40.8047 29.6815 40.7797 29.6815C40.7714 29.6815 40.738 29.6815 40.7547 29.6982L40.7964 29.8232C40.8047 29.8482 40.8297 29.8565 40.8547 29.8482C40.888 29.8482 40.9297 29.8482 40.9547 29.8315C40.9714 29.8149 40.9547 29.7815 40.963 29.7565C40.988 29.7399 41.0047 29.7649 41.0047 29.7899C41.0115 29.8181 41.0198 29.8459 41.0297 29.8732C41.0297 29.8899 41.0047 29.8899 40.988 29.8899L40.738 29.8982C40.713 29.8982 40.6797 29.9149 40.6547 29.8982C40.6464 29.8649 40.6964 29.8732 40.7047 29.8565C40.708 29.8454 40.709 29.8338 40.7076 29.8223C40.7061 29.8108 40.7023 29.7998 40.6964 29.7899L40.613 29.5399C40.613 29.5149 40.588 29.4815 40.5547 29.4815C40.538 29.4815 40.5047 29.4649 40.5214 29.4482H40.6047L40.8464 29.4315ZM41.013 29.5149C41.0047 29.4815 40.9797 29.4565 40.9464 29.4565C40.9214 29.4649 40.9047 29.4065 40.9464 29.4232H41.0714L41.1297 29.4982L41.3047 29.7399V29.7149L41.338 29.4149C41.3547 29.3982 41.3964 29.4149 41.4214 29.3982C41.4464 29.3982 41.5047 29.3982 41.488 29.4315C41.4547 29.4315 41.4214 29.4482 41.438 29.4815L41.538 29.7815C41.538 29.8149 41.5714 29.8315 41.6047 29.8232C41.6297 29.8232 41.6297 29.8732 41.6047 29.8649H41.4547C41.4297 29.8732 41.388 29.8732 41.4047 29.8399C41.4297 29.8399 41.4714 29.8232 41.4464 29.7899L41.363 29.5232C41.3714 29.5315 41.363 29.5482 41.363 29.5565L41.3464 29.8065L41.338 29.8732C41.313 29.8815 41.3047 29.8649 41.2964 29.8482L41.0547 29.5399L41.0714 29.5649C41.0964 29.6482 41.113 29.7315 41.1464 29.8065C41.1464 29.8399 41.188 29.8482 41.213 29.8482C41.2464 29.8649 41.2214 29.8899 41.1964 29.8815H41.0714C41.0464 29.8815 41.0464 29.8482 41.0714 29.8482C41.113 29.8482 41.1047 29.8065 41.088 29.7815L41.0047 29.5065L41.013 29.5149ZM41.738 29.5815C41.738 29.5982 41.7714 29.5815 41.7797 29.5815C41.8047 29.5815 41.8381 29.5815 41.8381 29.5482C41.8381 29.5065 41.8214 29.4649 41.7964 29.4482C41.7631 29.4232 41.7297 29.4315 41.6964 29.4315L41.7047 29.4732L41.738 29.5815ZM41.7797 29.7149L41.813 29.7982C41.838 29.8149 41.8631 29.8065 41.8881 29.8065C41.9047 29.8065 41.9297 29.7899 41.9214 29.7649C41.9214 29.7149 41.8964 29.6565 41.8464 29.6399C41.8189 29.634 41.7905 29.634 41.7631 29.6399V29.6649L41.7797 29.7149ZM41.6214 29.5149C41.613 29.4815 41.6047 29.4482 41.5714 29.4315C41.5547 29.4315 41.5214 29.4315 41.5214 29.4065C41.5214 29.3815 41.563 29.4065 41.5797 29.3982C41.663 29.3982 41.7297 29.3732 41.8047 29.3982C41.8631 29.4149 41.9131 29.4732 41.9131 29.5315C41.9131 29.5649 41.888 29.5899 41.8547 29.6065C41.8547 29.5899 41.888 29.6065 41.8964 29.6065C41.9381 29.6232 41.9797 29.6565 41.9964 29.6982C42.0131 29.7399 42.0214 29.7815 41.9964 29.8149C41.9631 29.8482 41.9131 29.8482 41.8714 29.8482L41.6797 29.8565C41.6547 29.8565 41.6464 29.8149 41.6797 29.8232C41.7047 29.8232 41.713 29.7899 41.6964 29.7649L41.6214 29.5149ZM42.0381 29.4982C42.0381 29.4732 42.0214 29.4315 41.9881 29.4149C41.9714 29.4149 41.9381 29.4149 41.9381 29.3899C41.9547 29.3649 41.9881 29.3899 42.0214 29.3815H42.1881C42.2547 29.3815 42.3131 29.4315 42.3297 29.4982C42.3464 29.5315 42.3297 29.5815 42.3047 29.5982L42.2631 29.6149C42.3131 29.6315 42.3547 29.6732 42.3797 29.7149L42.4214 29.7815C42.4464 29.7982 42.4464 29.7732 42.4464 29.7565C42.4797 29.7399 42.4964 29.7815 42.4797 29.8065C42.4714 29.8399 42.4214 29.8482 42.3964 29.8399C42.3631 29.8399 42.3464 29.8149 42.3297 29.7899L42.2464 29.6482C42.2365 29.6389 42.2244 29.6325 42.2112 29.6295C42.198 29.6266 42.1842 29.6273 42.1714 29.6315V29.6732L42.2131 29.7649C42.2214 29.7982 42.2547 29.7982 42.2797 29.8065C42.3131 29.8065 42.3131 29.8482 42.2797 29.8399H42.1297C42.1131 29.8399 42.0797 29.8565 42.0714 29.8399C42.0547 29.7982 42.1047 29.8149 42.1214 29.7899L42.1047 29.7232L42.0381 29.4982ZM42.1464 29.5815C42.1547 29.5982 42.1964 29.5815 42.2131 29.5815C42.2381 29.5815 42.2547 29.5565 42.2464 29.5399C42.2464 29.4982 42.2297 29.4565 42.2047 29.4315C42.1797 29.4149 42.1464 29.4149 42.1214 29.4232C42.1047 29.4232 42.1131 29.4482 42.1214 29.4649L42.1464 29.5732V29.5815ZM42.7297 29.3649C42.7464 29.3649 42.7547 29.3899 42.7547 29.4065C42.7547 29.4315 42.7714 29.4482 42.7797 29.4732C42.7631 29.4982 42.7381 29.4732 42.7381 29.4565C42.7214 29.4399 42.7131 29.4065 42.6797 29.4065C42.6437 29.404 42.6075 29.404 42.5714 29.4065C42.5547 29.4149 42.5714 29.4399 42.5714 29.4565L42.6047 29.5649H42.6714C42.6964 29.5482 42.6631 29.5065 42.6881 29.4982C42.7214 29.4982 42.7214 29.5315 42.7214 29.5565C42.7214 29.5899 42.7464 29.6315 42.7547 29.6649C42.7464 29.6899 42.7131 29.6649 42.7131 29.6482C42.7131 29.6232 42.6797 29.6065 42.6547 29.6149C42.6464 29.6149 42.6131 29.5982 42.6214 29.6149L42.6631 29.7565C42.6631 29.7815 42.6964 29.7815 42.7214 29.7815C42.7547 29.7815 42.7964 29.7815 42.8214 29.7649C42.8464 29.7482 42.8214 29.7149 42.8297 29.6982C42.8547 29.6815 42.8797 29.6982 42.8714 29.7232L42.8881 29.8065C42.8881 29.8232 42.8631 29.8232 42.8547 29.8232H42.5964C42.5714 29.8232 42.5464 29.8399 42.5297 29.8232C42.5047 29.7899 42.5547 29.7982 42.5631 29.7815C42.5797 29.7649 42.5631 29.7399 42.5631 29.7232L42.4881 29.4649C42.4881 29.4399 42.4631 29.4065 42.4381 29.4065C42.4131 29.4065 42.3881 29.3982 42.3964 29.3732H42.4797L42.7297 29.3649ZM39.988 30.4565C39.9797 30.4232 39.9714 30.3899 39.938 30.3732C39.913 30.3732 39.8797 30.3732 39.8964 30.3482C39.9214 30.3315 39.9464 30.3482 39.9797 30.3399C40.0464 30.3399 40.113 30.3232 40.1797 30.3399C40.2294 30.3502 40.2755 30.3733 40.3135 30.4069C40.3515 30.4406 40.38 30.4835 40.3964 30.5315C40.413 30.5982 40.4214 30.6649 40.3797 30.7232C40.338 30.7732 40.263 30.7899 40.1964 30.7899C40.138 30.7899 40.088 30.7899 40.038 30.8065C40.0214 30.8149 39.988 30.7982 40.0047 30.7732C40.0297 30.7732 40.063 30.7565 40.0547 30.7315L40.0214 30.6065L39.988 30.4565ZM40.1214 30.6649C40.1297 30.6899 40.138 30.7232 40.1547 30.7399C40.1797 30.7565 40.213 30.7482 40.238 30.7399C40.2714 30.7399 40.3047 30.7065 40.313 30.6649C40.3196 30.6018 40.308 30.5382 40.2797 30.4815C40.2689 30.4557 40.2518 30.433 40.23 30.4155C40.2082 30.3981 40.1823 30.3864 40.1547 30.3815C40.1244 30.3759 40.0933 30.3759 40.063 30.3815C40.0547 30.3815 40.063 30.3982 40.063 30.4149L40.1214 30.6649ZM40.713 30.2899C40.738 30.2899 40.738 30.3149 40.7464 30.3315L40.763 30.4065C40.7547 30.4232 40.7214 30.4065 40.7214 30.3899C40.713 30.3649 40.6964 30.3399 40.6714 30.3399C40.6353 30.3373 40.5991 30.3373 40.563 30.3399C40.5464 30.3482 40.563 30.3732 40.563 30.3899C40.563 30.4315 40.5797 30.4732 40.588 30.5065C40.613 30.5065 40.638 30.5065 40.6547 30.4899C40.6714 30.4732 40.6464 30.4399 40.6714 30.4315C40.7047 30.4315 40.6964 30.4732 40.7047 30.4899C40.7047 30.5232 40.7297 30.5565 40.7297 30.5982C40.7297 30.6232 40.688 30.5982 40.688 30.5815C40.688 30.5482 40.6547 30.5399 40.6297 30.5482C40.6214 30.5482 40.588 30.5399 40.6047 30.5565C40.6047 30.5982 40.6214 30.6399 40.638 30.6899C40.638 30.7149 40.6714 30.7149 40.6964 30.7149C40.7297 30.7149 40.7714 30.7149 40.7964 30.6899C40.813 30.6732 40.7964 30.6399 40.813 30.6232C40.838 30.6065 40.8464 30.6315 40.8464 30.6565C40.8464 30.6815 40.8464 30.7065 40.863 30.7399L40.8214 30.7482L40.5714 30.7649C40.5464 30.7649 40.5214 30.7815 40.4964 30.7649C40.4797 30.7482 40.5047 30.7315 40.5297 30.7315C40.5547 30.7232 40.5464 30.6899 40.5464 30.6732L40.4797 30.4065C40.4714 30.3815 40.4547 30.3482 40.4297 30.3482C40.4047 30.3482 40.3797 30.3399 40.388 30.3149L40.4714 30.3065L40.713 30.2899ZM41.2547 30.6315C41.2547 30.6565 41.2797 30.6815 41.3047 30.6815C41.3214 30.6899 41.3547 30.6815 41.363 30.7065C41.3714 30.7315 41.3297 30.7232 41.313 30.7232L41.1714 30.7315C41.1464 30.7315 41.1214 30.7399 41.1047 30.7315C41.0797 30.7315 41.088 30.6982 41.113 30.6982C41.138 30.6982 41.163 30.6899 41.1714 30.6649L41.163 30.5982L41.1047 30.3649C41.1047 30.3399 41.0714 30.3399 41.0547 30.3399C41.038 30.3399 41.0047 30.3565 40.9964 30.3315C40.9964 30.2982 41.038 30.3065 41.0547 30.2982L41.1464 30.2649C41.163 30.2649 41.1714 30.2732 41.1714 30.2899L41.2547 30.6315ZM41.563 30.3565C41.563 30.3232 41.538 30.2899 41.5047 30.2899C41.4797 30.2899 41.4464 30.2899 41.438 30.3149C41.4351 30.3305 41.4366 30.3466 41.4425 30.3614C41.4484 30.3762 41.4585 30.3889 41.4714 30.3982L41.5464 30.4399L41.563 30.3899C41.5646 30.3788 41.5646 30.3676 41.563 30.3565ZM41.6297 30.6065C41.6297 30.5565 41.588 30.5315 41.5464 30.5232C41.5297 30.5232 41.513 30.4982 41.5047 30.5065C41.4918 30.5158 41.4818 30.5286 41.4759 30.5433C41.47 30.5581 41.4684 30.5742 41.4714 30.5899C41.488 30.6399 41.513 30.6732 41.5547 30.6732C41.5881 30.6815 41.6214 30.6732 41.6381 30.6399C41.6416 30.6262 41.6416 30.6119 41.6381 30.5982L41.6297 30.6065ZM41.7131 30.5815C41.7175 30.6026 41.715 30.6245 41.706 30.644C41.697 30.6635 41.6819 30.6796 41.663 30.6899C41.6381 30.7045 41.6103 30.7136 41.5815 30.7165C41.5528 30.7194 41.5237 30.716 41.4964 30.7065C41.4714 30.6994 41.4488 30.6855 41.4312 30.6664C41.4135 30.6473 41.4015 30.6237 41.3964 30.5982C41.3964 30.5649 41.4047 30.5149 41.4464 30.4899C41.4464 30.4899 41.4797 30.4815 41.4547 30.4732C41.413 30.4565 41.3714 30.4232 41.3714 30.3732C41.3547 30.3315 41.3714 30.2899 41.413 30.2649C41.4499 30.2459 41.4926 30.2413 41.5327 30.2521C41.5727 30.2629 41.6073 30.2882 41.6297 30.3232C41.6464 30.3565 41.6464 30.3982 41.6297 30.4232L41.5797 30.4649C41.6214 30.4649 41.6631 30.4982 41.6797 30.5315C41.6964 30.5399 41.7047 30.5649 41.7047 30.5815H41.7131ZM41.9797 30.6232C41.9964 30.6232 42.0214 30.6232 42.0214 30.5899C42.0297 30.5815 42.0214 30.5399 42.0464 30.5482C42.0714 30.5482 42.0631 30.5732 42.0714 30.5982C42.0714 30.6315 42.0714 30.6649 42.0381 30.6899C42.0214 30.7065 41.9964 30.6982 41.9714 30.6982H41.8297C41.8131 30.6982 41.788 30.7149 41.7714 30.6982C41.7547 30.6815 41.7714 30.6565 41.7714 30.6399C41.788 30.5815 41.8214 30.5399 41.8547 30.5065C41.888 30.4815 41.9214 30.4565 41.9297 30.4149C41.9322 30.3797 41.9234 30.3447 41.9047 30.3149C41.8988 30.3055 41.891 30.2973 41.8819 30.2909C41.8728 30.2846 41.8625 30.2801 41.8517 30.2778C41.8408 30.2754 41.8296 30.2753 41.8186 30.2774C41.8077 30.2795 41.7973 30.2837 41.7881 30.2899C41.7631 30.2982 41.7547 30.3315 41.7631 30.3482C41.7797 30.3649 41.8131 30.3482 41.8214 30.3815C41.8381 30.3982 41.8214 30.4315 41.7964 30.4315C41.7631 30.4315 41.7297 30.4065 41.7131 30.3732C41.7066 30.351 41.708 30.3272 41.7172 30.3059C41.7263 30.2846 41.7425 30.2672 41.7631 30.2565C41.8047 30.2315 41.8547 30.2315 41.9047 30.2399C41.9464 30.2565 41.9881 30.2899 42.0047 30.3399C42.0131 30.3732 42.0131 30.4149 41.9964 30.4482C41.9631 30.5065 41.9047 30.5315 41.8547 30.5899C41.8464 30.5982 41.8381 30.6149 41.8464 30.6399C41.8464 30.6149 41.8797 30.6232 41.8881 30.6232H41.9714H41.9797ZM42.3131 30.5899C42.3131 30.6149 42.3297 30.6399 42.3547 30.6482C42.3714 30.6482 42.4047 30.6482 42.4131 30.6649C42.4214 30.6899 42.3881 30.6899 42.3714 30.6899H42.1464C42.1297 30.6815 42.1464 30.6482 42.1631 30.6565C42.1881 30.6565 42.2131 30.6482 42.2214 30.6232V30.5565L42.1631 30.3232C42.1631 30.2982 42.1381 30.2982 42.1214 30.2982C42.0964 30.2982 42.0714 30.3149 42.0631 30.2982C42.0464 30.2565 42.0881 30.2649 42.1047 30.2565L42.2047 30.2232C42.2214 30.2232 42.2297 30.2315 42.2381 30.2482L42.3047 30.5899H42.3131Z" fill="#B07E09"/>
<path d="M39.94 23.7983L39.6233 24.1817C39.5233 24.615 39.7733 24.9483 40.265 25.2317C40.6567 25.4817 41.39 25.54 41.6233 25.34L40.4817 24.2567L39.94 23.8067V23.7983Z" fill="url(#paint9_radial_4447_29611)" stroke="#4C0505" stroke-width="0.0166668"/>
<path d="M42.255 35.04C42.1998 34.9702 42.1442 34.9008 42.0883 34.8316C41.3646 35.8152 40.4345 36.6287 39.3633 37.215C40.6216 36.8566 41.4466 35.9483 42.255 35.04ZM40.955 38.015C41.4241 37.0977 41.9301 36.1998 42.4716 35.3233C42.4138 35.2479 42.3554 35.1729 42.2966 35.0983C41.6883 36.115 40.9633 37.3233 40.9633 38.015H40.955ZM44.455 28.4733C44.3759 28.1 44.2557 27.7367 44.0966 27.3899C43.2034 25.8835 41.949 24.6233 40.4466 23.7232V23.6982H40.4716L40.455 23.6899H40.4966L40.48 23.6649H40.5133L40.4883 23.6316H40.5216L40.4966 23.6066H40.5383L40.5133 23.5732H40.5466L40.5133 23.5482L40.5633 23.5399L40.5216 23.5149L40.5633 23.5066L40.53 23.4816L40.58 23.4649L40.5383 23.4399L40.5883 23.4149L40.5383 23.3816L40.5966 23.3649L40.5383 23.3399L40.5883 23.3066H40.5216L40.5633 23.2482H40.505L40.53 23.2066H40.48L40.505 23.1649L40.4466 23.1732L40.4716 23.1232L40.4216 23.1566L40.4383 23.0982L40.38 23.1316L40.3883 23.0732L40.3466 23.1149V23.0566L40.305 23.0982V23.0399L40.2633 23.0899V23.0316L40.23 23.0816L40.2133 23.0232L40.1883 23.0732L40.1716 23.0149L40.1466 23.0816L40.13 23.0149L40.105 23.0816L40.0883 23.0232L40.0716 23.0732L40.0633 23.0316L40.0383 23.0899L40.0216 23.0316L40.005 23.0982L39.98 23.0399L39.9633 23.1066L39.9383 23.0482V23.1149L39.905 23.0649V23.1316L39.8633 23.0816V23.1399L39.83 23.1149L39.8466 23.1732L39.805 23.1482L39.8216 23.2066L39.7883 23.1816L39.7966 23.2316H39.7633L39.78 23.2649H39.755L39.7716 23.2982C39.7414 23.3923 39.7301 23.4914 39.7383 23.5899C39.7383 23.6066 39.7883 23.6232 39.7966 23.6399C39.8216 23.6732 39.8133 23.6899 39.8133 23.6899C39.6799 23.9066 39.5633 24.0732 39.555 24.3232C39.655 24.1899 39.7716 24.0232 39.9216 24.0232C39.8466 24.1482 39.8133 24.5316 39.8966 24.5982L39.9633 24.4816C39.9633 24.5649 39.9716 24.6316 39.9966 24.6732L40.08 24.5316C40.08 24.6566 40.0966 24.7566 40.13 24.8066C40.1655 24.7541 40.2108 24.7088 40.2633 24.6732C40.2466 24.7482 40.2216 24.8149 40.23 24.8982L40.3966 24.6899C40.3633 24.8232 40.3966 24.9232 40.43 25.0649C40.4633 24.8982 40.48 24.8732 40.555 24.8066C40.5633 24.9649 40.5383 25.1066 40.5716 25.1982C40.6383 25.0566 40.6883 25.0732 40.7383 24.9816C40.7216 25.1149 40.6966 25.2566 40.7383 25.3732C40.7625 25.284 40.8189 25.2068 40.8966 25.1566C40.8966 25.3399 40.9383 25.3066 40.83 25.4649C40.88 25.4816 41.0383 25.4316 41.13 25.3899C41.0883 25.4899 41.0966 25.5649 41.055 25.6399C41.1383 25.5899 41.2216 25.5149 41.2966 25.4399C41.2633 25.5566 41.1716 25.6732 41.2133 25.7816C41.2383 25.6732 41.3216 25.5899 41.405 25.5732C41.3883 25.6316 41.38 25.7566 41.2966 25.8149C41.4966 25.8316 41.58 25.6982 41.68 25.5899C41.6716 25.7066 41.68 25.7899 41.8133 25.9482C41.7883 25.7482 41.83 25.7899 41.9216 25.6732C41.9716 25.8482 42.0216 26.0399 42.205 26.1732C42.1216 25.9816 42.1216 25.8816 42.155 25.7649C42.18 25.8899 42.2966 26.0399 42.3216 26.1566C42.3466 26.0232 42.3633 25.8982 42.405 25.8149C42.466 25.9641 42.5053 26.1212 42.5216 26.2816C42.5633 26.1982 42.5966 26.1149 42.6133 26.0232C44.2633 27.7399 44.63 29.9233 42.83 32.2316C43.4716 31.7983 43.6383 31.1066 43.9966 30.5149C43.6466 31.2899 43.4966 32.1566 42.8716 32.7983C43.4716 32.2816 43.5966 31.8066 43.955 31.3066C43.58 32.3483 43.0383 33.4899 42.305 34.5399C42.439 34.6837 42.5724 34.8282 42.705 34.9733L43.0383 34.3983C43.8216 33.1149 45.0966 31.2733 44.455 28.4733Z" fill="#448127" stroke="#34541F" stroke-width="0.0166668"/>
<path d="M39.7219 23.4566C39.6385 23.4733 39.6052 23.5066 39.5469 23.5733C39.6219 23.5899 39.6802 23.5983 39.7552 23.5983C39.7719 23.5983 39.7802 23.5733 39.7802 23.5483L39.7635 23.4649C39.7635 23.4483 39.7135 23.4566 39.6969 23.4649L39.7219 23.4566Z" fill="#EAC102" stroke="#A08307" stroke-width="0.0166668"/>
<path d="M39.5391 23.5732C39.5664 23.5634 39.5942 23.555 39.6224 23.5482C39.6554 23.5405 39.6888 23.535 39.7224 23.5315C39.6951 23.5413 39.6673 23.5496 39.6391 23.5565C39.6061 23.5641 39.5727 23.5696 39.5391 23.5732Z" fill="#A08307"/>
<path d="M40.0979 23.5315C40.1347 23.5315 40.1646 23.5017 40.1646 23.4649C40.1646 23.428 40.1347 23.3982 40.0979 23.3982C40.0611 23.3982 40.0312 23.428 40.0312 23.4649C40.0312 23.5017 40.0611 23.5315 40.0979 23.5315Z" fill="black" stroke="black" stroke-width="0.00833338"/>
<path d="M40.1148 23.4816C40.1287 23.4816 40.1398 23.4704 40.1398 23.4566C40.1398 23.4428 40.1287 23.4316 40.1148 23.4316C40.101 23.4316 40.0898 23.4428 40.0898 23.4566C40.0898 23.4704 40.101 23.4816 40.1148 23.4816Z" fill="url(#paint10_radial_4447_29611)"/>
<path d="M40.9734 37.9897C41.0117 37.8664 41.0534 37.7441 41.0984 37.6231C41.1454 37.4996 41.1954 37.3774 41.2484 37.2564C41.3484 37.0147 41.4734 36.7814 41.5901 36.5564C41.7153 36.3256 41.8459 36.0977 41.9818 35.8731C42.0477 35.7615 42.1144 35.6504 42.1818 35.5397L42.3901 35.2064L42.1901 35.5397C42.1228 35.6532 42.0561 35.7671 41.9901 35.8814L41.6068 36.5647C41.482 36.7939 41.3652 37.0274 41.2568 37.2647C41.204 37.383 41.1539 37.5025 41.1068 37.6231C41.0589 37.744 41.0144 37.8663 40.9734 37.9897ZM39.3984 37.1981C39.5396 37.1393 39.6786 37.0753 39.8151 37.0064C39.9456 36.9361 40.0735 36.8611 40.1984 36.7814C40.4563 36.6197 40.7014 36.4386 40.9318 36.2397C41.1587 36.0452 41.373 35.8364 41.5734 35.6147C41.6762 35.5033 41.7762 35.3893 41.8735 35.2731L42.1568 34.9147C42.0672 35.0358 41.9755 35.1552 41.8818 35.2731C41.7847 35.3922 41.6847 35.5089 41.5818 35.6231C41.3821 35.8481 41.1677 36.0597 40.9401 36.2564C40.7099 36.4529 40.4647 36.6313 40.2068 36.7897C40.079 36.8669 39.9483 36.9391 39.8151 37.0064C39.6785 37.0752 39.5396 37.1392 39.3984 37.1981ZM42.5068 34.7564C42.6316 34.5738 42.751 34.3876 42.8651 34.1981L43.1985 33.6314C43.3035 33.4381 43.4063 33.2437 43.5068 33.0481L43.8151 32.4647L43.6735 32.7564L43.5235 33.0564C43.4237 33.2524 43.3209 33.4469 43.2151 33.6397C43.1087 33.8313 42.9975 34.0203 42.8818 34.2064C42.7647 34.395 42.6396 34.5785 42.5068 34.7564ZM43.0068 32.6647C43.1464 32.4958 43.2745 32.3176 43.3901 32.1314C43.5084 31.9441 43.6142 31.7493 43.7068 31.548C43.8908 31.1478 44.0305 30.7286 44.1235 30.298L44.1568 30.1314C44.1845 29.9658 44.204 29.7989 44.2151 29.6314C44.2318 29.4122 44.2318 29.1922 44.2151 28.973C44.196 28.7539 44.1598 28.5365 44.1068 28.323C44.056 28.1072 43.9891 27.8955 43.9068 27.6897C43.9916 27.8926 44.0612 28.1015 44.1151 28.3147C44.1686 28.5309 44.2048 28.7511 44.2235 28.973C44.2401 29.1897 44.2401 29.4147 44.2235 29.6397C44.215 29.8071 44.1983 29.974 44.1735 30.1397C44.1629 30.1926 44.1518 30.2454 44.1401 30.298C44.0471 30.7286 43.9074 31.1478 43.7235 31.548C43.6256 31.7498 43.5142 31.9446 43.3901 32.1314C43.2719 32.3179 43.141 32.4961 42.9985 32.6647H43.0068Z" fill="#34541F"/>
<path d="M42.8633 32.1816C43.0161 32.0353 43.1529 31.8733 43.2716 31.6983C43.3905 31.5229 43.4963 31.3391 43.5883 31.1483C43.6793 30.9572 43.7627 30.7626 43.8383 30.5649C43.8716 30.4649 43.9216 30.3649 43.9466 30.2649L43.98 30.1899L44.005 30.1149L44.055 29.9649C44.0966 29.7566 44.1133 29.5399 44.1216 29.3233C44.1231 29.1083 44.1063 28.8937 44.0716 28.6816C44.0383 28.4732 43.9883 28.2649 43.93 28.0566C43.8676 27.8504 43.7953 27.6474 43.7133 27.4482C43.7981 27.6473 43.8732 27.8503 43.9383 28.0566C43.9994 28.2615 44.0468 28.4703 44.08 28.6816C44.1146 28.8937 44.1313 29.1083 44.13 29.3233C44.1306 29.5385 44.111 29.7533 44.0716 29.9649L44.0216 30.1233L43.9966 30.1983L43.9633 30.2733L43.855 30.5733C43.7766 30.7711 43.6905 30.9657 43.5966 31.1566C43.5048 31.3475 43.3989 31.5313 43.28 31.7066C43.1586 31.8821 43.019 32.0441 42.8633 32.1899V32.1816Z" fill="#34541F"/>
<path d="M42.375 34.6148C42.4833 34.4814 42.575 34.3398 42.675 34.1981L42.825 33.9898L42.9667 33.7814C43.0567 33.6352 43.1401 33.4851 43.2167 33.3314L43.4333 32.8731C43.5833 32.5647 43.725 32.2564 43.85 31.9314C43.9735 31.6148 44.071 31.2888 44.1417 30.9564C44.2083 30.6231 44.2583 30.2897 44.3 29.9481C44.3333 29.6064 44.3333 29.2647 44.3 28.9231C44.2645 28.582 44.189 28.2464 44.075 27.9231C43.9595 27.6034 43.8173 27.2939 43.65 26.998C43.8202 27.2937 43.9652 27.6031 44.0833 27.9231C44.1973 28.2464 44.2729 28.582 44.3083 28.9231C44.35 29.2564 44.3417 29.6064 44.3083 29.9481C44.275 30.2814 44.225 30.6231 44.1583 30.9564C44.088 31.2916 43.9905 31.6204 43.8667 31.9397C43.741 32.2566 43.602 32.568 43.45 32.8731L43.225 33.3314C43.1486 33.4852 43.0652 33.6353 42.975 33.7814C42.9333 33.8648 42.8833 33.9231 42.8333 33.9981L42.6833 34.2064L42.3833 34.6231L42.375 34.6148Z" fill="#34541F"/>
<path d="M42.6057 34.8732L43.1891 33.9065C43.3779 33.582 43.5558 33.2513 43.7224 32.9148C43.8896 32.5796 44.029 32.2312 44.1391 31.8732C44.1974 31.6898 44.2391 31.5148 44.2808 31.3315C44.3002 31.2376 44.3168 31.1431 44.3307 31.0482C44.4004 30.5846 44.4394 30.1169 44.4474 29.6482C44.4474 29.2732 44.4141 28.8982 44.3474 28.5315C44.2789 28.1613 44.167 27.8005 44.0141 27.4565C44.1698 27.8001 44.2845 28.161 44.3557 28.5315C44.4232 28.8999 44.4567 29.2737 44.4557 29.6482C44.4557 30.0232 44.4307 30.3982 44.3807 30.7732C44.3708 30.8677 44.3597 30.9622 44.3474 31.0565C44.3334 31.1486 44.3167 31.2403 44.2974 31.3315C44.2584 31.5141 44.2111 31.6948 44.1558 31.8732C44.0461 32.2341 43.9067 32.5853 43.7391 32.9232C43.5724 33.2565 43.3807 33.5898 43.1974 33.9065C43.0078 34.2289 42.8134 34.5484 42.6141 34.8649L42.6057 34.8732ZM40.2891 23.9148H40.4057C40.5234 23.9376 40.6381 23.974 40.7474 24.0231C40.8891 24.0898 41.0307 24.1731 41.1557 24.2731C41.2831 24.3663 41.403 24.4694 41.5141 24.5815C41.5658 24.6383 41.6159 24.6966 41.6641 24.7565L41.8141 24.9481C41.7655 24.8859 41.7155 24.8247 41.6641 24.7648C41.6104 24.7074 41.5548 24.6518 41.4974 24.5981C41.3888 24.484 41.2718 24.3781 41.1474 24.2815C41.0206 24.1837 40.8837 24.0999 40.7391 24.0315C40.596 23.9694 40.4442 23.9301 40.2891 23.9148Z" fill="#34541F"/>
<path d="M41.6578 24.815C41.6578 24.815 41.9078 24.965 42.0495 25.1817C42.0495 25.1817 41.6578 25.1067 41.3828 24.7983" fill="#448127"/>
<path d="M41.6583 24.815C41.7364 24.8593 41.8091 24.9125 41.875 24.9733C41.9443 25.0321 42.0058 25.0993 42.0583 25.1733L42.0667 25.1983H42.05C41.9844 25.1815 41.9202 25.1592 41.8583 25.1317C41.798 25.1083 41.7395 25.0804 41.6833 25.0483C41.5667 24.9817 41.4667 24.8983 41.375 24.7983C41.4678 24.8921 41.5746 24.9709 41.6917 25.0317C41.7455 25.0628 41.8011 25.0907 41.8583 25.115C41.9205 25.1398 41.9846 25.1593 42.05 25.1733V25.19C42.0249 25.1519 41.9971 25.1157 41.9667 25.0817L41.8667 24.9817C41.8346 24.9524 41.8012 24.9246 41.7667 24.8983C41.7318 24.869 41.6957 24.8412 41.6583 24.815Z" fill="#34541F"/>
<path d="M41.0898 24.74C41.0898 24.74 41.6898 25.1233 41.7732 25.1567C41.7732 25.1567 41.6398 24.865 41.3565 24.74" fill="#448127"/>
<path d="M41.0898 24.74L41.4315 24.9483C41.517 24.9994 41.6031 25.0494 41.6898 25.0983L41.7732 25.1483V25.1567C41.749 25.1127 41.7211 25.0709 41.6898 25.0317L41.5982 24.915C41.5622 24.8784 41.5232 24.8449 41.4815 24.815L41.3565 24.74C41.4036 24.76 41.4483 24.7852 41.4898 24.815C41.6126 24.9008 41.7127 25.0152 41.7815 25.1483L41.7982 25.1733L41.7732 25.165L41.5982 25.065L41.4315 24.9567C41.3165 24.8863 41.2026 24.814 41.0898 24.74Z" fill="#34541F"/>
<path d="M41.3302 24.5483C41.3302 24.5483 41.6385 24.6817 41.7135 24.9067C41.7135 24.9067 41.1469 24.6733 41.0469 24.5483" fill="#448127"/>
<path d="M41.3302 24.5483C41.4143 24.5807 41.4929 24.6257 41.5635 24.6817C41.5978 24.7114 41.6285 24.745 41.6552 24.7817L41.7219 24.9067V24.9233H41.7052C41.6493 24.8963 41.5937 24.8686 41.5385 24.84C41.4796 24.8136 41.4212 24.7858 41.3635 24.7567C41.307 24.728 41.2514 24.6974 41.1969 24.665L41.1135 24.615L41.0469 24.5483L41.1219 24.6067L41.2052 24.6567L41.3719 24.74C41.4842 24.7986 41.5982 24.8542 41.7135 24.9067H41.7052C41.6889 24.8672 41.6664 24.8307 41.6385 24.7983C41.6142 24.7623 41.5863 24.7288 41.5552 24.6983C41.4845 24.6382 41.406 24.5877 41.3219 24.5483H41.3302Z" fill="#34541F"/>
<path d="M40.8555 24.79C40.8555 24.79 41.4055 25.1817 41.5721 25.1817C41.5721 25.1817 41.4055 24.9067 41.1221 24.79" fill="#448127"/>
<path d="M40.8555 24.7901C40.968 24.8645 41.0819 24.9367 41.1971 25.0067C41.2862 25.0588 41.378 25.1061 41.4721 25.1484L41.5721 25.1734L41.5638 25.1901C41.5093 25.1051 41.4449 25.0268 41.3721 24.9567L41.2555 24.8651C41.2135 24.8335 41.1689 24.8056 41.1221 24.7817C41.2138 24.8234 41.3055 24.8817 41.3721 24.9484C41.4527 25.0155 41.5229 25.0941 41.5805 25.1817V25.1901H41.5721C41.5348 25.1884 41.4981 25.1799 41.4638 25.1651C41.4327 25.1525 41.4021 25.1386 41.3721 25.1234C41.3126 25.0922 41.2542 25.0588 41.1971 25.0234C41.138 24.9857 41.0797 24.9468 41.0221 24.9067C40.9657 24.8691 40.9102 24.8302 40.8555 24.7901Z" fill="#34541F"/>
<path d="M40.8555 24.9066C40.8555 24.9066 41.1388 25.1566 41.3055 25.1566C41.3055 25.1566 41.1388 24.8816 40.8555 24.7566" fill="#448127"/>
<path d="M40.8555 24.9066C40.9224 24.96 40.9919 25.0101 41.0638 25.0566L41.1805 25.1149C41.2203 25.1321 41.2624 25.1433 41.3055 25.1483L41.2971 25.1566C41.2721 25.1158 41.2443 25.0768 41.2138 25.0399C41.1488 24.9604 41.0731 24.8903 40.9888 24.8316C40.9465 24.8029 40.9019 24.7778 40.8555 24.7566C40.9471 24.7983 41.0388 24.8483 41.1055 24.9233C41.1853 24.9879 41.2555 25.0637 41.3138 25.1483V25.1649H41.3055C41.2555 25.1649 41.2221 25.1483 41.1721 25.1316C41.1317 25.1122 41.0927 25.0899 41.0555 25.0649L40.9555 24.9899C40.9209 24.9636 40.8876 24.9358 40.8555 24.9066Z" fill="#34541F"/>
<path d="M40.707 24.365C40.707 24.365 41.307 24.79 41.3737 25.0233C41.3737 25.0233 40.8404 24.7733 40.7404 24.6483" fill="#448127"/>
<path d="M40.707 24.365C40.7722 24.4104 40.8361 24.4577 40.8987 24.5067C40.9612 24.5549 41.0223 24.605 41.082 24.6567C41.1406 24.7091 41.1962 24.7648 41.2487 24.8233L41.332 24.9067L41.3904 25.0233V25.04L41.3737 25.0317C41.3177 25.0047 41.2622 24.9769 41.207 24.9483C41.1509 24.9218 41.0953 24.894 41.0404 24.865C40.9865 24.8334 40.9337 24.8 40.882 24.765C40.8535 24.7467 40.8257 24.7272 40.7987 24.7067C40.7769 24.6897 40.7573 24.6701 40.7404 24.6483L40.807 24.7067C40.8881 24.7578 40.9715 24.805 41.057 24.8483C41.1667 24.9067 41.2779 24.9623 41.3904 25.015L41.3737 25.0233C41.3594 24.9872 41.3398 24.9535 41.3154 24.9233C41.2922 24.8913 41.2671 24.8607 41.2404 24.8317L41.0737 24.665C41.0168 24.6106 40.9585 24.5578 40.8987 24.5067C40.8358 24.4582 40.7719 24.4109 40.707 24.365Z" fill="#34541F"/>
<path d="M37.3719 36.3732C36.8479 36.6474 36.2632 36.785 35.6719 36.7732C36.5052 36.0899 37.3135 36.0732 37.3719 36.3732ZM43.1886 36.7482C43.6219 37.1399 44.9386 37.4149 45.1469 37.3649C44.2636 36.4732 43.3052 36.3816 43.1886 36.7482Z" fill="#406325" stroke="#24420E" stroke-width="0.0166668"/>
<path d="M37.3719 36.3733C37.3135 36.065 36.4969 36.0817 35.6719 36.7733C36.215 36.5547 36.7882 36.4198 37.3719 36.3733ZM43.1969 36.74C43.3136 36.3733 44.2636 36.465 45.1469 37.365C44.5311 37.0622 43.874 36.8516 43.1969 36.74Z" fill="#67923D" stroke="#24420E" stroke-width="0.0166668"/>
</g>
<defs>
<radialGradient id="paint0_radial_4447_29611" cx="0" cy="0" r="1" gradientUnits="userSpaceOnUse" gradientTransform="translate(37.5718 31.2065) scale(1.37501)">
<stop offset="0.2" stop-color="#F9F0AA"/>
<stop offset="1" stop-color="#B07E09"/>
</radialGradient>
<radialGradient id="paint1_radial_4447_29611" cx="0" cy="0" r="1" gradientUnits="userSpaceOnUse" gradientTransform="translate(37.9232 31.5984) scale(0.908337 0.908336)">
<stop offset="0.2" stop-color="#F9F0AA"/>
<stop offset="1" stop-color="#B07E09"/>
</radialGradient>
<radialGradient id="paint2_radial_4447_29611" cx="0" cy="0" r="1" gradientUnits="userSpaceOnUse" gradientTransform="translate(38.1326 31.2315) scale(0.816672)">
<stop offset="0.2" stop-color="#F9F0AA"/>
<stop offset="1" stop-color="#B07E09"/>
</radialGradient>
<radialGradient id="paint3_radial_4447_29611" cx="0" cy="0" r="1" gradientUnits="userSpaceOnUse" gradientTransform="translate(38.4893 31.1067) scale(1.45001 1.45001)">
<stop offset="0.2" stop-color="#F9F0AA"/>
<stop offset="1" stop-color="#B07E09"/>
</radialGradient>
<linearGradient id="paint4_linear_4447_29611" x1="39.781" y1="27.1148" x2="39.656" y2="24.8482" gradientUnits="userSpaceOnUse">
<stop offset="0.2" stop-color="#B07E09" stop-opacity="0"/>
<stop offset="1" stop-color="#B07E09"/>
</linearGradient>
<linearGradient id="paint5_linear_4447_29611" x1="40.5477" y1="30.24" x2="40.7477" y2="32.7316" gradientUnits="userSpaceOnUse">
<stop offset="0.2" stop-color="#B07E09" stop-opacity="0"/>
<stop offset="1" stop-color="#B07E09"/>
</linearGradient>
<radialGradient id="paint6_radial_4447_29611" cx="0" cy="0" r="1" gradientUnits="userSpaceOnUse" gradientTransform="translate(37.4547 26.5482) scale(1.08334 1.08334)">
<stop offset="0.2" stop-color="#F9F0AA"/>
<stop offset="1" stop-color="#B07E09"/>
</radialGradient>
<linearGradient id="paint7_linear_4447_29611" x1="37.9159" y1="26.3066" x2="38.2409" y2="25.5649" gradientUnits="userSpaceOnUse">
<stop offset="0.2" stop-color="#F9F0AA"/>
<stop offset="1" stop-color="#B07E09"/>
</linearGradient>
<linearGradient id="paint8_linear_4447_29611" x1="39.7326" y1="25.2899" x2="39.9492" y2="28.0483" gradientUnits="userSpaceOnUse">
<stop offset="0.2" stop-color="#F9F0AA"/>
<stop offset="1" stop-color="#B07E09"/>
</linearGradient>
<radialGradient id="paint9_radial_4447_29611" cx="0" cy="0" r="1" gradientUnits="userSpaceOnUse" gradientTransform="translate(40.115 23.4567) scale(0.0250001)">
<stop offset="0.3" stop-color="#A50A0A"/>
<stop offset="1" stop-color="#4C0505"/>
</radialGradient>
<radialGradient id="paint10_radial_4447_29611" cx="0" cy="0" r="1" gradientUnits="userSpaceOnUse" gradientTransform="translate(40.1136 23.4511) scale(0.0244271 0.0255869)">
<stop stop-color="white"/>
<stop offset="1" stop-color="white" stop-opacity="0"/>
</radialGradient>
<clipPath id="clip0_4447_29611">
<rect width="80" height="60" fill="white" transform="translate(0.289062 0.514893)"/>
</clipPath>
</defs>
</svg>
