<svg width="81" height="61" viewBox="0 0 81 61" fill="none" xmlns="http://www.w3.org/2000/svg">
<g clip-path="url(#clip0_4447_32375)">
<path fill-rule="evenodd" clip-rule="evenodd" d="M0.289062 0.514893H80.2891V60.5149H0.289062V0.514893Z" fill="#00247D"/>
<path d="M61.5898 13.9136V15.8097L65.3822 13.9136H61.5898Z" fill="white"/>
<path d="M62.3997 16.0208L61.2852 14.4868L65.4677 13.7918L62.3997 16.0208Z" fill="white"/>
<path d="M61.5938 13.9136V15.8097L57.8014 13.9136H61.5938Z" fill="white"/>
<path d="M60.7839 16.0208L61.8984 14.4868L57.7159 13.7918L60.7839 16.0208Z" fill="white"/>
<path d="M62.6719 14.6997L60.8685 15.2857L63.8438 18.3064L62.6719 14.6997Z" fill="white"/>
<path d="M60.9167 16.1192L62.0312 14.5852L63.9848 18.3483L60.9167 16.1192Z" fill="white"/>
<path d="M60.5078 14.6995L62.3112 15.2854L61.6797 11.0928L60.5078 14.6995Z" fill="white"/>
<path d="M62.7643 14.5823L60.9609 15.1682L61.5924 10.9756L62.7643 14.5823Z" fill="white"/>
<path d="M60.5078 14.6997L62.3112 15.2857L59.3359 18.3064L60.5078 14.6997Z" fill="white"/>
<path d="M62.263 16.1192L61.1484 14.5852L59.1949 18.3483L62.263 16.1192Z" fill="white"/>
<path d="M61.5938 14.2993V15.5523L64.0997 14.2993H61.5938Z" fill="#CC142B"/>
<path d="M62.1271 15.6919L61.3906 14.6782L64.1544 14.2189L62.1271 15.6919Z" fill="#CC142B"/>
<path d="M61.5938 14.2993V15.5523L59.0878 14.2993H61.5938Z" fill="#CC142B"/>
<path d="M61.0604 15.6919L61.7969 14.6782L59.0331 14.2189L61.0604 15.6919Z" fill="#CC142B"/>
<path d="M62.3086 14.8188L61.1169 15.206L63.083 17.2021L62.3086 14.8188Z" fill="#CC142B"/>
<path d="M61.1463 15.7568L61.8828 14.7432L63.1737 17.2298L61.1463 15.7568Z" fill="#CC142B"/>
<path d="M60.875 14.8191L62.0666 15.2063L61.6494 12.4358L60.875 14.8191Z" fill="#CC142B"/>
<path d="M62.3674 14.7415L61.1758 15.1287L61.593 12.3582L62.3674 14.7415Z" fill="#CC142B"/>
<path d="M60.875 14.8188L62.0666 15.206L60.1006 17.2021L60.875 14.8188Z" fill="#CC142B"/>
<path d="M62.0373 15.7568L61.3008 14.7432L60.0099 17.2298L62.0373 15.7568Z" fill="#CC142B"/>
<path d="M71.5273 22.665L71.5273 24.3524L74.902 22.665L71.5273 22.665Z" fill="white"/>
<path d="M72.2457 24.5404L71.2539 23.1753L74.9759 22.5568L72.2457 24.5404Z" fill="white"/>
<path d="M71.5273 22.665L71.5273 24.3524L68.1527 22.665L71.5273 22.665Z" fill="white"/>
<path d="M70.809 24.5404L71.8008 23.1753L68.0788 22.5568L70.809 24.5404Z" fill="white"/>
<path d="M72.4922 23.3645L70.8874 23.8859L73.535 26.574L72.4922 23.3645Z" fill="white"/>
<path d="M70.9301 24.6278L71.9219 23.2627L73.6602 26.6114L70.9301 24.6278Z" fill="white"/>
<path d="M70.5625 23.3645L72.1672 23.8859L71.6053 20.155L70.5625 23.3645Z" fill="white"/>
<path d="M72.5696 23.2603L70.9648 23.7817L71.5268 20.0508L72.5696 23.2603Z" fill="white"/>
<path d="M70.5625 23.3645L72.1672 23.8859L69.5197 26.574L70.5625 23.3645Z" fill="white"/>
<path d="M72.1246 24.6278L71.1328 23.2627L69.3944 26.6114L72.1246 24.6278Z" fill="white"/>
<path d="M71.5273 23.0508L71.5273 24.0949L73.6156 23.0508L71.5273 23.0508Z" fill="#CC142B"/>
<path d="M71.9731 24.2114L71.3594 23.3667L73.6626 22.984L71.9731 24.2114Z" fill="#CC142B"/>
<path d="M71.5312 23.0508L71.5312 24.0949L69.443 23.0508L71.5312 23.0508Z" fill="#CC142B"/>
<path d="M71.0855 24.2114L71.6992 23.3667L69.396 22.984L71.0855 24.2114Z" fill="#CC142B"/>
<path d="M72.125 23.4839L71.132 23.8065L72.7703 25.47L72.125 23.4839Z" fill="#CC142B"/>
<path d="M71.1597 24.2656L71.7734 23.4209L72.8492 25.4931L71.1597 24.2656Z" fill="#CC142B"/>
<path d="M70.9336 23.4836L71.9266 23.8063L71.5789 21.4976L70.9336 23.4836Z" fill="#CC142B"/>
<path d="M72.1766 23.4193L71.1836 23.7419L71.5313 21.4332L72.1766 23.4193Z" fill="#CC142B"/>
<path d="M70.9336 23.4839L71.9266 23.8065L70.2883 25.47L70.9336 23.4839Z" fill="#CC142B"/>
<path d="M71.8989 24.2656L71.2852 23.4209L70.2094 25.4931L71.8989 24.2656Z" fill="#CC142B"/>
<path d="M50.0195 25.5667L50.0195 27.4628L53.8119 25.5667L50.0195 25.5667Z" fill="white"/>
<path d="M50.8294 27.6739L49.7148 26.1399L53.8974 25.4448L50.8294 27.6739Z" fill="white"/>
<path d="M50.0234 25.5667L50.0234 27.4628L46.2311 25.5667L50.0234 25.5667Z" fill="white"/>
<path d="M49.2136 27.6739L50.3281 26.1399L46.1455 25.4448L49.2136 27.6739Z" fill="white"/>
<path d="M51.1016 26.3528L49.2982 26.9387L52.2735 29.9595L51.1016 26.3528Z" fill="white"/>
<path d="M49.3464 27.7723L50.4609 26.2383L52.4145 30.0014L49.3464 27.7723Z" fill="white"/>
<path d="M48.9375 26.3525L50.7409 26.9385L50.1094 22.7458L48.9375 26.3525Z" fill="white"/>
<path d="M51.194 26.2353L49.3906 26.8213L50.0221 22.6286L51.194 26.2353Z" fill="white"/>
<path d="M48.9375 26.3528L50.7409 26.9387L47.7656 29.9595L48.9375 26.3528Z" fill="white"/>
<path d="M50.6927 27.7723L49.5781 26.2383L47.6246 30.0014L50.6927 27.7723Z" fill="white"/>
<path d="M50.0234 25.9524L50.0234 27.2054L52.5294 25.9524L50.0234 25.9524Z" fill="#CC142B"/>
<path d="M50.5568 27.345L49.8203 26.3313L52.5841 25.872L50.5568 27.345Z" fill="#CC142B"/>
<path d="M50.0234 25.9524L50.0234 27.2054L47.5175 25.9524L50.0234 25.9524Z" fill="#CC142B"/>
<path d="M49.4901 27.345L50.2266 26.3313L47.4627 25.872L49.4901 27.345Z" fill="#CC142B"/>
<path d="M50.7383 26.4719L49.5466 26.8591L51.5127 28.8552L50.7383 26.4719Z" fill="#CC142B"/>
<path d="M49.576 27.4099L50.3125 26.3962L51.6034 28.8829L49.576 27.4099Z" fill="#CC142B"/>
<path d="M49.3047 26.4722L50.4963 26.8594L50.0791 24.0889L49.3047 26.4722Z" fill="#CC142B"/>
<path d="M50.7971 26.3945L49.6055 26.7817L50.0227 24.0113L50.7971 26.3945Z" fill="#CC142B"/>
<path d="M49.3047 26.4719L50.4963 26.8591L48.5303 28.8552L49.3047 26.4719Z" fill="#CC142B"/>
<path d="M50.4669 27.4099L49.7305 26.3962L48.4396 28.8829L50.4669 27.4099Z" fill="#CC142B"/>
<path d="M61.5898 43.8594V45.9644L65.7998 43.8594H61.5898Z" fill="white"/>
<path d="M62.4873 46.1988L61.25 44.4958L65.8932 43.7243L62.4873 46.1988Z" fill="white"/>
<path d="M61.5938 43.8594V45.9644L57.3838 43.8594H61.5938Z" fill="white"/>
<path d="M60.6963 46.1988L61.9336 44.4958L57.2904 43.7243L60.6963 46.1988Z" fill="white"/>
<path d="M62.793 44.7319L60.791 45.3824L64.0939 48.7359L62.793 44.7319Z" fill="white"/>
<path d="M60.8487 46.308L62.0859 44.605L64.2546 48.7825L60.8487 46.308Z" fill="white"/>
<path d="M60.3906 44.7322L62.3926 45.3827L61.6916 40.7283L60.3906 44.7322Z" fill="white"/>
<path d="M62.8926 44.602L60.8906 45.2524L61.5916 40.598L62.8926 44.602Z" fill="white"/>
<path d="M60.3906 44.7319L62.3926 45.3824L59.0897 48.7359L60.3906 44.7319Z" fill="white"/>
<path d="M62.3349 46.308L61.0977 44.605L58.929 48.7825L62.3349 46.308Z" fill="white"/>
<path d="M61.5938 44.2451V45.7069L64.5173 44.2451H61.5938Z" fill="#CC142B"/>
<path d="M62.2147 45.8699L61.3555 44.6873L64.5799 44.1514L62.2147 45.8699Z" fill="#CC142B"/>
<path d="M61.5898 44.2451V45.7069L58.6662 44.2451H61.5898Z" fill="#CC142B"/>
<path d="M60.9689 45.8699L61.8281 44.6873L58.6037 44.1514L60.9689 45.8699Z" fill="#CC142B"/>
<path d="M62.4297 44.8513L61.0394 45.303L63.3331 47.6318L62.4297 44.8513Z" fill="#CC142B"/>
<path d="M61.0783 45.9458L61.9375 44.7632L63.4435 47.6642L61.0783 45.9458Z" fill="#CC142B"/>
<path d="M60.7578 44.8513L62.1481 45.303L61.6613 42.0708L60.7578 44.8513Z" fill="#CC142B"/>
<path d="M62.4957 44.7609L61.1055 45.2126L61.5923 41.9804L62.4957 44.7609Z" fill="#CC142B"/>
<path d="M60.7578 44.8513L62.1481 45.303L59.8544 47.6318L60.7578 44.8513Z" fill="#CC142B"/>
<path d="M62.1092 45.9458L61.25 44.7632L59.744 47.6642L62.1092 45.9458Z" fill="#CC142B"/>
<path d="M0.289062 0.514893H40.2891V30.5149H0.289062V0.514893Z" fill="#012169"/>
<path d="M4.97656 0.514893L20.2266 11.8274L35.4141 0.514893H40.2891V4.38989L25.2891 15.5774L40.2891 26.7024V30.5149H35.2891L20.2891 19.3274L5.35156 30.5149H0.289062V26.7649L15.2266 15.6399L0.289062 4.51489V0.514893H4.97656Z" fill="white"/>
<path d="M26.7891 18.0774L40.2891 28.0149V30.5149L23.3516 18.0774H26.7891ZM15.2891 19.3274L15.6641 21.5149L3.66406 30.5149H0.289062L15.2891 19.3274ZM40.2891 0.514893V0.702393L24.7266 12.4524L24.8516 9.70239L37.1641 0.514893H40.2891ZM0.289062 0.514893L15.2266 11.5149H11.4766L0.289062 3.13989V0.514893Z" fill="#C8102E"/>
<path d="M15.3516 0.514893V30.5149H25.3516V0.514893H15.3516ZM0.289062 10.5149V20.5149H40.2891V10.5149H0.289062Z" fill="white"/>
<path d="M0.289062 12.5774V18.5774H40.2891V12.5774H0.289062ZM17.3516 0.514893V30.5149H23.3516V0.514893H17.3516Z" fill="#C8102E"/>
</g>
<defs>
<clipPath id="clip0_4447_32375">
<rect width="80" height="60" fill="white" transform="translate(0.289062 0.514893)"/>
</clipPath>
</defs>
</svg>
