<svg width="81" height="61" viewBox="0 0 81 61" fill="none" xmlns="http://www.w3.org/2000/svg">
<g clip-path="url(#clip0_4447_29182)">
<path d="M0.289062 0.514893H80.2891V60.5149H0.289062V0.514893Z" fill="#012169"/>
<path d="M9.66406 0.514893L40.1641 23.1399L70.5391 0.514893H80.2891V8.26489L50.2891 30.6399L80.2891 52.8899V60.5149H70.2891L40.2891 38.1399L10.4141 60.5149H0.289062V53.0149L30.1641 30.7649L0.289062 8.51489V0.514893H9.66406Z" fill="white"/>
<path d="M53.2891 35.6399L80.2891 55.5149V60.5149L46.4141 35.6399H53.2891ZM30.2891 38.1399L31.0391 42.5149L7.03906 60.5149H0.289062L30.2891 38.1399ZM80.2891 0.514893V0.889893L49.1641 24.3899L49.4141 18.8899L74.0391 0.514893H80.2891ZM0.289062 0.514893L30.1641 22.5149H22.6641L0.289062 5.76489V0.514893Z" fill="#C8102E"/>
<path d="M30.4141 0.514893V60.5149H50.4141V0.514893H30.4141ZM0.289062 20.5149V40.5149H80.2891V20.5149H0.289062Z" fill="white"/>
<path d="M0.289062 24.6399V36.6399H80.2891V24.6399H0.289062ZM34.4141 0.514893V60.5149H46.4141V0.514893H34.4141Z" fill="#C8102E"/>
</g>
<defs>
<clipPath id="clip0_4447_29182">
<rect width="80" height="60" fill="white" transform="translate(0.289062 0.514893)"/>
</clipPath>
</defs>
</svg>
