<svg width="81" height="61" viewBox="0 0 81 61" fill="none" xmlns="http://www.w3.org/2000/svg">
<g clip-path="url(#clip0_4447_33975)">
<mask id="mask0_4447_33975" style="mask-type:luminance" maskUnits="userSpaceOnUse" x="0" y="0" width="81" height="61">
<path d="M0.289062 0.514893H80.2891V60.5149H0.289062V0.514893Z" fill="white"/>
</mask>
<g mask="url(#mask0_4447_33975)">
<path fill-rule="evenodd" clip-rule="evenodd" d="M-2.21094 0.514893H87.7891V60.5149H-2.21094V0.514893Z" fill="white"/>
<path fill-rule="evenodd" clip-rule="evenodd" d="M-2.21094 0.514893H87.7891V30.5149H-2.21094V0.514893Z" fill="#DF0000"/>
<path fill-rule="evenodd" clip-rule="evenodd" d="M18.539 5.53991C16.1713 6.04875 14.0507 7.3567 12.5333 9.24418C11.0159 11.1317 10.194 13.4837 10.2058 15.9055C10.2175 18.3273 11.0621 20.6713 12.5977 22.544C14.1333 24.4167 16.2664 25.704 18.639 26.1899C17.2798 26.5832 15.8564 26.7043 14.4503 26.5463C13.0443 26.3883 11.6832 25.9542 10.4453 25.269C9.20729 24.5839 8.11677 23.661 7.23623 22.5535C6.3557 21.4459 5.70246 20.1755 5.314 18.8149C4.54246 16.08 4.88516 13.1509 6.26717 10.668C7.64918 8.18504 9.95806 6.35031 12.689 5.56491C14.689 4.98991 16.539 4.97741 18.5515 5.53991H18.539Z" fill="white"/>
<path fill-rule="evenodd" clip-rule="evenodd" d="M16.9141 14.2648L17.5266 16.1398L15.9016 14.9898L14.3016 16.1648L14.8891 14.2648L13.2891 13.1023L15.2766 13.0773L15.9016 11.2023L16.5266 13.0773H18.5016L16.9141 14.2648ZM19.1016 20.7648L19.7266 22.6523L18.1016 21.5023L16.4891 22.6648L17.0891 20.7773L15.4891 19.6023L17.4766 19.5898L18.0891 17.7023L18.7141 19.5773H20.7141L19.1016 20.7648ZM26.4141 20.7148L27.0266 22.6148L25.4016 21.4523L23.8016 22.6148L24.3891 20.7273L22.7891 19.5648L24.7766 19.5398L25.4016 17.6648L26.0266 19.5398H28.0016L26.4141 20.7148ZM28.5891 14.2648L29.2016 16.1523L27.5766 15.0023L25.9766 16.1648L26.5766 14.2773L24.9641 13.1023L26.9641 13.0898L27.5641 11.2023L28.1891 13.0773H30.1891L28.5891 14.2648ZM22.8016 9.97729L23.4266 11.8773L21.8016 10.7148L20.1891 11.8898L20.7891 9.9898L19.1891 8.8148L21.1641 8.8023L21.7891 6.91479L22.4141 8.78979H24.4141L22.8016 9.97729Z" fill="white"/>
</g>
</g>
<defs>
<clipPath id="clip0_4447_33975">
<rect width="80" height="60" fill="white" transform="translate(0.289062 0.514893)"/>
</clipPath>
</defs>
</svg>
