<svg width="81" height="61" viewBox="0 0 81 61" fill="none" xmlns="http://www.w3.org/2000/svg">
<g clip-path="url(#clip0_4447_33263)">
<path d="M0.289062 40.4773H80.2891V60.5148H0.289062V40.4773Z" fill="#0038A8"/>
<path d="M0.289062 20.5149H80.2891V40.5149H0.289062V20.5149Z" fill="white"/>
<path d="M0.289062 0.514893H80.2891V20.5149H0.289062V0.514893Z" fill="#D52B1E"/>
<path d="M40.286 38.1878C44.5236 38.1878 47.9588 34.7526 47.9588 30.515C47.9588 26.2775 44.5236 22.8423 40.286 22.8423C36.0485 22.8423 32.6133 26.2775 32.6133 30.515C32.6133 34.7526 36.0485 38.1878 40.286 38.1878Z" stroke="black" stroke-width="0.200001"/>
<path d="M40.2857 36.824C43.7701 36.824 46.5948 33.9993 46.5948 30.5149C46.5948 27.0305 43.7701 24.2058 40.2857 24.2058C36.8012 24.2058 33.9766 27.0305 33.9766 30.5149C33.9766 33.9993 36.8012 36.824 40.2857 36.824Z" stroke="black" stroke-width="0.0909094"/>
<path d="M40.2856 35.3515C42.9567 35.3515 45.122 33.1861 45.122 30.5151C45.122 27.844 42.9567 25.6787 40.2856 25.6787C37.6145 25.6787 35.4492 27.844 35.4492 30.5151C35.4492 33.1861 37.6145 35.3515 40.2856 35.3515Z" stroke="black" stroke-width="0.0727275"/>
<path d="M36.2023 33.4774L35.3148 34.0024L35.0398 33.5399C35.0014 33.4777 34.9719 33.4104 34.9523 33.3399C34.9382 33.2859 34.9426 33.2286 34.9648 33.1774C34.9898 33.1274 35.0273 33.0899 35.0898 33.0524C35.1398 33.0274 35.1773 33.0149 35.2273 33.0149C35.2745 33.0118 35.3218 33.0204 35.3648 33.0399L35.4648 33.1149V32.9524L35.5023 32.8899L35.6898 32.6024L35.8648 32.9149L35.6898 33.2149L35.6523 33.3149L35.6648 33.3899L35.6773 33.4149L36.0523 33.2024L36.2023 33.4774ZM35.5148 33.5149L35.4398 33.3899L35.3898 33.3274C35.3816 33.3193 35.3718 33.3129 35.3611 33.3086C35.3504 33.3044 35.3389 33.3022 35.3273 33.3024C35.3057 33.2996 35.2838 33.304 35.2648 33.3149L35.2148 33.3899C35.2148 33.4149 35.2273 33.4524 35.2648 33.5024L35.3273 33.6274L35.5148 33.5149ZM34.6773 32.8274L34.4023 32.0149L34.6148 31.9399L34.7773 32.4524L34.9398 32.4024L34.7773 31.9274L34.9773 31.8649L35.1398 32.3274L35.3273 32.2649L35.1523 31.7399L35.3773 31.6774L35.6523 32.5024L34.6773 32.8274ZM34.3148 31.6149L34.2648 31.0899C34.2398 30.9649 34.2648 30.8899 34.3148 30.8274C34.3648 30.7524 34.4398 30.7149 34.5398 30.7024C34.6398 30.7024 34.7273 30.7149 34.7898 30.7774C34.8523 30.8274 34.8898 30.9274 34.9148 31.0524L34.9273 31.2274L35.3023 31.1774L35.3523 31.5024L34.3148 31.6149ZM34.7273 31.2399L34.7148 31.1649C34.7148 31.1024 34.6898 31.0649 34.6648 31.0399C34.6533 31.0291 34.6393 31.0212 34.6241 31.0169C34.6089 31.0125 34.5929 31.0118 34.5773 31.0149C34.547 31.0217 34.5203 31.0395 34.5023 31.0649C34.4773 31.0774 34.4773 31.1274 34.4773 31.1899L34.4898 31.2774L34.7273 31.2399ZM34.2898 29.6774L34.3273 29.3524L34.9273 29.4274C34.9881 29.4337 35.0474 29.4507 35.1023 29.4774C35.1523 29.5024 35.2023 29.5274 35.2273 29.5774C35.2773 29.6149 35.2898 29.6649 35.3023 29.7024C35.3273 29.7774 35.3273 29.8524 35.3148 29.9399L35.2898 30.1024C35.2773 30.1649 35.2523 30.2024 35.2273 30.2399C35.1759 30.3208 35.0954 30.379 35.0023 30.4024H34.8273L34.2148 30.3399L34.2523 30.0274L34.8773 30.0899C34.9273 30.0899 34.9773 30.0899 35.0023 30.0649C35.0523 30.0399 35.0648 29.9899 35.0773 29.9399C35.0814 29.8949 35.068 29.8502 35.0398 29.8149C35.0148 29.7649 34.9648 29.7524 34.9148 29.7399L34.2898 29.6774ZM34.4148 28.9274L34.6273 28.3524C34.6523 28.2524 34.7023 28.1899 34.7648 28.1649C34.7946 28.1471 34.8278 28.1356 34.8622 28.1313C34.8966 28.127 34.9316 28.13 34.9648 28.1399C35.0273 28.1649 35.0648 28.2024 35.0898 28.2524C35.1148 28.2899 35.1273 28.3274 35.1273 28.3774C35.1648 28.3149 35.2148 28.2774 35.2648 28.2524C35.3213 28.2313 35.3834 28.2313 35.4398 28.2524C35.4891 28.2684 35.5329 28.298 35.566 28.3379C35.5992 28.3777 35.6205 28.426 35.6273 28.4774V28.6024L35.5898 28.7274L35.4023 29.2524L34.4148 28.9274ZM34.9148 28.7524L34.9648 28.6149C34.9648 28.5649 34.9773 28.5274 34.9648 28.5149C34.9648 28.4899 34.9398 28.4649 34.9148 28.4524C34.9031 28.4468 34.8903 28.4439 34.8773 28.4439C34.8644 28.4439 34.8516 28.4468 34.8398 28.4524C34.8148 28.4774 34.7898 28.5024 34.7773 28.5524L34.7273 28.6774L34.9148 28.7524ZM35.2898 28.8774L35.3523 28.7274C35.3648 28.6774 35.3773 28.6399 35.3523 28.6024C35.3423 28.5802 35.3245 28.5624 35.3023 28.5524C35.289 28.5447 35.274 28.5407 35.2586 28.5407C35.2432 28.5407 35.2281 28.5447 35.2148 28.5524L35.1523 28.6649L35.1023 28.8149L35.2898 28.8774ZM34.9148 27.6774L35.0773 27.4024L35.7523 27.8024L36.0023 27.3774L36.2273 27.5024L35.8023 28.2024L34.9148 27.6774ZM35.5398 26.7274L35.7398 26.4774L36.5398 27.1399L36.3398 27.3899L35.5398 26.7274ZM36.9273 26.1899L37.2023 26.0649C37.2398 26.1399 37.2523 26.2149 37.2648 26.2774C37.2682 26.342 37.2553 26.4065 37.2273 26.4649C37.1914 26.5375 37.1403 26.6014 37.0773 26.6524C37.0091 26.7215 36.9223 26.7693 36.8273 26.7899C36.7458 26.8142 36.6589 26.8142 36.5773 26.7899C36.4771 26.7477 36.3906 26.6784 36.3273 26.5899C36.2023 26.4649 36.1523 26.3399 36.1648 26.2024C36.1719 26.1316 36.1932 26.0629 36.2276 26.0006C36.262 25.9383 36.3087 25.8836 36.3648 25.8399C36.4457 25.7699 36.546 25.7263 36.6523 25.7149C36.7398 25.7024 36.8398 25.7149 36.9398 25.7774L36.7648 26.0149C36.7423 25.998 36.7169 25.9853 36.6898 25.9774C36.6611 25.9705 36.6311 25.9705 36.6023 25.9774C36.5737 25.9877 36.5479 26.0049 36.5273 26.0274C36.5004 26.0472 36.4792 26.0739 36.466 26.1047C36.4528 26.1354 36.4481 26.1692 36.4523 26.2024C36.4523 26.2524 36.5023 26.3149 36.5523 26.3774C36.6273 26.4649 36.6898 26.5149 36.7523 26.5274C36.8023 26.5274 36.8523 26.5274 36.9023 26.4774C36.9523 26.4399 36.9773 26.4024 36.9773 26.3524C36.9773 26.3024 36.9648 26.2524 36.9273 26.1899ZM38.0273 25.7899L37.7148 25.9649L37.7523 26.1399L37.4648 26.2899L37.3148 25.2024L37.6273 25.0399L38.4523 25.7649L38.1523 25.9274L38.0273 25.7899ZM37.8648 25.6274L37.5898 25.3524L37.6648 25.7274L37.8648 25.6274ZM38.8398 24.5649L39.3148 24.4899C39.3891 24.4751 39.4656 24.4751 39.5398 24.4899C39.6023 24.5024 39.6648 24.5274 39.7023 24.5774C39.7398 24.6274 39.7898 24.6649 39.8148 24.7274C39.8398 24.7774 39.8648 24.8524 39.8648 24.9149C39.8898 25.0274 39.8898 25.1149 39.8773 25.1649C39.8659 25.2281 39.8403 25.288 39.8023 25.3399C39.7708 25.3873 39.7278 25.426 39.6773 25.4524C39.6179 25.4814 39.5548 25.5024 39.4898 25.5149L39.0273 25.5899L38.8398 24.5649ZM39.2023 24.7399L39.3023 25.3024L39.3773 25.2899C39.4398 25.2774 39.4898 25.2649 39.5023 25.2399C39.5398 25.2274 39.5523 25.1899 39.5648 25.1524V24.9774C39.5398 24.8649 39.5023 24.8024 39.4648 24.7649C39.4273 24.7274 39.3648 24.7149 39.2773 24.7274L39.2023 24.7399ZM40.1773 24.3899L41.0273 24.4274V24.6524L40.4898 24.6274L40.4773 24.7899L40.9773 24.8149L40.9648 25.0274L40.4648 25.0024V25.2024L41.0148 25.2274L41.0023 25.4649L40.1273 25.4274L40.1773 24.3899ZM41.4273 24.4899L41.7273 24.5649L41.5398 25.3149L42.0398 25.4399L41.9648 25.6899L41.1773 25.4899L41.4273 24.4899ZM43.0773 25.0399L43.5398 25.3149C43.6398 25.3649 43.7023 25.4399 43.7148 25.5149C43.7398 25.5899 43.7148 25.6774 43.6773 25.7649C43.6562 25.806 43.6261 25.8419 43.5894 25.87C43.5526 25.8981 43.5101 25.9177 43.4648 25.9274C43.3898 25.9399 43.2898 25.9274 43.1773 25.8524L43.0273 25.7649L42.8273 26.0899L42.5523 25.9274L43.0773 25.0399ZM43.1273 25.5899L43.2023 25.6274L43.3273 25.6649C43.3429 25.663 43.3578 25.6575 43.3708 25.6488C43.3838 25.6401 43.3946 25.6285 43.4023 25.6149C43.4129 25.5867 43.4129 25.5556 43.4023 25.5274C43.4023 25.4899 43.3773 25.4649 43.3273 25.4274L43.2523 25.3899L43.1273 25.5899ZM44.0273 26.7899L43.7648 26.5399L43.6148 26.6274L43.3648 26.4149L44.3648 25.9149L44.6148 26.1649L44.1898 27.1774L43.9398 26.9524L44.0273 26.7899ZM44.1273 26.5774L44.3023 26.2274L43.9648 26.4274L44.1273 26.5774ZM44.2523 27.2649L45.1148 26.6774L45.4023 27.1149L45.5273 27.3274L45.5148 27.4774C45.4895 27.5358 45.4456 27.5842 45.3898 27.6149C45.3523 27.6524 45.3023 27.6649 45.2648 27.6649C45.2135 27.6702 45.1617 27.6615 45.1148 27.6399C45.0898 27.6399 45.0523 27.6024 45.0148 27.5774L45.0398 27.6649L45.0148 27.7399C45.0089 27.7656 45.0006 27.7907 44.9898 27.8149L44.8273 28.1024L44.6273 27.8149L44.7898 27.4899L44.8273 27.4024C44.8303 27.3711 44.8214 27.3399 44.8023 27.3149L44.7898 27.2899L44.4398 27.5399L44.2523 27.2649ZM44.9398 27.1899L45.0273 27.3024L45.0773 27.3524C45.1023 27.3774 45.1148 27.3774 45.1398 27.3774C45.1615 27.3802 45.1834 27.3758 45.2023 27.3649C45.2136 27.3559 45.2229 27.3445 45.2293 27.3315C45.2358 27.3186 45.2394 27.3044 45.2398 27.2899C45.2398 27.2649 45.2398 27.2274 45.2023 27.1774L45.1148 27.0649L44.9398 27.1899ZM45.2648 28.7399L45.1398 28.3899L44.9523 28.4149L44.8273 28.1024L45.9398 28.0899L46.0648 28.4149L45.2523 29.1649L45.1273 28.8399L45.2648 28.7399ZM45.4523 28.5899L45.7523 28.3399L45.3648 28.3774L45.4523 28.5899ZM45.7148 29.7149L45.9273 29.6899L46.0023 30.1774L45.5648 30.2399C45.5005 30.1728 45.4458 30.0971 45.4023 30.0149C45.3646 29.9359 45.3393 29.8516 45.3273 29.7649C45.305 29.6613 45.3093 29.5538 45.3398 29.4524C45.3756 29.3727 45.4316 29.3037 45.5023 29.2524C45.5834 29.1929 45.6778 29.1543 45.7773 29.1399C45.8779 29.1237 45.9809 29.1322 46.0773 29.1649C46.1647 29.1996 46.239 29.2608 46.2898 29.3399C46.3398 29.4149 46.3648 29.5024 46.3898 29.6149V29.8649C46.3799 29.9248 46.354 29.981 46.3148 30.0274C46.2773 30.0774 46.2273 30.1024 46.1648 30.1399L46.0648 29.8399C46.1023 29.8274 46.1273 29.8024 46.1523 29.7649C46.1773 29.7274 46.1648 29.6899 46.1523 29.6399C46.1491 29.6101 46.1397 29.5814 46.1246 29.5555C46.1095 29.5297 46.0892 29.5073 46.0648 29.4899C46.0148 29.4524 45.9398 29.4399 45.8148 29.4649C45.7366 29.4711 45.6623 29.5017 45.6023 29.5524C45.5523 29.6024 45.5398 29.6774 45.5523 29.7399C45.5523 29.7774 45.5648 29.8149 45.5898 29.8399L45.6523 29.9399H45.7523L45.7148 29.7149ZM46.3898 31.2149L46.3648 31.5399L45.7398 31.4899C45.6833 31.4822 45.6284 31.4653 45.5773 31.4399C45.529 31.4159 45.4863 31.3818 45.4523 31.3399C45.4179 31.2998 45.3924 31.253 45.3773 31.2024C45.3557 31.1295 45.3472 31.0533 45.3523 30.9774L45.3773 30.8149L45.4398 30.6649C45.4665 30.6255 45.5005 30.5916 45.5398 30.5649C45.5776 30.5397 45.6201 30.5227 45.6648 30.5149C45.7217 30.4981 45.7806 30.4897 45.8398 30.4899L46.4648 30.5524L46.4273 30.8649L45.8023 30.8149C45.7398 30.8149 45.6898 30.8149 45.6648 30.8524C45.6464 30.8678 45.6313 30.8869 45.6206 30.9084C45.6098 30.9299 45.6036 30.9534 45.6023 30.9774C45.6023 31.0274 45.6023 31.0774 45.6398 31.1024C45.6648 31.1399 45.7023 31.1649 45.7648 31.1649L46.3898 31.2149ZM45.2523 32.3149L45.3648 31.9649L45.2148 31.8649L45.3148 31.5524L46.1898 32.2524L46.0648 32.5774L44.9648 32.6274L45.0773 32.3149H45.2523ZM45.4898 32.3149L45.8648 32.3274L45.5523 32.1024L45.4898 32.3149ZM45.8648 33.1649L45.6773 33.4649H45.2648L45.4523 33.8274L45.2773 34.1274L44.9648 33.4774L44.5898 33.2524L44.7648 32.9774L45.1398 33.2024L45.8648 33.1649Z" fill="black"/>
<path d="M41.3025 26.9275C41.3025 26.9275 44.2275 28.19 43.715 30.79C43.215 33.39 41.59 33.365 40.94 33.665C40.315 33.94 39.865 34.3525 39.615 34.29C39.365 34.24 39.0275 34.04 39.0275 34.04C39.0275 34.04 39.0025 34.4775 39.515 34.54C40.0275 34.6275 40.7025 33.8775 41.015 33.79C41.34 33.715 43.3275 33.49 43.815 30.8525C44.3775 28.0275 41.315 27.015 41.315 26.9275H41.3025Z" fill="#009B3A" stroke="black" stroke-width="0.0125"/>
<path d="M42.7791 27.4899C42.7875 27.5571 42.7884 27.614 42.7817 27.6539C42.775 27.6938 42.761 27.715 42.7413 27.715C42.7215 27.715 42.6969 27.6938 42.6704 27.6539C42.6439 27.614 42.6166 27.5571 42.5916 27.4899C42.5697 27.4309 42.5504 27.366 42.5354 27.3011C42.5205 27.2362 42.5105 27.1735 42.5062 27.1188C42.5019 27.064 42.5036 27.019 42.5111 26.9878C42.5185 26.9565 42.5315 26.9402 42.5488 26.9402C42.5662 26.9402 42.5873 26.9565 42.6102 26.9878C42.6332 27.019 42.6572 27.064 42.6802 27.1188C42.7031 27.1735 42.7242 27.2362 42.7415 27.3011C42.7588 27.366 42.7717 27.4309 42.7791 27.4899Z" fill="#009B3A" stroke="black" stroke-width="0.0125"/>
<path d="M42.6775 27.515C42.7028 27.5661 42.7257 27.6176 42.7447 27.6664C42.7638 27.7152 42.7786 27.7604 42.7884 27.7995C42.7982 27.8386 42.8028 27.8707 42.8019 27.8941C42.801 27.9174 42.7946 27.9316 42.7831 27.9357C42.7716 27.9398 42.7553 27.9338 42.7349 27.918C42.7146 27.9022 42.6907 27.877 42.6647 27.8437C42.6386 27.8104 42.6109 27.7698 42.583 27.7241C42.5552 27.6784 42.5278 27.6286 42.5025 27.5775C42.4512 27.4742 42.4113 27.3718 42.3915 27.2929C42.3717 27.214 42.3736 27.1651 42.3968 27.1568C42.42 27.1485 42.4626 27.1816 42.5153 27.2487C42.5679 27.3159 42.6262 27.4117 42.6775 27.515ZM42.39 27.7025C42.4805 27.7318 42.5629 27.7681 42.6216 27.8045C42.6802 27.8408 42.7109 27.8745 42.7078 27.8993C42.7047 27.9241 42.6681 27.9381 42.6048 27.9386C42.5415 27.9392 42.4562 27.9264 42.365 27.9025C42.2745 27.8731 42.192 27.8368 42.1334 27.8005C42.0747 27.7642 42.044 27.7304 42.0471 27.7056C42.0502 27.6809 42.0869 27.6669 42.1501 27.6663C42.2134 27.6657 42.2988 27.6786 42.39 27.7025Z" fill="#009B3A" stroke="black" stroke-width="0.0125"/>
<path d="M42.4289 27.6023C42.5241 27.6664 42.6108 27.7364 42.6699 27.7969C42.7291 27.8575 42.7558 27.9036 42.7442 27.9251C42.7326 27.9467 42.6836 27.9419 42.6081 27.9118C42.5325 27.8818 42.4366 27.8289 42.3414 27.7648C42.2942 27.7331 42.2487 27.6996 42.2073 27.6662C42.166 27.6328 42.1296 27.6002 42.1003 27.5702C42.0412 27.5097 42.0145 27.4636 42.0261 27.442C42.0377 27.4205 42.0867 27.4252 42.1622 27.4553C42.2377 27.4854 42.3337 27.5383 42.4289 27.6023Z" fill="#009B3A" stroke="black" stroke-width="0.0125"/>
<path d="M42.5531 27.5525C42.6297 27.6321 42.6965 27.7151 42.7389 27.7832C42.7813 27.8512 42.7958 27.8988 42.7793 27.9154C42.7627 27.9319 42.7164 27.9162 42.6505 27.8716C42.5847 27.827 42.5047 27.7571 42.4281 27.6775C42.3516 27.5978 42.2848 27.5148 42.2423 27.4467C42.1999 27.3787 42.1854 27.3311 42.202 27.3145C42.2186 27.298 42.2649 27.3137 42.3307 27.3583C42.3966 27.403 42.4766 27.4728 42.5531 27.5525Z" fill="#009B3A" stroke="black" stroke-width="0.0125"/>
<path d="M42.7547 27.915L42.6297 27.99C42.5922 27.99 42.5547 27.9525 42.4797 27.99C42.4047 28.0275 42.3547 28.1025 42.3422 28.14C42.3297 28.1775 42.3672 28.2025 42.4547 28.1525C42.5422 28.115 42.5672 28.04 42.6047 28.015L42.7672 27.9275L42.8672 27.765C42.9047 27.715 43.0172 27.64 43.0672 27.54C43.1047 27.465 43.0922 27.4025 43.0422 27.4275C42.977 27.4653 42.9247 27.522 42.8922 27.59C42.8672 27.64 42.8922 27.715 42.8547 27.765L42.7547 27.915ZM43.6672 28.215C43.6701 28.3888 43.6584 28.5523 43.6347 28.6693C43.611 28.7864 43.5772 28.8475 43.5407 28.8392C43.5042 28.8309 43.4681 28.7539 43.4402 28.6251C43.4124 28.4963 43.3951 28.3263 43.3922 28.1525C43.3893 27.9786 43.401 27.8152 43.4247 27.6981C43.4484 27.581 43.4822 27.5199 43.5187 27.5282C43.5552 27.5365 43.5913 27.6135 43.6191 27.7423C43.647 27.8711 43.6643 28.0411 43.6672 28.215Z" fill="#009B3A" stroke="black" stroke-width="0.0125"/>
<path d="M43.5143 28.2024C43.552 28.3782 43.5736 28.5475 43.5745 28.673C43.5754 28.7985 43.5554 28.8699 43.5189 28.8715C43.4824 28.8732 43.4325 28.8049 43.3801 28.6818C43.3276 28.5586 43.277 28.3907 43.2393 28.2149C43.2218 28.1326 43.2079 28.0511 43.1983 27.975C43.1888 27.899 43.1838 27.8299 43.1836 27.7717C43.1834 27.7135 43.1881 27.6673 43.1973 27.6358C43.2066 27.6043 43.2202 27.5881 43.2374 27.5881C43.2546 27.5881 43.2752 27.6043 43.2978 27.6358C43.3204 27.6673 43.3447 27.7135 43.3692 27.7717C43.3938 27.8299 43.4181 27.899 43.4409 27.975C43.4636 28.0511 43.4843 28.1326 43.5018 28.2149L43.5143 28.2024Z" fill="#009B3A" stroke="black" stroke-width="0.0125"/>
<path d="M43.0413 28.3524C43.1054 28.3956 43.1677 28.442 43.2247 28.4889C43.2817 28.5357 43.3322 28.5822 43.3735 28.6255C43.4147 28.6689 43.4458 28.7083 43.465 28.7415C43.4842 28.7747 43.4912 28.8011 43.4854 28.8192C43.4797 28.8372 43.4614 28.8466 43.4315 28.8467C43.4017 28.8469 43.361 28.8378 43.3116 28.82C43.2622 28.8022 43.2052 28.776 43.1439 28.7429C43.0825 28.7099 43.0179 28.6706 42.9538 28.6274C42.8898 28.5842 42.8275 28.5378 42.7705 28.4909C42.7135 28.4441 42.663 28.3976 42.6217 28.3543C42.5805 28.3109 42.5494 28.2715 42.5302 28.2383C42.511 28.2051 42.504 28.1787 42.5098 28.1606C42.5155 28.1426 42.5338 28.1332 42.5636 28.1331C42.5935 28.1329 42.6342 28.142 42.6836 28.1598C42.7329 28.1776 42.7899 28.2038 42.8513 28.2369C42.9127 28.2699 42.9773 28.3092 43.0413 28.3524Z" fill="#009B3A" stroke="black" stroke-width="0.0125"/>
<path d="M43.1408 28.2149C43.2513 28.3489 43.348 28.488 43.4097 28.6015C43.4714 28.715 43.493 28.7937 43.4698 28.8202C43.4466 28.8467 43.3804 28.8189 43.2859 28.7429C43.1914 28.6669 43.0763 28.5489 42.9658 28.4148C42.8588 28.2847 42.7655 28.15 42.7063 28.0404C42.647 27.9308 42.6268 27.8553 42.65 27.8304C42.6732 27.8055 42.738 27.8334 42.83 27.9078C42.922 27.9823 43.0338 28.0972 43.1408 28.2273V28.2149Z" fill="#009B3A" stroke="black" stroke-width="0.0125"/>
<path d="M43.3294 28.2024C43.4118 28.3558 43.4789 28.5094 43.516 28.6296C43.5531 28.7497 43.5572 28.8265 43.5274 28.8431C43.4975 28.8597 43.4362 28.8147 43.3569 28.718C43.2776 28.6212 43.1868 28.4808 43.1044 28.3274C43.0637 28.2515 43.0262 28.1747 42.9942 28.1014C42.9622 28.0281 42.9362 27.9598 42.9179 27.9003C42.8807 27.7801 42.8766 27.7033 42.9065 27.6867C42.9363 27.6701 42.9976 27.7152 43.077 27.8119C43.1563 27.9086 43.2471 28.0491 43.3294 28.2024Z" fill="#009B3A" stroke="black" stroke-width="0.0125"/>
<path d="M43.49 28.8148L43.265 28.8648C43.2275 28.8648 43.19 28.7773 43.0775 28.8023C42.965 28.8273 42.865 28.9023 42.8275 28.9523C42.8025 29.0023 42.84 29.0523 42.9775 29.0273C43.1275 29.0023 43.1775 28.9023 43.2525 28.9023C43.315 28.8773 43.4275 28.8523 43.5025 28.8523C43.5275 28.8023 43.6275 28.7023 43.69 28.6523C43.7525 28.5898 43.94 28.5273 44.0275 28.4273C44.115 28.3273 44.115 28.2273 44.0275 28.2398C43.9319 28.2721 43.8459 28.328 43.7775 28.4023C43.715 28.4773 43.7275 28.5898 43.665 28.6523L43.49 28.8148ZM44.1275 29.4273C44.0996 29.5944 44.0596 29.748 44.0164 29.8543C43.9732 29.9607 43.9303 30.0112 43.8971 29.9946C43.864 29.978 43.8433 29.8958 43.8396 29.766C43.8359 29.6361 43.8496 29.4694 43.8775 29.3023C43.8914 29.2196 43.9083 29.1394 43.9274 29.0661C43.9465 28.9928 43.9673 28.928 43.9887 28.8753C44.0101 28.8226 44.0316 28.7831 44.0521 28.7591C44.0725 28.735 44.0915 28.7268 44.1079 28.7351C44.1244 28.7433 44.1379 28.7677 44.1478 28.8069C44.1576 28.8461 44.1636 28.8994 44.1655 28.9637C44.1673 29.028 44.1649 29.102 44.1584 29.1816C44.1519 29.2611 44.1414 29.3446 44.1275 29.4273Z" fill="#009B3A" stroke="black" stroke-width="0.0125"/>
<path d="M43.9918 29.3898C43.996 29.477 43.9965 29.5645 43.9933 29.6466C43.9901 29.7288 43.9833 29.8038 43.9733 29.8669C43.9633 29.9299 43.9504 29.9796 43.9353 30.0126C43.9202 30.0457 43.9033 30.0614 43.8857 30.0587C43.8682 30.0561 43.8503 30.0352 43.8332 29.9973C43.8162 29.9594 43.8004 29.9055 43.7868 29.8389C43.7733 29.7723 43.7623 29.6946 43.7545 29.6108C43.7468 29.527 43.7424 29.4389 43.7418 29.3523C43.7377 29.2652 43.7372 29.1777 43.7403 29.0955C43.7435 29.0133 43.7504 28.9383 43.7604 28.8753C43.7704 28.8122 43.7833 28.7626 43.7984 28.7295C43.8135 28.6965 43.8304 28.6808 43.8479 28.6834C43.8655 28.686 43.8834 28.707 43.9004 28.7448C43.9175 28.7827 43.9333 28.8367 43.9468 28.9032C43.9604 28.9698 43.9714 29.0475 43.9792 29.1313C43.9869 29.2151 43.9912 29.3032 43.9918 29.3898Z" fill="#009B3A" stroke="black" stroke-width="0.0125"/>
<path d="M43.5023 29.4398C43.5668 29.4958 43.6323 29.5596 43.6935 29.6261C43.7548 29.6927 43.8101 29.7602 43.8553 29.8233C43.9005 29.8865 43.9342 29.9436 43.9538 29.9901C43.9734 30.0366 43.9784 30.0713 43.9684 30.0914C43.9583 30.1115 43.9335 30.1165 43.8959 30.106C43.8583 30.0954 43.8089 30.0697 43.7516 30.0308C43.6943 29.9919 43.6307 29.9408 43.5657 29.8817C43.5008 29.8225 43.4363 29.7568 43.3773 29.6898C43.3128 29.6338 43.2474 29.57 43.1862 29.5035C43.1249 29.4369 43.0695 29.3694 43.0243 29.3063C42.9792 29.2431 42.9455 29.1861 42.9258 29.1396C42.9062 29.093 42.9013 29.0584 42.9113 29.0383C42.9214 29.0182 42.9462 29.0132 42.9838 29.0237C43.0214 29.0342 43.0708 29.0599 43.1281 29.0988C43.1854 29.1377 43.249 29.1888 43.3139 29.248C43.3789 29.3071 43.4434 29.3728 43.5023 29.4398Z" fill="#009B3A" stroke="black" stroke-width="0.0125"/>
<path d="M43.6269 29.3274C43.6683 29.4036 43.7067 29.4811 43.7396 29.5555C43.7726 29.6299 43.7996 29.6998 43.819 29.7612C43.8385 29.8226 43.85 29.8743 43.853 29.9133C43.856 29.9522 43.8503 29.9778 43.8364 29.9885C43.8224 29.9991 43.8004 29.9947 43.7717 29.9754C43.7429 29.9562 43.7079 29.9224 43.6688 29.8761C43.6296 29.8298 43.5869 29.7719 43.5433 29.7056C43.4996 29.6394 43.4558 29.5661 43.4144 29.4899C43.3729 29.4138 43.3346 29.3363 43.3016 29.2619C43.2687 29.1875 43.2417 29.1176 43.2222 29.0562C43.2028 28.9948 43.1912 28.9431 43.1883 28.9041C43.1853 28.8651 43.1909 28.8396 43.2049 28.8289C43.2188 28.8182 43.2408 28.8227 43.2696 28.8419C43.2983 28.8612 43.3333 28.895 43.3725 28.9413C43.4117 28.9876 43.4543 29.0455 43.498 29.1118C43.5416 29.178 43.5854 29.2513 43.6269 29.3274Z" fill="#009B3A" stroke="black" stroke-width="0.0125"/>
<path d="M43.8047 29.3523C43.8303 29.433 43.8526 29.514 43.8703 29.5908C43.888 29.6676 43.9007 29.7385 43.9078 29.7996C43.9149 29.8608 43.9161 29.9109 43.9115 29.947C43.9069 29.9832 43.8965 30.0048 43.8809 30.0106C43.8653 30.0163 43.8448 30.0061 43.8206 29.9805C43.7964 29.955 43.769 29.9145 43.7398 29.8615C43.7107 29.8085 43.6805 29.744 43.6508 29.6716C43.6212 29.5993 43.5928 29.5205 43.5672 29.4398C43.5404 29.3553 43.5172 29.2705 43.4987 29.1902C43.4803 29.1099 43.467 29.0357 43.4597 28.9719C43.4449 28.843 43.4553 28.7641 43.4884 28.7525C43.5216 28.7409 43.5748 28.7975 43.6365 28.91C43.6981 29.0225 43.7631 29.1816 43.8172 29.3523H43.8047Z" fill="#009B3A" stroke="black" stroke-width="0.0125"/>
<path d="M43.8547 29.9898H43.6422C43.6047 29.9898 43.5797 29.8898 43.4672 29.8898C43.3707 29.8914 43.2778 29.9268 43.2047 29.9898C43.1547 30.0398 43.1922 30.0898 43.3297 30.0898C43.4672 30.0898 43.5422 30.0273 43.6172 30.0148H43.8672L44.0922 29.8648C44.1672 29.8148 44.3547 29.7898 44.4672 29.7023C44.5547 29.6273 44.5797 29.5273 44.5047 29.5273C44.401 29.5402 44.3022 29.5789 44.2172 29.6398C44.1547 29.6898 44.1422 29.8023 44.0672 29.8523C44.0172 29.8773 43.8672 29.9898 43.8547 29.9773M44.1672 30.7773C44.0791 30.9174 43.9854 31.0405 43.9067 31.1197C43.828 31.1988 43.7708 31.2274 43.7476 31.1992C43.7244 31.171 43.7371 31.0884 43.783 30.9694C43.8289 30.8504 43.9041 30.7049 43.9922 30.5648C44.0803 30.4248 44.174 30.3016 44.2527 30.2225C44.3314 30.1434 44.3887 30.1148 44.4119 30.143C44.4351 30.1711 44.4224 30.2538 44.3765 30.3728C44.3306 30.4917 44.2553 30.6373 44.1672 30.7773Z" fill="#009B3A"/>
<path d="M43.8547 29.9898H43.6422C43.6047 29.9898 43.5797 29.8898 43.4672 29.8898C43.3707 29.8914 43.2778 29.9268 43.2047 29.9898C43.1547 30.0398 43.1922 30.0898 43.3297 30.0898C43.4672 30.0898 43.5422 30.0273 43.6172 30.0148H43.8672L44.0922 29.8648C44.1672 29.8148 44.3547 29.7898 44.4672 29.7023C44.5547 29.6273 44.5797 29.5273 44.5047 29.5273C44.401 29.5402 44.3022 29.5789 44.2172 29.6398C44.1547 29.6898 44.1422 29.8023 44.0672 29.8523C44.0172 29.8773 43.8672 29.9898 43.8547 29.9773M44.1672 30.7773C44.0791 30.9174 43.9854 31.0405 43.9067 31.1197C43.828 31.1988 43.7708 31.2274 43.7476 31.1992C43.7244 31.171 43.7371 31.0884 43.783 30.9694C43.8289 30.8504 43.9041 30.7049 43.9922 30.5648C44.0803 30.4248 44.174 30.3016 44.2527 30.2225C44.3314 30.1434 44.3887 30.1148 44.4119 30.143C44.4351 30.1711 44.4224 30.2538 44.3765 30.3728C44.3306 30.4917 44.2553 30.6373 44.1672 30.7773Z" stroke="black" stroke-width="0.0125"/>
<path d="M44.0512 30.6773C43.9896 30.8376 43.9186 30.9841 43.8539 31.0845C43.7892 31.185 43.7361 31.2312 43.7063 31.2129C43.6764 31.1947 43.6723 31.1135 43.6948 30.9873C43.7173 30.8611 43.7646 30.7001 43.8262 30.5398C43.8878 30.3796 43.9588 30.2331 44.0235 30.1326C44.0882 30.0322 44.1413 29.986 44.1711 30.0043C44.201 30.0225 44.2051 30.1036 44.1826 30.2299C44.1601 30.3561 44.1129 30.5171 44.0512 30.6773ZM43.5887 30.5273C43.6513 30.6912 43.6994 30.8583 43.7226 30.9917C43.7457 31.1252 43.7419 31.2142 43.7121 31.239C43.6823 31.2639 43.6288 31.2226 43.5635 31.1243C43.4981 31.026 43.4263 30.8787 43.3637 30.7148C43.3011 30.551 43.253 30.3839 43.2298 30.2504C43.2067 30.117 43.2105 30.028 43.2403 30.0032C43.2701 29.9783 43.3236 30.0196 43.3889 30.1179C43.4543 30.2162 43.5261 30.3635 43.5887 30.5273Z" fill="#009B3A" stroke="black" stroke-width="0.0125"/>
<path d="M43.74 30.4774C43.7557 30.6487 43.7577 30.8164 43.7454 30.9434C43.7331 31.0704 43.7075 31.1464 43.6744 31.1547C43.6412 31.163 43.6032 31.1029 43.5686 30.9876C43.534 30.8723 43.5057 30.7112 43.49 30.5399C43.4822 30.455 43.4777 30.3702 43.4767 30.2903C43.4758 30.2103 43.4785 30.1368 43.4846 30.0739C43.4907 30.011 43.5001 29.96 43.5122 29.9237C43.5244 29.8874 43.5391 29.8667 43.5556 29.8626C43.572 29.8585 43.5898 29.8711 43.6079 29.8998C43.6261 29.9285 43.6442 29.9726 43.6613 30.0297C43.6785 30.0868 43.6942 30.1557 43.7077 30.2325C43.7212 30.3093 43.7322 30.3925 43.74 30.4774Z" fill="#009B3A" stroke="black" stroke-width="0.0125"/>
<path d="M43.9165 30.5649C43.9003 30.7365 43.8716 30.9005 43.8366 31.0207C43.8017 31.1409 43.7635 31.2075 43.7303 31.2059C43.6972 31.2042 43.6718 31.1344 43.6599 31.0119C43.6479 30.8893 43.6503 30.7241 43.6665 30.5524C43.6746 30.4674 43.6858 30.3834 43.6995 30.3052C43.7132 30.227 43.7291 30.1561 43.7464 30.0966C43.7637 30.037 43.782 29.9901 43.8002 29.9583C43.8185 29.9265 43.8363 29.9106 43.8527 29.9114C43.8859 29.9131 43.9112 29.9828 43.9232 30.1054C43.9352 30.228 43.9328 30.3932 43.9165 30.5649Z" fill="#009B3A" stroke="black" stroke-width="0.0125"/>
<path d="M43.7031 31.1773C43.7031 31.1773 43.5281 31.1148 43.5031 31.0898C43.4656 31.0648 43.4906 30.9898 43.3781 30.9273C43.2895 30.8937 43.1917 30.8937 43.1031 30.9273C43.0406 30.9273 43.0531 31.0023 43.1781 31.0523C43.3031 31.1273 43.4031 31.0773 43.4656 31.1023L43.6906 31.2148C43.7531 31.1898 43.8906 31.1773 43.9656 31.1648C44.0406 31.1523 44.2281 31.2148 44.3656 31.1648C44.4781 31.1273 44.5281 31.0398 44.4531 31.0148C44.3589 30.9899 44.2598 30.9899 44.1656 31.0148C44.0781 31.0273 44.0281 31.1398 43.9406 31.1398C43.8781 31.1398 43.7031 31.1898 43.6906 31.1773M43.8156 32.1398C43.7416 32.2104 43.6622 32.2784 43.5833 32.3387C43.5044 32.3991 43.4281 32.4502 43.3601 32.4883C43.292 32.5264 43.234 32.5505 43.1904 32.5587C43.1467 32.567 43.1185 32.5593 43.1079 32.5361C43.0973 32.5129 43.1045 32.4749 43.129 32.4249C43.1535 32.3749 43.1948 32.3141 43.2496 32.2472C43.3044 32.1803 43.3714 32.1089 43.4456 32.0383C43.5198 31.9678 43.5993 31.8999 43.6781 31.8398C43.7533 31.7652 43.8358 31.692 43.9191 31.6263C44.0023 31.5606 44.0838 31.5043 44.1569 31.4619C44.23 31.4196 44.2925 31.3924 44.3394 31.3826C44.3863 31.3729 44.4162 31.3809 44.4266 31.4059C44.437 31.4309 44.4277 31.4722 44.3994 31.5265C44.371 31.5808 44.3245 31.6465 44.2636 31.7181C44.2028 31.7898 44.1293 31.8654 44.0492 31.9387C43.9692 32.012 43.8848 32.0809 43.8031 32.1398" fill="#009B3A"/>
<path d="M43.7031 31.1773C43.7031 31.1773 43.5281 31.1148 43.5031 31.0898C43.4656 31.0648 43.4906 30.9898 43.3781 30.9273C43.2895 30.8937 43.1917 30.8937 43.1031 30.9273C43.0406 30.9273 43.0531 31.0023 43.1781 31.0523C43.3031 31.1273 43.4031 31.0773 43.4656 31.1023L43.6906 31.2148C43.7531 31.1898 43.8906 31.1773 43.9656 31.1648C44.0406 31.1523 44.2281 31.2148 44.3656 31.1648C44.4781 31.1273 44.5281 31.0398 44.4531 31.0148C44.3589 30.9899 44.2598 30.9899 44.1656 31.0148C44.0781 31.0273 44.0281 31.1398 43.9406 31.1398C43.8781 31.1398 43.7031 31.1898 43.6906 31.1773M43.8156 32.1398C43.7416 32.2104 43.6622 32.2784 43.5833 32.3387C43.5044 32.3991 43.4281 32.4502 43.3601 32.4883C43.292 32.5264 43.234 32.5505 43.1904 32.5587C43.1467 32.567 43.1185 32.5593 43.1079 32.5361C43.0973 32.5129 43.1045 32.4749 43.129 32.4249C43.1535 32.3749 43.1948 32.3141 43.2496 32.2472C43.3044 32.1803 43.3714 32.1089 43.4456 32.0383C43.5198 31.9678 43.5993 31.8999 43.6781 31.8398C43.7533 31.7652 43.8358 31.692 43.9191 31.6263C44.0023 31.5606 44.0838 31.5043 44.1569 31.4619C44.23 31.4196 44.2925 31.3924 44.3394 31.3826C44.3863 31.3729 44.4162 31.3809 44.4266 31.4059C44.437 31.4309 44.4277 31.4722 44.3994 31.5265C44.371 31.5808 44.3245 31.6465 44.2636 31.7181C44.2028 31.7898 44.1293 31.8654 44.0492 31.9387C43.9692 32.012 43.8848 32.0809 43.8031 32.1398" stroke="black" stroke-width="0.0125"/>
<path d="M43.7015 32.0024C43.5823 32.1541 43.458 32.2863 43.3561 32.3701C43.2542 32.4538 43.183 32.4823 43.1581 32.4491C43.1332 32.416 43.1568 32.3239 43.2235 32.1933C43.2903 32.0626 43.3948 31.9041 43.514 31.7524C43.5731 31.6774 43.634 31.6062 43.6932 31.5432C43.7525 31.4801 43.809 31.4263 43.8594 31.3848C43.9099 31.3433 43.9533 31.315 43.9873 31.3014C44.0213 31.2879 44.0451 31.2893 44.0574 31.3057C44.0697 31.3222 44.0703 31.3532 44.0591 31.3971C44.0478 31.441 44.025 31.4969 43.992 31.5616C43.959 31.6263 43.9163 31.6985 43.8664 31.7741C43.8166 31.8498 43.7606 31.9274 43.7015 32.0024Z" fill="#009B3A" stroke="black" stroke-width="0.0125"/>
<path d="M43.253 31.6649C43.2693 31.7643 43.2803 31.8729 43.2852 31.9816C43.2901 32.0903 43.2887 32.1961 43.2812 32.2901C43.2736 32.3842 43.2601 32.4639 43.2418 32.5227C43.2234 32.5814 43.2007 32.6175 43.1756 32.628C43.1505 32.6384 43.1237 32.6229 43.0974 32.5828C43.0711 32.5427 43.046 32.4791 43.0243 32.3972C43.0025 32.3153 42.9847 32.2176 42.9723 32.112C42.9599 32.0064 42.9533 31.896 42.953 31.7899C42.9368 31.6905 42.9257 31.582 42.9208 31.4733C42.9159 31.3646 42.9173 31.2588 42.9249 31.1647C42.9325 31.0706 42.946 30.9909 42.9643 30.9322C42.9827 30.8735 43.0053 30.8374 43.0304 30.8269C43.0555 30.8164 43.0824 30.8319 43.1087 30.872C43.135 30.9122 43.1601 30.9758 43.1818 31.0577C43.2036 31.1395 43.2214 31.2373 43.2337 31.3429C43.2461 31.4485 43.2527 31.5589 43.253 31.6649Z" fill="#009B3A" stroke="black" stroke-width="0.0125"/>
<path d="M43.4271 31.6648C43.3881 31.8118 43.3431 31.9394 43.2988 32.029C43.2546 32.1187 43.2133 32.1655 43.1812 32.1627C43.149 32.1599 43.1276 32.1076 43.1201 32.0135C43.1127 31.9194 43.1195 31.7884 43.1396 31.6398C43.1535 31.5308 43.1744 31.4147 43.2004 31.3014C43.2265 31.1881 43.2571 31.0806 43.2896 30.988C43.3222 30.8954 43.3557 30.8203 43.3876 30.7689C43.4194 30.7174 43.4485 30.6911 43.4726 30.6922C43.4967 30.6932 43.515 30.7216 43.526 30.7749C43.5371 30.8282 43.5405 30.9049 43.5361 30.9988C43.5316 31.0926 43.5194 31.2008 43.5005 31.3144C43.4815 31.4281 43.4564 31.5439 43.4271 31.6523" fill="#009B3A"/>
<path d="M43.4271 31.6648C43.3881 31.8118 43.3431 31.9394 43.2988 32.029C43.2546 32.1187 43.2133 32.1655 43.1812 32.1627C43.149 32.1599 43.1276 32.1076 43.1201 32.0135C43.1127 31.9194 43.1195 31.7884 43.1396 31.6398C43.1535 31.5308 43.1744 31.4147 43.2004 31.3014C43.2265 31.1881 43.2571 31.0806 43.2896 30.988C43.3222 30.8954 43.3557 30.8203 43.3876 30.7689C43.4194 30.7174 43.4485 30.6911 43.4726 30.6922C43.4967 30.6932 43.515 30.7216 43.526 30.7749C43.5371 30.8282 43.5405 30.9049 43.5361 30.9988C43.5316 31.0926 43.5194 31.2008 43.5005 31.3144C43.4815 31.4281 43.4564 31.5439 43.4271 31.6523" stroke="black" stroke-width="0.0125"/>
<path d="M43.58 31.8149C43.5453 31.9231 43.5022 32.0373 43.4542 32.1477C43.4063 32.2582 43.355 32.3616 43.3046 32.449C43.2543 32.5365 43.2065 32.6054 43.1653 32.6499C43.1241 32.6944 43.0908 32.7131 43.0681 32.7045C43.0455 32.6958 43.0342 32.6601 43.0352 32.6003C43.0363 32.5405 43.0496 32.4585 43.0741 32.3612C43.0986 32.2639 43.1336 32.1543 43.176 32.0417C43.2183 31.9292 43.2669 31.817 43.3175 31.7149C43.3521 31.6067 43.3952 31.4924 43.4432 31.382C43.4911 31.2716 43.5425 31.1682 43.5928 31.0807C43.6431 30.9933 43.6909 30.9244 43.7321 30.8799C43.7733 30.8354 43.8066 30.8167 43.8293 30.8253C43.8519 30.8339 43.8632 30.8697 43.8622 30.9294C43.8611 30.9892 43.8478 31.0713 43.8233 31.1686C43.7988 31.2658 43.7638 31.3754 43.7215 31.488C43.6791 31.6006 43.6305 31.7127 43.58 31.8149Z" fill="#009B3A" stroke="black" stroke-width="0.0125"/>
<path d="M43.1665 32.4273C43.0961 32.3734 43.0293 32.315 42.9665 32.2523C42.9415 32.2148 42.979 32.1273 42.879 32.0273C42.779 31.9273 42.654 31.9023 42.579 31.9023C42.504 31.9148 42.504 31.9898 42.6165 32.1023C42.7415 32.2273 42.8665 32.2023 42.9165 32.2523C42.9915 32.3023 43.0915 32.3898 43.129 32.4523L43.454 32.5023C43.5415 32.5023 43.729 32.6398 43.8915 32.6398C44.0165 32.6398 44.1165 32.5773 44.0415 32.5148C43.9463 32.4449 43.8341 32.4018 43.7165 32.3898C43.6165 32.3898 43.529 32.4898 43.4415 32.4648L43.154 32.4273M42.8665 33.3398C42.6701 33.372 42.4838 33.3837 42.3484 33.3725C42.213 33.3612 42.1398 33.3279 42.1448 33.2798C42.1497 33.2318 42.2325 33.1729 42.3749 33.1162C42.5173 33.0594 42.7076 33.0095 42.904 32.9773C43.0013 32.9614 43.0971 32.9503 43.186 32.9447C43.2749 32.9391 43.3551 32.9391 43.4222 32.9447C43.4892 32.9503 43.5417 32.9613 43.5766 32.9772C43.6115 32.9931 43.6282 33.0135 43.6258 33.0373C43.6233 33.0611 43.6017 33.0878 43.5622 33.1159C43.5228 33.144 43.4661 33.1729 43.3956 33.201C43.3251 33.2291 43.2421 33.2558 43.1513 33.2796C43.0606 33.3035 42.9638 33.3239 42.8665 33.3398Z" fill="#009B3A"/>
<path d="M43.1665 32.4273C43.0961 32.3734 43.0293 32.315 42.9665 32.2523C42.9415 32.2148 42.979 32.1273 42.879 32.0273C42.779 31.9273 42.654 31.9023 42.579 31.9023C42.504 31.9148 42.504 31.9898 42.6165 32.1023C42.7415 32.2273 42.8665 32.2023 42.9165 32.2523C42.9915 32.3023 43.0915 32.3898 43.129 32.4523L43.454 32.5023C43.5415 32.5023 43.729 32.6398 43.8915 32.6398C44.0165 32.6398 44.1165 32.5773 44.0415 32.5148C43.9463 32.4449 43.8341 32.4018 43.7165 32.3898C43.6165 32.3898 43.529 32.4898 43.4415 32.4648L43.154 32.4273M42.8665 33.3398C42.6701 33.372 42.4838 33.3837 42.3484 33.3725C42.213 33.3612 42.1398 33.3279 42.1448 33.2798C42.1497 33.2318 42.2325 33.1729 42.3749 33.1162C42.5173 33.0594 42.7076 33.0095 42.904 32.9773C43.0013 32.9614 43.0971 32.9503 43.186 32.9447C43.2749 32.9391 43.3551 32.9391 43.4222 32.9447C43.4892 32.9503 43.5417 32.9613 43.5766 32.9772C43.6115 32.9931 43.6282 33.0135 43.6258 33.0373C43.6233 33.0611 43.6017 33.0878 43.5622 33.1159C43.5228 33.144 43.4661 33.1729 43.3956 33.201C43.3251 33.2291 43.2421 33.2558 43.1513 33.2796C43.0606 33.3035 42.9638 33.3239 42.8665 33.3398Z" stroke="black" stroke-width="0.0125"/>
<path d="M42.8534 33.1399C42.6552 33.2162 42.4618 33.2722 42.3158 33.2957C42.1698 33.3192 42.0832 33.3082 42.0749 33.2651C42.0666 33.222 42.1374 33.1503 42.2716 33.0659C42.4059 32.9815 42.5927 32.8912 42.7909 32.8149C42.9962 32.7359 43.1964 32.6779 43.3474 32.6537C43.4984 32.6295 43.5879 32.6411 43.5962 32.6859C43.6045 32.7306 43.5309 32.8049 43.3916 32.8924C43.2523 32.9799 43.0587 33.0734 42.8534 33.1524" fill="#009B3A"/>
<path d="M42.8534 33.1399C42.6552 33.2162 42.4618 33.2722 42.3158 33.2957C42.1698 33.3192 42.0832 33.3082 42.0749 33.2651C42.0666 33.222 42.1374 33.1503 42.2716 33.0659C42.4059 32.9815 42.5927 32.8912 42.7909 32.8149C42.9962 32.7359 43.1964 32.6779 43.3474 32.6537C43.4984 32.6295 43.5879 32.6411 43.5962 32.6859C43.6045 32.7306 43.5309 32.8049 43.3916 32.8924C43.2523 32.9799 43.0587 33.0734 42.8534 33.1524" stroke="black" stroke-width="0.0125"/>
<path d="M42.5924 32.5649C42.5122 32.7151 42.4258 32.8472 42.3478 32.9392C42.2698 33.0312 42.2048 33.0774 42.1638 33.07C42.1228 33.0627 42.1082 33.0023 42.1225 32.899C42.1368 32.7956 42.1792 32.6556 42.2424 32.5024C42.2835 32.4028 42.332 32.3009 42.3846 32.2041C42.4371 32.1072 42.4923 32.0179 42.5461 31.9426C42.5998 31.8673 42.6509 31.808 42.6954 31.7689C42.7399 31.7299 42.7769 31.7121 42.8035 31.7168C42.8301 31.7216 42.8458 31.7488 42.8494 31.7964C42.8529 31.8441 42.8442 31.911 42.824 31.9922C42.8038 32.0735 42.7725 32.1671 42.7324 32.2662C42.6923 32.3652 42.6445 32.4673 42.5924 32.5649Z" fill="#009B3A" stroke="black" stroke-width="0.0125"/>
<path d="M42.7781 32.6649C42.6291 32.8335 42.4712 32.9854 42.3389 33.087C42.2066 33.1887 42.1109 33.2318 42.0728 33.207C42.0347 33.1821 42.0573 33.0913 42.1356 32.9544C42.214 32.8176 42.3416 32.646 42.4906 32.4774C42.5643 32.3939 42.641 32.3137 42.7164 32.2412C42.7917 32.1688 42.8642 32.1056 42.9297 32.0553C43.062 31.9536 43.1577 31.9105 43.1958 31.9353C43.234 31.9602 43.2114 32.051 43.133 32.1879C43.0942 32.2556 43.0429 32.3326 42.982 32.4145C42.9211 32.4963 42.8518 32.5814 42.7781 32.6649Z" fill="#009B3A" stroke="black" stroke-width="0.0125"/>
<path d="M42.8268 32.9025C42.7365 32.9766 42.6405 33.0486 42.5456 33.1133C42.4507 33.178 42.3591 33.234 42.2773 33.2772C42.1956 33.3204 42.1256 33.3499 42.0723 33.3635C42.019 33.3771 41.9837 33.3746 41.9689 33.356C41.954 33.3375 41.96 33.3034 41.9865 33.2562C42.0129 33.209 42.0591 33.1498 42.1218 33.0827C42.1845 33.0157 42.2622 32.9424 42.3494 32.8681C42.4367 32.7938 42.5313 32.7202 42.6268 32.6525C42.7805 32.5435 42.9283 32.4555 43.0442 32.4038C43.1601 32.3522 43.2367 32.3402 43.2606 32.3701C43.2844 32.3999 43.254 32.4697 43.1747 32.567C43.0954 32.6644 42.9722 32.7832 42.8268 32.9025Z" fill="#009B3A" stroke="black" stroke-width="0.0125"/>
<path d="M42.0892 33.2275C42.0542 33.1378 42.0249 33.0459 42.0017 32.9525C41.9892 32.9025 42.0767 32.8525 42.0392 32.7025C41.9968 32.5814 41.9126 32.4794 41.8017 32.415C41.7392 32.3775 41.6892 32.44 41.7392 32.615C41.7892 32.79 41.9142 32.8525 41.9517 32.94L42.0517 33.24L42.3267 33.4775C42.4017 33.54 42.5142 33.7775 42.6642 33.865C42.7892 33.9525 42.9142 33.9275 42.8892 33.84C42.8328 33.7203 42.7467 33.617 42.6392 33.54C42.5517 33.465 42.4142 33.5025 42.3267 33.44C42.2767 33.3775 42.0767 33.24 42.0767 33.2275" fill="#009B3A"/>
<path d="M42.0892 33.2275C42.0542 33.1378 42.0249 33.0459 42.0017 32.9525C41.9892 32.9025 42.0767 32.8525 42.0392 32.7025C41.9968 32.5814 41.9126 32.4794 41.8017 32.415C41.7392 32.3775 41.6892 32.44 41.7392 32.615C41.7892 32.79 41.9142 32.8525 41.9517 32.94L42.0517 33.24L42.3267 33.4775C42.4017 33.54 42.5142 33.7775 42.6642 33.865C42.7892 33.9525 42.9142 33.9275 42.8892 33.84C42.8328 33.7203 42.7467 33.617 42.6392 33.54C42.5517 33.465 42.4142 33.5025 42.3267 33.44C42.2767 33.3775 42.0767 33.24 42.0767 33.2275" stroke="black" stroke-width="0.0125"/>
<path d="M41.6421 34.0149C41.4758 34.0057 41.3278 33.98 41.222 33.942C41.1161 33.9041 41.0586 33.8559 41.0586 33.8054C41.0586 33.7549 41.1161 33.705 41.222 33.6636C41.3278 33.6223 41.4758 33.5919 41.6421 33.5774C41.8084 33.5866 41.9564 33.6122 42.0622 33.6502C42.1681 33.6882 42.2256 33.7363 42.2256 33.7868C42.2256 33.8373 42.1681 33.8873 42.0622 33.9287C41.9564 33.97 41.8084 34.0004 41.6421 34.0149Z" fill="#009B3A" stroke="black" stroke-width="0.0125"/>
<path d="M41.5417 33.3275C41.4108 33.4967 41.2676 33.6444 41.1434 33.7383C41.0193 33.8321 40.9244 33.8643 40.8796 33.8279C40.8349 33.7914 40.8439 33.6892 40.9048 33.5438C40.9656 33.3984 41.0733 33.2217 41.2042 33.0525C41.2676 32.9707 41.3346 32.8933 41.4013 32.8246C41.4681 32.756 41.5333 32.6975 41.5932 32.6524C41.6532 32.6074 41.7066 32.5766 41.7506 32.562C41.7946 32.5474 41.8282 32.5492 41.8496 32.5672C41.8709 32.5853 41.8795 32.6193 41.875 32.6673C41.8704 32.7152 41.8528 32.7763 41.823 32.8469C41.7933 32.9175 41.752 32.9962 41.7016 33.0787C41.6512 33.1612 41.5926 33.2457 41.5292 33.3275" fill="#009B3A"/>
<path d="M41.5417 33.3275C41.4108 33.4967 41.2676 33.6444 41.1434 33.7383C41.0193 33.8321 40.9244 33.8643 40.8796 33.8279C40.8349 33.7914 40.8439 33.6892 40.9048 33.5438C40.9656 33.3984 41.0733 33.2217 41.2042 33.0525C41.2676 32.9707 41.3346 32.8933 41.4013 32.8246C41.4681 32.756 41.5333 32.6975 41.5932 32.6524C41.6532 32.6074 41.7066 32.5766 41.7506 32.562C41.7946 32.5474 41.8282 32.5492 41.8496 32.5672C41.8709 32.5853 41.8795 32.6193 41.875 32.6673C41.8704 32.7152 41.8528 32.7763 41.823 32.8469C41.7933 32.9175 41.752 32.9962 41.7016 33.0787C41.6512 33.1612 41.5926 33.2457 41.5292 33.3275" stroke="black" stroke-width="0.0125"/>
<path d="M41.641 33.6773C41.4464 33.7609 41.2517 33.8193 41.1 33.8397C40.9483 33.8602 40.8518 33.8409 40.8319 33.7862C40.8121 33.7315 40.8703 33.6458 40.9939 33.548C41.1175 33.4503 41.2964 33.3484 41.491 33.2648C41.6857 33.1812 41.8804 33.1228 42.0321 33.1023C42.1838 33.0819 42.2803 33.1012 42.3001 33.1559C42.32 33.2106 42.2618 33.2962 42.1382 33.394C42.0146 33.4918 41.8357 33.5937 41.641 33.6773ZM41.8535 27.0023C41.9392 27.0825 42.01 27.1618 42.0521 27.2248C42.0942 27.2877 42.1045 27.3295 42.0809 27.3421C42.0574 27.3547 42.0017 27.337 41.9249 27.2926C41.8481 27.2482 41.7557 27.1803 41.666 27.1023C41.6164 27.0591 41.5691 27.0141 41.5271 26.9702C41.4852 26.9263 41.4495 26.8845 41.4224 26.8474C41.3953 26.8103 41.3774 26.7787 41.3697 26.7546C41.362 26.7305 41.3648 26.7145 41.3778 26.7076C41.3909 26.7006 41.4139 26.7029 41.4455 26.7142C41.477 26.7255 41.5164 26.7457 41.5612 26.7734C41.6059 26.8011 41.655 26.8358 41.7053 26.8752C41.7556 26.9146 41.8061 26.9579 41.8535 27.0023ZM41.616 27.1898C41.7195 27.209 41.8123 27.2337 41.8802 27.2601C41.948 27.2865 41.9871 27.3132 41.9913 27.3359C41.9956 27.3587 41.9648 27.3763 41.9038 27.3861C41.8427 27.3958 41.7548 27.3971 41.6535 27.3898C41.5828 27.3847 41.5079 27.3755 41.4347 27.363C41.3614 27.3505 41.2918 27.335 41.2312 27.3178C41.1706 27.3005 41.1206 27.2819 41.0851 27.2633C41.0496 27.2448 41.0296 27.2269 41.0267 27.211C41.0237 27.1951 41.0378 27.1816 41.0679 27.1716C41.098 27.1616 41.1433 27.1553 41.2003 27.1533C41.2573 27.1512 41.3245 27.1534 41.3966 27.1598C41.4687 27.1661 41.5438 27.1764 41.616 27.1898Z" fill="#009B3A" stroke="black" stroke-width="0.0125"/>
<path d="M41.7164 27.065C41.78 27.0973 41.8417 27.1314 41.8979 27.1654C41.9542 27.1993 42.0039 27.2324 42.0442 27.2628C42.0845 27.2932 42.1147 27.3203 42.1329 27.3426C42.1512 27.3648 42.1572 27.3817 42.1507 27.3924C42.1441 27.4031 42.1251 27.4073 42.0947 27.4047C42.0643 27.4022 42.0231 27.3931 41.9735 27.3777C41.9239 27.3624 41.8668 27.3413 41.8055 27.3155C41.7443 27.2897 41.68 27.2598 41.6164 27.2275C41.488 27.1622 41.3701 27.091 41.2886 27.0296C41.2072 26.9682 41.1689 26.9216 41.1822 26.9C41.1954 26.8785 41.2591 26.8837 41.3593 26.9147C41.4595 26.9456 41.588 26.9997 41.7164 27.065ZM38.2539 33.265C38.2539 33.265 38.8914 33.4025 39.4539 33.6025C40.0164 33.815 40.8664 34.5025 41.0914 34.5525C41.3414 34.5525 41.7039 34.465 41.8414 34.1025C41.4414 34.2025 41.2164 34.365 40.8414 34.165C40.7039 34.115 40.2664 33.715 39.7789 33.5025C39.3039 33.29 38.3414 33.0525 38.3414 33.0525L38.2539 33.265ZM38.9414 27.4525L39.6789 27.065L38.8664 27.2775L38.7664 27.415L38.9414 27.4525Z" fill="#009B3A" stroke="black" stroke-width="0.0125"/>
<path d="M39.6406 27.6398C39.3531 27.5773 38.9156 27.4773 38.6406 27.4648C38.8281 27.2523 39.0906 26.8773 39.2656 26.6648C39.1406 26.8773 38.9781 27.1648 38.9156 27.3523C39.1031 27.4648 39.4156 27.5523 39.6406 27.6273" fill="#009B3A"/>
<path d="M39.6406 27.6398C39.3531 27.5773 38.9156 27.4773 38.6406 27.4648C38.8281 27.2523 39.0906 26.8773 39.2656 26.6648C39.1406 26.8773 38.9781 27.1648 38.9156 27.3523C39.1031 27.4648 39.4156 27.5523 39.6406 27.6273" stroke="black" stroke-width="0.0125"/>
<path d="M38.8039 27.5025C39.0229 27.3293 39.2438 27.1585 39.4664 26.99L38.7039 27.3275L38.6289 27.49H38.8039" fill="#009B3A"/>
<path d="M38.8039 27.5025C39.0229 27.3293 39.2438 27.1585 39.4664 26.99L38.7039 27.3275L38.6289 27.49H38.8039" stroke="black" stroke-width="0.0125"/>
<path d="M39.5039 27.6275C39.2164 27.565 38.7789 27.465 38.5039 27.44C38.6789 27.2275 38.9414 26.8525 39.1039 26.615C39.0039 26.84 38.8289 27.1275 38.7664 27.34C38.9664 27.4525 39.2789 27.54 39.5164 27.6275" fill="#009B3A"/>
<path d="M39.5039 27.6275C39.2164 27.565 38.7789 27.465 38.5039 27.44C38.6789 27.2275 38.9414 26.8525 39.1039 26.615C39.0039 26.84 38.8289 27.1275 38.7664 27.34C38.9664 27.4525 39.2789 27.54 39.5164 27.6275" stroke="black" stroke-width="0.0125"/>
<path d="M38.7023 27.5398L39.4648 27.2148L38.6398 27.3523L38.5273 27.4773L38.6898 27.5398" fill="#009B3A"/>
<path d="M38.7023 27.5398L39.4648 27.2148L38.6398 27.3523L38.5273 27.4773L38.6898 27.5398" stroke="black" stroke-width="0.0125"/>
<path d="M39.4156 27.6398C39.1281 27.6023 38.6656 27.5523 38.3906 27.5648C38.5531 27.3148 38.7656 26.9023 38.9031 26.6523C38.8281 26.8898 38.6906 27.2023 38.6531 27.4148C38.8656 27.5148 39.1906 27.5648 39.4156 27.6273" fill="#009B3A"/>
<path d="M39.4156 27.6398C39.1281 27.6023 38.6656 27.5523 38.3906 27.5648C38.5531 27.3148 38.7656 26.9023 38.9031 26.6523C38.8281 26.8898 38.6906 27.2023 38.6531 27.4148C38.8656 27.5148 39.1906 27.5648 39.4156 27.6273" stroke="black" stroke-width="0.0125"/>
<path d="M38.6164 27.5398L39.1414 26.9148L38.4789 27.4023L38.4414 27.5648L38.6164 27.5398Z" fill="#009B3A" stroke="black" stroke-width="0.0125"/>
<path d="M39.4164 27.6774C39.1039 27.6774 38.6164 27.6399 38.3164 27.6774C38.4664 27.3899 38.6539 26.9274 38.7664 26.6399C38.7164 26.9024 38.6039 27.2649 38.5914 27.5024C38.8164 27.5774 39.1664 27.6274 39.4164 27.6774Z" fill="#009B3A" stroke="black" stroke-width="0.0125"/>
<path d="M38.5156 27.6899L39.1406 27.0774L38.3781 27.5149L38.3281 27.6899H38.5156Z" fill="#009B3A" stroke="black" stroke-width="0.0125"/>
<path d="M39.2773 27.6899C38.9398 27.6899 38.4273 27.6774 38.0898 27.7149C38.3148 27.4024 38.6148 26.8899 38.7898 26.5774C38.6648 26.8649 38.4898 27.2524 38.4148 27.5149C38.6523 27.6024 39.0148 27.6399 39.2773 27.6899Z" fill="#009B3A" stroke="black" stroke-width="0.0125"/>
<path d="M38.2898 27.74L39.1148 27.0525L38.1898 27.54L38.0898 27.74H38.2898Z" fill="#009B3A" stroke="black" stroke-width="0.0125"/>
<path d="M39.1672 27.7149C38.8297 27.7649 38.3047 27.8149 37.9922 27.9024C38.1547 27.5649 38.3797 27.0274 38.5172 26.6899C38.4422 26.9899 38.3047 27.3899 38.2672 27.6649C38.5172 27.7149 38.8922 27.7024 39.1547 27.7149" fill="#009B3A"/>
<path d="M39.1672 27.7149C38.8297 27.7649 38.3047 27.8149 37.9922 27.9024C38.1547 27.5649 38.3797 27.0274 38.5172 26.6899C38.4422 26.9899 38.3047 27.3899 38.2672 27.6649C38.5172 27.7149 38.8922 27.7024 39.1547 27.7149" stroke="black" stroke-width="0.0125"/>
<path d="M38.1922 27.8774L38.8172 27.0024L38.0297 27.7149L37.9922 27.9274L38.1922 27.8774Z" fill="#009B3A" stroke="black" stroke-width="0.0125"/>
<path d="M38.9641 27.8149C38.6391 27.8524 38.1141 27.8774 37.7891 27.9399C37.9766 27.6149 38.2266 27.0899 38.3891 26.7649C38.2891 27.0524 38.1391 27.4524 38.0891 27.7274C38.3391 27.7899 38.7141 27.7899 38.9641 27.8149Z" fill="#009B3A" stroke="black" stroke-width="0.0125"/>
<path d="M38.0789 27.9648L38.8789 27.2773L37.9664 27.7648L37.8789 27.9648H38.0789Z" fill="#009B3A" stroke="black" stroke-width="0.0125"/>
<path d="M38.8781 27.8524C38.5406 27.9274 38.0156 28.0149 37.7031 28.1149C37.8531 27.7774 38.0531 27.2274 38.1781 26.8899C38.1156 27.1899 38.0031 27.5899 37.9781 27.8649C38.2281 27.9024 38.6031 27.8649 38.8781 27.8524Z" fill="#009B3A" stroke="black" stroke-width="0.0125"/>
<path d="M37.9414 28.015L38.4414 27.0525L37.7664 27.8775L37.7539 28.09L37.9414 28.0025" fill="#009B3A"/>
<path d="M37.9414 28.015L38.4414 27.0525L37.7664 27.8775L37.7539 28.09L37.9414 28.0025" stroke="black" stroke-width="0.0125"/>
<path d="M38.8789 27.9025C38.5039 28.0025 37.9539 28.1275 37.6289 28.2525C37.7539 27.865 37.8914 27.2525 37.9914 26.865C37.9539 27.2025 37.8789 27.6525 37.8914 27.965C38.1789 27.99 38.5789 27.9275 38.8664 27.9025" fill="#009B3A"/>
<path d="M38.8789 27.9025C38.5039 28.0025 37.9539 28.1275 37.6289 28.2525C37.7539 27.865 37.8914 27.2525 37.9914 26.865C37.9539 27.2025 37.8789 27.6525 37.8914 27.965C38.1789 27.99 38.5789 27.9275 38.8664 27.9025" stroke="black" stroke-width="0.0125"/>
<path d="M37.8414 28.2273L38.4914 27.2773L37.6664 28.0398L37.6289 28.2898L37.8414 28.2273Z" fill="#009B3A" stroke="black" stroke-width="0.0125"/>
<path d="M38.7289 28.0148C38.3789 28.1273 37.8289 28.2773 37.5039 28.4273C37.6039 28.0273 37.7289 27.4148 37.8039 27.0273C37.7914 27.3648 37.7414 27.8148 37.7664 28.1148C38.0414 28.1273 38.4414 28.0398 38.7289 28.0148Z" fill="#009B3A" stroke="black" stroke-width="0.0125"/>
<path d="M37.7164 28.3649L38.2039 27.3149L37.5039 28.2149V28.4649L37.7164 28.3649Z" fill="#009B3A" stroke="black" stroke-width="0.0125"/>
<path d="M38.5898 28.1648C38.2398 28.2398 37.6773 28.3523 37.3398 28.4648C37.4773 28.0898 37.6523 27.4648 37.7648 27.0898C37.7148 27.4273 37.6273 27.8898 37.6273 28.1773C37.9023 28.2148 38.3023 28.1648 38.5898 28.1523" fill="#009B3A"/>
<path d="M38.5898 28.1648C38.2398 28.2398 37.6773 28.3523 37.3398 28.4648C37.4773 28.0898 37.6523 27.4648 37.7648 27.0898C37.7148 27.4273 37.6273 27.8898 37.6273 28.1773C37.9023 28.2148 38.3023 28.1648 38.5898 28.1523" stroke="black" stroke-width="0.0125"/>
<path d="M37.5914 28.4649L38.3914 27.6399L37.4539 28.2524L37.3789 28.4774L37.5914 28.4649Z" fill="#009B3A" stroke="black" stroke-width="0.0125"/>
<path d="M38.4414 28.3024C38.0789 28.3524 37.5289 28.4024 37.1914 28.4899C37.3539 28.1149 37.5664 27.5149 37.6914 27.1399C37.6164 27.4774 37.5039 27.9274 37.4789 28.2274C37.7539 28.2899 38.1539 28.2774 38.4414 28.3024Z" fill="#009B3A" stroke="black" stroke-width="0.0125"/>
<path d="M37.4422 28.3898L37.9797 27.3523L37.2422 28.2273V28.4648L37.4422 28.3773" fill="#009B3A"/>
<path d="M37.4422 28.3898L37.9797 27.3523L37.2422 28.2273V28.4648L37.4422 28.3773" stroke="black" stroke-width="0.0125"/>
<path d="M38.4797 28.1775C38.1047 28.34 37.4797 28.5525 37.1172 28.7525C37.2422 28.29 37.3672 27.565 37.4422 27.115C37.4422 27.5025 37.3797 28.04 37.4047 28.3775C37.7172 28.3775 38.1547 28.24 38.4797 28.1775Z" fill="#009B3A" stroke="black" stroke-width="0.0125"/>
<path d="M37.3664 28.6899L38.0164 27.5149L37.1539 28.5149L37.1289 28.7899L37.3664 28.6899Z" fill="#009B3A" stroke="black" stroke-width="0.0125"/>
<path d="M38.3289 28.3273C37.9539 28.5023 37.3539 28.7523 37.0039 28.9648C37.1039 28.5148 37.1914 27.7773 37.2539 27.3398C37.2539 27.7148 37.2289 28.2523 37.2664 28.5898C37.5789 28.5523 38.0164 28.4023 38.3289 28.3273Z" fill="#009B3A" stroke="black" stroke-width="0.0125"/>
<path d="M37.2297 28.8648L37.7047 27.6023L36.9922 28.7273L37.0172 29.0148L37.2297 28.8648Z" fill="#009B3A" stroke="black" stroke-width="0.0125"/>
<path d="M38.1648 28.4274C37.7898 28.6149 37.1898 28.8649 36.8398 29.0899C36.9273 28.6274 37.0148 27.9024 37.0773 27.4524C37.0773 27.8274 37.0523 28.3649 37.1023 28.7024C37.4148 28.6649 37.8523 28.5024 38.1648 28.4274Z" fill="#009B3A" stroke="black" stroke-width="0.0125"/>
<path d="M37.1281 29.0148L37.8531 27.9023L36.9281 28.8148L36.8906 29.0898L37.1281 29.0148Z" fill="#009B3A" stroke="black" stroke-width="0.0125"/>
<path d="M38.1266 28.3648C37.7891 28.6398 37.2516 29.0398 36.9516 29.3398C36.9516 28.8648 36.8891 28.1523 36.8516 27.7148C36.9266 28.0773 37.0141 28.5898 37.1391 28.9023C37.4391 28.7898 37.8266 28.5273 38.1391 28.3773" fill="#009B3A"/>
<path d="M38.1266 28.3648C37.7891 28.6398 37.2516 29.0398 36.9516 29.3398C36.9516 28.8648 36.8891 28.1523 36.8516 27.7148C36.9266 28.0773 37.0141 28.5898 37.1391 28.9023C37.4391 28.7898 37.8266 28.5273 38.1391 28.3773" stroke="black" stroke-width="0.0125"/>
<path d="M37.1656 29.0775L37.2406 27.74L36.8906 29.04L36.9906 29.29L37.1656 29.0775Z" fill="#009B3A" stroke="black" stroke-width="0.0125"/>
<path d="M38.0414 28.4899C37.6914 28.7649 37.1664 29.1524 36.8539 29.4524C36.8539 28.9899 36.7914 28.2649 36.7539 27.8274C36.8414 28.2024 36.9164 28.7024 37.0414 29.0149C37.3414 28.9149 37.7289 28.6399 38.0414 28.4899Z" fill="#009B3A" stroke="black" stroke-width="0.0125"/>
<path d="M37.0781 29.3025L37.4156 27.99L36.8281 29.19L36.8656 29.465L37.0781 29.3025Z" fill="#009B3A" stroke="black" stroke-width="0.0125"/>
<path d="M37.9891 28.515C37.6766 28.84 37.1641 29.315 36.8766 29.64C36.8266 29.1775 36.6891 28.44 36.6016 27.99C36.7266 28.365 36.8641 28.8775 37.0266 29.1775C37.3141 29.04 37.7016 28.7275 37.9891 28.5275" fill="#009B3A"/>
<path d="M37.9891 28.515C37.6766 28.84 37.1641 29.315 36.8766 29.64C36.8266 29.1775 36.6891 28.44 36.6016 27.99C36.7266 28.365 36.8641 28.8775 37.0266 29.1775C37.3141 29.04 37.7016 28.7275 37.9891 28.5275" stroke="black" stroke-width="0.0125"/>
<path d="M37.0797 29.4649L37.1422 28.0774L36.8047 29.4274L36.9047 29.6774L37.0797 29.4649Z" fill="#009B3A" stroke="black" stroke-width="0.0125"/>
<path d="M37.8914 28.7649C37.5539 29.0399 37.0164 29.4524 36.6914 29.7649C36.6914 29.2899 36.6039 28.5399 36.5664 28.0774C36.6539 28.4524 36.7539 28.9899 36.8789 29.3149C37.1914 29.1899 37.5914 28.9274 37.8914 28.7524" fill="#009B3A"/>
<path d="M37.8914 28.7649C37.5539 29.0399 37.0164 29.4524 36.6914 29.7649C36.6914 29.2899 36.6039 28.5399 36.5664 28.0774C36.6539 28.4524 36.7539 28.9899 36.8789 29.3149C37.1914 29.1899 37.5914 28.9274 37.8914 28.7524" stroke="black" stroke-width="0.0125"/>
<path d="M36.9766 29.6274L37.4516 28.3149L36.7266 29.4774L36.7516 29.7649L36.9766 29.6274Z" fill="#009B3A" stroke="black" stroke-width="0.0125"/>
<path d="M37.8914 28.7648C37.5789 29.0773 37.1039 29.5648 36.8289 29.9023C36.7789 29.4273 36.6414 28.6773 36.5664 28.2273C36.6914 28.6023 36.8164 29.1273 36.9664 29.4273C37.2539 29.2773 37.6039 28.9648 37.8914 28.7648Z" fill="#009B3A" stroke="black" stroke-width="0.0125"/>
<path d="M36.9898 29.6899L36.9398 28.3149L36.7148 29.6899L36.8398 29.9274L36.9898 29.6899Z" fill="#009B3A" stroke="black" stroke-width="0.0125"/>
<path d="M37.7398 28.8648C37.4398 29.1898 36.9773 29.6773 36.7148 30.0273C36.6523 29.5273 36.4898 28.8023 36.4023 28.3398C36.5273 28.7148 36.6898 29.2398 36.8398 29.5398C37.1148 29.3898 37.4648 29.0648 37.7398 28.8648Z" fill="#009B3A" stroke="black" stroke-width="0.0125"/>
<path d="M36.9148 29.8275L37.0648 28.4275L36.6523 29.7525L36.7398 30.0275L36.9148 29.8275Z" fill="#009B3A" stroke="black" stroke-width="0.0125"/>
<path d="M37.6672 28.9148C37.4172 29.2773 36.9797 29.7898 36.7422 30.1648C36.6422 29.6898 36.4297 28.9773 36.3047 28.5398C36.4672 28.8898 36.6547 29.3898 36.8297 29.6773C37.0922 29.5023 37.4172 29.1523 37.6797 28.9273" fill="#009B3A"/>
<path d="M37.6672 28.9148C37.4172 29.2773 36.9797 29.7898 36.7422 30.1648C36.6422 29.6898 36.4297 28.9773 36.3047 28.5398C36.4672 28.8898 36.6547 29.3898 36.8297 29.6773C37.0922 29.5023 37.4172 29.1523 37.6797 28.9273" stroke="black" stroke-width="0.0125"/>
<path d="M36.9156 29.965L36.8156 28.5525L36.6406 29.9525L36.7656 30.2025L36.9031 29.9525" fill="#009B3A"/>
<path d="M36.9156 29.965L36.8156 28.5525L36.6406 29.9525L36.7656 30.2025L36.9031 29.9525" stroke="black" stroke-width="0.0125"/>
<path d="M37.6539 29.0025C37.4039 29.3775 36.9914 29.915 36.7789 30.3025C36.6539 29.8275 36.4039 29.115 36.2539 28.6775C36.4289 29.0275 36.6414 29.5275 36.8414 29.8025C37.0914 29.615 37.4039 29.24 37.6539 29.0025Z" fill="#009B3A" stroke="black" stroke-width="0.0125"/>
<path d="M36.9922 30.09L37.1422 28.6775L36.7422 30.0025L36.8172 30.29L36.9922 30.09Z" fill="#009B3A" stroke="black" stroke-width="0.0125"/>
<path d="M37.5922 29.1399C37.3797 29.5274 37.0297 30.1399 36.8422 30.5524C36.6797 30.1024 36.3672 29.4274 36.1797 29.0024C36.3922 29.3274 36.6422 29.7899 36.8672 30.0524C37.1047 29.8274 37.3672 29.4024 37.5922 29.1274" fill="#009B3A"/>
<path d="M37.5922 29.1399C37.3797 29.5274 37.0297 30.1399 36.8422 30.5524C36.6797 30.1024 36.3672 29.4274 36.1797 29.0024C36.3922 29.3274 36.6422 29.7899 36.8672 30.0524C37.1047 29.8274 37.3672 29.4024 37.5922 29.1274" stroke="black" stroke-width="0.0125"/>
<path d="M36.9547 30.215L36.5547 28.865L36.6797 30.2775L36.8672 30.4775L36.9422 30.215" fill="#009B3A"/>
<path d="M36.9547 30.215L36.5547 28.865L36.6797 30.2775L36.8672 30.4775L36.9422 30.215" stroke="black" stroke-width="0.0125"/>
<path d="M37.5914 29.2898C37.3664 29.6898 36.9914 30.2898 36.8039 30.7023C36.6414 30.2523 36.3289 29.5773 36.1289 29.1648C36.3414 29.4898 36.6039 29.9523 36.8289 30.2023C37.0789 29.9773 37.3539 29.5648 37.5789 29.2898" fill="#009B3A"/>
<path d="M37.5914 29.2898C37.3664 29.6898 36.9914 30.2898 36.8039 30.7023C36.6414 30.2523 36.3289 29.5773 36.1289 29.1648C36.3414 29.4898 36.6039 29.9523 36.8289 30.2023C37.0789 29.9773 37.3539 29.5648 37.5789 29.2898" stroke="black" stroke-width="0.0125"/>
<path d="M36.9664 30.465L36.8164 29.0525L36.6914 30.465L36.8289 30.715L36.9664 30.465Z" fill="#009B3A" stroke="black" stroke-width="0.0125"/>
<path d="M37.6148 29.4149C37.3773 29.8024 36.9898 30.4024 36.8023 30.8024C36.6398 30.3524 36.3398 29.6774 36.1523 29.2524C36.3648 29.5774 36.6148 30.0524 36.8398 30.3024C37.0898 30.0899 37.3773 29.6774 37.6148 29.4149Z" fill="#009B3A" stroke="black" stroke-width="0.0125"/>
<path d="M36.9547 30.5774L36.6922 29.2024L36.6797 30.6024L36.8422 30.8274L36.9547 30.5774Z" fill="#009B3A" stroke="black" stroke-width="0.0125"/>
<path d="M37.5164 29.6148C37.2664 29.9898 36.8539 30.5523 36.6414 30.9523C36.5039 30.4898 36.2289 29.7773 36.0664 29.3523C36.2539 29.6898 36.4914 30.1773 36.6914 30.4523C36.9539 30.2523 37.2664 29.8648 37.5164 29.6148Z" fill="#009B3A" stroke="black" stroke-width="0.0125"/>
<path d="M36.8289 30.7274L36.9539 29.3149L36.5664 30.6524L36.6539 30.9274L36.8289 30.7274Z" fill="#009B3A" stroke="black" stroke-width="0.0125"/>
<path d="M37.5289 29.6398C37.3164 30.0523 36.9539 30.6773 36.7789 31.0898C36.6039 30.6523 36.2789 29.9898 36.0664 29.5898C36.2914 29.8898 36.5664 30.3398 36.7914 30.5898C37.0414 30.3523 37.2914 29.9273 37.5289 29.6523" fill="#009B3A"/>
<path d="M37.5289 29.6398C37.3164 30.0523 36.9539 30.6773 36.7789 31.0898C36.6039 30.6523 36.2789 29.9898 36.0664 29.5898C36.2914 29.8898 36.5664 30.3398 36.7914 30.5898C37.0414 30.3523 37.2914 29.9273 37.5289 29.6523" stroke="black" stroke-width="0.0125"/>
<path d="M36.7891 30.8523L36.3516 29.5273L36.5141 30.9273L36.7016 31.1273L36.7766 30.8523" fill="#009B3A"/>
<path d="M36.7891 30.8523L36.3516 29.5273L36.5141 30.9273L36.7016 31.1273L36.7766 30.8523" stroke="black" stroke-width="0.0125"/>
<path d="M37.4656 29.7524C37.3156 30.2024 37.0656 30.8774 36.9656 31.3399C36.7156 30.9399 36.2781 30.3649 36.0156 30.0024C36.2781 30.2649 36.6281 30.6524 36.8906 30.8399C37.0906 30.5524 37.2906 30.0899 37.4656 29.7524Z" fill="#009B3A" stroke="black" stroke-width="0.0125"/>
<path d="M37.1656 30.9523L36.7031 29.6523L36.9031 31.0523L37.0906 31.2273L37.1656 30.9523Z" fill="#009B3A" stroke="black" stroke-width="0.0125"/>
<path d="M37.4656 29.8899C37.3156 30.3399 37.0656 31.0274 36.9656 31.4774C36.7156 31.0774 36.2906 30.5149 36.0156 30.1649C36.2781 30.4149 36.6281 30.7899 36.8906 30.9899C37.0906 30.7024 37.2906 30.2274 37.4656 29.8899Z" fill="#009B3A" stroke="black" stroke-width="0.0125"/>
<path d="M37.1664 31.1773L36.5664 29.9648L36.9164 31.3148L37.1289 31.4648L37.1789 31.1773" fill="#009B3A"/>
<path d="M37.1664 31.1773L36.5664 29.9648L36.9164 31.3148L37.1289 31.4648L37.1789 31.1773" stroke="black" stroke-width="0.0125"/>
<path d="M37.4156 30.0024C37.3281 30.4649 37.1656 31.1899 37.1031 31.6524C36.8156 31.2899 36.3156 30.7774 36.0156 30.4774C36.3031 30.6899 36.6906 31.0274 36.9781 31.1649C37.1406 30.8524 37.2781 30.3524 37.4156 30.0024Z" fill="#009B3A" stroke="black" stroke-width="0.0125"/>
<path d="M37.2156 31.3649L36.8906 30.0024L36.9406 31.4149L37.1156 31.6274L37.2156 31.3774" fill="#009B3A"/>
<path d="M37.2156 31.3649L36.8906 30.0024L36.9406 31.4149L37.1156 31.6274L37.2156 31.3774" stroke="black" stroke-width="0.0125"/>
<path d="M37.4156 30.1399C37.3656 30.6274 37.2656 31.3649 37.2656 31.8274C36.9406 31.5149 36.4031 31.0774 36.0781 30.8149C36.3781 30.9899 36.7906 31.2649 37.0906 31.3649C37.2156 31.0399 37.3156 30.5149 37.4156 30.1524" fill="#009B3A"/>
<path d="M37.4156 30.1399C37.3656 30.6274 37.2656 31.3649 37.2656 31.8274C36.9406 31.5149 36.4031 31.0774 36.0781 30.8149C36.3781 30.9899 36.7906 31.2649 37.0906 31.3649C37.2156 31.0399 37.3156 30.5149 37.4156 30.1524" stroke="black" stroke-width="0.0125"/>
<path d="M37.2297 31.465L36.3672 30.49L37.0172 31.6775L37.2672 31.7525L37.2297 31.465Z" fill="#009B3A" stroke="black" stroke-width="0.0125"/>
<path d="M37.4398 30.3149C37.3898 30.7899 37.2898 31.5274 37.2773 31.9899C36.9523 31.6774 36.4148 31.2399 36.0898 30.9649C36.4023 31.1399 36.8148 31.4274 37.1023 31.5274C37.2398 31.2024 37.3273 30.6774 37.4398 30.3149Z" fill="#009B3A" stroke="black" stroke-width="0.0125"/>
<path d="M37.3266 31.6899L36.6641 30.5149L37.0766 31.8524L37.2891 31.9899L37.3266 31.7024" fill="#009B3A"/>
<path d="M37.3266 31.6899L36.6641 30.5149L37.0766 31.8524L37.2891 31.9899L37.3266 31.7024" stroke="black" stroke-width="0.0125"/>
<path d="M37.4773 30.5149C37.4398 30.9899 37.3773 31.7274 37.3773 32.2024C36.9861 31.8643 36.5772 31.5472 36.1523 31.2524C36.4773 31.4024 36.9023 31.6649 37.1898 31.7524C37.3148 31.4149 37.3898 30.8774 37.4773 30.5024" fill="#009B3A"/>
<path d="M37.4773 30.5149C37.4398 30.9899 37.3773 31.7274 37.3773 32.2024C36.9861 31.8643 36.5772 31.5472 36.1523 31.2524C36.4773 31.4024 36.9023 31.6649 37.1898 31.7524C37.3148 31.4149 37.3898 30.8774 37.4773 30.5024" stroke="black" stroke-width="0.0125"/>
<path d="M37.4148 31.9149L36.5898 30.8774L37.1898 32.1024L37.4148 32.2024V31.9149Z" fill="#009B3A" stroke="black" stroke-width="0.0125"/>
<path d="M37.4891 30.7398C37.4516 31.2148 37.3891 31.9523 37.4016 32.4273C37.0641 32.1273 36.5141 31.7273 36.1641 31.4773C36.4891 31.6398 36.9141 31.8898 37.2141 31.9773C37.3391 31.6398 37.4016 31.1023 37.4891 30.7273" fill="#009B3A"/>
<path d="M37.4891 30.7398C37.4516 31.2148 37.3891 31.9523 37.4016 32.4273C37.0641 32.1273 36.5141 31.7273 36.1641 31.4773C36.4891 31.6398 36.9141 31.8898 37.2141 31.9773C37.3391 31.6398 37.4016 31.1023 37.4891 30.7273" stroke="black" stroke-width="0.0125"/>
<path d="M37.4766 32.0898L36.9141 30.8398L37.2266 32.2148L37.4266 32.3773L37.4766 32.0898Z" fill="#009B3A" stroke="black" stroke-width="0.0125"/>
<path d="M37.5023 30.8774C37.5273 31.3649 37.5273 32.1024 37.5773 32.5774C37.1559 32.2997 36.7221 32.0411 36.2773 31.8024C36.6023 31.9149 37.0398 32.1024 37.3523 32.1524C37.4398 31.7899 37.4523 31.2649 37.5023 30.8774Z" fill="#009B3A" stroke="black" stroke-width="0.0125"/>
<path d="M37.5766 32.0399L36.5391 31.3274L37.4141 32.3024L37.6641 32.3149L37.5766 32.0399Z" fill="#009B3A" stroke="black" stroke-width="0.0125"/>
<path d="M37.5391 30.9275C37.5766 31.415 37.6266 32.1525 37.7016 32.615C37.3266 32.3775 36.7266 32.0775 36.3516 31.89C36.6891 31.99 37.1391 32.165 37.4516 32.2025C37.5141 31.84 37.5016 31.315 37.5391 30.9275Z" fill="#009B3A" stroke="black" stroke-width="0.0125"/>
<path d="M37.7031 32.3025L36.8281 31.3025L37.4906 32.5025L37.7281 32.59L37.6906 32.3025" fill="#009B3A"/>
<path d="M37.7031 32.3025L36.8281 31.3025L37.4906 32.5025L37.7281 32.59L37.6906 32.3025" stroke="black" stroke-width="0.0125"/>
<path d="M37.6141 31.115C37.6766 31.59 37.7391 32.3275 37.8516 32.79C37.4766 32.5775 36.8516 32.315 36.4766 32.1525C36.8141 32.2275 37.2766 32.3775 37.5766 32.4025C37.6266 32.0275 37.6016 31.5025 37.6141 31.115Z" fill="#009B3A" stroke="black" stroke-width="0.0125"/>
<path d="M37.8656 32.4775L36.8281 31.74L37.7031 32.74L37.9531 32.7525L37.8656 32.4775Z" fill="#009B3A" stroke="black" stroke-width="0.0125"/>
<path d="M37.6531 31.3149C37.7406 31.7899 37.8656 32.5274 37.9906 32.9774C37.6031 32.7899 36.9656 32.5899 36.5781 32.4649C36.9281 32.5024 37.3906 32.6149 37.7031 32.5899C37.7281 32.2274 37.6656 31.7149 37.6531 31.3149Z" fill="#009B3A" stroke="black" stroke-width="0.0125"/>
<path d="M37.9922 32.6273L37.1172 31.6023L37.7672 32.8148L38.0172 32.9148L37.9922 32.6273Z" fill="#009B3A" stroke="black" stroke-width="0.0125"/>
<path d="M37.7039 31.4399C37.8414 31.9024 38.0289 32.6274 38.2039 33.0649C37.7914 32.9399 37.1539 32.8149 36.7539 32.7399C37.1039 32.7399 37.5664 32.7774 37.8789 32.7274C37.8789 32.3524 37.7539 31.8399 37.7039 31.4524" fill="#009B3A"/>
<path d="M37.7039 31.4399C37.8414 31.9024 38.0289 32.6274 38.2039 33.0649C37.7914 32.9399 37.1539 32.8149 36.7539 32.7399C37.1039 32.7399 37.5664 32.7774 37.8789 32.7274C37.8789 32.3524 37.7539 31.8399 37.7039 31.4524" stroke="black" stroke-width="0.0125"/>
<path d="M38.0406 32.6274L36.8281 32.3774L37.9656 32.9399L38.2031 32.8524L38.0281 32.6274" fill="#009B3A"/>
<path d="M38.0406 32.6274L36.8281 32.3774L37.9656 32.9399L38.2031 32.8524L38.0281 32.6274" stroke="black" stroke-width="0.0125"/>
<path d="M37.7906 31.5898C37.9156 32.0523 38.1031 32.7648 38.2656 33.2023C37.8656 33.0773 37.2281 32.9523 36.8281 32.8773C37.1781 32.8773 37.6406 32.9148 37.9531 32.8773C37.9531 32.5023 37.8281 31.9773 37.7906 31.5898Z" fill="#009B3A" stroke="black" stroke-width="0.0125"/>
<path d="M38.2281 32.7524L37.0781 32.1899L38.1031 33.0274L38.3531 33.0024L38.2281 32.7524Z" fill="#009B3A" stroke="black" stroke-width="0.0125"/>
<path d="M37.7289 31.6648C37.9539 32.0898 38.2914 32.7523 38.5414 33.1273C38.1164 33.1023 37.4664 33.1273 37.0664 33.1273C37.4039 33.0648 37.8664 33.0023 38.1539 32.8773C38.0664 32.5148 37.8539 32.0398 37.7289 31.6648Z" fill="#009B3A" stroke="black" stroke-width="0.0125"/>
<path d="M38.4148 32.8775L37.2148 32.5525L38.3398 33.1775L38.5648 33.115L38.4023 32.865" fill="#009B3A"/>
<path d="M38.4148 32.8775L37.2148 32.5525L38.3398 33.1775L38.5648 33.115L38.4023 32.865" stroke="black" stroke-width="0.0125"/>
<path d="M37.8406 31.8523C38.0781 32.2648 38.4156 32.9273 38.6781 33.3023C38.2531 33.2773 37.6031 33.3023 37.2031 33.3273C37.5281 33.2398 38.0031 33.1773 38.2781 33.0523C38.2031 32.6898 37.9781 32.2148 37.8531 31.8523" fill="#009B3A"/>
<path d="M37.8406 31.8523C38.0781 32.2648 38.4156 32.9273 38.6781 33.3023C38.2531 33.2773 37.6031 33.3023 37.2031 33.3273C37.5281 33.2398 38.0031 33.1773 38.2781 33.0523C38.2031 32.6898 37.9781 32.2148 37.8531 31.8523" stroke="black" stroke-width="0.0125"/>
<path d="M38.5539 32.9774L37.4414 32.3149L38.4164 33.2399H38.6664L38.5539 32.9774Z" fill="#009B3A" stroke="black" stroke-width="0.0125"/>
<path d="M37.9414 31.9524C38.2039 32.3399 38.6039 32.9524 38.8914 33.3149C38.404 33.3541 37.9196 33.4251 37.4414 33.5274C37.7664 33.4024 38.2164 33.2774 38.4914 33.1149C38.3664 32.7649 38.1039 32.3024 37.9414 31.9524Z" fill="#009B3A" stroke="black" stroke-width="0.0125"/>
<path d="M38.6414 33.0775L37.4414 33.04L38.6289 33.4025L38.8414 33.265L38.6414 33.0775ZM39.3414 27.2525L40.2039 27.115L39.3414 27.1275L39.1914 27.2025L39.3414 27.2525Z" fill="#009B3A" stroke="black" stroke-width="0.0125"/>
<path d="M39.8172 27.4399C39.5672 27.3649 39.1922 27.2399 38.9297 27.1899L39.8547 26.7524C39.6672 26.8774 39.3797 27.0274 39.2297 27.1524C39.3797 27.2524 39.6422 27.3524 39.8172 27.4399Z" fill="#009B3A" stroke="black" stroke-width="0.0125"/>
<path d="M39.2906 27.2775L40.1406 27.0525L39.2656 27.165L39.1406 27.2525L39.3031 27.2775" fill="#009B3A"/>
<path d="M39.2906 27.2775L40.1406 27.0525L39.2656 27.165L39.1406 27.2525L39.3031 27.2775" stroke="black" stroke-width="0.0125"/>
<path d="M39.8539 27.5024C39.5539 27.4649 39.1039 27.4149 38.8164 27.4149C39.0414 27.2149 39.3414 26.9024 39.5289 26.7024C39.4039 26.8899 39.2039 27.1274 39.1164 27.3024C39.3164 27.3899 39.6289 27.4399 39.8539 27.5024Z" fill="#009B3A" stroke="black" stroke-width="0.0125"/>
<path d="M38.9891 27.3398L39.8641 27.2398L39.0141 27.2148L38.8516 27.2898L38.9766 27.3398" fill="#009B3A"/>
<path d="M38.9891 27.3398L39.8641 27.2398L39.0141 27.2148L38.8516 27.2898L38.9766 27.3398" stroke="black" stroke-width="0.0125"/>
<path d="M39.6289 27.5274L38.6914 27.3649L39.5539 26.8899C39.3789 27.0149 39.1289 27.1899 39.0039 27.3149C39.1664 27.3899 39.4414 27.4649 39.6289 27.5274Z" fill="#009B3A" stroke="black" stroke-width="0.0125"/>
<path d="M38.9172 27.3399L39.6797 27.0024L38.8422 27.2274L38.7422 27.3274H38.9172" fill="#009B3A"/>
<path d="M38.9172 27.3399L39.6797 27.0024L38.8422 27.2274L38.7422 27.3274H38.9172" stroke="black" stroke-width="0.0125"/>
<path d="M39.6031 27.6273C39.3906 27.5398 39.0406 27.3773 38.8281 27.3148L39.3781 26.7148C39.2781 26.8773 39.1281 27.0898 39.0531 27.2648C39.2031 27.3898 39.4281 27.5148 39.6031 27.6273Z" fill="#009B3A" stroke="black" stroke-width="0.0125"/>
<path d="M38.9516 27.3899L39.5516 27.1399L38.9016 27.2149L38.8266 27.3399L38.9516 27.3899ZM38.4516 32.9649H37.2266L38.4766 33.2774L38.6766 33.1524L38.4516 32.9649Z" fill="#009B3A" stroke="black" stroke-width="0.0125"/>
<path d="M38.6797 33.0399L37.4297 32.7524L38.6297 33.3399L38.8797 33.2649L38.6797 33.0399Z" fill="#009B3A" stroke="black" stroke-width="0.0125"/>
<path d="M38.8906 33.1274L37.6406 33.0649L38.8906 33.4399L39.1031 33.3149L38.8906 33.1274Z" fill="#009B3A" stroke="black" stroke-width="0.0125"/>
<path d="M38.1039 32.2524C38.4164 32.6024 38.9039 33.1774 39.2414 33.4899C38.8289 33.5524 38.2039 33.7149 37.8164 33.8274C38.1164 33.6774 38.5664 33.5024 38.8164 33.3274C38.6414 33.0024 38.3164 32.5774 38.1039 32.2524Z" fill="#009B3A" stroke="black" stroke-width="0.0125"/>
<path d="M39.0547 33.1898L37.8047 32.7773L38.9797 33.4773L39.2297 33.4273L39.0547 33.1773" fill="#009B3A"/>
<path d="M39.0547 33.1898L37.8047 32.7773L38.9797 33.4773L39.2297 33.4273L39.0547 33.1773" stroke="black" stroke-width="0.0125"/>
<path d="M38.2148 32.3274C38.5648 32.6524 39.0898 33.1649 39.4648 33.4524C39.0648 33.5649 38.4648 33.8024 38.0898 33.9524C38.3773 33.7774 38.7898 33.5524 39.0148 33.3274C38.8148 33.0274 38.4523 32.6399 38.2148 32.3274Z" fill="#009B3A" stroke="black" stroke-width="0.0125"/>
<path d="M39.1641 33.2649L37.9766 33.5024L39.2266 33.5774L39.4016 33.4149L39.1516 33.2649" fill="#009B3A"/>
<path d="M39.1641 33.2649L37.9766 33.5024L39.2266 33.5774L39.4016 33.4149L39.1516 33.2649" stroke="black" stroke-width="0.0125"/>
<path d="M38.9164 33.1899L37.6914 33.2899L38.9539 33.5024L39.1539 33.3524L38.9039 33.1899" fill="#009B3A"/>
<path d="M38.9164 33.1899L37.6914 33.2899L38.9539 33.5024L39.1539 33.3524L38.9039 33.1899" stroke="black" stroke-width="0.0125"/>
<path d="M39.1422 33.265L37.8672 33.0525L39.1172 33.5525L39.3422 33.465L39.1422 33.2525V33.265Z" fill="#009B3A" stroke="black" stroke-width="0.0125"/>
<path d="M39.3516 33.3274L38.1016 33.3524L39.3766 33.6399L39.5766 33.5024L39.3516 33.3274Z" fill="#009B3A" stroke="black" stroke-width="0.0125"/>
<path d="M38.5031 32.5149C38.8531 32.8399 39.3781 33.3649 39.7406 33.6649C39.3281 33.7524 38.7031 33.9649 38.3281 34.0899C38.6281 33.9274 39.0531 33.7274 39.2906 33.5274C39.0906 33.2149 38.7406 32.8149 38.5031 32.5024V32.5149Z" fill="#009B3A" stroke="black" stroke-width="0.0125"/>
<path d="M39.5289 33.3775L38.2539 33.0525L39.4789 33.6775L39.7164 33.6025L39.5289 33.3775Z" fill="#009B3A" stroke="black" stroke-width="0.0125"/>
<path d="M38.6172 32.5774C38.9922 32.8774 39.5672 33.3524 39.9547 33.6024C39.5547 33.7399 38.9797 34.0399 38.6297 34.2149C38.9047 34.0024 39.2922 33.7524 39.5047 33.5274C39.2797 33.2274 38.8797 32.8649 38.6297 32.5774H38.6172Z" fill="#009B3A" stroke="black" stroke-width="0.0125"/>
<path d="M39.6391 33.4399L38.4766 33.7649H39.7266L39.8891 33.5774L39.6391 33.4524V33.4399Z" fill="#009B3A" stroke="black" stroke-width="0.0125"/>
<path d="M41.2383 31.7024L40.2883 31.0399L39.3383 31.7024L39.7008 30.6524L38.8633 30.0024H39.9383L40.2883 28.9524L40.6383 30.0024H41.7133L40.8758 30.6524L41.2383 31.7024Z" fill="#FEDF00" stroke="black" stroke-width="0.05"/>
</g>
<defs>
<clipPath id="clip0_4447_33263">
<rect width="80" height="60" fill="white" transform="translate(0.289062 0.514893)"/>
</clipPath>
</defs>
</svg>
