<svg width="81" height="61" viewBox="0 0 81 61" fill="none" xmlns="http://www.w3.org/2000/svg">
<g clip-path="url(#clip0_4447_18585)">
<path d="M0.289062 0.514893H80.2891V60.5149H0.289062V0.514893Z" fill="#E41E20"/>
<path d="M34.2906 12.1775C33.7156 12.1775 32.7531 12.365 32.7656 12.8025C31.1406 12.54 30.9781 13.2025 31.0781 13.8025C31.2281 13.565 31.4156 13.4275 31.5656 13.415C31.7781 13.3775 32.0031 13.4525 32.2406 13.59C32.4646 13.7305 32.6668 13.9032 32.8406 14.1025C32.2656 14.24 31.8156 14.1525 31.3656 14.0775C31.1113 14.0233 30.8696 13.9215 30.6531 13.7775C30.4656 13.6525 30.4031 13.5275 30.1156 13.24C29.7781 12.89 29.4156 12.99 29.5281 13.5275C29.7906 14.0275 30.2281 14.2525 30.7781 14.3525C31.0406 14.39 31.4406 14.4775 31.8906 14.4775C32.3406 14.4775 32.8406 14.415 33.1156 14.4775C32.9531 14.5775 32.7656 14.765 32.3906 14.8275C32.0156 14.9025 31.4531 14.6025 31.1031 14.5275C31.1406 14.815 31.5156 15.09 32.2406 15.24C33.4406 15.49 34.4281 15.69 35.0906 16.0525C35.6145 16.3446 36.0772 16.7351 36.4531 17.2025C37.0406 17.89 37.0781 18.4275 37.1031 18.5525C37.2281 19.6525 36.8406 20.2775 36.1156 20.4775C35.7656 20.565 35.1156 20.39 34.8906 20.115C34.6406 19.84 34.4281 19.365 34.4906 18.615C34.5531 18.34 34.8781 17.5775 34.6031 17.4275C33.2997 16.7112 31.9511 16.0807 30.5656 15.54C30.2531 15.415 30.0031 15.84 29.9031 16.015C28.9801 15.8863 28.0974 15.5537 27.319 15.0413C26.5406 14.5288 25.8861 13.8495 25.4031 13.0525C24.8781 12.1025 23.9906 13.0525 24.1406 13.965C24.3781 14.965 25.1406 15.69 26.0656 16.215C27.0031 16.7275 28.1906 17.24 29.3781 17.215C30.0281 17.34 30.0156 18.165 29.2531 18.3275C27.7406 18.3275 26.5281 18.3025 25.3906 17.2025C24.5281 16.415 24.0531 17.3525 24.2906 17.8775C24.7156 19.515 27.0531 19.9775 29.4156 19.4525C30.3406 19.3025 29.7906 20.2775 29.5406 20.29C28.5406 21.0025 26.7781 21.69 25.2156 20.29C24.5031 19.74 24.0156 20.19 24.2906 20.9775C24.9781 23.04 27.6281 22.6025 29.4406 21.6025C29.9031 21.34 30.3281 21.94 29.7656 22.4025C27.5031 23.9775 26.3781 24.0025 25.3531 23.4025C24.0781 22.89 23.9781 24.3025 24.7281 24.7775C25.5656 25.2775 27.7031 24.9025 29.2781 23.9025C29.9531 23.4025 29.9781 24.19 29.5531 24.5025C27.6906 26.115 26.9531 26.54 25.0156 26.2775C24.0531 26.2025 24.0656 27.39 24.8156 27.8525C25.8531 28.49 27.8781 27.44 29.4406 26.1275C30.1031 25.7775 30.2156 26.3525 29.8906 27.04C29.1987 28.0191 28.258 28.7958 27.1656 29.29C26.2906 29.6275 25.4656 29.5775 24.8781 29.3775C24.1531 29.1275 24.0656 29.8775 24.4656 30.5525C24.7031 30.965 25.6906 31.09 26.7656 30.715C27.8406 30.34 28.9906 29.44 29.7781 28.4025C30.4656 27.79 30.3906 28.6025 30.0656 29.1775C28.4906 31.6775 27.0406 32.6025 25.1281 32.4525C24.2906 32.3025 24.0906 32.9525 24.6281 33.5775C25.5781 34.3525 26.7531 34.3275 27.8031 33.5525C28.7156 32.6775 30.4781 30.7525 31.4031 29.7275C32.0531 29.215 32.2656 29.7275 32.0656 30.7775C31.8906 31.3775 31.4656 32.0275 30.2781 32.4775C29.4656 32.94 30.0781 33.5775 30.6781 33.6025C31.0156 33.6025 31.6906 33.2025 32.2156 32.6275C32.8906 31.8525 32.9406 31.34 33.3156 30.14C33.6656 29.565 34.3031 29.84 34.3031 30.44C33.9906 31.64 33.7406 31.8525 33.1156 32.34C32.5281 32.9025 33.5281 33.09 33.8656 32.8525C34.8406 32.2025 35.1906 31.3525 35.5156 30.5775C35.7656 30.0275 36.4406 30.29 36.1156 31.2025C35.3656 33.3775 34.1156 34.2275 31.9531 34.6775C31.7406 34.715 31.6031 34.84 31.6781 35.09L32.5531 35.965C31.2156 36.365 30.1281 36.59 28.7781 36.965L26.9281 35.74C26.7656 35.34 26.6781 34.715 25.7031 35.1525C25.0531 34.8525 24.7406 34.965 24.3781 35.2775C24.9031 35.2775 25.1281 35.4275 25.3406 35.665C25.6156 36.3775 26.2406 36.4525 26.8781 36.2525C27.2906 36.59 27.5031 36.865 27.9281 37.215L25.8406 37.1525C25.0906 36.365 24.5156 36.4025 23.9906 37.0275C23.5781 37.09 23.4156 37.09 23.1406 37.5775C23.5656 37.4025 23.8406 37.3525 24.0281 37.54C24.8156 38.0025 25.3281 37.9025 25.7156 37.54L27.9031 37.6775C27.6281 37.9275 27.2531 38.0525 26.9656 38.2775C25.8406 37.9525 25.2406 38.4025 25.0406 39.315C24.8826 39.6808 24.8307 40.0836 24.8906 40.4775C24.9906 40.1025 25.1781 39.79 25.5031 39.6025C26.5031 39.8525 26.8781 39.44 26.9406 38.84C27.4406 38.44 28.1656 38.3525 28.6531 37.9525C29.2281 38.1275 29.5031 38.24 30.0781 38.4275C30.2781 39.0525 30.7406 39.29 31.4906 39.1275C32.3656 39.1525 32.2156 39.5275 32.2906 39.815C32.5406 39.4025 32.5281 38.99 31.9781 38.615C31.7781 38.0775 31.3281 37.8275 30.7531 38.14C30.2031 37.99 30.0656 37.765 29.5156 37.6025C30.8906 37.165 31.8656 37.065 33.2406 36.6275L34.2031 37.4775C34.3906 37.59 34.5656 37.615 34.6781 37.4775C35.5406 36.2275 35.9281 35.14 36.7156 34.315C37.0281 33.965 37.4156 33.515 37.8406 33.4025C38.0531 33.34 38.3156 33.3775 38.4906 33.565C38.6531 33.74 38.7906 34.0775 38.7406 34.59C38.6531 35.3025 38.4781 35.54 38.2781 35.965C38.0656 36.4025 37.8281 36.665 37.5656 37.0025C37.0656 37.665 36.3906 38.0525 35.9906 38.315C35.1906 38.8275 34.8656 38.6025 34.2406 38.565C33.4406 38.6525 33.2406 39.04 33.8906 39.5775C34.4906 39.9025 35.0406 39.94 35.4906 39.8525C35.8656 39.7775 36.3156 39.29 36.6406 39.0275C36.9906 38.615 37.5906 39.1025 37.1781 39.59C36.4406 40.465 35.7156 41.04 34.8031 41.0275C33.8406 41.1525 34.0281 41.69 34.6531 41.9525C35.8031 42.415 36.8281 41.54 37.3531 40.9525C37.7531 40.515 38.0406 40.5025 37.9781 41.19C37.5656 42.4275 37.0281 42.9025 36.1281 42.965C35.4031 42.89 35.3906 43.465 35.9281 43.84C37.1281 44.665 38.0031 43.24 38.4156 42.39C38.7031 41.615 39.1531 41.9775 39.2031 42.615C39.2031 43.4775 38.8281 44.165 37.7906 45.04C38.5781 46.3025 39.5031 47.59 40.2906 48.8525L42.6906 22.1025L40.2906 17.89C40.0406 17.665 39.1906 16.665 38.9781 16.515C38.8906 16.44 38.8531 16.39 38.9656 16.34C39.0781 16.29 39.3406 16.24 39.5281 16.215C39.0281 15.7025 38.5781 15.54 37.6156 15.265C37.8531 15.165 38.0781 15.215 38.7781 15.19C38.3486 14.6129 37.7631 14.1705 37.0906 13.915C37.6156 13.54 37.7156 13.515 38.2406 13.0775C37.4125 13.0135 36.5946 12.8541 35.8031 12.6025C35.3304 12.3779 34.8234 12.2342 34.3031 12.1775H34.2906ZM34.3906 13.2275C34.8656 13.2275 35.1531 13.39 35.1531 13.59C35.1531 13.79 34.8656 13.9525 34.3906 13.9525C33.9156 13.9525 33.6156 13.765 33.6156 13.5775C33.6156 13.3775 33.9156 13.2275 34.3906 13.2275Z" fill="black"/>
<path d="M46.2875 12.1775C46.8625 12.1775 47.825 12.365 47.8125 12.8025C49.4375 12.54 49.6 13.2025 49.5 13.8025C49.35 13.565 49.1625 13.4275 49.0125 13.415C48.8 13.3775 48.575 13.4525 48.3375 13.59C48.1135 13.7305 47.9113 13.9032 47.7375 14.1025C48.3125 14.24 48.7625 14.1525 49.2125 14.0775C49.4668 14.0233 49.7085 13.9215 49.925 13.7775C50.1125 13.6525 50.175 13.5275 50.4625 13.24C50.8 12.89 51.1625 12.99 51.05 13.5275C50.7875 14.0275 50.35 14.2525 49.8 14.3525C49.5375 14.39 49.1375 14.4775 48.6875 14.4775C48.2375 14.4775 47.7375 14.415 47.4625 14.4775C47.625 14.5775 47.8125 14.765 48.1875 14.8275C48.5625 14.9025 49.125 14.6025 49.475 14.5275C49.4375 14.815 49.0625 15.09 48.3375 15.24C47.1375 15.49 46.15 15.69 45.4875 16.0525C44.9636 16.3446 44.501 16.7351 44.125 17.2025C43.5375 17.89 43.5 18.4275 43.475 18.5525C43.35 19.6525 43.7375 20.2775 44.4625 20.4775C44.8125 20.565 45.4625 20.39 45.6875 20.115C45.9375 19.84 46.15 19.365 46.0875 18.615C46.025 18.34 45.7 17.5775 45.975 17.4275C47.2784 16.7112 48.6271 16.0807 50.0125 15.54C50.325 15.415 50.575 15.84 50.675 16.015C51.598 15.8863 52.4807 15.5537 53.2591 15.0413C54.0375 14.5288 54.692 13.8495 55.175 13.0525C55.7 12.1025 56.5875 13.0525 56.4375 13.965C56.2 14.965 55.4375 15.69 54.5125 16.215C53.575 16.7275 52.3875 17.24 51.2 17.215C50.55 17.34 50.5625 18.165 51.325 18.3275C52.8375 18.3275 54.05 18.3025 55.1875 17.2025C56.05 16.415 56.525 17.3525 56.2875 17.8775C55.8625 19.515 53.525 19.9775 51.1625 19.4525C50.2375 19.3025 50.7875 20.2775 51.0375 20.29C52.0375 21.0025 53.8 21.69 55.3625 20.29C56.075 19.74 56.5625 20.19 56.2875 20.9775C55.6 23.04 52.95 22.6025 51.1375 21.6025C50.675 21.34 50.25 21.94 50.8125 22.4025C53.075 23.9775 54.2 24.0025 55.225 23.4025C56.5 22.89 56.6 24.3025 55.85 24.7775C55.0125 25.2775 52.875 24.9025 51.3 23.9025C50.625 23.4025 50.6 24.19 51.025 24.5025C52.8875 26.115 53.625 26.54 55.5625 26.2775C56.525 26.2025 56.5125 27.39 55.7625 27.8525C54.725 28.49 52.7 27.44 51.1375 26.1275C50.475 25.7775 50.3625 26.3525 50.6875 27.04C51.3795 28.0191 52.3202 28.7958 53.4125 29.29C54.2875 29.6275 55.1125 29.5775 55.7 29.3775C56.425 29.1275 56.5125 29.8775 56.1125 30.5525C55.875 30.965 54.8875 31.09 53.8125 30.715C52.7375 30.34 51.5875 29.44 50.8 28.4025C50.1125 27.79 50.1875 28.6025 50.5125 29.1775C52.0875 31.6775 53.5375 32.6025 55.45 32.4525C56.2875 32.3025 56.4875 32.9525 55.95 33.5775C55 34.3525 53.825 34.3275 52.775 33.5525C51.8625 32.6775 50.1 30.7525 49.175 29.7275C48.525 29.215 48.3125 29.7275 48.5125 30.7775C48.6875 31.3775 49.1125 32.0275 50.3 32.4775C51.1125 32.94 50.5 33.5775 49.9 33.6025C49.5625 33.6025 48.8875 33.2025 48.3625 32.6275C47.6875 31.8525 47.6375 31.34 47.2625 30.14C46.9125 29.565 46.275 29.84 46.275 30.44C46.5875 31.64 46.8375 31.8525 47.4625 32.34C48.05 32.9025 47.05 33.09 46.7125 32.8525C45.7375 32.2025 45.3875 31.3525 45.0625 30.5775C44.8125 30.0275 44.1375 30.29 44.4625 31.2025C45.2125 33.3775 46.4625 34.2275 48.625 34.6775C48.8375 34.715 48.975 34.84 48.9 35.09L48.025 35.965C49.3625 36.365 50.45 36.59 51.8 36.965L53.65 35.74C53.8125 35.34 53.9 34.715 54.875 35.1525C55.525 34.8525 55.8375 34.965 56.2 35.2775C55.675 35.2775 55.45 35.4275 55.2375 35.665C54.9625 36.3775 54.3375 36.4525 53.7 36.2525C53.2875 36.59 53.075 36.865 52.65 37.215L54.7375 37.1525C55.4875 36.365 56.0625 36.4025 56.5875 37.0275C57 37.09 57.1625 37.09 57.4375 37.5775C57.0125 37.4025 56.7375 37.3525 56.55 37.54C55.7625 38.0025 55.25 37.9025 54.8625 37.54L52.675 37.6775C52.95 37.9275 53.325 38.0525 53.6125 38.2775C54.7375 37.9525 55.3375 38.4025 55.5375 39.315C55.6955 39.6808 55.7475 40.0836 55.6875 40.4775C55.5875 40.1025 55.4 39.79 55.075 39.6025C54.075 39.8525 53.7 39.44 53.6375 38.84C53.1375 38.44 52.4125 38.3525 51.925 37.9525C51.35 38.1275 51.075 38.24 50.5 38.4275C50.3 39.0525 49.8375 39.29 49.0875 39.1275C48.2125 39.1525 48.3625 39.5275 48.2875 39.815C48.0375 39.4025 48.05 38.99 48.6 38.615C48.8 38.0775 49.25 37.8275 49.825 38.14C50.375 37.99 50.5125 37.765 51.0625 37.6025C49.6875 37.165 48.7125 37.065 47.3375 36.6275L46.375 37.4775C46.1875 37.59 46.0125 37.615 45.9 37.4775C45.0375 36.2275 44.65 35.14 43.8625 34.315C43.55 33.965 43.1625 33.515 42.7375 33.4025C42.525 33.34 42.2625 33.3775 42.0875 33.565C41.925 33.74 41.7875 34.0775 41.8375 34.59C41.925 35.3025 42.1 35.54 42.3 35.965C42.5125 36.4025 42.75 36.665 43.0125 37.0025C43.5125 37.665 44.1875 38.0525 44.5875 38.315C45.3875 38.8275 45.7125 38.6025 46.3375 38.565C47.1375 38.6525 47.3375 39.04 46.6875 39.5775C46.0875 39.9025 45.5375 39.94 45.0875 39.8525C44.7125 39.7775 44.2625 39.29 43.9375 39.0275C43.5875 38.615 42.9875 39.1025 43.4 39.59C44.1375 40.465 44.8625 41.04 45.775 41.0275C46.7375 41.1525 46.55 41.69 45.925 41.9525C44.775 42.415 43.75 41.54 43.225 40.9525C42.825 40.515 42.5375 40.5025 42.6 41.19C43.0125 42.4275 43.55 42.9025 44.45 42.965C45.175 42.89 45.1875 43.465 44.65 43.84C43.45 44.665 42.575 43.24 42.1625 42.39C41.875 41.615 41.425 41.9775 41.375 42.615C41.375 43.4775 41.75 44.165 42.7875 45.04C42 46.3025 41.075 47.59 40.2875 48.8525L37.8875 22.1025L40.2875 17.89C40.5375 17.665 41.3875 16.665 41.6 16.515C41.6875 16.44 41.725 16.39 41.6125 16.34C41.5 16.29 41.2375 16.24 41.05 16.215C41.55 15.7025 42 15.54 42.9625 15.265C42.725 15.165 42.5 15.215 41.8 15.19C42.2295 14.6129 42.815 14.1705 43.4875 13.915C42.9625 13.54 42.8625 13.515 42.3375 13.0775C43.1656 13.0135 43.9835 12.8541 44.775 12.6025C45.2477 12.3779 45.7547 12.2342 46.275 12.1775H46.2875ZM46.1875 13.2275C45.7125 13.2275 45.425 13.39 45.425 13.59C45.425 13.79 45.7125 13.9525 46.1875 13.9525C46.6625 13.9525 46.9625 13.765 46.9625 13.5775C46.9625 13.3775 46.6625 13.2275 46.1875 13.2275Z" fill="black"/>
</g>
<defs>
<clipPath id="clip0_4447_18585">
<rect width="80" height="60" fill="white" transform="translate(0.289062 0.514893)"/>
</clipPath>
</defs>
</svg>
