<svg width="81" height="61" viewBox="0 0 81 61" fill="none" xmlns="http://www.w3.org/2000/svg">
<g clip-path="url(#clip0_4447_33022)">
<path d="M0.289062 0.514893H80.2891V30.5149H0.289062V0.514893Z" fill="#0038A8"/>
<path d="M0.289062 30.5149H80.2891V60.5149H0.289062V30.5149Z" fill="#CE1126"/>
<path d="M52.2516 30.5149L0.289062 60.5149V0.514893" fill="white"/>
<path d="M3.62656 5.81494L5.41406 7.38994L7.48906 6.23994L6.56406 8.42744L8.31406 10.0524L5.93906 9.85244L4.92656 12.0024L4.38906 9.68994L2.03906 9.38994L4.07656 8.13994L3.62656 5.81494ZM44.1016 27.3524L44.1516 29.7274L46.4016 30.5149L44.1516 31.2899L44.1016 33.6649L42.6641 31.7774L40.3891 32.4649L41.7391 30.5149L40.3891 28.5649L42.6641 29.2524L44.1016 27.3524ZM4.93906 49.0274L5.93906 51.1774L8.31406 50.9774L6.57656 52.6024L7.50156 54.7899L5.42656 53.6524L3.62656 55.2024L4.07656 52.8649L2.03906 51.6399L4.40156 51.3399L4.93906 49.0274ZM19.2141 17.9024L18.4391 18.6774L18.8266 24.5524L18.4516 24.5899L17.7391 19.2274L17.1016 19.8524L18.0516 24.6524C17.2834 24.8036 16.5527 25.1053 15.9016 25.5399L13.1891 21.4899H12.2891L15.5891 25.7774C15.4864 25.8575 15.3863 25.9409 15.2891 26.0274L11.4016 21.5899H10.3016V22.6899L14.7266 26.5649L14.4766 26.8774L10.1891 23.5899V24.4774L14.2516 27.1899C13.8266 27.8399 13.5141 28.5649 13.3641 29.3399L8.57656 28.3899L7.93906 29.0149L13.3016 29.7274C13.2766 29.8524 13.2641 29.9899 13.2641 30.1149L7.38906 29.7399L6.61406 30.5149L7.38906 31.2899L13.2641 30.9024L13.3016 31.2899L7.93906 32.0024L8.56406 32.6274L13.3641 31.6774C13.5153 32.4456 13.8169 33.1763 14.2516 33.8274L10.1891 36.5399V37.4399L14.4766 34.1524C14.5566 34.2551 14.64 34.3552 14.7266 34.4524L10.3016 38.3274V39.4274H11.4141L15.2891 35.0024L15.6016 35.2524L12.2891 39.5399H13.1891L15.9016 35.4774C16.5391 35.9024 17.2766 36.2149 18.0516 36.3649L17.1016 41.1649L17.7266 41.7899L18.4391 36.4274C18.5641 36.4524 18.6891 36.4649 18.8266 36.4649L18.4516 42.3399L19.2141 43.1149L20.0016 42.3399L19.6141 36.4649L19.9891 36.4274L20.7016 41.8024L21.3391 41.1649L20.3891 36.3649C21.1572 36.2137 21.8879 35.9121 22.5391 35.4774L25.2516 39.5399H26.1516L22.8516 35.2524C22.9542 35.1724 23.0543 35.089 23.1516 35.0024L27.0391 39.4274H28.1391V38.3274L23.7141 34.4524L23.9641 34.1524L28.2516 37.4399V36.5399L24.1891 33.8274C24.6141 33.1899 24.9266 32.4524 25.0766 31.6774L29.8641 32.6274L30.5016 32.0024L25.1391 31.2899C25.1641 31.1649 25.1766 31.0399 25.1766 30.9024L31.0516 31.2774L31.8266 30.5149L31.0516 29.7399L25.1766 30.1149L25.1391 29.7399L30.5016 29.0274L29.8766 28.4024L25.0766 29.3399C24.9254 28.5718 24.6237 27.8411 24.1891 27.1899L28.2516 24.4774V23.5899L23.9641 26.8774C23.884 26.7748 23.8006 26.6747 23.7141 26.5774L28.1391 22.7024V21.5899H27.0391L23.1641 26.0274C23.0627 25.9407 22.9585 25.8573 22.8516 25.7774L26.1516 21.4899H25.2516L22.5391 25.5399C21.9016 25.1149 21.1641 24.8024 20.3891 24.6524L21.3391 19.8649L20.7141 19.2399L20.0016 24.5899L19.6141 24.5524L19.9891 18.6774L19.2141 17.9024Z" fill="#FCD116"/>
</g>
<defs>
<clipPath id="clip0_4447_33022">
<rect width="80" height="60" fill="white" transform="translate(0.289062 0.514893)"/>
</clipPath>
</defs>
</svg>
