<svg width="81" height="61" viewBox="0 0 81 61" fill="none" xmlns="http://www.w3.org/2000/svg">
<g clip-path="url(#clip0_4447_18939)">
<path d="M0.300781 0.514893H80.3008V60.5149H0.300781V0.514893Z" fill="#3F9C35"/>
<path d="M0.300781 0.514893H80.3008V40.5149H0.300781V0.514893Z" fill="#ED2939"/>
<path d="M0.300781 0.514893H80.3008V20.5149H0.300781V0.514893Z" fill="#00B9E4"/>
<path d="M38.2891 39.5149C43.2596 39.5149 47.2891 35.4855 47.2891 30.5149C47.2891 25.5443 43.2596 21.5149 38.2891 21.5149C33.3185 21.5149 29.2891 25.5443 29.2891 30.5149C29.2891 35.4855 33.3185 39.5149 38.2891 39.5149Z" fill="white"/>
<path d="M40.2891 38.0149C44.4312 38.0149 47.7891 34.657 47.7891 30.5149C47.7891 26.3728 44.4312 23.0149 40.2891 23.0149C36.1469 23.0149 32.7891 26.3728 32.7891 30.5149C32.7891 34.657 36.1469 38.0149 40.2891 38.0149Z" fill="#ED2939"/>
<path d="M48.2891 25.5149L49.2516 28.2024L51.8266 26.9774L50.6016 29.5649L53.2891 30.5149L50.6016 31.4774L51.8266 34.0524L49.2516 32.8274L48.2891 35.5149L47.3266 32.8274L44.7516 34.0524L45.9766 31.4774L43.2891 30.5149L45.9766 29.5524L44.7516 26.9774L47.3266 28.2024L48.2891 25.5149Z" fill="white"/>
</g>
<defs>
<clipPath id="clip0_4447_18939">
<rect width="80" height="60" fill="white" transform="translate(0.289062 0.514893)"/>
</clipPath>
</defs>
</svg>
