<svg width="81" height="61" viewBox="0 0 81 61" fill="none" xmlns="http://www.w3.org/2000/svg">
<g clip-path="url(#clip0_4447_36501)">
<path d="M0.289062 0.514893H80.2891V60.5149H0.289062V0.514893Z" fill="#CF142B"/>
<path d="M0.289062 0.514893H80.2891V40.5149H0.289062V0.514893Z" fill="#00247D"/>
<path d="M0.289062 0.514893H80.2891V20.5149H0.289062V0.514893Z" fill="#FFCC00"/>
<path d="M43.848 22.3265L42.6926 24.5598L43.9932 25.2461L43.848 22.3265Z" fill="white"/>
<path d="M43.8473 22.3266L44.1692 24.8203L42.7123 25.0204L43.8473 22.3266Z" fill="white"/>
<path d="M45.8895 24.4407L43.4085 24.032L43.1577 25.481L45.8895 24.4407Z" fill="white"/>
<path d="M45.8878 24.4406L43.6155 25.5174L42.9751 24.1936L45.8878 24.4406Z" fill="white"/>
<path d="M41.2037 23.6146L42.9706 25.4036L44.0252 24.3787L41.2037 23.6146Z" fill="white"/>
<path d="M41.2026 23.6146L43.6738 24.0791L43.4138 25.5265L41.2026 23.6146Z" fill="white"/>
<path d="M44.5095 27.0353L44.1315 24.5494L42.6759 24.7587L44.5095 27.0353Z" fill="white"/>
<path d="M44.51 27.0352L42.7838 25.2069L43.8449 24.1887L44.51 27.0352Z" fill="white"/>
<path d="M41.6157 26.5249L43.8631 25.3973L43.2143 24.0776L41.6157 26.5249Z" fill="white"/>
<path d="M41.6147 26.5249L42.8202 24.3182L44.1164 25.0127L41.6147 26.5249Z" fill="white"/>
<path d="M50.5362 24.7615L48.6867 26.4649L49.6742 27.5546L50.5362 24.7615Z" fill="white"/>
<path d="M50.538 24.7615L49.9875 27.2149L48.5501 26.9046L50.538 24.7615Z" fill="white"/>
<path d="M51.7308 27.4463L49.5392 26.2137L48.8079 27.4895L51.7308 27.4463Z" fill="white"/>
<path d="M51.7302 27.4463L49.2267 27.6809L49.0776 26.218L51.7302 27.4463Z" fill="white"/>
<path d="M47.616 25.0687L48.6645 27.3541L50.006 26.7517L47.616 25.0687Z" fill="white"/>
<path d="M47.6145 25.0687L49.7778 26.3504L49.0385 27.6216L47.6145 25.0687Z" fill="white"/>
<path d="M49.5471 29.4129L50.0421 26.9476L48.6027 26.6464L49.5471 29.4129Z" fill="white"/>
<path d="M49.5467 29.4128L48.5499 27.1044L49.8952 26.5105L49.5467 29.4128Z" fill="white"/>
<path d="M47.0035 27.9435L49.5011 27.6525L49.3428 26.1905L47.0035 27.9435Z" fill="white"/>
<path d="M47.0043 27.9435L48.8917 26.2821L49.8723 27.3781L47.0043 27.9435Z" fill="white"/>
<path d="M55.9899 29.3377L53.6693 30.3059L54.2245 31.6676L55.9899 29.3377Z" fill="white"/>
<path d="M55.9906 29.3378L54.6341 31.455L53.3895 30.6718L55.9906 29.3378Z" fill="white"/>
<path d="M56.1963 32.2696L54.5584 30.3617L53.4349 31.3105L56.1963 32.2696Z" fill="white"/>
<path d="M56.1982 32.2695L53.7655 31.6337L54.1257 30.208L56.1982 32.2695Z" fill="white"/>
<path d="M53.1368 28.6268L53.3405 31.133L54.8071 31.0257L53.1368 28.6268Z" fill="white"/>
<path d="M53.1366 28.6267L54.7311 30.5709L53.6016 31.5126L53.1366 28.6267Z" fill="white"/>
<path d="M53.4715 33.3706L54.7798 31.2233L53.5303 30.448L53.4715 33.3706Z" fill="white"/>
<path d="M53.4699 33.3707L53.3228 30.8605L54.7901 30.7626L53.4699 33.3707Z" fill="white"/>
<path d="M51.5805 31.1193L54.027 31.7L54.3782 30.272L51.5805 31.1193Z" fill="white"/>
<path d="M51.5797 31.1193L53.9215 30.2037L54.4681 31.5689L51.5797 31.1193Z" fill="white"/>
<path d="M59.5495 35.5036L57.0377 35.6197L57.0937 37.0892L59.5495 35.5036Z" fill="white"/>
<path d="M59.5482 35.5035L57.5494 37.0291L56.6477 35.8674L59.5482 35.5035Z" fill="white"/>
<path d="M58.741 38.3287L57.8544 35.9757L56.4742 36.483L58.741 38.3287Z" fill="white"/>
<path d="M58.7394 38.3288L56.6708 36.8993L57.497 35.6828L58.7394 38.3288Z" fill="white"/>
<path d="M57.1128 33.8601L56.447 36.2848L57.8619 36.6856L57.1128 33.8601Z" fill="white"/>
<path d="M57.1137 33.8602L57.947 36.2325L56.5636 36.7311L57.1137 33.8602Z" fill="white"/>
<path d="M55.8001 38.4312L57.7639 36.8609L56.8549 35.705L55.8001 38.4312Z" fill="white"/>
<path d="M55.8015 38.4311L56.5218 36.022L57.934 36.4318L55.8015 38.4311Z" fill="white"/>
<path d="M54.7966 35.6694L56.8969 37.0519L57.7153 35.8302L54.7966 35.6694Z" fill="white"/>
<path d="M54.7972 35.6694L57.3109 35.61L57.3576 37.0798L54.7972 35.6694Z" fill="white"/>
<path d="M21.026 35.5035L23.0248 37.0291L23.9265 35.8674L21.026 35.5035Z" fill="white"/>
<path d="M21.0247 35.5036L23.5365 35.6197L23.4805 37.0892L21.0247 35.5036Z" fill="white"/>
<path d="M23.4644 33.8602L22.6311 36.2325L24.0145 36.7311L23.4644 33.8602Z" fill="white"/>
<path d="M23.4653 33.8601L24.1311 36.2848L22.7162 36.6856L23.4653 33.8601Z" fill="white"/>
<path d="M21.8348 38.3285L23.9034 36.8991L23.0772 35.6825L21.8348 38.3285Z" fill="white"/>
<path d="M21.8332 38.3284L22.7198 35.9755L24.1 36.4828L21.8332 38.3284Z" fill="white"/>
<path d="M25.777 35.6694L23.2633 35.61L23.2166 37.0798L25.777 35.6694Z" fill="white"/>
<path d="M25.7776 35.6694L23.6773 37.0519L22.8589 35.8302L25.7776 35.6694Z" fill="white"/>
<path d="M24.7728 38.4311L24.0525 36.022L22.6402 36.4318L24.7728 38.4311Z" fill="white"/>
<path d="M24.7741 38.4312L22.8103 36.8609L23.7193 35.705L24.7741 38.4312Z" fill="white"/>
<path d="M24.5837 29.3378L25.9401 31.455L27.1847 30.6718L24.5837 29.3378Z" fill="white"/>
<path d="M24.5843 29.3377L26.9049 30.3059L26.3497 31.6676L24.5843 29.3377Z" fill="white"/>
<path d="M27.4337 28.6269L25.8392 30.5712L26.9687 31.5129L27.4337 28.6269Z" fill="white"/>
<path d="M27.4335 28.627L27.2299 31.1332L25.7632 31.026L27.4335 28.627Z" fill="white"/>
<path d="M24.3799 32.2695L26.8127 31.6337L26.4524 30.208L24.3799 32.2695Z" fill="white"/>
<path d="M24.3818 32.2696L26.0197 30.3617L27.1432 31.3105L24.3818 32.2696Z" fill="white"/>
<path d="M28.9907 31.119L26.6488 30.2034L26.1023 31.5686L28.9907 31.119Z" fill="white"/>
<path d="M28.9898 31.119L26.5433 31.6998L26.1921 30.2718L28.9898 31.119Z" fill="white"/>
<path d="M27.1004 33.3704L27.2475 30.8603L25.7802 30.7623L27.1004 33.3704Z" fill="white"/>
<path d="M27.0988 33.3703L25.7905 31.223L27.04 30.4477L27.0988 33.3703Z" fill="white"/>
<path d="M30.0362 24.7615L30.5867 27.2149L32.0242 26.9046L30.0362 24.7615Z" fill="white"/>
<path d="M30.038 24.7615L31.8875 26.4649L30.9001 27.5546L30.038 24.7615Z" fill="white"/>
<path d="M32.9597 25.0687L30.7964 26.3504L31.5357 27.6216L32.9597 25.0687Z" fill="white"/>
<path d="M32.9583 25.0687L31.9097 27.3541L30.5682 26.7517L32.9583 25.0687Z" fill="white"/>
<path d="M28.8402 27.4463L31.3436 27.6809L31.4927 26.218L28.8402 27.4463Z" fill="white"/>
<path d="M28.8395 27.4463L31.0311 26.2137L31.7624 27.4895L28.8395 27.4463Z" fill="white"/>
<path d="M33.5699 27.9435L31.6825 26.2821L30.702 27.3781L33.5699 27.9435Z" fill="white"/>
<path d="M33.5707 27.9435L31.0731 27.6525L31.2315 26.1905L33.5707 27.9435Z" fill="white"/>
<path d="M31.0236 29.4128L32.0204 27.1044L30.6751 26.5105L31.0236 29.4128Z" fill="white"/>
<path d="M31.0232 29.4129L30.5282 26.9476L31.9676 26.6464L31.0232 29.4129Z" fill="white"/>
<path d="M36.7308 22.3263L36.4089 24.8201L37.8658 25.0201L36.7308 22.3263Z" fill="white"/>
<path d="M36.7301 22.3263L37.8855 24.5596L36.5849 25.2459L36.7301 22.3263Z" fill="white"/>
<path d="M39.3716 23.6146L36.9005 24.0791L37.1604 25.5265L39.3716 23.6146Z" fill="white"/>
<path d="M39.3706 23.6146L37.6036 25.4036L36.549 24.3787L39.3706 23.6146Z" fill="white"/>
<path d="M34.6903 24.4404L36.9626 25.5171L37.603 24.1934L34.6903 24.4404Z" fill="white"/>
<path d="M34.6886 24.4405L37.1696 24.0318L37.4204 25.4808L34.6886 24.4405Z" fill="white"/>
<path d="M38.9634 26.5251L37.758 24.3184L36.4617 25.0129L38.9634 26.5251Z" fill="white"/>
<path d="M38.9624 26.5252L36.715 25.3975L37.3638 24.0778L38.9624 26.5252Z" fill="white"/>
<path d="M36.0681 27.0355L37.7943 25.2072L36.7332 24.189L36.0681 27.0355Z" fill="white"/>
<path d="M36.0686 27.0356L36.4466 24.5497L37.9022 24.7589L36.0686 27.0356Z" fill="white"/>
</g>
<defs>
<clipPath id="clip0_4447_36501">
<rect width="80" height="60" fill="white" transform="translate(0.289062 0.514893)"/>
</clipPath>
</defs>
</svg>
