<svg width="81" height="61" viewBox="0 0 81 61" fill="none" xmlns="http://www.w3.org/2000/svg">
<g clip-path="url(#clip0_4447_30758)">
<mask id="mask0_4447_30758" style="mask-type:luminance" maskUnits="userSpaceOnUse" x="0" y="0" width="81" height="61">
<path d="M0.277344 0.514893H80.2812V60.5149H0.277344V0.514893Z" fill="white"/>
</mask>
<g mask="url(#mask0_4447_30758)">
<path fill-rule="evenodd" clip-rule="evenodd" d="M-4.76172 0.514893H85.332V60.5149H-4.76172V0.514893Z" fill="#FF0000"/>
<path fill-rule="evenodd" clip-rule="evenodd" d="M22.6016 31.1126C24.1953 29.1672 27.5117 31.0657 30.2188 29.6711C27.0078 29.8469 25.2617 28.1243 22.7305 28.3704C25.3555 26.7532 27.5938 28.8977 30.5234 28.0422C26.6445 27.7141 26.8086 25.968 23.2695 25.7219C26.4102 24.386 27.957 27.1047 31.0391 26.4836C27.4062 25.6516 26.9375 23.5188 24.2422 23.0618C28.1797 22.4758 27.9219 24.7961 31.7773 25.0774C27.8633 23.4016 28.8828 21.9368 25.6133 20.6594C29.2812 20.5774 29.0352 23.1204 32.7617 23.7766C29.5742 21.761 29.9609 19.9211 27.3477 18.4797C30.4531 18.5383 30.7461 21.7141 33.9219 22.6985C31.0977 20.4602 31.8359 18.5618 29.3984 16.5579C32.4922 17.2844 32.0352 20.0266 35.2578 21.7844C32.8672 19.136 33.7812 17.2375 31.707 15.0696C34.6836 16.0188 33.5469 18.6321 36.6289 21.1165C34.8711 18.1985 35.9609 16.3352 34.2148 13.886C36.9805 15.304 35.6445 17.9758 38.1992 20.6243C36.9922 17.636 38.1992 15.7844 36.9688 13.136C39.3359 14.8938 37.9297 17.7415 39.8398 20.4602C39.1367 16.7102 40.7539 16.1008 40.25 12.8196C42.043 15.0227 40.0391 17.2258 41.4219 20.4719C41.2461 16.7805 43.2148 15.925 42.875 12.9719C44.6445 15.6204 41.8789 17.929 43.0391 20.7649C43.332 17.2727 45.6289 16.3586 45.6641 13.6399C47.0703 16.136 44.0234 17.9407 44.5156 21.2571C45.5117 17.6008 47.9609 17.1555 48.2656 14.6946C49.0977 17.5774 45.7578 18.9133 45.957 22.1243C46.9531 18.8782 50.0117 18.4915 50.6445 16.1008C51.0312 19.1477 48.0195 19.6985 47.1641 23.0735C48.7461 20.3196 51.5234 20.0969 52.7656 17.9172C52.6719 20.9407 49.2734 21.3391 48.2305 24.1633C50.1875 21.761 52.6484 22.1711 54.6055 20.05C54.3945 22.7805 50.9375 22.6282 49.0977 25.4524C51.2188 23.4954 54.418 24.0813 56.0469 22.3938C55.9648 24.8079 51.7227 24.6204 49.7188 26.7883C52.1797 25.429 55.3203 26.2258 57.125 24.9719C56.7969 27.0813 52.3203 26.5891 50.1758 28.2532C53.1289 27.4329 55.4141 28.6868 57.793 27.7844C56.6328 29.8352 52.5664 28.5344 50.4102 29.8704C52.9883 29.4368 55.707 30.9954 58.0391 30.4915C57.2773 32.2727 52.8125 30.3743 50.4219 31.4875C53.2812 31.4641 55.1445 33.304 57.8047 33.1751C56.3633 34.7922 52.4492 32.5774 50.1641 32.9524C52.9531 33.5383 55.0859 35.8352 57.1953 35.9524C55.4492 37.2766 52.2148 34.2532 49.5781 34.6282C52.2969 35.3547 54.5703 38.4368 56.1172 38.5071C54.4414 39.6555 51.1367 35.8704 48.875 36.011C51.6289 37.2532 52.8828 40.4055 54.6992 40.8508C52.4609 41.5657 50.2578 37.429 47.8555 37.2766C50.6445 39.0344 50.7969 41.7297 52.9414 42.9251C50.6797 43.4758 49.0742 38.8 46.6953 38.4016C48.9805 40.0774 49.332 43.6751 50.8438 44.8001C48.5469 44.9172 47.7148 40.0305 45.3594 39.3274C47.375 41.0149 46.8945 44.6711 48.4648 46.2415C46.0742 45.7376 46.3789 41.4836 43.8828 40.0422C45.6758 42.3157 44.7617 45.5383 45.9336 47.3547C43.6016 46.4172 44.6094 42.5969 42.3945 40.4407C43.6016 42.8547 42.3008 45.6672 43.2617 47.9993C41.1289 46.9563 42.5586 42.4446 40.9297 40.6516C41.6797 43.4407 40.2969 45.7493 40.8594 48.2454C38.6797 45.7258 41.1875 43.1829 39.3008 40.6165C39.793 43.5579 37.7305 45.6204 38.0586 48.0813C36.3359 46.0657 38.9961 42.843 37.6484 40.3001C37.9297 43.1946 35.2695 45.7376 35.457 47.5657C34.0508 45.2219 37.0156 42.4563 36.2187 39.7961C36.0547 42.5618 33.3594 44.0618 32.8555 46.5813C31.9531 43.804 35.1523 41.8001 34.8711 39.0696C33.957 41.6594 31.3555 42.7024 30.4414 45.2219C29.6914 42.4446 33.4883 40.9797 33.582 38.0735C32.4102 40.7922 29.3047 41.4016 28.2734 43.4876C27.8867 40.7336 32.2344 39.5032 32.3984 36.8899C30.9922 39.3977 27.5938 39.5032 26.4219 41.4954C26.2461 38.7532 30.8281 38.4133 31.543 35.5422C30.1484 37.6751 26.4219 37.4055 24.8633 39.1399C25.1094 36.5969 30.0664 36.4446 30.8633 34.1477C29.0117 35.929 25.5898 35.2024 23.6562 36.6086C24.7344 34.1008 29.3867 34.6282 30.4297 32.8235C28.3789 33.8899 24.7344 32.8469 22.9297 33.9251C24.5703 31.5579 28.1797 32.9758 30.2305 31.3469C26.9023 31.8274 24.8984 30.5032 22.5898 31.1126H22.6016Z" fill="#FFFF00"/>
<path fill-rule="evenodd" clip-rule="evenodd" d="M51.957 30.5266C51.957 33.6113 50.7316 36.5697 48.5504 38.7509C46.3692 40.9321 43.4109 42.1575 40.3262 42.1575C37.2415 42.1575 34.2831 40.9321 32.1019 38.7509C29.9207 36.5697 28.6953 33.6113 28.6953 30.5266C28.6953 27.4435 29.9201 24.4866 32.1002 22.3065C34.2803 20.1264 37.2372 18.9016 40.3203 18.9016C43.4035 18.9016 46.3603 20.1264 48.5404 22.3065C50.7205 24.4866 51.9453 27.4435 51.9453 30.5266H51.957Z" fill="#FFFF00"/>
<path fill-rule="evenodd" clip-rule="evenodd" d="M50.457 30.55C50.457 33.2323 49.3915 35.8046 47.4949 37.7012C45.5983 39.5978 43.026 40.6633 40.3437 40.6633C37.6615 40.6633 35.0892 39.5978 33.1926 37.7012C31.296 35.8046 30.2305 33.2323 30.2305 30.55C30.2305 27.8678 31.296 25.2955 33.1926 23.3989C35.0892 21.5023 37.6615 20.4368 40.3437 20.4368C43.026 20.4368 45.5983 21.5023 47.4949 23.3989C49.3915 25.2955 50.457 27.8678 50.457 30.55Z" fill="#FF0000"/>
<path fill-rule="evenodd" clip-rule="evenodd" d="M49.0508 30.5735C49.0508 32.8765 48.1359 35.0852 46.5074 36.7137C44.8789 38.3422 42.6702 39.2571 40.3672 39.2571C38.0642 39.2571 35.8554 38.3422 34.227 36.7137C32.5985 35.0852 31.6836 32.8765 31.6836 30.5735C31.6836 28.2705 32.5985 26.0617 34.227 24.4333C35.8554 22.8048 38.0642 21.8899 40.3672 21.8899C42.6702 21.8899 44.8789 22.8048 46.5074 24.4333C48.1359 26.0617 49.0508 28.2705 49.0508 30.5735Z" fill="#FFFF00"/>
<path fill-rule="evenodd" clip-rule="evenodd" d="M32.9727 24.8899C35.375 24.8313 38.3633 25.054 40.3437 26.6243C42.4595 25.3038 44.9505 24.715 47.4336 24.9485L48.7227 27.304C46.7196 27.1212 44.703 27.4519 42.8633 28.2649C44.1782 29.2346 45.2353 30.5119 45.9422 31.9849C46.649 33.4579 46.9841 35.0816 46.918 36.7141C46.6016 37.1125 46.0977 37.5461 45.7812 37.9446C46.25 34.6047 44.4922 30.8782 41.9258 28.9211C44.0117 31.9211 45.2422 34.6165 44.9023 38.343L43.7305 39.093C44.2695 35.8118 43.4961 31.9446 41.0703 29.718C42.4766 31.7688 43.8594 35.4602 42.9922 39.2102C42.6172 39.3274 42.0312 39.6438 41.6562 39.7493C42.1157 38.2107 42.2404 36.5917 42.0221 35.0009C41.8038 33.4101 41.2475 31.8845 40.3906 30.5266C38.7734 32.8469 38.2461 36.386 39.1602 39.6672C38.7148 39.5501 38.375 39.4094 37.918 39.304C37.25 35.7883 38.1758 31.804 39.7812 29.7297C38.1406 30.679 36.6055 34.7336 37.0391 38.8704L35.9492 38.3665C35.4219 35.2844 36.8164 31.2649 38.8203 28.9446C36.5469 30.3743 34.6953 33.9016 35.0117 37.6868C34.6602 37.3821 34.3437 37.2297 33.9922 36.9133C33.5937 33.6086 35.5156 30.2805 37.7539 28.2883C35.8672 27.4329 34.2383 27.2688 31.8945 27.304C32.2578 26.5422 32.5977 25.6516 32.9727 24.8782V24.8899Z" fill="#FF0000"/>
</g>
</g>
<defs>
<clipPath id="clip0_4447_30758">
<rect width="80" height="60" fill="white" transform="translate(0.289062 0.514893)"/>
</clipPath>
</defs>
</svg>
