<svg width="81" height="61" viewBox="0 0 81 61" fill="none" xmlns="http://www.w3.org/2000/svg">
<g clip-path="url(#clip0_4447_35743)">
<path d="M0.289062 0.514893H80.2891V60.5149H0.289062V0.514893Z" fill="white"/>
<path d="M33.5391 7.17749H80.2891V13.8525H33.5391V7.17749ZM33.5391 20.515H80.2891V27.1775H33.5391V20.515ZM0.289062 33.8525H80.2891V40.515H0.289062V33.8525ZM0.289062 47.1775H80.2891V53.8525H0.289062V47.1775Z" fill="#0038A8"/>
<path d="M16.1963 20.4368L17.2997 22.0845C12.7656 25.3658 15.5337 27.3062 12.3205 28.3565C14.319 26.4062 12.0059 26.2418 13.6897 22.1767" fill="#FCD116"/>
<path d="M16.1963 20.4368L17.2997 22.0845C12.7656 25.3658 15.5337 27.3062 12.3205 28.3565C14.319 26.4062 12.0059 26.2418 13.6897 22.1767" stroke="black" stroke-width="0.22" stroke-miterlimit="20" stroke-linecap="square"/>
<path d="M15.4068 20.9039C12.9052 25.0271 14.5458 27.2941 12.3198 28.3565" stroke="black" stroke-width="0.22" stroke-miterlimit="20"/>
<path d="M16.95 17.1775H19.15L16.95 29.2775L14.75 17.1775H16.95V29.2775V17.1775Z" fill="#FCD116"/>
<path d="M16.95 17.1775H19.15L16.95 29.2775M16.95 17.1775H14.75L16.95 29.2775M16.95 17.1775V29.2775" stroke="black" stroke-width="0.22" stroke-miterlimit="20"/>
<path d="M14.1119 18.9485L13.7271 20.8938C8.2007 20.0079 8.78604 23.3373 5.77129 21.8079C8.56353 21.842 7.04412 20.0901 11.1092 18.4063" fill="#FCD116"/>
<path d="M14.1119 18.9485L13.7271 20.8938C8.2007 20.0079 8.78604 23.3373 5.77129 21.8079C8.56353 21.842 7.04412 20.0901 11.1092 18.4063" stroke="black" stroke-width="0.22" stroke-miterlimit="20" stroke-linecap="square"/>
<path d="M13.2232 18.721C8.53876 19.8676 8.0958 22.6308 5.77059 21.808" stroke="black" stroke-width="0.22" stroke-miterlimit="20"/>
<path d="M16.9502 17.1775L18.5058 18.7331L8.39418 25.7334L15.3945 15.6218L16.9502 17.1775L8.39418 25.7334L16.9502 17.1775Z" fill="#FCD116"/>
<path d="M16.9502 17.1775L18.5058 18.7331L8.39418 25.7334M16.9502 17.1775L15.3945 15.6218L8.39418 25.7334M16.9502 17.1775L8.39418 25.7334" stroke="black" stroke-width="0.22" stroke-miterlimit="20"/>
<path d="M13.6928 16.4228L12.0451 17.5263C8.76382 12.9921 6.82345 15.7603 5.77314 12.5471C7.72347 14.5456 7.88787 12.2324 11.9529 13.9162" fill="#FCD116"/>
<path d="M13.6928 16.4228L12.0451 17.5263C8.76382 12.9921 6.82345 15.7603 5.77314 12.5471C7.72347 14.5456 7.88787 12.2324 11.9529 13.9162" stroke="black" stroke-width="0.22" stroke-miterlimit="20" stroke-linecap="square"/>
<path d="M13.226 15.6341C9.10282 13.1325 6.83574 14.7731 5.77339 12.5471" stroke="black" stroke-width="0.22" stroke-miterlimit="20"/>
<path d="M16.9531 17.1775V19.3775L4.85314 17.1775L16.9531 14.9775V17.1775H4.85314H16.9531Z" fill="#FCD116"/>
<path d="M16.9531 17.1775V19.3775L4.85314 17.1775M16.9531 17.1775V14.9775L4.85314 17.1775M16.9531 17.1775H4.85314" stroke="black" stroke-width="0.22" stroke-miterlimit="20"/>
<path d="M15.1826 14.3392L13.2373 13.9544C14.1232 8.42799 10.7938 9.01334 12.3232 5.99858C12.2891 8.79082 14.041 7.27141 15.7248 11.3365" fill="#FCD116"/>
<path d="M15.1826 14.3392L13.2373 13.9544C14.1232 8.42799 10.7938 9.01334 12.3232 5.99859C12.2891 8.79082 14.041 7.27141 15.7248 11.3365" stroke="black" stroke-width="0.22" stroke-miterlimit="20" stroke-linecap="square"/>
<path d="M15.4096 13.451C14.263 8.76654 11.4998 8.32358 12.3226 5.99838" stroke="black" stroke-width="0.22" stroke-miterlimit="20"/>
<path d="M16.9522 17.1775L15.3965 18.7331L8.3962 8.62148L18.5078 15.6218L16.9522 17.1775L8.3962 8.62148L16.9522 17.1775Z" fill="#FCD116"/>
<path d="M16.9522 17.1775L15.3965 18.7331L8.3962 8.62148M16.9522 17.1775L18.5078 15.6218L8.3962 8.62148M16.9522 17.1775L8.3962 8.62148" stroke="black" stroke-width="0.22" stroke-miterlimit="20"/>
<path d="M17.7061 13.9181L16.6026 12.2704C21.1368 8.98916 18.3686 7.04879 21.5818 5.99848C19.5833 7.94882 21.8965 8.11321 20.2127 12.1783" fill="#FCD116"/>
<path d="M17.7061 13.9181L16.6026 12.2704C21.1368 8.98916 18.3686 7.04879 21.5818 5.99848C19.5833 7.94882 21.8965 8.11321 20.2127 12.1783" stroke="black" stroke-width="0.22" stroke-miterlimit="20" stroke-linecap="square"/>
<path d="M18.4955 13.4511C20.9972 9.32792 19.3565 7.06083 21.5825 5.99848" stroke="black" stroke-width="0.22" stroke-miterlimit="20"/>
<path d="M16.9523 17.1775H14.7523L16.9523 5.0775L19.1523 17.1775H16.9523V5.0775V17.1775Z" fill="#FCD116"/>
<path d="M16.9523 17.1775H14.7523L16.9523 5.0775M16.9523 17.1775H19.1523L16.9523 5.0775M16.9523 17.1775V5.0775" stroke="black" stroke-width="0.22" stroke-miterlimit="20"/>
<path d="M19.7904 15.4065L20.1753 13.4612C25.7016 14.3471 25.1163 11.0176 28.1311 12.547C25.3388 12.513 26.8582 14.2649 22.7932 15.9487" fill="#FCD116"/>
<path d="M19.7904 15.4065L20.1753 13.4612C25.7016 14.3471 25.1163 11.0176 28.1311 12.547C25.3388 12.513 26.8582 14.2649 22.7932 15.9487" stroke="black" stroke-width="0.22" stroke-miterlimit="20" stroke-linecap="square"/>
<path d="M20.6791 15.634C25.3636 14.4874 25.8065 11.7242 28.1318 12.547" stroke="black" stroke-width="0.22" stroke-miterlimit="20"/>
<path d="M16.9522 17.1775L15.3965 15.6219L25.5082 8.62154L18.5078 18.7332L16.9522 17.1775L25.5082 8.62154L16.9522 17.1775Z" fill="#FCD116"/>
<path d="M16.9522 17.1775L15.3965 15.6219L25.5082 8.62154M16.9522 17.1775L18.5078 18.7332L25.5082 8.62154M16.9522 17.1775L25.5082 8.62154" stroke="black" stroke-width="0.22" stroke-miterlimit="20"/>
<path d="M20.2096 17.9321L21.8572 16.8287C25.1385 21.3629 27.0789 18.5947 28.1292 21.8079C26.1789 19.8094 26.0145 22.1226 21.9494 20.4388" fill="#FCD116"/>
<path d="M20.2096 17.9321L21.8572 16.8287C25.1385 21.3629 27.0789 18.5947 28.1292 21.8079C26.1789 19.8094 26.0145 22.1226 21.9494 20.4388" stroke="black" stroke-width="0.22" stroke-miterlimit="20" stroke-linecap="square"/>
<path d="M20.6763 18.7209C24.7995 21.2225 27.0666 19.5819 28.129 21.8079" stroke="black" stroke-width="0.22" stroke-miterlimit="20"/>
<path d="M16.9492 17.1774V14.9774L29.0492 17.1774L16.9492 19.3774V17.1774H29.0492H16.9492Z" fill="#FCD116"/>
<path d="M16.9492 17.1774V14.9774L29.0492 17.1774M16.9492 17.1774V19.3774L29.0492 17.1774M16.9492 17.1774H29.0492" stroke="black" stroke-width="0.22" stroke-miterlimit="20"/>
<path d="M18.7197 20.0158L20.6651 20.4006C19.7791 25.927 23.1086 25.3416 21.5792 28.3564C21.6132 25.5642 19.8613 27.0836 18.1775 23.0185" fill="#FCD116"/>
<path d="M18.7197 20.0158L20.6651 20.4006C19.7791 25.927 23.1086 25.3416 21.5792 28.3564C21.6132 25.5642 19.8613 27.0836 18.1775 23.0185" stroke="black" stroke-width="0.22" stroke-miterlimit="20" stroke-linecap="square"/>
<path d="M18.4927 20.904C19.6394 25.5884 22.4025 26.0314 21.5797 28.3566" stroke="black" stroke-width="0.22" stroke-miterlimit="20"/>
<path d="M16.9502 17.1775L18.5058 15.6219L25.5061 25.7335L15.3945 18.7332L16.9502 17.1775L25.5061 25.7335L16.9502 17.1775Z" fill="#FCD116"/>
<path d="M16.9502 17.1775L18.5058 15.6219L25.5061 25.7335M16.9502 17.1775L15.3945 18.7332L25.5061 25.7335M16.9502 17.1775L25.5061 25.7335" stroke="black" stroke-width="0.22" stroke-miterlimit="20"/>
<path d="M16.9513 21.2107C19.1788 21.2107 20.9846 19.4049 20.9846 17.1774C20.9846 14.9498 19.1788 13.144 16.9513 13.144C14.7238 13.144 12.918 14.9498 12.918 17.1774C12.918 19.4049 14.7238 21.2107 16.9513 21.2107Z" fill="#FCD116" stroke="black" stroke-width="0.22" stroke-miterlimit="20"/>
<path d="M19.9207 15.5641C19.6641 15.8575 19.5174 15.3441 18.6008 15.3441C17.6841 15.3441 17.5374 15.8941 17.3908 15.7841C17.2441 15.6741 18.1608 15.0141 18.4541 14.9775C18.7474 14.9408 19.5908 15.2341 19.9207 15.5641ZM18.8574 15.8941C19.1141 16.1141 18.8941 16.5908 18.6374 16.5908C18.3808 16.5908 17.9041 16.1508 18.1241 15.8575" fill="black"/>
<path d="M17.6445 16.224C17.6812 15.784 18.0479 15.7107 18.6345 15.7107C19.2212 15.7107 19.4778 16.1507 19.6978 16.2607C19.4412 16.2607 19.2212 15.894 18.6345 15.894C18.0479 15.894 18.0479 15.894 17.6445 16.2607M17.7545 16.334C17.9012 16.114 18.0845 16.554 18.4879 16.554C18.8912 16.554 19.1112 16.444 19.3678 16.2607C19.6245 16.0774 19.0012 16.7007 18.5979 16.7007C18.1945 16.7007 17.6445 16.4807 17.7545 16.334Z" fill="black"/>
<path d="M19.0023 16.5541C19.4789 16.2974 19.1856 15.9308 19.0023 15.8574C19.0756 15.9308 19.3689 16.2974 19.0023 16.5541ZM16.949 18.7541C17.169 18.7541 17.2423 18.6807 17.5356 18.6807C17.8289 18.6807 18.5256 19.0841 18.9289 18.9374C18.0856 19.2674 18.4156 19.0474 16.949 19.0474H16.7656M19.0756 19.2674C18.9289 19.0107 18.9656 19.0841 18.6723 18.6807C18.9656 18.9007 19.0389 19.0107 19.0756 19.2674ZM16.949 19.634C17.8656 19.634 17.7189 19.4507 18.9289 18.9374C18.0489 19.0474 17.8656 19.3407 16.949 19.3407H16.7656M16.949 18.2774C17.2056 18.2774 17.279 18.0941 17.5723 18.0941C17.8656 18.0941 18.2689 18.2041 18.4523 18.3507C18.4889 18.3874 18.3423 18.0574 18.0489 18.0207C17.7556 17.9841 17.8656 17.5074 17.5356 17.4341C17.5356 17.5807 17.6456 17.5441 17.6823 17.7641C17.6823 17.9474 17.3523 17.9474 17.279 17.7641C17.3523 18.0574 17.1323 18.0574 16.949 18.0574" fill="black"/>
<path d="M13.9777 15.5641C14.2344 15.8575 14.381 15.3441 15.2977 15.3441C16.2143 15.3441 16.361 15.8941 16.5077 15.7841C16.6543 15.6741 15.7377 15.0141 15.4443 14.9775C15.151 14.9408 14.3077 15.2341 13.9777 15.5641ZM15.041 15.8941C14.7843 16.1141 15.0043 16.5908 15.261 16.5908C15.5177 16.5908 15.9943 16.1508 15.7743 15.8575" fill="black"/>
<path d="M16.2539 16.224C16.2172 15.784 15.8506 15.7107 15.2639 15.7107C14.6773 15.7107 14.4206 16.1507 14.2006 16.2607C14.4573 16.2607 14.6773 15.894 15.2639 15.894C15.8506 15.894 15.8506 15.894 16.2539 16.2607M16.1439 16.334C15.9972 16.114 15.8139 16.554 15.4106 16.554C15.0073 16.554 14.7873 16.444 14.5306 16.2607C14.2739 16.0774 14.8973 16.7007 15.3006 16.7007C15.7039 16.7007 16.2539 16.4807 16.1439 16.334Z" fill="black"/>
<path d="M14.8962 16.5541C14.4195 16.2974 14.7128 15.9308 14.8962 15.8574C14.8228 15.9308 14.5295 16.2974 14.8962 16.5541ZM16.9495 18.7541C16.7295 18.7541 16.6562 18.6807 16.3628 18.6807C16.0695 18.6807 15.3728 19.0841 14.9695 18.9374C15.8128 19.2674 15.4828 19.0474 16.9495 19.0474H17.1328M14.8228 19.2674C14.9695 19.0107 14.9328 19.0841 15.2262 18.6807C14.9328 18.9007 14.8595 19.0107 14.8228 19.2674ZM16.9495 19.634C16.0328 19.634 16.1795 19.4507 14.9695 18.9374C15.8495 19.0474 16.0328 19.3407 16.9495 19.3407H17.1328M16.9495 18.2774C16.6928 18.2774 16.6195 18.0941 16.3262 18.0941C16.0328 18.0941 15.6295 18.2041 15.4462 18.3507C15.4095 18.3874 15.5562 18.0574 15.8495 18.0207C16.1428 17.9841 16.0328 17.5074 16.3628 17.4341C16.3628 17.5807 16.2528 17.5441 16.2162 17.7641C16.2162 17.9474 16.5462 17.9474 16.6195 17.7641C16.5462 18.0574 16.7661 18.0574 16.9495 18.0574" fill="black"/>
<path d="M16.9517 19.9641C16.7684 19.9641 16.2918 20.0741 16.9517 20.0741C17.6117 20.0741 17.1351 19.9641 16.9517 19.9641Z" fill="black"/>
</g>
<defs>
<clipPath id="clip0_4447_35743">
<rect width="80" height="60" fill="white" transform="translate(0.289062 0.514893)"/>
</clipPath>
</defs>
</svg>
