<svg width="81" height="61" viewBox="0 0 81 61" fill="none" xmlns="http://www.w3.org/2000/svg">
<g clip-path="url(#clip0_4447_35736)">
<path fill-rule="evenodd" clip-rule="evenodd" d="M0.289062 0.514893H114.289V5.13214H0.289062V0.514893ZM0.289062 9.74927H114.289V14.3665H0.289062V9.74927ZM0.289062 18.9719H114.289V23.6008H0.289062V18.9719ZM0.289062 28.2063H114.289V32.8235H0.289062V28.2063ZM0.289062 37.4406H114.289V42.0579H0.289062V37.4406ZM0.289062 46.6633H114.289V51.2805H0.289062V46.6633ZM0.289062 55.8976H114.289V60.5149H0.289062V55.8976Z" fill="#BD3D44"/>
<path fill-rule="evenodd" clip-rule="evenodd" d="M0.289062 5.13208H114.289V9.74921H0.289062V5.13208ZM0.289062 14.3663H114.289V18.9718H0.289062V14.3663ZM0.289062 23.5891H114.289V28.2062H0.289062V23.5891ZM0.289062 32.8235H114.289V37.4406H0.289062V32.8235ZM0.289062 42.0578H114.289V46.675H0.289062V42.0578ZM0.289062 51.2805H114.289V55.8977H0.289062V51.2805Z" fill="white"/>
<path fill-rule="evenodd" clip-rule="evenodd" d="M0.289062 0.514893H45.8867V32.8235H0.289062V0.514893Z" fill="#192F5D"/>
<path fill-rule="evenodd" clip-rule="evenodd" d="M4.08588 1.89771L4.50775 3.17483H5.84375L4.7655 3.96008L5.17575 5.24908L4.08588 4.45221L3.00775 5.23733L3.41788 3.96008L2.32812 3.17483H3.6875L4.08588 1.89771ZM11.6914 1.89771L12.1015 3.17483H13.4491L12.3592 3.96008L12.7695 5.24908L11.6914 4.45221L10.6015 5.23733L11.0116 3.96008L9.9335 3.17483H11.2695L11.6914 1.89771ZM19.2851 1.89771L19.707 3.17496H21.0312L19.9531 3.96021L20.3631 5.24921L19.2734 4.45233L18.1952 5.23745L18.6054 3.96021L17.5155 3.17496H18.8632L19.2851 1.89771ZM26.8906 1.89771L27.3006 3.17496H28.6484L27.5585 3.96021L27.9804 5.24921L26.8905 4.45233L25.8007 5.23745L26.2226 3.96021L25.1327 3.17496H26.4688L26.8906 1.89771ZM34.4844 1.89771L34.9062 3.17496H36.2421L35.164 3.96021L35.5741 5.24921L34.4843 4.45233L33.4061 5.23745L33.8164 3.96021L32.7382 3.17496H34.0741L34.4844 1.89771ZM42.0898 1.89771L42.4999 3.17496H43.8476L42.7578 3.96021L43.1796 5.24921L42.0898 4.45233L40.9999 5.23745L41.4218 3.96021L40.332 3.17496H41.6796L42.0898 1.89771ZM7.8945 5.13183L8.30463 6.40933H9.65225L8.56237 7.19433L8.96088 8.47183L7.90613 7.68658L6.81638 8.4717L7.203 7.19446L6.14838 6.4092H7.48438L7.8945 5.13183ZM15.4883 5.13183L15.9101 6.40933H17.246L16.1561 7.19433L16.5781 8.47183L15.4881 7.68658L14.3984 8.4717L14.8202 7.19446L13.7304 6.4092H15.078L15.4883 5.13183ZM23.0938 5.13183L23.5037 6.40933H24.8515L23.7616 7.19433L24.1717 8.47183L23.0936 7.68658L22.0039 8.4717L22.414 7.19458L21.3359 6.40933H22.6719L23.0938 5.13183ZM30.6875 5.13183L31.1094 6.40933H32.4452L31.3554 7.19433L31.7773 8.47183L30.6874 7.68658L29.6092 8.4717L30.0195 7.19446L28.9296 6.4092H30.289L30.6875 5.13183ZM38.2929 5.13183L38.703 6.40933H40.0508L38.9609 7.19433L39.371 8.47183L38.2929 7.68658L37.203 8.4717L37.6133 7.19446L36.5351 6.4092H37.871L38.2929 5.13183ZM4.08588 8.35483L4.50775 9.65558H5.84375L4.7655 10.4407L5.17575 11.7181L4.08588 10.9212L3.00775 11.7181L3.41788 10.429L2.32812 9.64395H3.6875L4.08588 8.35483ZM11.6914 8.35483L12.1015 9.64358H13.4491L12.3592 10.4287L12.7695 11.7062L11.6914 10.9092L10.6015 11.7061L11.0116 10.4171L9.9335 9.63195H11.2695L11.6914 8.35483ZM19.2851 8.35483L19.707 9.64383H21.0312L19.9531 10.429L20.3631 11.7065L19.2734 10.9095L18.1952 11.7063L18.6054 10.4173L17.5155 9.63221H18.8632L19.2851 8.35483ZM26.8906 8.35483L27.3006 9.64383H28.6484L27.5585 10.429L27.9804 11.7065L26.8905 10.9095L25.8007 11.7063L26.2226 10.4173L25.1327 9.63221H26.4688L26.8906 8.35483ZM34.4844 8.35483L34.9062 9.64383H36.2421L35.164 10.4288L35.5741 11.7063L34.4843 10.9093L33.4061 11.7062L33.8164 10.4172L32.7382 9.63208H34.0741L34.4844 8.35483ZM42.0898 8.35483L42.4999 9.64383H43.8476L42.7578 10.429L43.1796 11.7065L42.0898 10.9095L40.9999 11.7063L41.4218 10.4173L40.332 9.63221H41.6796L42.0898 8.35483ZM7.8945 11.5891L8.30463 12.8665H9.65225L8.56237 13.6515L8.97263 14.9406L7.8945 14.1437L6.80463 14.9288L7.21475 13.6516L6.13662 12.8665H7.47275L7.8945 11.5891ZM15.4883 11.5891L15.9101 12.8665H17.246L16.1561 13.6515L16.5781 14.9406L15.4881 14.1437L14.3984 14.9288L14.8202 13.6516L13.7304 12.8665H15.078L15.4883 11.5891ZM23.0938 11.5891L23.5037 12.8665H24.8515L23.7616 13.6515L24.1717 14.9406L23.0936 14.1437L22.0039 14.9288L22.414 13.6516L21.3359 12.8665H22.6719L23.0938 11.5891ZM30.6875 11.5891L31.1094 12.8665H32.4452L31.3671 13.6515L31.7773 14.9406L30.6874 14.1437L29.6092 14.9288L30.0195 13.6516L28.9296 12.8665H30.289L30.6875 11.5891ZM38.2929 11.5891L38.703 12.8665H40.0508L38.9609 13.6515L39.371 14.9406L38.2929 14.1437L37.203 14.9288L37.6133 13.6516L36.5351 12.8665H37.871L38.2929 11.5891ZM4.08588 14.8235L4.50775 16.1008H5.84375L4.7655 16.8858L5.17575 18.175L4.08588 17.3781L3.00775 18.1632L3.41788 16.886L2.32812 16.1008H3.6875L4.08588 14.8235ZM11.6914 14.8235L12.1015 16.1008H13.4491L12.3592 16.8858L12.7695 18.1633L11.6914 17.3781L10.6015 18.1632L11.0116 16.886L9.9335 16.1008H11.2695L11.6914 14.8235ZM19.2851 14.8235L19.707 16.1008H21.0312L19.9531 16.8858L20.3631 18.175L19.2734 17.3781L18.1952 18.1632L18.6054 16.886L17.5155 16.1008H18.8632L19.2851 14.8235ZM26.8906 14.8235L27.3006 16.1008H28.6484L27.5585 16.8858L27.9804 18.175L26.8905 17.3781L25.8007 18.1632L26.2226 16.886L25.1327 16.1008H26.4688L26.8906 14.8235ZM34.4844 14.8235L34.9062 16.1008H36.2421L35.164 16.8858L35.5741 18.175L34.4843 17.3781L33.4061 18.1632L33.8164 16.886L32.7382 16.1008H34.0741L34.4844 14.8235ZM42.0898 14.8235L42.4999 16.1008H43.8476L42.7578 16.8858L43.1796 18.175L42.0898 17.3781L40.9999 18.1632L41.4218 16.886L40.332 16.1008H41.6796L42.0898 14.8235ZM7.8945 18.0578L8.30463 19.3352H9.65225L8.56237 20.1202L8.97263 21.3977L7.8945 20.6008L6.80463 21.3977L7.21475 20.1086L6.13662 19.3235H7.47275L7.8945 18.0578ZM15.4883 18.0578L15.9101 19.3352H17.246L16.1561 20.1202L16.5781 21.3977L15.4881 20.6008L14.3984 21.3977L14.8202 20.1086L13.7304 19.3235H15.078L15.4883 18.0578ZM23.0938 18.0578L23.5037 19.3352H24.8515L23.7616 20.1202L24.1717 21.3977L23.0936 20.6008L22.0039 21.3977L22.414 20.1086L21.3359 19.3235H22.6719L23.0938 18.0578ZM30.6875 18.0578L31.1094 19.3352H32.4452L31.3671 20.1202L31.7773 21.3977L30.6874 20.6008L29.6092 21.3977L30.0195 20.1086L28.9296 19.3235H30.289L30.6875 18.0578ZM38.2929 18.0578L38.703 19.3352H40.0508L38.9609 20.1202L39.371 21.3977L38.2929 20.6008L37.203 21.3977L37.6133 20.1086L36.5351 19.3235H37.871L38.2929 18.0578ZM4.08588 21.2805L4.50775 22.5696H5.84375L4.7655 23.3546L5.17575 24.6203L4.08588 23.8352L3.00775 24.6202L3.41788 23.343L2.32812 22.5578H3.6875L4.08588 21.2805ZM11.6914 21.2805L12.1015 22.5696H13.4491L12.3592 23.3546L12.7812 24.6203L11.6912 23.8352L10.6015 24.6202L11.0234 23.343L9.9335 22.5578H11.2695L11.6914 21.2805ZM19.2851 21.2805L19.707 22.5696H21.0312L19.9531 23.3546L20.3631 24.6203L19.2734 23.8352L18.1952 24.6202L18.6054 23.343L17.5155 22.5578H18.8632L19.2851 21.2805ZM26.8906 21.2805L27.3006 22.5696H28.6484L27.5585 23.3546L27.9804 24.6203L26.8905 23.8352L25.8007 24.6202L26.2226 23.343L25.1327 22.5578H26.4688L26.8906 21.2805ZM34.4844 21.2805L34.9062 22.5696H36.2421L35.164 23.3546L35.5741 24.6203L34.4843 23.8352L33.4061 24.6202L33.8164 23.343L32.7382 22.5578H34.0741L34.4844 21.2805ZM42.0898 21.2805L42.4999 22.5696H43.8476L42.7578 23.3546L43.1796 24.6203L42.0898 23.8352L40.9999 24.6202L41.4218 23.343L40.332 22.5578H41.6796L42.0898 21.2805ZM7.8945 24.5148L8.30463 25.7922H9.65225L8.56237 26.5773L8.97263 27.8665L7.8945 27.0696L6.80463 27.8546L7.21475 26.5773L6.13662 25.7922H7.47275L7.8945 24.5148ZM15.4883 24.5148L15.9101 25.7922H17.246L16.1561 26.5773L16.5781 27.8665L15.4881 27.0696L14.3984 27.8546L14.8202 26.5773L13.7304 25.7922H15.078L15.4883 24.5148ZM23.0938 24.5148L23.5037 25.7922H24.8515L23.7616 26.5773L24.1717 27.8665L23.0936 27.0696L22.0039 27.8546L22.414 26.5773L21.3359 25.7922H22.6719L23.0938 24.5148ZM30.6875 24.5148L31.1094 25.7922H32.4452L31.3671 26.5773L31.7773 27.8665L30.6874 27.0696L29.6092 27.8546L30.0195 26.5773L28.9296 25.7922H30.289L30.6875 24.5148ZM38.2929 24.5148L38.703 25.7922H40.0508L38.9609 26.5773L39.371 27.8665L38.2929 27.0696L37.203 27.8546L37.6133 26.5773L36.5351 25.7922H37.871L38.2929 24.5148ZM4.08588 27.7492L4.50775 29.0266H5.84375L4.7655 29.8117L5.17575 31.0891L4.08588 30.304L3.00775 31.089L3.41788 29.8L2.32812 29.0148H3.6875L4.08588 27.7492ZM11.6914 27.7492L12.1015 29.0266H13.4491L12.3592 29.8117L12.7812 31.0891L11.6912 30.304L10.6015 31.089L11.0234 29.8L9.9335 29.0148H11.2695L11.6914 27.7492ZM19.2851 27.7492L19.707 29.0266H21.0312L19.9765 29.8117L20.3866 31.0891L19.2967 30.304L18.2186 31.089L18.6289 29.8L17.539 29.0148H18.8866L19.2851 27.7492ZM26.8906 27.7492L27.3006 29.0266H28.6484L27.5585 29.8117L27.9804 31.0891L26.8905 30.304L25.8007 31.089L26.2226 29.8L25.1327 29.0148H26.4688L26.8906 27.7492ZM34.4844 27.7492L34.9062 29.0266H36.2421L35.164 29.8117L35.5741 31.0891L34.4843 30.304L33.4061 31.089L33.8164 29.8L32.7382 29.0148H34.0741L34.4844 27.7492ZM42.0898 27.7492L42.4999 29.0266H43.8476L42.7578 29.8117L43.1796 31.0891L42.0898 30.304L40.9999 31.089L41.4218 29.8L40.332 29.0148H41.6796L42.0898 27.7492Z" fill="white"/>
</g>
<defs>
<clipPath id="clip0_4447_35736">
<rect width="80" height="60" fill="white" transform="translate(0.289062 0.514893)"/>
</clipPath>
</defs>
</svg>
