<svg width="81" height="61" viewBox="0 0 81 61" fill="none" xmlns="http://www.w3.org/2000/svg">
<g clip-path="url(#clip0_4447_33921)">
<mask id="mask0_4447_33921" style="mask-type:luminance" maskUnits="userSpaceOnUse" x="0" y="0" width="81" height="61">
<path d="M0.292969 0.514893H80.2852V60.5149H0.292969V0.514893Z" fill="white"/>
</mask>
<g mask="url(#mask0_4447_33921)">
<path fill-rule="evenodd" clip-rule="evenodd" d="M-4.71094 0.514893H85.2891V60.5149H-4.71094V0.514893Z" fill="#199D00"/>
<path fill-rule="evenodd" clip-rule="evenodd" d="M17.9657 17.5189C17.8719 18.9251 17.7313 21.3861 18.9383 21.6439C20.3797 21.7845 19.5828 19.2064 20.1102 18.7376C20.2039 18.5033 20.3797 18.5033 20.3914 18.7962V20.9876C20.3914 21.6908 20.8602 21.9017 21.2117 22.0423C21.5867 22.0189 21.8446 22.0423 21.9852 22.3939L22.1727 26.1791C22.1727 26.1791 23.0399 26.4369 23.0867 24.058C23.1219 22.6517 22.8055 21.4916 22.993 21.222C22.993 20.9525 23.3446 20.9408 23.5789 21.0697C23.9539 21.3275 24.118 21.6556 24.7039 21.5384C25.5946 21.2806 26.1336 20.847 26.1453 20.1673C26.1278 19.4994 25.9888 18.8402 25.7352 18.222C25.7821 18.1048 25.5711 17.7884 25.618 17.6712C25.7703 17.9291 26.0164 17.9056 26.0633 17.6712C25.911 17.1791 25.6766 16.6986 25.3016 16.4994C24.9852 16.2181 24.5164 16.265 24.3641 16.8509C24.2703 17.5189 24.5985 18.3041 25.0789 18.9603C25.1844 19.2064 25.325 19.6283 25.2664 20.0033C25.0086 20.1556 24.7508 20.0853 24.5282 19.8626C24.5282 19.8626 23.825 19.3353 23.825 19.2064C24.0125 18.0111 23.8602 17.8705 23.7547 17.5306C23.6844 17.0736 23.4618 16.9212 23.286 16.6166C23.1102 16.4291 22.8758 16.4291 22.7586 16.6166C22.4422 17.1556 22.5946 18.3158 22.8172 18.8431C22.9813 19.3236 23.2274 19.6283 23.1102 19.6283C23.0164 19.8978 22.8172 19.8275 22.6649 19.5111C22.4934 18.8452 22.4106 18.1596 22.4188 17.472C22.3602 16.933 22.2899 15.7845 21.9266 15.4798C21.7157 15.1986 21.3992 15.3392 21.2821 15.597C21.2511 16.1205 21.2629 16.6457 21.3172 17.1673C21.5516 18.0345 21.6336 18.808 21.7508 19.6869C21.786 20.8705 21.0711 20.2025 21.1063 19.6048C21.26 18.8535 21.248 18.0776 21.0711 17.3314C20.9539 17.0267 20.825 16.9564 20.5321 17.0033C20.3094 17.0033 19.7352 17.6244 19.5711 18.6791C19.5711 18.6791 19.4305 19.2181 19.3719 19.6986C19.2899 20.2376 18.9383 20.6361 18.6805 19.6283C18.4696 18.89 18.3289 17.097 17.9774 17.5189H17.9657Z" fill="white"/>
<path fill-rule="evenodd" clip-rule="evenodd" d="M21.8906 23.2727L18.1406 25.0774C18.1758 24.2219 19.9102 22.6868 21.1055 22.675C21.8672 22.6868 21.6797 22.968 21.8789 23.2727H21.8906Z" fill="white"/>
<path fill-rule="evenodd" clip-rule="evenodd" d="M21.2218 24.4445C19.2531 29.5421 25.8508 30.257 26.589 24.6554C26.6593 24.421 26.9406 24.1984 26.9875 24.5734C26.8351 29.6476 21.8781 29.9874 21.0343 28.3937C20.8359 27.8453 20.7367 27.2659 20.7414 26.6827C20.6242 25.6867 20.0968 26.0734 20.0148 27.0577C19.9328 27.6085 19.9562 27.7609 19.9562 28.2882C20.214 32.296 26.6008 30.5734 27.6437 27.2687C28.1945 25.4406 27.55 24.0929 27.8429 24.0929C28.4758 24.7726 29.3664 24.1866 29.5656 23.9523C29.6476 23.8351 29.8586 23.7531 29.9992 23.9054C30.4914 24.257 31.3586 24.0929 31.5461 23.4718C31.6515 22.8507 31.7336 22.2179 31.757 21.5734C31.3468 21.6906 31.0539 21.7726 31.0187 21.9484L30.9367 22.4874C30.9015 22.6632 30.5617 22.6632 30.5383 22.4406C30.3859 21.7374 29.7531 21.6554 29.3664 22.7335C29.1203 22.9445 28.6515 22.9913 28.6047 22.6749C28.6633 21.9484 28.3703 21.8546 27.7843 22.1945L27.2218 17.9523C27.4562 17.9523 27.6906 18.1281 27.9133 17.8468C27.6789 17.0851 27.1515 15.5382 26.8586 15.421C26.7297 15.257 26.6125 15.3624 26.425 15.4093C26.1203 15.5031 25.839 15.7609 25.9328 16.2765C26.2843 18.4796 26.5187 20.1554 26.882 22.3702C26.9406 22.6163 26.7297 22.9562 26.4484 22.921C25.9797 22.6046 25.8625 21.9601 25.0422 21.9835C24.4562 21.9835 23.8 22.6281 23.7179 23.2374C23.6125 23.7296 23.5773 24.257 23.7179 24.6788C24.1281 25.171 24.6203 25.1242 25.0539 25.0187C25.4054 24.8663 25.6984 24.5148 25.8273 24.5968C25.9093 24.7023 25.839 25.8741 24.1515 26.7648C23.132 27.2335 22.3117 27.3273 21.8781 26.4952C21.6086 25.9679 21.9015 23.9874 21.2218 24.4445Z" fill="white"/>
<path fill-rule="evenodd" clip-rule="evenodd" d="M29.6243 19.265C30.011 19.1244 31.886 16.9681 31.886 16.9681L31.6048 16.7337C31.4993 16.6517 31.511 16.558 31.6048 16.4759C32.0735 16.1947 31.9212 15.6087 31.6868 15.3275C31.5277 15.2499 31.3526 15.2106 31.1756 15.2126C30.9986 15.2147 30.8245 15.258 30.6673 15.3392C30.3391 15.6556 30.2688 16.1595 30.5266 16.4642C30.7727 16.5814 31.0188 16.8392 30.8548 16.9798C30.0813 17.8001 27.9837 19.2181 28.2298 19.265C28.2766 19.3353 29.5774 19.3353 29.6126 19.265H29.6243ZM18.2571 26.8822C17.554 28.0072 17.4954 29.683 17.8821 30.1869C18.093 30.4212 18.4329 30.5267 18.679 30.4447C19.1243 30.2572 19.3235 29.3548 19.218 29.0384C19.0657 28.8041 18.9485 28.7689 18.7962 28.9564C18.4915 29.5892 18.3626 29.1556 18.3274 28.8041C18.2938 28.2087 18.3253 27.6114 18.4212 27.0228C18.5032 26.5306 18.4212 26.6712 18.2571 26.8822ZM48.386 25.0892C47.7063 23.6126 46.7571 22.1595 46.4641 21.6087C45.5509 20.165 44.5814 18.7577 43.5579 17.39C42.8313 16.5228 44.7532 17.7533 43.3235 16.0189L42.2805 15.14C42.0462 14.9759 41.4837 14.6712 41.3899 15.1634C41.343 15.6087 41.3665 15.8431 41.4368 16.2064C41.4954 16.4408 41.8469 16.8509 42.0227 17.0853C44.4252 20.2675 46.5354 23.6602 48.3274 27.222C48.6321 27.0697 48.5618 25.3353 48.386 25.0892Z" fill="white"/>
<path fill-rule="evenodd" clip-rule="evenodd" d="M45.4001 29.9874C45.2595 30.1398 45.7282 30.7843 46.3376 30.7843C47.3454 30.6671 48.236 30.1046 49.0564 28.6046C49.3897 28.1056 49.6023 27.5359 49.6775 26.9406C49.7767 24.0957 49.5486 21.2489 48.9978 18.4562C48.9626 18.2218 48.9978 17.9406 49.0212 17.8703C49.0915 17.7882 49.3142 17.8703 49.4314 17.671C49.6071 17.4953 48.9626 16.0304 48.611 15.4796C48.4939 15.2218 48.4353 15.0578 48.2243 15.5031C47.9698 15.9944 47.8486 16.544 47.8728 17.0968C48.3532 20.4367 48.5056 23.3546 48.8103 26.6945C48.8454 27.0226 48.7986 27.4913 48.5759 27.6788C47.6916 28.6634 46.6094 29.4501 45.4001 29.9874ZM59.0525 29.9757C58.3259 30.3976 58.3259 30.8781 58.9118 30.8898C59.9196 30.7726 61.115 30.6906 61.9353 29.4484C62.225 28.8633 62.3925 28.2253 62.4275 27.5734C62.575 24.7723 62.3901 21.9637 61.8767 19.2062C61.8532 18.9718 61.7478 18.421 61.7829 18.3507C61.8532 18.1867 62.1814 18.3624 62.2985 18.1749C62.4626 17.9992 61.4431 16.6867 61.0798 16.1242C60.9626 15.8663 60.9157 15.7023 60.6931 16.1476C60.457 16.6435 60.3832 17.2011 60.4821 17.7413C61.0212 21.3742 61.4196 24.0929 61.5017 27.3038C61.4548 27.6085 61.4431 27.7726 61.3025 28.1593C60.986 28.5578 60.6345 29.0734 60.3064 29.3195C59.9782 29.5538 59.2751 29.7882 59.0525 29.9757Z" fill="white"/>
<path fill-rule="evenodd" clip-rule="evenodd" d="M59.5909 26.7298C59.5909 25.8743 59.6027 25.1477 59.5792 24.5032C59.5716 23.9573 59.452 23.4189 59.2277 22.9212C59.0167 22.4407 59.1456 22.054 59.0402 21.5383C58.9464 21.0227 58.9698 20.2493 58.8292 19.6516C58.7823 19.4173 58.6652 18.6555 58.7003 18.5735C58.7589 18.4094 58.9816 18.5735 59.0987 18.386C59.2628 18.2102 58.5128 16.2766 58.1378 15.7258C58.0089 15.4798 57.7511 15.5618 57.4581 15.9602C57.1652 16.2298 57.2706 16.8274 57.3878 17.4016C58.1027 21.1868 58.6534 24.6204 58.5363 28.218C58.4894 28.5227 59.5909 27.304 59.5909 26.7298ZM54.2355 22.0423C53.7784 22.0188 52.8292 21.1399 52.548 20.636C52.5019 20.5128 52.4823 20.3814 52.4904 20.2502C52.4985 20.1189 52.5341 19.9909 52.5948 19.8743C52.7706 19.7571 53.0284 19.6399 53.2277 19.7571C53.2277 19.7571 53.4269 20.0383 53.3917 20.0735C53.6261 20.1907 53.7433 20.1321 53.7667 20.0266C53.7784 19.8508 53.6964 19.7454 53.6964 19.5579C53.8019 19.0188 54.3995 18.9368 54.6339 19.2766C54.798 19.4876 54.8683 19.9212 54.88 20.2141C54.88 20.3665 54.6456 20.1907 54.4933 20.2141C54.3644 20.261 54.3292 20.4251 54.3175 20.5657C54.2941 20.9524 54.2472 21.5735 54.2355 22.0305V22.0423ZM45.8214 27.6673C45.9386 26.5188 45.7745 24.468 45.7628 23.7883C45.7001 22.0403 45.5554 20.2962 45.3292 18.5618C45.1886 17.5774 45.7277 18.6673 45.6573 18.093C45.4816 17.1204 44.9425 16.4524 44.298 15.5735C44.0988 15.2805 44.0987 15.2219 43.7823 15.6438C43.4308 16.429 43.7355 16.9798 43.8292 17.6008C44.2863 19.6165 44.5558 21.468 44.6847 23.3079C44.8196 25.2191 44.8353 27.1369 44.7316 29.0501C45.0831 29.0618 45.6222 28.4993 45.8214 27.6673Z" fill="white"/>
<path fill-rule="evenodd" clip-rule="evenodd" d="M61.1487 25.8274C60.3401 24.468 59.1331 23.0149 58.805 22.4641C57.7183 20.9466 56.577 19.469 55.3831 18.0344C54.387 16.9797 55.8518 17.8586 55.1956 17.0383C54.6448 16.4406 54.4925 16.2414 54.012 15.8781C53.7776 15.7258 53.637 15.4328 53.5433 15.9367C53.5059 16.3732 53.4981 16.8117 53.5198 17.2492C53.5198 17.4484 53.7307 17.8352 53.9182 18.0695C56.344 21.0578 59.0042 24.1047 61.137 27.9367C61.4417 27.7844 61.3362 26.0617 61.137 25.8274H61.1487Z" fill="white"/>
<path fill-rule="evenodd" clip-rule="evenodd" d="M24.6546 23.3312C24.596 23.4367 24.4671 23.5656 24.514 23.6945C24.596 23.8117 24.678 23.8469 24.8187 23.8469C24.9476 23.8469 25.1351 23.882 25.1702 23.8117C25.2405 23.7297 25.2874 23.5773 25.2405 23.425C25.0999 23.0734 24.7249 23.2141 24.6546 23.3312Z" fill="#1BA400"/>
<path fill-rule="evenodd" clip-rule="evenodd" d="M51.7969 42.9953C52.875 43.0422 53.5781 43.0539 54.5273 43.1593L55.6523 43.0422C56.8945 42.925 56.9414 44.8117 56.9414 44.8117C56.9414 45.925 56.5078 45.9836 55.957 46.1008C55.6406 46.1476 55.4883 45.9133 55.3125 45.6789C55.0475 45.7638 54.7652 45.78 54.4922 45.7258C54.0352 45.7023 53.5898 45.7023 53.1445 45.6672C52.6758 45.632 52.418 45.7258 51.9375 45.6789C51.8437 45.8312 51.7031 46.0422 51.4219 45.9836C51.1875 45.9484 50.8945 45.2804 50.9766 44.7531C51.1523 44.3781 51.0938 44.507 51.0938 44.3429C46.6875 44.2258 42.2461 44.0265 37.9336 44.0851C34.5586 44.0968 31.2305 44.2375 27.8906 44.3781C26.1094 44.3547 24.75 44.0734 23.8125 42.7023C23.9062 42.7023 28.3594 42.9484 29.6602 42.8664C32.0625 42.8429 34.2656 42.6437 36.7148 42.5734C41.543 42.6554 46.3359 42.6554 51.1641 42.9953C50.6953 42.6789 50.6953 41.9406 51.3984 41.7531C51.457 41.7062 51.4922 42.1164 51.5977 42.1047C52.1719 42.0695 51.9141 42.8429 51.7969 42.9953ZM32.3906 16.3703C31.6641 18.4562 32.8125 20.7531 33.6094 20.5304C34.1953 20.7648 34.5469 19.6633 34.7812 18.4679C34.957 18.1281 35.0742 18.0929 35.1562 18.2687C35.1328 19.8625 35.2734 20.2258 35.6836 20.7062C36.5977 21.4094 37.3594 20.8 37.418 20.7414L38.1211 20.0265C38.2852 19.8508 38.4961 19.8508 38.7188 19.9914C38.9414 20.1906 38.9062 20.5304 39.375 20.7648C39.7734 20.9289 40.6055 20.8117 40.8047 20.4719C41.0625 20.0148 41.1328 19.8625 41.25 19.6984C41.4375 19.4523 41.7539 19.5578 41.7539 19.6398C41.7188 19.7804 41.5313 19.9093 41.6602 20.1672C41.8945 20.3312 41.9414 20.2258 42.0703 20.1906C42.5391 19.9562 42.8906 18.9484 42.8906 18.9484C42.9023 18.5734 42.6914 18.5969 42.5508 18.6906L42.1875 18.9367C41.9531 18.9718 41.5195 19.1242 41.2969 18.7843C41.0742 18.3859 41.0742 17.8117 40.9102 17.4015C40.9102 17.3781 40.6055 16.757 40.8867 16.7219C41.0273 16.7453 41.3203 16.8273 41.3672 16.5812C41.5078 16.3351 41.0625 15.6437 40.7461 15.2922C40.4766 14.9992 40.1016 14.964 39.7383 15.2687C39.4805 15.5031 39.5156 15.7609 39.4688 16.007C39.4243 16.1834 39.4224 16.3678 39.4631 16.545C39.5039 16.7223 39.5861 16.8873 39.7031 17.0265C39.9609 17.5187 40.418 18.1633 40.2656 19.0773C40.2656 19.0773 39.9961 19.4992 39.5273 19.4406C39.3281 19.4054 39.0117 19.3234 38.8477 18.0578C38.7187 17.1203 38.8711 15.7843 38.4727 15.1633C38.3203 14.7765 38.2148 14.4133 37.8633 15.0578C37.7695 15.3156 37.3594 15.7023 37.6523 16.4875C37.9296 17.195 38.0105 17.9643 37.8867 18.714C37.7109 18.9719 37.6758 19.0539 37.4531 19.3C37.1484 19.6515 36.8086 19.5578 36.5508 19.4289C36.3164 19.2765 36.1289 19.1945 36.0117 18.6672C36.0352 17.8468 36.082 16.4992 35.9297 16.2179C35.707 15.7726 35.3437 15.9367 35.1914 16.0773C34.4943 16.8517 34.0275 17.8056 33.8437 18.8312C33.6328 19.5109 33.4102 19.3117 33.2578 19.0422C32.8828 18.6906 32.8477 15.9133 32.3906 16.3703Z" fill="white"/>
<path fill-rule="evenodd" clip-rule="evenodd" d="M34.5919 20.9173C34.9318 20.6829 34.7794 20.5188 35.2716 21.011C35.9069 22.1351 36.2758 23.3899 36.3497 24.679C36.3263 24.9837 36.5372 25.1712 36.6427 25.1009C36.6896 24.3977 38.4122 23.4134 39.9943 23.2727C40.2287 23.2141 40.1115 22.7571 40.1466 22.5227C40.0529 21.6438 40.6388 20.847 41.4591 20.7884C42.5841 20.9524 42.9591 21.5501 42.9826 22.4524C42.8537 24.2102 41.0255 24.5032 40.006 24.6438C39.8537 24.7024 39.7833 24.7727 40.006 24.8548L44.2951 24.8782L44.5177 24.9954C44.5412 25.1126 44.4474 25.0188 44.2833 25.3001C44.0474 25.7146 43.8998 26.1734 43.8497 26.6477C42.5724 27.0696 41.2482 27.2337 39.9122 27.4095C39.4435 27.6438 39.2091 27.9602 39.3029 28.3118C39.4669 28.6985 40.4982 29.097 40.4982 29.1087C40.6974 29.2259 40.9201 29.5188 40.4396 30.1165C38.3537 30.0227 36.7247 29.1321 36.1622 27.8782C35.9982 27.7493 35.8107 27.8782 35.6935 28.0423C34.8732 29.097 34.0763 30.0345 32.6818 30.5501C31.8615 30.761 31.006 30.4212 30.6076 29.8821C30.338 29.5657 30.3497 29.2259 30.256 29.1556C29.799 29.3548 25.9318 30.9954 26.424 30.222C27.3615 29.2259 29.0021 28.4759 30.4318 27.4915C30.5372 27.1516 30.7247 26.0266 31.2872 25.6634C31.3224 25.6634 31.2052 26.3196 31.2169 26.6009C31.2169 26.8352 31.1935 26.9173 31.2404 26.8587C31.3458 26.8001 33.0802 25.429 33.2326 25.0071C33.3966 24.7727 33.2677 24.1634 33.2677 24.1399C32.9396 23.2962 32.4826 23.2259 32.3185 22.804C32.1662 22.2532 32.2365 21.6204 32.5529 21.4329C32.8341 21.1868 33.1622 21.2102 33.4787 21.4915C33.8302 21.8079 34.1349 22.429 34.2287 22.886C34.1701 23.0618 33.7599 22.7688 33.6427 22.8509C33.8683 23.1101 34.0183 23.4263 34.0763 23.7649C34.3107 24.7259 34.2404 25.1009 34.006 25.722C33.2326 27.3509 32.2482 27.8313 31.381 28.4407C31.3576 28.4407 31.3458 28.8509 31.6622 29.0735C31.7794 29.1907 32.2365 29.2493 32.7638 29.0735C33.8904 28.4479 34.8014 27.496 35.3771 26.3431C35.4767 25.4657 35.3806 24.5773 35.0958 23.7415C34.756 22.9563 34.3576 21.8431 34.3576 21.8196C34.3458 21.3274 34.381 21.1634 34.5919 20.9173ZM23.3654 16.3938C23.8576 16.6282 24.7951 16.5227 24.7482 15.7259L24.7247 15.3626C24.631 15.1282 24.3497 15.1868 24.2912 15.4212C24.2677 15.5032 24.3263 15.6321 24.256 15.6673C24.2091 15.7141 24.0568 15.6907 24.0568 15.4681C24.0568 15.3977 24.0099 15.3274 23.9747 15.2806C23.9513 15.2571 23.9279 15.2571 23.8693 15.2571C23.799 15.2571 23.799 15.2688 23.7638 15.3274C23.7521 15.386 23.7287 15.4446 23.7287 15.5149C23.7287 15.597 23.6818 15.6204 23.6349 15.6321C23.5646 15.6321 23.5763 15.6321 23.5177 15.6087C23.4943 15.5735 23.4591 15.5618 23.4591 15.4915L23.424 15.304C23.4005 15.2688 23.3537 15.2454 23.3068 15.2337C23.0372 15.2337 23.0138 15.5501 23.0372 15.6673C23.0138 15.6907 23.0021 16.2415 23.3654 16.3938Z" fill="white"/>
<path fill-rule="evenodd" clip-rule="evenodd" d="M37.84 22.5109C38.3322 22.7453 39.5158 22.6164 39.2228 21.8546L39.1994 21.4796C39.0939 21.2453 38.8244 21.3039 38.7658 21.5499C38.7424 21.6203 38.801 21.7492 38.7189 21.7843C38.6838 21.8312 38.5197 21.8078 38.5314 21.5968C38.5314 21.5265 38.4845 21.4445 38.4494 21.3976C38.4142 21.3859 38.4025 21.3742 38.3322 21.3742C38.2736 21.3742 38.2736 21.3976 38.2385 21.4562C38.215 21.5148 38.2033 21.5734 38.2033 21.6437C38.1916 21.714 38.1564 21.7374 38.0978 21.7609C38.0392 21.7609 38.051 21.7609 38.0041 21.7257C37.9689 21.6906 37.9338 21.6789 37.9338 21.6203L37.8986 21.4328C37.8752 21.3976 37.8283 21.3742 37.7814 21.3624C37.5119 21.3624 37.4885 21.6671 37.5002 21.7843C37.4885 21.8078 37.4767 22.3703 37.8517 22.5109H37.84ZM46.2775 19.9796C46.7697 20.214 47.6955 20.1085 47.6603 19.3234L47.6369 18.9484C47.5314 18.714 47.2619 18.7726 47.2033 19.007C47.1799 19.089 47.2385 19.2179 47.1564 19.2648C47.1213 19.2999 46.9572 19.2765 46.9689 19.0539C46.9689 18.9835 46.922 18.9132 46.8869 18.8664C46.8517 18.8429 46.84 18.8429 46.7697 18.8429C46.7111 18.8429 46.7111 18.8664 46.676 18.9249L46.6408 19.1007C46.6291 19.1828 46.5939 19.2179 46.5353 19.2179C46.4767 19.2179 46.4885 19.2179 46.4416 19.1945C46.4064 19.1593 46.3713 19.1476 46.3713 19.089C46.3713 19.0304 46.3595 18.9367 46.3361 18.8898C46.3127 18.8546 46.2658 18.8429 46.2189 18.8312C45.9494 18.8312 45.926 19.1359 45.9377 19.2531C45.926 19.2765 45.9142 19.8273 46.2892 19.9796H46.2775ZM50.6486 26.3429C49.7931 27.3156 50.1681 28.921 50.3674 29.2726C50.6486 29.8351 50.8713 30.1984 51.422 30.4796C51.926 30.8429 52.3244 30.6203 52.5353 30.3624C53.0392 29.8351 53.051 28.4874 53.2853 28.2296C53.4494 27.7374 53.8713 27.8195 54.0705 28.0421C54.2569 28.3067 54.5067 28.5203 54.797 28.6632C55.2658 29.0734 55.8283 29.1554 56.3908 28.7804C56.7658 28.5578 57.0119 28.2882 57.2346 27.7374C57.4689 27.0812 57.3517 24.0343 57.2931 22.2296L56.801 19.7101C56.801 19.6867 56.7424 18.5148 56.6838 18.2453C56.6838 18.1281 56.6486 18.0929 56.7658 18.1046C56.8947 18.2218 56.9064 18.2218 57.0002 18.257C57.1174 18.2804 57.2345 18.0578 57.1525 17.8703L55.9806 15.6906C55.8869 15.5968 55.758 15.5031 55.6056 15.714C55.5158 15.7954 55.4442 15.8949 55.3957 16.006C55.3472 16.1172 55.3229 16.2373 55.3244 16.3585C55.3595 16.8742 55.4416 17.4015 55.4767 17.9171L55.9455 20.5656C56.0978 22.4406 56.133 23.9874 56.2853 25.8742C56.2619 26.671 56.0158 27.3624 55.7814 27.4679C55.7814 27.4679 55.4299 27.6671 55.1955 27.4445C55.0197 27.3742 54.3283 26.2843 54.3283 26.2843C53.9767 25.9679 53.7424 26.0499 53.4963 26.2843C52.7931 26.964 52.4885 28.2062 52.008 29.0734C51.8908 29.2726 51.5392 29.4249 51.1642 29.0617C50.2033 27.7374 50.7658 25.8624 50.6486 26.3429ZM46.5002 15.3624C46.9455 15.5382 47.2502 16.4406 47.1564 16.8859C47.0627 17.4132 46.8283 17.9992 46.6642 17.9289C46.4767 17.8585 46.7814 17.3898 46.6056 16.8976C46.5119 16.5695 45.9025 15.9835 45.9728 15.8195C45.8556 15.4562 46.2306 15.2921 46.5002 15.3507V15.3624Z" fill="white"/>
<path fill-rule="evenodd" clip-rule="evenodd" d="M52.0789 26.882C52.1609 25.8039 52.0086 25.1477 51.9852 24.5148C51.9617 23.882 51.2703 19.0539 51.1297 18.5852C50.9539 17.6711 51.7977 18.468 51.7039 17.9289C51.4109 17.2727 50.6961 16.3 50.4734 15.7258C50.3328 15.4914 50.3914 15.257 50.0867 15.6672C49.8244 16.3863 49.7321 17.1564 49.8172 17.9172C50.5438 21.7023 51.282 24.843 51.1649 28.4406C51.5164 28.4406 51.9031 27.6555 52.0789 26.882ZM59.6258 16.8859C60.0359 17.0852 60.2703 18.2102 60.2234 18.5266C60.1414 19.1125 59.9305 19.7453 59.7781 19.6633C59.6024 19.593 59.8133 18.7961 59.7313 18.55C59.6375 18.1984 59.0867 17.5656 59.1453 17.3781C59.0281 16.9797 59.3797 16.8156 59.6258 16.8859ZM29.6609 24.843C30.0477 24.9953 30.282 25.8156 30.2469 26.05C30.1531 26.4836 29.9539 26.9523 29.8016 26.882C29.6492 26.8352 29.8367 26.2492 29.7664 26.0617C29.7313 25.6281 29.1922 25.3938 29.2039 25.2063C29.1102 24.8547 29.4383 24.7961 29.6727 24.843H29.6609Z" fill="white"/>
<path fill-rule="evenodd" clip-rule="evenodd" d="M38.9888 26.0852C39.481 26.1086 39.7271 26.5071 39.27 26.6711C38.8013 26.8235 38.3677 26.9524 38.356 27.6086C38.5317 28.5461 38.1216 28.218 37.8872 28.1008C37.606 27.8899 36.8091 27.3977 36.6919 26.343C36.6802 26.0969 36.8794 25.8743 37.1958 25.8743C37.6646 26.0032 38.3677 26.0149 38.9888 26.0852Z" fill="#1B9D00"/>
<path fill-rule="evenodd" clip-rule="evenodd" d="M19.3596 15.0931C19.9221 15.2572 19.9573 16.1009 19.9221 16.347C19.8401 16.7923 19.6409 17.2728 19.5003 17.2142C19.3362 17.1556 19.5003 16.5462 19.4182 16.3587C19.3362 16.1009 18.8557 15.6087 18.9026 15.4681C18.7971 15.1751 19.137 15.0345 19.3596 15.0931ZM30.5979 19.0306C30.1526 19.265 29.9885 19.9681 30.2581 20.39C30.5159 20.7415 30.9143 20.6126 30.9612 20.6126C31.3948 20.6595 31.6526 19.804 31.6526 19.804C31.6526 19.804 31.6643 19.5697 31.1604 20.0267C30.9378 20.0619 30.926 19.9798 30.8674 19.8626C30.8138 19.6395 30.8344 19.405 30.926 19.1947C31.0081 18.9837 30.844 18.89 30.5979 19.0306ZM33.8792 14.765C33.6448 14.9173 33.2112 15.3744 33.1995 15.89C33.1878 16.1829 33.1292 16.1829 33.3167 16.3587C33.469 16.5697 33.5979 16.5579 33.8792 16.4056C33.9492 16.3615 34.0094 16.3033 34.0558 16.2347C34.1022 16.1661 34.1338 16.0886 34.1487 16.0072C34.219 15.679 33.7971 16.1712 33.7503 15.7962C33.6565 15.4447 33.926 15.304 34.1839 14.9759C34.1839 14.7415 34.1839 14.5892 33.8674 14.765H33.8792ZM36.5042 15.2337C36.4009 15.6605 36.3381 16.096 36.3167 16.5345C36.2464 16.8626 36.6682 17.0033 36.844 16.5814C37.1253 15.8197 37.1253 15.4915 37.1487 15.1751C37.0667 14.6712 36.7268 14.6829 36.5042 15.2337ZM53.1448 23.7064C53.1917 23.6478 55.4885 22.0189 55.4885 22.0189C55.7229 21.9369 55.6643 22.8626 55.5589 22.8509C54.8465 23.5374 54.0272 24.1034 53.1331 24.5267C53.0159 24.6087 52.9104 23.9056 53.1331 23.7064H53.1448ZM55.219 23.6829C55.6292 23.8822 55.7932 25.0658 55.7464 25.3822C55.7464 26.015 55.3596 26.5072 55.1956 26.4369C55.0315 26.3548 55.219 25.6517 55.137 25.4056C55.0432 25.054 54.7034 24.4095 54.762 24.222C54.6448 23.8236 54.9729 23.6126 55.2307 23.6829H55.219ZM41.6253 28.7689C41.8153 28.547 42.0364 28.3536 42.2815 28.1947C42.5159 28.0775 42.7268 28.2884 42.7151 28.2767C42.7503 28.5111 42.5745 28.7103 42.6331 29.015C42.6799 29.1322 42.7151 29.2728 42.9378 29.2259C43.301 28.9329 43.6409 28.9095 43.9925 28.8978C44.2854 28.9095 44.2971 29.39 44.1096 29.39C43.4417 29.5306 43.1487 29.7181 42.6682 29.8939C42.4339 30.0345 42.2464 29.8587 42.2464 29.847C42.2464 29.8353 42.1174 29.7181 42.1995 29.4134C42.2229 29.179 42.1292 29.0384 41.9182 29.0619C41.7776 29.1556 41.637 29.2025 41.5667 29.0267C41.5315 28.9095 41.5198 28.8392 41.6253 28.7689ZM57.6331 29.4017C57.7268 29.5189 57.7971 29.6361 57.6214 29.847L57.1878 30.222C57.1174 30.3392 57.0706 30.5501 57.3049 30.6087C57.7268 30.7259 58.7112 30.0814 58.7112 30.0697C58.8753 29.9525 58.8284 29.7181 58.8049 29.7181C58.7112 29.6126 58.5003 29.6829 58.3596 29.6595C58.2893 29.6595 58.0667 29.6361 58.1721 29.4251C58.2508 29.3216 58.314 29.2071 58.3596 29.0853C58.4182 28.9447 58.3596 28.8509 58.1253 28.7689C57.8792 28.722 57.7737 28.7454 57.5042 28.7689C57.3635 28.7923 57.3167 28.8626 57.2815 29.0384C57.2932 29.3079 57.4573 29.2962 57.6331 29.39V29.4017Z" fill="white"/>
<path fill-rule="evenodd" clip-rule="evenodd" d="M41.708 22.7453C41.6494 22.8625 41.4384 22.8625 41.2392 22.7453C41.04 22.6281 40.9228 22.4406 40.9931 22.3351C41.0634 22.2297 41.2626 22.2297 41.4619 22.3351C41.6611 22.4406 41.7665 22.6398 41.708 22.7453ZM31.2783 16.464C31.1611 16.4992 30.997 16.3937 30.9267 16.2297C30.8564 16.0656 30.8915 15.925 31.0087 15.8898C31.1259 15.8547 31.2783 15.9719 31.3603 16.1242C31.4423 16.2765 31.3955 16.4406 31.2665 16.4758L31.2783 16.464Z" fill="#259F00"/>
<path fill-rule="evenodd" clip-rule="evenodd" d="M51.9127 44.4602C53.0142 44.5071 54.0455 44.4602 55.1353 44.5188C55.3345 44.6946 55.1939 45.1047 55.065 45.0813L54.1509 45.0461C54.1392 44.6946 53.2486 44.7532 53.272 45.0579C52.7916 45.1165 52.358 45.0461 51.8658 45.0227C51.7251 44.8469 51.7486 44.5305 51.9127 44.4602Z" fill="#209000"/>
</g>
</g>
<defs>
<clipPath id="clip0_4447_33921">
<rect width="80" height="60" fill="white" transform="translate(0.289062 0.514893)"/>
</clipPath>
</defs>
</svg>
