<svg width="81" height="61" viewBox="0 0 81 61" fill="none" xmlns="http://www.w3.org/2000/svg">
<g clip-path="url(#clip0_4447_33118)">
<path d="M32.2891 0.514893H80.2891V60.5149H32.2891V0.514893Z" fill="#FF0000"/>
<path d="M0.289062 0.514893H32.2891V60.5149H0.289062V0.514893Z" fill="#006600"/>
<path fill-rule="evenodd" clip-rule="evenodd" d="M42.7266 38.79C38.6891 38.665 20.2266 27.14 20.1016 25.29L21.1141 23.6025C22.9516 26.265 41.8266 37.4775 43.6891 37.0775L42.7266 38.79Z" fill="#FFFF00" stroke="black" stroke-width="0.075" stroke-linecap="round" stroke-linejoin="round"/>
<path fill-rule="evenodd" clip-rule="evenodd" d="M20.9029 23.365C20.5404 24.34 25.7279 27.54 31.9529 31.34C38.1904 35.1275 43.5654 37.465 43.9529 37.14L44.1404 36.79C44.0654 36.915 43.8904 36.9525 43.6029 36.865C41.9154 36.3775 37.5279 34.365 32.0904 31.065C26.6404 27.765 21.9154 24.7275 21.1779 23.44C21.1204 23.3193 21.0946 23.1859 21.1029 23.0525H21.0779L20.9279 23.3275L20.9029 23.365ZM42.8154 38.84C42.7529 38.965 42.6154 38.965 42.3779 38.94C40.8779 38.7775 36.3029 36.5525 30.8904 33.315C24.5904 29.54 19.3904 26.115 19.9654 25.215L20.1154 24.94L20.1404 24.9525C19.6404 26.4775 30.4029 32.6275 31.0404 33.0275C37.2654 36.8775 42.5154 39.14 42.9779 38.5525L42.8154 38.84Z" fill="#FFFF00" stroke="black" stroke-width="0.075" stroke-linecap="round" stroke-linejoin="round"/>
<path fill-rule="evenodd" clip-rule="evenodd" d="M32.3156 26.4149C36.3406 26.3774 41.3156 25.8649 44.1906 24.7149L43.5656 23.7149C41.8781 24.6524 36.8781 25.2774 32.2781 25.3649C26.8531 25.3149 23.0156 24.8024 21.0906 23.5149L20.5156 24.5899C24.0406 26.0899 27.6656 26.4024 32.3156 26.4149Z" fill="#FFFF00" stroke="black" stroke-width="0.075" stroke-linecap="round" stroke-linejoin="round"/>
<path fill-rule="evenodd" clip-rule="evenodd" d="M44.35 24.7401C44.25 24.9026 42.375 25.5401 39.625 26.0151C37.2008 26.3824 34.7519 26.5621 32.3 26.5526C29.9509 26.5614 27.6038 26.4111 25.275 26.1026C22.3875 25.6526 20.9 25.0276 20.3375 24.8026L20.475 24.5276C22.0625 25.1526 23.5625 25.5276 25.3125 25.8026C27.6243 26.1147 29.9547 26.2693 32.2875 26.2651C34.7267 26.2676 37.1626 26.088 39.575 25.7276C42.3875 25.2651 43.925 24.6776 44.15 24.4151L44.35 24.7526V24.7401ZM43.8 23.7276C43.5 23.9776 41.975 24.5151 39.3 24.9401C36.9901 25.2743 34.659 25.4414 32.325 25.4401C29.575 25.4401 27.3125 25.2401 25.6 24.9901C22.875 24.6401 21.425 23.9901 20.9 23.8151L21.0625 23.5401C21.475 23.7526 22.8625 24.3151 25.625 24.7026C27.8457 25 30.0845 25.1421 32.325 25.1276C34.6424 25.1283 36.9568 24.9612 39.25 24.6276C41.9375 24.2526 43.3875 23.5776 43.6125 23.4026L43.8 23.7276ZM19.075 31.2651C21.55 32.6026 27.0625 33.2651 32.275 33.3151C37.025 33.3276 43.2 32.5901 45.5125 31.3651L45.45 30.0276C44.725 31.1526 38.1 32.2401 32.225 32.2026C26.35 32.1526 20.8875 31.2526 19.0625 30.0776V31.2651" fill="#FFFF00"/>
<path d="M19.075 31.2651C21.55 32.6026 27.0625 33.2651 32.275 33.3151C37.025 33.3276 43.2 32.5901 45.5125 31.3651L45.45 30.0276C44.725 31.1526 38.1 32.2401 32.225 32.2026C26.35 32.1526 20.8875 31.2526 19.0625 30.0776V31.2651M44.35 24.7401C44.25 24.9026 42.375 25.5401 39.625 26.0151C37.2008 26.3824 34.7519 26.5621 32.3 26.5526C29.9509 26.5614 27.6038 26.4111 25.275 26.1026C22.3875 25.6526 20.9 25.0276 20.3375 24.8026L20.475 24.5276C22.0625 25.1526 23.5625 25.5276 25.3125 25.8026C27.6243 26.1147 29.9547 26.2693 32.2875 26.2651C34.7267 26.2676 37.1626 26.088 39.575 25.7276C42.3875 25.2651 43.925 24.6776 44.15 24.4151L44.35 24.7526V24.7401ZM43.8 23.7276C43.5 23.9776 41.975 24.5151 39.3 24.9401C36.9901 25.2743 34.659 25.4414 32.325 25.4401C29.575 25.4401 27.3125 25.2401 25.6 24.9901C22.875 24.6401 21.425 23.9901 20.9 23.8151L21.0625 23.5401C21.475 23.7526 22.8625 24.3151 25.625 24.7026C27.8457 25 30.0845 25.1421 32.325 25.1276C34.6424 25.1283 36.9568 24.9612 39.25 24.6276C41.9375 24.2526 43.3875 23.5776 43.6125 23.4026L43.8 23.7276Z" stroke="black" stroke-width="0.075" stroke-linecap="round" stroke-linejoin="round"/>
<path fill-rule="evenodd" clip-rule="evenodd" d="M45.6391 31.0776V31.3901C45.2891 31.8151 43.1141 32.4401 40.3891 32.8901C37.6818 33.2792 34.949 33.4631 32.2141 33.4401C29.6207 33.4622 27.0295 33.2825 24.4641 32.9026C22.5498 32.6814 20.6792 32.1758 18.9141 31.4026V31.0401C20.1266 31.8401 23.4016 32.4401 24.5016 32.6151C26.4766 32.9151 29.0141 33.1401 32.2141 33.1401C35.5766 33.1401 38.2641 32.9026 40.3391 32.5901C42.3016 32.3026 45.0891 31.5651 45.6391 31.0776ZM45.6391 29.9526V30.2651C45.2891 30.6776 43.1141 31.3026 40.3891 31.7526C37.6821 32.1459 34.9493 32.334 32.2141 32.3151C29.6209 32.3303 27.0303 32.1507 24.4641 31.7776C22.5498 31.5564 20.6792 31.0508 18.9141 30.2776V29.9026C20.1266 30.7151 23.4141 31.3026 24.5016 31.4776C27.0551 31.8516 29.6333 32.0313 32.2141 32.0151C35.5766 32.0151 38.2766 31.7651 40.3391 31.4526C42.3016 31.1776 45.0891 30.4401 45.6391 29.9526ZM32.2641 38.5526C26.5641 38.5276 21.6766 37.0026 20.6391 36.7526L21.3891 37.9276C24.8952 39.1694 28.595 39.7747 32.3141 39.7151C36.6516 39.5901 40.4391 39.2526 43.1016 37.9526L43.8766 36.7276C42.0641 37.5901 35.8766 38.5526 32.2516 38.5526" fill="#FFFF00"/>
<path d="M32.2641 38.5526C26.5641 38.5276 21.6766 37.0026 20.6391 36.7526L21.3891 37.9276C24.8952 39.1694 28.595 39.7747 32.3141 39.7151C36.6516 39.5901 40.4391 39.2526 43.1016 37.9526L43.8766 36.7276C42.0641 37.5901 35.8766 38.5526 32.2516 38.5526M45.6391 31.0776V31.3901C45.2891 31.8151 43.1141 32.4401 40.3891 32.8901C37.6818 33.2792 34.949 33.4631 32.2141 33.4401C29.6207 33.4622 27.0295 33.2825 24.4641 32.9026C22.5498 32.6814 20.6792 32.1758 18.9141 31.4026V31.0401C20.1266 31.8401 23.4016 32.4401 24.5016 32.6151C26.4766 32.9151 29.0141 33.1401 32.2141 33.1401C35.5766 33.1401 38.2641 32.9026 40.3391 32.5901C42.3016 32.3026 45.0891 31.5651 45.6391 31.0776ZM45.6391 29.9526V30.2651C45.2891 30.6776 43.1141 31.3026 40.3891 31.7526C37.6821 32.1459 34.9493 32.334 32.2141 32.3151C29.6209 32.3303 27.0303 32.1507 24.4641 31.7776C22.5498 31.5564 20.6792 31.0508 18.9141 30.2776V29.9026C20.1266 30.7151 23.4141 31.3026 24.5016 31.4776C27.0551 31.8516 29.6333 32.0313 32.2141 32.0151C35.5766 32.0151 38.2766 31.7651 40.3391 31.4526C42.3016 31.1776 45.0891 30.4401 45.6391 29.9526Z" stroke="black" stroke-width="0.075" stroke-linecap="round" stroke-linejoin="round"/>
<path fill-rule="evenodd" clip-rule="evenodd" d="M43.4016 37.6774C43.2877 37.8461 43.1711 38.0128 43.0516 38.1774C41.8016 38.6274 39.8016 39.1024 38.9766 39.2274C36.7628 39.64 34.5159 39.8492 32.2641 39.8524C27.2141 39.7774 23.0766 38.7899 21.1391 37.9399L20.9766 37.6774L21.0016 37.6274L21.2641 37.7399C24.8216 38.9172 28.5419 39.5288 32.2891 39.5524C34.6391 39.5524 36.9766 39.2899 38.8641 38.9524C41.7641 38.3649 42.9391 37.9274 43.3016 37.7274L43.3891 37.6774H43.4016ZM44.0641 36.5774C43.9818 36.7239 43.8984 36.8697 43.8141 37.0149C43.1391 37.2649 41.3141 37.7899 38.6516 38.1649C36.9016 38.4024 35.8141 38.6399 32.3266 38.7024C28.3398 38.6624 24.3776 38.0736 20.5516 36.9524L20.4141 36.6399C24.3014 37.7143 28.307 38.3021 32.3391 38.3899C35.5266 38.3274 36.8891 38.0899 38.6266 37.8524C41.7266 37.3774 43.2891 36.8524 43.7516 36.7149C43.7519 36.7066 43.7519 36.6983 43.7516 36.6899L44.0766 36.5649L44.0641 36.5774Z" fill="#FFFF00" stroke="black" stroke-width="0.075" stroke-linecap="round" stroke-linejoin="round"/>
<path fill-rule="evenodd" clip-rule="evenodd" d="M44.1375 30.2149C44.15 33.9649 42.225 37.3399 40.6875 38.8149C38.4167 41.0296 35.3842 42.2909 32.2125 42.3399C28.425 42.4024 24.8625 39.9399 23.9 38.8524C21.7468 36.569 20.5213 33.5654 20.4625 30.4274C20.6875 26.3274 22.3 23.4774 24.625 21.5149C26.8836 19.6556 29.7247 18.651 32.65 18.6774C34.3577 18.7602 36.0292 19.1988 37.5575 19.9651C39.0858 20.7314 40.4372 21.8085 41.525 23.1274C43.0875 25.0274 43.775 27.0899 44.1375 30.2149ZM32.2375 17.3899C35.7344 17.3898 39.0895 18.772 41.5715 21.2353C44.0535 23.6986 45.4611 27.0431 45.4875 30.5399C45.4875 32.275 45.1458 33.9931 44.4818 35.5961C43.8178 37.1991 42.8446 38.6556 41.6177 39.8825C40.3908 41.1094 38.9342 42.0827 37.3312 42.7467C35.7282 43.4106 34.0101 43.7524 32.275 43.7524C30.5399 43.7524 28.8218 43.4106 27.2188 42.7467C25.6158 42.0827 24.1593 41.1094 22.9324 39.8825C21.7055 38.6556 20.7323 37.1991 20.0683 35.5961C19.4043 33.9931 19.0625 32.275 19.0625 30.5399C19.05 23.2899 24.975 17.3899 32.2375 17.3899Z" fill="#FFFF00" stroke="black" stroke-width="0.075" stroke-linecap="round" stroke-linejoin="round"/>
<path fill-rule="evenodd" clip-rule="evenodd" d="M32.2773 17.3274C39.5523 17.3274 45.4773 23.2524 45.4773 30.5274C45.4773 37.8024 39.5523 43.7274 32.2898 43.7274C25.0273 43.7274 19.0898 37.8024 19.0898 30.5274C19.0898 23.2524 25.0148 17.3274 32.2898 17.3274H32.2773ZM19.3648 30.5149C19.3648 37.6149 25.2023 43.4274 32.2773 43.4274C39.3523 43.4274 45.1898 37.6149 45.1898 30.5149C45.1898 23.4149 39.3523 17.6024 32.2773 17.6024C25.2023 17.6024 19.3648 23.4149 19.3648 30.5149Z" fill="#FFFF00" stroke="black" stroke-width="0.075" stroke-linecap="round" stroke-linejoin="round"/>
<path fill-rule="evenodd" clip-rule="evenodd" d="M32.2906 18.4275C35.4934 18.4374 38.5621 19.7141 40.8269 21.9788C43.0916 24.2435 44.3682 27.3122 44.3781 30.515C44.3683 33.7189 43.092 36.789 40.8276 39.0557C38.5633 41.3224 35.4945 42.6018 32.2906 42.615C25.6656 42.615 20.2031 37.165 20.2031 30.515C20.2163 27.3132 21.494 24.2464 23.758 21.9824C26.022 19.7184 29.0889 18.4407 32.2906 18.4275ZM20.4906 30.515C20.4906 37.015 25.8156 42.315 32.2906 42.315C38.7656 42.315 44.0906 37.0025 44.0906 30.515C44.0906 24.015 38.7656 18.715 32.2906 18.715C29.1651 18.7282 26.1714 19.9756 23.9613 22.1857C21.7512 24.3958 20.5038 27.3895 20.4906 30.515Z" fill="#FFFF00" stroke="black" stroke-width="0.075" stroke-linecap="round" stroke-linejoin="round"/>
<path fill-rule="evenodd" clip-rule="evenodd" d="M32.825 17.2649H31.6875V43.8024H32.8125L32.825 17.2649Z" fill="#FFFF00" stroke="black" stroke-width="0.075" stroke-linecap="round" stroke-linejoin="round"/>
<path fill-rule="evenodd" clip-rule="evenodd" d="M32.7031 17.115H32.9906V43.9525H32.7156V17.115H32.7031ZM31.5781 17.115H31.8781V43.9525H31.5906V17.115H31.5781Z" fill="#FFFF00" stroke="black" stroke-width="0.075" stroke-linecap="round" stroke-linejoin="round"/>
<path fill-rule="evenodd" clip-rule="evenodd" d="M45.4898 31.0399V30.0649L44.6898 29.3149L40.1523 28.1149L33.6273 27.4524L25.7523 27.8524L20.1523 29.1774L19.0273 30.0149V31.0024L21.8898 29.7149L28.6898 28.6524H35.2273L40.0273 29.1774L43.3523 29.9774L45.4898 31.0399Z" fill="#FFFF00" stroke="black" stroke-width="0.075" stroke-linecap="round" stroke-linejoin="round"/>
<path fill-rule="evenodd" clip-rule="evenodd" d="M32.2891 28.49C35.4016 28.49 38.4141 28.7775 40.8266 29.24C43.3016 29.74 45.0391 30.365 45.6391 31.0525V31.4025C44.9141 30.5275 42.5766 29.9025 40.7641 29.5275C38.3891 29.0775 35.3891 28.7775 32.2766 28.7775C29.0141 28.7775 25.9641 29.1025 23.6141 29.5525C21.7391 29.9275 19.2266 30.6775 18.9141 31.4025V31.04C19.0766 30.54 20.9516 29.79 23.5766 29.2525C25.9391 28.79 28.9891 28.49 32.2766 28.49H32.2891ZM32.2891 27.3525C35.1516 27.3468 38.0089 27.5978 40.8266 28.1025C43.3016 28.6025 45.0391 29.2275 45.6391 29.9275V30.265C44.9141 29.4025 42.5766 28.765 40.7641 28.4025C38.3891 27.94 35.3891 27.6525 32.2766 27.6525C29.3755 27.6434 26.4798 27.9028 23.6266 28.4275C21.8141 28.765 19.2016 29.54 18.9141 30.265V29.915C19.0891 29.415 20.9891 28.6275 23.5766 28.1275C25.9516 27.665 28.9891 27.3525 32.2891 27.3525ZM32.2141 21.5775C37.1266 21.5525 41.4141 22.265 43.3766 23.265L44.0891 24.515C42.3891 23.59 37.7641 22.64 32.2266 22.765C27.7141 22.8025 22.8891 23.265 20.4766 24.565L21.3266 23.14C23.3141 22.1025 27.9891 21.5775 32.2141 21.5775Z" fill="#FFFF00" stroke="black" stroke-width="0.075" stroke-linecap="round" stroke-linejoin="round"/>
<path fill-rule="evenodd" clip-rule="evenodd" d="M32.2906 22.6025C34.8555 22.5593 37.4194 22.7391 39.9531 23.1401C41.9531 23.515 43.8656 24.0651 44.1406 24.3651L44.3531 24.7401C43.6906 24.3151 42.0281 23.8276 39.9031 23.4276C37.7781 23.0276 35.0656 22.8901 32.2781 22.9026C29.1156 22.8901 26.6531 23.0526 24.5531 23.4276C23.1055 23.6304 21.7 24.0652 20.3906 24.7151L20.6031 24.3276C21.3531 23.9526 22.5156 23.49 24.4906 23.1275C26.6781 22.7275 29.1656 22.615 32.2906 22.6025ZM32.2906 21.4775C34.9656 21.4525 37.6156 21.6025 39.6781 21.9775C41.0144 22.1759 42.3076 22.5986 43.5031 23.2275L43.8156 23.7275C43.2906 23.14 41.3156 22.5776 39.5531 22.2776C37.5031 21.9151 34.9656 21.7775 32.2906 21.7525C29.8005 21.7304 27.3129 21.9143 24.8531 22.3026C23.567 22.4818 22.3178 22.8658 21.1531 23.44L21.4281 23.0276C22.1531 22.6526 23.3281 22.3026 24.8031 22.0151C27.2791 21.6217 29.7838 21.4377 32.2906 21.4651V21.4775ZM38.8406 36.015C36.674 35.6399 34.4766 35.4725 32.2781 35.515C24.0906 35.6151 21.4531 37.2025 21.1281 37.6775L20.5031 36.6775C22.6031 35.1775 27.0531 34.3276 32.3281 34.4026C35.0656 34.4526 37.4281 34.6401 39.4031 35.0276L38.8406 36.0276" fill="#FFFF00"/>
<path d="M38.8406 36.015C36.674 35.6399 34.4766 35.4725 32.2781 35.515C24.0906 35.615 21.4531 37.2025 21.1281 37.6775L20.5031 36.6775C22.6031 35.1775 27.0531 34.3276 32.3281 34.4026C35.0656 34.4526 37.4281 34.6401 39.4031 35.0276L38.8406 36.0276M32.2906 22.6025C34.8555 22.5593 37.4194 22.7391 39.9531 23.1401C41.9531 23.5151 43.8656 24.0651 44.1406 24.3651L44.3531 24.7401C43.6906 24.3151 42.0281 23.8276 39.9031 23.4276C37.7781 23.0276 35.0656 22.8901 32.2781 22.9026C29.1156 22.8901 26.6531 23.0526 24.5531 23.4276C23.1055 23.6304 21.7 24.0652 20.3906 24.7151L20.6031 24.3276C21.3531 23.9526 22.5156 23.49 24.4906 23.1275C26.6781 22.7275 29.1656 22.615 32.2906 22.6025ZM32.2906 21.4775C34.9656 21.4525 37.6156 21.6025 39.6781 21.9775C41.0144 22.1759 42.3076 22.5986 43.5031 23.2275L43.8156 23.7275C43.2906 23.14 41.3156 22.5776 39.5531 22.2776C37.5031 21.9151 34.9656 21.7775 32.2906 21.7525C29.8005 21.7304 27.3129 21.9143 24.8531 22.3026C23.567 22.4818 22.3178 22.8658 21.1531 23.44L21.4281 23.0276C22.1531 22.6526 23.3281 22.3026 24.8031 22.0151C27.2791 21.6217 29.7838 21.4377 32.2906 21.4651V21.4775Z" stroke="black" stroke-width="0.075" stroke-linecap="round" stroke-linejoin="round"/>
<path fill-rule="evenodd" clip-rule="evenodd" d="M32.2398 35.3776C34.5148 35.4151 36.7398 35.5026 38.9023 35.9026L38.7523 36.1776C36.7523 35.8026 34.6023 35.6776 32.2523 35.6776C29.2148 35.6526 26.1648 35.9401 23.5023 36.7026C22.6648 36.9401 21.2773 37.4776 21.1273 37.9276L20.9773 37.6776C21.0273 37.4026 21.8523 36.8526 23.4273 36.4276C26.4773 35.5526 29.3273 35.3901 32.2398 35.3776ZM32.3398 34.2276C34.7411 34.2251 37.1378 34.4342 39.5023 34.8526L39.3398 35.1401C37.0309 34.7165 34.6872 34.5114 32.3398 34.5276C29.3148 34.5276 26.1023 34.7526 23.1773 35.6026C22.2398 35.8776 20.6023 36.4776 20.5523 36.9401L20.4023 36.6651C20.4273 36.2401 21.8398 35.6776 23.1148 35.3151C26.0523 34.4526 29.2773 34.2401 32.3398 34.2276Z" fill="#FFFF00" stroke="black" stroke-width="0.075" stroke-linecap="round" stroke-linejoin="round"/>
<path fill-rule="evenodd" clip-rule="evenodd" d="M43.9656 36.8275L42.9906 38.365L40.1531 35.8525L32.8281 30.915L24.5531 26.3775L20.2656 24.915L21.1781 23.215L21.4906 23.0525L24.1531 23.715L32.9531 28.2525L38.0281 31.4525L42.2906 34.515L44.0281 36.515L43.9656 36.8275Z" fill="#FFFF00" stroke="black" stroke-width="0.075" stroke-linecap="round" stroke-linejoin="round"/>
<path fill-rule="evenodd" clip-rule="evenodd" d="M20.1156 24.9526C20.8656 24.4526 26.3906 26.9026 32.1906 30.4026C37.9531 33.9026 43.4781 37.8526 42.9781 38.5901L42.8156 38.8526L42.7406 38.9151C42.7531 38.9026 42.8406 38.7901 42.7406 38.5276C42.4906 37.7151 38.5656 34.5901 32.0781 30.6651C25.7406 26.9026 20.4656 24.6276 19.9531 25.2776L20.1156 24.9526ZM44.1656 36.8151C44.6406 35.8651 39.5156 32.0026 33.1531 28.2401C26.6531 24.5526 21.9531 22.3776 21.0906 23.0276L20.9156 23.3901C20.9156 23.4026 20.9156 23.3651 20.9656 23.3276C21.1156 23.2026 21.3781 23.2026 21.4906 23.2026C22.9656 23.2276 27.1781 25.1651 33.0906 28.5526C35.6906 30.0526 44.0406 35.4276 44.0031 36.9276C44.0031 37.0526 44.0156 37.0776 43.9656 37.1526L44.1781 36.8276L44.1656 36.8151Z" fill="#FFFF00" stroke="black" stroke-width="0.075" stroke-linecap="round" stroke-linejoin="round"/>
<path d="M24.3672 31.9857C24.3692 33.0207 24.5764 34.0451 24.9769 34.9995C25.3774 35.9538 25.9633 36.8193 26.7005 37.5457C27.4288 38.2852 28.2962 38.8733 29.2527 39.276C30.2092 39.6788 31.236 39.8882 32.2739 39.8924C34.3743 39.8923 36.3887 39.0577 37.8739 37.5724C38.6085 36.8419 39.1917 35.9736 39.5898 35.0171C39.9879 34.0607 40.1932 33.035 40.1939 31.9991V21.439L24.3672 21.4124V31.9857Z" fill="white" stroke="black" stroke-width="0.0933336"/>
<path d="M24.6602 31.9991C24.663 32.9919 24.8624 33.9744 25.2468 34.8897C25.6313 35.8051 26.1932 36.6353 26.9002 37.3324C28.3197 38.7594 30.2474 39.565 32.2602 39.5724C34.2695 39.5735 36.1971 38.7775 37.6202 37.3591C38.3247 36.6609 38.8842 35.8302 39.2664 34.9149C39.6485 33.9995 39.8458 33.0176 39.8469 32.0257V21.759H24.6868V31.9991M36.8202 24.839V31.3591L36.8069 32.0391C36.8114 32.6347 36.6956 33.2252 36.4665 33.775C36.2374 34.3249 35.8996 34.8228 35.4735 35.2391C34.6256 36.0899 33.4747 36.5695 32.2735 36.5724C31.0202 36.5724 29.9135 36.0391 29.0868 35.2124C28.236 34.3645 27.7564 33.2136 27.7535 32.0124V24.8124L36.8202 24.839Z" fill="#FF0000"/>
<path d="M24.6602 31.9991C24.663 32.9919 24.8624 33.9744 25.2468 34.8897C25.6313 35.8051 26.1932 36.6353 26.9002 37.3324C28.3197 38.7594 30.2474 39.565 32.2602 39.5724C34.2695 39.5735 36.1971 38.7775 37.6202 37.3591C38.3247 36.6609 38.8842 35.8302 39.2664 34.9149C39.6485 33.9995 39.8458 33.0176 39.8469 32.0257V21.759H24.6868V31.9991M36.8202 24.839V31.3591L36.8069 32.0391C36.8114 32.6347 36.6956 33.2252 36.4665 33.775C36.2374 34.3249 35.8996 34.8228 35.4735 35.2391C34.6256 36.0899 33.4747 36.5695 32.2735 36.5724C31.0202 36.5724 29.9135 36.0391 29.0868 35.2124C28.236 34.3645 27.7564 33.2136 27.7535 32.0124V24.8124L36.8202 24.839Z" stroke="black" stroke-width="0.0666669"/>
<path d="M25.6484 24.4389C25.6618 23.7056 26.1818 23.5322 26.1818 23.5322C26.1951 23.5322 26.7551 23.7189 26.7551 24.4522H25.6484" fill="#FFFF00"/>
<path d="M25.1938 23.5456L25.1005 24.3856H25.6605C25.6605 23.6922 26.1938 23.5856 26.1938 23.5856C26.2071 23.5856 26.7271 23.7322 26.7405 24.3856H27.3005L27.1938 23.5322H25.1938V23.5456ZM25.0605 24.3989H27.3271C27.3671 24.3989 27.4071 24.4389 27.4071 24.4922C27.4071 24.5589 27.3671 24.5989 27.3271 24.5989H25.0605C25.0205 24.5989 24.9805 24.5589 24.9805 24.4922C24.9805 24.4389 25.0205 24.3989 25.0738 24.3989H25.0605Z" fill="#FFFF00" stroke="black" stroke-width="0.0666669"/>
<path d="M25.8885 24.3857C25.8885 23.9457 26.1952 23.8257 26.1952 23.8257C26.1952 23.8257 26.5018 23.959 26.5018 24.3857H25.8885ZM25.1152 23.1857H27.2885C27.3285 23.1857 27.3685 23.239 27.3685 23.2923C27.3685 23.3323 27.3285 23.3723 27.2885 23.3723H25.1152C25.0752 23.3723 25.0352 23.3323 25.0352 23.279C25.0352 23.239 25.0752 23.199 25.1152 23.199V23.1857ZM25.1685 23.3857H27.2218C27.2618 23.3857 27.3018 23.4257 27.3018 23.479C27.3018 23.5323 27.2618 23.5723 27.2218 23.5723H25.1552C25.1018 23.5723 25.0752 23.5323 25.0752 23.479C25.0752 23.4257 25.1018 23.3857 25.1552 23.3857H25.1685ZM25.8352 21.9723H25.9952V22.079H26.1152V21.9723H26.2885V22.0923H26.4085V21.959H26.5685V22.2257C26.5685 22.279 26.5418 22.3057 26.5018 22.3057H25.9152C25.8752 22.3057 25.8352 22.279 25.8352 22.239V21.9723ZM26.4485 22.3323L26.4885 23.1857H25.9152L25.9552 22.319H26.4485" fill="#FFFF00"/>
<path d="M26.4485 22.3323L26.4885 23.1857H25.9152L25.9552 22.319H26.4485M25.8885 24.3857C25.8885 23.9457 26.1952 23.8257 26.1952 23.8257C26.1952 23.8257 26.5018 23.959 26.5018 24.3857H25.8885ZM25.1152 23.1857H27.2885C27.3285 23.1857 27.3685 23.239 27.3685 23.2923C27.3685 23.3323 27.3285 23.3723 27.2885 23.3723H25.1152C25.0752 23.3723 25.0352 23.3323 25.0352 23.279C25.0352 23.239 25.0752 23.199 25.1152 23.199V23.1857ZM25.1685 23.3857H27.2218C27.2618 23.3857 27.3018 23.4257 27.3018 23.479C27.3018 23.5323 27.2618 23.5723 27.2218 23.5723H25.1552C25.1018 23.5723 25.0752 23.5323 25.0752 23.479C25.0752 23.4257 25.1018 23.3857 25.1552 23.3857H25.1685ZM25.8352 21.9723H25.9952V22.079H26.1152V21.9723H26.2885V22.0923H26.4085V21.959H26.5685V22.2257C26.5685 22.279 26.5418 22.3057 26.5018 22.3057H25.9152C25.8752 22.3057 25.8352 22.279 25.8352 22.239V21.9723Z" stroke="black" stroke-width="0.0666669"/>
<path d="M25.7521 22.7324V23.1858H25.2188V22.7324H25.7521Z" fill="#FFFF00" stroke="black" stroke-width="0.0666669"/>
<path d="M25.7521 22.7324V23.1858H25.2188V22.7324H25.7521Z" fill="#FFFF00" stroke="black" stroke-width="0.0666669"/>
<path d="M25.1289 22.3857H25.2889V22.5191H25.4089V22.3857H25.5689V22.5191H25.6889V22.3857H25.8489V22.6524C25.8489 22.7057 25.8222 22.7324 25.7822 22.7324H25.2089C25.1877 22.7324 25.1673 22.724 25.1523 22.709C25.1373 22.694 25.1289 22.6736 25.1289 22.6524V22.3857Z" fill="#FFFF00" stroke="black" stroke-width="0.0666669"/>
<path d="M25.1289 22.3857H25.2889V22.5191H25.4089V22.3857H25.5689V22.5191H25.6889V22.3857H25.8489V22.6524C25.8489 22.7057 25.8222 22.7324 25.7822 22.7324H25.2089C25.1877 22.7324 25.1673 22.724 25.1523 22.709C25.1373 22.694 25.1289 22.6736 25.1289 22.6524V22.3857Z" fill="#FFFF00" stroke="black" stroke-width="0.0666669"/>
<path d="M26.1406 22.5991C26.1406 22.5191 26.2606 22.5191 26.2606 22.5991V22.8124H26.1406V22.5991Z" fill="black"/>
<path d="M25.4336 22.8923C25.4336 22.8123 25.5403 22.8123 25.5403 22.8923V23.0523H25.4336V22.8923Z" fill="black"/>
<path d="M25.4336 22.8923C25.4336 22.8123 25.5403 22.8123 25.5403 22.8923V23.0523H25.4336V22.8923Z" fill="black"/>
<path d="M25.6484 24.4389C25.6618 23.7056 26.1818 23.5322 26.1818 23.5322C26.1951 23.5322 26.7551 23.7189 26.7551 24.4522H25.6484" fill="#FFFF00"/>
<path d="M25.1938 23.5456L25.1005 24.3856H25.6605C25.6605 23.6922 26.1938 23.5856 26.1938 23.5856C26.2071 23.5856 26.7271 23.7322 26.7405 24.3856H27.3005L27.1938 23.5322H25.1938V23.5456ZM25.0605 24.3989H27.3271C27.3671 24.3989 27.4071 24.4389 27.4071 24.4922C27.4071 24.5589 27.3671 24.5989 27.3271 24.5989H25.0605C25.0205 24.5989 24.9805 24.5589 24.9805 24.4922C24.9805 24.4389 25.0205 24.3989 25.0738 24.3989H25.0605Z" fill="#FFFF00" stroke="black" stroke-width="0.0666669"/>
<path d="M25.8885 24.3857C25.8885 23.9457 26.1952 23.8257 26.1952 23.8257C26.1952 23.8257 26.5018 23.959 26.5018 24.3857H25.8885ZM25.1152 23.1857H27.2885C27.3285 23.1857 27.3685 23.239 27.3685 23.2923C27.3685 23.3323 27.3285 23.3723 27.2885 23.3723H25.1152C25.0752 23.3723 25.0352 23.3323 25.0352 23.279C25.0352 23.239 25.0752 23.199 25.1152 23.199V23.1857ZM25.1685 23.3857H27.2218C27.2618 23.3857 27.3018 23.4257 27.3018 23.479C27.3018 23.5323 27.2618 23.5723 27.2218 23.5723H25.1552C25.1018 23.5723 25.0752 23.5323 25.0752 23.479C25.0752 23.4257 25.1018 23.3857 25.1552 23.3857H25.1685ZM25.8352 21.9723H25.9952V22.079H26.1152V21.9723H26.2885V22.0923H26.4085V21.959H26.5685V22.2257C26.5685 22.279 26.5418 22.3057 26.5018 22.3057H25.9152C25.8752 22.3057 25.8352 22.279 25.8352 22.239V21.9723ZM26.4485 22.3323L26.4885 23.1857H25.9152L25.9552 22.319H26.4485" fill="#FFFF00"/>
<path d="M26.4485 22.3323L26.4885 23.1857H25.9152L25.9552 22.319H26.4485M25.8885 24.3857C25.8885 23.9457 26.1952 23.8257 26.1952 23.8257C26.1952 23.8257 26.5018 23.959 26.5018 24.3857H25.8885ZM25.1152 23.1857H27.2885C27.3285 23.1857 27.3685 23.239 27.3685 23.2923C27.3685 23.3323 27.3285 23.3723 27.2885 23.3723H25.1152C25.0752 23.3723 25.0352 23.3323 25.0352 23.279C25.0352 23.239 25.0752 23.199 25.1152 23.199V23.1857ZM25.1685 23.3857H27.2218C27.2618 23.3857 27.3018 23.4257 27.3018 23.479C27.3018 23.5323 27.2618 23.5723 27.2218 23.5723H25.1552C25.1018 23.5723 25.0752 23.5323 25.0752 23.479C25.0752 23.4257 25.1018 23.3857 25.1552 23.3857H25.1685ZM25.8352 21.9723H25.9952V22.079H26.1152V21.9723H26.2885V22.0923H26.4085V21.959H26.5685V22.2257C26.5685 22.279 26.5418 22.3057 26.5018 22.3057H25.9152C25.8752 22.3057 25.8352 22.279 25.8352 22.239V21.9723Z" stroke="black" stroke-width="0.0666669"/>
<path d="M25.7521 22.7324V23.1858H25.2188V22.7324H25.7521Z" fill="#FFFF00" stroke="black" stroke-width="0.0666669"/>
<path d="M25.7521 22.7324V23.1858H25.2188V22.7324H25.7521Z" fill="#FFFF00" stroke="black" stroke-width="0.0666669"/>
<path d="M25.1289 22.3857H25.2889V22.5191H25.4089V22.3857H25.5689V22.5191H25.6889V22.3857H25.8489V22.6524C25.8489 22.7057 25.8222 22.7324 25.7822 22.7324H25.2089C25.1877 22.7324 25.1673 22.724 25.1523 22.709C25.1373 22.694 25.1289 22.6736 25.1289 22.6524V22.3857Z" fill="#FFFF00" stroke="black" stroke-width="0.0666669"/>
<path d="M25.1289 22.3857H25.2889V22.5191H25.4089V22.3857H25.5689V22.5191H25.6889V22.3857H25.8489V22.6524C25.8489 22.7057 25.8222 22.7324 25.7822 22.7324H25.2089C25.1877 22.7324 25.1673 22.724 25.1523 22.709C25.1373 22.694 25.1289 22.6736 25.1289 22.6524V22.3857Z" fill="#FFFF00" stroke="black" stroke-width="0.0666669"/>
<path d="M26.1406 22.5991C26.1406 22.5191 26.2606 22.5191 26.2606 22.5991V22.8124H26.1406V22.5991Z" fill="black"/>
<path d="M25.4336 22.8923C25.4336 22.8123 25.5403 22.8123 25.5403 22.8923V23.0523H25.4336V22.8923Z" fill="black"/>
<path d="M25.4336 22.8923C25.4336 22.8123 25.5403 22.8123 25.5403 22.8923V23.0523H25.4336V22.8923Z" fill="black"/>
<path d="M28.0535 37.0463C27.5425 36.5201 27.786 36.029 27.786 36.029C27.7954 36.0196 28.3224 35.7537 28.8428 36.2705L28.063 37.0557" fill="#FFFF00"/>
<path d="M27.1012 36.7386L27.6315 37.3968L28.0261 36.9994C27.5341 36.5108 27.8342 36.0572 27.8342 36.0572C27.8436 36.0478 28.3141 35.7822 28.7871 36.2331L29.1817 35.8357L28.501 35.3101L27.0917 36.7292L27.1012 36.7386ZM27.6127 37.4345L29.2099 35.8262C29.2381 35.7978 29.2947 35.7976 29.3325 35.8352C29.3798 35.8821 29.38 35.9387 29.3518 35.9671L27.7547 37.5755C27.7265 37.6038 27.6699 37.604 27.6226 37.5571C27.5848 37.5195 27.5846 37.4629 27.6221 37.4251L27.6127 37.4345Z" fill="#FFFF00" stroke="black" stroke-width="0.0666669"/>
<path d="M28.1865 36.8385C27.8743 36.5285 28.0052 36.2263 28.0052 36.2263C28.0052 36.2263 28.3159 36.1027 28.6186 36.4033L28.1865 36.8385ZM26.7901 36.5417L28.3215 34.9996C28.3497 34.9712 28.4157 34.9804 28.4535 35.018C28.4819 35.0462 28.4821 35.1027 28.4539 35.1311L26.9225 36.6733C26.8943 36.7016 26.8378 36.7018 26.7999 36.6643C26.7715 36.6361 26.7713 36.5795 26.7995 36.5511L26.7901 36.5417ZM26.9696 36.6448L28.4164 35.1878C28.4446 35.1594 28.5012 35.1592 28.539 35.1968C28.5769 35.2344 28.577 35.291 28.5489 35.3193L27.0926 36.7858C27.055 36.8236 27.0079 36.8144 26.97 36.7768C26.9322 36.7392 26.9226 36.6921 26.9602 36.6543L26.9696 36.6448ZM26.4365 35.1759L26.5492 35.0623L26.6249 35.1375L26.7094 35.0523L26.6337 34.9772L26.7559 34.8542L26.841 34.9388L26.9256 34.8536L26.831 34.7597L26.9437 34.6461L27.1329 34.834C27.1708 34.8716 27.1709 34.9093 27.1427 34.9377L26.7293 35.354C26.7012 35.3824 26.6541 35.392 26.6257 35.3638L26.4365 35.1759ZM27.1241 34.9943L27.7578 35.5672L27.3538 35.9741L26.767 35.335L27.1146 34.9849" fill="#FFFF00"/>
<path d="M27.1241 34.9943L27.7578 35.5672L27.3538 35.9741L26.767 35.335L27.1146 34.9849M28.1865 36.8385C27.8743 36.5285 28.0052 36.2263 28.0052 36.2263C28.0052 36.2263 28.3159 36.1027 28.6186 36.4033L28.1865 36.8385ZM26.7901 36.5417L28.3215 34.9996C28.3497 34.9712 28.4157 34.9804 28.4535 35.018C28.4819 35.0462 28.4821 35.1027 28.4539 35.1311L26.9225 36.6733C26.8943 36.7016 26.8378 36.7018 26.7999 36.6643C26.7715 36.6361 26.7713 36.5795 26.7995 36.5511L26.7901 36.5417ZM26.9696 36.6448L28.4164 35.1878C28.4446 35.1594 28.5012 35.1592 28.539 35.1968C28.5769 35.2344 28.577 35.291 28.5489 35.3193L27.0926 36.7858C27.055 36.8236 27.0079 36.8144 26.97 36.7768C26.9322 36.7392 26.9226 36.6921 26.9602 36.6543L26.9696 36.6448ZM26.4365 35.1759L26.5492 35.0623L26.6249 35.1375L26.7094 35.0523L26.6337 34.9772L26.7559 34.8542L26.841 34.9388L26.9256 34.8536L26.831 34.7597L26.9437 34.6461L27.1329 34.834C27.1708 34.8716 27.1709 34.9093 27.1427 34.9377L26.7293 35.354C26.7012 35.3824 26.6541 35.392 26.6257 35.3638L26.4365 35.1759Z" stroke="black" stroke-width="0.0666669"/>
<path d="M26.9188 35.768L27.2404 36.0875L26.8646 36.4659L26.543 36.1465L26.9188 35.768Z" fill="#FFFF00" stroke="black" stroke-width="0.0666669"/>
<path d="M26.9188 35.768L27.2404 36.0875L26.8646 36.4659L26.543 36.1465L26.9188 35.768Z" fill="#FFFF00" stroke="black" stroke-width="0.0666669"/>
<path d="M26.2305 35.9685L26.3432 35.855L26.4378 35.9489L26.5224 35.8638L26.4278 35.7698L26.5405 35.6563L26.6351 35.7502L26.7197 35.6651L26.6251 35.5711L26.7378 35.4576L26.927 35.6455C26.9649 35.6831 26.965 35.7208 26.9368 35.7492L26.5328 36.156C26.5179 36.1711 26.4976 36.1796 26.4763 36.1796C26.4551 36.1797 26.4347 36.1714 26.4197 36.1564L26.2305 35.9685Z" fill="#FFFF00" stroke="black" stroke-width="0.0666669"/>
<path d="M26.2305 35.9685L26.3432 35.855L26.4378 35.9489L26.5224 35.8638L26.4278 35.7698L26.5405 35.6563L26.6351 35.7502L26.7197 35.6651L26.6251 35.5711L26.7378 35.4576L26.927 35.6455C26.9649 35.6831 26.965 35.7208 26.9368 35.7492L26.5328 36.156C26.5179 36.1711 26.4976 36.1796 26.4763 36.1796C26.4551 36.1797 26.4347 36.1714 26.4197 36.1564L26.2305 35.9685Z" fill="#FFFF00" stroke="black" stroke-width="0.0666669"/>
<path d="M27.0973 35.3999C27.0405 35.3436 27.1251 35.2584 27.1818 35.3148L27.3332 35.4651L27.2486 35.5503L27.0973 35.3999Z" fill="black"/>
<path d="M26.8043 36.108C26.7475 36.0516 26.8227 35.9759 26.8795 36.0323L26.993 36.145L26.9178 36.2207L26.8043 36.108Z" fill="black"/>
<path d="M26.8043 36.108C26.7475 36.0516 26.8227 35.9759 26.8795 36.0323L26.993 36.145L26.9178 36.2207L26.8043 36.108Z" fill="black"/>
<path d="M25.6484 24.4389C25.6618 23.7056 26.1818 23.5322 26.1818 23.5322C26.1951 23.5322 26.7551 23.7189 26.7551 24.4522H25.6484" fill="#FFFF00"/>
<path d="M25.1938 23.5456L25.1005 24.3856H25.6605C25.6605 23.6922 26.1938 23.5856 26.1938 23.5856C26.2071 23.5856 26.7271 23.7322 26.7405 24.3856H27.3005L27.1938 23.5322H25.1938V23.5456ZM25.0605 24.3989H27.3271C27.3671 24.3989 27.4071 24.4389 27.4071 24.4922C27.4071 24.5589 27.3671 24.5989 27.3271 24.5989H25.0605C25.0205 24.5989 24.9805 24.5589 24.9805 24.4922C24.9805 24.4389 25.0205 24.3989 25.0738 24.3989H25.0605Z" fill="#FFFF00" stroke="black" stroke-width="0.0666669"/>
<path d="M25.8885 24.3857C25.8885 23.9457 26.1952 23.8257 26.1952 23.8257C26.1952 23.8257 26.5018 23.959 26.5018 24.3857H25.8885ZM25.1152 23.1857H27.2885C27.3285 23.1857 27.3685 23.239 27.3685 23.2923C27.3685 23.3323 27.3285 23.3723 27.2885 23.3723H25.1152C25.0752 23.3723 25.0352 23.3323 25.0352 23.279C25.0352 23.239 25.0752 23.199 25.1152 23.199V23.1857ZM25.1685 23.3857H27.2218C27.2618 23.3857 27.3018 23.4257 27.3018 23.479C27.3018 23.5323 27.2618 23.5723 27.2218 23.5723H25.1552C25.1018 23.5723 25.0752 23.5323 25.0752 23.479C25.0752 23.4257 25.1018 23.3857 25.1552 23.3857H25.1685ZM25.8352 21.9723H25.9952V22.079H26.1152V21.9723H26.2885V22.0923H26.4085V21.959H26.5685V22.2257C26.5685 22.279 26.5418 22.3057 26.5018 22.3057H25.9152C25.8752 22.3057 25.8352 22.279 25.8352 22.239V21.9723ZM26.4485 22.3323L26.4885 23.1857H25.9152L25.9552 22.319H26.4485" fill="#FFFF00"/>
<path d="M26.4485 22.3323L26.4885 23.1857H25.9152L25.9552 22.319H26.4485M25.8885 24.3857C25.8885 23.9457 26.1952 23.8257 26.1952 23.8257C26.1952 23.8257 26.5018 23.959 26.5018 24.3857H25.8885ZM25.1152 23.1857H27.2885C27.3285 23.1857 27.3685 23.239 27.3685 23.2923C27.3685 23.3323 27.3285 23.3723 27.2885 23.3723H25.1152C25.0752 23.3723 25.0352 23.3323 25.0352 23.279C25.0352 23.239 25.0752 23.199 25.1152 23.199V23.1857ZM25.1685 23.3857H27.2218C27.2618 23.3857 27.3018 23.4257 27.3018 23.479C27.3018 23.5323 27.2618 23.5723 27.2218 23.5723H25.1552C25.1018 23.5723 25.0752 23.5323 25.0752 23.479C25.0752 23.4257 25.1018 23.3857 25.1552 23.3857H25.1685ZM25.8352 21.9723H25.9952V22.079H26.1152V21.9723H26.2885V22.0923H26.4085V21.959H26.5685V22.2257C26.5685 22.279 26.5418 22.3057 26.5018 22.3057H25.9152C25.8752 22.3057 25.8352 22.279 25.8352 22.239V21.9723Z" stroke="black" stroke-width="0.0666669"/>
<path d="M25.7521 22.7324V23.1858H25.2188V22.7324H25.7521Z" fill="#FFFF00" stroke="black" stroke-width="0.0666669"/>
<path d="M25.7521 22.7324V23.1858H25.2188V22.7324H25.7521Z" fill="#FFFF00" stroke="black" stroke-width="0.0666669"/>
<path d="M25.1289 22.3857H25.2889V22.5191H25.4089V22.3857H25.5689V22.5191H25.6889V22.3857H25.8489V22.6524C25.8489 22.7057 25.8222 22.7324 25.7822 22.7324H25.2089C25.1877 22.7324 25.1673 22.724 25.1523 22.709C25.1373 22.694 25.1289 22.6736 25.1289 22.6524V22.3857Z" fill="#FFFF00" stroke="black" stroke-width="0.0666669"/>
<path d="M25.1289 22.3857H25.2889V22.5191H25.4089V22.3857H25.5689V22.5191H25.6889V22.3857H25.8489V22.6524C25.8489 22.7057 25.8222 22.7324 25.7822 22.7324H25.2089C25.1877 22.7324 25.1673 22.724 25.1523 22.709C25.1373 22.694 25.1289 22.6736 25.1289 22.6524V22.3857Z" fill="#FFFF00" stroke="black" stroke-width="0.0666669"/>
<path d="M26.1406 22.5991C26.1406 22.5191 26.2606 22.5191 26.2606 22.5991V22.8124H26.1406V22.5991Z" fill="black"/>
<path d="M25.4336 22.8923C25.4336 22.8123 25.5403 22.8123 25.5403 22.8923V23.0523H25.4336V22.8923Z" fill="black"/>
<path d="M25.4336 22.8923C25.4336 22.8123 25.5403 22.8123 25.5403 22.8923V23.0523H25.4336V22.8923Z" fill="black"/>
<path d="M38.8984 24.4389C38.8851 23.7056 38.3651 23.5322 38.3651 23.5322C38.3518 23.5322 37.7918 23.7189 37.7918 24.4522H38.8984" fill="#FFFF00"/>
<path d="M39.3531 23.5456L39.4464 24.3856H38.8864C38.8864 23.6922 38.3531 23.5856 38.3531 23.5856C38.3397 23.5856 37.8197 23.7322 37.8064 24.3856H37.2464L37.3531 23.5322H39.3531V23.5456ZM39.4864 24.3989H37.2197C37.1797 24.3989 37.1397 24.4389 37.1397 24.4922C37.1397 24.5589 37.1797 24.5989 37.2197 24.5989H39.4864C39.5264 24.5989 39.5664 24.5589 39.5664 24.4922C39.5664 24.4389 39.5264 24.3989 39.4731 24.3989H39.4864Z" fill="#FFFF00" stroke="black" stroke-width="0.0666669"/>
<path d="M38.6584 24.3857C38.6584 23.9457 38.3517 23.8257 38.3517 23.8257C38.3517 23.8257 38.045 23.959 38.045 24.3857H38.6584ZM39.4317 23.1857H37.2584C37.2184 23.1857 37.1784 23.239 37.1784 23.2923C37.1784 23.3323 37.2184 23.3723 37.2584 23.3723H39.4317C39.4717 23.3723 39.5117 23.3323 39.5117 23.279C39.5117 23.239 39.4717 23.199 39.4317 23.199V23.1857ZM39.3784 23.3857H37.325C37.285 23.3857 37.245 23.4257 37.245 23.479C37.245 23.5323 37.285 23.5723 37.325 23.5723H39.3917C39.4451 23.5723 39.4717 23.5323 39.4717 23.479C39.4717 23.4257 39.4451 23.3857 39.3917 23.3857H39.3784ZM38.7117 21.9723H38.5517V22.079H38.4317V21.9723H38.2584V22.0923H38.1384V21.959H37.9784V22.2257C37.9784 22.279 38.005 22.3057 38.045 22.3057H38.6317C38.6717 22.3057 38.7117 22.279 38.7117 22.239V21.9723ZM38.0984 22.3323L38.0584 23.1857H38.6317L38.5917 22.319H38.0984" fill="#FFFF00"/>
<path d="M38.0984 22.3323L38.0584 23.1857H38.6317L38.5917 22.319H38.0984M38.6584 24.3857C38.6584 23.9457 38.3517 23.8257 38.3517 23.8257C38.3517 23.8257 38.045 23.959 38.045 24.3857H38.6584ZM39.4317 23.1857H37.2584C37.2184 23.1857 37.1784 23.239 37.1784 23.2923C37.1784 23.3323 37.2184 23.3723 37.2584 23.3723H39.4317C39.4717 23.3723 39.5117 23.3323 39.5117 23.279C39.5117 23.239 39.4717 23.199 39.4317 23.199V23.1857ZM39.3784 23.3857H37.325C37.285 23.3857 37.245 23.4257 37.245 23.479C37.245 23.5323 37.285 23.5723 37.325 23.5723H39.3917C39.4451 23.5723 39.4717 23.5323 39.4717 23.479C39.4717 23.4257 39.4451 23.3857 39.3917 23.3857H39.3784ZM38.7117 21.9723H38.5517V22.079H38.4317V21.9723H38.2584V22.0923H38.1384V21.959H37.9784V22.2257C37.9784 22.279 38.005 22.3057 38.045 22.3057H38.6317C38.6717 22.3057 38.7117 22.279 38.7117 22.239V21.9723Z" stroke="black" stroke-width="0.0666669"/>
<path d="M38.7948 22.7324V23.1858H39.3281V22.7324H38.7948Z" fill="#FFFF00" stroke="black" stroke-width="0.0666669"/>
<path d="M38.7948 22.7324V23.1858H39.3281V22.7324H38.7948Z" fill="#FFFF00" stroke="black" stroke-width="0.0666669"/>
<path d="M39.418 22.3857H39.258V22.5191H39.138V22.3857H38.978V22.5191H38.858V22.3857H38.698V22.6524C38.698 22.7057 38.7246 22.7324 38.7646 22.7324H39.338C39.3592 22.7324 39.3795 22.724 39.3945 22.709C39.4095 22.694 39.418 22.6736 39.418 22.6524V22.3857Z" fill="#FFFF00" stroke="black" stroke-width="0.0666669"/>
<path d="M39.418 22.3857H39.258V22.5191H39.138V22.3857H38.978V22.5191H38.858V22.3857H38.698V22.6524C38.698 22.7057 38.7246 22.7324 38.7646 22.7324H39.338C39.3592 22.7324 39.3795 22.724 39.3945 22.709C39.4095 22.694 39.418 22.6736 39.418 22.6524V22.3857Z" fill="#FFFF00" stroke="black" stroke-width="0.0666669"/>
<path d="M38.4062 22.5991C38.4062 22.5191 38.2862 22.5191 38.2862 22.5991V22.8124H38.4062V22.5991Z" fill="black"/>
<path d="M39.1133 22.8923C39.1133 22.8123 39.0066 22.8123 39.0066 22.8923V23.0523H39.1133V22.8923Z" fill="black"/>
<path d="M39.1133 22.8923C39.1133 22.8123 39.0066 22.8123 39.0066 22.8923V23.0523H39.1133V22.8923Z" fill="black"/>
<path d="M38.8984 24.4389C38.8851 23.7056 38.3651 23.5322 38.3651 23.5322C38.3518 23.5322 37.7918 23.7189 37.7918 24.4522H38.8984" fill="#FFFF00"/>
<path d="M39.3531 23.5456L39.4464 24.3856H38.8864C38.8864 23.6922 38.3531 23.5856 38.3531 23.5856C38.3397 23.5856 37.8197 23.7322 37.8064 24.3856H37.2464L37.3531 23.5322H39.3531V23.5456ZM39.4864 24.3989H37.2197C37.1797 24.3989 37.1397 24.4389 37.1397 24.4922C37.1397 24.5589 37.1797 24.5989 37.2197 24.5989H39.4864C39.5264 24.5989 39.5664 24.5589 39.5664 24.4922C39.5664 24.4389 39.5264 24.3989 39.4731 24.3989H39.4864Z" fill="#FFFF00" stroke="black" stroke-width="0.0666669"/>
<path d="M38.6584 24.3857C38.6584 23.9457 38.3517 23.8257 38.3517 23.8257C38.3517 23.8257 38.045 23.959 38.045 24.3857H38.6584ZM39.4317 23.1857H37.2584C37.2184 23.1857 37.1784 23.239 37.1784 23.2923C37.1784 23.3323 37.2184 23.3723 37.2584 23.3723H39.4317C39.4717 23.3723 39.5117 23.3323 39.5117 23.279C39.5117 23.239 39.4717 23.199 39.4317 23.199V23.1857ZM39.3784 23.3857H37.325C37.285 23.3857 37.245 23.4257 37.245 23.479C37.245 23.5323 37.285 23.5723 37.325 23.5723H39.3917C39.4451 23.5723 39.4717 23.5323 39.4717 23.479C39.4717 23.4257 39.4451 23.3857 39.3917 23.3857H39.3784ZM38.7117 21.9723H38.5517V22.079H38.4317V21.9723H38.2584V22.0923H38.1384V21.959H37.9784V22.2257C37.9784 22.279 38.005 22.3057 38.045 22.3057H38.6317C38.6717 22.3057 38.7117 22.279 38.7117 22.239V21.9723ZM38.0984 22.3323L38.0584 23.1857H38.6317L38.5917 22.319H38.0984" fill="#FFFF00"/>
<path d="M38.0984 22.3323L38.0584 23.1857H38.6317L38.5917 22.319H38.0984M38.6584 24.3857C38.6584 23.9457 38.3517 23.8257 38.3517 23.8257C38.3517 23.8257 38.045 23.959 38.045 24.3857H38.6584ZM39.4317 23.1857H37.2584C37.2184 23.1857 37.1784 23.239 37.1784 23.2923C37.1784 23.3323 37.2184 23.3723 37.2584 23.3723H39.4317C39.4717 23.3723 39.5117 23.3323 39.5117 23.279C39.5117 23.239 39.4717 23.199 39.4317 23.199V23.1857ZM39.3784 23.3857H37.325C37.285 23.3857 37.245 23.4257 37.245 23.479C37.245 23.5323 37.285 23.5723 37.325 23.5723H39.3917C39.4451 23.5723 39.4717 23.5323 39.4717 23.479C39.4717 23.4257 39.4451 23.3857 39.3917 23.3857H39.3784ZM38.7117 21.9723H38.5517V22.079H38.4317V21.9723H38.2584V22.0923H38.1384V21.959H37.9784V22.2257C37.9784 22.279 38.005 22.3057 38.045 22.3057H38.6317C38.6717 22.3057 38.7117 22.279 38.7117 22.239V21.9723Z" stroke="black" stroke-width="0.0666669"/>
<path d="M38.7948 22.7324V23.1858H39.3281V22.7324H38.7948Z" fill="#FFFF00" stroke="black" stroke-width="0.0666669"/>
<path d="M38.7948 22.7324V23.1858H39.3281V22.7324H38.7948Z" fill="#FFFF00" stroke="black" stroke-width="0.0666669"/>
<path d="M39.418 22.3857H39.258V22.5191H39.138V22.3857H38.978V22.5191H38.858V22.3857H38.698V22.6524C38.698 22.7057 38.7246 22.7324 38.7646 22.7324H39.338C39.3592 22.7324 39.3795 22.724 39.3945 22.709C39.4095 22.694 39.418 22.6736 39.418 22.6524V22.3857Z" fill="#FFFF00" stroke="black" stroke-width="0.0666669"/>
<path d="M39.418 22.3857H39.258V22.5191H39.138V22.3857H38.978V22.5191H38.858V22.3857H38.698V22.6524C38.698 22.7057 38.7246 22.7324 38.7646 22.7324H39.338C39.3592 22.7324 39.3795 22.724 39.3945 22.709C39.4095 22.694 39.418 22.6736 39.418 22.6524V22.3857Z" fill="#FFFF00" stroke="black" stroke-width="0.0666669"/>
<path d="M38.4062 22.5991C38.4062 22.5191 38.2862 22.5191 38.2862 22.5991V22.8124H38.4062V22.5991Z" fill="black"/>
<path d="M39.1133 22.8923C39.1133 22.8123 39.0066 22.8123 39.0066 22.8923V23.0523H39.1133V22.8923Z" fill="black"/>
<path d="M39.1133 22.8923C39.1133 22.8123 39.0066 22.8123 39.0066 22.8923V23.0523H39.1133V22.8923Z" fill="black"/>
<path d="M36.4934 37.0463C37.0043 36.5201 36.7609 36.029 36.7609 36.029C36.7515 36.0196 36.2245 35.7537 35.7041 36.2705L36.4839 37.0557" fill="#FFFF00"/>
<path d="M37.4457 36.7386L36.9154 37.3968L36.5208 36.9994C37.0128 36.5108 36.7127 36.0572 36.7127 36.0572C36.7033 36.0478 36.2328 35.7822 35.7598 36.2331L35.3652 35.8357L36.0459 35.3101L37.4551 36.7292L37.4457 36.7386ZM36.9341 37.4345L35.337 35.8262C35.3088 35.7978 35.2522 35.7976 35.2144 35.8352C35.1671 35.8821 35.1669 35.9387 35.195 35.9671L36.7922 37.5755C36.8204 37.6038 36.877 37.604 36.9243 37.5571C36.9621 37.5195 36.9623 37.4629 36.9247 37.4251L36.9341 37.4345Z" fill="#FFFF00" stroke="black" stroke-width="0.0666669"/>
<path d="M36.3604 36.8385C36.6726 36.5285 36.5417 36.2263 36.5417 36.2263C36.5417 36.2263 36.231 36.1027 35.9282 36.4033L36.3604 36.8385ZM37.7568 36.5417L36.2254 34.9996C36.1972 34.9712 36.1312 34.9804 36.0933 35.018C36.065 35.0462 36.0648 35.1027 36.093 35.1311L37.6244 36.6733C37.6525 36.7016 37.7091 36.7018 37.747 36.6643C37.7753 36.6361 37.7755 36.5795 37.7474 36.5511L37.7568 36.5417ZM37.5773 36.6448L36.1305 35.1878C36.1023 35.1594 36.0457 35.1592 36.0079 35.1968C35.97 35.2344 35.9698 35.291 35.998 35.3193L37.4543 36.7858C37.4918 36.8236 37.539 36.8144 37.5769 36.7768C37.6147 36.7392 37.6243 36.6921 37.5867 36.6543L37.5773 36.6448ZM38.1104 35.1759L37.9977 35.0623L37.922 35.1375L37.8374 35.0523L37.9131 34.9772L37.791 34.8542L37.7058 34.9388L37.6213 34.8536L37.7159 34.7597L37.6032 34.6461L37.4139 34.834C37.3761 34.8716 37.376 34.9093 37.4041 34.9377L37.8175 35.354C37.8457 35.3824 37.8928 35.392 37.9212 35.3638L38.1104 35.1759ZM37.4228 34.9943L36.7891 35.5672L37.1931 35.9741L37.7799 35.335L37.4323 34.9849" fill="#FFFF00"/>
<path d="M37.4228 34.9943L36.7891 35.5672L37.1931 35.9741L37.7799 35.335L37.4323 34.9849M36.3604 36.8385C36.6726 36.5285 36.5417 36.2263 36.5417 36.2263C36.5417 36.2263 36.231 36.1027 35.9282 36.4033L36.3604 36.8385ZM37.7568 36.5417L36.2254 34.9996C36.1972 34.9712 36.1312 34.9804 36.0933 35.018C36.065 35.0462 36.0648 35.1027 36.093 35.1311L37.6244 36.6733C37.6525 36.7016 37.7091 36.7018 37.747 36.6643C37.7753 36.6361 37.7755 36.5795 37.7474 36.5511L37.7568 36.5417ZM37.5773 36.6448L36.1305 35.1878C36.1023 35.1594 36.0457 35.1592 36.0079 35.1968C35.97 35.2344 35.9698 35.291 35.998 35.3193L37.4543 36.7858C37.4918 36.8236 37.539 36.8144 37.5769 36.7768C37.6147 36.7392 37.6243 36.6921 37.5867 36.6543L37.5773 36.6448ZM38.1104 35.1759L37.9977 35.0623L37.922 35.1375L37.8374 35.0523L37.9131 34.9772L37.791 34.8542L37.7058 34.9388L37.6213 34.8536L37.7159 34.7597L37.6032 34.6461L37.4139 34.834C37.3761 34.8716 37.376 34.9093 37.4041 34.9377L37.8175 35.354C37.8457 35.3824 37.8928 35.392 37.9212 35.3638L38.1104 35.1759Z" stroke="black" stroke-width="0.0666669"/>
<path d="M37.6281 35.768L37.3064 36.0875L37.6822 36.4659L38.0039 36.1465L37.6281 35.768Z" fill="#FFFF00" stroke="black" stroke-width="0.0666669"/>
<path d="M37.6281 35.768L37.3064 36.0875L37.6822 36.4659L38.0039 36.1465L37.6281 35.768Z" fill="#FFFF00" stroke="black" stroke-width="0.0666669"/>
<path d="M38.3164 35.9685L38.2037 35.855L38.1091 35.9489L38.0245 35.8638L38.1191 35.7698L38.0064 35.6563L37.9118 35.7502L37.8272 35.6651L37.9218 35.5711L37.8091 35.4576L37.6198 35.6455C37.582 35.6831 37.5819 35.7208 37.6101 35.7492L38.0141 36.156C38.029 36.1711 38.0493 36.1796 38.0705 36.1796C38.0918 36.1797 38.1121 36.1714 38.1272 36.1564L38.3164 35.9685Z" fill="#FFFF00" stroke="black" stroke-width="0.0666669"/>
<path d="M38.3164 35.9685L38.2037 35.855L38.1091 35.9489L38.0245 35.8638L38.1191 35.7698L38.0064 35.6563L37.9118 35.7502L37.8272 35.6651L37.9218 35.5711L37.8091 35.4576L37.6198 35.6455C37.582 35.6831 37.5819 35.7208 37.6101 35.7492L38.0141 36.156C38.029 36.1711 38.0493 36.1796 38.0705 36.1796C38.0918 36.1797 38.1121 36.1714 38.1272 36.1564L38.3164 35.9685Z" fill="#FFFF00" stroke="black" stroke-width="0.0666669"/>
<path d="M37.4496 35.3999C37.5064 35.3436 37.4218 35.2584 37.3651 35.3148L37.2137 35.4651L37.2982 35.5503L37.4496 35.3999Z" fill="black"/>
<path d="M37.7426 36.108C37.7993 36.0516 37.7242 35.9759 37.6674 36.0323L37.5539 36.145L37.6291 36.2207L37.7426 36.108Z" fill="black"/>
<path d="M37.7426 36.108C37.7993 36.0516 37.7242 35.9759 37.6674 36.0323L37.5539 36.145L37.6291 36.2207L37.7426 36.108Z" fill="black"/>
<path d="M31.3008 30.8389C31.2984 31.1203 31.4033 31.3921 31.5942 31.5989C31.6832 31.6985 31.792 31.7784 31.9137 31.8335C32.0354 31.8886 32.1673 31.9177 32.3008 31.9189C32.5808 31.9189 32.8342 31.7856 33.0075 31.5989C33.1983 31.3921 33.3032 31.1203 33.3008 30.8389V29.3989H31.3008V30.8389Z" fill="#003399"/>
<path d="M31.7664 30.1456C31.8769 30.1456 31.9664 30.0561 31.9664 29.9456C31.9664 29.8351 31.8769 29.7456 31.7664 29.7456C31.6559 29.7456 31.5664 29.8351 31.5664 29.9456C31.5664 30.0561 31.6559 30.1456 31.7664 30.1456Z" fill="white"/>
<path d="M32.8758 30.1456C32.9862 30.1456 33.0758 30.0561 33.0758 29.9456C33.0758 29.8351 32.9862 29.7456 32.8758 29.7456C32.7653 29.7456 32.6758 29.8351 32.6758 29.9456C32.6758 30.0561 32.7653 30.1456 32.8758 30.1456Z" fill="white"/>
<path d="M32.3133 30.6788C32.4237 30.6788 32.5133 30.5893 32.5133 30.4788C32.5133 30.3684 32.4237 30.2788 32.3133 30.2788C32.2028 30.2788 32.1133 30.3684 32.1133 30.4788C32.1133 30.5893 32.2028 30.6788 32.3133 30.6788Z" fill="white"/>
<path d="M31.7664 31.2389C31.8769 31.2389 31.9664 31.1493 31.9664 31.0389C31.9664 30.9284 31.8769 30.8389 31.7664 30.8389C31.6559 30.8389 31.5664 30.9284 31.5664 31.0389C31.5664 31.1493 31.6559 31.2389 31.7664 31.2389Z" fill="white"/>
<path d="M32.8758 31.2389C32.9862 31.2389 33.0758 31.1493 33.0758 31.0389C33.0758 30.9284 32.9862 30.8389 32.8758 30.8389C32.7653 30.8389 32.6758 30.9284 32.6758 31.0389C32.6758 31.1493 32.7653 31.2389 32.8758 31.2389Z" fill="white"/>
<path d="M31.3008 30.8389C31.2984 31.1203 31.4033 31.3921 31.5942 31.5989C31.6832 31.6985 31.792 31.7784 31.9137 31.8335C32.0354 31.8886 32.1673 31.9177 32.3008 31.9189C32.5808 31.9189 32.8342 31.7856 33.0075 31.5989C33.1983 31.3921 33.3032 31.1203 33.3008 30.8389V29.3989H31.3008V30.8389Z" fill="#003399"/>
<path d="M31.7664 30.1456C31.8769 30.1456 31.9664 30.0561 31.9664 29.9456C31.9664 29.8351 31.8769 29.7456 31.7664 29.7456C31.6559 29.7456 31.5664 29.8351 31.5664 29.9456C31.5664 30.0561 31.6559 30.1456 31.7664 30.1456Z" fill="white"/>
<path d="M32.8758 30.1456C32.9862 30.1456 33.0758 30.0561 33.0758 29.9456C33.0758 29.8351 32.9862 29.7456 32.8758 29.7456C32.7653 29.7456 32.6758 29.8351 32.6758 29.9456C32.6758 30.0561 32.7653 30.1456 32.8758 30.1456Z" fill="white"/>
<path d="M32.3133 30.6788C32.4237 30.6788 32.5133 30.5893 32.5133 30.4788C32.5133 30.3684 32.4237 30.2788 32.3133 30.2788C32.2028 30.2788 32.1133 30.3684 32.1133 30.4788C32.1133 30.5893 32.2028 30.6788 32.3133 30.6788Z" fill="white"/>
<path d="M31.7664 31.2389C31.8769 31.2389 31.9664 31.1493 31.9664 31.0389C31.9664 30.9284 31.8769 30.8389 31.7664 30.8389C31.6559 30.8389 31.5664 30.9284 31.5664 31.0389C31.5664 31.1493 31.6559 31.2389 31.7664 31.2389Z" fill="white"/>
<path d="M32.8758 31.2389C32.9862 31.2389 33.0758 31.1493 33.0758 31.0389C33.0758 30.9284 32.9862 30.8389 32.8758 30.8389C32.7653 30.8389 32.6758 30.9284 32.6758 31.0389C32.6758 31.1493 32.7653 31.2389 32.8758 31.2389Z" fill="white"/>
<path d="M31.3008 30.8389C31.2984 31.1203 31.4033 31.3921 31.5942 31.5989C31.6832 31.6985 31.792 31.7784 31.9137 31.8335C32.0354 31.8886 32.1673 31.9177 32.3008 31.9189C32.5808 31.9189 32.8342 31.7856 33.0075 31.5989C33.1983 31.3921 33.3032 31.1203 33.3008 30.8389V29.3989H31.3008V30.8389Z" fill="#003399"/>
<path d="M31.7664 30.1456C31.8769 30.1456 31.9664 30.0561 31.9664 29.9456C31.9664 29.8351 31.8769 29.7456 31.7664 29.7456C31.6559 29.7456 31.5664 29.8351 31.5664 29.9456C31.5664 30.0561 31.6559 30.1456 31.7664 30.1456Z" fill="white"/>
<path d="M32.8758 30.1456C32.9862 30.1456 33.0758 30.0561 33.0758 29.9456C33.0758 29.8351 32.9862 29.7456 32.8758 29.7456C32.7653 29.7456 32.6758 29.8351 32.6758 29.9456C32.6758 30.0561 32.7653 30.1456 32.8758 30.1456Z" fill="white"/>
<path d="M32.3133 30.6788C32.4237 30.6788 32.5133 30.5893 32.5133 30.4788C32.5133 30.3684 32.4237 30.2788 32.3133 30.2788C32.2028 30.2788 32.1133 30.3684 32.1133 30.4788C32.1133 30.5893 32.2028 30.6788 32.3133 30.6788Z" fill="white"/>
<path d="M31.7664 31.2389C31.8769 31.2389 31.9664 31.1493 31.9664 31.0389C31.9664 30.9284 31.8769 30.8389 31.7664 30.8389C31.6559 30.8389 31.5664 30.9284 31.5664 31.0389C31.5664 31.1493 31.6559 31.2389 31.7664 31.2389Z" fill="white"/>
<path d="M32.8758 31.2389C32.9862 31.2389 33.0758 31.1493 33.0758 31.0389C33.0758 30.9284 32.9862 30.8389 32.8758 30.8389C32.7653 30.8389 32.6758 30.9284 32.6758 31.0389C32.6758 31.1493 32.7653 31.2389 32.8758 31.2389Z" fill="white"/>
<path d="M31.3008 30.8389C31.2984 31.1203 31.4033 31.3921 31.5942 31.5989C31.6832 31.6985 31.792 31.7784 31.9137 31.8335C32.0354 31.8886 32.1673 31.9177 32.3008 31.9189C32.5808 31.9189 32.8342 31.7856 33.0075 31.5989C33.1983 31.3921 33.3032 31.1203 33.3008 30.8389V29.3989H31.3008V30.8389Z" fill="#003399"/>
<path d="M31.7664 30.1456C31.8769 30.1456 31.9664 30.0561 31.9664 29.9456C31.9664 29.8351 31.8769 29.7456 31.7664 29.7456C31.6559 29.7456 31.5664 29.8351 31.5664 29.9456C31.5664 30.0561 31.6559 30.1456 31.7664 30.1456Z" fill="white"/>
<path d="M32.8758 30.1456C32.9862 30.1456 33.0758 30.0561 33.0758 29.9456C33.0758 29.8351 32.9862 29.7456 32.8758 29.7456C32.7653 29.7456 32.6758 29.8351 32.6758 29.9456C32.6758 30.0561 32.7653 30.1456 32.8758 30.1456Z" fill="white"/>
<path d="M32.3133 30.6788C32.4237 30.6788 32.5133 30.5893 32.5133 30.4788C32.5133 30.3684 32.4237 30.2788 32.3133 30.2788C32.2028 30.2788 32.1133 30.3684 32.1133 30.4788C32.1133 30.5893 32.2028 30.6788 32.3133 30.6788Z" fill="white"/>
<path d="M31.7664 31.2389C31.8769 31.2389 31.9664 31.1493 31.9664 31.0389C31.9664 30.9284 31.8769 30.8389 31.7664 30.8389C31.6559 30.8389 31.5664 30.9284 31.5664 31.0389C31.5664 31.1493 31.6559 31.2389 31.7664 31.2389Z" fill="white"/>
<path d="M32.8758 31.2389C32.9862 31.2389 33.0758 31.1493 33.0758 31.0389C33.0758 30.9284 32.9862 30.8389 32.8758 30.8389C32.7653 30.8389 32.6758 30.9284 32.6758 31.0389C32.6758 31.1493 32.7653 31.2389 32.8758 31.2389Z" fill="white"/>
<path d="M31.3008 30.8389C31.2984 31.1203 31.4033 31.3921 31.5942 31.5989C31.6832 31.6985 31.792 31.7784 31.9137 31.8335C32.0354 31.8886 32.1673 31.9177 32.3008 31.9189C32.5808 31.9189 32.8342 31.7856 33.0075 31.5989C33.1983 31.3921 33.3032 31.1203 33.3008 30.8389V29.3989H31.3008V30.8389Z" fill="#003399"/>
<path d="M31.7664 30.1456C31.8769 30.1456 31.9664 30.0561 31.9664 29.9456C31.9664 29.8351 31.8769 29.7456 31.7664 29.7456C31.6559 29.7456 31.5664 29.8351 31.5664 29.9456C31.5664 30.0561 31.6559 30.1456 31.7664 30.1456Z" fill="white"/>
<path d="M32.8758 30.1456C32.9862 30.1456 33.0758 30.0561 33.0758 29.9456C33.0758 29.8351 32.9862 29.7456 32.8758 29.7456C32.7653 29.7456 32.6758 29.8351 32.6758 29.9456C32.6758 30.0561 32.7653 30.1456 32.8758 30.1456Z" fill="white"/>
<path d="M32.3133 30.6788C32.4237 30.6788 32.5133 30.5893 32.5133 30.4788C32.5133 30.3684 32.4237 30.2788 32.3133 30.2788C32.2028 30.2788 32.1133 30.3684 32.1133 30.4788C32.1133 30.5893 32.2028 30.6788 32.3133 30.6788Z" fill="white"/>
<path d="M31.7664 31.2389C31.8769 31.2389 31.9664 31.1493 31.9664 31.0389C31.9664 30.9284 31.8769 30.8389 31.7664 30.8389C31.6559 30.8389 31.5664 30.9284 31.5664 31.0389C31.5664 31.1493 31.6559 31.2389 31.7664 31.2389Z" fill="white"/>
<path d="M32.8758 31.2389C32.9862 31.2389 33.0758 31.1493 33.0758 31.0389C33.0758 30.9284 32.9862 30.8389 32.8758 30.8389C32.7653 30.8389 32.6758 30.9284 32.6758 31.0389C32.6758 31.1493 32.7653 31.2389 32.8758 31.2389Z" fill="white"/>
</g>
<defs>
<clipPath id="clip0_4447_33118">
<rect width="80" height="60" fill="white" transform="translate(0.289062 0.514893)"/>
</clipPath>
</defs>
</svg>
