<svg width="81" height="61" viewBox="0 0 81 61" fill="none" xmlns="http://www.w3.org/2000/svg">
<g clip-path="url(#clip0_4447_34079)">
<path d="M0.289062 0.514893H80.2891V60.5149H0.289062V0.514893Z" fill="#EE1C25"/>
<path d="M0.289062 0.514893H80.2891V40.5149H0.289062V0.514893Z" fill="#0B4EA2"/>
<path d="M0.289062 0.514893H80.2891V20.5149H0.289062V0.514893Z" fill="white"/>
<path d="M29.4148 46.8648C24.0398 44.2773 16.3398 39.1273 16.3398 28.9648C16.3398 18.7898 16.8398 14.1648 16.8398 14.1648H42.0023C42.0023 14.1648 42.4898 18.7898 42.4898 28.9648C42.4898 39.1398 34.7898 44.2648 29.4148 46.8648Z" fill="white"/>
<path d="M29.4141 45.5149C24.4766 43.1399 17.4141 38.4149 17.4141 29.0899C17.4141 19.7649 17.8641 15.5149 17.8641 15.5149H40.9641C40.9641 15.5149 41.4016 19.7649 41.4016 29.0899C41.4141 38.4274 34.3516 43.1399 29.4141 45.5149Z" fill="#EE1C25"/>
<path d="M30.4641 26.6398C31.8016 26.6648 34.4141 26.7148 36.7266 25.9398C36.7266 25.9398 36.6766 26.7773 36.6766 27.7398C36.6766 28.7023 36.7391 29.5398 36.7391 29.5398C34.6141 28.8273 31.9766 28.8148 30.4641 28.8273V33.9773H28.3641V28.8273C26.8641 28.8148 24.2266 28.8273 22.1016 29.5398C22.1016 29.5398 22.1641 28.7023 22.1641 27.7398C22.1641 26.7648 22.1016 25.9398 22.1016 25.9398C24.4141 26.7148 27.0266 26.6648 28.3516 26.6398V23.4023C27.1391 23.4023 25.3891 23.4523 23.4016 24.1148C23.4016 24.1148 23.4641 23.2898 23.4641 22.3148C23.4641 21.3523 23.4016 20.5148 23.4016 20.5148C25.3891 21.1773 27.1391 21.2398 28.3516 21.2273C28.2891 19.1773 27.6891 16.6023 27.6891 16.6023C27.6891 16.6023 28.9266 16.6898 29.4141 16.6898C29.9141 16.6898 31.1391 16.6023 31.1391 16.6023C31.1391 16.6023 30.5391 19.1773 30.4766 21.2273C31.6891 21.2398 33.4391 21.1773 35.4266 20.5148C35.4266 20.5148 35.3641 21.3523 35.3641 22.3148C35.3641 23.2898 35.4266 24.1148 35.4266 24.1148C33.8246 23.5982 32.1466 23.3573 30.4641 23.4023V26.6523V26.6398Z" fill="white"/>
<path d="M29.4133 33.4275C26.9258 33.4275 25.6008 36.865 25.6008 36.865C25.6008 36.865 24.8508 35.24 22.8258 35.24C21.4508 35.24 20.4508 36.4525 19.8008 37.59C22.3008 41.5525 26.2883 44.0025 29.4133 45.515C32.5383 44.015 36.5383 41.5525 39.0258 37.59C38.3758 36.465 37.3758 35.24 36.0008 35.24C33.9758 35.24 33.2258 36.865 33.2258 36.865C33.2258 36.865 31.9133 33.4275 29.4133 33.4275Z" fill="#0B4EA2"/>
</g>
<defs>
<clipPath id="clip0_4447_34079">
<rect width="80" height="60" fill="white" transform="translate(0.289062 0.514893)"/>
</clipPath>
</defs>
</svg>
