<svg width="81" height="61" viewBox="0 0 81 61" fill="none" xmlns="http://www.w3.org/2000/svg">
<g clip-path="url(#clip0_4447_19817)">
<path fill-rule="evenodd" clip-rule="evenodd" d="M0.289062 0.514893H80.2891V60.5149H0.289062V0.514893Z" fill="#229E45"/>
<path fill-rule="evenodd" clip-rule="evenodd" d="M40.4633 55.0149L78.1508 30.5524L40.2383 6.01489L2.42578 30.6024L40.4633 55.0149Z" fill="#F8E509"/>
<path fill-rule="evenodd" clip-rule="evenodd" d="M56.8891 30.5149C56.8891 39.3024 49.7516 46.4274 40.9391 46.4274C37.7899 46.4224 34.713 45.4839 32.0971 43.7305C29.4813 41.9771 27.4441 39.4875 26.2429 36.5764C25.0418 33.6653 24.7307 30.4635 25.349 27.3757C25.9673 24.2878 27.4873 21.4526 29.7167 19.2285C31.946 17.0043 34.7848 15.4911 37.8741 14.8801C40.9634 14.269 44.1645 14.5876 47.0727 15.7956C49.981 17.0036 52.4658 19.0467 54.213 21.6666C55.9603 24.2866 56.8915 27.3657 56.8891 30.5149Z" fill="#2B49A3"/>
<path fill-rule="evenodd" clip-rule="evenodd" d="M35.7023 40.0524L35.2023 39.7649L34.7023 40.0149L34.8148 39.4524L34.4148 39.0274L34.9773 38.9649L35.2523 38.4649L35.4898 38.9899L36.0398 39.0899L35.6273 39.4649M46.3773 42.7524L45.8898 42.4649L45.3898 42.7149L45.4898 42.1524L45.1023 41.7399L45.6648 41.6774L45.9273 41.1649L46.1773 41.6899L46.7273 41.7899L46.3023 42.1774M41.7773 38.4274L41.3523 38.1774L40.9148 38.4024L41.0148 37.9149L40.6648 37.5524L41.1648 37.5024L41.3898 37.0524L41.5898 37.5149L42.0773 37.6024L41.7023 37.9399M52.5773 36.8774L52.1523 36.6274L51.7148 36.8524L51.8148 36.3649L51.4773 36.0149L51.9648 35.9649L52.1898 35.5274L52.3898 35.9774L52.8648 36.0649L52.5023 36.3899M41.5898 33.6399L41.0898 33.3649L40.5898 33.6149L40.6898 33.0399L40.3023 32.6274L40.8648 32.5649L41.1273 32.0524L41.3773 32.5774L41.9273 32.6774L41.5023 33.0774M28.4273 28.7024L27.9273 28.4274L27.4273 28.6774L27.5523 28.1024L27.1398 27.6899L27.7148 27.6274L27.9648 27.1149L28.2148 27.6399L28.7648 27.7399L28.3523 28.1274M30.0148 35.2774L29.5148 34.9899L29.0148 35.2399L29.1273 34.6774L28.7273 34.2649L29.2898 34.1899L29.5523 33.6899L29.8023 34.2149L30.3523 34.3149L29.9398 34.7024M46.4398 26.2899L45.9898 26.0399L45.5398 26.2649L45.6398 25.7649L45.2898 25.3899L45.7898 25.3274L46.0273 24.8774L46.2398 25.3524L46.7398 25.4399L46.3648 25.7774M45.5273 30.5649L45.1898 30.3649L44.8273 30.5399L44.9023 30.1399L44.6273 29.8524L45.0273 29.8024L45.2148 29.4524L45.3773 29.8274L45.7523 29.8899L45.4773 30.1649M27.7023 36.4649L27.3648 36.2774L27.0273 36.4399L27.1023 36.0649L26.8398 35.7899L27.2148 35.7399L27.3898 35.4024L27.5523 35.7524L27.9273 35.8274L27.6398 36.0774M52.6648 37.9899L52.3898 37.8524L52.1148 37.9774L52.1773 37.6899L51.9648 37.4899L52.2648 37.4524L52.4148 37.2024L52.5398 37.4524L52.8523 37.5149L52.6148 37.7024" fill="#FFFFEF"/>
<path fill-rule="evenodd" clip-rule="evenodd" d="M27.7023 36.4648L27.3648 36.2773L27.0273 36.4398L27.1023 36.0648L26.8398 35.7898L27.2148 35.7398L27.3898 35.4023L27.5523 35.7523L27.9273 35.8273L27.6398 36.0773" fill="#FFFFEF"/>
<path fill-rule="evenodd" clip-rule="evenodd" d="M27.7023 36.4649L27.3648 36.2774L27.0273 36.4399L27.1023 36.0649L26.8398 35.7899L27.2148 35.7399L27.3898 35.4024L27.5523 35.7524L27.9273 35.8274L27.6398 36.0774M32.9273 36.4524L32.6023 36.2774L32.2648 36.4399L32.3398 36.0649L32.0773 35.7899L32.4523 35.7399L32.6273 35.4024L32.7898 35.7524L33.1648 35.8149L32.8773 36.0774M32.2773 38.2024L31.9523 38.0149L31.6148 38.1899L31.6898 37.8149L31.4273 37.5274L31.8023 37.4774L31.9773 37.1399L32.1398 37.4899L32.5148 37.5649L32.2273 37.8149M43.1523 35.0399L42.8273 34.8399L42.4773 35.0149L42.5523 34.6399L42.3023 34.3524L42.6773 34.3149L42.8523 33.9774L43.0023 34.3274L43.3773 34.3899L43.1023 34.6524M39.9648 35.0274L39.6273 34.8399L39.2898 35.0149L39.3648 34.6399L39.1148 34.3524L39.4898 34.3149L39.6648 33.9649L39.8148 34.3274L40.1898 34.3899L39.9148 34.6524M31.3148 33.9274L31.1023 33.8024L30.8898 33.9024L30.9398 33.6649L30.7773 33.4899L31.0148 33.4649L31.1148 33.2524L31.2148 33.4774L31.4523 33.5149L31.2773 33.6774M52.2523 39.3524L51.9273 39.1649L51.5898 39.3399L51.6648 38.9649L51.4023 38.6774L51.7773 38.6274L51.9523 38.2899L52.1148 38.6399L52.4898 38.7149L52.2023 38.9649M49.6023 39.7149L49.3273 39.5399L49.0398 39.6899L49.1023 39.3649L48.8898 39.1399L49.2023 39.1024L49.3523 38.8149L49.4773 39.1149L49.7898 39.1649L49.5523 39.3899M50.8523 39.6774L50.6023 39.5274L50.3398 39.6524L50.3898 39.3649L50.1898 39.1524L50.4773 39.1149L50.6148 38.8649L50.7398 39.1149L51.0273 39.1774L50.8148 39.3774M54.4523 36.5274L54.2023 36.4024L53.9523 36.5274L54.0148 36.2399L53.8148 36.0274L54.1023 35.9899L54.2273 35.7399L54.3523 36.0024L54.6148 36.0524L54.4148 36.2524M49.5648 41.4774L49.2523 41.3024L48.9148 41.4524L48.9898 41.1024L48.7398 40.8524L49.1148 40.8149L49.2773 40.5024L49.4273 40.8274L49.8023 40.8899L49.5148 41.1274M49.5898 42.9024L49.2898 42.7274L48.9898 42.8899L49.0648 42.5399L48.8273 42.2899L49.1648 42.2399L49.3148 41.9274L49.4523 42.2524L49.7898 42.3149L49.5398 42.5649M47.1648 39.6774L46.9273 39.5274L46.6773 39.6524L46.7273 39.3774L46.5398 39.1649L46.8148 39.1399L46.9398 38.8899L47.0648 39.1399L47.3398 39.1899L47.1398 39.3899M44.9148 39.6774L44.6648 39.5274L44.4148 39.6524L44.4773 39.3774L44.2773 39.1649L44.5648 39.1399L44.6898 38.8899L44.8148 39.1399L45.0773 39.1899L44.8773 39.3899M41.0773 36.3149L40.8273 36.1774L40.5773 36.3024L40.6398 36.0149L40.4398 35.8149L40.7148 35.7774L40.8398 35.5274L40.9648 35.7774L41.2398 35.8399L41.0398 36.0274M41.5023 43.1524L41.3023 43.0399L41.0773 43.1524L41.1273 42.9024L40.9648 42.7274L41.2023 42.7024L41.3148 42.4899L41.4148 42.7149L41.6523 42.7524L41.4773 42.9149M35.7023 32.0899L35.2023 31.8024L34.7023 32.0524L34.8148 31.4899L34.4148 31.0774L34.9773 31.0024L35.2523 30.5024L35.4898 31.0274L36.0398 31.1274L35.6273 31.5149" fill="#FFFFEF"/>
<path fill-rule="evenodd" clip-rule="evenodd" d="M55.8391 36.2399C56.1487 35.4364 56.3912 34.6085 56.5641 33.7649C48.0891 26.3274 38.6516 22.5149 26.7266 23.3024C26.2941 24.1393 25.9384 25.0137 25.6641 25.9149C39.7891 24.5649 50.1641 30.8149 55.8391 36.2399Z" fill="white"/>
<path d="M52.0375 32.0649L52.325 32.2274C52.2821 32.3123 52.2689 32.4091 52.2875 32.5024C52.3168 32.5928 52.3793 32.6688 52.4625 32.7149C52.55 32.7774 52.6375 32.8149 52.7125 32.8024C52.7875 32.8024 52.8375 32.7649 52.875 32.7149C52.8968 32.6817 52.9057 32.6417 52.9 32.6024C52.8898 32.5562 52.8683 32.5133 52.8375 32.4774C52.8125 32.4399 52.75 32.3524 52.65 32.2524C52.5472 32.1463 52.4702 32.018 52.425 31.8774C52.3938 31.771 52.4019 31.6569 52.4478 31.5559C52.4937 31.455 52.5743 31.3739 52.675 31.3274C52.7659 31.2894 52.8664 31.2807 52.9625 31.3024C53.08 31.3295 53.1907 31.3805 53.2875 31.4524C53.4625 31.5774 53.575 31.7024 53.6125 31.8524C53.6298 31.9226 53.632 31.9956 53.6191 32.0667C53.6062 32.1378 53.5784 32.2053 53.5375 32.2649L53.2375 32.0774C53.275 32.0024 53.2875 31.9274 53.2625 31.8649C53.25 31.8024 53.2 31.7399 53.1125 31.6899C53.0483 31.6382 52.9697 31.6077 52.8875 31.6024C52.8648 31.6016 52.8424 31.607 52.8226 31.6181C52.8028 31.6291 52.7863 31.6453 52.775 31.6649C52.75 31.7024 52.75 31.7399 52.7625 31.7899C52.775 31.8399 52.8375 31.9399 52.9625 32.0649C53.0875 32.1899 53.1625 32.3024 53.2125 32.3774C53.2571 32.4593 53.2773 32.5523 53.2707 32.6454C53.264 32.7384 53.2308 32.8276 53.175 32.9024C53.1165 32.9874 53.0337 33.0527 52.9375 33.0899C52.8438 33.1331 52.739 33.1461 52.6375 33.1274C52.525 33.1024 52.4125 33.0524 52.2875 32.9649C52.1 32.8399 51.9875 32.7024 51.95 32.5524C51.9093 32.3823 51.9362 32.203 52.025 32.0524L52.0375 32.0649ZM50.5875 31.1149L50.9 31.2774C50.8613 31.3637 50.8525 31.4605 50.875 31.5524C50.907 31.6382 50.9692 31.7093 51.05 31.7524C51.15 31.8149 51.225 31.8399 51.3 31.8274C51.375 31.8274 51.425 31.7899 51.4625 31.7274C51.4815 31.6977 51.4902 31.6626 51.4875 31.6274C51.4875 31.5899 51.4625 31.5399 51.425 31.5024C51.361 31.4251 51.2943 31.35 51.225 31.2774C51.0875 31.1399 51 31.0274 50.975 30.9274C50.9546 30.8631 50.9484 30.795 50.9571 30.7281C50.9657 30.6612 50.9889 30.5969 51.025 30.5399C51.0725 30.4628 51.1422 30.4018 51.225 30.3649C51.3109 30.3253 51.4066 30.3122 51.5 30.3274C51.6156 30.3469 51.7261 30.3894 51.825 30.4524C52.0125 30.5774 52.125 30.7024 52.1625 30.8399C52.1853 30.9102 52.1926 30.9845 52.184 31.0579C52.1753 31.1312 52.151 31.2018 52.1125 31.2649L51.8 31.0899C51.8375 31.0024 51.85 30.9399 51.825 30.8774C51.8 30.8149 51.75 30.7524 51.6625 30.7024C51.5933 30.6528 51.5101 30.6265 51.425 30.6274C51.4045 30.6288 51.3846 30.6352 51.3672 30.6461C51.3497 30.657 51.3352 30.672 51.325 30.6899C51.3 30.7274 51.3 30.7649 51.3125 30.8149C51.325 30.8649 51.4 30.9649 51.525 31.0899C51.65 31.2149 51.7375 31.3149 51.775 31.3899C51.8251 31.4683 51.8517 31.5594 51.8517 31.6524C51.8517 31.7454 51.8251 31.8365 51.775 31.9149C51.7211 32.0021 51.6429 32.0716 51.55 32.1149C51.4563 32.1581 51.3515 32.1712 51.25 32.1524C51.1214 32.1306 50.9982 32.0839 50.8875 32.0149C50.7259 31.9288 50.6014 31.7865 50.5375 31.6149C50.4892 31.448 50.5071 31.2689 50.5875 31.1149ZM48.8125 30.6399L49.725 29.1399L50.825 29.8274L50.675 30.0774L49.875 29.5774L49.675 29.9149L50.425 30.3774L50.2625 30.6274L49.5125 30.1649L49.2625 30.5774L50.1 31.0774L49.95 31.3274L48.825 30.6399H48.8125ZM46.225 28.5149L46.3625 28.2649L47.0375 28.6024L46.725 29.2274C46.625 29.2524 46.5 29.2649 46.35 29.2524C46.206 29.2365 46.0661 29.1941 45.9375 29.1274C45.7862 29.0537 45.6569 28.9416 45.5625 28.8024C45.4765 28.673 45.4329 28.5202 45.4375 28.3649C45.4438 28.2033 45.4866 28.0452 45.5625 27.9024C45.6376 27.7521 45.7494 27.6231 45.8875 27.5274C46.0196 27.436 46.1769 27.388 46.3375 27.3899C46.4625 27.3899 46.5875 27.4274 46.7375 27.5149C46.9375 27.6024 47.0625 27.7274 47.125 27.8649C47.19 28.0014 47.2033 28.1568 47.1625 28.3024L46.825 28.2024C46.8457 28.1187 46.8368 28.0304 46.8 27.9524C46.7625 27.8774 46.7 27.8274 46.6 27.7774C46.5417 27.7441 46.4771 27.7236 46.4103 27.7171C46.3435 27.7107 46.2761 27.7184 46.2125 27.7399C46.0875 27.7774 45.975 27.8899 45.8875 28.0649C45.8 28.2399 45.7625 28.4024 45.8 28.5399C45.8173 28.6051 45.8486 28.6657 45.8918 28.7176C45.935 28.7694 45.989 28.8111 46.05 28.8399C46.1125 28.8774 46.1875 28.9024 46.2625 28.9024C46.3371 28.9137 46.4129 28.9137 46.4875 28.9024L46.5875 28.7024L46.225 28.5149ZM34.95 25.7274L35.2 23.9774L35.725 24.0649L35.8625 25.2899L36.35 24.1649L36.875 24.2399L36.625 25.9649L36.2875 25.9149L36.5 24.5524L35.95 25.8649L35.6125 25.8149L35.475 24.4024L35.275 25.7774L34.95 25.7274ZM33.1875 25.5149L33.35 23.7649L34.6375 23.8899L34.6125 24.1899L33.675 24.1024L33.6375 24.4774L34.5125 24.5649L34.475 24.8649L33.6 24.7774L33.5625 25.2524L34.5375 25.3399L34.5125 25.6399L33.1875 25.5149Z" fill="#309E3A"/>
<path d="M27.3506 24.4273C27.3506 24.2398 27.3881 24.1023 27.4381 23.9773C27.482 23.8884 27.5412 23.808 27.6131 23.7398C27.6772 23.6752 27.7538 23.6242 27.8381 23.5898C27.9631 23.5523 28.0881 23.5273 28.2131 23.5273C28.4756 23.5273 28.6756 23.6273 28.8381 23.7773C28.9155 23.8729 28.973 23.9829 29.0073 24.101C29.0417 24.219 29.0522 24.3427 29.0381 24.4648C29.0381 24.7398 28.9506 24.9648 28.7881 25.1273C28.7046 25.2045 28.6058 25.2633 28.4982 25.2999C28.3905 25.3365 28.2764 25.3501 28.1631 25.3398C28.0514 25.341 27.9406 25.3194 27.8375 25.2764C27.7343 25.2335 27.641 25.17 27.5631 25.0898C27.4076 24.9057 27.3312 24.6676 27.3506 24.4273Z" fill="#309E3A"/>
<path d="M27.7148 24.4274C27.7148 24.6149 27.7523 24.7649 27.8398 24.8774C27.9273 24.9774 28.0398 25.0399 28.1898 25.0399C28.2547 25.0444 28.3198 25.0344 28.3804 25.0106C28.4409 24.9869 28.4954 24.9499 28.5398 24.9024C28.6273 24.8024 28.6648 24.6524 28.6773 24.4399C28.6773 24.2399 28.6523 24.0899 28.5523 23.9899C28.5116 23.9395 28.4602 23.8988 28.4019 23.8707C28.3435 23.8426 28.2796 23.8278 28.2148 23.8274C28.1491 23.8253 28.0837 23.8376 28.0232 23.8635C27.9627 23.8895 27.9087 23.9283 27.8648 23.9774C27.7648 24.0774 27.7273 24.2274 27.7148 24.4274Z" fill="#F7FFFF"/>
<path d="M29.4141 25.3274L29.4391 23.5774H30.1891C30.3766 23.5774 30.5016 23.6024 30.5891 23.6399C30.6766 23.6649 30.7391 23.7274 30.7891 23.8024C30.8391 23.8774 30.8641 23.9774 30.8641 24.0899C30.865 24.2101 30.8204 24.3263 30.7391 24.4149C30.6467 24.5015 30.5277 24.5543 30.4016 24.5649L30.5891 24.7149C30.6391 24.7649 30.7016 24.8649 30.7766 25.0024L30.9891 25.3524H30.5641L30.3141 24.9524L30.1391 24.7024C30.1088 24.668 30.07 24.6421 30.0266 24.6274C29.9697 24.6108 29.9108 24.6024 29.8516 24.6024H29.7766V25.3274H29.4141Z" fill="#309E3A"/>
<path d="M29.7891 24.3274H30.0391C30.2141 24.3274 30.3266 24.3274 30.3641 24.3024C30.4016 24.3024 30.4391 24.2649 30.4641 24.2399C30.4891 24.2149 30.5016 24.1524 30.5016 24.1149C30.5016 24.0399 30.4891 23.9899 30.4516 23.9649C30.4266 23.9274 30.3766 23.9024 30.3266 23.8899H30.0766L29.7891 23.8774V24.3149V24.3274Z" fill="white"/>
<path d="M31.4156 23.6648L32.0656 23.7023C32.2031 23.7023 32.3156 23.7148 32.3906 23.7398C32.4879 23.7751 32.5742 23.8355 32.6406 23.9148C32.7126 24.0022 32.7639 24.1048 32.7906 24.2148C32.8281 24.3273 32.8406 24.4648 32.8281 24.6273C32.828 24.7549 32.8069 24.8816 32.7656 25.0023C32.7156 25.1273 32.6406 25.2273 32.5531 25.3023C32.4803 25.3623 32.3948 25.405 32.3031 25.4273C32.2281 25.4523 32.1156 25.4523 31.9906 25.4523L31.3281 25.4148L31.4156 23.6648Z" fill="#309E3A"/>
<path d="M31.7539 23.9773L31.6914 25.1398H32.1664C32.2289 25.1398 32.2789 25.1148 32.3164 25.0773C32.3539 25.0398 32.3914 24.9898 32.4164 24.9148C32.4414 24.8398 32.4664 24.7273 32.4664 24.5898L32.4539 24.2773C32.4361 24.2114 32.4016 24.1511 32.3539 24.1023C32.3124 24.0605 32.2607 24.0304 32.2039 24.0148C32.1094 23.9938 32.0132 23.9812 31.9164 23.9773H31.7539Z" fill="white"/>
<path d="M39.9883 26.7898L40.4008 25.0898L40.9508 25.2148L41.3508 25.3398C41.4383 25.3898 41.5133 25.4648 41.5508 25.5773C41.6008 25.6773 41.6008 25.7898 41.5758 25.9273C41.5508 26.0273 41.5133 26.1148 41.4508 26.1773C41.4049 26.2322 41.3476 26.2764 41.2828 26.3066C41.218 26.3369 41.1473 26.3525 41.0758 26.3523C40.9883 26.3523 40.8633 26.3273 40.7008 26.2898L40.4883 26.2273L40.3383 26.8773L39.9883 26.7898Z" fill="#309E3A"/>
<path d="M40.6625 25.4648L40.5625 25.9398L40.75 25.9898C40.875 26.0148 40.975 26.0398 41.025 26.0273C41.0736 26.0206 41.119 25.9989 41.1548 25.9654C41.1906 25.9318 41.2151 25.8879 41.225 25.8398C41.225 25.7773 41.225 25.7273 41.2 25.6773C41.1726 25.6265 41.1284 25.5868 41.075 25.5648L40.8375 25.5023L40.675 25.4648H40.6625Z" fill="white"/>
<path d="M41.6133 27.2774L42.2008 25.6274L42.8883 25.8774C43.0758 25.9399 43.1883 26.0024 43.2633 26.0524C43.3258 26.1149 43.3758 26.1774 43.3883 26.2774C43.4008 26.3774 43.4133 26.4649 43.3883 26.5649C43.3383 26.6899 43.2633 26.7774 43.1633 26.8399C43.0633 26.8899 42.9383 26.9024 42.7883 26.8774C42.8383 26.9399 42.8883 27.0024 42.9133 27.0774L43.0133 27.4149L43.0883 27.8024L42.7008 27.6649L42.5758 27.2149C42.5531 27.1132 42.5238 27.013 42.4883 26.9149C42.4717 26.8761 42.446 26.8417 42.4133 26.8149C42.3883 26.7774 42.3383 26.7524 42.2508 26.7274L42.1883 26.7024L41.9383 27.4024L41.6133 27.2774Z" fill="#309E3A"/>
<path d="M42.2898 26.4398L42.5273 26.5273C42.6898 26.5898 42.7898 26.6148 42.8398 26.6148C42.8773 26.6148 42.9148 26.6148 42.9523 26.5773C42.9898 26.5523 43.0148 26.5148 43.0273 26.4648C43.0523 26.4148 43.0523 26.3648 43.0273 26.3148C43.0089 26.2664 42.9733 26.2264 42.9273 26.2023L42.6773 26.1148L42.4273 26.0273L42.2773 26.4398H42.2898Z" fill="white"/>
<path d="M43.6634 27.2148C43.7064 27.0684 43.7787 26.9323 43.8759 26.8148C43.9391 26.7394 44.0153 26.6759 44.1009 26.6273C44.1784 26.5835 44.263 26.5539 44.3509 26.5398C44.4759 26.5398 44.6009 26.5398 44.7384 26.5898C44.8501 26.6174 44.9547 26.6685 45.0452 26.7396C45.1357 26.8107 45.2101 26.9003 45.2634 27.0023C45.3634 27.2023 45.3634 27.4398 45.2884 27.7148C45.2265 27.951 45.0738 28.1533 44.8634 28.2773C44.6759 28.3898 44.4509 28.4023 44.2134 28.3273C44.102 28.2989 43.9977 28.2476 43.9073 28.1765C43.8169 28.1055 43.7423 28.0163 43.6884 27.9148C43.6383 27.8055 43.6103 27.6874 43.6061 27.5673C43.6018 27.4472 43.6212 27.3274 43.6634 27.2148Z" fill="#309E3A"/>
<path d="M44.015 27.3149C43.965 27.5024 43.9525 27.6649 44.015 27.7899C44.0775 27.9149 44.165 27.9899 44.3025 28.0399C44.4275 28.0774 44.5525 28.0649 44.6775 27.9899C44.8025 27.9274 44.8775 27.7899 44.94 27.5899C45.0025 27.4024 45.0025 27.2524 44.94 27.1274C44.9153 27.0681 44.8779 27.015 44.8303 26.9718C44.7828 26.9286 44.7264 26.8963 44.665 26.8774C44.6035 26.8562 44.5381 26.8485 44.4734 26.855C44.4086 26.8615 44.3461 26.8819 44.29 26.9149C44.165 26.9899 44.0775 27.1149 44.015 27.3149Z" fill="white"/>
<path d="M47.0781 29.6523L47.8781 28.1023L48.5406 28.4398C48.6655 28.4997 48.7796 28.58 48.8781 28.6773C48.9406 28.7398 48.9781 28.8148 48.9781 28.9148C48.9781 29.0148 48.9781 29.1023 48.9281 29.1898C48.8801 29.3022 48.7905 29.3917 48.6781 29.4398C48.5531 29.4648 48.4281 29.4648 48.2906 29.4148C48.3406 29.4898 48.3656 29.5648 48.3906 29.6273C48.4156 29.7023 48.4281 29.8148 48.4406 29.9773L48.4656 30.3773L48.0906 30.1898L48.0406 29.7273C48.0347 29.6224 48.0222 29.5181 48.0031 29.4148C47.9946 29.368 47.9729 29.3247 47.9406 29.2898L47.7906 29.2023L47.7281 29.1648L47.3906 29.8148L47.0781 29.6523Z" fill="#309E3A"/>
<path d="M47.8516 28.9149L48.0891 29.0399C48.2391 29.1149 48.3391 29.1649 48.3766 29.1649C48.4141 29.1649 48.4641 29.1649 48.5016 29.1399C48.5391 29.1274 48.5641 29.0899 48.5891 29.0399C48.6141 28.9899 48.6266 28.9399 48.6141 28.8899C48.5986 28.8401 48.568 28.7964 48.5266 28.7649C48.4534 28.72 48.3783 28.6783 48.3016 28.6399L48.0516 28.5149L47.8516 28.9149Z" fill="white"/>
<path d="M53.5528 32.8523C53.6337 32.7237 53.7401 32.6131 53.8653 32.5273C53.9494 32.4734 54.0426 32.4353 54.1403 32.4148C54.231 32.3962 54.3246 32.3962 54.4153 32.4148C54.5403 32.4398 54.6528 32.4898 54.7653 32.5648C54.8626 32.6254 54.9462 32.7056 55.0108 32.8003C55.0753 32.895 55.1194 33.0021 55.1403 33.1148C55.1778 33.3273 55.1153 33.5648 54.9653 33.8023C54.8398 34.0088 54.6375 34.1572 54.4028 34.2148C54.2909 34.2389 54.1751 34.2392 54.0631 34.2155C53.9511 34.1918 53.8454 34.1447 53.7528 34.0773C53.6555 34.0167 53.5719 33.9365 53.5074 33.8418C53.4428 33.7471 53.3987 33.64 53.3778 33.5273C53.3403 33.3023 53.4028 33.0773 53.5528 32.8523Z" fill="#309E3A"/>
<path d="M53.8636 33.0524C53.7386 33.2149 53.7011 33.3649 53.7261 33.5024C53.7353 33.5657 53.7579 33.6263 53.7924 33.6802C53.8268 33.7341 53.8724 33.78 53.9261 33.8149C54.0511 33.9024 54.1761 33.9274 54.3011 33.8899C54.4261 33.8524 54.5511 33.7649 54.6636 33.5899C54.7761 33.4149 54.8261 33.2649 54.8011 33.1399C54.7886 33.0149 54.7136 32.9024 54.6011 32.8149C54.4886 32.7274 54.3511 32.7149 54.2261 32.7524C54.1011 32.7774 53.9761 32.8774 53.8511 33.0524H53.8636Z" fill="white"/>
<path d="M38.0156 26.0773L38.3031 24.8523L39.2031 25.0648L39.1656 25.2648L38.5031 25.1148L38.4406 25.3898L39.0531 25.5273L39.0031 25.7398L38.3906 25.5898L38.3156 25.9273L39.0031 26.0898L38.9531 26.2898L38.0156 26.0773Z" fill="#309E3A"/>
</g>
<defs>
<clipPath id="clip0_4447_19817">
<rect width="80" height="60" fill="white" transform="translate(0.289062 0.514893)"/>
</clipPath>
</defs>
</svg>
