<svg width="81" height="61" viewBox="0 0 81 61" fill="none" xmlns="http://www.w3.org/2000/svg">
<g clip-path="url(#clip0_4447_17546)">
<path d="M0.289062 0.514893H80.2891V60.5149H0.289062V0.514893Z" fill="#D0103A"/>
<path d="M0.289062 0.514893H54.6891V60.5149H0.289062V0.514893Z" fill="#FEDF00"/>
<path d="M0.289062 0.514893H25.8891V60.5149H0.289062V0.514893Z" fill="#0018A8"/>
<path d="M37.8382 17.5898C38.8007 17.5898 39.2007 18.4148 40.1632 18.4148C40.7507 18.4148 41.1007 18.2273 41.6257 17.9273C41.9882 17.7273 42.2132 17.6148 42.6257 17.6148C43.0507 17.6148 43.3132 17.7398 43.5382 18.1148C43.6632 18.3148 43.7632 18.7273 43.7007 18.9523C43.6264 19.3095 43.5133 19.6574 43.3632 19.9898C43.2757 20.1898 43.2007 20.3023 43.2007 20.5148C43.2007 21.0273 43.9007 21.2023 44.3757 21.2148C44.4757 21.2148 45.3382 21.2148 45.8757 20.6898C45.5882 20.6773 45.2632 20.4398 45.2632 20.1523C45.2632 19.8273 45.4882 19.6148 45.8007 19.5148C45.8632 19.5023 45.9632 19.5523 46.0132 19.5148C46.1007 19.4773 46.0632 19.3898 46.1382 19.3398C46.2882 19.2148 46.3882 19.1398 46.5882 19.1398C46.7132 19.1398 46.7882 19.1523 46.9007 19.2273C46.9507 19.2773 46.9757 19.3273 47.0257 19.3273C47.1757 19.3273 47.2507 19.2273 47.4007 19.2273C47.5012 19.2289 47.5998 19.2546 47.6882 19.3023C47.7632 19.3398 47.7632 19.4898 47.8632 19.4898C47.9132 19.4898 48.1632 19.3773 48.3007 19.3773C48.5757 19.3773 48.7257 19.4773 48.9007 19.6898C48.9507 19.7523 48.9757 19.8648 49.0257 19.8648C49.1483 19.8752 49.2667 19.9147 49.371 19.9799C49.4754 20.0451 49.5627 20.1342 49.6257 20.2398C49.6632 20.2898 49.7132 20.4148 49.7632 20.4273C49.8382 20.4648 49.8882 20.4523 49.9757 20.5148C50.0781 20.5792 50.1635 20.6674 50.2244 20.7719C50.2853 20.8764 50.3201 20.994 50.3257 21.1148C50.3257 21.2023 50.2882 21.3148 50.2632 21.3898C50.0382 22.2023 49.4757 22.4648 48.9132 23.1773C48.6632 23.4773 48.4757 23.7148 48.4757 24.1023C48.4757 24.1898 48.6007 24.3648 48.6382 24.4398C48.6132 24.2648 48.7007 24.0398 48.8882 24.0273C49.0126 24.0267 49.1328 24.0725 49.2252 24.1557C49.3177 24.2389 49.3758 24.3536 49.3882 24.4773C49.3912 24.5541 49.3785 24.6307 49.3507 24.7023C49.5023 24.6075 49.6731 24.5477 49.8507 24.5273H50.0882C50.5007 24.5273 50.9632 24.7648 51.2507 25.0023C51.5516 25.2607 51.79 25.5839 51.948 25.9476C52.1061 26.3113 52.1797 26.7061 52.1632 27.1023C52.0632 27.7523 52.1257 28.9523 50.4382 29.4273C50.7507 29.5523 50.9632 29.8023 50.9632 30.0773C50.9666 30.1522 50.9549 30.2271 50.9289 30.2974C50.903 30.3677 50.8632 30.4322 50.8119 30.4869C50.7607 30.5416 50.699 30.5856 50.6306 30.6161C50.5621 30.6467 50.4882 30.6633 50.4132 30.6648C50.3319 30.6699 50.2505 30.6568 50.1748 30.6266C50.0991 30.5963 50.0311 30.5496 49.9757 30.4898C49.6257 30.8398 49.5632 31.2023 49.5632 31.7023C49.5632 32.0023 49.6132 32.1773 49.7382 32.4523C49.8632 32.7273 49.9632 32.8898 50.2007 33.0898C50.3257 32.9023 50.4632 32.7648 50.7007 32.7648C50.9132 32.7648 51.1007 32.8398 51.1882 33.0398C51.2132 33.1023 51.1882 33.1523 51.2257 33.2148C51.2632 33.2898 51.3257 33.3023 51.3632 33.3773C51.4257 33.5023 51.3632 33.6023 51.4257 33.7148C51.4632 33.8023 51.5382 33.8148 51.5757 33.8898C51.6257 34.0148 51.6382 34.0898 51.6382 34.2273C51.6382 34.6023 51.3007 34.8773 50.9257 34.8773C50.8007 34.8773 50.7507 34.8273 50.6382 34.8398C50.8507 35.0523 51.0132 35.1523 51.1757 35.4023C51.4309 35.7824 51.5619 36.2322 51.5507 36.6898C51.5608 37.1793 51.44 37.6627 51.2007 38.0898C51.0142 38.5189 50.7111 38.887 50.3257 39.1523C49.7362 39.5815 49.0487 39.8565 48.3257 39.9523C47.8724 40.0448 47.4128 40.1033 46.9507 40.1273L45.1882 40.2273C44.2882 40.2773 43.6632 40.4148 43.0257 41.0523C43.3257 41.2648 43.5257 41.4898 43.5257 41.8523C43.5257 42.2273 43.3007 42.5148 42.9382 42.6273C42.8507 42.6523 42.7882 42.6273 42.7007 42.6773C42.6132 42.7273 42.6132 42.8398 42.5257 42.8898C42.3851 42.9819 42.2184 43.0258 42.0507 43.0148C41.9026 43.0255 41.7539 43.0029 41.6155 42.9489C41.4771 42.8948 41.3525 42.8106 41.2507 42.7023C40.9757 42.9273 40.8757 43.1273 40.5632 43.3148C40.4632 43.3648 40.4132 43.4398 40.3007 43.4398C40.1132 43.4398 40.0257 43.3148 39.8757 43.2148C39.6715 43.0727 39.4867 42.9046 39.3257 42.7148C39.0382 42.8773 38.8757 43.0148 38.5382 43.0148C38.3628 43.0243 38.1886 42.9808 38.0382 42.8898C37.9632 42.8273 37.9382 42.7398 37.8507 42.6898C37.7632 42.6273 37.6882 42.6523 37.5882 42.6023C37.2132 42.4398 36.9632 42.1648 36.9632 41.7523C36.9632 41.3898 37.1882 41.1648 37.5132 41.0023C36.8882 40.3773 36.2632 40.2773 35.3882 40.2273L33.6382 40.1273C33.0882 40.0898 32.7882 40.0398 32.2632 39.9523C31.8507 39.8898 31.6132 39.8648 31.2382 39.6898C29.9632 39.0898 29.1382 38.2773 28.9882 36.8773C28.9632 36.7523 28.9632 36.6898 28.9632 36.5648C28.9632 35.8398 29.2507 35.3898 29.7632 34.8773C29.6382 34.8398 29.5507 34.8773 29.4132 34.8398C29.1007 34.7148 28.8632 34.5023 28.8632 34.1523C28.8632 34.0273 28.8632 33.9398 28.9257 33.8273C28.9757 33.7523 29.0507 33.7398 29.0757 33.6523C29.1007 33.5273 29.0757 33.4523 29.1257 33.3398C29.1632 33.2773 29.2257 33.2648 29.2507 33.1898C29.3757 32.9523 29.5007 32.7648 29.7632 32.7648C29.9882 32.7648 30.1382 32.8898 30.2382 33.0773C30.4632 32.9773 30.5132 32.8148 30.6382 32.6148C30.7897 32.3684 30.884 32.0911 30.9143 31.8034C30.9446 31.5158 30.91 31.2249 30.8132 30.9523C30.7632 30.7648 30.7382 30.6398 30.5882 30.4898C30.4632 30.6148 30.3382 30.6648 30.1632 30.6648C29.8007 30.6648 29.5382 30.3523 29.5382 30.0023C29.5344 29.8796 29.5683 29.7587 29.6354 29.6559C29.7024 29.5531 29.7994 29.4733 29.9132 29.4273C29.7132 29.2523 29.5382 29.2398 29.3257 29.1023C29.0007 28.9023 28.8882 28.6773 28.6757 28.3523C28.5257 28.1523 28.4882 28.0023 28.4257 27.7648C28.3165 27.4521 28.274 27.12 28.3007 26.7898C28.3757 26.1648 28.4882 25.7898 28.8757 25.3023C29.1007 25.0148 29.2507 24.8398 29.6007 24.6898C29.8882 24.5648 30.0632 24.4773 30.3757 24.4773L30.6257 24.4898C30.7482 24.4979 30.8675 24.532 30.9757 24.5898C31.0257 24.6148 31.1132 24.7023 31.1132 24.6398C31.1132 24.5773 31.0757 24.5398 31.0757 24.4773C31.0757 24.2273 31.2632 23.9773 31.5257 23.9773C31.7132 23.9773 31.7882 24.1523 31.8882 24.3148C31.9382 24.2148 31.9757 24.1398 31.9757 24.0273C31.9757 23.6023 31.7382 23.3773 31.4757 23.0398C30.8882 22.3148 30.1632 21.9773 30.1632 21.0398C30.1632 20.7648 30.2882 20.5773 30.5382 20.4273C30.6007 20.3898 30.7007 20.4273 30.7632 20.3898C30.8257 20.3523 30.8132 20.2648 30.8507 20.2148C30.9132 20.1273 30.9757 20.0898 31.0507 20.0148C31.1757 19.8898 31.3007 19.9398 31.4382 19.8273C31.5132 19.7773 31.5382 19.7023 31.5882 19.6523C31.7507 19.4523 31.9007 19.3523 32.1632 19.3523C32.2882 19.3523 32.3632 19.3523 32.4757 19.4023L32.6007 19.4648C32.6382 19.4398 32.7007 19.3648 32.7882 19.3273C32.8707 19.2762 32.9662 19.2501 33.0632 19.2523C33.2007 19.2523 33.2882 19.3273 33.4382 19.3273C33.4757 19.3273 33.4882 19.2773 33.5382 19.2523C33.6632 19.1648 33.7257 19.1273 33.8757 19.1273C34.0257 19.1273 34.1007 19.1648 34.2257 19.2523C34.3507 19.3148 34.3507 19.4148 34.4757 19.4773C34.5382 19.5148 34.6007 19.5023 34.6632 19.5273C34.9882 19.6398 35.2257 19.8523 35.2257 20.1898C35.2257 20.3773 35.1882 20.5023 35.0507 20.6273C34.9382 20.7148 34.8382 20.7023 34.7007 20.7523C35.0984 21.0733 35.6038 21.2298 36.1132 21.1898C36.6382 21.1898 37.2757 20.9773 37.2757 20.4523C37.2757 20.2023 37.1507 20.0773 37.0507 19.8523C36.8808 19.5238 36.7909 19.1597 36.7882 18.7898C36.7882 18.4398 36.8257 18.2273 37.0257 17.9523C37.2257 17.6648 37.4757 17.5898 37.8382 17.5898Z" fill="#C7B37F"/>
<path d="M34.3398 20.39C34.3613 20.4608 34.3999 20.5252 34.4523 20.5776C34.5046 20.6299 34.569 20.6685 34.6398 20.69C34.7398 20.7275 34.9773 20.715 35.1148 20.515C35.2398 20.365 35.2398 20.165 35.1898 20.015C35.1484 19.904 35.0743 19.8081 34.9773 19.74L34.3398 20.39Z" stroke="#703D29" stroke-width="0.0875" stroke-linejoin="round"/>
<path d="M50.4168 30.0273C50.2668 29.6648 49.8793 29.8273 49.8668 30.0273C49.8043 30.4898 50.2043 30.6273 50.4918 30.5523C50.5583 30.5344 50.6204 30.5029 50.6741 30.4599C50.7279 30.4169 50.7722 30.3632 50.8043 30.3023C50.8793 30.1773 50.9043 30.0023 50.8543 29.8398C50.8335 29.7676 50.7996 29.6998 50.7543 29.6398C50.7095 29.5805 50.6544 29.5297 50.5918 29.4898C50.4793 29.4148 50.3543 29.4148 50.1668 29.4148C49.4793 29.4148 48.8668 30.2273 48.6668 31.0898C48.5918 31.3648 48.5043 32.0023 48.6293 32.5898C48.7331 33.1221 48.9893 33.6128 49.3668 34.0023C49.7194 34.3341 50.1424 34.582 50.6043 34.7273C50.7671 34.7743 50.9393 34.7786 51.1043 34.7398C51.5043 34.6523 51.6918 34.2648 51.4793 33.8648C51.3168 33.5523 50.8168 33.3648 50.5793 33.7898C50.5668 33.8273 50.5293 33.9023 50.5293 33.9773C50.5293 34.0898 50.5793 34.2273 50.6543 34.2773C50.8418 34.3898 51.1293 34.3523 51.1168 34.0273" stroke="#703D29" stroke-width="0.0875" stroke-linecap="round"/>
<path d="M48.2648 34.7649C48.4785 34.5205 48.7699 34.3572 49.0898 34.3024C49.4648 34.2524 49.7898 34.3649 50.1148 34.5524C50.5211 34.7383 50.8648 35.038 51.1044 35.4151C51.3439 35.7922 51.4691 36.2306 51.4648 36.6774C51.4648 37.1274 51.3398 37.6149 51.2148 37.8524C51.1148 38.0649 50.8398 38.9774 49.3023 39.6024C48.4148 39.9774 47.0523 40.0524 46.0898 40.1024C44.7898 40.1399 43.5898 40.1899 42.9023 41.0524" stroke="#703D29" stroke-width="0.1"/>
<path d="M48.5914 36.2273C48.5539 36.1023 48.5914 35.9648 48.6914 35.8148C48.8414 35.6148 49.1539 35.5523 49.4414 35.6898C49.5651 35.7565 49.672 35.8506 49.7539 35.9648L49.8914 36.1648C49.9789 36.3023 50.0164 36.4148 50.0164 36.4773C50.3289 37.3523 49.8414 38.2898 49.2039 38.6773C48.7039 38.9773 48.1164 39.1023 47.4039 39.1773C47.0914 39.2273 46.9039 39.2148 46.5914 39.2398H45.3914C45.0916 39.2244 44.7912 39.2244 44.4914 39.2398C44.1289 39.2773 43.8664 39.2898 43.5414 39.3398C43.3414 39.3648 43.1164 39.4023 42.8664 39.4648C42.7914 39.4648 42.7164 39.4898 42.6414 39.5148L42.4914 39.5523C42.0414 39.6898 41.6164 39.8523 41.2664 40.0773C41.1664 40.1398 41.0414 40.2023 40.9539 40.2898L40.7914 40.4398C40.5414 40.6898 40.3039 40.9398 40.2414 41.2773V41.4773C40.2414 41.7023 40.4164 42.0148 40.9164 42.1023M41.6039 20.8523C41.7039 21.0273 41.7664 21.1398 41.7039 21.3398C41.6289 21.5523 41.4789 21.6898 41.2539 21.6898C40.7539 21.6898 40.4664 21.0898 40.6914 20.7148C41.0914 20.0523 41.8539 20.4273 42.5664 20.7523C42.5289 20.5898 42.4664 20.5273 42.4789 20.3148C42.4914 19.7898 42.8789 19.5648 43.0414 19.0648C43.1289 18.7773 43.1664 18.5273 42.9539 18.3148C42.7664 18.1523 42.5539 18.1523 42.3164 18.2398C41.8414 18.4273 41.2539 18.9773 40.2414 18.9898C39.2164 18.9773 38.6414 18.4273 38.1539 18.2398C37.9039 18.1523 37.7039 18.1523 37.5164 18.3273C37.3039 18.5273 37.3414 18.7773 37.4289 19.0773C37.5914 19.5523 37.9789 19.7898 37.9914 20.3273C37.9914 20.5273 37.9414 20.5773 37.9039 20.7523C38.6164 20.4273 39.4039 20.0148 39.7789 20.7148C39.9914 21.1148 39.7164 21.6773 39.2164 21.6773C38.9914 21.6773 38.8414 21.5523 38.7664 21.3398C38.7164 21.1523 38.7664 20.9898 38.8664 20.8398" stroke="#703D29" stroke-width="0.0875"/>
<path d="M39.6164 20.5022C39.7193 20.5685 39.8017 20.662 39.8547 20.7723C39.9076 20.8826 39.929 21.0055 39.9164 21.1272C39.8914 21.4397 39.8164 21.5147 39.5664 21.6897M39.8664 21.2147C39.8539 21.4022 39.7789 21.5272 39.5789 21.6022" stroke="#703D29" stroke-width="0.0875" stroke-linecap="round"/>
<path d="M34.8773 19.6775L34.9648 19.74L35.0648 19.84L35.1273 19.965L35.1523 20.065V20.3025L35.1273 20.4025L35.0648 20.4775L34.9898 20.5525L34.8773 20.615L34.7523 20.64L34.6273 20.665L34.5023 20.6025L34.3898 20.5275L34.3273 20.4275L34.2773 20.3025V20.2525L34.8773 19.6775Z" fill="#C7B37F"/>
<path d="M34.6915 20.165C34.654 19.9525 34.4165 19.915 34.3165 20.04C34.179 20.2275 34.279 20.54 34.5665 20.6275C34.656 20.6456 34.7488 20.6389 34.8347 20.6081C34.9206 20.5772 34.9965 20.5234 35.054 20.4525C35.179 20.29 35.1665 20.1025 35.1165 19.9525C35.0765 19.8407 35.0021 19.7444 34.904 19.6775C34.5665 19.4275 34.0165 19.4775 33.829 19.9275C33.604 20.4775 34.104 20.9025 34.579 21.215C35.154 21.615 35.829 21.69 36.329 21.69C37.479 21.6775 38.354 21.1275 38.9165 20.815C39.0415 20.74 39.179 20.7525 39.254 20.84C39.2914 20.8907 39.3083 20.9535 39.3014 21.0161C39.2944 21.0787 39.2641 21.1363 39.2165 21.1775" stroke="#703D29" stroke-width="0.0875" stroke-linecap="round"/>
<path d="M31.2906 35.6648L31.0406 35.7523L30.7906 35.9523L30.6656 36.1148L30.5281 36.3648L30.4656 36.5523L30.4156 36.7773L30.3906 36.9523M32.7656 35.6898L32.7531 35.9148L32.7156 36.0648L32.5906 36.3398L32.4281 36.5648L32.2406 36.7148L32.1031 36.7773L31.9031 36.8273" stroke="#703D29" stroke-width="0.0875"/>
<path d="M40.2531 41.6523C40.2156 41.8648 40.0156 42.1023 39.5906 42.1773L39.5156 42.2023" stroke="#703D29" stroke-width="0.1"/>
<path d="M50.8141 35.0398C51.0404 35.2579 51.2194 35.5203 51.3398 35.8106C51.4603 36.101 51.5196 36.413 51.5141 36.7273C51.5141 37.1773 51.3891 37.6648 51.2641 37.9023C51.1641 38.1148 50.8891 39.0273 49.3516 39.6523C48.3167 39.9815 47.2375 40.1501 46.1516 40.1523C44.8641 40.1898 43.6766 40.2398 42.9766 41.0648" stroke="#703D29" stroke-width="0.1125"/>
<path d="M48.7266 35.8775C48.8266 35.7525 49.1641 35.5775 49.4516 35.74C49.5667 35.7981 49.6655 35.884 49.7391 35.99" stroke="#703D29" stroke-width="0.075"/>
<path d="M50.4883 34.74L50.6633 34.8025C50.8264 34.8511 51.0002 34.8511 51.1633 34.8025C51.5133 34.7025 51.7383 34.3775 51.5633 33.94C51.5097 33.8362 51.4327 33.7463 51.3383 33.6775" stroke="#703D29" stroke-width="0.1125"/>
<path d="M30.3273 25.4899C30.0773 25.6274 29.9148 25.6649 29.7273 25.8774C29.5826 26.1454 29.4734 26.4312 29.4023 26.7274M35.1523 20.2649C35.1523 20.4899 35.0023 20.6149 34.7773 20.6649" stroke="#703D29" stroke-width="0.0875" stroke-linecap="round"/>
<path d="M49.9258 24.5149C50.242 24.5213 50.5538 24.5908 50.8429 24.7193C51.1319 24.8478 51.3923 25.0328 51.6089 25.2633C51.8255 25.4939 51.9938 25.7653 52.1041 26.0618C52.2143 26.3583 52.2642 26.6739 52.2508 26.9899C52.2508 28.9899 51.0133 29.3024 50.5258 29.4399" stroke="#703D29" stroke-width="0.075"/>
<path d="M50.0898 24.515C51.1023 24.4775 52.1523 25.2275 52.2023 27.1025C52.2398 28.565 51.2023 29.2275 50.7023 29.3525" stroke="#703D29" stroke-width="0.0875"/>
<path d="M49.5133 31.5648L49.5258 31.3648L49.6008 31.0523L49.6883 30.8023L49.8008 30.6023L49.9258 30.4398M50.9008 30.0148V30.2023L50.8383 30.3273L50.7508 30.4648L50.6508 30.5398L50.5008 30.6023H50.3633L50.2633 30.5898M48.4758 23.9898L48.5133 23.7773L48.6133 23.5773L48.7383 23.3898L48.9383 23.1148L49.1133 22.9398L49.3633 22.6648L49.6133 22.4273L49.7508 22.2648L49.9383 22.0273L50.1133 21.7773L50.2133 21.5648L50.2758 21.2898L50.2883 20.9523L50.2633 20.8523M48.7258 36.8773L48.9258 36.8273L49.0758 36.7523L49.1633 36.6648L49.2258 36.5648L49.2633 36.4148V36.3023M29.4883 34.7898H29.8258L30.0258 34.7148M30.6508 30.1523L30.6258 30.3273L30.5758 30.4023L30.5258 30.4773L30.4383 30.5398L30.3508 30.5773L30.2258 30.5898H30.1508M31.3883 28.6523L31.3508 28.9148L31.2883 29.0398L31.1883 29.1898L31.0383 29.3023L30.8883 29.3773L30.6008 29.4398M32.5133 24.4773L32.4508 24.6398L32.3883 24.7648L32.2883 24.8898L32.1633 25.0148L32.0133 25.0773L31.8758 25.1148L31.8008 25.1023M31.8383 24.3273V24.4523" stroke="#703D29" stroke-width="0.075"/>
<path d="M32.0789 28.5149C32.0029 28.5889 31.9139 28.6482 31.8164 28.6899M50.6289 34.2899L50.6914 34.3149C50.8664 34.4149 51.2164 34.2899 51.1164 34.0149" stroke="#703D29" stroke-width="0.075" stroke-linecap="round"/>
<path d="M50.0164 30.4649C50.1414 30.6274 50.3789 30.6774 50.5664 30.6274C50.6329 30.6095 50.695 30.5781 50.7488 30.5351C50.8025 30.4921 50.8468 30.4384 50.8789 30.3774C50.9539 30.2524 50.9789 30.0774 50.9289 29.9149C50.9043 29.8418 50.8662 29.7739 50.8164 29.7149C50.7717 29.6448 50.717 29.5817 50.6539 29.5274L50.6039 29.5024M51.4039 33.7524C51.4106 33.7237 51.4148 33.6944 51.4164 33.6649C51.4173 33.5945 51.4032 33.5247 51.3752 33.4601C51.3472 33.3955 51.3059 33.3375 51.2539 33.2899L51.1539 33.1899M51.2039 33.2524C51.2039 33.0274 51.0164 32.8524 50.7789 32.8149M50.2539 33.1649L50.0914 33.0399C49.7491 32.6784 49.5569 32.2003 49.5539 31.7024C49.5539 31.1774 49.7539 30.6524 50.0039 30.4524M42.9414 41.0149L43.1664 40.8149L43.3164 40.6899L43.6039 40.5149L43.8789 40.3899L44.0789 40.3274L44.4539 40.2524L44.9039 40.1774M41.2164 42.6024C40.9809 42.9439 40.6507 43.2089 40.2664 43.3649C39.8846 43.2047 39.5555 42.9405 39.3164 42.6024" stroke="#703D29" stroke-width="0.075"/>
<path d="M39.5914 42.0898C39.5431 42.2844 39.4488 42.4644 39.3164 42.6148" stroke="#703D29" stroke-width="0.075" stroke-linecap="round"/>
<path d="M39.6281 41.8274L39.5781 42.1024M39.2906 42.6399L39.1656 42.7649L38.9531 42.8774L38.7031 42.9524M38.0031 20.7274C38.0406 20.6274 38.0656 20.5524 38.0656 20.4024C38.0531 19.8774 37.6656 19.6399 37.5031 19.1524M37.5031 19.1524C37.4156 18.8649 37.3781 18.6149 37.5906 18.4024C37.7656 18.2274 37.9906 18.2274 38.2156 18.3274C38.7156 18.5149 39.2906 19.0524 40.3031 19.0774C39.2906 19.0524 38.7031 18.5149 38.2281 18.3274C37.9781 18.2274 37.7531 18.2024 37.5656 18.3899C37.3531 18.5899 37.4156 18.8649 37.5031 19.1524ZM37.5031 19.1524C37.6656 19.6399 38.0281 19.8774 38.0406 20.4024C38.0406 20.5524 38.0031 20.6274 37.9781 20.7274M40.2906 19.0149C41.2906 18.9649 42.1531 18.2899 42.4281 18.2274C42.6781 18.1774 42.8031 18.2024 42.9906 18.3649C42.8156 18.2024 42.6156 18.2149 42.3656 18.3024C41.8906 18.4899 41.3156 19.0274 40.2906 19.0524M50.2406 33.1649C50 32.9844 49.8047 32.7504 49.6702 32.4814C49.5357 32.2124 49.4656 31.9157 49.4656 31.6149C49.4656 31.1024 49.6781 30.5649 49.9156 30.3649M41.1656 42.5649C41.0031 42.8149 40.6281 43.1899 40.2156 43.3399C39.8323 43.1762 39.503 42.9076 39.2656 42.5649" stroke="#703D29" stroke-width="0.075"/>
<path d="M38.6289 20.9774L38.9164 20.8149C39.0414 20.7399 39.2039 20.7524 39.2789 20.8399C39.3539 20.9274 39.3664 21.0899 39.2539 21.1899" stroke="#703D29" stroke-width="0.075" stroke-linecap="round"/>
<path d="M37.1258 21.6774C37.8133 21.5274 38.3758 21.2274 38.8008 20.9899M42.8258 41.5149C42.8883 41.5524 42.9258 41.6399 42.9258 41.6399C42.9383 41.6649 42.9633 41.7024 42.9633 41.7399C43.0008 41.9274 42.8758 42.0399 42.7133 42.0649C42.5008 42.0899 42.3383 41.9649 42.2758 41.8149M37.0883 21.6399C37.7758 21.5024 38.3383 21.1899 38.7633 20.9524M50.9633 34.3149C50.8383 34.3649 50.7633 34.3524 50.5883 34.2899L50.3633 34.1649C49.9073 33.9051 49.5411 33.5127 49.3133 33.0399C49.2176 32.8583 49.1462 32.665 49.1008 32.4649C49.0608 32.331 49.0398 32.1921 49.0383 32.0524C49.0247 31.3685 49.2306 30.6982 49.6258 30.1399C49.7633 29.9399 49.8883 29.8274 50.1508 29.8149M32.1883 24.9024C32.2956 24.9871 32.3819 25.0955 32.4405 25.2191C32.499 25.3427 32.5282 25.4782 32.5258 25.6149C32.5258 26.0024 32.2008 26.6399 31.4008 26.8649C31.1354 26.9373 30.8521 26.9013 30.6133 26.7649" stroke="#703D29" stroke-width="0.075"/>
<path d="M32.3273 26.2148C32.4648 26.3148 32.5273 26.4273 32.5273 26.6273C32.5273 26.7523 32.4398 26.9273 32.2898 27.0898C32.1493 27.2426 31.9795 27.3656 31.7906 27.4514C31.6016 27.5373 31.3973 27.5844 31.1898 27.5898C30.9398 27.5898 30.6898 27.5398 30.4398 27.3773C30.2017 27.2206 30.0319 26.9794 29.9648 26.7023" stroke="#703D29" stroke-width="0.075"/>
<path d="M32.3141 27.0524C32.4766 27.2024 32.5266 27.3899 32.5266 27.6274C32.5266 27.9649 32.3891 28.2274 32.0641 28.5024C31.9891 28.5774 31.9141 28.6274 31.8141 28.6899M48.0016 25.9274V26.3649M47.9641 25.8149V26.4399M48.0016 24.4649V25.2899M47.9641 24.2899V25.4024M47.7266 35.6524C47.5972 35.9167 47.4191 36.1542 47.2016 36.3524C46.9931 36.5659 46.7474 36.7396 46.4766 36.8649C46.216 36.9952 45.9382 37.0878 45.6516 37.1399C45.3729 37.2068 45.088 37.2445 44.8016 37.2524C44.4891 37.2524 44.3141 37.2524 44.0016 37.2274C43.6766 37.2024 43.5016 37.1524 43.1641 37.1274C42.8891 37.1024 42.7391 37.0774 42.4641 37.0899C41.9953 37.073 41.5279 37.1495 41.0891 37.3149C40.7641 37.4399 40.3766 37.6899 40.3016 37.7899C40.0638 37.5873 39.7933 37.4266 39.5016 37.3149C39.2969 37.2311 39.0828 37.1724 38.8641 37.1399C38.5766 37.0899 38.4266 37.0899 38.1391 37.0899C37.8641 37.0899 37.7141 37.1024 37.4391 37.1274C37.1141 37.1649 36.9391 37.2024 36.6016 37.2274C36.2891 37.2524 36.1141 37.2649 35.8016 37.2524C35.2231 37.2462 34.6524 37.1184 34.1266 36.8774C33.8213 36.7348 33.5489 36.5305 33.3266 36.2774M38.5891 42.9524L38.8141 42.9274M42.6016 42.6274L42.8266 42.6149L43.0391 42.5274L43.1891 42.4274L43.4016 42.1774L43.4391 42.1024L43.4766 41.8899V41.7899M49.3516 24.7024C49.4391 24.3774 49.3266 24.0274 49.0016 24.0399M32.5016 29.8524C32.4331 30.0954 32.2773 30.3046 32.0641 30.4399M32.5141 24.6024C32.4791 24.713 32.4209 24.8149 32.3432 24.9011C32.2656 24.9874 32.1704 25.056 32.0641 25.1024C31.8266 25.2024 31.5641 25.1024 31.4141 25.0024" stroke="#703D29" stroke-width="0.075"/>
<path d="M30.7656 25.815C30.9531 25.915 31.1531 25.765 31.1156 25.515C31.0981 25.4426 31.0587 25.3774 31.0028 25.3282C30.9469 25.279 30.8772 25.2482 30.8031 25.24" stroke="#703D29" stroke-width="0.075" stroke-linecap="round"/>
<path d="M31.5662 36.34C31.6037 36.3775 31.6162 36.4275 31.6662 36.44C31.7537 36.465 31.8162 36.49 31.9037 36.3775C32.0037 36.24 31.9412 36.0275 31.8412 35.89C31.7491 35.7952 31.6293 35.732 31.4991 35.7095C31.3688 35.6871 31.2347 35.7065 31.1162 35.765C31.0162 35.8275 30.9037 35.89 30.7912 36.04L30.6537 36.24C30.5662 36.3775 30.5287 36.49 30.5162 36.54C30.2662 37.2775 30.5662 38.04 31.0287 38.5025" stroke="#703D29" stroke-width="0.075"/>
<path d="M42.8156 41.49L42.9031 41.59L42.9281 41.7025C42.9656 41.89 42.8406 42.0025 42.6781 42.0275C42.4781 42.0525 42.3281 41.9275 42.2656 41.7775" stroke="#703D29" stroke-width="0.075" stroke-linecap="round"/>
<path d="M48.9664 19.865C49.1788 19.8967 49.3736 20.0014 49.5173 20.161C49.661 20.3207 49.7447 20.5254 49.7539 20.74C49.7539 21.29 49.5664 21.49 49.2789 21.89C48.9664 22.315 47.9414 23.09 47.9414 23.9775C47.9414 24.515 48.0914 24.8525 48.4789 25.0275C48.7289 25.1525 49.0164 25.0275 49.1539 24.9025C49.4789 24.6025 49.3414 24.09 49.0039 24.0275C48.6039 23.9525 48.5164 24.6025 48.9164 24.565M51.1539 33.19C51.1337 33.0851 51.0779 32.9905 50.9958 32.9222C50.9138 32.8538 50.8107 32.8159 50.7039 32.815C50.5812 32.815 50.4636 32.8637 50.3769 32.9505C50.2901 33.0372 50.2414 33.1548 50.2414 33.2775C50.2414 33.4025 50.2914 33.5275 50.3664 33.6025" stroke="#703D29" stroke-width="0.075"/>
<path d="M48.2774 24.9023C48.17 24.9871 48.0837 25.0955 48.0251 25.2191C47.9666 25.3427 47.9374 25.4781 47.9399 25.6148C47.9399 26.0023 48.2649 26.6398 49.0649 26.8648C49.3649 26.9523 49.6649 26.9398 49.8399 26.8273M30.3399 25.5398C30.0978 25.617 29.8873 25.7705 29.7399 25.9773C29.4421 26.4494 29.3432 27.0201 29.4649 27.5648C29.5147 27.8145 29.6123 28.0522 29.7524 28.2648C29.789 28.3188 29.8309 28.369 29.8774 28.4148L30.0274 28.5398M38.0274 40.0398C38.6399 40.3023 39.0774 40.5023 39.4524 41.1023C39.5539 41.2903 39.6055 41.5012 39.6024 41.7148C39.6024 42.0523 39.4774 42.4273 39.1899 42.6648C39.0769 42.7649 38.9434 42.8392 38.7987 42.8823C38.6541 42.9255 38.5017 42.9366 38.3524 42.9148C38.1149 42.8898 37.8899 42.7148 37.8524 42.5898M32.0399 28.5273C32.3774 28.8023 32.5274 29.0523 32.5274 29.4648C32.5349 29.6515 32.4926 29.8367 32.4047 30.0015C32.3168 30.1663 32.1865 30.3047 32.0274 30.4023" stroke="#703D29" stroke-width="0.075"/>
<path d="M31.7266 30.0649C32.2266 30.7024 32.5141 31.0774 32.5266 31.8274C32.5391 32.5399 32.3141 33.0274 31.9016 33.5399" stroke="#703D29" stroke-width="0.075" stroke-linecap="round"/>
<path d="M41.5156 21.6773C41.607 21.6091 41.673 21.5123 41.7031 21.4023C41.7656 21.2148 41.7656 21.0523 41.6781 20.9023C41.8031 21.0773 41.8031 21.2148 41.7656 21.4023C41.7531 21.5273 41.6656 21.5898 41.5656 21.6898M48.0031 32.4523V34.4773L47.9906 34.7898C47.9799 34.861 47.9674 34.9318 47.9531 35.0023" stroke="#703D29" stroke-width="0.075"/>
<path d="M47.9656 32.2649V34.7524L47.9031 35.0774M47.9656 29.7024V31.5274M48.0031 29.8524V31.3274M48.0031 27.9774V29.0774M47.9656 27.8399V29.2149M48.0031 26.8399V27.2774M47.9656 26.7524V27.3774M47.7406 35.5274L47.6906 35.6149C47.5663 35.8827 47.3924 36.1244 47.1781 36.3274C46.9649 36.5378 46.715 36.7073 46.4406 36.8274C46.184 36.9566 45.9105 37.0492 45.6281 37.1024C45.2906 37.1774 45.1031 37.2024 44.7656 37.2149C44.4531 37.2149 44.2781 37.2149 43.9781 37.1899C43.6406 37.1649 43.4656 37.1274 43.1281 37.0899C42.8531 37.0649 42.7031 37.0524 42.4281 37.0524C42.1531 37.0524 41.9906 37.0524 41.7156 37.1024C41.4926 37.1339 41.2743 37.1927 41.0656 37.2774C40.7281 37.4149 40.3531 37.6524 40.2656 37.7524C40.1906 37.6524 39.8031 37.4149 39.4781 37.2774C39.2694 37.1927 39.0511 37.1339 38.8281 37.1024C38.5531 37.0524 38.3906 37.0524 38.1031 37.0524C37.8281 37.0524 37.6781 37.0649 37.4031 37.0899C37.0781 37.1274 36.9031 37.1649 36.5656 37.1899C36.2531 37.2149 36.0781 37.2274 35.7781 37.2149C35.1955 37.2105 34.6203 37.0827 34.0906 36.8399C33.8196 36.7149 33.5739 36.5412 33.3656 36.3274C33.2517 36.2199 33.1471 36.1028 33.0531 35.9774M32.8031 35.5774C32.8236 35.749 32.8087 35.923 32.7592 36.0885C32.7098 36.2541 32.6269 36.4077 32.5156 36.5399C32.4156 36.6524 32.1906 36.8649 31.8906 36.8649C31.4281 36.8649 31.2906 36.5524 31.2656 36.4649" stroke="#703D29" stroke-width="0.075"/>
<path d="M32.2406 35.3774C32.3281 35.4649 32.4031 35.5649 32.4781 35.6899C32.6031 35.9149 32.5531 36.2899 32.4656 36.4649C32.4541 36.4823 32.4416 36.499 32.4281 36.5149M29.8906 38.7649C30.1781 39.0649 30.6031 39.3899 31.2531 39.6524C32.1406 40.0274 33.5156 40.1024 34.4656 40.1524C35.7156 40.1899 36.8781 40.2399 37.5906 41.0274M39.7531 40.5274C39.9826 40.7036 40.1562 40.9424 40.2531 41.2149M39.3406 42.6524C39.3132 42.6833 39.284 42.7126 39.2531 42.7399C39.1416 42.8383 39.0102 42.9115 38.8678 42.9547C38.7255 42.9978 38.5755 43.0098 38.4281 42.9899C38.1781 42.9649 37.9531 42.7899 37.8906 42.6649M37.2156 42.3024L37.2531 42.3524C37.4193 42.5305 37.6475 42.6379 37.8906 42.6524M41.2656 42.6524C41.0217 42.9909 40.6884 43.2549 40.3031 43.4149C39.9213 43.2547 39.5922 42.9905 39.3531 42.6524L39.3156 42.5899M41.2656 42.6399L41.3531 42.7274C41.4661 42.8275 41.5996 42.9018 41.7443 42.9449C41.8889 42.9881 42.0412 42.9992 42.1906 42.9774C42.2919 42.9657 42.3893 42.9316 42.4758 42.8775C42.5623 42.8235 42.6357 42.7509 42.6906 42.6649L42.7531 42.5774" stroke="#703D29" stroke-width="0.075"/>
<path d="M42.6648 42.5898L42.5773 42.7398L42.4398 42.8648L42.2273 42.9523H42.0273" stroke="#703D29" stroke-width="0.075"/>
<path d="M43.1633 41.1774C43.2917 41.2715 43.3948 41.3961 43.4633 41.5399C43.5008 41.6274 43.5133 41.7274 43.5258 41.8274C43.5307 41.9229 43.5167 42.0185 43.4845 42.1086C43.4523 42.1987 43.4026 42.2816 43.3383 42.3524C43.2519 42.4455 43.1476 42.5201 43.0316 42.5717C42.9155 42.6232 42.7902 42.6507 42.6633 42.6524C42.6466 42.653 42.6299 42.653 42.6133 42.6524M42.6383 42.6274C42.5166 42.6308 42.3955 42.608 42.2834 42.5605C42.1712 42.5131 42.0706 42.4421 41.9883 42.3524M49.9508 33.8649C49.7071 33.634 49.5042 33.3635 49.3508 33.0649C49.2562 32.8873 49.1847 32.6982 49.1383 32.5024C49.0983 32.3685 49.0773 32.2296 49.0758 32.0899C49.062 31.4078 49.2631 30.7387 49.6508 30.1774C49.7383 30.0774 49.8258 29.9524 49.9133 29.9024M49.7508 20.4149C50.0633 20.4399 50.3508 20.7899 50.3508 21.1274C50.3508 21.6024 50.1883 21.8149 49.8008 22.2899C49.4758 22.6899 48.4758 23.4149 48.5133 24.1024C48.5133 24.2274 48.5758 24.3524 48.6508 24.4524M48.2508 24.8899C48.3232 24.9624 48.4078 25.0217 48.5008 25.0649C48.5875 25.0991 48.6808 25.1135 48.7738 25.107C48.8668 25.1005 48.9572 25.0733 49.0383 25.0274M46.4133 19.6399C46.5344 19.7194 46.6299 19.8323 46.6883 19.9649C46.9133 20.5274 46.4133 20.9524 45.9383 21.2649C45.6255 21.4742 45.2719 21.6148 44.9008 21.6774" stroke="#703D29" stroke-width="0.075"/>
<path d="M45.8656 20.7149C45.7915 20.7128 45.7186 20.695 45.6518 20.6627C45.585 20.6304 45.5258 20.5843 45.4781 20.5274C45.4417 20.4913 45.412 20.449 45.3906 20.4024M43.5156 21.0149C43.4589 20.9821 43.4081 20.9398 43.3656 20.8899C43.2406 20.7649 43.1781 20.6024 43.2656 20.3399C43.3406 20.1024 43.7281 19.4399 43.7406 18.9774C43.7656 18.2774 43.4906 17.8524 43.0781 17.7024" stroke="#703D29" stroke-width="0.075"/>
<path d="M43.7039 18.8274L43.6914 19.0774L43.6164 19.3524L43.4914 19.7274L43.3664 19.9649L43.2664 20.2024L43.2164 20.3649L43.1914 20.4899L43.2039 20.6024M47.9539 36.3899L48.0289 36.4899C48.1164 36.6149 48.4289 36.8649 48.7164 36.8649C49.1789 36.8649 49.2914 36.5399 49.3039 36.4649C49.3664 36.1024 49.2414 36.0149 49.0539 35.9024C49.0539 35.9024 48.9539 35.8524 48.8164 35.8774" stroke="#703D29" stroke-width="0.075" stroke-linecap="round"/>
<path d="M29.9133 34.815C29.762 34.8571 29.6021 34.8571 29.4508 34.815C29.0883 34.7025 28.8008 34.365 28.9508 33.94M30.6258 29.965C30.6633 30.0025 30.6758 30.0525 30.6758 30.09C30.7258 30.565 30.3258 30.69 30.0508 30.615C29.8962 30.5655 29.7637 30.4639 29.6758 30.3275C29.6222 30.2409 29.592 30.1418 29.5883 30.04M32.3383 27.09C32.4133 27.1525 32.4633 27.215 32.5008 27.3025M32.3633 26.24C32.4258 26.29 32.4758 26.3525 32.5008 26.4025" stroke="#703D29" stroke-width="0.075"/>
<path d="M32.5266 26.8273C32.4775 26.938 32.4098 27.0395 32.3266 27.1273C32.186 27.2801 32.0162 27.4031 31.8273 27.4889C31.6383 27.5748 31.4341 27.6219 31.2266 27.6273C30.9766 27.6273 30.7266 27.5773 30.4766 27.4148C30.2283 27.2522 30.0499 27.0025 29.9766 26.7148" stroke="#703D29" stroke-width="0.075" stroke-linecap="round"/>
<path d="M32.2148 24.9275C32.3515 25.0394 32.4552 25.1863 32.5148 25.3525" stroke="#703D29" stroke-width="0.075"/>
<path d="M32.5133 25.9148C32.4008 26.2898 32.0758 26.7398 31.4383 26.9023C31.1383 26.9773 30.7383 26.8773 30.6133 26.7773" stroke="#703D29" stroke-width="0.075" stroke-linecap="round"/>
<path d="M30.2891 25.8398C30.3266 26.1648 30.5391 26.4148 30.9641 26.4148C31.5516 26.4273 31.9141 25.5773 31.3891 24.9773" stroke="#703D29" stroke-width="0.075"/>
<path d="M28.9648 28.7025C29.0523 28.815 29.1523 28.915 29.2648 29.0025C29.4839 29.19 29.7392 29.3304 30.0148 29.415M30.6648 29.4775C31.1898 29.415 31.4898 29.015 31.4148 28.565C31.3773 28.215 31.0648 27.94 30.8398 27.9275" stroke="#703D29" stroke-width="0.075" stroke-linecap="round"/>
<path d="M31.5156 24.0273C31.7531 24.0273 31.8906 24.2273 31.8781 24.4023" stroke="#703D29" stroke-width="0.075"/>
<path d="M31.4648 20.8899C31.5818 21.2005 31.8026 21.4611 32.0898 21.6274M50.1148 25.5024C50.3273 25.7899 50.1898 26.3774 49.6148 26.3774C49.502 26.3786 49.3908 26.3504 49.2922 26.2956C49.1936 26.2408 49.1109 26.1613 49.0523 26.0649" stroke="#703D29" stroke-width="0.075" stroke-linecap="round"/>
<path d="M48.0039 21.6523V23.6398" stroke="#703D29" stroke-width="0.075"/>
<path d="M30.7649 25.8023C30.9399 25.9273 31.1774 25.7148 31.0774 25.4773C31.0149 25.3273 30.8024 25.1523 30.4899 25.3648C30.1399 25.6023 30.2399 26.3398 30.8899 26.3523C31.4774 26.3523 31.8399 25.5023 31.3149 24.9023C30.8149 24.3273 29.9024 24.4523 29.3149 24.9273C28.8623 25.3027 28.546 25.8167 28.4149 26.3898C28.3357 26.7691 28.3357 27.1606 28.4149 27.5398C28.4777 27.8737 28.6051 28.1922 28.7899 28.4773L28.9524 28.6898C29.0524 28.7898 29.0774 28.8398 29.2024 28.9398C29.5612 29.2536 30.026 29.419 30.5024 29.4023C31.0774 29.3773 31.4149 28.9773 31.3524 28.4898C31.3024 28.0148 30.8274 27.7773 30.5149 28.0023C30.3024 28.1523 30.2274 28.6148 30.6024 28.7273C30.8024 28.7898 30.9899 28.5148 30.8524 28.3523M47.0399 19.3773C47.3774 19.2023 47.6399 19.2273 47.8274 19.5023C48.0075 19.7654 48.0791 20.0878 48.0274 20.4023C47.9791 20.6908 47.8226 20.9501 47.5899 21.1273" stroke="#703D29" stroke-width="0.075" stroke-linecap="round"/>
<path d="M47.8516 19.515C48.2391 19.265 48.6641 19.3775 48.8891 19.715C49.0516 19.965 49.1016 20.165 49.0891 20.4775C49.0771 20.7138 49.0055 20.9432 48.8809 21.1443C48.7563 21.3454 48.5828 21.5116 48.3766 21.6275" stroke="#703D29" stroke-width="0.075" stroke-linecap="round"/>
<path d="M49.663 20.4148C49.988 20.4398 50.238 20.7273 50.238 21.0523C50.238 21.5273 50.113 21.7398 49.738 22.2148C49.4005 22.6273 48.413 23.3398 48.438 24.0398C48.438 24.3023 48.663 24.5398 48.8505 24.5648" stroke="#703D29" stroke-width="0.075"/>
<path d="M49.7135 25.8023C49.526 25.9273 49.301 25.7273 49.401 25.5023C49.4635 25.3523 49.676 25.1523 49.9885 25.3648C50.326 25.6023 50.2385 26.3398 49.576 26.3523C48.9885 26.3523 48.576 25.5273 49.151 24.9023C49.651 24.3273 50.6135 24.4398 51.2135 24.9148C51.4635 25.1148 51.976 25.6648 52.0885 26.4148C52.2135 27.2898 52.201 28.3648 51.2885 29.0398C50.9135 29.3023 50.4135 29.4273 49.9635 29.4148C49.3885 29.3898 49.051 28.9773 49.1135 28.4898C49.176 28.0148 49.6135 27.8148 49.951 28.0023C50.301 28.1898 50.2385 28.6773 49.8635 28.7273C49.651 28.7523 49.476 28.5148 49.6135 28.3523" stroke="#703D29" stroke-width="0.075" stroke-linecap="round"/>
<path d="M49.4023 25.5023C49.5023 25.0648 49.8648 25.0273 50.1773 25.0273C50.9898 25.0398 51.5648 26.0273 51.5773 26.9648C51.5773 28.1523 51.0773 28.8648 50.2023 28.9023C49.9648 28.9023 49.5773 28.8023 49.5773 28.5273" stroke="#703D29" stroke-width="0.075"/>
<path d="M49.9156 25.3025C50.7781 25.5025 51.0781 26.2775 51.0781 27.0275C51.0781 27.64 51.0156 28.4775 49.8281 28.765" stroke="#703D29" stroke-width="0.075" stroke-linecap="square"/>
<path d="M51.3396 33.6775C51.3535 33.5929 51.3449 33.5061 51.3146 33.426C51.2843 33.3458 51.2334 33.275 51.167 33.2208C51.1006 33.1666 51.0211 33.1308 50.9365 33.1171C50.8519 33.1034 50.7651 33.1123 50.685 33.1428C50.6049 33.1733 50.5343 33.2244 50.4803 33.2909C50.4262 33.3574 50.3906 33.437 50.3772 33.5217C50.3637 33.6063 50.3728 33.693 50.4035 33.7731C50.4342 33.8531 50.4855 33.9236 50.5521 33.9775" stroke="#703D29" stroke-width="0.075"/>
<path d="M49.589 32.9399C49.764 33.1899 49.964 33.4524 50.3765 33.6899M50.214 35.0024C49.814 34.7274 49.0265 34.3774 48.339 34.7274C48.2137 34.7751 48.0999 34.8488 48.0051 34.9436C47.9103 35.0384 47.8367 35.1522 47.789 35.2774C47.723 35.4783 47.7091 35.6925 47.7484 35.9002C47.7878 36.1079 47.8791 36.3022 48.014 36.4649C48.1265 36.5899 48.3515 36.7899 48.639 36.8024C49.114 36.8024 49.2265 36.4774 49.239 36.4024C49.289 36.0524 49.089 35.9149 48.989 35.8899C48.9015 35.8524 48.639 35.8649 48.589 36.0524C48.564 36.1149 48.564 36.2149 48.614 36.3024" stroke="#703D29" stroke-width="0.075" stroke-linecap="round"/>
<path d="M42.8516 41.5649C42.9766 41.8399 42.8266 41.9649 42.6516 41.9899C42.3766 42.0274 42.2391 41.8149 42.2266 41.6149C42.2215 41.5406 42.2315 41.4661 42.2561 41.3958C42.2806 41.3255 42.3192 41.261 42.3695 41.206C42.4197 41.1511 42.4806 41.107 42.5484 41.0763C42.6163 41.0456 42.6896 41.0289 42.7641 41.0274C43.0516 41.0274 43.2766 41.2149 43.3891 41.4649C43.4266 41.5524 43.4516 41.6524 43.4516 41.7649C43.4616 41.9519 43.3989 42.1356 43.2766 42.2774C43.1913 42.3728 43.0875 42.4497 42.9714 42.5035C42.8553 42.5572 42.7294 42.5866 42.6016 42.5899C42.0766 42.6024 41.6641 42.1149 41.6641 41.6149C41.6641 40.6524 43.0891 40.1149 43.6641 39.9899C44.3969 39.8098 45.1471 39.7092 45.9016 39.6899C46.3391 39.6774 46.6766 39.6899 47.1641 39.6274C47.6016 39.5899 47.8391 39.5649 48.2891 39.4649C48.8754 39.3417 49.4187 39.0657 49.8641 38.6649C50.2266 38.3274 50.4266 38.1024 50.6016 37.6399C50.699 37.3553 50.7349 37.0532 50.7069 36.7537C50.6789 36.4542 50.5876 36.164 50.4391 35.9024C50.3016 35.6736 50.1145 35.4785 49.8917 35.3314C49.6689 35.1843 49.416 35.089 49.1516 35.0524C48.6891 34.9899 48.2766 35.1899 48.0266 35.6524C47.9016 35.8774 47.9516 36.2524 48.0391 36.4274C48.1005 36.5345 48.1874 36.6247 48.2921 36.6901C48.3967 36.7555 48.5159 36.7941 48.6391 36.8024C49.1141 36.8024 49.2266 36.4774 49.2391 36.4024C49.2891 36.0524 49.0891 35.9149 48.9891 35.8774C48.9016 35.8524 48.6391 35.8649 48.5891 36.0524C48.5641 36.1149 48.5641 36.2149 48.6141 36.3024" stroke="#703D29" stroke-width="0.075" stroke-linecap="round"/>
<path d="M42.4385 40.0398C41.8385 40.3023 41.3885 40.5023 41.0135 41.1023C40.9114 41.2901 40.8597 41.5011 40.8635 41.7148C40.8635 42.0523 41.001 42.4273 41.276 42.6648C41.389 42.7649 41.5225 42.8391 41.6671 42.8823C41.8118 42.9255 41.9641 42.9366 42.1135 42.9148C42.3635 42.8898 42.576 42.7148 42.6135 42.5898" stroke="#703D29" stroke-width="0.075" stroke-linecap="round"/>
<path d="M48.4259 28.5273C48.1384 28.6273 47.9384 29.0523 47.9384 29.4648C47.9308 29.6515 47.9731 29.8367 48.061 30.0015C48.1489 30.1663 48.2792 30.3047 48.4384 30.4023" stroke="#703D29" stroke-width="0.075"/>
<path d="M48.7414 30.0649C48.2414 30.7024 47.9539 31.0774 47.9414 31.8274C47.9414 32.5399 48.1539 33.0274 48.5789 33.5399" stroke="#703D29" stroke-width="0.075" stroke-linecap="round"/>
<path d="M46.0273 19.515L46.0648 19.4525C46.2773 19.1525 46.6523 19.065 46.9273 19.265C47.2523 19.515 47.3398 19.94 47.2523 20.39C47.1898 20.665 47.0023 20.9025 46.7523 21.0775" stroke="#703D29" stroke-width="0.075"/>
<path d="M33.4276 19.3648C33.1026 19.2148 32.8401 19.2398 32.6401 19.4898C32.5428 19.616 32.4745 19.762 32.44 19.9175C32.4054 20.0731 32.4054 20.2343 32.4401 20.3898C32.5151 20.7273 32.6151 20.8648 32.8776 21.1148" stroke="#703D29" stroke-width="0.075" stroke-linecap="round"/>
<path d="M32.614 19.5149C32.5338 19.4569 32.4425 19.416 32.3458 19.3946C32.2492 19.3732 32.1492 19.3718 32.052 19.3905C31.9548 19.4093 31.8624 19.4477 31.7807 19.5035C31.6989 19.5593 31.6294 19.6312 31.5765 19.7149C31.4211 19.9371 31.3501 20.2075 31.3765 20.4774C31.4015 21.0024 31.7265 21.4274 32.1015 21.6274" stroke="#703D29" stroke-width="0.075"/>
<path d="M31.5039 19.865C31.3005 19.889 31.1125 19.9858 30.9747 20.1373C30.8369 20.2889 30.7585 20.4852 30.7539 20.69C30.7539 21.2525 30.8789 21.4775 31.1914 21.89C31.5039 22.315 32.5289 23.09 32.5289 23.9775C32.5289 24.515 32.3789 24.8525 31.9914 25.0275C31.7414 25.1525 31.4539 25.0275 31.3164 24.9025C30.9914 24.6025 31.1289 24.09 31.4664 24.0275C31.8789 23.9525 31.9539 24.6025 31.5539 24.565" stroke="#703D29" stroke-width="0.075"/>
<path d="M30.7891 20.4148C30.4766 20.4398 30.1641 20.7023 30.1641 21.0398C30.1641 21.5148 30.3516 21.7398 30.7391 22.2148C31.0641 22.6273 32.0016 23.3398 31.9766 24.0273C31.9766 24.2773 31.7891 24.6023 31.6141 24.5648" stroke="#703D29" stroke-width="0.075"/>
<path d="M30.0412 30.0273C30.2037 29.6648 30.5912 29.8273 30.6162 30.0273C30.6662 30.4898 30.2662 30.6273 29.9787 30.5523C29.9122 30.5344 29.8501 30.5029 29.7963 30.4599C29.7425 30.4169 29.6982 30.3632 29.6662 30.3023C29.6275 30.2324 29.6031 30.1555 29.5945 30.0761C29.5859 29.9967 29.5933 29.9163 29.6162 29.8398C29.6407 29.7666 29.6789 29.6988 29.7287 29.6398C29.7697 29.5816 29.8205 29.5309 29.8787 29.4898C30.0037 29.4148 30.1162 29.4148 30.3037 29.4148C30.9912 29.4148 31.6037 30.2273 31.8037 31.0898C31.8787 31.3648 31.9662 32.0023 31.8412 32.5898C31.7408 33.1207 31.489 33.6113 31.1162 34.0023C30.7597 34.3354 30.3323 34.5833 29.8662 34.7273C29.7081 34.7776 29.5391 34.7819 29.3787 34.7398C29.0287 34.6273 28.8037 34.3023 28.9787 33.8648C29.1287 33.5398 29.6537 33.3648 29.8912 33.7898C29.9162 33.8273 29.9412 33.9023 29.9412 33.9773C29.9412 34.0898 29.8912 34.2273 29.8162 34.2773C29.6412 34.3898 29.3537 34.3523 29.3662 34.0273" stroke="#703D29" stroke-width="0.075" stroke-linecap="round"/>
<path d="M29.5131 34.3149C29.6381 34.3649 29.7131 34.3524 29.8756 34.2899L30.1006 34.1649C30.4256 33.9774 30.8006 33.6899 31.1506 33.0274C31.2452 32.8498 31.3166 32.6608 31.3631 32.4649C31.4006 32.3399 31.4256 32.1899 31.4381 32.0524C31.448 31.3671 31.2377 30.6967 30.8381 30.1399C30.7006 29.9399 30.5881 29.8274 30.3131 29.8149M29.1256 33.6899C29.1097 33.6053 29.1165 33.518 29.1452 33.4369C29.174 33.3558 29.2238 33.2837 29.2894 33.2281C29.3551 33.1724 29.4343 33.1351 29.519 33.12C29.6038 33.1048 29.691 33.1124 29.7719 33.1419C29.8527 33.1715 29.9243 33.2219 29.9794 33.288C30.0345 33.3542 30.071 33.4338 30.0854 33.5186C30.0997 33.6035 30.0913 33.6907 30.0611 33.7713C30.0308 33.8519 29.9797 33.923 29.9131 33.9774" stroke="#703D29" stroke-width="0.075"/>
<path d="M29.3164 33.19C29.337 33.0831 29.3947 32.9868 29.4793 32.9182C29.5639 32.8496 29.67 32.8131 29.7789 32.815C29.8994 32.8183 30.0138 32.8684 30.0979 32.9548C30.1819 33.0412 30.229 33.157 30.2289 33.2775C30.2299 33.3978 30.1852 33.5139 30.1039 33.6025" stroke="#703D29" stroke-width="0.075"/>
<path d="M30.2148 33.1774C30.4555 32.997 30.6508 32.763 30.7853 32.4939C30.9198 32.2249 30.9898 31.9282 30.9898 31.6274C30.9898 31.1149 30.7898 30.5774 30.5398 30.3774" stroke="#703D29" stroke-width="0.075"/>
<path d="M30.8773 32.9399C30.6867 33.2559 30.4147 33.5149 30.0898 33.6899" stroke="#703D29" stroke-width="0.075" stroke-linecap="round"/>
<path d="M32.1157 34.7273C31.9907 34.4523 31.7657 34.3273 31.3907 34.2898C31.0157 34.2523 30.7032 34.3523 30.3657 34.5273C29.9604 34.7145 29.6176 35.0145 29.3782 35.3913C29.1388 35.7681 29.0129 36.2059 29.0157 36.6523C29.0206 37.0607 29.1055 37.4641 29.2657 37.8398C29.3782 38.0398 29.6407 38.9648 31.1782 39.5898C32.2182 39.914 33.3013 40.0783 34.3907 40.0773C35.6907 40.1273 36.8907 40.1773 37.5907 41.0273" stroke="#703D29" stroke-width="0.075"/>
<path d="M30.2539 35.0025C30.6664 34.7275 31.4414 34.3775 32.1414 34.7275C32.2629 34.7792 32.3729 34.8544 32.4651 34.9488C32.5574 35.0432 32.63 35.1549 32.6789 35.2775C32.7449 35.4783 32.7588 35.6926 32.7195 35.9002C32.6801 36.1079 32.5888 36.3022 32.4539 36.465C32.3414 36.59 32.1164 36.79 31.8289 36.8025C31.3539 36.8025 31.2414 36.4775 31.2289 36.4025C31.1789 36.0525 31.3789 35.915 31.4789 35.8775C31.5664 35.8525 31.8289 35.865 31.8789 36.0525C31.9039 36.115 31.9039 36.215 31.8539 36.3025" stroke="#703D29" stroke-width="0.075" stroke-linecap="round"/>
<path d="M31.8762 36.2274C31.9137 36.1024 31.9012 35.9524 31.7762 35.8149C31.6812 35.7162 31.557 35.6508 31.4219 35.6283C31.2868 35.6058 31.1481 35.6274 31.0262 35.6899C30.9387 35.7524 30.8262 35.8149 30.7262 35.9649C30.6762 36.0149 30.6012 36.1024 30.5762 36.1649C30.4887 36.3024 30.4512 36.4149 30.4512 36.4774C30.1387 37.3524 30.6387 38.2774 31.2637 38.6774C31.8137 39.0274 32.3637 39.1274 33.0637 39.1774C33.3762 39.2149 33.5637 39.2149 33.8762 39.2399H35.0762C35.376 39.2244 35.6764 39.2244 35.9762 39.2399C36.3512 39.2774 36.6137 39.2899 36.9262 39.3399C37.1262 39.3649 37.3637 39.4024 37.6012 39.4649C37.6762 39.4649 37.7512 39.4899 37.8262 39.5149L37.9762 39.5524C38.4262 39.6899 38.8512 39.8524 39.2012 40.0774C39.3012 40.1399 39.4262 40.2024 39.5137 40.2899L39.6762 40.4399C39.9262 40.6899 40.1762 40.9399 40.2262 41.2774V41.4774C40.2262 41.7024 40.0512 42.0149 39.5637 42.1024" stroke="#703D29" stroke-width="0.075"/>
<path d="M37.6145 41.5649C37.4895 41.8399 37.6395 41.9649 37.8145 41.9899C38.0895 42.0274 38.227 41.8149 38.252 41.6149C38.2571 41.5396 38.2467 41.464 38.2214 41.3929C38.1961 41.3218 38.1564 41.2566 38.1048 41.2015C38.0532 41.1464 37.9908 41.1025 37.9215 41.0726C37.8522 41.0426 37.7775 41.0272 37.702 41.0274C37.5663 41.0305 37.4345 41.0737 37.3232 41.1515C37.212 41.2294 37.1263 41.3384 37.077 41.4649C37.0384 41.5604 37.0172 41.662 37.0145 41.7649C37.0044 41.9519 37.0671 42.1356 37.1895 42.2774C37.2747 42.3728 37.3786 42.4497 37.4947 42.5035C37.6108 42.5572 37.7366 42.5866 37.8645 42.5899C38.3895 42.6024 38.802 42.1149 38.802 41.6149C38.802 40.6524 37.377 40.1149 36.802 39.9899C36.0691 39.8098 35.3189 39.7092 34.5645 39.6899C34.127 39.6774 33.7895 39.6899 33.302 39.6274C32.8645 39.5899 32.627 39.5649 32.177 39.4649C31.5951 39.3396 31.0563 39.0638 30.6145 38.6649C30.1983 38.3568 29.909 37.9074 29.8008 37.401C29.6926 36.8946 29.7731 36.3662 30.027 35.9149C30.1631 35.6838 30.3495 35.4862 30.5724 35.3369C30.7953 35.1876 31.0489 35.0904 31.3145 35.0524C31.7895 34.9899 32.1895 35.1899 32.4395 35.6524C32.5645 35.8774 32.5145 36.2524 32.427 36.4274C32.3656 36.5345 32.2787 36.6247 32.174 36.6901C32.0693 36.7555 31.9501 36.7941 31.827 36.8024C31.352 36.8024 31.2395 36.4774 31.227 36.4024C31.177 36.0524 31.377 35.9149 31.477 35.8774C31.5645 35.8524 31.827 35.8649 31.877 36.0524C31.902 36.1149 31.902 36.2149 31.852 36.3024" stroke="#703D29" stroke-width="0.075"/>
<path d="M34.4516 19.515L34.4016 19.4525C34.1891 19.1525 33.8141 19.065 33.5391 19.265C33.2141 19.515 33.1266 19.94 33.2266 20.39C33.2969 20.6757 33.4764 20.9225 33.7266 21.0775" stroke="#703D29" stroke-width="0.075" stroke-linecap="round"/>
<path d="M46.1398 20.4649C45.6398 21.0149 45.1273 21.1899 44.3773 21.2149C44.1273 21.2149 43.6898 21.1399 43.4273 20.9524C43.2648 20.8274 43.0773 20.6274 43.1898 20.2649C43.2648 20.0274 43.6523 19.3649 43.6648 18.9024C43.7023 18.2024 43.4273 17.8149 43.0023 17.6649C42.2273 17.3899 41.3773 18.1649 40.8773 18.3399C40.6148 18.4274 40.4773 18.4399 40.2398 18.4399C39.9898 18.4399 39.8648 18.4274 39.5898 18.3399C39.0898 18.1649 38.2523 17.3899 37.4648 17.6649C37.0398 17.8149 36.7773 18.2024 36.8023 18.9149C36.8148 19.3649 37.2023 20.0399 37.2773 20.2649C37.4023 20.6274 37.2148 20.8274 37.0398 20.9524C36.7898 21.1399 36.3273 21.2149 36.1023 21.2024C35.3523 21.1899 34.8398 21.0149 34.3398 20.4649" stroke="#703D29" stroke-width="0.075"/>
<path d="M37.4531 39.8149C37.5531 39.8524 37.4781 39.7899 38.1156 40.0649C38.6978 40.267 39.1952 40.6588 39.5281 41.1774C39.6744 41.4581 39.7144 41.7822 39.6406 42.0899" stroke="#703D29" stroke-width="0.075" stroke-linecap="round"/>
<path d="M37.5039 42.5148C37.6279 42.5799 37.7642 42.6183 37.9039 42.6273C38.4289 42.6398 38.8414 42.1523 38.8414 41.6523C38.8414 41.3023 38.6539 41.0023 38.3914 40.7773" stroke="#703D29" stroke-width="0.075"/>
<path d="M37.6165 41.5649C37.4915 41.8524 37.6665 42.0024 37.8415 42.0274C38.1165 42.0524 38.2665 41.8524 38.2915 41.6524C38.2991 41.548 38.2774 41.4435 38.2288 41.3508C38.1802 41.258 38.1067 41.1807 38.0165 41.1274" stroke="#703D29" stroke-width="0.075" stroke-linecap="round"/>
<path d="M49.0531 19.865C49.4531 19.865 49.8031 20.315 49.8031 20.765C49.8031 21.3025 49.5281 21.6275 49.3156 21.865C49.1531 22.065 48.9781 22.24 48.7656 22.4525" stroke="#703D29" stroke-width="0.075"/>
<path d="M48.5766 19.44C48.7127 19.5148 48.8319 19.6169 48.9266 19.74C49.0891 19.99 49.1391 20.2025 49.1266 20.515C49.1016 21.04 48.7266 21.4025 48.3766 21.64M47.7891 19.44L47.8641 19.5275C48.1016 19.8025 48.1141 20.2025 48.0641 20.4275C48.036 20.5668 47.9793 20.6987 47.8975 20.8149C47.8157 20.9311 47.7107 21.029 47.5891 21.1025M46.9641 19.3025C47.2891 19.5525 47.3891 19.9775 47.2766 20.4275C47.2016 20.74 47.0016 20.9275 46.7516 21.0775M48.1391 26.215C48.1766 26.34 48.2516 26.3775 48.3266 26.465C48.5411 26.6775 48.8087 26.8286 49.1016 26.9025C49.4016 26.99 49.6766 26.9275 49.8891 26.79M29.5141 33.54C29.6641 33.54 29.8266 33.6525 29.9266 33.8275C29.9391 33.8525 29.9766 33.9275 29.9766 34.015C29.9766 34.1275 29.9266 34.24 29.8516 34.29C29.6641 34.415 29.3516 34.3525 29.3516 34.04" stroke="#703D29" stroke-width="0.075" stroke-linecap="round"/>
<path d="M30.4773 29.4275C31.1023 29.5525 31.6898 30.29 31.8773 31.09C31.9523 31.3775 32.0398 32.0025 31.9148 32.59C31.8098 33.1282 31.549 33.6237 31.1648 34.015C31.0843 34.1015 30.9965 34.181 30.9023 34.2525L30.7773 34.34M29.7773 32.8275C30.0273 32.8275 30.2523 33.065 30.2523 33.3275C30.2533 33.4477 30.2086 33.5639 30.1273 33.6525" stroke="#703D29" stroke-width="0.075"/>
<path d="M29.6133 33.1023C29.8758 33.1023 30.1258 33.3523 30.1258 33.6273C30.1259 33.6988 30.1103 33.7695 30.08 33.8343C30.0498 33.8991 30.0057 33.9564 29.9508 34.0023" stroke="#703D29" stroke-width="0.075"/>
<path d="M32.0414 30.4524C32.2751 30.7302 32.438 31.0604 32.5164 31.4149M32.5164 32.4774C32.4748 32.6512 32.4118 32.8191 32.3289 32.9774C32.2128 33.197 32.0607 33.3956 31.8789 33.5649" stroke="#703D29" stroke-width="0.075" stroke-linecap="round"/>
<path d="M32.0781 28.5525C32.3031 28.74 32.4531 28.9275 32.5156 29.1525" stroke="#703D29" stroke-width="0.075"/>
<path d="M32.5281 27.9524C32.4455 28.1814 32.2978 28.3812 32.1031 28.5274M30.9531 26.3774L31.2281 26.3024L31.3906 26.1774L31.4906 26.0399L31.5781 25.8149L31.6156 25.6274" stroke="#703D29" stroke-width="0.075" stroke-linecap="round"/>
<path d="M30.4148 25.4275C30.3273 25.4525 30.2148 25.4775 30.1023 25.5275C29.9264 25.6124 29.7756 25.7416 29.6648 25.9025C29.3683 26.375 29.2696 26.9452 29.3898 27.49C29.4396 27.7397 29.5373 27.9774 29.6773 28.19L29.8023 28.365C29.9773 28.5275 30.1273 28.615 30.3773 28.5775" stroke="#703D29" stroke-width="0.075"/>
<path d="M31.9141 24.24C31.8766 24.4025 31.7891 24.6025 31.5391 24.5775" stroke="#703D29" stroke-width="0.075" stroke-linecap="round"/>
<path d="M31.0028 25.3273C30.7528 25.0898 30.2528 25.0273 29.7403 25.3523L29.5403 25.5148C29.4741 25.5742 29.4153 25.6413 29.3653 25.7148C29.2327 25.9059 29.1314 26.1169 29.0653 26.3398C28.9778 26.7148 28.9778 27.0398 28.9903 27.1273C28.9903 27.2523 29.0153 27.3648 29.0278 27.4648C29.1028 27.8148 29.2028 28.0648 29.3153 28.2398C29.4278 28.4273 29.6903 28.8648 30.2778 28.9148C30.5028 28.9273 30.8778 28.8273 30.9028 28.5398" stroke="#703D29" stroke-width="0.075"/>
<path d="M45.7629 20.14C45.8004 19.94 46.0504 19.9025 46.1379 20.015C46.2879 20.215 46.1879 20.54 45.8879 20.6275C45.8004 20.6432 45.7102 20.6353 45.6267 20.6046C45.5432 20.5738 45.4694 20.5213 45.4129 20.4525C45.2879 20.29 45.3004 20.1025 45.3504 19.9525C45.3754 19.8525 45.4629 19.765 45.5629 19.6775C45.9004 19.4275 46.4504 19.4775 46.6379 19.9275C46.8629 20.4775 46.3629 20.9025 45.8879 21.215C45.3129 21.615 44.6379 21.69 44.1379 21.6775C42.9879 21.6775 42.1254 21.1275 41.5504 20.8025C41.4254 20.74 41.2879 20.7525 41.2129 20.84C41.1755 20.8907 41.1586 20.9535 41.1656 21.0161C41.1725 21.0787 41.2028 21.1363 41.2504 21.1775" stroke="#703D29" stroke-width="0.075" stroke-linecap="round"/>
<path d="M45.9883 19.9524C46.1133 19.9524 46.1383 20.0024 46.1758 20.0524C46.3258 20.2399 46.2133 20.5649 45.9258 20.6649M48.1508 27.1024C47.7133 27.5774 48.1258 28.3899 48.4508 28.5774C48.5633 28.6649 48.6133 28.6149 48.7008 28.6649" stroke="#703D29" stroke-width="0.075" stroke-linecap="round"/>
<path d="M48.1773 26.19C48.0398 26.29 47.9898 26.4025 47.9773 26.6025C47.9705 26.6934 47.9826 26.7847 48.0127 26.8707C48.0428 26.9568 48.0903 27.0357 48.1523 27.1025C48.4696 27.3946 48.8836 27.5593 49.3148 27.565C49.5648 27.565 49.8148 27.515 50.0648 27.3525C50.303 27.1958 50.4727 26.9545 50.5398 26.6775M47.9398 34.4025L47.9148 34.715C47.889 35.0201 47.8041 35.3173 47.6648 35.59C47.5355 35.8543 47.3573 36.0918 47.1398 36.29C46.9266 36.5003 46.6767 36.6698 46.4023 36.79C46.1464 36.9235 45.8728 37.0203 45.5898 37.0775C45.0468 37.1858 44.4905 37.2111 43.9398 37.1525C43.6023 37.1275 43.4273 37.09 43.0898 37.0525C42.8148 37.04 42.6648 37.015 42.3898 37.015C41.9245 37.0037 41.4615 37.0844 41.0273 37.2525C40.6898 37.3775 40.3148 37.6275 40.2273 37.7275C40.1523 37.615 39.7648 37.3775 39.4398 37.2525C39.2317 37.1635 39.0134 37.1005 38.7898 37.065C38.5148 37.015 38.3523 37.015 38.0648 37.015C37.7898 37.015 37.6398 37.04 37.3648 37.065C37.0398 37.09 36.8648 37.14 36.5273 37.1525C36.2148 37.1775 36.0398 37.19 35.7398 37.1775C35.4454 37.1755 35.1521 37.142 34.8648 37.0775C34.5825 37.0242 34.309 36.9317 34.0523 36.8025C33.7815 36.6772 33.5358 36.5036 33.3273 36.29C33.1086 36.0881 32.9304 35.8463 32.8023 35.5775C32.6649 35.3085 32.5801 35.0158 32.5523 34.715C32.5273 34.59 32.5273 34.4025 32.5273 34.4025V21.6775H47.9273V34.4025H47.9398Z" stroke="#703D29" stroke-width="0.075"/>
<path d="M31.2891 36.2148C31.2891 36.1319 31.322 36.0524 31.3806 35.9938C31.4392 35.9352 31.5187 35.9023 31.6016 35.9023C31.6844 35.9023 31.7639 35.9352 31.8225 35.9938C31.8811 36.0524 31.9141 36.1319 31.9141 36.2148C31.9141 36.2977 31.8811 36.3772 31.8225 36.4358C31.7639 36.4944 31.6844 36.5273 31.6016 36.5273C31.5187 36.5273 31.4392 36.4944 31.3806 36.4358C31.322 36.3772 31.2891 36.2977 31.2891 36.2148ZM29.3516 34.0148C29.3516 33.8523 29.4516 33.7273 29.5766 33.7273C29.7016 33.7273 29.7891 33.8523 29.7891 34.0148C29.7891 34.1648 29.6891 34.2898 29.5766 34.2898C29.4516 34.2898 29.3516 34.1648 29.3516 34.0148Z" fill="#C7B37F" stroke="#C7B37F" stroke-width="0.0375"/>
<path d="M30.4531 28.4649C30.4531 28.3399 30.5531 28.2399 30.6656 28.2399C30.7906 28.2399 30.8781 28.3399 30.8781 28.4649C30.8781 28.5899 30.7906 28.6899 30.6656 28.6899C30.5406 28.6899 30.4531 28.5899 30.4531 28.4649ZM34.2906 20.2649C34.2906 20.1399 34.3531 20.0149 34.4656 20.0149C34.5781 20.0024 34.6781 20.0899 34.6906 20.2149C34.6906 20.3399 34.6281 20.4649 34.5156 20.4649C34.4031 20.4774 34.3156 20.3899 34.2906 20.2649Z" fill="#C7B37F"/>
<path d="M30.2039 29.7649C30.1539 29.7774 30.1289 29.7899 30.1039 29.8274C30.0664 29.8649 30.0539 29.8774 30.0289 29.9399L30.0039 30.0899M30.5914 33.4274L30.7164 33.3024L30.7914 33.1774L30.8539 33.0524L30.9414 32.8899M30.7789 34.6399L30.5914 34.7274L30.4539 34.8024C30.3983 34.8333 30.3441 34.8667 30.2914 34.9024L30.1414 35.0274M32.0164 30.2899L31.9164 30.1899L31.7914 30.0899L31.6789 29.9899" stroke="#C7B37F" stroke-width="0.075" stroke-linecap="round"/>
<path d="M32.0641 28.6399L31.9141 28.7024C31.8538 28.7242 31.7906 28.7369 31.7266 28.7399" stroke="#C7B37F" stroke-width="0.075"/>
<path d="M29.9648 26.5648C29.9898 26.6398 29.9898 26.6898 30.0273 26.7523C30.0523 26.8398 30.0898 26.8898 30.1398 26.9648C30.221 27.1006 30.3322 27.216 30.4648 27.3023L30.6523 27.4023M30.5273 26.6773L30.6898 26.7523C30.8083 26.8031 30.936 26.8287 31.0648 26.8273L31.2898 26.8148M32.1898 21.7273L31.9398 21.5773C31.8273 21.5148 31.7773 21.4648 31.6898 21.3898C31.6391 21.3399 31.5931 21.2856 31.5523 21.2273L31.4523 21.0648M32.3898 20.4898L32.4648 20.7023C32.5097 20.7943 32.5687 20.8787 32.6398 20.9523C32.7648 21.0773 32.8523 21.1148 32.9898 21.2273M33.1648 20.4773C33.2023 20.5648 33.2023 20.6023 33.2523 20.6773C33.2773 20.7398 33.3023 20.7773 33.3523 20.8273L33.5148 20.9898C33.6023 21.0648 33.6648 21.0773 33.7648 21.1273" stroke="#C7B37F" stroke-width="0.075" stroke-linecap="round"/>
<path d="M41.9511 19.465C41.9511 19.2525 41.7386 19.24 41.6511 19.24C41.4261 19.24 41.3636 19.3775 41.0761 19.5275C40.8282 19.6928 40.5365 19.7799 40.2386 19.7775C39.9408 19.7791 39.6492 19.6921 39.4011 19.5275C39.1136 19.3775 39.0636 19.24 38.8261 19.24C38.7883 19.2416 38.7512 19.2506 38.7169 19.2666C38.6827 19.2825 38.6519 19.3051 38.6263 19.333C38.6008 19.3608 38.581 19.3935 38.5681 19.429C38.5552 19.4645 38.5494 19.5022 38.5511 19.54V19.6525L38.5886 19.6775C38.5886 19.5775 38.6011 19.5275 38.6511 19.465C38.6755 19.4352 38.706 19.411 38.7404 19.3937C38.7749 19.3765 38.8126 19.3667 38.8511 19.365C39.0761 19.365 39.1636 19.515 39.4511 19.665C39.8261 19.865 39.9761 19.9025 40.2886 19.915C40.5906 19.9191 40.8869 19.832 41.1386 19.665C41.4261 19.515 41.5136 19.3525 41.7386 19.3525C41.8136 19.3525 41.8636 19.4025 41.9011 19.4775V19.59L41.9261 19.6025C41.9261 19.565 41.9511 19.5525 41.9511 19.4775V19.465Z" fill="#703D29" stroke="#703D29" stroke-width="0.025"/>
<path d="M33.3398 37.265C33.4023 37.2025 33.4523 37.2275 33.4648 37.19C33.4648 37.165 33.4648 37.165 33.4273 37.1525L33.3148 37.1275L33.2148 37.0775C33.2023 37.0775 33.1648 37.0525 33.1523 37.0775C33.1398 37.1275 33.2773 37.1275 33.2273 37.2525C33.2042 37.3085 33.1702 37.3595 33.1273 37.4025L32.8023 37.7775L32.7773 37.79V37.2525L32.7898 37.0275C32.8148 36.9775 32.8898 37.0275 32.9023 36.9775C32.9023 36.965 32.9023 36.9525 32.8648 36.94C32.8398 36.94 32.8023 36.94 32.7273 36.9025L32.6023 36.84C32.5773 36.84 32.5398 36.815 32.5273 36.84L32.5398 36.8775C32.5898 36.9025 32.6023 36.9275 32.6023 37.0025V37.9275C32.6023 37.99 32.6148 38.0025 32.6273 38.015C32.6398 38.015 32.6523 38.015 32.6773 37.9775L33.3398 37.265Z" fill="#703D29"/>
<path d="M33.7273 37.4149C33.7648 37.2774 33.8523 37.3649 33.8523 37.3149C33.8648 37.2899 33.8523 37.2899 33.8273 37.2774L33.6648 37.2274C33.6148 37.2274 33.5648 37.1899 33.5148 37.1774C33.5148 37.1774 33.4773 37.1649 33.4648 37.1774C33.4523 37.2399 33.6023 37.2399 33.5648 37.3649L33.3523 38.0524C33.3148 38.1774 33.2273 38.1274 33.2148 38.1774V38.1899L33.3648 38.2399L33.5648 38.3024H33.6023C33.6273 38.2524 33.4523 38.2649 33.5148 38.0899L33.7273 37.4149ZM34.1898 37.5399C34.2148 37.4649 34.2523 37.4774 34.3023 37.4899C34.4273 37.5274 34.4773 37.6524 34.4273 37.8024C34.4023 37.8774 34.3773 37.9524 34.1773 37.9024C34.1398 37.8899 34.0898 37.8774 34.1023 37.8399L34.1898 37.5524V37.5399ZM33.8398 38.1649C33.7773 38.3399 33.6898 38.2649 33.6773 38.3149C33.6773 38.3399 33.7023 38.3399 33.7148 38.3524L33.9148 38.4024L34.0148 38.4399H34.0648C34.0773 38.3774 33.9398 38.4024 33.9773 38.2524L34.0523 38.0024C34.0648 37.9524 34.0648 37.9399 34.1273 37.9649C34.2023 37.9774 34.2148 38.0024 34.2273 38.0649L34.2648 38.3149C34.2898 38.4274 34.3023 38.5274 34.3898 38.5649C34.4523 38.5649 34.5398 38.5649 34.5648 38.5149L34.5398 38.4899H34.5023C34.5023 38.4899 34.4648 38.4899 34.4648 38.4524L34.3773 38.0024C34.3773 37.9774 34.4273 37.9774 34.4773 37.9649C34.5085 37.9482 34.5357 37.9251 34.5573 37.8971C34.5788 37.8691 34.5942 37.8368 34.6023 37.8024C34.6148 37.7399 34.6523 37.5274 34.3773 37.4399L34.1148 37.3774L33.9648 37.3274H33.9273C33.9148 37.3899 34.0648 37.3774 34.0148 37.5399L33.8273 38.1649H33.8398ZM34.8898 38.4774C34.8398 38.6524 34.7148 38.5399 34.7023 38.6024C34.7023 38.6274 34.7148 38.6399 34.7398 38.6399L34.9273 38.6774L35.1023 38.7274C35.1398 38.7274 35.1648 38.7524 35.1773 38.7149C35.1773 38.6774 35.0148 38.6774 35.0523 38.4899L35.2148 37.8399C35.2148 37.7649 35.2398 37.7649 35.2898 37.7774L35.4148 37.8024C35.5523 37.8399 35.4773 37.9899 35.5398 38.0024C35.5648 38.0024 35.5648 37.9524 35.5648 37.9274L35.5773 37.8024V37.7524L35.1648 37.6649L34.7648 37.5649C34.7523 37.5649 34.7398 37.5649 34.7398 37.5899L34.6773 37.7774C34.6648 37.7899 34.6523 37.8274 34.6773 37.8274C34.7398 37.8399 34.7398 37.6399 34.8898 37.6774L35.0023 37.7024C35.0523 37.7149 35.0648 37.7274 35.0523 37.8024L34.8898 38.4774ZM36.4773 38.0649C36.5273 37.9899 36.5773 38.0024 36.5898 37.9774C36.5898 37.9524 36.5648 37.9524 36.5398 37.9399H36.4273L36.3148 37.9024C36.3023 37.9024 36.2648 37.8899 36.2648 37.9149C36.2523 37.9649 36.3898 37.9399 36.3648 38.0774C36.3648 38.1024 36.3523 38.1524 36.2898 38.2399L36.0398 38.6524L36.0023 38.6774V38.6524L35.9148 38.1524C35.8981 38.0787 35.8939 38.0026 35.9023 37.9274C35.9023 37.8649 35.9898 37.9024 35.9898 37.8649C35.9898 37.8399 35.9898 37.8399 35.9398 37.8274L35.8023 37.8149C35.7523 37.8149 35.7148 37.7899 35.6773 37.7774C35.6523 37.7774 35.6148 37.7649 35.6023 37.7899L35.6148 37.8149C35.6773 37.8399 35.6898 37.8649 35.7023 37.9274L35.8648 38.8399C35.8773 38.9024 35.8898 38.9274 35.9023 38.9274C35.9148 38.9274 35.9273 38.9274 35.9523 38.8899L36.4773 38.0649ZM36.5523 38.9149C36.5523 38.9524 36.5523 38.9524 36.5773 38.9774C36.6523 39.0024 36.7023 39.0524 36.7898 39.0649C36.9648 39.0899 37.1148 38.9774 37.1398 38.7899C37.1773 38.6024 37.1023 38.5274 36.9648 38.4274C36.8023 38.3149 36.7398 38.2899 36.7523 38.1774C36.7648 38.0899 36.8398 38.0524 36.9273 38.0524C37.1523 38.0899 37.1273 38.3774 37.1523 38.3774C37.1898 38.3774 37.1898 38.3649 37.1898 38.3274L37.2148 38.1274V38.0774H37.1398C37.0898 38.0774 37.0523 38.0149 36.9398 37.9899C36.7898 37.9649 36.6523 38.0774 36.6273 38.2399C36.6023 38.3899 36.6773 38.4649 36.7773 38.5399C36.9773 38.6774 37.0523 38.7149 37.0273 38.8399C37.0148 38.9649 36.9148 39.0149 36.8148 39.0024C36.6648 38.9774 36.6148 38.8274 36.5898 38.6774C36.5898 38.6524 36.5898 38.6399 36.5648 38.6399C36.5398 38.6399 36.5398 38.6774 36.5398 38.7024V38.9149H36.5523ZM38.5273 38.3524C38.5648 38.2649 38.6273 38.2774 38.6273 38.2399C38.6273 38.2149 38.6148 38.2274 38.5773 38.2149H38.4648L38.3523 38.2024C38.3398 38.2024 38.3023 38.2024 38.3023 38.2274C38.3023 38.2774 38.4273 38.2274 38.4273 38.3649C38.4273 38.3899 38.4148 38.4399 38.3648 38.5399L38.1398 38.9774L38.1273 39.0149L38.1148 38.9774L37.9773 38.4774C37.9548 38.413 37.9422 38.3456 37.9398 38.2774C37.9398 38.2149 38.0273 38.2399 38.0273 38.2024C38.0273 38.1774 38.0273 38.1774 37.9773 38.1774H37.8273L37.7023 38.1524C37.6773 38.1524 37.6398 38.1399 37.6273 38.1649L37.6523 38.1899C37.7023 38.2149 37.7273 38.2274 37.7398 38.2899L38.0023 39.1774L38.0523 39.2649C38.0648 39.2649 38.0773 39.2649 38.0898 39.2149L38.5273 38.3399V38.3524Z" fill="#703D29"/>
<path d="M38.7398 39.0775C38.7398 39.2275 38.6148 39.2025 38.6148 39.265C38.6148 39.29 38.6273 39.2775 38.6523 39.2775H38.9273L38.9773 39.265C38.9773 39.19 38.8023 39.29 38.8023 39.015V38.49L38.8148 38.4775L38.8398 38.49L39.4773 39.2775L39.5148 39.29L39.5398 39.2525V38.415C39.5398 38.2525 39.6648 38.29 39.6648 38.2525C39.6648 38.2525 39.6648 38.2275 39.6273 38.2275H39.3398C39.3148 38.2275 39.3148 38.24 39.3148 38.2525C39.3148 38.3025 39.4773 38.2775 39.4773 38.415V38.915L39.4648 38.965L39.4148 38.9275L38.8898 38.265C38.8648 38.2275 38.8773 38.2275 38.8398 38.2275H38.6148L38.5898 38.24C38.5898 38.315 38.7398 38.215 38.7398 38.5025V39.0775ZM40.0398 38.39C40.0398 38.2525 40.1398 38.3025 40.1398 38.2525C40.1398 38.24 40.1398 38.2275 40.0898 38.2275H39.7648C39.7648 38.2275 39.7273 38.2275 39.7273 38.2525C39.7273 38.3025 39.8648 38.2525 39.8648 38.4025V39.115C39.8648 39.2525 39.7648 39.215 39.7648 39.265C39.7648 39.265 39.7648 39.29 39.7898 39.29H40.1398C40.1648 39.29 40.1773 39.29 40.1773 39.265C40.1773 39.215 40.0273 39.29 40.0273 39.1025L40.0398 38.39ZM40.6023 39.0775C40.6023 39.265 40.4523 39.2025 40.4523 39.2525C40.4523 39.2775 40.4773 39.2775 40.5023 39.2775H40.8773C40.9148 39.2775 40.9398 39.2775 40.9398 39.24C40.9398 39.2025 40.7648 39.24 40.7648 39.065V38.39C40.7648 38.315 40.7648 38.315 40.8273 38.315H40.9523C41.1023 38.3025 41.0523 38.465 41.1148 38.465C41.1398 38.465 41.1273 38.415 41.1273 38.39L41.1148 38.265C41.1148 38.24 41.1148 38.215 41.0898 38.215L40.6773 38.2275H40.2648L40.2398 38.265L40.2273 38.465L40.2398 38.515C40.3023 38.515 40.2648 38.315 40.4148 38.315H40.5273C40.5773 38.315 40.5898 38.315 40.6023 38.39V39.09V39.0775ZM41.3898 38.8025H41.3398L41.3523 38.74L41.4398 38.465V38.44L41.4648 38.4525L41.5898 38.715L41.6148 38.765C41.6148 38.79 41.5898 38.79 41.5648 38.79H41.3898V38.8025ZM41.6148 38.865C41.6523 38.865 41.6523 38.865 41.7148 38.99L41.7398 39.09C41.7398 39.1775 41.6523 39.165 41.6523 39.215C41.6523 39.2275 41.6773 39.2275 41.7023 39.215H41.8523L42.0148 39.2025C42.0523 39.2025 42.0648 39.2025 42.0648 39.1775C42.0648 39.1275 41.9898 39.1775 41.9398 39.09L41.5148 38.215L41.4773 38.165C41.4523 38.165 41.4523 38.19 41.4398 38.215L41.1648 39.14C41.1398 39.2275 41.0648 39.2275 41.0773 39.265H41.3648C41.3898 39.2525 41.4273 39.265 41.4273 39.2275C41.4273 39.19 41.2773 39.2275 41.2648 39.115L41.2898 38.99C41.3148 38.89 41.3398 38.89 41.3648 38.89L41.6273 38.865H41.6148ZM42.6523 38.24C42.6398 38.14 42.6523 38.14 42.8023 38.115C43.0523 38.09 42.9773 38.2775 43.0523 38.265C43.0773 38.265 43.0523 38.215 43.0523 38.19L43.0398 38.0525C43.0398 38.04 43.0273 38.0275 43.0023 38.0275C42.8773 38.0275 42.7898 38.0525 42.7023 38.065L42.3523 38.115C42.3273 38.115 42.3148 38.115 42.3148 38.14C42.3273 38.2025 42.4773 38.14 42.4898 38.265L42.5773 38.9525C42.6023 39.14 42.4898 39.0775 42.5023 39.14C42.5023 39.14 42.5023 39.1525 42.5273 39.14L42.7023 39.1275L42.8523 39.115C42.8898 39.115 42.9148 39.115 42.9148 39.0775C42.9148 39.04 42.7648 39.09 42.7398 38.9275L42.7148 38.715C42.7023 38.6275 42.7023 38.6025 42.7523 38.59H42.8523C42.9898 38.565 42.9773 38.7275 43.0148 38.715C43.0523 38.715 43.0398 38.665 43.0273 38.6525L42.9898 38.39C42.9898 38.3525 42.9648 38.3525 42.9648 38.3525C42.9273 38.3525 42.9523 38.49 42.8398 38.5025L42.7523 38.515C42.6898 38.5275 42.6898 38.515 42.6773 38.4525L42.6523 38.24ZM43.1523 38.59C43.2023 38.8775 43.4148 39.0525 43.6773 39.0025C44.1023 38.915 44.1148 38.5525 44.0773 38.34C44.0148 38.0275 43.7898 37.8775 43.5273 37.9275C43.2148 37.99 43.0898 38.265 43.1523 38.59ZM43.2898 38.465C43.2523 38.265 43.2898 38.04 43.5023 38.0025C43.6773 37.965 43.8773 38.1025 43.9273 38.4275C43.9648 38.6775 43.9273 38.8775 43.7023 38.9275C43.4648 38.9775 43.3273 38.6775 43.2898 38.4775V38.465ZM44.3273 37.9525C44.3148 37.865 44.3523 37.8525 44.4023 37.84C44.5273 37.815 44.6273 37.9025 44.6648 38.04C44.6898 38.1275 44.7023 38.215 44.5023 38.265C44.4648 38.265 44.4148 38.2775 44.4023 38.24L44.3398 37.9525H44.3273ZM44.3273 38.665C44.3773 38.84 44.2648 38.8275 44.2648 38.865C44.2773 38.9025 44.3023 38.89 44.3148 38.8775C44.3898 38.8775 44.4398 38.84 44.5148 38.8275L44.6398 38.8025C44.6648 38.8025 44.6648 38.79 44.6648 38.7775C44.6648 38.7275 44.5398 38.815 44.5023 38.6525L44.4398 38.4025C44.4398 38.3525 44.4148 38.3525 44.4898 38.34C44.5523 38.315 44.5773 38.3275 44.6273 38.3775L44.7898 38.5775C44.8523 38.6525 44.9148 38.74 45.0148 38.715C45.0773 38.7025 45.1398 38.6525 45.1398 38.6025L45.1148 38.59L45.0773 38.6025C45.0773 38.6025 45.0398 38.615 45.0273 38.6025L44.7273 38.24L44.7898 38.165C44.8148 38.115 44.8398 38.0525 44.8148 37.965C44.8023 37.9025 44.7273 37.7025 44.4398 37.765L44.1773 37.84L44.0273 37.865C44.0023 37.865 43.9898 37.8775 44.0023 37.89C44.0023 37.9525 44.1398 37.865 44.1773 38.015L44.3273 38.665ZM45.4148 38.415C45.4523 38.59 45.2898 38.565 45.3023 38.615C45.3023 38.6525 45.3398 38.64 45.3648 38.64L45.5398 38.5775L45.7273 38.54C45.7648 38.54 45.7898 38.54 45.7773 38.49C45.7773 38.4525 45.6148 38.54 45.5648 38.365L45.4023 37.7025C45.3773 37.64 45.4023 37.6275 45.4398 37.615L45.5648 37.59C45.7023 37.54 45.7023 37.715 45.7523 37.7025C45.7898 37.7025 45.7523 37.64 45.7523 37.615L45.7023 37.49C45.7023 37.49 45.7023 37.4525 45.6773 37.465L45.2773 37.5775L44.8773 37.665V37.7025L44.8898 37.9025C44.8898 37.9275 44.8898 37.9525 44.9273 37.9525C44.9898 37.94 44.8898 37.7525 45.0523 37.715L45.1523 37.69C45.2023 37.6775 45.2273 37.69 45.2398 37.7525L45.4148 38.415ZM46.1023 37.5025C46.0648 37.3775 46.1773 37.39 46.1523 37.34H46.1148L45.9398 37.39L45.7898 37.4275C45.7898 37.4275 45.7523 37.4275 45.7523 37.4525C45.7648 37.5025 45.9023 37.4275 45.9398 37.5525L46.1398 38.2525C46.1648 38.3775 46.0648 38.3775 46.0773 38.415C46.0773 38.4275 46.0773 38.44 46.1023 38.4275L46.2398 38.39L46.4398 38.34C46.4773 38.34 46.4773 38.3275 46.4773 38.3025C46.4648 38.265 46.3398 38.365 46.2898 38.19L46.1023 37.5025ZM46.3898 37.84C46.4773 38.1275 46.7148 38.265 46.9773 38.1775C47.3773 38.04 47.3523 37.665 47.2773 37.465C47.1773 37.165 46.9273 37.0525 46.6773 37.1275C46.3773 37.24 46.2773 37.5275 46.3898 37.84ZM46.5148 37.715C46.4398 37.5025 46.4398 37.2775 46.6523 37.215C46.8148 37.1525 47.0273 37.265 47.1398 37.5775C47.2148 37.8025 47.2023 38.0275 46.9898 38.1025C46.7648 38.1775 46.5898 37.915 46.5148 37.7025V37.715ZM47.4648 37.0275C47.4398 36.94 47.4648 36.9275 47.5148 36.9025C47.6398 36.865 47.7648 36.94 47.8148 37.0775C47.8398 37.1525 47.8648 37.24 47.6773 37.315C47.6398 37.315 47.5898 37.34 47.5773 37.315L47.4648 37.0275ZM47.5648 37.7275C47.6398 37.9025 47.5148 37.9025 47.5398 37.94C47.5398 37.9775 47.5648 37.9525 47.5898 37.9525L47.7773 37.865L47.8898 37.84C47.9148 37.8275 47.9148 37.815 47.9148 37.8025C47.8898 37.7525 47.7898 37.8525 47.7398 37.7025L47.6398 37.465C47.6148 37.415 47.6148 37.4025 47.6773 37.3775C47.7398 37.3525 47.7648 37.365 47.8148 37.415L48.0148 37.59C48.0773 37.6525 48.1523 37.7275 48.2648 37.69C48.3023 37.665 48.3773 37.6025 48.3523 37.565L48.3273 37.5525L48.3023 37.5775H48.2398L47.8898 37.265L47.9398 37.1775C47.9536 37.1459 47.9607 37.1119 47.9607 37.0775C47.9607 37.043 47.9536 37.009 47.9398 36.9775C47.9273 36.9025 47.8148 36.7275 47.5523 36.8275L47.3023 36.94L47.1523 36.99L47.1273 37.015C47.1523 37.065 47.2648 36.965 47.3273 37.115L47.5773 37.74L47.5648 37.7275Z" fill="#703D29"/>
<path d="M33.3047 22.459H39.8727V29.019H33.3047V22.459Z" fill="#D52B1E"/>
<path d="M36.3842 27.619C36.3842 27.619 36.3842 27.859 36.3202 28.043C36.2402 28.259 36.2402 28.259 36.1682 28.363C36.0906 28.4899 35.987 28.599 35.8642 28.683C35.7042 28.779 35.5442 28.827 35.3842 28.811C34.9522 28.779 34.7442 28.299 34.6482 27.915C34.5442 27.507 34.2482 27.275 34.0482 27.435C33.9362 27.515 33.9362 27.659 34.0242 27.803C34.1104 27.907 34.2241 27.9846 34.3522 28.027L34.1202 28.323C34.1202 28.323 33.6162 28.259 33.5202 27.731C33.4802 27.531 33.5762 27.163 33.9122 27.051C34.3362 26.907 34.6002 27.211 34.7362 27.467C34.9122 27.819 34.9922 28.459 35.4882 28.363C35.7602 28.307 35.8882 27.915 35.8882 27.731L36.0802 27.523L36.3762 27.619H36.3842Z" fill="white"/>
<path d="M36.7915 27.619C36.7915 27.619 36.7915 27.859 36.8555 28.043C36.9355 28.259 36.9355 28.259 37.0075 28.363C37.0852 28.4899 37.1888 28.599 37.3115 28.683C37.4715 28.779 37.6315 28.827 37.7915 28.811C38.2235 28.779 38.4315 28.299 38.5275 27.915C38.6315 27.507 38.9275 27.275 39.1275 27.435C39.2395 27.515 39.2395 27.659 39.1515 27.803C39.0654 27.907 38.9517 27.9846 38.8235 28.027L39.0555 28.323C39.0555 28.323 39.5595 28.259 39.6555 27.731C39.6955 27.531 39.5995 27.163 39.2635 27.051C38.8395 26.907 38.5755 27.211 38.4395 27.467C38.2635 27.819 38.1835 28.459 37.6875 28.363C37.4155 28.307 37.2875 27.915 37.2875 27.731L37.0955 27.523L36.7995 27.619H36.7915Z" fill="white"/>
<path d="M37.1748 24.8351L38.0388 23.8991C38.0388 23.8991 38.1668 23.7951 38.1668 23.6271L37.9907 23.6591L37.9507 23.5631L37.9428 23.4751L38.1828 23.4191V23.3151L38.2068 23.2111L37.9507 23.2271L37.9748 23.1151L38.0148 23.0351L38.1668 23.0031H38.3188C38.4628 22.7311 39.0547 22.4911 39.4707 22.9231C39.7747 23.2431 39.7108 23.8191 39.3108 23.9791C39.2213 24.0188 39.1223 24.0317 39.0257 24.016C38.9291 24.0004 38.8391 23.957 38.7668 23.8911L38.9268 23.5711C39.1428 23.7071 39.3267 23.5471 39.3108 23.3791C39.2947 23.1631 39.1508 23.0351 38.9668 23.0191C38.7828 23.0031 38.6468 23.0991 38.5668 23.2591C38.5188 23.3631 38.5428 23.4351 38.5268 23.5471C38.5108 23.6671 38.5268 23.7311 38.4868 23.8511C38.4477 23.9616 38.3817 24.0606 38.2948 24.1391L37.4148 25.0991L33.9748 28.8111L33.7188 28.5711L37.1748 24.8351Z" fill="#FEDF00"/>
<path d="M34.6486 25.155C34.6486 25.155 34.8646 26.227 35.6006 27.835C35.9766 27.699 36.1926 27.611 36.5926 27.611C36.9846 27.611 37.2006 27.691 37.5766 27.835C37.9862 26.9772 38.3053 26.079 38.5286 25.155L36.5926 22.675L34.6406 25.155H34.6486Z" fill="white"/>
<path d="M36.7786 23.5071L38.1226 25.2431C38.1226 25.2431 37.9466 26.0831 37.4026 27.3471C37.1866 27.2991 37.0026 27.2591 36.7786 27.2431V23.5071ZM36.4026 23.5071L35.0586 25.2431C35.0586 25.2431 35.2346 26.0831 35.7786 27.3471C35.9946 27.2991 36.1786 27.2591 36.4026 27.2431V23.5071Z" fill="#FEDF00"/>
<path d="M40.5781 22.4524H47.1531V29.0149H40.5781V22.4524Z" fill="#FEDF00"/>
<path d="M41.5039 22.4524H42.4789V29.0149H41.5039V22.4524ZM43.3789 22.4524H44.3539V29.0149H43.3789V22.4524ZM45.2539 22.4524H46.2414V29.0149H45.2539V22.4524Z" fill="#D52B1E"/>
<path d="M33.3258 34.7023C33.3383 34.8273 33.3883 35.0273 33.5008 35.2398C33.6258 35.4273 33.5758 35.4148 33.8383 35.7148C33.9842 35.8619 34.1531 35.9843 34.3383 36.0773C34.929 36.3316 35.5714 36.443 36.2133 36.4023C36.5508 36.3898 36.8133 36.3523 37.0383 36.3148C37.494 36.2542 37.9537 36.2291 38.4133 36.2398C38.6008 36.2398 38.7883 36.2773 39.0008 36.3148C39.4383 36.4023 39.8758 36.5648 39.8758 36.5648V29.7273H33.3008V34.3898L33.3258 34.6898V34.7023Z" fill="#FEDF00"/>
<path d="M34.0898 35.9023L34.4023 36.0898L34.8273 36.2398V29.7148H34.0898V35.9023ZM37.7398 36.2023V29.7148H37.0148V36.3148L37.7398 36.2273V36.2023ZM39.2023 29.7148H38.4773V36.2273C38.7148 36.2523 38.9523 36.3023 39.2023 36.3523V29.7273V29.7148ZM36.2773 29.7148V36.3898C36.2773 36.3898 35.8023 36.4148 35.5523 36.3898V29.7148H36.2773Z" fill="#D52B1E" stroke="#D52B1E" stroke-width="0.0375"/>
<path d="M47.1301 34.7068C47.1015 34.8915 47.042 35.07 46.9541 35.2348C46.8341 35.4188 46.8741 35.4188 46.6101 35.7148C46.324 35.997 45.9632 36.1913 45.5701 36.2748C45.1373 36.389 44.6888 36.4322 44.2421 36.4028C43.8981 36.3868 43.6421 36.3468 43.4181 36.3228C43.1141 36.2748 42.8821 36.2508 42.5381 36.2428C42.3729 36.2347 42.2074 36.2347 42.0421 36.2428C41.543 36.2993 41.0519 36.412 40.5781 36.5788V29.7148H47.1541V34.3948L47.1301 34.6988V34.7068Z" fill="#FEDF00"/>
<path d="M42.2572 30.2748L42.2092 30.2908L42.1452 30.3548C42.1132 30.3868 42.0892 30.3948 42.0492 30.4188L42.0012 30.4588C41.9772 30.4828 42.0012 30.5068 41.9772 30.5388C41.9692 30.5708 41.9532 30.5868 41.9292 30.6188C41.8972 30.6508 41.8732 30.6588 41.8492 30.6988L41.7532 30.7788L41.7292 30.7868H41.6812C41.6492 30.8028 41.6412 30.8348 41.6172 30.8508L41.6412 30.8988L41.7052 31.0108C41.7212 31.0348 41.7212 31.0668 41.7452 31.0748C41.7852 31.0908 41.8172 31.0908 41.8492 31.0828C41.9132 31.0988 41.9532 31.0988 42.0092 31.1228L42.1292 31.1868C42.1692 31.2108 42.1932 31.2188 42.2332 31.2268H42.3772V31.2508L42.5372 31.3308C42.5332 31.3411 42.5305 31.3518 42.5292 31.3628C42.5212 31.3868 42.5132 31.4188 42.5212 31.4268C42.5692 31.5788 42.6172 31.6668 42.6412 31.6828C42.6892 31.6988 42.7052 31.7548 42.7292 31.8028L42.7052 31.8268C42.6572 31.8748 42.6092 31.9068 42.5692 31.9708C42.5132 32.0668 42.4732 32.0668 42.5452 32.1948L42.6652 32.3868C42.6972 32.4428 42.7132 32.4828 42.7292 32.5468C42.7452 32.6028 42.7532 32.6428 42.7532 32.7068L42.8332 32.7308L42.8892 32.6828L42.9372 32.5868V32.5068C42.9212 32.4988 42.9132 32.4748 42.9212 32.4508C42.9212 32.4188 42.9612 32.4268 42.9772 32.4028C43.0012 32.3628 42.9452 32.3388 42.9212 32.3148C42.8732 32.2588 42.8092 32.2428 42.7932 32.1628C42.7932 32.1468 42.7932 32.1308 42.8252 32.1068L42.9852 31.9628C43.0012 31.9708 43.0332 31.9788 43.0652 31.9708L43.1692 32.0028C43.2172 32.0188 43.2412 32.0028 43.2652 32.0028H43.2972L43.3052 32.0508C43.3132 32.1308 43.2972 32.2908 43.3212 32.3308L43.3452 32.3788L43.3612 32.4268V32.5868L43.3452 32.7228C43.3452 32.7548 43.3292 32.7788 43.3052 32.8028C43.2892 32.8348 43.2572 32.8348 43.2252 32.8588V32.9388L43.3132 32.9788L43.4172 33.0028L43.4732 32.9788L43.4812 32.9308L43.5212 32.8908C43.5532 32.8748 43.5852 32.8908 43.5932 32.8828C43.6092 32.8588 43.5932 32.8508 43.5932 32.8188C43.5932 32.7708 43.5772 32.7388 43.5692 32.6908C43.5576 32.6167 43.555 32.5415 43.5612 32.4668C43.5612 32.4188 43.5612 32.3868 43.5772 32.3468C43.5852 32.2668 43.6092 32.2348 43.6252 32.1708C43.6492 32.0908 43.6492 32.0428 43.6572 31.9708C43.9269 32.0114 44.2022 31.9951 44.4652 31.9228C44.5292 31.9788 44.6012 32.0188 44.6812 32.0508V32.1308C44.6812 32.1548 44.6812 32.1628 44.6972 32.1868L44.7212 32.2108C44.7452 32.2108 44.7612 32.2108 44.7772 32.1948C44.7932 32.1788 44.7932 32.1628 44.7932 32.1388V32.0828H44.9372V32.1708C44.9452 32.1948 44.9612 32.2028 44.9772 32.2028C44.9847 32.2063 44.9929 32.2082 45.0012 32.2082C45.0095 32.2082 45.0177 32.2063 45.0252 32.2028C45.0492 32.1868 45.0412 32.1548 45.0492 32.1228V32.0668L45.1292 32.0348C45.1313 32.0587 45.1313 32.0828 45.1292 32.1068L45.1052 32.1788C45.0892 32.2268 45.0652 32.2428 45.0412 32.2908C45.0092 32.3388 45.0012 32.3708 44.9612 32.4108L44.9132 32.4668L44.8652 32.5388L44.7932 32.6188C44.7372 32.6668 44.6972 32.6348 44.6332 32.6908L44.6092 32.7708L44.7212 32.8188L44.8252 32.8348L44.8572 32.8188C44.8572 32.7948 44.8572 32.7708 44.8812 32.7548C44.8972 32.7308 44.9132 32.7308 44.9372 32.7228C44.9692 32.7228 45.0012 32.7228 45.0172 32.7068C45.0492 32.6828 45.0492 32.6268 45.0732 32.5868C45.1321 32.4681 45.2136 32.3622 45.3132 32.2748L45.4492 32.1628C45.4652 32.1308 45.4892 32.1228 45.4892 32.0828L45.4732 32.0348L45.4572 31.9548C45.5772 32.0108 45.5372 32.0108 45.5532 32.0668C45.5772 32.1148 45.5532 32.1468 45.5612 32.2028C45.5692 32.2668 45.6012 32.2908 45.6012 32.3548C45.6092 32.4268 45.5932 32.4668 45.5772 32.5388C45.5692 32.6028 45.5692 32.6428 45.5372 32.6988C45.5182 32.7455 45.488 32.7867 45.4492 32.8188L45.4012 32.8588L45.3932 32.9388L45.4812 32.9708L45.6092 33.0028L45.6412 32.9788C45.6572 32.9228 45.6412 32.8428 45.6732 32.8428C45.7052 32.8348 45.7292 32.8428 45.7372 32.8188V32.7628L45.7932 32.4028L45.8252 32.2508L45.8572 32.1148C45.9132 31.9548 45.8412 31.9308 45.7772 31.8268C45.7372 31.7708 45.7212 31.7468 45.7212 31.7068V31.4748C45.7187 31.4001 45.7187 31.3254 45.7212 31.2508L45.7532 31.2348C45.8492 31.1788 45.8892 31.1628 45.9452 31.0348C45.9622 30.9971 45.9704 30.9561 45.9692 30.9148V30.8348L45.9372 30.7548C45.9246 30.7311 45.9084 30.7095 45.8892 30.6908C45.8332 30.6108 45.7532 30.6028 45.6732 30.5708C45.5532 30.5308 45.4732 30.5388 45.3532 30.5308C45.2092 30.5148 45.1372 30.5148 45.0012 30.5308C44.8412 30.5308 44.7532 30.5628 44.5932 30.5868L44.2012 30.6188C44.0172 30.6188 43.8492 30.5788 43.7372 30.5868C43.5452 30.6028 43.5372 30.6508 43.2412 30.6748C43.14 30.683 43.0387 30.6883 42.9372 30.6908L42.7612 30.6348C42.8332 30.6108 42.8492 30.5948 42.8812 30.5548C42.9052 30.5228 42.8972 30.4988 42.9292 30.4668L42.9852 30.3868C42.9639 30.3708 42.9393 30.3599 42.9132 30.3548H42.8332C42.7999 30.356 42.7672 30.3642 42.7372 30.3788L42.6732 30.4268L42.4972 30.3308C42.4221 30.2926 42.3408 30.2682 42.2572 30.2588V30.2748Z" fill="#D52B1E"/>
<path d="M45.7953 31.2748L45.7313 31.2987C45.6593 31.3307 45.6033 31.3307 45.5233 31.3387C45.3153 31.3547 45.1793 31.2508 44.9633 31.2668C44.8513 31.2748 44.8033 31.3628 44.6833 31.3948C44.6386 31.4043 44.593 31.4096 44.5473 31.4108L44.5873 31.3308C44.5873 31.3308 44.4913 31.3548 44.4273 31.3548C44.3842 31.354 44.3413 31.3487 44.2993 31.3387L44.3793 31.2587L44.2753 31.2428C44.2459 31.2283 44.219 31.2094 44.1953 31.1868C44.241 31.1807 44.2863 31.1727 44.3313 31.1628C44.4513 31.1308 44.4913 31.0668 44.6433 31.0508C44.7313 31.0508 44.8833 31.0508 45.2513 31.1148C45.4913 31.1548 45.6033 31.1308 45.6913 31.0908C45.7553 31.0668 45.7713 31.0108 45.7793 30.9468C45.7873 30.8828 45.7473 30.8348 45.7153 30.8028C45.7073 30.8028 45.6753 30.7788 45.6273 30.7708" stroke="#FEDF00" stroke-width="0.08" stroke-linecap="round"/>
<path d="M42.2738 30.5627C42.2338 30.5627 42.2018 30.5627 42.1698 30.5867C42.1298 30.6107 42.1218 30.6427 42.0898 30.6747C42.1298 30.6827 42.1538 30.7067 42.1858 30.6987C42.2178 30.6987 42.2258 30.6827 42.2498 30.6587C42.2738 30.6267 42.2818 30.6027 42.2818 30.5627H42.2738Z" fill="#FCD900" stroke="#FEDF00" stroke-width="0.04"/>
<path d="M43.1721 31.6188C43.1931 31.6824 43.2198 31.744 43.2521 31.8028C43.2681 31.8668 43.2521 31.8988 43.2681 31.9628V32.0908M43.8121 31.5308L43.7881 31.6348L43.7081 31.9148V31.9708M42.8281 31.6508C42.9001 31.6668 42.8761 31.9148 42.9801 31.9708" stroke="#FEDF00" stroke-width="0.08" stroke-linecap="round"/>
<path d="M45.0977 32.0987L45.1297 32.0747C45.2105 32.0415 45.284 31.9926 45.3457 31.9307" stroke="#FEDF00" stroke-width="0.08"/>
<path d="M44.4844 31.9547C44.7644 31.8827 44.9564 31.7467 45.0924 31.7227M44.7724 31.6027H44.8364C44.9564 31.5787 44.9724 31.6507 45.0524 31.6987C45.2044 31.7787 45.2204 31.8827 45.3964 31.9707L45.4284 31.9787L45.4924 32.0107" stroke="#FEDF00" stroke-width="0.08" stroke-linecap="round"/>
<path d="M41.707 30.8746H41.763L41.827 30.8586C41.851 30.8586 41.867 30.8586 41.883 30.8746C41.899 30.8746 41.899 30.8826 41.907 30.8986C41.907 30.9146 41.923 30.9226 41.915 30.9386C41.915 30.9546 41.891 30.9706 41.867 30.9706C41.851 30.9706 41.835 30.9706 41.827 30.9466C41.8248 30.9416 41.8237 30.9362 41.8237 30.9306C41.8237 30.9251 41.8248 30.9197 41.827 30.9146C41.8159 30.9203 41.8035 30.9232 41.791 30.9232C41.7785 30.9232 41.7662 30.9203 41.755 30.9146C41.7448 30.9115 41.7352 30.9064 41.727 30.8995C41.7187 30.8927 41.7119 30.8842 41.707 30.8746Z" fill="#FCD900" stroke="#FEDF00" stroke-width="0.04"/>
<path d="M42.2984 31.6508L42.1384 31.5788C42.1704 31.5628 42.1944 31.5628 42.2184 31.5388C42.2424 31.5068 42.2424 31.4748 42.2584 31.4348C42.2744 31.3948 42.2744 31.3548 42.3144 31.3228C42.3384 31.3068 42.3784 31.3068 42.4024 31.3148C42.4344 31.3148 42.4664 31.3468 42.4744 31.3708C42.4744 31.4188 42.4584 31.4508 42.4504 31.4908C42.4504 31.5388 42.4264 31.5628 42.4344 31.6028C42.4344 31.6348 42.4504 31.6508 42.4664 31.6828L42.3064 31.6508H42.2984ZM42.2184 31.7308C42.217 31.7215 42.2183 31.7119 42.2223 31.7034C42.2263 31.6948 42.2327 31.6876 42.2407 31.6827C42.2488 31.6777 42.2581 31.6753 42.2675 31.6756C42.277 31.6759 42.2861 31.679 42.2938 31.6845C42.3014 31.69 42.3073 31.6976 42.3107 31.7064C42.3141 31.7152 42.3148 31.7249 42.3127 31.7341C42.3106 31.7433 42.3059 31.7517 42.2991 31.7582C42.2923 31.7647 42.2837 31.7691 42.2744 31.7708C42.2675 31.772 42.2604 31.7716 42.2536 31.7697C42.2468 31.7678 42.2405 31.7645 42.2352 31.7599C42.2298 31.7553 42.2256 31.7496 42.2227 31.7432C42.2198 31.7368 42.2183 31.7298 42.2184 31.7228V31.7308ZM42.0824 30.4028H42.0664C42.0344 30.3708 42.0344 30.3388 42.0184 30.3068C42.0055 30.2762 41.9974 30.2438 41.9944 30.2108V30.0508C41.9944 30.0268 41.9944 30.0028 41.9784 29.9788C41.9784 29.9628 41.9464 29.9548 41.9544 29.9468C41.9544 29.9388 41.9784 29.9468 41.9864 29.9468C42.0184 29.9468 42.0344 29.9548 42.0664 29.9788C42.0904 30.0028 42.1064 30.0268 42.1144 30.0588L42.1464 30.1788L42.1704 30.2428L42.2104 30.2908L42.1544 30.3548L42.0824 30.4028ZM42.3704 31.2508L42.5464 31.3308C42.6669 31.2583 42.764 31.1528 42.8264 31.0268C42.8984 30.8828 42.9064 30.8108 42.9384 30.6748L42.7944 30.6348H42.7624C42.7224 30.7788 42.7064 30.8508 42.6344 30.9708C42.5704 31.0748 42.4984 31.1548 42.4264 31.2108L42.3704 31.2508ZM42.7704 32.7068L42.8344 32.6028L42.9464 32.5148H42.9784C42.9775 32.5912 42.9639 32.6668 42.9384 32.7388L42.9064 32.8188L42.8664 32.8588C42.8264 32.7948 42.7624 32.7548 42.7624 32.6988L42.7704 32.7068ZM45.4104 32.8508L45.5224 32.8988L45.6424 32.9708V33.0108L45.5224 33.0268C45.4878 33.0295 45.453 33.0295 45.4184 33.0268H45.3384L45.2904 32.9948C45.3304 32.9388 45.3544 32.8668 45.4024 32.8508H45.4104ZM44.6264 32.6908L44.7384 32.7308L44.8584 32.8108C44.8584 32.8188 44.8664 32.8348 44.8584 32.8428C44.788 32.8617 44.7152 32.8698 44.6424 32.8668L44.5624 32.8588L44.5064 32.8348C44.5544 32.7788 44.5784 32.6988 44.6264 32.6908ZM43.2344 32.8588L43.3544 32.8988L43.4744 32.9788V33.0188C43.401 33.0358 43.3255 33.0412 43.2504 33.0348H43.1704L43.1224 33.0028C43.1624 32.9468 43.1864 32.8748 43.2344 32.8588ZM42.5144 30.4748C42.4664 30.4508 42.4344 30.3948 42.4664 30.3468C42.4744 30.3308 42.4984 30.3308 42.5144 30.3148C42.5304 30.2908 42.5224 30.2748 42.5144 30.2508L42.5064 30.1708L42.4904 30.0908C42.4904 30.0428 42.4904 30.0108 42.5224 29.9628C42.5384 29.9388 42.5784 29.9148 42.5864 29.9148C42.6024 29.9228 42.5864 29.9548 42.5864 29.9788C42.5864 30.0188 42.5944 30.0348 42.6104 30.0748L42.6664 30.1788C42.6824 30.2268 42.6984 30.2428 42.6984 30.2908C42.6984 30.3308 42.6984 30.3468 42.6824 30.3868C42.6721 30.4118 42.6556 30.4339 42.6344 30.4508C42.6158 30.4662 42.5939 30.4771 42.5704 30.4828C42.5547 30.4872 42.5381 30.4872 42.5224 30.4828L42.5144 30.4748Z" fill="#0065BD"/>
<path d="M42.2572 30.2748L42.2092 30.2908L42.1452 30.3548C42.1132 30.3868 42.0892 30.3948 42.0492 30.4188L42.0012 30.4588C41.9772 30.4828 42.0012 30.5068 41.9772 30.5388C41.9692 30.5708 41.9532 30.5868 41.9292 30.6188C41.8972 30.6508 41.8732 30.6588 41.8492 30.6988L41.7532 30.7788L41.7292 30.7868H41.6812C41.6492 30.8028 41.6412 30.8348 41.6172 30.8508L41.6412 30.8988L41.7052 31.0108C41.7212 31.0348 41.7212 31.0668 41.7452 31.0748C41.7852 31.0908 41.8172 31.0908 41.8492 31.0828C41.9132 31.0988 41.9532 31.0988 42.0092 31.1228L42.1292 31.1868C42.1692 31.2108 42.1932 31.2188 42.2332 31.2268H42.3772V31.2508L42.5372 31.3308C42.5332 31.3411 42.5305 31.3518 42.5292 31.3628C42.5212 31.3868 42.5132 31.4188 42.5212 31.4268C42.5692 31.5788 42.6172 31.6668 42.6412 31.6828C42.6892 31.6988 42.7052 31.7548 42.7292 31.8028L42.7052 31.8268C42.6572 31.8748 42.6092 31.9068 42.5692 31.9708C42.5132 32.0668 42.4732 32.0668 42.5452 32.1948L42.6652 32.3868C42.6972 32.4428 42.7132 32.4828 42.7292 32.5468C42.7452 32.6028 42.7532 32.6428 42.7532 32.7068L42.8332 32.7308L42.8892 32.6828L42.9372 32.5868V32.5068C42.9212 32.4988 42.9132 32.4748 42.9212 32.4508C42.9212 32.4188 42.9612 32.4268 42.9772 32.4028C43.0012 32.3628 42.9452 32.3388 42.9212 32.3148C42.8732 32.2588 42.8092 32.2428 42.7932 32.1628C42.7932 32.1468 42.7932 32.1308 42.8252 32.1068L42.9852 31.9628C43.0012 31.9708 43.0332 31.9788 43.0652 31.9708L43.1692 32.0028C43.2172 32.0188 43.2412 32.0028 43.2652 32.0028H43.2972L43.3052 32.0508C43.3132 32.1308 43.2972 32.2908 43.3212 32.3308L43.3452 32.3788L43.3612 32.4268V32.5868L43.3452 32.7228C43.3452 32.7548 43.3292 32.7788 43.3052 32.8028C43.2892 32.8348 43.2572 32.8348 43.2252 32.8588V32.9388L43.3132 32.9788L43.4172 33.0028L43.4732 32.9788L43.4812 32.9308L43.5212 32.8908C43.5532 32.8748 43.5852 32.8908 43.5932 32.8828C43.6092 32.8588 43.5932 32.8508 43.5932 32.8188C43.5932 32.7708 43.5772 32.7388 43.5692 32.6908C43.5576 32.6167 43.555 32.5415 43.5612 32.4668C43.5612 32.4188 43.5612 32.3868 43.5772 32.3468C43.5852 32.2668 43.6092 32.2348 43.6252 32.1708C43.6492 32.0908 43.6492 32.0428 43.6572 31.9708C43.9269 32.0114 44.2022 31.9951 44.4652 31.9228C44.5292 31.9788 44.6012 32.0188 44.6812 32.0508V32.1308C44.6812 32.1548 44.6812 32.1628 44.6972 32.1868L44.7212 32.2108C44.7452 32.2108 44.7612 32.2108 44.7772 32.1948C44.7932 32.1788 44.7932 32.1628 44.7932 32.1388V32.0828H44.9372V32.1708C44.9452 32.1948 44.9612 32.2028 44.9772 32.2028C44.9847 32.2063 44.9929 32.2082 45.0012 32.2082C45.0095 32.2082 45.0177 32.2063 45.0252 32.2028C45.0492 32.1868 45.0412 32.1548 45.0492 32.1228V32.0668L45.1292 32.0348C45.1313 32.0587 45.1313 32.0828 45.1292 32.1068L45.1052 32.1788C45.0892 32.2268 45.0652 32.2428 45.0412 32.2908C45.0092 32.3388 45.0012 32.3708 44.9612 32.4108L44.9132 32.4668L44.8652 32.5388L44.7932 32.6188C44.7372 32.6668 44.6972 32.6348 44.6332 32.6908L44.6092 32.7708L44.7212 32.8188L44.8252 32.8348L44.8572 32.8188C44.8572 32.7948 44.8572 32.7708 44.8812 32.7548C44.8972 32.7308 44.9132 32.7308 44.9372 32.7228C44.9692 32.7228 45.0012 32.7228 45.0172 32.7068C45.0492 32.6828 45.0492 32.6268 45.0732 32.5868C45.1321 32.4681 45.2136 32.3622 45.3132 32.2748L45.4492 32.1628C45.4652 32.1308 45.4892 32.1228 45.4892 32.0828L45.4732 32.0348L45.4572 31.9548C45.5772 32.0108 45.5372 32.0108 45.5532 32.0668C45.5772 32.1148 45.5532 32.1468 45.5612 32.2028C45.5692 32.2668 45.6012 32.2908 45.6012 32.3548C45.6092 32.4268 45.5932 32.4668 45.5772 32.5388C45.5692 32.6028 45.5692 32.6428 45.5372 32.6988C45.5182 32.7455 45.488 32.7867 45.4492 32.8188L45.4012 32.8588L45.3932 32.9388L45.4812 32.9708L45.6092 33.0028L45.6412 32.9788C45.6572 32.9228 45.6412 32.8428 45.6732 32.8428C45.7052 32.8348 45.7292 32.8428 45.7372 32.8188V32.7628L45.7932 32.4028L45.8252 32.2508L45.8572 32.1148C45.9132 31.9548 45.8412 31.9308 45.7772 31.8268C45.7372 31.7708 45.7212 31.7468 45.7212 31.7068V31.4748C45.7187 31.4001 45.7187 31.3254 45.7212 31.2508L45.7532 31.2348C45.8492 31.1788 45.8892 31.1628 45.9452 31.0348C45.9622 30.9971 45.9704 30.9561 45.9692 30.9148V30.8348L45.9372 30.7548C45.9246 30.7311 45.9084 30.7095 45.8892 30.6908C45.8332 30.6108 45.7532 30.6028 45.6732 30.5708C45.5532 30.5308 45.4732 30.5388 45.3532 30.5308C45.2092 30.5148 45.1372 30.5148 45.0012 30.5308C44.8412 30.5308 44.7532 30.5628 44.5932 30.5868L44.2012 30.6188C44.0172 30.6188 43.8492 30.5788 43.7372 30.5868C43.5452 30.6028 43.5372 30.6508 43.2412 30.6748C43.14 30.683 43.0387 30.6883 42.9372 30.6908L42.7612 30.6348C42.8332 30.6108 42.8492 30.5948 42.8812 30.5548C42.9052 30.5228 42.8972 30.4988 42.9292 30.4668L42.9852 30.3868C42.9639 30.3708 42.9393 30.3599 42.9132 30.3548H42.8332C42.7999 30.356 42.7672 30.3642 42.7372 30.3788L42.6732 30.4268L42.4972 30.3308C42.4221 30.2926 42.3408 30.2682 42.2572 30.2588V30.2748Z" fill="#D52B1E"/>
<path d="M45.7953 31.2748L45.7313 31.2987C45.6593 31.3307 45.6033 31.3307 45.5233 31.3387C45.3153 31.3547 45.1793 31.2508 44.9633 31.2668C44.8513 31.2748 44.8033 31.3628 44.6833 31.3948C44.6386 31.4043 44.593 31.4096 44.5473 31.4108L44.5873 31.3308C44.5873 31.3308 44.4913 31.3548 44.4273 31.3548C44.3842 31.354 44.3413 31.3487 44.2993 31.3387L44.3793 31.2587L44.2753 31.2428C44.2459 31.2283 44.219 31.2094 44.1953 31.1868C44.241 31.1807 44.2863 31.1727 44.3313 31.1628C44.4513 31.1308 44.4913 31.0668 44.6433 31.0508C44.7313 31.0508 44.8833 31.0508 45.2513 31.1148C45.4913 31.1548 45.6033 31.1308 45.6913 31.0908C45.7553 31.0668 45.7713 31.0108 45.7793 30.9468C45.7873 30.8828 45.7473 30.8348 45.7153 30.8028C45.7073 30.8028 45.6753 30.7788 45.6273 30.7708" stroke="#FEDF00" stroke-width="0.08" stroke-linecap="round"/>
<path d="M42.2738 30.5627C42.2338 30.5627 42.2018 30.5627 42.1698 30.5867C42.1298 30.6107 42.1218 30.6427 42.0898 30.6747C42.1298 30.6827 42.1538 30.7067 42.1858 30.6987C42.2178 30.6987 42.2258 30.6827 42.2498 30.6587C42.2738 30.6267 42.2818 30.6027 42.2818 30.5627H42.2738Z" fill="#FCD900" stroke="#FEDF00" stroke-width="0.04"/>
<path d="M43.1721 31.6188C43.1931 31.6824 43.2198 31.744 43.2521 31.8028C43.2681 31.8668 43.2521 31.8988 43.2681 31.9628V32.0908M43.8121 31.5308L43.7881 31.6348L43.7081 31.9148V31.9708M42.8281 31.6508C42.9001 31.6668 42.8761 31.9148 42.9801 31.9708" stroke="#FEDF00" stroke-width="0.08" stroke-linecap="round"/>
<path d="M45.0977 32.0987L45.1297 32.0747C45.2105 32.0415 45.284 31.9926 45.3457 31.9307" stroke="#FEDF00" stroke-width="0.08"/>
<path d="M44.4844 31.9547C44.7644 31.8827 44.9564 31.7467 45.0924 31.7227M44.7724 31.6027H44.8364C44.9564 31.5787 44.9724 31.6507 45.0524 31.6987C45.2044 31.7787 45.2204 31.8827 45.3964 31.9707L45.4284 31.9787L45.4924 32.0107" stroke="#FEDF00" stroke-width="0.08" stroke-linecap="round"/>
<path d="M41.707 30.8746H41.763L41.827 30.8586C41.851 30.8586 41.867 30.8586 41.883 30.8746C41.899 30.8746 41.899 30.8826 41.907 30.8986C41.907 30.9146 41.923 30.9226 41.915 30.9386C41.915 30.9546 41.891 30.9706 41.867 30.9706C41.851 30.9706 41.835 30.9706 41.827 30.9466C41.8248 30.9416 41.8237 30.9362 41.8237 30.9306C41.8237 30.9251 41.8248 30.9197 41.827 30.9146C41.8159 30.9203 41.8035 30.9232 41.791 30.9232C41.7785 30.9232 41.7662 30.9203 41.755 30.9146C41.7448 30.9115 41.7352 30.9064 41.727 30.8995C41.7187 30.8927 41.7119 30.8842 41.707 30.8746Z" fill="#FCD900" stroke="#FEDF00" stroke-width="0.04"/>
<path d="M42.2984 31.6508L42.1384 31.5788C42.1704 31.5628 42.1944 31.5628 42.2184 31.5388C42.2424 31.5068 42.2424 31.4748 42.2584 31.4348C42.2744 31.3948 42.2744 31.3548 42.3144 31.3228C42.3384 31.3068 42.3784 31.3068 42.4024 31.3148C42.4344 31.3148 42.4664 31.3468 42.4744 31.3708C42.4744 31.4188 42.4584 31.4508 42.4504 31.4908C42.4504 31.5388 42.4264 31.5628 42.4344 31.6028C42.4344 31.6348 42.4504 31.6508 42.4664 31.6828L42.3064 31.6508H42.2984ZM42.2184 31.7308C42.217 31.7215 42.2183 31.7119 42.2223 31.7034C42.2263 31.6948 42.2327 31.6876 42.2407 31.6827C42.2488 31.6777 42.2581 31.6753 42.2675 31.6756C42.277 31.6759 42.2861 31.679 42.2938 31.6845C42.3014 31.69 42.3073 31.6976 42.3107 31.7064C42.3141 31.7152 42.3148 31.7249 42.3127 31.7341C42.3106 31.7433 42.3059 31.7517 42.2991 31.7582C42.2923 31.7647 42.2837 31.7691 42.2744 31.7708C42.2675 31.772 42.2604 31.7716 42.2536 31.7697C42.2468 31.7678 42.2405 31.7645 42.2352 31.7599C42.2298 31.7553 42.2256 31.7496 42.2227 31.7432C42.2198 31.7368 42.2183 31.7298 42.2184 31.7228V31.7308ZM42.0824 30.4028H42.0664C42.0344 30.3708 42.0344 30.3388 42.0184 30.3068C42.0055 30.2762 41.9974 30.2438 41.9944 30.2108V30.0508C41.9944 30.0268 41.9944 30.0028 41.9784 29.9788C41.9784 29.9628 41.9464 29.9548 41.9544 29.9468C41.9544 29.9388 41.9784 29.9468 41.9864 29.9468C42.0184 29.9468 42.0344 29.9548 42.0664 29.9788C42.0904 30.0028 42.1064 30.0268 42.1144 30.0588L42.1464 30.1788L42.1704 30.2428L42.2104 30.2908L42.1544 30.3548L42.0824 30.4028ZM42.3704 31.2508L42.5464 31.3308C42.6669 31.2583 42.764 31.1528 42.8264 31.0268C42.8984 30.8828 42.9064 30.8108 42.9384 30.6748L42.7944 30.6348H42.7624C42.7224 30.7788 42.7064 30.8508 42.6344 30.9708C42.5704 31.0748 42.4984 31.1548 42.4264 31.2108L42.3704 31.2508ZM42.7704 32.7068L42.8344 32.6028L42.9464 32.5148H42.9784C42.9775 32.5912 42.9639 32.6668 42.9384 32.7388L42.9064 32.8188L42.8664 32.8588C42.8264 32.7948 42.7624 32.7548 42.7624 32.6988L42.7704 32.7068ZM45.4104 32.8508L45.5224 32.8988L45.6424 32.9708V33.0108L45.5224 33.0268C45.4878 33.0295 45.453 33.0295 45.4184 33.0268H45.3384L45.2904 32.9948C45.3304 32.9388 45.3544 32.8668 45.4024 32.8508H45.4104ZM44.6264 32.6908L44.7384 32.7308L44.8584 32.8108C44.8584 32.8188 44.8664 32.8348 44.8584 32.8428C44.788 32.8617 44.7152 32.8698 44.6424 32.8668L44.5624 32.8588L44.5064 32.8348C44.5544 32.7788 44.5784 32.6988 44.6264 32.6908ZM43.2344 32.8588L43.3544 32.8988L43.4744 32.9788V33.0188C43.401 33.0358 43.3255 33.0412 43.2504 33.0348H43.1704L43.1224 33.0028C43.1624 32.9468 43.1864 32.8748 43.2344 32.8588ZM42.5144 30.4748C42.4664 30.4508 42.4344 30.3948 42.4664 30.3468C42.4744 30.3308 42.4984 30.3308 42.5144 30.3148C42.5304 30.2908 42.5224 30.2748 42.5144 30.2508L42.5064 30.1708L42.4904 30.0908C42.4904 30.0428 42.4904 30.0108 42.5224 29.9628C42.5384 29.9388 42.5784 29.9148 42.5864 29.9148C42.6024 29.9228 42.5864 29.9548 42.5864 29.9788C42.5864 30.0188 42.5944 30.0348 42.6104 30.0748L42.6664 30.1788C42.6824 30.2268 42.6984 30.2428 42.6984 30.2908C42.6984 30.3308 42.6984 30.3468 42.6824 30.3868C42.6721 30.4118 42.6556 30.4339 42.6344 30.4508C42.6158 30.4662 42.5939 30.4771 42.5704 30.4828C42.5547 30.4872 42.5381 30.4872 42.5224 30.4828L42.5144 30.4748Z" fill="#0065BD"/>
<path d="M33.3008 22.4524H39.8758V29.0149H33.3008V22.4524ZM40.5758 22.4524H47.1508V29.0149H40.5758V22.4524ZM33.3258 34.7024C33.3383 34.8274 33.3883 35.0274 33.5008 35.2399C33.6258 35.4274 33.5758 35.4149 33.8383 35.7149C33.9842 35.862 34.1531 35.9844 34.3383 36.0774C34.929 36.3317 35.5714 36.4431 36.2133 36.4024C36.5508 36.3899 36.8133 36.3524 37.0383 36.3149C37.494 36.2543 37.9537 36.2292 38.4133 36.2399C38.6008 36.2399 38.7883 36.2774 39.0008 36.3149C39.4383 36.4024 39.8758 36.5649 39.8758 36.5649V29.7274H33.3008V34.3899L33.3258 34.6899V34.7024ZM47.1258 34.7024C47.0993 34.8904 47.0401 35.0723 46.9508 35.2399C46.8258 35.4274 46.8758 35.4149 46.6133 35.7149C46.4672 35.8618 46.2984 35.9843 46.1133 36.0774C45.9508 36.1649 45.8258 36.2024 45.5633 36.2774C45.1314 36.3914 44.6838 36.4336 44.2383 36.4024C43.9008 36.3899 43.6383 36.3399 43.4258 36.3149C43.1272 36.2746 42.8269 36.2496 42.5258 36.2399C42.3634 36.2321 42.2007 36.2321 42.0383 36.2399C41.8508 36.2399 41.6633 36.2774 41.4508 36.3149C41.0133 36.4024 40.5758 36.5649 40.5758 36.5649V29.7149H47.1633V34.4024L47.1383 34.7024H47.1258Z" stroke="#703D29" stroke-width="0.0625"/>
</g>
<defs>
<clipPath id="clip0_4447_17546">
<rect width="80" height="60" fill="white" transform="translate(0.289062 0.514893)"/>
</clipPath>
</defs>
</svg>
