<svg width="81" height="61" viewBox="0 0 81 61" fill="none" xmlns="http://www.w3.org/2000/svg">
<g clip-path="url(#clip0_4447_18946)">
<mask id="mask0_4447_18946" style="mask-type:luminance" maskUnits="userSpaceOnUse" x="0" y="0" width="81" height="61">
<path d="M0.292969 0.514893H80.2852V60.5149H0.292969V0.514893Z" fill="white"/>
</mask>
<g mask="url(#mask0_4447_18946)">
<path fill-rule="evenodd" clip-rule="evenodd" d="M0.292969 0.514893H80.2852V60.5149H0.292969V0.514893Z" fill="#000099"/>
<path fill-rule="evenodd" clip-rule="evenodd" d="M16.9102 0.514893L76.793 60.55V0.550049L16.9102 0.514893Z" fill="#FFCC00"/>
<path fill-rule="evenodd" clip-rule="evenodd" d="M61.8398 56.9407L58.5703 54.5618L55.2188 56.929L56.4844 53.0383L53.1797 50.636H57.2812L58.5469 46.7454L59.8008 50.6477H63.9023L60.6211 53.0735L61.8398 56.9407ZM71.3672 58.1594L67.2656 58.1477L66.0117 54.2454L64.7461 58.136H60.6445L63.9492 60.5383L62.6836 64.429L66.0352 62.0618L69.3164 64.4407L68.0859 60.5735L71.3672 58.1594ZM53.1328 45.5969L56.4141 43.1711L52.3125 43.1594L51.0586 39.2688L49.793 43.1594L45.6914 43.1477L48.9961 45.5501L47.7305 49.4524L51.082 47.0735L54.3633 49.4641L53.1328 45.5969ZM45.5977 38.0383L48.8789 35.6243L44.7773 35.6126L43.5234 31.7102L42.2461 35.6008H38.1562L41.4609 38.0032L40.1953 41.8938L43.5469 39.5266L46.8164 41.9055L45.5977 38.0383ZM38.1328 30.5852L41.4141 28.1594H37.3125L36.0703 24.2454L34.8047 28.136H30.7031L34.0078 30.5266L32.7422 34.429L36.0938 32.0501L39.375 34.4407L38.1445 30.5735L38.1328 30.5852ZM30.5859 23.0501L33.8672 20.636L29.7656 20.6243L28.5117 16.7219L27.2344 20.6126H23.1445L26.4609 23.0149L25.1953 26.9055L28.5469 24.5383L31.8164 26.9172L30.5977 23.0501H30.5859ZM23.1328 15.5618L26.4023 13.136H22.3008L21.0586 9.22192L19.7812 13.1243H15.6797L19.0078 15.5149L17.7305 19.4055L21.082 17.0383L24.3398 19.429L23.1328 15.5618ZM15.6328 8.06177L18.9023 5.63599H14.8008L13.5586 1.72192L12.2812 5.62427H8.17969L11.5078 8.01489L10.2188 11.9172L13.582 9.53833L16.8398 11.929L15.6328 8.06177ZM8.13281 0.561768L11.3906 -1.86401H7.28906L6.03516 -5.76636L4.78125 -1.87573H0.679688L3.99609 0.514893L2.73047 4.40552L6.08203 2.03833L9.33984 4.42896L8.13281 0.561768Z" fill="white"/>
</g>
</g>
<defs>
<clipPath id="clip0_4447_18946">
<rect width="80" height="60" fill="white" transform="translate(0.289062 0.514893)"/>
</clipPath>
</defs>
</svg>
