<svg width="81" height="61" viewBox="0 0 81 61" fill="none" xmlns="http://www.w3.org/2000/svg">
<g clip-path="url(#clip0_4447_32083)">
<path d="M0.289062 0.514893H80.2891V60.5149H0.289062V0.514893Z" fill="#0067C6"/>
<path d="M0.289062 20.5149H80.2891V40.5149H0.289062V20.5149Z" fill="white"/>
<path d="M31.2891 30.4524L32.2891 30.5149V30.3649L31.9141 30.3399L31.9391 29.8649L32.3516 29.5649L32.3641 29.3774L31.9266 29.6899C31.9141 29.5899 31.8516 29.4774 31.7516 29.4399C31.6516 29.4149 31.5516 29.4149 31.4641 29.4774C31.3641 29.5524 31.3391 29.6774 31.3391 29.7899L31.2891 30.4524ZM31.4391 30.3149L31.4766 29.8149C31.4891 29.7399 31.5016 29.6399 31.5766 29.5899C31.5924 29.5793 31.6105 29.5724 31.6294 29.5699C31.6483 29.5673 31.6675 29.5691 31.6856 29.5752C31.7037 29.5812 31.7202 29.5913 31.7338 29.6047C31.7474 29.6181 31.7577 29.6344 31.7641 29.6524C31.8141 29.7774 31.7891 29.9149 31.7766 30.0524L31.7641 30.3274L31.4391 30.3149ZM31.4141 28.9149L32.3891 29.1399L32.6141 28.1899C32.5682 28.1817 32.5224 28.1734 32.4766 28.1649L32.2891 28.9649L31.9891 28.9024L32.1641 28.1774L32.0266 28.1399L31.8516 28.8649L31.6016 28.8024L31.7766 28.0274L31.6266 28.0024L31.4141 28.9149ZM31.7641 27.6024L32.7141 27.9399L32.7641 27.8024L32.3891 27.6774L32.5391 27.2399C32.5641 27.1149 32.5891 26.9899 32.5266 26.8649C32.4975 26.8261 32.4597 26.7946 32.4163 26.7729C32.3729 26.7512 32.3251 26.7399 32.2766 26.7399C32.1516 26.7399 32.0766 26.8274 32.0266 26.9274C31.9516 27.0524 31.9016 27.2024 31.8641 27.3524L31.7641 27.6024ZM31.9516 27.5149L32.1016 27.0899C32.1391 27.0149 32.1766 26.9274 32.2641 26.9024C32.2814 26.8988 32.2994 26.8989 32.3167 26.9028C32.334 26.9066 32.3503 26.9141 32.3645 26.9248C32.3786 26.9354 32.3904 26.949 32.399 26.9645C32.4075 26.98 32.4127 26.9972 32.4141 27.0149C32.4391 27.1399 32.3766 27.2649 32.3391 27.3899L32.2516 27.6274L31.9516 27.5149ZM32.2891 26.3899L32.8266 26.7149C32.9266 26.7649 33.0516 26.7899 33.1641 26.7399C33.2996 26.648 33.4041 26.5173 33.4641 26.3649C33.5141 26.2399 33.5641 26.0899 33.4891 25.9649C33.4141 25.8399 33.2766 25.7899 33.1516 25.7149L32.8141 25.5149L32.7391 25.6399L33.2391 25.9399C33.3266 25.9899 33.3891 26.0649 33.3766 26.1774C33.3517 26.2918 33.3003 26.3989 33.2266 26.4899C33.1766 26.5649 33.0766 26.6274 32.9766 26.6149C32.8766 26.5899 32.7891 26.5149 32.7016 26.4649L32.3641 26.2774L32.2891 26.4024V26.3899ZM33.0141 25.2274L33.8016 25.8274L34.1766 25.3524C34.2516 25.2399 34.3016 25.1024 34.2641 24.9774C34.2408 24.9293 34.2056 24.8879 34.1619 24.8573C34.1181 24.8267 34.0672 24.8078 34.0141 24.8024C33.9516 24.8024 33.8891 24.8399 33.8641 24.8524C33.8891 24.7399 33.8016 24.6399 33.7141 24.6149C33.5891 24.5774 33.4641 24.6524 33.3891 24.7399L33.1391 25.0524L33.0141 25.2274ZM33.2141 25.1899C33.3016 25.0649 33.3891 24.9399 33.4891 24.8399C33.5391 24.7899 33.6141 24.7149 33.6766 24.7649C33.7391 24.7899 33.7641 24.8774 33.7266 24.9274C33.6766 25.0399 33.6016 25.1149 33.5266 25.2149L33.4266 25.3524L33.2141 25.1899ZM33.5391 25.4399L33.8266 25.0649C33.8766 25.0149 33.9516 24.9399 34.0266 24.9649C34.1016 24.9774 34.1516 25.0524 34.1266 25.1274C34.0891 25.2524 33.9891 25.3524 33.9016 25.4649L33.7766 25.6274L33.5266 25.4399H33.5391ZM33.9141 24.1649L34.6016 24.8899L35.1891 24.3274L35.0891 24.2274L34.6141 24.6774H34.6016L34.0141 24.0524L33.9141 24.1649ZM34.7891 23.3899L35.4016 24.1774L35.5266 24.0899L34.9016 23.3024L34.7891 23.3899ZM35.6891 22.7774C35.5914 22.8347 35.5063 22.9113 35.4391 23.0024C35.3823 23.0776 35.3505 23.1687 35.3483 23.2629C35.346 23.3571 35.3734 23.4496 35.4266 23.5274C35.475 23.6069 35.5441 23.6717 35.6266 23.7149C35.7033 23.7553 35.7902 23.7727 35.8766 23.7649C35.997 23.749 36.1123 23.7063 36.2141 23.6399C36.3181 23.5803 36.4044 23.494 36.4641 23.3899C36.5141 23.2899 36.5266 23.1899 36.5016 23.0899L36.3766 23.1399C36.4016 23.3399 36.2766 23.4399 36.1266 23.5149C35.9016 23.6649 35.6891 23.6524 35.5516 23.4524C35.4141 23.2149 35.5516 23.0274 35.7516 22.9024C35.8891 22.8149 36.0266 22.7524 36.1516 22.8399L36.2641 22.7399C36.1915 22.6876 36.1034 22.6612 36.0141 22.6649C35.9016 22.6649 35.8016 22.7149 35.6891 22.7899V22.7774ZM36.8766 22.1899L36.7641 23.3149L36.9266 23.2524L36.9516 22.9024L37.4516 22.7024L37.7266 22.9274L37.8766 22.8649L37.0266 22.1274L36.8766 22.1899ZM37.0016 22.3149L37.3391 22.5899L36.9641 22.7399L37.0016 22.3024V22.3149ZM39.0641 21.5649L39.1266 22.5649L39.6641 22.5399C39.8141 22.5149 39.9641 22.4899 40.0516 22.3649C40.1766 22.2399 40.2016 22.0274 40.1391 21.8524C40.1154 21.7764 40.0715 21.7083 40.012 21.6555C39.9525 21.6026 39.8798 21.567 39.8016 21.5524C39.6516 21.5274 39.5016 21.5524 39.3516 21.5524L39.0641 21.5774V21.5649ZM39.2141 21.7024L39.6516 21.6899C39.7313 21.6862 39.8101 21.7081 39.8766 21.7524C39.9766 21.8274 40.0391 21.9399 40.0266 22.0649C40.0211 22.1346 39.9941 22.201 39.9494 22.2547C39.9046 22.3085 39.8442 22.347 39.7766 22.3649C39.7016 22.3899 39.6141 22.3899 39.5391 22.4024L39.2641 22.4149L39.2141 21.7024ZM40.4641 21.5149L40.4016 22.5149L41.3766 22.5649V22.4274L40.5516 22.3774L40.5641 22.0774L41.3141 22.1149V21.9774L40.5766 21.9399L40.5891 21.6649L41.3891 21.7149V21.5649L40.4516 21.5149H40.4641ZM43.0641 21.9274L42.7016 22.8649L42.8266 22.9149L43.1266 22.1649V22.1399L43.1516 22.1774L43.5016 23.1774L43.6641 23.2399L44.0266 22.3024L43.9016 22.2524L43.6141 23.0024L43.6016 23.0274L43.5766 22.9899L43.2391 21.9899L43.0641 21.9274ZM44.4141 22.5149L43.9516 23.3899L43.8266 23.3274L44.2766 22.4399L44.4141 22.5149ZM45.1641 22.9524C45.0732 22.8915 44.9713 22.8491 44.8641 22.8274C44.7716 22.8012 44.6732 22.8052 44.5832 22.839C44.4933 22.8727 44.4165 22.9344 44.3641 23.0149C44.3158 23.094 44.2899 23.1847 44.2891 23.2774C44.2891 23.3649 44.3016 23.4524 44.3641 23.5399C44.4141 23.6274 44.4891 23.7024 44.6141 23.7899C44.7148 23.8583 44.8306 23.9012 44.9516 23.9149C45.0505 23.9177 45.1474 23.8868 45.2266 23.8274L45.1266 23.7149C44.9516 23.8399 44.8141 23.7524 44.6766 23.6649C44.4516 23.5149 44.3641 23.3149 44.5016 23.1024C44.6516 22.8774 44.8891 22.9399 45.0891 23.0649C45.2141 23.1524 45.3391 23.2524 45.3141 23.4024L45.4391 23.4524C45.4539 23.3672 45.4408 23.2795 45.4016 23.2024C45.3516 23.1024 45.2766 23.0274 45.1641 22.9524ZM46.1141 23.6649L45.0766 24.0899L45.2016 24.2024L45.5266 24.0774L45.9391 24.4274L45.8516 24.7649L45.9766 24.8774L46.2391 23.7774L46.1141 23.6649ZM46.0766 23.8399L45.9766 24.2649L45.6641 24.0149L46.0766 23.8399ZM46.8766 24.3649L46.1016 24.9899L46.1891 25.1149L46.5016 24.8649L46.8016 25.2399L46.7141 25.7399L46.8266 25.8774L46.9266 25.3524C47.0141 25.4149 47.1391 25.4524 47.2391 25.4024C47.3266 25.3524 47.4141 25.2774 47.4141 25.1774C47.4141 25.0399 47.3266 24.9274 47.2516 24.8274L46.8766 24.3649ZM46.8516 24.5649L47.1766 24.9649C47.2266 25.0399 47.2891 25.1399 47.2266 25.2149C47.1891 25.2899 47.0891 25.2899 47.0266 25.2399C46.9016 25.1524 46.8266 25.0274 46.7266 24.9149L46.6016 24.7774L46.8516 24.5649ZM48.0391 25.9524L46.9141 26.0024L47.0016 26.1524L47.3516 26.1399L47.6266 26.6149L47.4266 26.9024L47.5141 27.0524L48.1266 26.1024L48.0391 25.9524ZM47.9516 26.1024L47.7016 26.4774L47.5141 26.1274L47.9516 26.1024ZM48.6891 27.2774C48.6266 27.1149 48.5266 26.9399 48.3516 26.8524C48.2571 26.8087 48.1508 26.7973 48.0492 26.8199C47.9476 26.8424 47.8562 26.8978 47.7891 26.9774C47.6641 27.1024 47.6641 27.2899 47.7016 27.4649C47.7391 27.6524 47.8266 27.8399 47.9516 27.9774L47.8766 28.0024L47.9266 28.1399L48.4016 27.9774L48.2141 27.4649L48.1141 27.5024L48.2391 27.8774L48.0891 27.9399C47.9534 27.8134 47.8615 27.647 47.8266 27.4649C47.7891 27.3274 47.7891 27.1649 47.8891 27.0649C48.0141 26.9399 48.2141 26.9024 48.3516 27.0024C48.4891 27.1024 48.5641 27.2649 48.6016 27.4274C48.6391 27.5399 48.6266 27.6649 48.5516 27.7524C48.5266 27.7524 48.5516 27.7899 48.5641 27.8024L48.6016 27.8649C48.6439 27.8325 48.6783 27.791 48.7021 27.7433C48.726 27.6956 48.7386 27.6432 48.7391 27.5899C48.7415 27.4836 48.7246 27.3777 48.6891 27.2774ZM48.9766 28.0649L48.4141 28.1649C48.3277 28.1775 48.2459 28.2119 48.1766 28.2649C48.1224 28.3138 48.087 28.3801 48.0766 28.4524V28.7524C48.1141 28.8774 48.1516 28.9649 48.2016 29.0399C48.2391 29.1149 48.2891 29.1649 48.3516 29.1649C48.4336 29.1861 48.5196 29.1861 48.6016 29.1649L49.1641 29.0649L49.1391 28.9274L48.5891 29.0274C48.3391 29.0774 48.2641 28.9524 48.2141 28.7274C48.1766 28.5024 48.2141 28.3524 48.4516 28.3149L49.0016 28.2024L48.9766 28.0649ZM49.2766 29.7649L48.2391 29.3149L48.2516 29.4899L48.5766 29.6149L48.6141 30.1649L48.3141 30.3524L48.3266 30.5149L49.2891 29.9274L49.2766 29.7649ZM49.1266 29.8524L48.7516 30.0899L48.7266 29.6899L49.1266 29.8524ZM32.0641 32.3524L31.9141 32.3899L32.0766 33.0024L32.2266 32.9649L32.0641 32.3524ZM48.5141 32.3524L48.6641 32.3899L48.5016 33.0024L48.3516 32.9649L48.5141 32.3524ZM33.6141 34.9149L32.4891 35.0399L32.5891 35.1774L32.9391 35.1399L33.2391 35.5899L33.0641 35.9024L33.1641 36.0274L33.7016 35.0524L33.6141 34.9149ZM33.5266 35.0774L33.3141 35.4524L33.0891 35.1274L33.5266 35.0774ZM34.0391 35.5274L33.3266 36.1899L33.4266 36.2899L34.0266 35.7274L33.7016 36.6024L33.8266 36.7149L34.6766 36.4649L34.0891 37.0024L34.1891 37.1024L34.9016 36.4399L34.7516 36.2899L33.8766 36.5399L34.2016 35.7024L34.0391 35.5274ZM35.0766 36.5774L34.4766 37.3899L35.2516 37.9649L35.3391 37.8524L34.6766 37.3524L34.8641 37.1024L35.4516 37.5649L35.5391 37.4399L34.9516 37.0024L35.1141 36.7899L35.7391 37.2649L35.8266 37.1399L35.0766 36.5774ZM36.0516 37.3024L35.5891 38.1774L35.7141 38.2524L35.9016 37.9024L36.3266 38.1274L36.4266 38.6274L36.5891 38.7149L36.4766 38.1899C36.5891 38.2274 36.7266 38.2024 36.7891 38.1149C36.8516 38.0399 36.9016 37.9524 36.8641 37.8524C36.8391 37.7274 36.7016 37.6524 36.6016 37.5899L36.0516 37.3024ZM36.1141 37.4899L36.5641 37.7399C36.6391 37.7899 36.7266 37.8524 36.7141 37.9399C36.7141 38.0274 36.6266 38.0649 36.5516 38.0524C36.4016 38.0274 36.2766 37.9399 36.1516 37.8774L35.9641 37.7774L36.1141 37.4899ZM37.1891 37.8899L36.8141 38.8149L36.9391 38.8774L37.3141 37.9524L37.1891 37.8899ZM38.0891 38.2024C37.9851 38.1644 37.8746 38.1474 37.7641 38.1524C37.6678 38.154 37.5745 38.1864 37.498 38.2449C37.4215 38.3034 37.3658 38.3849 37.3391 38.4774C37.3163 38.5634 37.3163 38.6539 37.3391 38.7399C37.3391 38.8399 37.3891 38.9149 37.4641 38.9899C37.5502 39.0664 37.6529 39.122 37.7641 39.1524C37.8803 39.1937 38.0057 39.2023 38.1266 39.1774C38.225 39.1584 38.3135 39.1053 38.3766 39.0274L38.2516 38.9524C38.1266 39.1149 37.9641 39.0774 37.8016 39.0149C37.5516 38.9274 37.4141 38.7649 37.4891 38.5149C37.5766 38.2649 37.8266 38.2649 38.0391 38.3274C38.1891 38.3774 38.3266 38.4524 38.3391 38.5899L38.4891 38.6149C38.4822 38.5209 38.4423 38.4324 38.3766 38.3649C38.2957 38.2878 38.1969 38.2319 38.0891 38.2024ZM39.0891 38.4274L38.4391 39.3399L38.6016 39.3649L38.8016 39.0774L39.3516 39.1649L39.4641 39.4899L39.6266 39.5149L39.2516 38.4524L39.0891 38.4274ZM39.1516 38.5899L39.3016 39.0149L38.9016 38.9524L39.1516 38.5899ZM41.4391 38.4399C41.3141 38.4524 41.2266 38.4899 41.1391 38.5524C41.0564 38.6005 40.9913 38.6737 40.9531 38.7614C40.9149 38.8491 40.9056 38.9466 40.9266 39.0399C40.9391 39.1274 40.9766 39.2024 41.0516 39.2899C41.1016 39.3524 41.1766 39.3899 41.2766 39.4149C41.3641 39.4399 41.4891 39.4399 41.6266 39.4149C41.7516 39.3899 41.8766 39.3399 41.9516 39.2649C42.0248 39.1999 42.0734 39.1116 42.0891 39.0149H41.9391C41.9016 39.2149 41.7516 39.2649 41.5891 39.2899C41.3266 39.3399 41.1266 39.2524 41.0766 39.0024C41.0266 38.7399 41.2391 38.6149 41.4516 38.5649C41.6141 38.5399 41.7641 38.5274 41.8516 38.6524L41.9766 38.6024C41.9296 38.5276 41.8593 38.4705 41.7766 38.4399C41.6659 38.4113 41.5497 38.4113 41.4391 38.4399ZM42.1016 38.3149L42.3891 39.2774L43.3266 39.0024L43.2766 38.8649L42.4891 39.1024L42.4016 38.8024L43.1141 38.5899L43.0766 38.4649L42.3641 38.6649L42.2891 38.4149L43.0391 38.1899L43.0016 38.0524L42.1016 38.3149ZM43.1891 37.9774L43.6016 38.8899L43.7266 38.8274L43.3766 38.0774L44.3516 38.5149H44.4141L44.5391 38.4524L44.1141 37.5399L43.9891 37.6024L44.3391 38.3524L43.3391 37.9024L43.1891 37.9774ZM44.2891 37.4649L44.3641 37.5899L44.7141 37.3399H44.7391L45.2016 38.0524L45.3266 37.9649L44.8641 37.2649V37.2524L45.2266 37.0024L45.1516 36.8899L44.2891 37.4649ZM45.2891 36.7649L45.9641 37.5149L46.0766 37.4024L45.8141 37.1149L46.1641 36.7899L46.6641 36.8649L46.8141 36.7399L46.2766 36.6649C46.3391 36.5774 46.3641 36.4399 46.3016 36.3399C46.2516 36.2524 46.1766 36.1774 46.0641 36.1899C45.9391 36.1899 45.8141 36.2899 45.7266 36.3649L45.2891 36.7774V36.7649ZM45.4891 36.7774L45.8641 36.4274C45.9391 36.3774 46.0391 36.3149 46.1141 36.3649C46.2016 36.4024 46.2016 36.5024 46.1516 36.5649C46.0766 36.6899 45.9641 36.7774 45.8516 36.8899L45.7141 37.0149L45.4891 36.7649V36.7774ZM46.4516 35.6024L46.9016 36.6399L47.0016 36.5149L46.8766 36.1899L47.2141 35.7649L47.5516 35.8399L47.6641 35.7149L46.5641 35.4649L46.4516 35.6024ZM46.6266 35.6399L47.0641 35.7274L46.8141 36.0399L46.6266 35.6399ZM46.8891 35.0399L47.7266 35.5774L48.1641 34.9024L48.0391 34.8274L47.7016 35.3649L47.6891 35.3899H47.6766L46.9641 34.9149L46.8891 35.0399Z" fill="#C8A400"/>
<mask id="mask0_4447_32083" style="mask-type:luminance" maskUnits="userSpaceOnUse" x="33" y="23" width="14" height="12">
<path d="M40.288 23.1548L33.918 34.1848H46.658L40.288 23.1548Z" fill="white"/>
</mask>
<g mask="url(#mask0_4447_32083)">
<path d="M40.2877 23.1548L37.1377 28.6048L35.5977 31.2748H44.9777L43.5077 28.7348L40.2877 23.1548Z" fill="white"/>
<path opacity="0.6" d="M40.2869 23.1548L40.0469 23.5548L40.2869 29.0548L40.5269 23.5548L40.2869 23.1548Z" fill="#17C0EB" stroke="#17C0EB" stroke-width="0.01"/>
<path d="M40.2873 28.2649H40.2773L40.2873 28.5649L40.2973 28.2649H40.2873Z" fill="white"/>
<path opacity="0.6" d="M45.9101 27.2385L45.4555 27.1339L40.2989 29.0617L45.6038 27.5904L45.9101 27.2385Z" fill="#17C0EB" stroke="#17C0EB" stroke-width="0.01"/>
<path d="M41.05 28.8176L41.0469 28.8081L40.7646 28.9103L41.0531 28.8271L41.05 28.8176Z" fill="white"/>
<path opacity="0.6" d="M43.7629 33.8461L43.7219 33.3815L40.2949 29.0729L43.3336 33.6636L43.7629 33.8461Z" fill="#17C0EB" stroke="#17C0EB" stroke-width="0.01"/>
<path d="M40.7575 29.7122L40.7656 29.7063L40.5812 29.4695L40.7494 29.7181L40.7575 29.7122Z" fill="white"/>
<path opacity="0.6" d="M36.8136 33.846L37.2429 33.6635L40.2816 29.0728L36.8546 33.3813L36.8136 33.846Z" fill="#17C0EB" stroke="#17C0EB" stroke-width="0.01"/>
<path d="M39.8161 29.7119L39.8242 29.7178L39.9925 29.4692L39.808 29.706L39.8161 29.7119Z" fill="white"/>
<path opacity="0.6" d="M34.6679 27.2385L34.9742 27.5904L40.2791 29.0617L35.1225 27.1339L34.6679 27.2385Z" fill="#17C0EB" stroke="#17C0EB" stroke-width="0.01"/>
<path d="M39.5265 28.8176L39.5234 28.8271L39.8118 28.9103L39.5296 28.8081L39.5265 28.8176Z" fill="white"/>
<path opacity="0.6" d="M41.1127 23.2126L40.8193 23.5753L40.2915 29.0552L41.2947 23.6421L41.1127 23.2126Z" fill="#17C0EB" stroke="#17C0EB" stroke-width="0.01"/>
<path d="M40.4005 28.2729L40.3906 28.2715L40.3588 28.57L40.4104 28.2743L40.4005 28.2729Z" fill="white"/>
<path opacity="0.6" d="M46.1081 28.0388L45.6725 27.8719L40.2977 29.0634L45.7558 28.3447L46.1081 28.0388Z" fill="#17C0EB" stroke="#17C0EB" stroke-width="0.01"/>
<path d="M41.076 28.9261L41.0742 28.9163L40.7805 28.9782L41.0777 28.936L41.076 28.9261Z" fill="white"/>
<path opacity="0.6" d="M43.0654 34.2831L43.0896 33.8172L40.2956 29.0737L42.6657 34.0426L43.0654 34.2831Z" fill="#17C0EB" stroke="#17C0EB" stroke-width="0.01"/>
<path d="M40.667 29.7713L40.6758 29.7666L40.5261 29.5064L40.6581 29.776L40.667 29.7713Z" fill="white"/>
<path opacity="0.6" d="M36.1828 33.3162L36.6333 33.1952L40.2813 29.0721L36.288 32.8617L36.1828 33.3162Z" fill="#17C0EB" stroke="#17C0EB" stroke-width="0.01"/>
<path d="M39.7311 29.6403L39.7383 29.6472L39.9395 29.4245L39.7239 29.6333L39.7311 29.6403Z" fill="white"/>
<path opacity="0.6" d="M34.9763 26.4742L35.2306 26.8653L40.2792 29.0606L35.441 26.4339L34.9763 26.4742Z" fill="#17C0EB" stroke="#17C0EB" stroke-width="0.01"/>
<path d="M39.5708 28.7144L39.5664 28.7234L39.8404 28.8459L39.5752 28.7054L39.5708 28.7144Z" fill="white"/>
<path opacity="0.6" d="M41.9143 23.384L41.5733 23.7024L40.288 29.0555L42.0347 23.8347L41.9143 23.384Z" fill="#17C0EB" stroke="#17C0EB" stroke-width="0.01"/>
<path d="M40.5057 28.296L40.4961 28.2932L40.423 28.5843L40.5153 28.2987L40.5057 28.296Z" fill="white"/>
<path opacity="0.6" d="M46.192 28.8587L45.7838 28.6329L40.2956 29.0647L45.8006 29.1126L46.192 28.8587Z" fill="#17C0EB" stroke="#17C0EB" stroke-width="0.01"/>
<path d="M41.0863 29.0371L41.0859 29.0271L40.7865 29.0476L41.0866 29.0471L41.0863 29.0371Z" fill="white"/>
<path opacity="0.6" d="M42.3096 34.6185L42.3983 34.1605L40.2917 29.0743L41.9473 34.3247L42.3096 34.6185Z" fill="#17C0EB" stroke="#17C0EB" stroke-width="0.01"/>
<path d="M40.5609 29.8167L40.5703 29.8132L40.4583 29.5347L40.5515 29.8201L40.5609 29.8167Z" fill="white"/>
<path opacity="0.6" d="M35.6296 32.7035L36.0925 32.6463L40.2788 29.0711L35.797 32.2681L35.6296 32.7035Z" fill="#17C0EB" stroke="#17C0EB" stroke-width="0.01"/>
<path d="M39.6579 29.5573L39.6641 29.5652L39.8943 29.3726L39.6517 29.5494L39.6579 29.5573Z" fill="white"/>
<path opacity="0.6" d="M35.3881 25.7603L35.5855 26.1829L40.2794 29.0595L35.8539 25.785L35.3881 25.7603Z" fill="#17C0EB" stroke="#17C0EB" stroke-width="0.01"/>
<path d="M39.6228 28.6177L39.6172 28.626L39.8715 28.7854L39.6284 28.6094L39.6228 28.6177Z" fill="white"/>
<path opacity="0.6" d="M42.6919 23.666L42.31 23.9338L40.2922 29.0559L42.7485 24.129L42.6919 23.666Z" fill="#17C0EB" stroke="#17C0EB" stroke-width="0.01"/>
<path d="M40.6146 28.3341L40.6055 28.3301L40.4926 28.6082L40.6237 28.3382L40.6146 28.3341Z" fill="white"/>
<path opacity="0.6" d="M46.1663 29.6828L45.7936 29.4023L40.2986 29.0661L45.7434 29.8796L46.1663 29.6828Z" fill="#17C0EB" stroke="#17C0EB" stroke-width="0.01"/>
<path d="M41.0849 29.1486L41.0859 29.1387L40.7865 29.1173L41.0838 29.1586L41.0849 29.1486Z" fill="white"/>
<path opacity="0.6" d="M41.5152 34.8458L41.6668 34.4046L40.2886 29.0747L41.1973 34.5044L41.5152 34.8458Z" fill="#17C0EB" stroke="#17C0EB" stroke-width="0.01"/>
<path d="M40.4512 29.8475L40.4609 29.8455L40.3888 29.5541L40.4414 29.8496L40.4512 29.8475Z" fill="white"/>
<path opacity="0.6" d="M35.1691 32.0199L35.6355 32.0278L40.2786 29.0699L35.3955 31.6121L35.1691 32.0199Z" fill="#17C0EB" stroke="#17C0EB" stroke-width="0.01"/>
<path d="M39.5927 29.465L39.5977 29.4736L39.8525 29.315L39.5877 29.4563L39.5927 29.465Z" fill="white"/>
<path opacity="0.6" d="M35.895 25.1105L36.0316 25.5565L40.2795 29.0583L36.3528 25.1998L35.895 25.1105Z" fill="#17C0EB" stroke="#17C0EB" stroke-width="0.01"/>
<path d="M39.6942 28.5297L39.6875 28.5371L39.9171 28.7304L39.7009 28.5222L39.6942 28.5297Z" fill="white"/>
<path opacity="0.6" d="M43.4184 24.053L43.0029 24.265L40.2919 29.0564L43.4099 24.5194L43.4184 24.053Z" fill="#17C0EB" stroke="#17C0EB" stroke-width="0.01"/>
<path d="M40.7116 28.3864L40.7031 28.3811L40.5526 28.6408L40.7201 28.3917L40.7116 28.3864Z" fill="white"/>
<path opacity="0.6" d="M46.024 30.4948L45.6939 30.1652L40.2992 29.0675L45.5778 30.6309L46.024 30.4948Z" fill="#17C0EB" stroke="#17C0EB" stroke-width="0.01"/>
<path d="M41.064 29.2587L41.0664 29.249L40.7729 29.1862L41.0616 29.2684L41.064 29.2587Z" fill="white"/>
<path opacity="0.6" d="M40.6981 34.9606L40.9096 34.5448L40.2865 29.075L40.4308 34.5783L40.6981 34.9606Z" fill="#17C0EB" stroke="#17C0EB" stroke-width="0.01"/>
<path d="M40.3416 29.863L40.3516 29.8623L40.3207 29.5637L40.3316 29.8637L40.3416 29.863Z" fill="white"/>
<path opacity="0.6" d="M34.8085 31.2789L35.2693 31.3516L40.2789 29.0688L35.0895 30.9066L34.8085 31.2789Z" fill="#17C0EB" stroke="#17C0EB" stroke-width="0.01"/>
<path d="M39.547 29.3648L39.5508 29.374L39.8252 29.2524L39.5433 29.3555L39.547 29.3648Z" fill="white"/>
<path opacity="0.6" d="M36.4885 24.5376L36.5618 24.9983L40.281 29.0573L36.9295 24.6898L36.4885 24.5376Z" fill="#17C0EB" stroke="#17C0EB" stroke-width="0.01"/>
<path d="M39.7733 28.4521L39.7656 28.4585L39.9661 28.6819L39.7809 28.4456L39.7733 28.4521Z" fill="white"/>
<path opacity="0.6" d="M44.0901 24.5376L43.6491 24.6897L40.2977 29.0572L44.0168 24.9983L44.0901 24.5376Z" fill="#17C0EB" stroke="#17C0EB" stroke-width="0.01"/>
<path d="M40.8045 28.452L40.7969 28.4456L40.6117 28.6818L40.8122 28.4584L40.8045 28.452Z" fill="white"/>
<path opacity="0.6" d="M45.7695 31.2789L45.4885 30.9066L40.2991 29.0687L45.3087 31.3516L45.7695 31.2789Z" fill="#17C0EB" stroke="#17C0EB" stroke-width="0.01"/>
<path d="M41.0314 29.3647L41.0352 29.3555L40.7533 29.2524L41.0277 29.374L41.0314 29.3647Z" fill="white"/>
<path opacity="0.6" d="M39.8778 34.9606L40.1451 34.5783L40.2893 29.0749L39.6663 34.5448L39.8778 34.9606Z" fill="#17C0EB" stroke="#17C0EB" stroke-width="0.01"/>
<path d="M40.2361 29.8631L40.2461 29.8638L40.257 29.5638L40.2261 29.8624L40.2361 29.8631Z" fill="white"/>
<path opacity="0.6" d="M34.5552 30.4947L35.0014 30.6308L40.28 29.0673L34.8853 30.165L34.5552 30.4947Z" fill="#17C0EB" stroke="#17C0EB" stroke-width="0.01"/>
<path d="M39.5132 29.2584L39.5156 29.2681L39.8043 29.1858L39.5108 29.2487L39.5132 29.2584Z" fill="white"/>
<path opacity="0.6" d="M37.1567 24.053L37.1651 24.5194L40.2832 29.0565L37.5722 24.265L37.1567 24.053Z" fill="#17C0EB" stroke="#17C0EB" stroke-width="0.01"/>
<path d="M39.8639 28.3865L39.8555 28.3918L40.0229 28.641L39.8724 28.3812L39.8639 28.3865Z" fill="white"/>
<path opacity="0.6" d="M44.6801 25.1102L44.2223 25.1995L40.2956 29.0581L44.5435 25.5562L44.6801 25.1102Z" fill="#17C0EB" stroke="#17C0EB" stroke-width="0.01"/>
<path d="M40.8817 28.5294L40.875 28.522L40.6587 28.7301L40.8884 28.5368L40.8817 28.5294Z" fill="white"/>
<path opacity="0.6" d="M45.4073 32.0199L45.1809 31.612L40.2978 29.0699L44.9409 32.0277L45.4073 32.0199Z" fill="#17C0EB" stroke="#17C0EB" stroke-width="0.01"/>
<path d="M40.9833 29.465L40.9883 29.4563L40.7235 29.315L40.9783 29.4736L40.9833 29.465Z" fill="white"/>
<path opacity="0.6" d="M39.0621 34.8456L39.38 34.5042L40.2888 29.0745L38.9105 34.4045L39.0621 34.8456Z" fill="#17C0EB" stroke="#17C0EB" stroke-width="0.01"/>
<path d="M40.123 29.8473L40.1328 29.8494L40.1854 29.5538L40.1132 29.8452L40.123 29.8473Z" fill="white"/>
<path opacity="0.6" d="M34.4124 29.6827L34.8353 29.8796L40.2801 29.066L34.7851 29.4022L34.4124 29.6827Z" fill="#17C0EB" stroke="#17C0EB" stroke-width="0.01"/>
<path d="M39.495 29.1485L39.4961 29.1584L39.7934 29.1171L39.494 29.1386L39.495 29.1485Z" fill="white"/>
<path opacity="0.6" d="M37.8872 23.6658L37.8307 24.1288L40.287 29.0557L38.2692 23.9336L37.8872 23.6658Z" fill="#17C0EB" stroke="#17C0EB" stroke-width="0.01"/>
<path d="M39.9662 28.3341L39.957 28.3381L40.0882 28.6081L39.9753 28.33L39.9662 28.3341Z" fill="white"/>
<path opacity="0.6" d="M45.1889 25.76L44.7231 25.7847L40.2976 29.0592L44.9915 26.1826L45.1889 25.76Z" fill="#17C0EB" stroke="#17C0EB" stroke-width="0.01"/>
<path d="M40.9509 28.6174L40.9453 28.6091L40.7022 28.7852L40.9565 28.6257L40.9509 28.6174Z" fill="white"/>
<path opacity="0.6" d="M44.946 32.7035L44.7785 32.2681L40.2967 29.0711L44.483 32.6464L44.946 32.7035Z" fill="#17C0EB" stroke="#17C0EB" stroke-width="0.01"/>
<path d="M40.9196 29.5574L40.9258 29.5496L40.6832 29.3727L40.9135 29.5653L40.9196 29.5574Z" fill="white"/>
<path opacity="0.6" d="M38.2667 34.6186L38.629 34.3248L40.2846 29.0744L38.1779 34.1606L38.2667 34.6186Z" fill="#17C0EB" stroke="#17C0EB" stroke-width="0.01"/>
<path d="M40.014 29.8166L40.0234 29.8201L40.1166 29.5347L40.0046 29.8132L40.014 29.8166Z" fill="white"/>
<path opacity="0.6" d="M34.3834 28.8588L34.7748 29.1126L40.2798 29.0647L34.7915 28.6329L34.3834 28.8588Z" fill="#17C0EB" stroke="#17C0EB" stroke-width="0.01"/>
<path d="M39.4886 29.0371L39.4883 29.0471L39.7884 29.0476L39.489 29.0271L39.4886 29.0371Z" fill="white"/>
<path opacity="0.6" d="M38.6604 23.3838L38.5399 23.8345L40.2867 29.0552L39.0013 23.7022L38.6604 23.3838Z" fill="#17C0EB" stroke="#17C0EB" stroke-width="0.01"/>
<path d="M40.0682 28.2958L40.0586 28.2986L40.1509 28.5842L40.0778 28.2931L40.0682 28.2958Z" fill="white"/>
<path opacity="0.6" d="M45.6013 26.474L45.1366 26.4336L40.2984 29.0604L45.347 26.8651L45.6013 26.474Z" fill="#17C0EB" stroke="#17C0EB" stroke-width="0.01"/>
<path d="M41.0083 28.7141L41.0039 28.7051L40.7387 28.8456L41.0127 28.7231L41.0083 28.7141Z" fill="white"/>
<path opacity="0.6" d="M44.3938 33.3161L44.2885 32.8617L40.2953 29.072L43.9433 33.1951L44.3938 33.3161Z" fill="#17C0EB" stroke="#17C0EB" stroke-width="0.01"/>
<path d="M40.8444 29.6402L40.8516 29.6333L40.636 29.4244L40.8372 29.6472L40.8444 29.6402Z" fill="white"/>
<path opacity="0.6" d="M37.5147 34.2831L37.9144 34.0426L40.2845 29.0737L37.4905 33.8172L37.5147 34.2831Z" fill="#17C0EB" stroke="#17C0EB" stroke-width="0.01"/>
<path d="M39.913 29.7712L39.9219 29.7759L40.0539 29.5063L39.9042 29.7665L39.913 29.7712Z" fill="white"/>
<path opacity="0.6" d="M34.4714 28.0385L34.8236 28.3444L40.2817 29.0631L34.907 27.8717L34.4714 28.0385Z" fill="#17C0EB" stroke="#17C0EB" stroke-width="0.01"/>
<path d="M39.5056 28.9259L39.5039 28.9358L39.8011 28.978L39.5074 28.9161L39.5056 28.9259Z" fill="white"/>
<path opacity="0.6" d="M39.4681 23.2122L39.2861 23.6417L40.2893 29.0548L39.7615 23.5749L39.4681 23.2122Z" fill="#17C0EB" stroke="#17C0EB" stroke-width="0.01"/>
<path d="M40.1779 28.2725L40.168 28.2739L40.2196 28.5696L40.1878 28.2711L40.1779 28.2725Z" fill="white"/>
<path d="M40.2877 27.095C39.2224 27.0938 38.1926 27.4773 37.3877 28.175L35.9277 30.715C35.8754 30.9886 35.8486 31.2664 35.8477 31.545H36.3477C36.3986 30.5357 36.8353 29.5845 37.5677 28.8881C38.3001 28.1917 39.2721 27.8034 40.2827 27.8034C41.2933 27.8034 42.2652 28.1917 42.9976 28.8881C43.73 29.5845 44.1668 30.5357 44.2177 31.545H44.7177C44.72 31.2667 44.6966 30.9889 44.6477 30.715L43.1877 28.175C42.3822 27.4781 41.3527 27.0947 40.2877 27.095Z" fill="#FF0000"/>
<path d="M40.2897 27.1848C39.1596 27.1825 38.0729 27.62 37.2597 28.4048L36.0597 30.4948C35.9747 30.835 35.931 31.1842 35.9297 31.5348H36.3597C36.4306 30.541 36.8755 29.6109 37.6047 28.9319C38.3339 28.2529 39.2933 27.8754 40.2897 27.8754C41.2861 27.8754 42.2455 28.2529 42.9747 28.9319C43.7039 29.6109 44.1487 30.541 44.2197 31.5348H44.6497C44.6488 31.1809 44.6052 30.8283 44.5197 30.4848L43.3197 28.4048C42.5065 27.62 41.4198 27.1825 40.2897 27.1848Z" fill="#FF6600"/>
<path d="M40.2899 27.2649C39.6857 27.2633 39.0881 27.3899 38.5364 27.6364C37.9848 27.8829 37.4918 28.2437 37.0899 28.6949L36.2199 30.1949C36.0813 30.6313 36.0138 31.0871 36.0199 31.5449H36.3499C36.4008 30.5356 36.8376 29.5844 37.57 28.888C38.3024 28.1917 39.2743 27.8033 40.2849 27.8033C41.2955 27.8033 42.2675 28.1917 42.9999 28.888C43.7322 29.5844 44.169 30.5356 44.2199 31.5449H44.5699C44.5699 31.0749 44.4899 30.6249 44.3599 30.2049L43.4799 28.6949C43.0796 28.2445 42.5883 27.8841 42.0384 27.6376C41.4885 27.3911 40.8925 27.2641 40.2899 27.2649Z" fill="#FFFF00"/>
<path d="M40.2898 27.345C39.6001 27.3446 38.9209 27.5141 38.3122 27.8385C37.7035 28.1629 37.1841 28.6322 36.7998 29.205L36.5198 29.695C36.2365 30.2705 36.0893 30.9035 36.0898 31.545H36.3598C36.4308 30.5511 36.8757 29.621 37.6049 28.942C38.3341 28.263 39.2935 27.8855 40.2898 27.8855C41.2862 27.8855 42.2456 28.263 42.9748 28.942C43.704 29.621 44.1489 30.5511 44.2198 31.545H44.4898C44.4904 30.9035 44.3432 30.2705 44.0598 29.695L43.7798 29.195C43.3956 28.6222 42.8761 28.1529 42.2675 27.8285C41.6588 27.5041 40.9796 27.3346 40.2898 27.335V27.345Z" fill="#00FF00"/>
<path d="M40.288 27.4148C39.7461 27.4148 39.2095 27.5217 38.709 27.7294C38.2085 27.937 37.7539 28.2414 37.3712 28.625C36.9885 29.0087 36.6852 29.4641 36.4787 29.9651C36.2723 30.4661 36.1667 31.0029 36.168 31.5448H36.358C36.4289 30.5509 36.8738 29.6209 37.603 28.9419C38.3322 28.2628 39.2916 27.8853 40.288 27.8853C41.2844 27.8853 42.2438 28.2628 42.973 28.9419C43.7022 29.6209 44.147 30.5509 44.218 31.5448H44.408C44.4093 31.0029 44.3037 30.4661 44.0972 29.9651C43.8908 29.4641 43.5875 29.0087 43.2048 28.625C42.8221 28.2414 42.3675 27.937 41.8669 27.7294C41.3664 27.5217 40.8299 27.4148 40.288 27.4148Z" fill="#00CCFF"/>
<path d="M40.29 27.4949C39.2185 27.4949 38.1909 27.9205 37.4333 28.6782C36.6756 29.4358 36.25 30.4634 36.25 31.5349H36.39C36.39 30.5005 36.8009 29.5085 37.5323 28.7772C38.2637 28.0458 39.2557 27.6349 40.29 27.6349C41.3243 27.6349 42.3163 28.0458 43.0477 28.7772C43.7791 29.5085 44.19 30.5005 44.19 31.5349H44.33C44.3247 30.4669 43.8967 29.4444 43.1397 28.6911C42.3826 27.9378 41.358 27.5149 40.29 27.5149V27.4949Z" fill="#0000FF"/>
<path d="M40.2887 27.585C39.7628 27.5849 39.242 27.6896 38.757 27.8929C38.2719 28.0963 37.8322 28.3943 37.4636 28.7694C37.0949 29.1446 36.8047 29.5895 36.6099 30.078C36.415 30.5666 36.3194 31.0891 36.3287 31.615H36.4087V31.535C36.4194 30.5059 36.8383 29.5232 37.5735 28.8031C38.3086 28.083 39.2997 27.6843 40.3287 27.6949C41.3578 27.7056 42.3405 28.1245 43.0606 28.8597C43.7807 29.5948 44.1794 30.5859 44.1687 31.615H44.2487V31.535C44.2487 31.0149 44.1463 30.5 43.9473 30.0195C43.7483 29.5391 43.4566 29.1025 43.0889 28.7348C42.7212 28.3671 42.2846 28.0754 41.8042 27.8764C41.3237 27.6774 40.8088 27.575 40.2887 27.575V27.585Z" fill="#800080"/>
<path d="M40.3288 29.3249C40.2588 29.3249 40.2088 29.2749 40.1488 29.2649C40.1197 29.2906 40.0978 29.3236 40.0855 29.3604C40.0732 29.3973 40.0709 29.4368 40.0788 29.4749C40.1088 29.4849 40.1088 29.5149 40.1688 29.5649C40.2288 29.6149 40.2188 29.6349 40.2088 29.7649C40.2088 29.8049 40.2188 29.9149 40.2688 29.9249C40.3188 29.9349 40.3688 29.8949 40.3788 29.8049C40.3888 29.7349 40.4188 29.6849 40.4488 29.6449C40.4788 29.4549 40.4288 29.3849 40.3288 29.3249Z" fill="#510000"/>
<path d="M40.008 28.8648C39.948 28.8648 39.848 28.9648 39.808 28.9148C39.788 28.8848 39.778 28.8248 39.808 28.7748C39.853 28.6753 39.9306 28.5942 40.028 28.5448C40.258 28.4048 40.418 28.4448 40.528 28.6448C40.638 28.8248 40.748 29.0248 40.758 29.1848C40.758 29.2348 40.788 29.3248 40.738 29.3748C40.608 29.5148 40.278 29.2248 40.088 29.2748C40.028 29.2848 39.948 29.3348 39.888 29.2948C39.848 29.2648 39.888 29.1948 39.918 29.1648C39.978 29.1148 40.068 28.9248 40.058 28.8448C40.058 28.8048 40.058 28.8648 40.008 28.8648Z" fill="#FF0000"/>
<path d="M39.9867 28.7748C39.8667 28.8148 39.8867 28.8748 39.8267 28.9248C39.8467 28.9348 39.9067 28.9548 39.9667 28.8948C39.9867 28.8748 40.0167 28.8648 40.0367 28.8648L39.9667 28.9348C39.9073 28.9837 39.8595 29.0452 39.8267 29.1148C39.7967 29.1948 39.7867 29.2848 39.7967 29.2948C39.7967 29.2948 39.8367 29.3748 39.9467 29.4148C40.1467 29.4948 40.1867 29.6648 40.3967 29.6648C40.5567 29.6648 40.5367 29.5548 40.6667 29.5748C40.7667 29.5948 40.8367 29.5048 40.7267 29.4548C40.5484 29.4198 40.365 29.4198 40.1867 29.4548C40.1467 29.0548 40.1867 29.1948 40.1767 29.0148C40.1667 28.8448 40.1067 28.8348 40.1767 28.6848C40.1267 28.7848 40.0567 28.7648 39.9767 28.7648L39.9867 28.7748Z" fill="url(#paint0_linear_4447_32083)"/>
<path d="M40.3889 28.4949L40.3789 28.5549L40.4089 28.6549L40.4289 28.7549C40.4289 28.7849 40.4689 28.7949 40.4989 28.8149C40.5389 28.8449 40.4989 28.9149 40.5289 28.9249C40.5489 28.9249 40.5789 28.8249 40.5789 28.8049V28.7349C40.5633 28.7043 40.5466 28.6743 40.5289 28.6449C40.5227 28.6345 40.5161 28.6245 40.5089 28.6149C40.4867 28.5812 40.4598 28.5509 40.4289 28.5249C40.4192 28.5178 40.4092 28.5111 40.3989 28.5049L40.3789 28.4949H40.3889Z" fill="#FF2A2A"/>
<path d="M40.4169 29.2549L40.2169 29.1849C40.0869 29.1449 39.9569 29.0649 39.8669 29.1049C39.8369 29.1149 39.8369 29.1449 39.8269 29.1949C39.8269 29.2449 39.7769 29.3249 39.8269 29.2949C39.8869 29.2549 40.0669 29.3749 40.1269 29.4049C40.1569 29.4249 40.2269 29.4649 40.2369 29.5049C40.2569 29.5649 40.2369 29.6849 40.2369 29.7449C40.2369 29.7949 40.2569 29.9249 40.3069 29.9449C40.3669 29.9549 40.4169 29.9049 40.4369 29.8149C40.4669 29.7249 40.4769 29.6749 40.5169 29.6249C40.5569 29.5749 40.5969 29.5449 40.6469 29.5349C40.7069 29.5349 40.7869 29.5849 40.7869 29.5149C40.7869 29.4749 40.7469 29.4349 40.7669 29.3749C40.7769 29.3249 40.7269 29.3349 40.6769 29.3149L40.4069 29.2549H40.4169Z" fill="url(#paint1_linear_4447_32083)"/>
<path d="M40.1291 29.405C40.0891 29.385 39.8991 29.255 39.8291 29.305C39.7991 29.305 39.7891 29.305 39.7891 29.275L39.8091 29.185C39.8091 29.155 39.8291 29.105 39.8591 29.085C39.9291 29.025 40.0891 29.135 40.1691 29.165L40.1291 29.405Z" fill="#910000"/>
<path d="M40.4664 29.6548C40.5564 29.4948 40.6164 29.5148 40.7264 29.5148C40.7664 29.5148 40.7764 29.4848 40.7664 29.4448C40.7364 29.5048 40.5964 29.4448 40.5164 29.4748C40.3664 29.5448 40.3964 29.8448 40.3164 29.8748C40.3964 29.9448 40.4264 29.7048 40.4664 29.6548Z" fill="#FF3A3A"/>
<path d="M35.5977 31.2749L34.5977 33.0049H45.9877L44.9877 31.2849H35.6077L35.5977 31.2749Z" fill="white"/>
<path d="M35.2583 32.6548C35.1011 32.6546 34.9441 32.6646 34.7883 32.6848L34.7383 32.7748C34.9783 32.7448 35.2083 32.7048 35.4583 32.7048C35.7783 32.7048 36.0783 32.7848 36.4283 32.7848H36.8883C37.2383 32.7848 37.5283 32.7048 37.8583 32.7048C38.1883 32.7048 38.4883 32.7848 38.8383 32.7848H39.2983C39.6483 32.7848 39.9383 32.7048 40.2683 32.7048C40.5983 32.7048 40.8983 32.7848 41.2483 32.7848H41.6983C42.0483 32.7848 42.3483 32.7048 42.6783 32.7048C43.0083 32.7048 43.3083 32.7848 43.6583 32.7848H44.1083C44.4583 32.7848 44.7583 32.7048 45.0883 32.7048C45.3483 32.7048 45.5883 32.7548 45.8383 32.7748L45.7883 32.6748C45.6421 32.6597 45.4952 32.653 45.3483 32.6548H44.8983C44.5483 32.6548 44.2483 32.7248 43.9183 32.7348C43.5883 32.7348 43.2883 32.6548 42.9383 32.6548H42.4883C42.1383 32.6548 41.8383 32.7248 41.5083 32.7348C41.1783 32.7348 40.8783 32.6548 40.5283 32.6548H40.0883C39.7383 32.6548 39.4383 32.7248 39.1083 32.7348C38.7783 32.7348 38.4783 32.6548 38.1283 32.6548H37.6783C37.3283 32.6548 37.0283 32.7248 36.6983 32.7348C36.3683 32.7348 36.0783 32.6548 35.7283 32.6548H35.2683H35.2583Z" fill="url(#paint2_linear_4447_32083)"/>
<path d="M35.2583 32.6548C35.1011 32.6546 34.9441 32.6646 34.7883 32.6848L34.7383 32.7748C34.9783 32.7448 35.2083 32.7048 35.4583 32.7048C35.7783 32.7048 36.0783 32.7848 36.4283 32.7848H36.8883C37.2383 32.7848 37.5283 32.7048 37.8583 32.7048C38.1883 32.7048 38.4883 32.7848 38.8383 32.7848H39.2983C39.6483 32.7848 39.9383 32.7048 40.2683 32.7048C40.5983 32.7048 40.8983 32.7848 41.2483 32.7848H41.6983C42.0483 32.7848 42.3483 32.7048 42.6783 32.7048C43.0083 32.7048 43.3083 32.7848 43.6583 32.7848H44.1083C44.4583 32.7848 44.7583 32.7048 45.0883 32.7048C45.3483 32.7048 45.5883 32.7548 45.8383 32.7748L45.7883 32.6748C45.6421 32.6597 45.4952 32.653 45.3483 32.6548H44.8983C44.5483 32.6548 44.2483 32.7248 43.9183 32.7348C43.5883 32.7348 43.2883 32.6548 42.9383 32.6548H42.4883C42.1383 32.6548 41.8383 32.7248 41.5083 32.7348C41.1783 32.7348 40.8783 32.6548 40.5283 32.6548H40.0883C39.7383 32.6548 39.4383 32.7248 39.1083 32.7348C38.7783 32.7348 38.4783 32.6548 38.1283 32.6548H37.6783C37.3283 32.6548 37.0283 32.7248 36.6983 32.7348C36.3683 32.7348 36.0783 32.6548 35.7283 32.6548H35.2683H35.2583Z" fill="url(#paint3_linear_4447_32083)"/>
<path d="M35.2583 32.6548C35.1011 32.6546 34.9441 32.6646 34.7883 32.6848L34.7383 32.7748C34.9783 32.7448 35.2083 32.7048 35.4583 32.7048C35.7783 32.7048 36.0783 32.7848 36.4283 32.7848H36.8883C37.2383 32.7848 37.5283 32.7048 37.8583 32.7048C38.1883 32.7048 38.4883 32.7848 38.8383 32.7848H39.2983C39.6483 32.7848 39.9383 32.7048 40.2683 32.7048C40.5983 32.7048 40.8983 32.7848 41.2483 32.7848H41.6983C42.0483 32.7848 42.3483 32.7048 42.6783 32.7048C43.0083 32.7048 43.3083 32.7848 43.6583 32.7848H44.1083C44.4583 32.7848 44.7583 32.7048 45.0883 32.7048C45.3483 32.7048 45.5883 32.7548 45.8383 32.7748L45.7883 32.6748C45.6421 32.6597 45.4952 32.653 45.3483 32.6548H44.8983C44.5483 32.6548 44.2483 32.7248 43.9183 32.7348C43.5883 32.7348 43.2883 32.6548 42.9383 32.6548H42.4883C42.1383 32.6548 41.8383 32.7248 41.5083 32.7348C41.1783 32.7348 40.8783 32.6548 40.5283 32.6548H40.0883C39.7383 32.6548 39.4383 32.7248 39.1083 32.7348C38.7783 32.7348 38.4783 32.6548 38.1283 32.6548H37.6783C37.3283 32.6548 37.0283 32.7248 36.6983 32.7348C36.3683 32.7348 36.0783 32.6548 35.7283 32.6548H35.2683H35.2583Z" fill="url(#paint4_linear_4447_32083)"/>
<path d="M35.2583 32.6548C35.1011 32.6546 34.9441 32.6646 34.7883 32.6848L34.7383 32.7748C34.9783 32.7448 35.2083 32.7048 35.4583 32.7048C35.7783 32.7048 36.0783 32.7848 36.4283 32.7848H36.8883C37.2383 32.7848 37.5283 32.7048 37.8583 32.7048C38.1883 32.7048 38.4883 32.7848 38.8383 32.7848H39.2983C39.6483 32.7848 39.9383 32.7048 40.2683 32.7048C40.5983 32.7048 40.8983 32.7848 41.2483 32.7848H41.6983C42.0483 32.7848 42.3483 32.7048 42.6783 32.7048C43.0083 32.7048 43.3083 32.7848 43.6583 32.7848H44.1083C44.4583 32.7848 44.7583 32.7048 45.0883 32.7048C45.3483 32.7048 45.5883 32.7548 45.8383 32.7748L45.7883 32.6748C45.6421 32.6597 45.4952 32.653 45.3483 32.6548H44.8983C44.5483 32.6548 44.2483 32.7248 43.9183 32.7348C43.5883 32.7348 43.2883 32.6548 42.9383 32.6548H42.4883C42.1383 32.6548 41.8383 32.7248 41.5083 32.7348C41.1783 32.7348 40.8783 32.6548 40.5283 32.6548H40.0883C39.7383 32.6548 39.4383 32.7248 39.1083 32.7348C38.7783 32.7348 38.4783 32.6548 38.1283 32.6548H37.6783C37.3283 32.6548 37.0283 32.7248 36.6983 32.7348C36.3683 32.7348 36.0783 32.6548 35.7283 32.6548H35.2683H35.2583Z" fill="url(#paint5_linear_4447_32083)"/>
<path d="M35.2583 32.6548C35.1011 32.6546 34.9441 32.6646 34.7883 32.6848L34.7383 32.7748C34.9783 32.7448 35.2083 32.7048 35.4583 32.7048C35.7783 32.7048 36.0783 32.7848 36.4283 32.7848H36.8883C37.2383 32.7848 37.5283 32.7048 37.8583 32.7048C38.1883 32.7048 38.4883 32.7848 38.8383 32.7848H39.2983C39.6483 32.7848 39.9383 32.7048 40.2683 32.7048C40.5983 32.7048 40.8983 32.7848 41.2483 32.7848H41.6983C42.0483 32.7848 42.3483 32.7048 42.6783 32.7048C43.0083 32.7048 43.3083 32.7848 43.6583 32.7848H44.1083C44.4583 32.7848 44.7583 32.7048 45.0883 32.7048C45.3483 32.7048 45.5883 32.7548 45.8383 32.7748L45.7883 32.6748C45.6421 32.6597 45.4952 32.653 45.3483 32.6548H44.8983C44.5483 32.6548 44.2483 32.7248 43.9183 32.7348C43.5883 32.7348 43.2883 32.6548 42.9383 32.6548H42.4883C42.1383 32.6548 41.8383 32.7248 41.5083 32.7348C41.1783 32.7348 40.8783 32.6548 40.5283 32.6548H40.0883C39.7383 32.6548 39.4383 32.7248 39.1083 32.7348C38.7783 32.7348 38.4783 32.6548 38.1283 32.6548H37.6783C37.3283 32.6548 37.0283 32.7248 36.6983 32.7348C36.3683 32.7348 36.0783 32.6548 35.7283 32.6548H35.2683H35.2583Z" fill="url(#paint6_linear_4447_32083)"/>
<path d="M35.2583 32.6548C35.1011 32.6546 34.9441 32.6646 34.7883 32.6848L34.7383 32.7748C34.9783 32.7448 35.2083 32.7048 35.4583 32.7048C35.7783 32.7048 36.0783 32.7848 36.4283 32.7848H36.8883C37.2383 32.7848 37.5283 32.7048 37.8583 32.7048C38.1883 32.7048 38.4883 32.7848 38.8383 32.7848H39.2983C39.6483 32.7848 39.9383 32.7048 40.2683 32.7048C40.5983 32.7048 40.8983 32.7848 41.2483 32.7848H41.6983C42.0483 32.7848 42.3483 32.7048 42.6783 32.7048C43.0083 32.7048 43.3083 32.7848 43.6583 32.7848H44.1083C44.4583 32.7848 44.7583 32.7048 45.0883 32.7048C45.3483 32.7048 45.5883 32.7548 45.8383 32.7748L45.7883 32.6748C45.6421 32.6597 45.4952 32.653 45.3483 32.6548H44.8983C44.5483 32.6548 44.2483 32.7248 43.9183 32.7348C43.5883 32.7348 43.2883 32.6548 42.9383 32.6548H42.4883C42.1383 32.6548 41.8383 32.7248 41.5083 32.7348C41.1783 32.7348 40.8783 32.6548 40.5283 32.6548H40.0883C39.7383 32.6548 39.4383 32.7248 39.1083 32.7348C38.7783 32.7348 38.4783 32.6548 38.1283 32.6548H37.6783C37.3283 32.6548 37.0283 32.7248 36.6983 32.7348C36.3683 32.7348 36.0783 32.6548 35.7283 32.6548H35.2683H35.2583Z" fill="url(#paint7_linear_4447_32083)"/>
<path d="M35.2583 32.6548C35.1011 32.6546 34.9441 32.6646 34.7883 32.6848L34.7383 32.7748C34.9783 32.7448 35.2083 32.7048 35.4583 32.7048C35.7783 32.7048 36.0783 32.7848 36.4283 32.7848H36.8883C37.2383 32.7848 37.5283 32.7048 37.8583 32.7048C38.1883 32.7048 38.4883 32.7848 38.8383 32.7848H39.2983C39.6483 32.7848 39.9383 32.7048 40.2683 32.7048C40.5983 32.7048 40.8983 32.7848 41.2483 32.7848H41.6983C42.0483 32.7848 42.3483 32.7048 42.6783 32.7048C43.0083 32.7048 43.3083 32.7848 43.6583 32.7848H44.1083C44.4583 32.7848 44.7583 32.7048 45.0883 32.7048C45.3483 32.7048 45.5883 32.7548 45.8383 32.7748L45.7883 32.6748C45.6421 32.6597 45.4952 32.653 45.3483 32.6548H44.8983C44.5483 32.6548 44.2483 32.7248 43.9183 32.7348C43.5883 32.7348 43.2883 32.6548 42.9383 32.6548H42.4883C42.1383 32.6548 41.8383 32.7248 41.5083 32.7348C41.1783 32.7348 40.8783 32.6548 40.5283 32.6548H40.0883C39.7383 32.6548 39.4383 32.7248 39.1083 32.7348C38.7783 32.7348 38.4783 32.6548 38.1283 32.6548H37.6783C37.3283 32.6548 37.0283 32.7248 36.6983 32.7348C36.3683 32.7348 36.0783 32.6548 35.7283 32.6548H35.2683H35.2583Z" fill="url(#paint8_linear_4447_32083)"/>
<path d="M35.2583 32.6548C35.1011 32.6546 34.9441 32.6646 34.7883 32.6848L34.7383 32.7748C34.9783 32.7448 35.2083 32.7048 35.4583 32.7048C35.7783 32.7048 36.0783 32.7848 36.4283 32.7848H36.8883C37.2383 32.7848 37.5283 32.7048 37.8583 32.7048C38.1883 32.7048 38.4883 32.7848 38.8383 32.7848H39.2983C39.6483 32.7848 39.9383 32.7048 40.2683 32.7048C40.5983 32.7048 40.8983 32.7848 41.2483 32.7848H41.6983C42.0483 32.7848 42.3483 32.7048 42.6783 32.7048C43.0083 32.7048 43.3083 32.7848 43.6583 32.7848H44.1083C44.4583 32.7848 44.7583 32.7048 45.0883 32.7048C45.3483 32.7048 45.5883 32.7548 45.8383 32.7748L45.7883 32.6748C45.6421 32.6597 45.4952 32.653 45.3483 32.6548H44.8983C44.5483 32.6548 44.2483 32.7248 43.9183 32.7348C43.5883 32.7348 43.2883 32.6548 42.9383 32.6548H42.4883C42.1383 32.6548 41.8383 32.7248 41.5083 32.7348C41.1783 32.7348 40.8783 32.6548 40.5283 32.6548H40.0883C39.7383 32.6548 39.4383 32.7248 39.1083 32.7348C38.7783 32.7348 38.4783 32.6548 38.1283 32.6548H37.6783C37.3283 32.6548 37.0283 32.7248 36.6983 32.7348C36.3683 32.7348 36.0783 32.6548 35.7283 32.6548H35.2683H35.2583Z" fill="url(#paint9_linear_4447_32083)"/>
<path d="M35.2583 32.6548C35.1011 32.6546 34.9441 32.6646 34.7883 32.6848L34.7383 32.7748C34.9783 32.7448 35.2083 32.7048 35.4583 32.7048C35.7783 32.7048 36.0783 32.7848 36.4283 32.7848H36.8883C37.2383 32.7848 37.5283 32.7048 37.8583 32.7048C38.1883 32.7048 38.4883 32.7848 38.8383 32.7848H39.2983C39.6483 32.7848 39.9383 32.7048 40.2683 32.7048C40.5983 32.7048 40.8983 32.7848 41.2483 32.7848H41.6983C42.0483 32.7848 42.3483 32.7048 42.6783 32.7048C43.0083 32.7048 43.3083 32.7848 43.6583 32.7848H44.1083C44.4583 32.7848 44.7583 32.7048 45.0883 32.7048C45.3483 32.7048 45.5883 32.7548 45.8383 32.7748L45.7883 32.6748C45.6421 32.6597 45.4952 32.653 45.3483 32.6548H44.8983C44.5483 32.6548 44.2483 32.7248 43.9183 32.7348C43.5883 32.7348 43.2883 32.6548 42.9383 32.6548H42.4883C42.1383 32.6548 41.8383 32.7248 41.5083 32.7348C41.1783 32.7348 40.8783 32.6548 40.5283 32.6548H40.0883C39.7383 32.6548 39.4383 32.7248 39.1083 32.7348C38.7783 32.7348 38.4783 32.6548 38.1283 32.6548H37.6783C37.3283 32.6548 37.0283 32.7248 36.6983 32.7348C36.3683 32.7348 36.0783 32.6548 35.7283 32.6548H35.2683H35.2583Z" fill="url(#paint10_linear_4447_32083)"/>
<path d="M35.6077 31.2649V31.2849H44.9777L44.9677 31.2649H35.6077ZM35.5877 31.2949L35.5777 31.3249H44.9877L44.9777 31.2949H35.5777H35.5877ZM35.5677 31.3349L35.5477 31.3649H45.0277L45.0077 31.3349H35.5677ZM35.5377 31.3849L35.5077 31.4349H45.0677L45.0377 31.3849H35.5377ZM35.4977 31.4549L35.4677 31.5049H45.1077L45.0777 31.4549H35.4977ZM35.4577 31.5249L35.4377 31.5649H45.1377L45.1177 31.5249H35.4577ZM35.4177 31.5949L35.3977 31.6349H45.1877L45.1577 31.5949H35.4177ZM35.3777 31.6649L35.3477 31.7249H45.2277L45.1977 31.6649H35.3877H35.3777Z" fill="url(#paint11_linear_4447_32083)"/>
<path d="M36.0273 31.7449C36.3673 31.8149 36.3973 31.7449 36.3973 31.7449H36.0273ZM44.1773 31.7449C44.1773 31.7449 44.2073 31.8149 44.5473 31.7449H44.1773Z" fill="url(#paint12_linear_4447_32083)"/>
<path d="M43.3503 30.2148C43.1803 30.2148 43.1303 30.3048 43.1303 30.3048C42.8603 31.3648 41.9503 32.4348 40.8703 32.4348H40.0703V33.5148H46.2103L45.5903 32.4148C44.6203 32.2748 43.8303 31.2848 43.5803 30.3048C43.5803 30.3048 43.5203 30.2148 43.3503 30.2148Z" fill="url(#paint13_linear_4447_32083)"/>
<path d="M43.3516 30.2649C43.2716 30.2649 43.2316 30.2749 43.2016 30.2949L43.1716 30.3249C43.0216 30.8785 42.7325 31.3846 42.3316 31.7949C41.9316 32.2049 41.4316 32.4849 40.8716 32.4849H40.1016V33.4749H46.1916L45.6216 32.4749C45.1516 32.4049 44.7216 32.1549 44.3816 31.7949C43.9807 31.3846 43.6915 30.8785 43.5416 30.3249L43.5116 30.2949C43.4624 30.2692 43.4067 30.2588 43.3516 30.2649Z" fill="#97C924"/>
<path d="M43.3516 30.2649H43.3916V31.3449C43.382 31.572 43.313 31.7927 43.1916 31.9849C43.1416 32.1449 43.0916 32.0849 42.9616 32.2749C42.7929 32.333 42.6186 32.3733 42.4416 32.3949C42.1916 32.4349 41.6416 32.4749 41.3516 32.4049C41.7237 32.291 42.0609 32.0846 42.3316 31.8049C42.406 31.7254 42.4761 31.6419 42.5416 31.5549C42.653 31.4164 42.7533 31.2692 42.8416 31.1149L42.9416 30.9149C42.9894 30.8203 43.0328 30.7235 43.0716 30.6249C43.1102 30.5267 43.1436 30.4266 43.1716 30.3249L43.2016 30.2949L43.2616 30.2749L43.3616 30.2649H43.3516Z" fill="#EDE71F"/>
<path d="M43.2886 30.4048C43.2386 31.0048 43.0586 31.7248 42.6186 32.1848C42.4586 32.3148 42.2486 32.4448 42.0586 32.4148C42.7286 31.8648 43.1386 31.0148 43.2786 30.4048H43.2886Z" fill="#C6CB24"/>
<path d="M42.7403 31.4448C42.6403 31.7148 42.2603 32.1148 41.8603 32.4448H41.5703C41.8203 32.4248 42.4003 31.9448 42.7403 31.4448Z" fill="#9ECB34"/>
<path d="M43.3503 30.2148C43.1803 30.2148 43.1303 30.3048 43.1303 30.3048C42.8603 31.3648 41.9503 32.4348 40.8703 32.4348H40.0703V33.5148H46.2103L45.5903 32.4148C44.6203 32.2748 43.8303 31.2848 43.5803 30.3048C43.5803 30.3048 43.5203 30.2148 43.3503 30.2148Z" fill="url(#paint14_linear_4447_32083)"/>
<path d="M43.3516 30.2649C43.2716 30.2649 43.2316 30.2749 43.2016 30.2949L43.1716 30.3249C43.0216 30.8785 42.7325 31.3846 42.3316 31.7949C41.9316 32.2049 41.4316 32.4849 40.8716 32.4849H40.1016V33.4749H46.1916L45.6216 32.4749C45.1516 32.4049 44.7216 32.1549 44.3816 31.7949C43.9807 31.3846 43.6915 30.8785 43.5416 30.3249L43.5116 30.2949C43.4624 30.2692 43.4067 30.2588 43.3516 30.2649Z" fill="#97C924"/>
<path d="M43.3516 30.2649H43.3916V31.3449C43.382 31.572 43.313 31.7927 43.1916 31.9849C43.1416 32.1449 43.0916 32.0849 42.9616 32.2749C42.7929 32.333 42.6186 32.3733 42.4416 32.3949C42.1916 32.4349 41.6416 32.4749 41.3516 32.4049C41.7237 32.291 42.0609 32.0846 42.3316 31.8049C42.406 31.7254 42.4761 31.6419 42.5416 31.5549C42.653 31.4164 42.7533 31.2692 42.8416 31.1149L42.9416 30.9149C42.9894 30.8203 43.0328 30.7235 43.0716 30.6249C43.1102 30.5267 43.1436 30.4266 43.1716 30.3249L43.2016 30.2949L43.2616 30.2749L43.3616 30.2649H43.3516Z" fill="#EDE71F"/>
<path d="M43.2886 30.4048C43.2386 31.0048 43.0586 31.7248 42.6186 32.1848C42.4586 32.3148 42.2486 32.4448 42.0586 32.4148C42.7286 31.8648 43.1386 31.0148 43.2786 30.4048H43.2886Z" fill="#C6CB24"/>
<path d="M42.7403 31.4448C42.6403 31.7148 42.2603 32.1148 41.8603 32.4448H41.5703C41.8203 32.4248 42.4003 31.9448 42.7403 31.4448Z" fill="#9ECB34"/>
<path d="M40.51 30.3149C40.79 31.3649 41.69 32.4349 42.77 32.4349H43.58V33.5149H37V32.4349H37.8C38.88 32.4349 39.79 31.3649 40.06 30.3049C40.06 30.3049 40.12 30.2249 40.29 30.2249C40.46 30.2249 40.51 30.3049 40.51 30.3049V30.3149Z" fill="url(#paint15_linear_4447_32083)"/>
<path d="M40.2891 30.2649C40.3691 30.2649 40.4091 30.2849 40.4391 30.2949L40.4691 30.3249C40.619 30.8785 40.9082 31.3846 41.3091 31.7949C41.7091 32.2049 42.2091 32.4849 42.7691 32.4849H43.5391V33.4749H37.0391V32.4749H37.8091C38.3591 32.4749 38.8691 32.2049 39.2691 31.7949C39.6663 31.3835 39.952 30.8775 40.0991 30.3249L40.1291 30.2949C40.1786 30.2703 40.234 30.2599 40.2891 30.2649Z" fill="#97C924"/>
<path d="M40.2191 30.2647C40.2091 30.2643 40.1991 30.2643 40.1891 30.2647L40.1291 30.2947L40.0991 30.3247C40.0712 30.4265 40.0378 30.5266 39.9991 30.6247C39.9638 30.7266 39.9238 30.8267 39.8791 30.9247C39.8477 30.9891 39.8144 31.0525 39.7791 31.1147C39.6909 31.2691 39.5905 31.4162 39.4791 31.5547C39.4133 31.6383 39.3432 31.7184 39.2691 31.7947C38.9996 32.0781 38.6623 32.288 38.2891 32.4047C38.5691 32.4747 38.6891 32.4047 38.9391 32.3647C39.1391 32.3347 39.3591 32.3047 39.5391 32.2447C39.6891 32.0447 39.6391 32.1147 39.6891 31.9547C39.8091 31.7347 39.9891 31.5347 40.0291 31.2847C40.1891 30.9847 40.2191 30.4247 40.2191 30.2647Z" fill="#EDE71F"/>
<path d="M40.2183 30.4048C40.1783 31.0048 39.9883 31.7248 39.5483 32.1848C39.3883 32.3148 39.1883 32.4448 38.9883 32.4148C39.6683 31.8648 40.0783 31.0148 40.2183 30.4048Z" fill="#C6CB24"/>
<path d="M39.6717 31.4448C39.4543 31.838 39.154 32.1792 38.7917 32.4448H38.5117C38.7617 32.4248 39.3317 31.9448 39.6717 31.4448Z" fill="#9ECB34"/>
<path d="M40.3894 30.2749L40.4394 30.2949L40.4794 30.3249C40.5078 30.4265 40.5412 30.5266 40.5794 30.6249C40.6145 30.7268 40.6546 30.8269 40.6994 30.9249L40.7994 31.1149C40.8876 31.2693 40.9879 31.4164 41.0994 31.5549C41.1652 31.6385 41.2353 31.7186 41.3094 31.7949C41.5771 32.0895 41.9139 32.3129 42.2894 32.4449C41.5594 32.4449 41.2494 32.3849 40.9894 32.0449C40.8003 31.8448 40.657 31.6059 40.5694 31.3449C40.5194 31.1449 40.3694 30.6949 40.3794 30.2749H40.3894Z" fill="#EDE71F"/>
<path d="M40.4414 30.4048C40.4814 31.0048 40.6614 31.6048 41.1014 32.0648C41.2614 32.2048 41.4614 32.3248 41.6614 32.2948C41.0332 31.8391 40.598 31.1649 40.4414 30.4048Z" fill="#C6CB24"/>
<path d="M38.7702 30.2148C38.5902 30.2148 38.5402 30.3048 38.5402 30.3048C38.2902 31.2848 37.3602 32.5348 36.3902 32.6848L35.9102 33.5148H40.8102V32.3848C39.9302 32.1448 39.2202 31.2148 38.9902 30.3048C38.9902 30.3048 38.9402 30.2248 38.7602 30.2248L38.7702 30.2148Z" fill="url(#paint16_linear_4447_32083)"/>
<path d="M38.7714 30.2649C38.6914 30.2649 38.6414 30.2849 38.6114 30.2949L38.5814 30.3249C38.4132 30.8735 38.1379 31.3833 37.7714 31.8249C37.4314 32.2549 36.8014 32.6849 36.3714 32.7249L35.9414 33.4749H40.7414V32.4049C40.3804 32.2857 40.0541 32.0797 39.7914 31.8049C39.389 31.3918 39.0998 30.8821 38.9514 30.3249L38.9214 30.2949C38.875 30.2716 38.8232 30.2613 38.7714 30.2649Z" fill="#97C924"/>
<path d="M38.6289 30.4048C38.5689 31.3048 38.0689 32.4548 37.4989 32.6448C37.3089 32.7148 36.9889 32.7348 36.8789 32.7448C37.3198 32.4998 37.7044 32.1649 38.0076 31.7618C38.3107 31.3587 38.5258 30.8964 38.6389 30.4048H38.6289Z" fill="#93BC30"/>
<path d="M38.7687 30.2649H38.7188V31.3449C38.7188 31.5749 38.8087 31.7649 38.9187 31.9849L38.9388 32.0349C38.9888 32.1449 39.0187 32.1849 39.1687 32.3049C39.5982 32.6114 40.1234 32.7534 40.6488 32.7049C40.5388 32.6149 40.4188 32.5349 40.3088 32.4649L40.7588 32.4149C40.3881 32.2938 40.0543 32.0805 39.7888 31.7949C39.7404 31.7465 39.6937 31.6965 39.6488 31.6449L39.5888 31.5649C39.4704 31.4236 39.3634 31.2731 39.2687 31.1149C39.2332 31.0494 39.1999 30.9827 39.1687 30.9149C39.1074 30.7884 39.054 30.6581 39.0088 30.5249C38.9866 30.459 38.9666 30.3922 38.9488 30.3249L38.9187 30.2949C38.8998 30.2854 38.8796 30.2787 38.8588 30.2749C38.8261 30.2669 38.7924 30.2636 38.7588 30.2649H38.7687Z" fill="#EDE71F"/>
<path d="M38.832 30.4048C38.882 31.0048 39.062 31.7248 39.502 32.1848C39.662 32.3148 39.862 32.4448 40.062 32.4148C39.452 31.8898 39.0219 31.1869 38.832 30.4048Z" fill="#CCD11E"/>
<path d="M39.25 31.2449C39.5739 31.8784 40.0832 32.3981 40.71 32.7349H40.96C40.52 32.4949 39.81 32.1549 39.26 31.2349L39.25 31.2449Z" fill="#9ECB34"/>
<path d="M38.7702 30.2148C38.5902 30.2148 38.5402 30.3048 38.5402 30.3048C38.2902 31.2848 37.3602 32.5348 36.3902 32.6848L35.9102 33.5148H40.8102V32.3848C39.9302 32.1448 39.2202 31.2148 38.9902 30.3048C38.9902 30.3048 38.9402 30.2248 38.7602 30.2248L38.7702 30.2148Z" fill="url(#paint17_linear_4447_32083)"/>
<path d="M38.7714 30.2649C38.6914 30.2649 38.6414 30.2849 38.6114 30.2949L38.5814 30.3249C38.4132 30.8735 38.1379 31.3833 37.7714 31.8249C37.4314 32.2549 36.8014 32.6849 36.3714 32.7249L35.9414 33.4749H40.7414V32.4049C40.3804 32.2857 40.0541 32.0797 39.7914 31.8049C39.389 31.3918 39.0998 30.8821 38.9514 30.3249L38.9214 30.2949C38.875 30.2716 38.8232 30.2613 38.7714 30.2649Z" fill="#97C924"/>
<path d="M38.6289 30.4048C38.5689 31.3048 38.0689 32.4548 37.4989 32.6448C37.3089 32.7148 36.9889 32.7348 36.8789 32.7448C37.3198 32.4998 37.7044 32.1649 38.0076 31.7618C38.3107 31.3587 38.5258 30.8964 38.6389 30.4048H38.6289Z" fill="#93BC30"/>
<path d="M38.7687 30.2649H38.7188V31.3449C38.7188 31.5749 38.8087 31.7649 38.9187 31.9849L38.9388 32.0349C38.9888 32.1449 39.0187 32.1849 39.1687 32.3049C39.5982 32.6114 40.1234 32.7534 40.6488 32.7049C40.5388 32.6149 40.4188 32.5349 40.3088 32.4649L40.7588 32.4149C40.3881 32.2938 40.0543 32.0805 39.7888 31.7949C39.7404 31.7465 39.6937 31.6965 39.6488 31.6449L39.5888 31.5649C39.4704 31.4236 39.3634 31.2731 39.2687 31.1149C39.2332 31.0494 39.1999 30.9827 39.1687 30.9149C39.1074 30.7884 39.054 30.6581 39.0088 30.5249C38.9866 30.459 38.9666 30.3922 38.9488 30.3249L38.9187 30.2949C38.8998 30.2854 38.8796 30.2787 38.8588 30.2749C38.8261 30.2669 38.7924 30.2636 38.7588 30.2649H38.7687Z" fill="#EDE71F"/>
<path d="M38.832 30.4048C38.882 31.0048 39.062 31.7248 39.502 32.1848C39.662 32.3148 39.862 32.4448 40.062 32.4148C39.452 31.8898 39.0219 31.1869 38.832 30.4048Z" fill="#C6CB24"/>
<path d="M39.25 31.2449C39.5739 31.8784 40.0832 32.3981 40.71 32.7349H40.96C40.52 32.4949 39.81 32.1549 39.26 31.2349L39.25 31.2449Z" fill="#9ECB34"/>
<path d="M45.938 32.9848C45.878 33.0048 45.498 32.9648 45.298 32.9848L45.168 33.0148H44.838C44.478 33.0148 44.168 33.1148 43.828 33.1148C43.488 33.1148 43.178 33.0148 42.828 33.0148H42.488C42.128 33.0148 41.818 33.1148 41.478 33.1148C41.138 33.1148 40.828 33.0148 40.478 33.0148H40.138C39.778 33.0148 39.468 33.1148 39.138 33.1148C38.788 33.1148 38.488 33.0148 38.128 33.0148H37.788C37.428 33.0148 37.128 33.1148 36.788 33.1148C36.438 33.1148 36.138 33.0148 35.778 33.0148H35.438C35.158 33.0148 34.818 33.0748 34.548 33.0948L33.918 34.1848H46.658L45.938 32.9848Z" fill="white"/>
<path d="M45.0872 32.825H45.0272C44.7072 32.835 44.4672 32.935 43.9072 32.935C43.3472 32.935 43.2872 32.8349 42.6472 32.8549C42.0472 32.8549 41.8072 32.975 41.4772 32.975C41.1572 32.975 40.6372 32.9049 40.2272 32.9449C39.8272 32.9849 39.3472 33.075 39.0272 33.075C38.6372 33.075 38.2472 33.0049 37.8472 33.0449C37.4372 33.0849 37.2472 33.1949 36.7372 33.1949C36.2972 33.1949 35.8372 33.125 35.4572 33.125C35.1172 33.125 34.7372 33.225 34.4572 33.265L34.3672 33.415C34.5972 33.385 35.2272 33.285 35.4472 33.285C35.6872 33.285 36.5172 33.335 36.9772 33.315C37.4472 33.305 37.4972 33.1949 38.0472 33.1949C38.4272 33.1949 38.7072 33.235 39.0972 33.235C39.3472 33.235 39.5672 33.115 39.9372 33.115L40.2172 33.1049C40.5272 33.0549 41.0572 33.105 41.4172 33.125C41.7472 33.145 41.9672 33.0649 42.3172 33.0549L42.7572 33.0449C43.1072 33.0249 43.3972 33.1049 43.7272 33.1049C44.0472 33.0849 44.3672 33.0049 44.7072 33.0049L45.1572 32.985C45.3872 32.985 45.7472 32.985 45.9872 33.035L45.9072 32.8949C45.6672 32.8849 45.3772 32.825 45.0872 32.825Z" fill="url(#paint18_linear_4447_32083)"/>
<path d="M35.3192 33.9949C34.9792 33.9949 34.6792 34.0749 34.3592 34.0849C34.2387 34.0817 34.1186 34.0717 33.9992 34.0549L33.9492 34.1349H34.5492C34.8992 34.1349 35.1892 34.0549 35.5092 34.0449C35.8392 34.0549 36.1292 34.1449 36.4792 34.1449H36.9292C37.2692 34.1449 37.5692 34.0549 37.8892 34.0449C38.2192 34.0549 38.5192 34.1449 38.8592 34.1449H39.3092C39.6592 34.1449 39.9492 34.0549 40.2792 34.0449C40.5992 34.0549 40.8892 34.1449 41.2392 34.1449H41.6892C42.0292 34.1449 42.3292 34.0549 42.6592 34.0449C42.9792 34.0549 43.2792 34.1449 43.6192 34.1449H44.0692C44.4192 34.1449 44.7092 34.0549 45.0292 34.0449C45.3592 34.0549 45.6492 34.1449 45.9992 34.1449H46.4492L46.6292 34.1349L46.5792 34.0549C46.4792 34.0649 46.3692 34.0849 46.2592 34.0849C45.9292 34.0849 45.6392 33.9849 45.2892 33.9849H44.8392C44.4992 33.9849 44.1992 34.0849 43.8792 34.0849C43.5492 34.0749 43.2592 33.9849 42.9092 33.9849H42.4592C42.1192 33.9849 41.8192 34.0849 41.4992 34.0849C41.1692 34.0749 40.8792 33.9849 40.5292 33.9849H40.0792C39.7292 33.9849 39.4392 34.0849 39.1192 34.0849C38.7892 34.0749 38.4992 33.9849 38.1492 33.9849H37.6992C37.3592 33.9849 37.0592 34.0849 36.7392 34.0849C36.4092 34.0749 36.1192 33.9849 35.7692 33.9849H35.3192V33.9949Z" fill="url(#paint19_linear_4447_32083)"/>
<path d="M35.3192 33.9949C34.9792 33.9949 34.6792 34.0749 34.3592 34.0849C34.2387 34.0817 34.1186 34.0717 33.9992 34.0549L33.9492 34.1349H34.5492C34.8992 34.1349 35.1892 34.0549 35.5092 34.0449C35.8392 34.0549 36.1292 34.1449 36.4792 34.1449H36.9292C37.2692 34.1449 37.5692 34.0549 37.8892 34.0449C38.2192 34.0549 38.5192 34.1449 38.8592 34.1449H39.3092C39.6592 34.1449 39.9492 34.0549 40.2792 34.0449C40.5992 34.0549 40.8892 34.1449 41.2392 34.1449H41.6892C42.0292 34.1449 42.3292 34.0549 42.6592 34.0449C42.9792 34.0549 43.2792 34.1449 43.6192 34.1449H44.0692C44.4192 34.1449 44.7092 34.0549 45.0292 34.0449C45.3592 34.0549 45.6492 34.1449 45.9992 34.1449H46.4492L46.6292 34.1349L46.5792 34.0549C46.4792 34.0649 46.3692 34.0849 46.2592 34.0849C45.9292 34.0849 45.6392 33.9849 45.2892 33.9849H44.8392C44.4992 33.9849 44.1992 34.0849 43.8792 34.0849C43.5492 34.0749 43.2592 33.9849 42.9092 33.9849H42.4592C42.1192 33.9849 41.8192 34.0849 41.4992 34.0849C41.1692 34.0749 40.8792 33.9849 40.5292 33.9849H40.0792C39.7292 33.9849 39.4392 34.0849 39.1192 34.0849C38.7892 34.0749 38.4992 33.9849 38.1492 33.9849H37.6992C37.3592 33.9849 37.0592 34.0849 36.7392 34.0849C36.4092 34.0749 36.1192 33.9849 35.7692 33.9849H35.3192V33.9949Z" fill="url(#paint20_linear_4447_32083)"/>
<path d="M35.3192 33.9949C34.9792 33.9949 34.6792 34.0749 34.3592 34.0849C34.2387 34.0817 34.1186 34.0717 33.9992 34.0549L33.9492 34.1349H34.5492C34.8992 34.1349 35.1892 34.0549 35.5092 34.0449C35.8392 34.0549 36.1292 34.1449 36.4792 34.1449H36.9292C37.2692 34.1449 37.5692 34.0549 37.8892 34.0449C38.2192 34.0549 38.5192 34.1449 38.8592 34.1449H39.3092C39.6592 34.1449 39.9492 34.0549 40.2792 34.0449C40.5992 34.0549 40.8892 34.1449 41.2392 34.1449H41.6892C42.0292 34.1449 42.3292 34.0549 42.6592 34.0449C42.9792 34.0549 43.2792 34.1449 43.6192 34.1449H44.0692C44.4192 34.1449 44.7092 34.0549 45.0292 34.0449C45.3592 34.0549 45.6492 34.1449 45.9992 34.1449H46.4492L46.6292 34.1349L46.5792 34.0549C46.4792 34.0649 46.3692 34.0849 46.2592 34.0849C45.9292 34.0849 45.6392 33.9849 45.2892 33.9849H44.8392C44.4992 33.9849 44.1992 34.0849 43.8792 34.0849C43.5492 34.0749 43.2592 33.9849 42.9092 33.9849H42.4592C42.1192 33.9849 41.8192 34.0849 41.4992 34.0849C41.1692 34.0749 40.8792 33.9849 40.5292 33.9849H40.0792C39.7292 33.9849 39.4392 34.0849 39.1192 34.0849C38.7892 34.0749 38.4992 33.9849 38.1492 33.9849H37.6992C37.3592 33.9849 37.0592 34.0849 36.7392 34.0849C36.4092 34.0749 36.1192 33.9849 35.7692 33.9849H35.3192V33.9949Z" fill="url(#paint21_linear_4447_32083)"/>
<path d="M35.3192 33.9949C34.9792 33.9949 34.6792 34.0749 34.3592 34.0849C34.2387 34.0817 34.1186 34.0717 33.9992 34.0549L33.9492 34.1349H34.5492C34.8992 34.1349 35.1892 34.0549 35.5092 34.0449C35.8392 34.0549 36.1292 34.1449 36.4792 34.1449H36.9292C37.2692 34.1449 37.5692 34.0549 37.8892 34.0449C38.2192 34.0549 38.5192 34.1449 38.8592 34.1449H39.3092C39.6592 34.1449 39.9492 34.0549 40.2792 34.0449C40.5992 34.0549 40.8892 34.1449 41.2392 34.1449H41.6892C42.0292 34.1449 42.3292 34.0549 42.6592 34.0449C42.9792 34.0549 43.2792 34.1449 43.6192 34.1449H44.0692C44.4192 34.1449 44.7092 34.0549 45.0292 34.0449C45.3592 34.0549 45.6492 34.1449 45.9992 34.1449H46.4492L46.6292 34.1349L46.5792 34.0549C46.4792 34.0649 46.3692 34.0849 46.2592 34.0849C45.9292 34.0849 45.6392 33.9849 45.2892 33.9849H44.8392C44.4992 33.9849 44.1992 34.0849 43.8792 34.0849C43.5492 34.0749 43.2592 33.9849 42.9092 33.9849H42.4592C42.1192 33.9849 41.8192 34.0849 41.4992 34.0849C41.1692 34.0749 40.8792 33.9849 40.5292 33.9849H40.0792C39.7292 33.9849 39.4392 34.0849 39.1192 34.0849C38.7892 34.0749 38.4992 33.9849 38.1492 33.9849H37.6992C37.3592 33.9849 37.0592 34.0849 36.7392 34.0849C36.4092 34.0749 36.1192 33.9849 35.7692 33.9849H35.3192V33.9949Z" fill="url(#paint22_linear_4447_32083)"/>
<path d="M35.3192 33.9949C34.9792 33.9949 34.6792 34.0749 34.3592 34.0849C34.2387 34.0817 34.1186 34.0717 33.9992 34.0549L33.9492 34.1349H34.5492C34.8992 34.1349 35.1892 34.0549 35.5092 34.0449C35.8392 34.0549 36.1292 34.1449 36.4792 34.1449H36.9292C37.2692 34.1449 37.5692 34.0549 37.8892 34.0449C38.2192 34.0549 38.5192 34.1449 38.8592 34.1449H39.3092C39.6592 34.1449 39.9492 34.0549 40.2792 34.0449C40.5992 34.0549 40.8892 34.1449 41.2392 34.1449H41.6892C42.0292 34.1449 42.3292 34.0549 42.6592 34.0449C42.9792 34.0549 43.2792 34.1449 43.6192 34.1449H44.0692C44.4192 34.1449 44.7092 34.0549 45.0292 34.0449C45.3592 34.0549 45.6492 34.1449 45.9992 34.1449H46.4492L46.6292 34.1349L46.5792 34.0549C46.4792 34.0649 46.3692 34.0849 46.2592 34.0849C45.9292 34.0849 45.6392 33.9849 45.2892 33.9849H44.8392C44.4992 33.9849 44.1992 34.0849 43.8792 34.0849C43.5492 34.0749 43.2592 33.9849 42.9092 33.9849H42.4592C42.1192 33.9849 41.8192 34.0849 41.4992 34.0849C41.1692 34.0749 40.8792 33.9849 40.5292 33.9849H40.0792C39.7292 33.9849 39.4392 34.0849 39.1192 34.0849C38.7892 34.0749 38.4992 33.9849 38.1492 33.9849H37.6992C37.3592 33.9849 37.0592 34.0849 36.7392 34.0849C36.4092 34.0749 36.1192 33.9849 35.7692 33.9849H35.3192V33.9949Z" fill="url(#paint23_linear_4447_32083)"/>
<path d="M35.3192 33.9949C34.9792 33.9949 34.6792 34.0749 34.3592 34.0849C34.2387 34.0817 34.1186 34.0717 33.9992 34.0549L33.9492 34.1349H34.5492C34.8992 34.1349 35.1892 34.0549 35.5092 34.0449C35.8392 34.0549 36.1292 34.1449 36.4792 34.1449H36.9292C37.2692 34.1449 37.5692 34.0549 37.8892 34.0449C38.2192 34.0549 38.5192 34.1449 38.8592 34.1449H39.3092C39.6592 34.1449 39.9492 34.0549 40.2792 34.0449C40.5992 34.0549 40.8892 34.1449 41.2392 34.1449H41.6892C42.0292 34.1449 42.3292 34.0549 42.6592 34.0449C42.9792 34.0549 43.2792 34.1449 43.6192 34.1449H44.0692C44.4192 34.1449 44.7092 34.0549 45.0292 34.0449C45.3592 34.0549 45.6492 34.1449 45.9992 34.1449H46.4492L46.6292 34.1349L46.5792 34.0549C46.4792 34.0649 46.3692 34.0849 46.2592 34.0849C45.9292 34.0849 45.6392 33.9849 45.2892 33.9849H44.8392C44.4992 33.9849 44.1992 34.0849 43.8792 34.0849C43.5492 34.0749 43.2592 33.9849 42.9092 33.9849H42.4592C42.1192 33.9849 41.8192 34.0849 41.4992 34.0849C41.1692 34.0749 40.8792 33.9849 40.5292 33.9849H40.0792C39.7292 33.9849 39.4392 34.0849 39.1192 34.0849C38.7892 34.0749 38.4992 33.9849 38.1492 33.9849H37.6992C37.3592 33.9849 37.0592 34.0849 36.7392 34.0849C36.4092 34.0749 36.1192 33.9849 35.7692 33.9849H35.3192V33.9949Z" fill="url(#paint24_linear_4447_32083)"/>
<path d="M35.3192 33.9949C34.9792 33.9949 34.6792 34.0749 34.3592 34.0849C34.2387 34.0817 34.1186 34.0717 33.9992 34.0549L33.9492 34.1349H34.5492C34.8992 34.1349 35.1892 34.0549 35.5092 34.0449C35.8392 34.0549 36.1292 34.1449 36.4792 34.1449H36.9292C37.2692 34.1449 37.5692 34.0549 37.8892 34.0449C38.2192 34.0549 38.5192 34.1449 38.8592 34.1449H39.3092C39.6592 34.1449 39.9492 34.0549 40.2792 34.0449C40.5992 34.0549 40.8892 34.1449 41.2392 34.1449H41.6892C42.0292 34.1449 42.3292 34.0549 42.6592 34.0449C42.9792 34.0549 43.2792 34.1449 43.6192 34.1449H44.0692C44.4192 34.1449 44.7092 34.0549 45.0292 34.0449C45.3592 34.0549 45.6492 34.1449 45.9992 34.1449H46.4492L46.6292 34.1349L46.5792 34.0549C46.4792 34.0649 46.3692 34.0849 46.2592 34.0849C45.9292 34.0849 45.6392 33.9849 45.2892 33.9849H44.8392C44.4992 33.9849 44.1992 34.0849 43.8792 34.0849C43.5492 34.0749 43.2592 33.9849 42.9092 33.9849H42.4592C42.1192 33.9849 41.8192 34.0849 41.4992 34.0849C41.1692 34.0749 40.8792 33.9849 40.5292 33.9849H40.0792C39.7292 33.9849 39.4392 34.0849 39.1192 34.0849C38.7892 34.0749 38.4992 33.9849 38.1492 33.9849H37.6992C37.3592 33.9849 37.0592 34.0849 36.7392 34.0849C36.4092 34.0749 36.1192 33.9849 35.7692 33.9849H35.3192V33.9949Z" fill="url(#paint25_linear_4447_32083)"/>
<path d="M35.3192 33.9949C34.9792 33.9949 34.6792 34.0749 34.3592 34.0849C34.2387 34.0817 34.1186 34.0717 33.9992 34.0549L33.9492 34.1349H34.5492C34.8992 34.1349 35.1892 34.0549 35.5092 34.0449C35.8392 34.0549 36.1292 34.1449 36.4792 34.1449H36.9292C37.2692 34.1449 37.5692 34.0549 37.8892 34.0449C38.2192 34.0549 38.5192 34.1449 38.8592 34.1449H39.3092C39.6592 34.1449 39.9492 34.0549 40.2792 34.0449C40.5992 34.0549 40.8892 34.1449 41.2392 34.1449H41.6892C42.0292 34.1449 42.3292 34.0549 42.6592 34.0449C42.9792 34.0549 43.2792 34.1449 43.6192 34.1449H44.0692C44.4192 34.1449 44.7092 34.0549 45.0292 34.0449C45.3592 34.0549 45.6492 34.1449 45.9992 34.1449H46.4492L46.6292 34.1349L46.5792 34.0549C46.4792 34.0649 46.3692 34.0849 46.2592 34.0849C45.9292 34.0849 45.6392 33.9849 45.2892 33.9849H44.8392C44.4992 33.9849 44.1992 34.0849 43.8792 34.0849C43.5492 34.0749 43.2592 33.9849 42.9092 33.9849H42.4592C42.1192 33.9849 41.8192 34.0849 41.4992 34.0849C41.1692 34.0749 40.8792 33.9849 40.5292 33.9849H40.0792C39.7292 33.9849 39.4392 34.0849 39.1192 34.0849C38.7892 34.0749 38.4992 33.9849 38.1492 33.9849H37.6992C37.3592 33.9849 37.0592 34.0849 36.7392 34.0849C36.4092 34.0749 36.1192 33.9849 35.7692 33.9849H35.3192V33.9949Z" fill="url(#paint26_linear_4447_32083)"/>
<path d="M35.3192 33.9949C34.9792 33.9949 34.6792 34.0749 34.3592 34.0849C34.2387 34.0817 34.1186 34.0717 33.9992 34.0549L33.9492 34.1349H34.5492C34.8992 34.1349 35.1892 34.0549 35.5092 34.0449C35.8392 34.0549 36.1292 34.1449 36.4792 34.1449H36.9292C37.2692 34.1449 37.5692 34.0549 37.8892 34.0449C38.2192 34.0549 38.5192 34.1449 38.8592 34.1449H39.3092C39.6592 34.1449 39.9492 34.0549 40.2792 34.0449C40.5992 34.0549 40.8892 34.1449 41.2392 34.1449H41.6892C42.0292 34.1449 42.3292 34.0549 42.6592 34.0449C42.9792 34.0549 43.2792 34.1449 43.6192 34.1449H44.0692C44.4192 34.1449 44.7092 34.0549 45.0292 34.0449C45.3592 34.0549 45.6492 34.1449 45.9992 34.1449H46.4492L46.6292 34.1349L46.5792 34.0549C46.4792 34.0649 46.3692 34.0849 46.2592 34.0849C45.9292 34.0849 45.6392 33.9849 45.2892 33.9849H44.8392C44.4992 33.9849 44.1992 34.0849 43.8792 34.0849C43.5492 34.0749 43.2592 33.9849 42.9092 33.9849H42.4592C42.1192 33.9849 41.8192 34.0849 41.4992 34.0849C41.1692 34.0749 40.8792 33.9849 40.5292 33.9849H40.0792C39.7292 33.9849 39.4392 34.0849 39.1192 34.0849C38.7892 34.0749 38.4992 33.9849 38.1492 33.9849H37.6992C37.3592 33.9849 37.0592 34.0849 36.7392 34.0849C36.4092 34.0749 36.1192 33.9849 35.7692 33.9849H35.3192V33.9949Z" fill="url(#paint27_linear_4447_32083)"/>
<path d="M34.6797 32.9848L34.4297 33.4048C34.7197 33.3548 35.1397 33.2348 35.4997 33.2348C35.8597 33.2348 36.2997 33.3248 36.7397 33.3348C37.2397 33.3348 37.4397 33.2148 37.8397 33.1748C38.2497 33.1348 38.6397 33.2248 39.0397 33.2348C39.3497 33.2348 39.8297 33.1248 40.2397 33.0848C40.6397 33.0348 41.0097 33.1148 41.4897 33.1148C41.9797 33.1248 42.0597 32.9948 42.6497 32.9848C43.2897 32.9748 43.3497 33.0748 43.9097 33.0748C44.3297 33.0948 44.6997 32.9848 45.0797 32.9648C45.4597 32.9348 45.6297 32.9648 45.9097 32.9648L45.7197 32.6448L35.5897 32.8748L34.6797 32.9848Z" fill="#97C924"/>
<path d="M45.2891 32.9749L45.6891 33.0049C45.7856 33.0164 45.8822 33.0264 45.9791 33.0349L45.9391 32.9849C45.8791 33.0049 45.4991 32.9649 45.2991 32.9849L45.2891 32.9749Z" fill="white"/>
</g>
<path d="M40.2891 23.0024L37.0766 28.5649L33.7891 34.2649H46.7891L43.5766 28.6899L40.2891 23.0149V23.0024ZM40.2891 23.3024L43.4391 28.7649L46.5266 34.1149H34.0516L37.2016 28.6399L40.2891 23.3024Z" fill="#C8A400"/>
</g>
<defs>
<linearGradient id="paint0_linear_4447_32083" x1="40.1567" y1="29.4248" x2="40.3467" y2="28.8548" gradientUnits="userSpaceOnUse">
<stop stop-color="#510000"/>
<stop offset="0.3" stop-color="#8A0000"/>
<stop offset="1" stop-color="#AA0000"/>
</linearGradient>
<linearGradient id="paint1_linear_4447_32083" x1="40.4269" y1="29.6549" x2="40.5769" y2="29.2549" gradientUnits="userSpaceOnUse">
<stop stop-color="#FF2A2A"/>
<stop offset="1" stop-color="#FF0000"/>
</linearGradient>
<linearGradient id="paint2_linear_4447_32083" x1="34.7383" y1="32.2648" x2="53.7283" y2="32.2648" gradientUnits="userSpaceOnUse">
<stop stop-color="#002255"/>
<stop offset="0.5" stop-color="#0044AA"/>
<stop offset="1" stop-color="#002255"/>
</linearGradient>
<linearGradient id="paint3_linear_4447_32083" x1="34.7383" y1="32.2648" x2="53.7283" y2="32.2648" gradientUnits="userSpaceOnUse">
<stop stop-color="#002255"/>
<stop offset="0.5" stop-color="#0044AA"/>
<stop offset="1" stop-color="#002255"/>
</linearGradient>
<linearGradient id="paint4_linear_4447_32083" x1="34.7383" y1="32.2648" x2="53.7283" y2="32.2648" gradientUnits="userSpaceOnUse">
<stop stop-color="#002255"/>
<stop offset="0.5" stop-color="#0044AA"/>
<stop offset="1" stop-color="#002255"/>
</linearGradient>
<linearGradient id="paint5_linear_4447_32083" x1="34.7383" y1="32.2648" x2="53.7283" y2="32.2648" gradientUnits="userSpaceOnUse">
<stop stop-color="#002255"/>
<stop offset="0.5" stop-color="#0044AA"/>
<stop offset="1" stop-color="#002255"/>
</linearGradient>
<linearGradient id="paint6_linear_4447_32083" x1="34.7383" y1="32.2648" x2="53.7283" y2="32.2648" gradientUnits="userSpaceOnUse">
<stop stop-color="#002255"/>
<stop offset="0.5" stop-color="#0044AA"/>
<stop offset="1" stop-color="#002255"/>
</linearGradient>
<linearGradient id="paint7_linear_4447_32083" x1="34.7383" y1="32.2648" x2="53.7283" y2="32.2648" gradientUnits="userSpaceOnUse">
<stop stop-color="#002255"/>
<stop offset="0.5" stop-color="#0044AA"/>
<stop offset="1" stop-color="#002255"/>
</linearGradient>
<linearGradient id="paint8_linear_4447_32083" x1="34.7383" y1="32.2648" x2="53.7283" y2="32.2648" gradientUnits="userSpaceOnUse">
<stop stop-color="#002255"/>
<stop offset="0.5" stop-color="#0044AA"/>
<stop offset="1" stop-color="#002255"/>
</linearGradient>
<linearGradient id="paint9_linear_4447_32083" x1="34.7383" y1="32.2648" x2="53.7283" y2="32.2648" gradientUnits="userSpaceOnUse">
<stop stop-color="#002255"/>
<stop offset="0.5" stop-color="#0044AA"/>
<stop offset="1" stop-color="#002255"/>
</linearGradient>
<linearGradient id="paint10_linear_4447_32083" x1="34.7383" y1="32.2648" x2="53.7283" y2="32.2648" gradientUnits="userSpaceOnUse">
<stop stop-color="#002255"/>
<stop offset="0.5" stop-color="#0044AA"/>
<stop offset="1" stop-color="#002255"/>
</linearGradient>
<linearGradient id="paint11_linear_4447_32083" x1="34.7377" y1="32.2649" x2="53.7277" y2="32.2649" gradientUnits="userSpaceOnUse">
<stop stop-color="#002255"/>
<stop offset="0.5" stop-color="#0044AA"/>
<stop offset="1" stop-color="#002255"/>
</linearGradient>
<linearGradient id="paint12_linear_4447_32083" x1="34.7373" y1="32.2649" x2="53.7273" y2="32.2649" gradientUnits="userSpaceOnUse">
<stop stop-color="#002255"/>
<stop offset="0.5" stop-color="#0044AA"/>
<stop offset="1" stop-color="#002255"/>
</linearGradient>
<linearGradient id="paint13_linear_4447_32083" x1="38.7703" y1="31.6848" x2="38.7703" y2="32.2748" gradientUnits="userSpaceOnUse">
<stop stop-color="#F5F549"/>
<stop offset="1" stop-color="#97C924"/>
</linearGradient>
<linearGradient id="paint14_linear_4447_32083" x1="38.7703" y1="31.6848" x2="38.7703" y2="32.2748" gradientUnits="userSpaceOnUse">
<stop stop-color="#F5F549"/>
<stop offset="1" stop-color="#97C924"/>
</linearGradient>
<linearGradient id="paint15_linear_4447_32083" x1="38.77" y1="31.6849" x2="38.77" y2="32.2749" gradientUnits="userSpaceOnUse">
<stop stop-color="#F5F549"/>
<stop offset="1" stop-color="#97C924"/>
</linearGradient>
<linearGradient id="paint16_linear_4447_32083" x1="38.7702" y1="31.6848" x2="38.7702" y2="32.2748" gradientUnits="userSpaceOnUse">
<stop stop-color="#F5F549"/>
<stop offset="1" stop-color="#97C924"/>
</linearGradient>
<linearGradient id="paint17_linear_4447_32083" x1="38.7702" y1="31.6848" x2="38.7702" y2="32.2748" gradientUnits="userSpaceOnUse">
<stop stop-color="#F5F549"/>
<stop offset="1" stop-color="#97C924"/>
</linearGradient>
<linearGradient id="paint18_linear_4447_32083" x1="34.3684" y1="32.8273" x2="46.0016" y2="32.8273" gradientUnits="userSpaceOnUse">
<stop stop-color="#002255"/>
<stop offset="0.5" stop-color="#0044AA"/>
<stop offset="1" stop-color="#002255"/>
</linearGradient>
<linearGradient id="paint19_linear_4447_32083" x1="33.9934" y1="33.9889" x2="46.5846" y2="33.9889" gradientUnits="userSpaceOnUse">
<stop stop-color="#002255"/>
<stop offset="0.5" stop-color="#0044AA"/>
<stop offset="1" stop-color="#002255"/>
</linearGradient>
<linearGradient id="paint20_linear_4447_32083" x1="33.9934" y1="33.9889" x2="46.5846" y2="33.9889" gradientUnits="userSpaceOnUse">
<stop stop-color="#002255"/>
<stop offset="0.5" stop-color="#0044AA"/>
<stop offset="1" stop-color="#002255"/>
</linearGradient>
<linearGradient id="paint21_linear_4447_32083" x1="33.9934" y1="33.9889" x2="46.5846" y2="33.9889" gradientUnits="userSpaceOnUse">
<stop stop-color="#002255"/>
<stop offset="0.5" stop-color="#0044AA"/>
<stop offset="1" stop-color="#002255"/>
</linearGradient>
<linearGradient id="paint22_linear_4447_32083" x1="33.9934" y1="33.9889" x2="46.5846" y2="33.9889" gradientUnits="userSpaceOnUse">
<stop stop-color="#002255"/>
<stop offset="0.5" stop-color="#0044AA"/>
<stop offset="1" stop-color="#002255"/>
</linearGradient>
<linearGradient id="paint23_linear_4447_32083" x1="33.9934" y1="33.9889" x2="46.5846" y2="33.9889" gradientUnits="userSpaceOnUse">
<stop stop-color="#002255"/>
<stop offset="0.5" stop-color="#0044AA"/>
<stop offset="1" stop-color="#002255"/>
</linearGradient>
<linearGradient id="paint24_linear_4447_32083" x1="33.9934" y1="33.9889" x2="46.5846" y2="33.9889" gradientUnits="userSpaceOnUse">
<stop stop-color="#002255"/>
<stop offset="0.5" stop-color="#0044AA"/>
<stop offset="1" stop-color="#002255"/>
</linearGradient>
<linearGradient id="paint25_linear_4447_32083" x1="33.9934" y1="33.9889" x2="46.5846" y2="33.9889" gradientUnits="userSpaceOnUse">
<stop stop-color="#002255"/>
<stop offset="0.5" stop-color="#0044AA"/>
<stop offset="1" stop-color="#002255"/>
</linearGradient>
<linearGradient id="paint26_linear_4447_32083" x1="33.9934" y1="33.9889" x2="46.5846" y2="33.9889" gradientUnits="userSpaceOnUse">
<stop stop-color="#002255"/>
<stop offset="0.5" stop-color="#0044AA"/>
<stop offset="1" stop-color="#002255"/>
</linearGradient>
<linearGradient id="paint27_linear_4447_32083" x1="33.9934" y1="33.9889" x2="46.5846" y2="33.9889" gradientUnits="userSpaceOnUse">
<stop stop-color="#002255"/>
<stop offset="0.5" stop-color="#0044AA"/>
<stop offset="1" stop-color="#002255"/>
</linearGradient>
<clipPath id="clip0_4447_32083">
<rect width="80" height="60" fill="white" transform="translate(0.289062 0.514893)"/>
</clipPath>
</defs>
</svg>
