<svg width="81" height="61" viewBox="0 0 81 61" fill="none" xmlns="http://www.w3.org/2000/svg">
<g clip-path="url(#clip0_4447_31587)">
<path fill-rule="evenodd" clip-rule="evenodd" d="M40.2891 0.514893H80.2891V60.5149H40.2891V0.514893Z" fill="#CE0000"/>
<path fill-rule="evenodd" clip-rule="evenodd" d="M0.289062 0.514893H40.2891V60.5149H0.289062V0.514893Z" fill="white"/>
<path fill-rule="evenodd" clip-rule="evenodd" d="M19.6782 18.2458C19.6782 18.4257 19.4984 18.5456 19.2786 18.5456C19.0388 18.5456 18.8789 18.4257 18.8789 18.2658C18.8789 18.1059 19.0388 17.9661 19.2786 17.9661C19.4984 17.9661 19.6782 18.1059 19.6782 18.2658V18.2458Z" fill="#F1EEEE"/>
<path fill-rule="evenodd" clip-rule="evenodd" d="M6.87109 16.8471V24.2806H14.3246C14.3246 25.5195 15.5635 26.7584 16.8024 26.7584V34.1919H24.2559V26.7584C25.4948 26.7584 26.7337 25.5195 26.7337 24.2806H34.1672V16.8471H26.7137C26.7137 15.6082 25.4748 14.3693 24.2359 14.3693V6.93579H16.8024V14.3693C15.5435 14.3693 14.3046 15.6082 14.3046 16.8471H6.87109Z" fill="#CC0000"/>
<path fill-rule="evenodd" clip-rule="evenodd" d="M7.13281 17.0869V24.0408H14.5663C14.5663 25.2797 15.8052 26.5186 17.0441 26.5186V33.9521H23.9781V26.5386C25.217 26.5386 26.4559 25.2997 26.4559 24.0608H33.9094V17.1068H26.4759C26.4759 15.8679 25.237 14.629 23.998 14.629V7.17554H17.0441V14.609C15.8052 14.609 14.5663 15.8479 14.5663 17.0869H7.13281Z" fill="#FFE600"/>
<path fill-rule="evenodd" clip-rule="evenodd" d="M7.37109 17.3466V23.781H14.8046C14.8046 25.0199 16.0435 26.2588 17.2824 26.2588V33.6923H23.7368V26.2588C24.9757 26.2588 26.2146 25.0199 26.2146 23.781H33.6481V17.3466H26.2146C26.2146 16.1077 24.9757 14.8688 23.7368 14.8688V7.4353H17.2824V14.8488C16.0435 14.8488 14.8046 16.0877 14.8046 17.3266H7.37109V17.3466Z" fill="#707070"/>
<path fill-rule="evenodd" clip-rule="evenodd" d="M7.62936 17.5864V23.5412H15.0628C15.0628 24.7801 16.3018 26.019 17.5407 26.019V33.4325H23.4755V25.999C24.7144 25.999 25.9533 24.7601 25.9533 23.5212H33.3868V17.5664H25.9533C25.9533 16.3275 24.7144 15.0886 23.4755 15.0886V7.67505H17.5407V15.1085C16.3018 15.1085 15.0628 16.3475 15.0628 17.5864H7.60938H7.62936Z" fill="#A0A0A0"/>
<path fill-rule="evenodd" clip-rule="evenodd" d="M17.6027 14.4891C18.0223 14.9287 17.6826 15.9878 16.8034 16.867C15.9241 17.7463 14.8851 18.066 14.4454 17.6663C14.0058 17.2067 14.3655 16.1477 15.2447 15.2684C16.124 14.3892 17.1631 14.0695 17.6027 14.4891Z" fill="#D0D0D0"/>
<path fill-rule="evenodd" clip-rule="evenodd" d="M17.0628 15.0087C17.5025 15.4484 17.3826 16.2676 16.8031 16.8671C16.2236 17.4666 15.4043 17.5665 14.9647 17.1269C14.5251 16.6873 14.645 15.868 15.2245 15.2885C15.8039 14.709 16.6232 14.5891 17.0628 15.0087Z" fill="#808080"/>
<path fill-rule="evenodd" clip-rule="evenodd" d="M14.8867 16.3275L15.0466 16.1677L15.746 16.5074L15.4063 15.808L15.5861 15.6282L16.2855 17.0269L14.8867 16.3275ZM15.9258 15.2884L16.1256 15.0886L17.1647 16.1677L16.9849 16.3275L15.9258 15.2884Z" fill="#D0D0D0"/>
<path fill-rule="evenodd" clip-rule="evenodd" d="M26.5757 17.6464C26.1361 18.086 25.077 17.7263 24.2178 16.8471C23.3585 15.9678 22.9789 14.9288 23.4185 14.4891C23.8581 14.0495 24.9172 14.4092 25.7964 15.2884C26.6756 16.1677 26.9953 17.2068 26.5957 17.6464H26.5757Z" fill="#D0D0D0"/>
<path fill-rule="evenodd" clip-rule="evenodd" d="M26.0553 17.1268C25.6157 17.5664 24.7965 17.4465 24.217 16.867C23.6375 16.2875 23.5176 15.4683 23.9372 15.0286C24.3768 14.589 25.2161 14.7089 25.7956 15.2884C26.3751 15.8679 26.495 16.6872 26.0553 17.1268Z" fill="#808080"/>
<path fill-rule="evenodd" clip-rule="evenodd" d="M24.7385 14.9287L24.9183 15.1086L24.5586 15.8079L25.258 15.4483L25.4578 15.6481L24.0391 16.3275L24.7385 14.9287ZM25.7975 15.9878L25.9574 16.1476L24.9183 17.2067L24.7385 17.0269L25.7975 15.9878Z" fill="#D0D0D0"/>
<path fill-rule="evenodd" clip-rule="evenodd" d="M23.4181 26.6386C22.9785 26.1989 23.3382 25.1399 24.2174 24.2606C25.0966 23.3814 26.1357 23.0417 26.5753 23.4613C27.0149 23.901 26.6553 24.96 25.776 25.8393C24.8968 26.7185 23.8577 27.0582 23.4181 26.6386Z" fill="#D0D0D0"/>
<path fill-rule="evenodd" clip-rule="evenodd" d="M23.9569 26.099C23.5173 25.6594 23.6371 24.8401 24.2166 24.2606C24.7961 23.6811 25.6154 23.5612 26.055 24.0008C26.4946 24.4404 26.3747 25.2597 25.7953 25.8392C25.2158 26.4187 24.3965 26.5386 23.9369 26.099H23.9569Z" fill="#808080"/>
<path fill-rule="evenodd" clip-rule="evenodd" d="M26.1369 24.7802L25.9571 24.98L25.2577 24.6203L25.6174 25.3197L25.4375 25.4796L24.7382 24.0808L26.1369 24.7802ZM25.1178 25.8393L24.918 26.0191L23.8789 24.96L24.0587 24.7802L25.1178 25.8393Z" fill="#D0D0D0"/>
<path fill-rule="evenodd" clip-rule="evenodd" d="M14.444 23.4813C14.8836 23.0417 15.9427 23.4014 16.8019 24.2606C17.6612 25.1199 18.0209 26.1989 17.6012 26.6186C17.1616 27.0582 16.1026 26.7185 15.2233 25.8393C14.3441 24.96 14.0244 23.901 14.424 23.4813H14.444Z" fill="#D0D0D0"/>
<path fill-rule="evenodd" clip-rule="evenodd" d="M14.9647 24.0008C15.4043 23.5612 16.2236 23.6811 16.8031 24.2606C17.3826 24.8401 17.5025 25.6594 17.0628 26.099C16.6432 26.5386 15.8039 26.4187 15.2245 25.8392C14.645 25.2597 14.5251 24.4404 14.9647 24.0008Z" fill="#808080"/>
<path fill-rule="evenodd" clip-rule="evenodd" d="M16.2814 26.1989L16.1016 25.9991L16.4613 25.3197L15.7619 25.6594L15.5621 25.4795L16.9808 24.7801L16.2814 26.1789V26.1989ZM15.2224 25.1398L15.0625 24.96L16.1016 23.9209L16.2814 24.0808L15.2224 25.1398Z" fill="#D0D0D0"/>
<path d="M25.7297 20.5684C25.7297 23.4361 23.3999 25.7723 20.5235 25.7723C17.6472 25.7723 15.3242 23.4431 15.3242 20.5684C15.3242 17.6937 17.654 15.3645 20.5304 15.3645C23.4067 15.3645 25.7365 17.6937 25.7365 20.5684H25.7297Z" stroke="#707070" stroke-width="0.0921716"/>
<path d="M24.4669 20.5579C24.4669 22.7428 22.6919 24.5228 20.5004 24.5228C18.3089 24.5228 16.5391 22.7482 16.5391 20.5579C16.5391 18.3676 18.3141 16.593 20.5056 16.593C22.6971 16.593 24.4722 18.3676 24.4722 20.5579H24.4669Z" stroke="#707070" stroke-width="0.0702257"/>
<path fill-rule="evenodd" clip-rule="evenodd" d="M18.7808 24.7801C18.7808 24.8463 18.7545 24.9098 18.7077 24.9567C18.6608 25.0035 18.5973 25.0298 18.531 25.0298C18.4648 25.0298 18.4013 25.0035 18.3544 24.9567C18.3076 24.9098 18.2812 24.8463 18.2812 24.7801C18.2812 24.7138 18.3076 24.6503 18.3544 24.6034C18.4013 24.5566 18.4648 24.5303 18.531 24.5303C18.5973 24.5303 18.6608 24.5566 18.7077 24.6034C18.7545 24.6503 18.7808 24.7138 18.7808 24.7801ZM22.7373 24.7801C22.7373 24.8463 22.711 24.9098 22.6642 24.9567C22.6173 25.0035 22.5538 25.0298 22.4876 25.0298C22.4213 25.0298 22.3578 25.0035 22.3109 24.9567C22.2641 24.9098 22.2378 24.8463 22.2378 24.7801C22.2378 24.7138 22.2641 24.6503 22.3109 24.6034C22.3578 24.5566 22.4213 24.5303 22.4876 24.5303C22.5538 24.5303 22.6173 24.5566 22.6642 24.6034C22.711 24.6503 22.7373 24.7138 22.7373 24.7801ZM20.3394 24.7801V25.0398H20.0197C19.68 25.0398 19.68 25.2996 20.0197 25.2996H20.3394V25.5394C20.3394 25.8191 20.6392 25.8391 20.6592 25.5594V25.2796H20.9989C21.3386 25.2796 21.3386 25.0398 20.9989 25.0398H20.6792V24.7801C20.6792 24.5203 20.3394 24.5203 20.3394 24.7801Z" fill="#D0D0D0"/>
<path fill-rule="evenodd" clip-rule="evenodd" d="M19.2796 21.1035V21.2634C19.2796 21.2634 19.1997 21.3633 18.7001 21.4032C18.2005 21.4432 18.1206 21.4032 18.1206 21.4032C18.1406 21.5431 18.2405 21.7829 18.2005 22.0627C18.2205 22.4024 18.1206 22.7021 18.1206 22.7021C18.1206 22.7221 18.0607 22.7421 17.9608 22.7221C18.0407 22.6421 18.0407 22.4423 18.0407 22.1226C18.0407 21.8428 17.7409 21.3832 17.8009 21.2634C17.8608 21.1435 19.2796 21.1035 19.2796 21.1035ZM21.2379 20.5839L22.5367 20.564C22.5367 20.564 22.7366 20.9636 22.7166 21.1634C22.7166 21.3633 22.6367 21.5631 22.5567 21.4632C22.4568 21.3633 22.5967 21.3832 22.6167 21.1634C22.6167 20.9236 22.4568 20.7038 22.4568 20.7038C22.4568 20.7038 22.0971 20.8437 21.5776 20.8237C21.058 20.7838 21.2978 20.5839 21.2379 20.5839Z" fill="#D0D0D0" stroke="#707070" stroke-width="0.0199825"/>
<path fill-rule="evenodd" clip-rule="evenodd" d="M21.3969 20.9634C21.8764 20.9435 22.1962 21.0034 22.1962 21.0034C22.1962 21.0034 22.396 21.4031 22.396 21.6029C22.376 21.8027 22.3161 22.0025 22.2162 21.9026C22.1362 21.8227 22.2561 21.8427 22.2761 21.6029C22.2761 21.3831 22.1162 21.1433 22.1162 21.1433C22.1162 21.1433 21.7765 21.2832 21.257 21.2632C20.7374 21.2232 20.8973 21.2032 20.8374 21.1833C20.7774 21.1833 20.7574 21.3431 19.9781 21.3631C19.1788 21.3631 18.7792 21.1833 18.7792 21.1833C18.7792 21.1833 18.6992 21.3032 18.2197 21.3431H17.6202C17.6402 21.463 17.7401 21.7028 17.7201 22.0025C17.7201 22.3223 17.6202 22.642 17.6202 22.642H17.4803C17.5602 22.582 17.5402 22.3622 17.5602 22.0625C17.5602 21.7627 17.2405 21.3231 17.3005 21.1833C17.3804 21.0634 17.7401 21.1833 17.8 21.1233C17.86 21.0434 17.4803 20.5838 17.5602 20.1641C17.6202 19.7445 18.0398 19.8644 18.5394 19.8644C19.0389 19.8844 20.138 20.0243 20.4177 19.8644C20.6975 19.7245 20.5776 19.185 20.8174 18.8453C20.897 18.7481 20.9978 18.6706 21.1122 18.6186C21.2265 18.5666 21.3513 18.5416 21.4768 18.5456C21.6566 18.5456 21.8764 19.145 21.8764 19.2849L21.8165 19.3648H21.7366V19.4248C21.5367 19.4448 21.5168 19.2649 21.3969 19.145C21.3569 19.3449 21.5567 20.0243 21.5567 20.4639C21.5567 20.8236 21.4169 20.9834 21.3969 20.9634Z" fill="#D0D0D0" stroke="#707070" stroke-width="0.0199825"/>
<path fill-rule="evenodd" clip-rule="evenodd" d="M19.818 20.324C19.818 20.4639 19.1985 20.8036 19.1386 20.9235C19.0986 21.0634 19.2984 21.1233 19.2385 21.2033C19.1785 21.2832 19.1186 21.2432 19.0986 21.2632L18.8588 20.7636C18.8588 20.7636 19.4583 20.4839 19.4383 20.364C19.4183 20.2441 18.9987 20.1642 18.9187 19.8844C18.8388 19.6047 18.8788 19.0252 18.8188 18.9053C18.7589 18.7854 18.0195 18.6655 18.0195 18.5056C18.0195 18.3058 18.7789 17.8262 18.8588 17.7463C18.9387 17.6664 19.0187 17.8262 18.9387 17.8862C18.8588 17.9661 18.2793 18.4257 18.2793 18.4856C18.2793 18.5656 18.7589 18.6455 18.9187 18.6455C19.0986 18.6455 19.1785 18.5656 19.1785 18.4856C19.1785 18.4257 18.9987 18.4257 18.9987 18.2858C18.9987 18.1459 19.0986 18.046 19.2584 18.046C19.3384 18.046 19.4982 18.1459 19.4982 18.2658C19.4982 18.3857 19.3584 18.4057 19.3384 18.4856C19.3184 18.5856 19.4982 18.6455 19.6581 18.6455C19.818 18.6455 20.3775 19.0651 20.4574 19.1451C20.5573 19.205 20.6372 19.205 20.5573 19.2849C20.4774 19.3649 20.5173 19.4448 20.4374 19.3649C20.3985 19.3264 20.3709 19.278 20.3575 19.225C20.3575 19.165 19.758 18.8653 19.6581 18.9253C19.5782 19.0052 19.6581 19.8844 19.6581 19.9643C19.6581 20.1042 19.8379 20.1042 19.818 20.324Z" fill="#D0D0D0" stroke="#707070" stroke-width="0.0199825"/>
<path fill-rule="evenodd" clip-rule="evenodd" d="M18.7812 18.6255H19.7804V19.6446H18.7812V18.6255Z" fill="#A7A7A7"/>
<path d="M21.9597 22.3032L18.6804 17.3808C18.6498 17.3348 18.6092 17.306 18.5897 17.3164C18.5703 17.3268 18.5793 17.3724 18.6099 17.4184L21.8892 22.3409C21.9198 22.3868 21.9603 22.4156 21.9798 22.4052C21.9993 22.3948 21.9903 22.3492 21.9597 22.3032Z" fill="#808080"/>
<path fill-rule="evenodd" clip-rule="evenodd" d="M19.039 17.8255C19.039 17.8644 19.0218 17.9017 18.991 17.9293C18.9602 17.9568 18.9185 17.9723 18.875 17.9723C18.8315 17.9723 18.7898 17.9568 18.759 17.9293C18.7282 17.9017 18.7109 17.8644 18.7109 17.8255C18.7109 17.7866 18.7282 17.7492 18.759 17.7217C18.7898 17.6942 18.8315 17.6787 18.875 17.6787C18.9185 17.6787 18.9602 17.6942 18.991 17.7217C19.0218 17.7492 19.039 17.7866 19.039 17.8255Z" fill="#D0D0D0" stroke="#707070" stroke-width="0.02914"/>
<path fill-rule="evenodd" clip-rule="evenodd" d="M21.8964 19.145C21.8964 19.205 21.4967 19.2849 21.0771 19.2849C20.6375 19.2849 20.2578 19.205 20.2578 19.145C20.2578 19.0851 20.6375 19.245 21.0571 19.245C21.5167 19.245 21.8964 19.0851 21.8964 19.145Z" fill="#808080"/>
<path fill-rule="evenodd" clip-rule="evenodd" d="M18.8594 19.6448H19.6787V19.9445H18.8794L18.8594 19.6448Z" fill="#A7A7A7"/>
<path fill-rule="evenodd" clip-rule="evenodd" d="M21.5192 18.9252C21.4393 19.0851 21.3794 19.185 21.3594 19.165C21.3594 19.165 21.3993 19.0052 21.4793 18.8653L21.6391 18.6255C21.6591 18.6455 21.5992 18.7853 21.5192 18.9252ZM21.7191 19.3249L21.5592 19.4248C21.6006 19.3553 21.6549 19.2942 21.7191 19.2449C21.819 19.165 21.8989 19.1251 21.8989 19.145L21.739 19.3049L21.7191 19.3249Z" fill="#808080"/>
<path fill-rule="evenodd" clip-rule="evenodd" d="M21.6365 19.1251L21.7364 19.3649L21.5765 19.1651L21.4766 18.9253L21.6365 19.1251ZM21.5566 19.7646C21.5566 19.7646 21.3168 19.8045 20.9971 19.8045C20.6773 19.8045 20.4176 19.7845 20.4176 19.7646L20.9971 19.7246C21.3168 19.7246 21.5566 19.7246 21.5566 19.7646ZM19.6782 19.6846C19.6782 19.7046 19.4984 19.7246 19.2786 19.7246C19.0388 19.7246 18.8789 19.7246 18.8789 19.6846C18.8789 19.6846 19.0388 19.6447 19.2786 19.6447C19.4984 19.6447 19.6782 19.6646 19.6782 19.6846Z" fill="#808080"/>
<path fill-rule="evenodd" clip-rule="evenodd" d="M17.8828 22.2423C17.8828 22.2423 18.0227 22.562 18.6022 22.562C19.1617 22.562 19.3615 22.4621 19.1417 22.3022C18.9219 22.1424 18.4623 22.1823 18.5422 22.3222C18.5822 22.4821 18.3624 22.522 18.3224 22.4221C18.2625 22.3222 18.0627 22.0025 18.4223 21.9825C18.802 21.9625 19.5813 21.8426 19.7811 22.0624C19.981 22.2822 19.5613 22.4621 19.8811 22.522C20.1808 22.562 20.2407 22.4621 20.7803 22.4421C21.3198 22.4021 21.5396 22.542 21.7195 22.522C21.9193 22.522 21.8793 22.1823 21.7195 22.1224C21.5796 22.0225 21.2998 22.0025 21.2199 21.9226C21.1599 21.8226 20.9601 21.9226 20.9801 21.8027C20.9801 21.7028 21.2599 21.8626 21.2599 21.8226L21.2998 21.7827H21.2399L21.2599 21.7427L21.2199 21.7627L21.2399 21.7227C21.2399 21.7227 21.1799 21.7627 21.1799 21.7227H21.14C21.1799 21.6828 21.1599 21.6828 21.14 21.6628H21.08V21.6028C21.04 21.6028 21.04 21.6028 21.0201 21.6428V21.5429C21.0201 21.5229 21.06 21.5029 21.12 21.5029C21.2599 21.5029 21.3198 21.6628 21.3798 21.6628C21.4197 21.6628 21.4797 21.5029 21.6595 21.5629L21.9592 21.6828C22.0592 21.7427 21.8993 21.8027 21.9592 21.8826C22.0192 21.9625 22.3789 22.2223 22.279 22.522C22.179 22.8018 21.8793 22.8418 21.8793 22.9617C21.8393 23.0815 22.7386 23.0416 22.9584 23.0815C23.1112 23.1093 23.2473 23.1952 23.338 23.3213L22.9384 23.3413C22.9384 23.3413 22.7386 23.2414 22.239 23.2214C21.7394 23.2214 21.5596 23.0216 21.3598 22.9816L20.5605 23.0216L19.961 22.9617C19.8411 22.9417 19.1217 23.2814 19.1217 23.3613H18.6421C18.6421 23.3613 18.7021 23.1815 18.9819 23.1615C19.2416 23.1215 19.5214 23.0016 19.5014 22.9217L19.5813 22.4021C19.5813 22.2822 19.7012 22.2023 19.6812 22.1624C19.6613 22.0824 19.3415 22.0225 19.0418 22.0225C18.7421 22.0225 18.4223 22.0425 18.3624 22.1024C18.3224 22.1823 18.3624 22.4021 18.4223 22.3622C18.4823 22.3622 18.4024 22.2023 18.4623 22.1823C18.5918 22.1425 18.7265 22.1223 18.862 22.1224C19.0218 22.1224 19.2816 22.2623 19.2816 22.3222C19.2816 22.3422 19.3615 22.4821 19.2416 22.542C19.0422 22.6081 18.8319 22.6353 18.6222 22.6219C18.4134 22.6111 18.2092 22.5566 18.0227 22.4621C17.9428 22.4021 17.8828 22.2623 17.8828 22.2423Z" fill="#D0D0D0" stroke="#808080" stroke-width="0.0199825"/>
<path fill-rule="evenodd" clip-rule="evenodd" d="M21.5183 21.7428C21.5183 21.7507 21.5168 21.7585 21.5138 21.7658C21.5108 21.773 21.5063 21.7796 21.5008 21.7852C21.4952 21.7908 21.4886 21.7952 21.4813 21.7982C21.4741 21.8012 21.4663 21.8028 21.4584 21.8028C21.4505 21.8028 21.4427 21.8012 21.4354 21.7982C21.4282 21.7952 21.4216 21.7908 21.416 21.7852C21.4104 21.7796 21.406 21.773 21.403 21.7658C21.4 21.7585 21.3984 21.7507 21.3984 21.7428C21.3984 21.7269 21.4048 21.7117 21.416 21.7004C21.4272 21.6892 21.4425 21.6829 21.4584 21.6829C21.4743 21.6829 21.4895 21.6892 21.5008 21.7004C21.512 21.7117 21.5183 21.7269 21.5183 21.7428Z" fill="black"/>
<path d="M24.6155 20.8037L24.9352 20.8636L25.4747 20.504L25.4348 20.7038L25.155 20.8836L24.9951 20.9636L25.0951 21.1234L25.2749 21.4032L25.2349 21.603L24.8952 21.0235L24.5755 20.9636L24.6155 20.8037ZM24.0759 18.4458L24.6754 18.166L24.5156 17.8063L24.5955 17.7664L24.9951 18.6456L24.9352 18.6856L24.7554 18.3059L24.1559 18.6056L24.0759 18.4458ZM23.1168 17.2868L23.6763 16.7672L23.7962 16.8871V17.7664L24.2358 17.3667L24.3357 17.4866L23.7762 18.0062L23.6563 17.8863V17.007L23.2167 17.4067L23.1168 17.2868ZM20.639 16.2877L20.7389 15.5283H20.8987L20.7988 16.2277L21.3983 16.2877V16.3876L20.639 16.2877ZM19.42 16.4076L19.2801 15.6482L19.44 15.6083L19.5599 16.2877L20.1594 16.1678V16.2677L19.42 16.4076ZM17.162 17.5066L17.1021 17.4466L17.5017 17.1269L17.7015 17.3267C17.6586 17.4131 17.6049 17.4937 17.5417 17.5665C17.4898 17.64 17.4295 17.7071 17.3618 17.7664C17.2775 17.8339 17.1831 17.8878 17.0821 17.9262C16.9822 17.9462 16.8822 17.9662 16.8223 17.9262C16.7458 17.918 16.6749 17.8826 16.6225 17.8263C16.582 17.7676 16.5611 17.6977 16.5625 17.6265C16.5625 17.5466 16.5825 17.4466 16.6425 17.3667C16.6824 17.2868 16.7624 17.2069 16.8423 17.1469C16.9088 17.0905 16.9828 17.0434 17.0621 17.007L17.2419 16.9671C17.2819 16.9671 17.3418 16.9671 17.3818 17.007L17.3019 17.1069C17.2641 17.0909 17.223 17.084 17.182 17.087L17.0621 17.1069C17.0112 17.1338 16.9641 17.1674 16.9222 17.2069C16.8623 17.2468 16.8023 17.2868 16.7823 17.3467C16.7486 17.3815 16.7216 17.4221 16.7024 17.4666V17.5665C16.7024 17.6265 16.7224 17.6864 16.7624 17.7264L16.9022 17.8263L17.1021 17.8063C17.2859 17.7287 17.4352 17.5866 17.5217 17.4067L17.4418 17.2868L17.162 17.5066ZM17.142 23.0417L16.5026 23.5013L16.023 22.8219L16.1029 22.762L16.5026 23.3015L16.6824 23.1616L16.3627 22.702L16.4226 22.6621L16.7624 23.1217L17.0421 22.9218L17.142 23.0417ZM16.2028 22.0426C16.3028 22.0226 16.3627 21.9627 16.4027 21.8628V21.563C16.3711 21.4599 16.3083 21.3691 16.2228 21.3033C16.1629 21.2433 16.063 21.2233 15.983 21.2433C15.9198 21.2571 15.8633 21.2924 15.8232 21.3432C15.8032 21.3832 15.7632 21.4431 15.7632 21.5031L15.7832 21.7229C15.8232 21.8428 15.8631 21.9227 15.9431 22.0027C16.003 22.0626 16.1029 22.0826 16.2028 22.0426ZM16.2628 22.2025C16.2042 22.2211 16.1417 22.2235 16.0819 22.2095C16.0221 22.1954 15.9672 22.1654 15.9231 22.1225C15.8165 22.0265 15.7401 21.9015 15.7033 21.7629C15.6633 21.643 15.6633 21.563 15.6633 21.4431C15.6633 21.3232 15.7033 21.2833 15.7432 21.2233C15.7888 21.1521 15.8606 21.1018 15.9431 21.0835C16.0101 21.0685 16.0802 21.0755 16.1429 21.1034C16.2228 21.1434 16.2828 21.1834 16.3427 21.2633C16.4654 21.4378 16.5221 21.6503 16.5026 21.8628C16.4953 21.9417 16.4678 22.0174 16.4226 22.0826C16.3827 22.1425 16.3227 22.1825 16.2628 22.2025ZM16.3227 20.6438H15.5234V20.0843L15.5634 19.8445L15.6433 19.7047C15.6596 19.6902 15.6785 19.6792 15.6992 19.6723C15.7198 19.6655 15.7416 19.6629 15.7632 19.6647C15.8232 19.6647 15.8631 19.6847 15.9031 19.7446C15.9231 19.8046 15.9631 19.8845 15.9631 20.0044C15.9894 19.92 16.0377 19.8442 16.1029 19.7846L16.3227 19.5848V19.7846L16.1629 19.9245L16.043 20.0444C16.0192 20.0679 15.999 20.0948 15.983 20.1243C15.9797 20.1508 15.9797 20.1777 15.983 20.2042V20.2842L15.9631 20.484H16.3227V20.6438ZM15.8831 20.464V20.1243C15.8899 20.0645 15.8899 20.0042 15.8831 19.9445C15.876 19.9151 15.8623 19.8878 15.8432 19.8645C15.8288 19.8442 15.8075 19.83 15.7832 19.8246C15.7432 19.8246 15.7033 19.8445 15.6833 19.8845L15.6433 20.0843V20.484H15.9031L15.8831 20.464ZM18.0212 17.087V16.1877L18.1811 16.0878L19.0004 16.4875L18.8405 16.5874L18.6007 16.4675L18.1811 16.7273V17.007L18.0212 17.087ZM18.1611 16.6274L18.5208 16.4275L18.321 16.3076C18.259 16.2781 18.199 16.2447 18.1411 16.2077L18.1611 16.3676V16.6274ZM21.8779 16.3876L22.7171 16.0479L22.857 16.1478L22.7971 17.067L22.6572 16.9471L22.6772 16.6873L22.2775 16.3876L22.0177 16.4875L21.8779 16.3876ZM22.3575 16.3476L22.6972 16.5874V16.3476C22.7064 16.2802 22.7198 16.2135 22.7371 16.1478C22.6945 16.1864 22.6476 16.2199 22.5972 16.2477L22.3575 16.3476ZM24.4156 19.2051L25.175 19.0253L25.2949 19.5648L25.3348 19.8046L25.2949 19.9445C25.2846 19.9639 25.2705 19.9811 25.2533 19.9948C25.2361 20.0086 25.2162 20.0187 25.195 20.0244C25.135 20.0244 25.0751 20.0244 25.0351 19.9844C24.9691 19.9175 24.921 19.835 24.8952 19.7446C24.8986 19.7778 24.8986 19.8113 24.8952 19.8445L24.8153 20.0044L24.6554 20.2442L24.6155 20.0444L24.7354 19.8445L24.8153 19.7246C24.8424 19.6758 24.8561 19.6206 24.8553 19.5648C24.8509 19.5311 24.8442 19.4977 24.8353 19.4649L24.7953 19.285L24.4556 19.365L24.4156 19.2051ZM24.8752 19.265L24.9552 19.6048C24.9552 19.6647 24.9951 19.7246 25.0151 19.7646C25.0151 19.8046 25.0551 19.8246 25.0751 19.8445L25.155 19.8645C25.175 19.8645 25.2149 19.8246 25.2149 19.7846C25.231 19.719 25.231 19.6504 25.2149 19.5848L25.115 19.2051L24.8752 19.265Z" fill="#D0D0D0"/>
</g>
<defs>
<clipPath id="clip0_4447_31587">
<rect width="80" height="60" fill="white" transform="translate(0.289062 0.514893)"/>
</clipPath>
</defs>
</svg>
