<svg width="81" height="61" viewBox="0 0 81 61" fill="none" xmlns="http://www.w3.org/2000/svg">
<g clip-path="url(#clip0_4447_20094)">
<path d="M19.0547 0.514893H61.5117V60.5149H19.0548L19.0547 0.514893Z" fill="white"/>
<path d="M-2.16797 0.514893H19.0547V60.5149H-2.16797V0.514893ZM61.5118 0.514893H82.7343V60.5149H61.5235L61.5118 0.514893ZM25.418 29.5071L23.7539 30.0696L31.4297 36.8079C32.0157 38.5305 31.2305 39.0344 30.7265 39.9485L39.0469 38.8938L38.8477 47.2726L40.582 47.2258L40.1953 38.9055L48.539 39.9016C48.0234 38.8118 47.5664 38.2375 48.0352 36.5031L55.6993 30.1164L54.3633 29.6243C53.2617 28.7805 54.832 25.5579 55.0664 23.5188C55.0664 23.5188 50.6015 25.0539 50.3085 24.2454L49.1602 22.054L45.0938 26.5305C44.6484 26.636 44.4609 26.4601 44.3555 26.0851L46.2305 16.7336L43.2539 18.4094C43.0078 18.5266 42.7617 18.4329 42.5977 18.1399L39.7265 12.3976L36.7734 18.3626C36.5508 18.5735 36.3282 18.5969 36.1407 18.4564L33.3047 16.8626L35.0157 26.132C34.875 26.507 34.5469 26.6008 34.1719 26.4016L30.2695 21.9836C29.7657 22.804 29.4258 24.1281 28.7462 24.4329C28.0782 24.7141 25.8164 23.8704 24.3047 23.5423C24.8203 25.4055 26.4375 28.4993 25.418 29.5188V29.5071Z" fill="#D52B1E"/>
</g>
<defs>
<clipPath id="clip0_4447_20094">
<rect width="80" height="60" fill="white" transform="translate(0.289062 0.514893)"/>
</clipPath>
</defs>
</svg>
