<svg width="81" height="61" viewBox="0 0 81 61" fill="none" xmlns="http://www.w3.org/2000/svg">
<g clip-path="url(#clip0_4447_27816)">
<path fill-rule="evenodd" clip-rule="evenodd" d="M0.289062 0.514893H80.2891V60.5149H0.289062V0.514893Z" fill="#FFE800"/>
<path fill-rule="evenodd" clip-rule="evenodd" d="M0.289062 30.5149H80.2891V60.5149H0.289062V30.5149Z" fill="#00148E"/>
<path fill-rule="evenodd" clip-rule="evenodd" d="M0.289062 45.5149H80.2891V60.5149H0.289062V45.5149Z" fill="#DA0010"/>
<path fill-rule="evenodd" clip-rule="evenodd" d="M33.9906 36.8648L24.9156 46.4273L24.7656 46.2273L33.8156 36.6648L33.9656 36.8648H33.9906ZM40.2906 38.4273L28.4406 50.9273L28.2406 50.7273L40.0781 38.2273L40.2906 38.4273Z" fill="black"/>
<path fill-rule="evenodd" clip-rule="evenodd" d="M28.4766 50.7812L27.3691 51.8888L26.1067 52.8414L27.0593 51.579L28.1668 50.4715L28.4766 50.7812Z" fill="#808080" stroke="black" stroke-width="0.0606398"/>
<path fill-rule="evenodd" clip-rule="evenodd" d="M25.4258 45.8938L24.3183 47.0013L23.0559 47.9539L24.0085 46.6915L25.116 45.584L25.4258 45.8938Z" fill="#808080" stroke="black" stroke-width="0.0606398"/>
<path fill-rule="evenodd" clip-rule="evenodd" d="M26.2825 14.8638C26.2825 14.8638 25.2869 41.7918 29.2694 41.7918C33.2519 41.7918 35.2487 38.9598 35.2487 38.9598L35.2037 24.1598L26.2825 14.8638Z" fill="#FFDF00" stroke="black" stroke-width="0.0894427"/>
<path fill-rule="evenodd" clip-rule="evenodd" d="M28.7181 17.376C28.7181 18.792 28.2737 38.96 30.265 38.96C32.2562 38.96 35.2487 37.544 35.2487 37.544L35.2037 24.16L28.7181 17.376Z" fill="#0000C4" stroke="black" stroke-width="0.0894427"/>
<path fill-rule="evenodd" clip-rule="evenodd" d="M30.0117 18.7358C30.0117 20.1518 30.2648 36.1278 32.2617 36.1278H35.2486L35.2036 24.1598L30.0117 18.7358Z" fill="#E10000" stroke="black" stroke-width="0.0894427"/>
<path fill-rule="evenodd" clip-rule="evenodd" d="M26.0625 15.0149L35.1125 24.5774L35.275 24.3774L26.225 14.8149L26.0625 15.0149Z" fill="black"/>
<path fill-rule="evenodd" clip-rule="evenodd" d="M23.3247 20.3818C23.3247 20.3818 20.7582 46.4683 28.4577 46.4683C34.874 46.4683 34.874 42.3531 36.1572 42.3531L34.874 32.7431L23.3175 20.3818H23.3247Z" fill="#FFDF00" stroke="black" stroke-width="0.0999444"/>
<path d="M29.6855 24.7188C29.7405 24.7147 31.688 20.5002 36.5555 17.8326" stroke="black" stroke-width="0.108269"/>
<path fill-rule="evenodd" clip-rule="evenodd" d="M28.8903 20.7461C29.569 21.0628 29.9985 21.4273 30.3895 21.8523C29.6128 21.6896 29.212 21.6238 28.5333 21.3071C27.8545 20.9903 27.336 20.5058 26.924 20.1138C27.4293 20.2676 28.2078 20.4276 28.8903 20.7461Z" fill="#005B00" stroke="black" stroke-width="0.0489698"/>
<path fill-rule="evenodd" clip-rule="evenodd" d="M30.5909 23.3271C30.6409 23.4121 30.5979 23.5319 30.4922 23.5906C30.3864 23.6494 30.2597 23.6268 30.2084 23.5396C30.1572 23.4525 30.2027 23.337 30.3084 23.2783C30.4142 23.2195 30.5409 23.2421 30.5909 23.3271Z" fill="#FF0000" stroke="black" stroke-width="0.0335875"/>
<path fill-rule="evenodd" clip-rule="evenodd" d="M32.7262 18.0485C32.4321 18.7951 32.1076 19.2871 31.7336 19.7461C31.9017 18.9155 31.9731 18.4891 32.2672 17.7425C32.5613 16.9959 32.9906 16.3966 33.3376 15.9196C33.1878 16.4656 33.022 17.2978 32.7262 18.0485Z" fill="#005B00" stroke="black" stroke-width="0.0461669"/>
<path fill-rule="evenodd" clip-rule="evenodd" d="M31.7313 18.0098C31.6635 18.7564 31.5147 19.3346 31.3192 19.9211C31.2681 19.1955 31.23 18.8329 31.2978 18.0863C31.3657 17.3396 31.574 16.6129 31.744 16.0309C31.7463 16.5338 31.7996 17.259 31.7313 18.0098Z" fill="#005B00" stroke="black" stroke-width="0.0398615"/>
<path fill-rule="evenodd" clip-rule="evenodd" d="M32.3798 18.8635C31.9952 19.316 31.6717 19.5123 31.3317 19.6398C31.6743 19.0123 31.8422 18.6785 32.2268 18.226C32.6115 17.7735 33.0237 17.561 33.3547 17.396C33.1085 17.7779 32.7666 18.4085 32.3798 18.8635Z" fill="#005B00" stroke="black" stroke-width="0.0432966"/>
<path fill-rule="evenodd" clip-rule="evenodd" d="M29.1025 19.4959C29.555 20.0389 29.78 20.5619 29.95 21.1399C29.3575 20.7369 29.045 20.5489 28.5925 20.0059C28.14 19.4629 27.885 18.7829 27.685 18.2349C28.0525 18.5494 28.6475 18.9499 29.1025 19.4959Z" fill="#005B00" stroke="black" stroke-width="0.0495432"/>
<path fill-rule="evenodd" clip-rule="evenodd" d="M28.1922 23.6814C28.7579 24.1339 29.0564 24.6004 29.2944 25.1274C28.5748 24.8289 28.1969 24.6949 27.6313 24.2424C27.0656 23.7899 26.7214 23.1779 26.4504 22.6839C26.9011 22.9307 27.6235 23.2264 28.1922 23.6814Z" fill="#005B00" stroke="black" stroke-width="0.0526016"/>
<path fill-rule="evenodd" clip-rule="evenodd" d="M30.84 23.433C30.3875 24.157 29.898 24.6435 29.337 25.1025C29.6075 24.3085 29.7245 23.902 30.177 23.178C30.6295 22.454 31.2755 21.859 31.7975 21.385C31.5623 21.9097 31.295 22.705 30.84 23.433Z" fill="#005B00" stroke="black" stroke-width="0.0540371"/>
<path fill-rule="evenodd" clip-rule="evenodd" d="M31.3134 23.4042C30.5894 23.9019 29.9592 24.1609 29.2877 24.3649C29.9067 23.7272 30.2069 23.3919 30.9309 22.8942C31.6549 22.3964 32.4624 22.0989 33.1114 21.8649C32.6585 22.2634 32.0414 22.9037 31.3134 23.4042Z" fill="#005B00" stroke="black" stroke-width="0.0519301"/>
<path fill-rule="evenodd" clip-rule="evenodd" d="M36.1955 18.2014C35.8787 18.5634 35.5947 18.7779 35.2887 18.9649C35.5495 18.5329 35.6748 18.3084 35.9915 17.9464C36.3083 17.5844 36.6737 17.3294 36.9677 17.1274C36.7737 17.4042 36.514 17.8374 36.1955 18.2014Z" fill="#005B00" stroke="black" stroke-width="0.0275007"/>
<path fill-rule="evenodd" clip-rule="evenodd" d="M35.5102 17.1335C35.3292 17.5181 35.1357 17.8071 34.9147 18.0961C35.0257 17.7115 35.0742 17.5181 35.2552 17.1335C35.4362 16.7489 35.6912 16.3876 35.8972 16.0986C35.8019 16.3621 35.6922 16.7468 35.5102 17.1335Z" fill="#005B00" stroke="black" stroke-width="0.0228451"/>
<path fill-rule="evenodd" clip-rule="evenodd" d="M36.5696 17.824C36.2529 18.005 36.0149 18.0605 35.7769 18.0775C36.0936 17.7985 36.2529 17.648 36.5696 17.467C36.8864 17.286 37.1839 17.235 37.4219 17.197C37.2049 17.3612 36.8881 17.642 36.5696 17.824Z" fill="#005B00" stroke="black" stroke-width="0.0250413"/>
<path fill-rule="evenodd" clip-rule="evenodd" d="M32.1957 19.8517C31.6301 20.1911 31.1648 20.3886 30.6803 20.5586C31.1969 20.1492 31.4516 19.9361 32.0172 19.5967C32.5828 19.2573 33.1736 19.0236 33.6476 18.8386C33.2802 19.0998 32.7644 19.5105 32.1957 19.8517Z" fill="#005B00" stroke="black" stroke-width="0.0314413"/>
<path fill-rule="evenodd" clip-rule="evenodd" d="M33.85 20.3583C33.1033 20.8108 32.4676 21.0243 31.7961 21.1773C32.4517 20.5708 32.7718 20.2498 33.5185 19.7973C34.2651 19.3448 35.0768 19.1068 35.7288 18.9208C35.2547 19.2941 34.6007 19.9033 33.85 20.3583Z" fill="#005B00" stroke="black" stroke-width="0.052336"/>
<path d="M28.7752 27.6818C28.8233 27.6543 28.3683 23.6843 31.4055 19.5548" stroke="black" stroke-width="0.106572"/>
<path fill-rule="evenodd" clip-rule="evenodd" d="M33.4308 19.3147C33.4808 19.3997 33.4378 19.5194 33.332 19.5782C33.2263 19.6369 33.0995 19.6143 33.0483 19.5272C32.997 19.4401 33.0425 19.3246 33.1483 19.2658C33.254 19.2071 33.3808 19.2297 33.4308 19.3147Z" fill="#FF0000" stroke="black" stroke-width="0.0335875"/>
<path fill-rule="evenodd" clip-rule="evenodd" d="M34.7784 18.5273C34.8284 18.6123 34.7854 18.7321 34.6797 18.7908C34.5739 18.8496 34.4472 18.827 34.3959 18.7398C34.3447 18.6527 34.3902 18.5372 34.4959 18.4785C34.6017 18.4197 34.7284 18.4423 34.7784 18.5273Z" fill="#FF0000" stroke="black" stroke-width="0.0335875"/>
<path fill-rule="evenodd" clip-rule="evenodd" d="M31.0123 21.1737C31.0473 21.2387 30.9821 21.3415 30.8646 21.4002C30.7471 21.459 30.6232 21.4528 30.5873 21.3862C30.5514 21.3196 30.6184 21.2201 30.7359 21.1613C30.8534 21.1026 30.9773 21.1087 31.0123 21.1737Z" fill="#FF0000" stroke="black" stroke-width="0.0302835"/>
<path fill-rule="evenodd" clip-rule="evenodd" d="M31.4108 20.9987C31.4458 21.0637 31.3805 21.1664 31.263 21.2252C31.1455 21.2839 31.0216 21.2778 30.9858 21.2112C30.9499 21.1445 31.0169 21.045 31.1344 20.9863C31.2519 20.9275 31.3758 20.9337 31.4108 20.9987Z" fill="#FF0000" stroke="black" stroke-width="0.0302835"/>
<path fill-rule="evenodd" clip-rule="evenodd" d="M31.1725 21.3737C31.2075 21.4387 31.1422 21.5414 31.0247 21.6002C30.9072 21.6589 30.7833 21.6528 30.7475 21.5862C30.7116 21.5195 30.7786 21.42 30.8961 21.3613C31.0136 21.3025 31.1375 21.3087 31.1725 21.3737Z" fill="#FF0000" stroke="black" stroke-width="0.0302835"/>
<path fill-rule="evenodd" clip-rule="evenodd" d="M31.8738 21.4274C31.9238 21.5274 31.8738 21.6524 31.7488 21.7149C31.6238 21.7774 31.4988 21.7399 31.4488 21.6274C31.3988 21.5149 31.4488 21.4024 31.5738 21.3399C31.6988 21.2774 31.8238 21.3149 31.8613 21.4274H31.8738Z" fill="#FF0000" stroke="black" stroke-width="0.0375"/>
<path fill-rule="evenodd" clip-rule="evenodd" d="M32.1612 21.1273C32.1987 21.2273 32.1612 21.3523 32.0362 21.4148C31.9112 21.4773 31.7862 21.4398 31.7237 21.3398C31.6612 21.2398 31.7237 21.1023 31.8487 21.0398C31.9737 20.9773 32.0987 21.0273 32.1487 21.1273H32.1612Z" fill="#FF0000" stroke="black" stroke-width="0.0375"/>
<path fill-rule="evenodd" clip-rule="evenodd" d="M32.2254 21.265C32.2754 21.365 32.2254 21.5025 32.1004 21.5525C31.9754 21.6025 31.8504 21.5775 31.8004 21.4775C31.7504 21.3775 31.8004 21.2525 31.9254 21.19C32.0504 21.1275 32.1754 21.165 32.2254 21.265Z" fill="#FF0000" stroke="black" stroke-width="0.0375"/>
<path fill-rule="evenodd" clip-rule="evenodd" d="M25.893 23.1331C25.893 24.5048 23.3265 39.6096 29.75 43.7248C32.3165 45.0966 36.1663 42.3531 36.1663 43.7248L34.883 32.7431L25.893 23.1331Z" fill="#0000C4" stroke="black" stroke-width="0.0999444"/>
<path fill-rule="evenodd" clip-rule="evenodd" d="M28.4588 25.8767C28.4588 27.2485 27.1755 38.2302 31.0325 40.9815C33.599 43.725 40.0225 42.981 40.0225 42.981L34.8823 32.7432L28.4588 25.8767Z" fill="#E10000" stroke="black" stroke-width="0.0999444"/>
<path fill-rule="evenodd" clip-rule="evenodd" d="M23.2656 20.2649L35.1156 32.7649L35.3281 32.5649L23.4781 20.0774L23.2781 20.2774L23.2656 20.2649Z" fill="black"/>
<path fill-rule="evenodd" clip-rule="evenodd" d="M21.439 18.7831L22.1912 18.9158L22.4125 19.1371C22.3822 19.1348 22.6338 19.3583 22.324 19.6681C22.0143 19.9778 21.5735 19.5336 21.5735 19.5336C21.5735 19.5336 21.7062 20.2858 22.15 20.7296C22.5937 21.1733 23.1235 21.0836 23.1235 21.0836C23.1235 21.0836 22.6193 20.6703 22.9908 20.3313C23.3628 19.9893 23.5217 20.2428 23.5217 20.2428L23.9642 20.6853L24.2758 20.3738L22.5045 18.6026L22.3718 17.8503L21.2308 17.6613L21.4395 18.7801L21.439 18.7831Z" fill="#CECECC" stroke="black" stroke-width="0.0278887"/>
<path fill-rule="evenodd" clip-rule="evenodd" d="M23.1846 13.5302L24.0948 14.9412L25.2471 15.2522L24.4948 15.7389L25.8666 15.6947L26.4878 16.1384L26.7103 15.7824L26.0873 15.3374L25.6018 13.9637L25.4678 14.8949L24.7593 13.8739L23.1841 13.5269L23.1846 13.5302Z" fill="#CECECC" stroke="black" stroke-width="0.0300285"/>
<path fill-rule="evenodd" clip-rule="evenodd" d="M26.8899 14.3775C26.8899 14.4525 26.7899 14.5162 26.6749 14.5162C26.5599 14.5162 26.4549 14.4525 26.4549 14.3775C26.4549 14.3025 26.5549 14.235 26.6749 14.235C26.7949 14.235 26.8899 14.2987 26.8899 14.3775ZM26.5799 14.6737C26.5799 16.0162 27.6249 21.7162 27.7099 21.855C27.7149 22.0237 27.4699 22.095 27.3549 21.8887C27.0249 21.2362 26.3149 15.8887 26.2899 14.64C26.2749 14.1262 26.4749 14.085 26.7049 14.0962C26.8899 14.1037 27.1199 14.235 27.1199 14.3925C27.1199 14.58 26.8299 14.7187 26.5799 14.6737Z" fill="#E10000" stroke="black" stroke-width="0.057735"/>
<path fill-rule="evenodd" clip-rule="evenodd" d="M27.2888 15.7086C27.2513 15.7836 27.1244 15.8223 27.0151 15.7936C26.9059 15.7648 26.838 15.6748 26.8755 15.5998C26.913 15.5248 27.0418 15.4823 27.1558 15.5123C27.2698 15.5423 27.3281 15.6298 27.2888 15.7086ZM26.8461 15.9273C27.1911 18.6236 26.0338 22.7873 26.0433 22.9511C25.9655 23.1173 25.6953 23.1311 25.691 22.8923C25.6341 22.7373 26.9665 18.9761 26.5875 15.8211C26.8301 15.3036 27.0408 15.3123 27.2536 15.3811C27.4256 15.4348 27.5785 15.6236 27.4998 15.7811C27.406 15.9686 27.0611 16.0348 26.8461 15.9273Z" fill="#0000C4" stroke="black" stroke-width="0.060506"/>
<path fill-rule="evenodd" clip-rule="evenodd" d="M23.6262 19.4523C23.6262 19.5773 23.5012 19.7023 23.3512 19.7023C23.2012 19.7023 23.0762 19.5773 23.0762 19.4523C23.0762 19.3273 23.2012 19.2273 23.3512 19.2273C23.5012 19.2273 23.6137 19.3273 23.6137 19.4523H23.6262ZM23.2262 19.9523C23.2262 22.1898 24.5387 31.6898 24.6387 31.9273C24.6387 32.2023 24.3512 32.3273 24.2012 31.9773C23.7887 30.8898 22.9012 21.9773 22.8637 19.9023C22.8512 19.0398 23.1012 18.9773 23.3887 18.9898C23.6262 19.0023 23.9012 19.2273 23.9012 19.4898C23.9012 19.7898 23.5387 20.0273 23.2262 19.9523Z" fill="#E10000" stroke="black" stroke-width="0.0875"/>
<path fill-rule="evenodd" clip-rule="evenodd" d="M24.302 20.6069C24.252 20.7269 24.0895 20.7914 23.9515 20.7482C23.8135 20.7051 23.73 20.5637 23.78 20.4437C23.83 20.3237 23.995 20.2532 24.139 20.2982C24.283 20.3432 24.3545 20.4809 24.302 20.6069ZM23.7325 20.9646C24.0875 25.2392 22.487 31.8797 22.494 32.1396C22.39 32.4055 22.046 32.4336 22.048 32.0545C21.9805 31.8096 23.791 25.8044 23.407 20.8019C23.7315 19.9742 23.999 19.9832 24.2675 20.0875C24.4845 20.1689 24.673 20.4651 24.568 20.7171C24.443 21.0171 24.0025 21.1304 23.7325 20.9646Z" fill="#0000C4" stroke="black" stroke-width="0.0852291"/>
<path fill-rule="evenodd" clip-rule="evenodd" d="M46.5891 36.8648L55.6516 46.4273L55.8141 46.2273L46.7516 36.6648L46.5891 36.8648ZM40.2891 38.4273L52.1391 50.9273L52.3391 50.7273L40.5016 38.2273L40.2891 38.4273Z" fill="black"/>
<path fill-rule="evenodd" clip-rule="evenodd" d="M52.1016 50.7812L53.2091 51.8888L54.4714 52.8414L53.5188 51.579L52.4113 50.4715L52.1016 50.7812Z" fill="#808080" stroke="black" stroke-width="0.0606398"/>
<path fill-rule="evenodd" clip-rule="evenodd" d="M55.1523 45.8938L56.2598 47.0013L57.5222 47.9539L56.5696 46.6915L55.4621 45.584L55.1523 45.8938Z" fill="#808080" stroke="black" stroke-width="0.0606398"/>
<path fill-rule="evenodd" clip-rule="evenodd" d="M54.2956 14.864C54.2956 14.864 55.2913 41.792 51.3088 41.792C47.3263 41.792 45.3294 38.96 45.3294 38.96L45.3744 24.16L54.2956 14.864Z" fill="#FFDF00" stroke="black" stroke-width="0.0894427"/>
<path fill-rule="evenodd" clip-rule="evenodd" d="M51.86 17.376C51.86 18.792 52.3044 38.96 50.3132 38.96C48.3219 38.96 45.3294 37.544 45.3294 37.544L45.3744 24.16L51.86 17.376Z" fill="#0000C4" stroke="black" stroke-width="0.0894427"/>
<path fill-rule="evenodd" clip-rule="evenodd" d="M50.5664 18.7361C50.5664 20.1521 50.3133 36.1281 48.3164 36.1281H45.3295L45.3745 24.1601L50.5664 18.7361Z" fill="#E10000" stroke="black" stroke-width="0.0894427"/>
<path fill-rule="evenodd" clip-rule="evenodd" d="M54.5133 15.0149L45.4633 24.5774L45.3008 24.3774L54.3508 14.8149L54.5133 15.0149Z" fill="black"/>
<path fill-rule="evenodd" clip-rule="evenodd" d="M47.3682 22.3995C47.3682 22.3995 49.9052 25.6545 51.1292 28.1701C52.3522 30.691 53.7802 34.5322 53.7802 34.5322C53.7802 34.5322 52.9642 30.7505 51.4242 27.7186C49.4062 23.9045 47.3672 22.6165 47.3682 22.3995Z" fill="#005B00" stroke="black" stroke-width="0.0417337"/>
<path fill-rule="evenodd" clip-rule="evenodd" d="M47.2825 19.8139C47.2825 19.8139 50.1136 23.8395 51.4058 26.8252C52.6965 29.8164 54.1335 34.3002 54.1335 34.3002C54.1335 34.3002 53.436 29.9864 51.7997 26.377C49.6432 21.8227 47.2643 20.0533 47.2825 19.8139Z" fill="#005B00" stroke="black" stroke-width="0.0482227"/>
<path fill-rule="evenodd" clip-rule="evenodd" d="M49.7241 15.8336C49.7241 15.8336 51.7271 21.7949 52.3374 25.4811C52.9446 29.1706 53.3153 34.2481 53.3153 34.2481C53.3153 34.2481 53.7011 29.9866 52.8829 25.4629C51.7511 19.6711 49.6411 16.0184 49.7241 15.8336Z" fill="#005B00" stroke="black" stroke-width="0.0547737"/>
<path fill-rule="evenodd" clip-rule="evenodd" d="M47.9273 15.5607C47.9273 15.5607 50.7009 20.8549 51.7813 24.4525C52.8588 28.0552 53.8721 33.253 53.8721 33.253C53.8721 33.253 53.7258 28.5312 52.3302 24.1519C50.4581 18.5885 47.8667 15.7996 47.9273 15.5607Z" fill="#005B00" stroke="black" stroke-width="0.0555036"/>
<path fill-rule="evenodd" clip-rule="evenodd" d="M51.2589 17.2457C51.2589 17.2457 52.6392 22.9457 52.9859 26.3463C53.3299 29.7492 53.4284 34.3404 53.4284 34.3404C53.4284 34.3404 53.9079 30.6247 53.4267 26.4378C52.7424 21.0607 51.1847 17.3937 51.2589 17.2457Z" fill="#005B00" stroke="black" stroke-width="0.0492217"/>
<path fill-rule="evenodd" clip-rule="evenodd" d="M47.6108 17.4026C47.6108 17.4026 50.294 21.9376 51.3799 25.1076C52.4633 28.2826 53.53 32.9226 53.53 32.9226C53.53 32.9226 53.2708 28.6226 51.8752 24.7726C50.0113 19.8926 47.5615 17.6276 47.6108 17.4026Z" fill="#005B00" stroke="black" stroke-width="0.0506234"/>
<path fill-rule="evenodd" clip-rule="evenodd" d="M47.1067 20.5609C47.1067 20.5609 49.9378 24.156 51.2301 26.9094C52.5207 29.6684 53.9577 33.8576 53.9577 33.8576C53.9577 33.8576 53.2602 29.7534 51.6239 26.4327C49.4674 22.2526 47.0886 20.7947 47.1067 20.5609Z" fill="#005B00" stroke="black" stroke-width="0.0476898"/>
<path fill-rule="evenodd" clip-rule="evenodd" d="M47.4739 18.9092C47.4739 18.9092 50.0783 23.1386 51.212 26.198C52.3439 29.2627 53.5489 33.809 53.5489 33.809C53.5489 33.809 53.0664 29.5007 51.6226 25.7951C49.7101 21.1105 47.4445 19.1429 47.4739 18.9092Z" fill="#005B00" stroke="black" stroke-width="0.0475875"/>
<path fill-rule="evenodd" clip-rule="evenodd" d="M50.2943 15.9238C50.2943 15.9238 51.9687 21.7601 52.3837 25.3248C52.7953 28.8923 52.9028 33.769 52.9028 33.769C52.9028 33.769 53.5008 29.7253 52.9233 25.3459C52.1006 19.733 50.2029 16.0944 50.2943 15.9238Z" fill="#005B00" stroke="black" stroke-width="0.0532434"/>
<path fill-rule="evenodd" clip-rule="evenodd" d="M47.9976 14.4688C47.9976 14.4688 50.4426 19.9667 51.3276 23.6381C52.2096 27.3143 52.9596 32.5746 52.9596 32.5746C52.9596 32.5746 53.0256 27.8583 51.8706 23.3827C50.3076 17.6891 47.9286 14.7019 47.9976 14.4688Z" fill="#005B00" stroke="black" stroke-width="0.0547386"/>
<path fill-rule="evenodd" clip-rule="evenodd" d="M51.8878 17.6631C51.8878 17.6631 52.9394 23.1364 53.0908 26.3785C53.2393 29.6226 53.0745 33.9819 53.0745 33.9819C53.0745 33.9819 53.7663 30.4811 53.5256 26.4868C53.1505 21.3536 51.8051 17.7999 51.8878 17.6631Z" fill="#005B00" stroke="black" stroke-width="0.0473281"/>
<path fill-rule="evenodd" clip-rule="evenodd" d="M47.6851 16.7355C47.6851 16.7355 50.1301 21.4742 51.0151 24.718C51.8971 27.9665 52.6471 32.669 52.6471 32.669C52.6471 32.669 52.7131 28.3745 51.5581 24.4282C49.9951 19.418 47.6161 16.9547 47.6851 16.7355Z" fill="#005B00" stroke="black" stroke-width="0.0517292"/>
<path fill-rule="evenodd" clip-rule="evenodd" d="M57.2495 20.3821C57.2495 20.3821 59.816 46.4686 52.1165 46.4686C45.7003 46.4686 45.7003 42.3533 44.417 42.3533L45.7003 32.7433L57.2568 20.3821H57.2495Z" fill="#FFDF00" stroke="black" stroke-width="0.0999444"/>
<path fill-rule="evenodd" clip-rule="evenodd" d="M54.6851 23.1333C54.6851 24.5051 57.2516 39.6098 50.8281 43.7251C48.2616 45.0968 44.4118 42.3533 44.4118 43.7251L45.6951 32.7433L54.6851 23.1333Z" fill="#0000C4" stroke="black" stroke-width="0.0999444"/>
<path fill-rule="evenodd" clip-rule="evenodd" d="M52.1194 25.8767C52.1194 27.2485 53.4026 38.2302 49.5456 40.9815C46.9791 43.725 40.5556 42.981 40.5556 42.981L45.6959 32.7432L52.1194 25.8767Z" fill="#E10000" stroke="black" stroke-width="0.0999444"/>
<path fill-rule="evenodd" clip-rule="evenodd" d="M57.3125 20.2649L45.4625 32.7649L45.25 32.5649L57.1 20.0774L57.3125 20.2774V20.2649Z" fill="black"/>
<path fill-rule="evenodd" clip-rule="evenodd" d="M59.1352 18.7833L58.383 18.9161L58.1617 19.1373C58.192 19.1351 57.9405 19.3586 58.2502 19.6683C58.56 19.9781 59.0007 19.5338 59.0007 19.5338C59.0007 19.5338 58.868 20.2861 58.4242 20.7298C57.9805 21.1736 57.4507 21.0838 57.4507 21.0838C57.4507 21.0838 57.955 20.6706 57.5835 20.3316C57.2115 19.9896 57.0525 20.2431 57.0525 20.2431L56.61 20.6856L56.2985 20.3741L58.0697 18.6028L58.2025 17.8506L59.3435 17.6616L59.1347 18.7803L59.1352 18.7833Z" fill="#CECECC" stroke="black" stroke-width="0.0278887"/>
<path fill-rule="evenodd" clip-rule="evenodd" d="M57.3897 13.5302L56.4794 14.9412L55.3272 15.2522L56.0794 15.7389L54.7077 15.6947L54.0864 16.1384L53.8639 15.7824L54.4869 15.3374L54.9724 13.9637L55.1064 14.8949L55.8149 13.8739L57.3902 13.5269L57.3897 13.5302Z" fill="#CECECC" stroke="black" stroke-width="0.0300285"/>
<path fill-rule="evenodd" clip-rule="evenodd" d="M53.7 14.3775C53.7 14.4525 53.8 14.5162 53.915 14.5162C54.03 14.5162 54.135 14.4525 54.135 14.3775C54.135 14.3025 54.035 14.235 53.915 14.235C53.795 14.235 53.7 14.2987 53.7 14.3775ZM54.01 14.6737C54.01 16.0162 52.965 21.7162 52.88 21.855C52.875 22.0237 53.12 22.095 53.235 21.8887C53.565 21.2362 54.275 15.8887 54.3 14.64C54.315 14.1262 54.115 14.085 53.885 14.0962C53.7 14.1037 53.47 14.235 53.47 14.3925C53.47 14.58 53.76 14.7187 54.01 14.6737Z" fill="#E10000" stroke="black" stroke-width="0.057735"/>
<path fill-rule="evenodd" clip-rule="evenodd" d="M53.2894 15.7088C53.3269 15.7838 53.4537 15.8226 53.563 15.7938C53.6722 15.7651 53.7401 15.6751 53.7026 15.6001C53.6651 15.5251 53.5364 15.4826 53.4224 15.5126C53.3084 15.5426 53.25 15.6301 53.2894 15.7088ZM53.732 15.9276C53.387 18.6238 54.5444 22.7876 54.5349 22.9513C54.6126 23.1176 54.8829 23.1313 54.8871 22.8926C54.944 22.7376 53.6116 18.9763 53.9906 15.8213C53.748 15.3038 53.5374 15.3126 53.3245 15.3813C53.1525 15.4351 52.9996 15.6238 53.0784 15.7813C53.1721 15.9688 53.517 16.0351 53.732 15.9276Z" fill="#0000C4" stroke="black" stroke-width="0.060506"/>
<path fill-rule="evenodd" clip-rule="evenodd" d="M56.9625 19.4526C56.9625 19.5776 57.0875 19.7026 57.225 19.7026C57.375 19.7026 57.5 19.5776 57.5 19.4526C57.5 19.3276 57.375 19.2276 57.225 19.2276C57.075 19.2276 56.9625 19.3276 56.9625 19.4526ZM57.3375 19.9526C57.0382 23.962 56.5711 27.9572 55.9375 31.9276C55.9375 32.2026 56.225 32.3276 56.375 31.9776C56.7875 30.8901 57.675 21.9776 57.7125 19.9026C57.725 19.0401 57.475 18.9776 57.1875 18.9901C56.95 19.0026 56.675 19.2276 56.675 19.4901C56.675 19.7901 57.0375 20.0276 57.35 19.9526H57.3375Z" fill="#E10000" stroke="black" stroke-width="0.0875"/>
<path fill-rule="evenodd" clip-rule="evenodd" d="M56.2761 20.6069C56.3261 20.7269 56.4886 20.7914 56.6266 20.7482C56.7646 20.7051 56.8481 20.5637 56.7981 20.4437C56.7481 20.3237 56.5831 20.2532 56.4391 20.2982C56.2951 20.3432 56.2236 20.4809 56.2761 20.6069ZM56.8456 20.9646C56.4906 25.2392 58.0911 31.8797 58.0841 32.1396C58.1881 32.4055 58.5321 32.4336 58.5301 32.0545C58.5976 31.8096 56.7871 25.8044 57.1711 20.8019C56.8466 19.9742 56.5791 19.9832 56.3106 20.0875C56.0936 20.1689 55.9051 20.4651 56.0101 20.7171C56.1351 21.0171 56.5756 21.1304 56.8456 20.9646Z" fill="#0000C4" stroke="black" stroke-width="0.0852291"/>
<path fill-rule="evenodd" clip-rule="evenodd" d="M36.1752 53.335C36.7609 53.6947 37.4246 53.884 38.1001 53.884C38.7756 53.884 39.4393 53.6947 40.025 53.335V42.3533H37.4585C38.7417 46.4685 38.7417 50.5915 36.168 53.335H36.1752Z" fill="#E10000" stroke="black" stroke-width="0.0999444"/>
<path fill-rule="evenodd" clip-rule="evenodd" d="M38.207 42.5961C38.207 50.3399 36.3477 52.0636 36.3477 53.6211C37.122 53.6211 37.6383 52.8949 38.207 51.8974C38.9814 50.3399 39.0558 42.4736 38.9814 42.5961H38.207Z" fill="#0000C4" stroke="black" stroke-width="0.0824958"/>
<path fill-rule="evenodd" clip-rule="evenodd" d="M36.6582 42.5962C36.6188 47.1199 34.6982 51.3112 35.0613 52.2387C35.4725 53.0699 36.6582 50.3399 38.2069 51.8887C38.9813 50.3399 39.0557 42.4737 38.9813 42.5874H36.6582V42.5962Z" fill="#0000C4" stroke="black" stroke-width="0.0824958"/>
<path fill-rule="evenodd" clip-rule="evenodd" d="M36.8314 41.9362C36.8314 47.025 35.0508 47.3642 35.0508 48.7212C35.8252 48.7212 36.827 47.9795 36.8314 48.0485C37.6058 47.025 37.6802 41.8557 37.6058 41.9362H36.8314Z" fill="#FFDF00" stroke="black" stroke-width="0.0668747"/>
<path fill-rule="evenodd" clip-rule="evenodd" d="M35.2833 41.9362C35.2439 44.909 33.3671 47.439 33.7302 48.0485C34.1458 48.589 35.2833 47.025 36.8321 48.0485C37.6064 47.025 37.6808 41.8557 37.6064 41.9362H35.2833Z" fill="#FFDF00" stroke="black" stroke-width="0.0668747"/>
<path fill-rule="evenodd" clip-rule="evenodd" d="M44.4068 53.335C43.8211 53.6947 43.1574 53.884 42.4819 53.884C41.8065 53.884 41.1428 53.6947 40.5571 53.335V42.3533H43.1236C41.8403 46.4685 41.8403 50.5915 44.4141 53.335H44.4068Z" fill="#E10000" stroke="black" stroke-width="0.0999444"/>
<path fill-rule="evenodd" clip-rule="evenodd" d="M42.375 42.5961C42.375 50.3399 44.2344 52.0636 44.2344 53.6211C43.46 53.6211 42.9438 52.8949 42.375 51.8974C41.6006 50.3399 41.5262 42.4736 41.6006 42.5961H42.375Z" fill="#0000C4" stroke="black" stroke-width="0.0824958"/>
<path fill-rule="evenodd" clip-rule="evenodd" d="M43.9239 42.5962C43.9632 47.1199 45.8839 51.3112 45.5207 52.2387C45.1095 53.0699 43.9239 50.3399 42.3751 51.8887C41.6007 50.3399 41.5264 42.4737 41.6007 42.5874H43.9239V42.5962Z" fill="#0000C4" stroke="black" stroke-width="0.0824958"/>
<path fill-rule="evenodd" clip-rule="evenodd" d="M43.7506 41.9362C43.7506 47.025 45.5312 47.3642 45.5312 48.7212C44.7569 48.7212 43.755 47.9795 43.7506 48.0485C42.9763 47.025 42.9019 41.8557 42.9763 41.9362H43.7506Z" fill="#FFDF00" stroke="black" stroke-width="0.0668747"/>
<path fill-rule="evenodd" clip-rule="evenodd" d="M45.2987 41.9362C45.3381 44.909 47.215 47.439 46.8518 48.0485C46.4362 48.589 45.2987 47.025 43.75 48.0485C42.9756 47.025 42.9012 41.8557 42.9756 41.9362H45.2987Z" fill="#FFDF00" stroke="black" stroke-width="0.0668747"/>
<path fill-rule="evenodd" clip-rule="evenodd" d="M30.4939 43.2099L29.1484 44.1834L30.4939 45.1569L31.1659 44.6702L31.5019 45.1569L31.8379 46.1304L32.1754 45.1569L32.5114 44.6702H50.5399V43.6967H32.5099L32.1739 43.2072C32.1739 42.7204 32.2444 42.2337 32.5114 42.2337H33.8554C33.8554 41.7469 33.1834 40.7734 31.8379 40.7734C30.4939 40.7734 29.8204 41.7469 29.8204 42.2337H31.1659C31.4314 42.2337 31.5019 42.7204 31.5019 43.2099L31.1659 43.6967L30.4924 43.2072L30.4939 43.2099Z" fill="#908F8A" stroke="black" stroke-width="0.0913954"/>
<path fill-rule="evenodd" clip-rule="evenodd" d="M34.4414 45.5698H46.2259V46.1672H34.4449L34.4414 45.5698ZM34.4414 44.9691H46.2259V45.5698H34.4449L34.4414 44.9691ZM34.4414 44.3717H46.2259V44.9724H34.4449L34.4414 44.3717ZM34.4414 43.7743H46.2259V44.3717H34.4449L34.4414 43.7743ZM34.4414 43.1769H46.2259V43.7743H34.4449L34.4414 43.1769ZM34.4414 42.5762H46.2259V43.1769H34.4449L34.4414 42.5762ZM34.4414 41.9822H46.2259V42.5762H34.4449L34.4414 41.9822Z" fill="#B74D00"/>
<path d="M46.2259 45.5698H34.4414L34.4449 46.1672H46.2259V45.5698ZM46.2259 45.5698V44.9691H34.4414L34.4449 45.5698H46.2259ZM46.2259 44.3717H34.4414L34.4449 44.9724H46.2259V44.3717ZM46.2259 44.3717V43.7743M46.2259 44.3717H34.4449L34.4414 43.7743H46.2259M46.2259 43.7743V43.1769M46.2259 43.7743H34.4449L34.4414 43.1769H46.2259M46.2259 43.1769V42.5762M46.2259 43.1769H34.4449L34.4414 42.5762H46.2259M46.2259 42.5762V41.9822H34.4414L34.4449 42.5762H46.2259Z" stroke="black" stroke-width="0.0618648"/>
<path fill-rule="evenodd" clip-rule="evenodd" d="M35.0039 41.9468L39.3102 46.1318H39.9258L35.6227 41.9502H35.007L35.0039 41.9468Z" fill="#908F8A" stroke="black" stroke-width="0.107171"/>
<path fill-rule="evenodd" clip-rule="evenodd" d="M35.0039 46.2583L39.3102 42.0733H39.9258L35.6227 46.2549H35.007L35.0039 46.2583Z" fill="#908F8A" stroke="black" stroke-width="0.107171"/>
<path fill-rule="evenodd" clip-rule="evenodd" d="M35.1211 41.9468V46.1318H35.7406V41.9468H35.1211Z" fill="#908F8A" stroke="black" stroke-width="0.106545"/>
<path fill-rule="evenodd" clip-rule="evenodd" d="M40.5391 41.9468L44.8453 46.1318H45.4609L41.1578 41.9502H40.5422L40.5391 41.9468Z" fill="#908F8A" stroke="black" stroke-width="0.107171"/>
<path fill-rule="evenodd" clip-rule="evenodd" d="M40.5391 46.2583L44.8453 42.0733H45.4609L41.1578 46.2549H40.5422L40.5391 46.2583Z" fill="#908F8A" stroke="black" stroke-width="0.107171"/>
<path fill-rule="evenodd" clip-rule="evenodd" d="M44.9727 41.9468V46.1318H45.5922V41.9468H44.9727Z" fill="#908F8A" stroke="black" stroke-width="0.106545"/>
<path fill-rule="evenodd" clip-rule="evenodd" d="M40.6719 41.9468V46.1318H41.2914V41.9468H40.6719Z" fill="#908F8A" stroke="black" stroke-width="0.106545"/>
<path fill-rule="evenodd" clip-rule="evenodd" d="M39.4219 41.9468V46.1318H40.0414V41.9468H39.4219Z" fill="#908F8A" stroke="black" stroke-width="0.106545"/>
<path fill-rule="evenodd" clip-rule="evenodd" d="M49.0112 29.9997C49.0112 36.8197 44.9802 42.3532 40.0212 42.3532C35.0622 42.3532 31.0312 36.8197 31.0312 29.9997C31.0312 23.1797 35.055 17.6384 40.0212 17.6384C44.9875 17.6384 49.0112 23.1719 49.0112 29.9919V29.9997ZM47.728 29.9997C47.728 36.0602 44.277 40.9814 40.0212 40.9814C35.7655 40.9814 32.3145 36.0602 32.3145 29.9997C32.3145 23.9314 35.7655 19.0102 40.0212 19.0102C44.277 19.0102 47.728 23.9314 47.728 29.9997Z" fill="#FFDF00" stroke="black" stroke-width="0.0999444"/>
<path fill-rule="evenodd" clip-rule="evenodd" d="M43.523 18.6149C42.4428 17.9872 41.261 17.6384 40.0213 17.6384C38.7815 17.6384 37.5998 17.9872 36.5195 18.6072L37.027 19.8782C37.9387 19.3164 38.9726 19.0207 40.0249 19.0207C41.0772 19.0207 42.1111 19.3164 43.0228 19.8782L43.523 18.6072V18.6149Z" fill="#FFDF00" stroke="black" stroke-width="0.0999444"/>
<path fill-rule="evenodd" clip-rule="evenodd" d="M43.5465 41.0523C42.4662 41.6801 41.2845 42.0288 40.0447 42.0288C38.805 42.0288 37.6232 41.6801 36.543 41.0601L37.0505 39.7891C37.9622 40.3508 38.996 40.6465 40.0483 40.6465C41.1007 40.6465 42.1345 40.3508 43.0462 39.7891L43.5465 41.0601V41.0523Z" fill="#FFDF00" stroke="black" stroke-width="0.0999444"/>
<path fill-rule="evenodd" clip-rule="evenodd" d="M47.7406 30.0024C47.7406 36.0649 44.2781 40.9774 40.0281 40.9774C35.7781 40.9774 32.3281 36.0649 32.3281 30.0024C32.3281 23.9399 35.7781 19.0024 40.0281 19.0024C44.2781 19.0024 47.7406 23.9274 47.7406 30.0024Z" fill="#A7CFFF"/>
<path fill-rule="evenodd" clip-rule="evenodd" d="M47.7277 29.9997C47.8075 32.0612 47.3942 33.0687 46.865 35.2154C46.7272 35.4479 46.0675 34.7117 45.676 34.3474C45.2845 33.9832 45.1105 34.6729 44.6175 34.1149C44.1317 33.5414 43.82 34.2699 43.4575 33.7894C43.095 33.3089 39.7382 33.2469 39.7382 33.2004C40.0717 33.0299 41.7827 33.2159 41.5072 32.3402C41.1955 31.4257 39.2597 32.3092 38.9987 31.1467C38.8175 29.9842 35.1127 29.9377 34.8445 29.6587C34.9532 30.0927 37.73 30.2787 37.6647 31.4024C37.5995 31.8674 34.9315 31.9992 34.6705 32.3867C34.453 32.8749 36.773 32.2549 36.8527 32.8517C36.8527 33.0997 36.512 32.8517 35.3085 33.2392C34.6995 33.4329 36.425 34.0374 35.7725 34.3707C35.12 34.7039 33.7207 34.8512 33.7787 34.9907C33.9962 35.6882 37.0195 36.5097 36.7222 36.6259C35.6492 37.1374 35.0837 37.4707 34.569 37.7652C33.0607 35.5006 32.2705 32.7792 32.3142 29.9997C34.6125 29.1162 34.1267 28.9302 38.3752 28.9302C42.6237 28.9302 44.0302 29.1084 47.7277 29.9997Z" fill="#AFFF7B" stroke="black" stroke-width="0.0999444"/>
<path fill-rule="evenodd" clip-rule="evenodd" d="M47.7299 29.9996C47.1499 29.9996 46.5409 30.2631 45.9174 30.2631C45.2867 30.2631 44.6487 29.9918 43.9962 29.9918C43.3437 29.9918 42.5969 30.3483 41.9299 30.3483C41.2557 30.3483 40.6684 29.9996 39.9942 29.9996C39.3199 29.9996 38.6457 30.2631 37.9787 30.2631C37.3117 30.2631 36.6519 29.9918 36.0067 29.9918C35.3614 29.9918 34.7234 30.2631 34.1072 30.2631C33.4909 30.2631 32.8892 29.9918 32.3164 29.9918C32.3164 28.4806 32.5339 27.0391 32.9254 25.7216C34.8829 25.8766 33.7229 24.5049 34.8829 24.5049C35.2215 24.4853 35.5602 24.5428 35.8764 24.6738C36.1927 24.8047 36.4792 25.006 36.7172 25.2643C36.8912 25.2643 37.7612 24.3809 38.7399 24.5049C39.7114 24.6289 39.3562 26.6206 40.6539 26.7214C41.3064 27.2484 41.6907 27.5816 42.5897 27.7986C43.8729 27.9226 47.5487 27.6048 47.5704 27.7831C47.6762 28.5165 47.7296 29.2575 47.7299 29.9996Z" fill="white" stroke="black" stroke-width="0.0999444"/>
<path fill-rule="evenodd" clip-rule="evenodd" d="M41.1861 36.3923C41.1861 36.0503 41.5236 35.8223 41.5236 35.2763C41.5236 34.7303 41.2236 34.7183 41.2136 34.2083C41.2086 33.9983 41.4711 33.7883 41.5861 33.7643C41.7011 33.7403 41.7986 34.2083 41.7986 34.3103C41.7986 34.4123 41.6811 34.0583 41.5836 34.0523C41.4861 34.0463 41.2761 34.0883 41.2761 34.1903C41.2761 34.3943 41.6461 34.6463 41.6186 35.3303C41.5911 36.0023 41.3011 36.2063 41.3011 36.4103C41.3011 36.6143 41.4261 37.1783 41.4261 37.1783C41.4261 37.1783 41.1836 36.7283 41.1836 36.3863L41.1861 36.3923Z" fill="black" stroke="black" stroke-width="0.0516398"/>
<path fill-rule="evenodd" clip-rule="evenodd" d="M42.267 36.3424C42.267 36.0004 41.9295 35.7724 41.9295 35.2264C41.9295 34.6804 42.2295 34.6684 42.2395 34.1584C42.2645 33.9184 41.9445 33.7624 41.8295 33.7444C41.7145 33.7264 41.5795 34.2244 41.5795 34.3204C41.5795 34.4164 41.7145 34.0084 41.812 34.0024C41.9095 33.9964 42.177 34.0384 42.177 34.1404C42.177 34.3444 41.807 34.5964 41.8345 35.2804C41.862 35.9524 42.152 36.1564 42.152 36.3604C42.152 36.5644 42.027 37.1284 42.027 37.1284C42.027 37.1284 42.2695 36.6784 42.2695 36.3364L42.267 36.3424Z" fill="black" stroke="black" stroke-width="0.0516398"/>
<path fill-rule="evenodd" clip-rule="evenodd" d="M41.9133 33.6274C41.9133 33.7899 41.8258 33.9274 41.7258 33.9274C41.6258 33.9274 41.5508 33.7899 41.5508 33.6149C41.5508 33.4399 41.6258 33.3149 41.7258 33.3149C41.8258 33.3149 41.9133 33.4524 41.9133 33.6274ZM44.0383 34.7524H44.0883V37.1899H44.0258L44.0383 34.7524ZM44.5508 34.5524H44.6133V37.0149H44.5508V34.5524Z" fill="black"/>
<path fill-rule="evenodd" clip-rule="evenodd" d="M44.3633 35.6648V35.6023L44.8633 35.6898V35.7523L44.3633 35.6648Z" fill="black"/>
<path fill-rule="evenodd" clip-rule="evenodd" d="M37.2182 36.3724C37.2182 36.3724 39.1032 37.2559 39.5164 37.7829C39.9224 38.3099 39.7629 38.3099 39.7629 38.3099L43.9462 38.4882C43.9462 38.2247 44.6857 38.2247 44.8524 37.6047C45.0192 36.9924 45.0192 36.8142 45.0192 36.8142L43.7069 37.2559L43.7794 36.4654H42.6339L42.4672 37.2559L40.0022 37.1707L40.1689 35.0549L39.6759 35.1402L39.6034 37.1552C39.5164 37.1552 37.2979 36.5429 37.2109 36.3724H37.2182Z" fill="#B74D00" stroke="black" stroke-width="0.0999444"/>
<path fill-rule="evenodd" clip-rule="evenodd" d="M33.4258 23.753C33.4258 23.753 36.159 22.885 40.103 22.947C44.047 23.009 46.7803 23.939 46.7223 23.939C46.6643 23.939 45.9683 22.513 45.9683 22.513C45.9683 22.513 43.1843 21.6993 40.045 21.6373C36.913 21.5753 34.1798 22.2573 34.245 22.3193L33.4258 23.753Z" fill="#FEDE00" stroke="#FEDE00" stroke-width="0.0999444"/>
<path fill-rule="evenodd" clip-rule="evenodd" d="M38.5391 21.7399L40.2391 21.7149L40.2641 22.7024L38.5641 22.7399L38.5391 21.7399ZM34.6391 22.2774L34.0391 23.2649L36.0641 23.0149L35.9016 22.0524L34.6391 22.3024V22.2774ZM36.3516 21.9024L38.0516 21.7649L38.1266 22.7399L36.4391 22.8899L36.3516 21.9024ZM42.4641 21.8149L40.7766 21.6899L40.7141 22.6899L42.4016 22.7899L42.4641 21.8149ZM46.1141 22.4399L46.7266 23.6399L44.9016 23.1899L45.1016 22.2274L46.1016 22.4274L46.1141 22.4399ZM44.6391 22.0649L42.9641 21.8524L42.8391 22.8274L44.5266 23.0524L44.6391 22.0649Z" fill="#38A9F9"/>
<path fill-rule="evenodd" clip-rule="evenodd" d="M40.1015 24.3112L39.9202 23.2649L39.3692 24.1562L39.5722 23.1099L38.753 23.7067L39.304 22.8309L38.3325 23.0479L39.1662 22.4589L38.1875 22.2652L39.1662 22.0637L38.3325 21.4747L39.304 21.6917L38.7458 20.8159L39.5722 21.4127L39.3692 20.3664L39.9202 21.2577L40.1015 20.2114L40.29 21.2577L40.8338 20.3664L40.638 21.4127L41.4572 20.8159L40.899 21.6917L41.8777 21.4747L41.044 22.0637L42.0227 22.2652L41.044 22.4589L41.8777 23.0479L40.899 22.8309L41.4572 23.7067L40.638 23.1099L40.841 24.1562L40.29 23.2649L40.1015 24.3112Z" fill="#FFDF00" stroke="black" stroke-width="0.0999444"/>
<path fill-rule="evenodd" clip-rule="evenodd" d="M41.5504 21.6087C41.5504 22.19 41.0802 22.6587 40.4959 22.6587C39.9117 22.6587 39.4414 22.19 39.4414 21.6087C39.4414 21.0275 39.9117 20.5525 40.4959 20.5525C41.0802 20.5525 41.5504 21.0275 41.5504 21.615V21.6087Z" fill="#FFDF00" stroke="black" stroke-width="0.0889757"/>
<path fill-rule="evenodd" clip-rule="evenodd" d="M40.3758 21.8398C40.3758 21.9023 40.2133 21.9648 40.0258 21.9648C39.8383 21.9648 39.6758 21.9023 39.6758 21.8398C39.6758 21.7773 39.8258 21.7148 40.0258 21.7148C40.2258 21.7148 40.3758 21.7648 40.3758 21.8398ZM41.1258 21.8398C41.1258 21.9023 41.0133 21.9648 40.8758 21.9648C40.7383 21.9648 40.6008 21.9023 40.6008 21.8398C40.6008 21.7648 40.7258 21.7148 40.8633 21.7148C41.0008 21.7148 41.1258 21.7648 41.1258 21.8398Z" fill="black"/>
<path d="M40.3404 22.2708L40.4134 22.3128C40.2379 22.2055 40.3179 22.2453 40.5934 22.5168C40.7508 22.4253 40.7807 22.342 40.8784 22.2288" stroke="black" stroke-width="0.100943"/>
<path d="M39.6436 22.8232L39.7016 22.8852C39.5638 22.7302 39.6291 22.8077 39.9336 23.0092C40.2236 23.048 40.5208 22.9162 40.6948 22.6992" stroke="black" stroke-width="0.0999444"/>
<path fill-rule="evenodd" clip-rule="evenodd" d="M35.4625 24.865C35.4625 24.865 35.5875 25.865 34.825 27.115C34.075 28.3525 34.1875 27.915 34.1875 27.915C34.1875 27.915 34.5375 28.6025 34.475 28.6025C34.4125 28.6025 33.8875 27.9775 33.8875 27.9775L33.2625 28.665C33.2625 28.665 33.8375 27.6025 33.775 27.6025C33.7125 27.6025 33.6 27.2275 33.6 27.2275L34.0625 27.04C34.0625 27.04 34.7625 25.74 34.7625 25.8025C34.7625 25.865 32.675 27.2275 32.675 27.2275L35.4625 24.8775V24.865ZM35.925 25.24C35.8625 25.24 36.2125 26.24 36.5125 26.74C36.8 27.24 36.8 27.8525 36.8 27.8525L37.7875 28.3525L36.5125 26.4275L37.325 26.7275L35.925 25.24ZM35.925 27.8525C35.925 27.8525 36.625 28.6025 36.675 28.8525C36.725 29.1025 36.7375 29.6525 36.7375 29.6525L36.45 29.0275L36.0375 29.59C36.0375 29.59 36.3375 28.715 36.275 28.6525C36.2125 28.59 35.8125 28.965 35.8125 28.965C35.8125 28.965 35.9875 28.465 35.9875 28.415C35.9875 28.365 35.9875 28.04 35.925 27.8525ZM32.4375 29.59C32.675 29.4025 33.1375 29.2775 33.1375 29.2775C33.1375 29.2775 32.85 29.7775 32.7875 29.7775C32.725 29.7775 32.5625 29.7775 32.4375 29.59ZM40.45 26.865C40.45 26.865 41.9625 27.79 41.9625 27.8525C41.9625 27.915 40.975 27.415 40.975 27.415L40.45 26.865ZM37.725 24.9275C37.85 24.99 39.9375 26.7275 39.875 26.7275C39.8125 26.7275 38.95 26.2275 38.95 26.3025V26.7275L38.475 25.74L38.3625 26.115L37.7375 24.9275H37.725ZM38.25 27.7275L38.825 28.9025L39.4125 28.7775C39.4125 28.7775 38.3125 27.7275 38.25 27.7275ZM40.05 26.9775L40.1125 28.1025C40.1125 28.1025 40.45 28.415 40.45 28.3525C40.45 28.29 40.1125 27.04 40.05 26.9775Z" fill="#B7E1FF"/>
<path fill-rule="evenodd" clip-rule="evenodd" d="M23.1133 11.7024C23.1133 11.7024 25.7383 10.2524 28.7258 9.17744C30.9238 8.36984 33.1918 7.76727 35.5008 7.37744C36.3758 7.37744 37.9008 9.60244 38.1508 9.60244C38.4008 9.60244 39.4133 8.97744 40.6883 8.97744C41.9633 8.97744 42.7008 9.97744 42.9633 9.97744H45.2383C45.4883 9.97744 44.4758 7.50244 45.2383 7.62744C45.6133 7.68994 48.8383 8.18994 51.8383 9.15244C54.8383 10.1274 59.0883 11.8524 59.0883 11.8524C59.0883 11.8524 52.1508 12.7649 50.2883 12.5024C50.0383 12.6274 50.2883 14.1274 49.9133 13.4649C49.3383 13.3399 47.2008 13.0024 46.8258 13.0024C46.4508 13.0024 45.7383 13.4274 44.7258 13.6774C43.7258 13.9274 42.4508 14.3024 42.4508 14.3024L44.1008 16.8899L42.0758 17.8899C42.0758 17.8899 40.8133 14.9149 40.3008 14.9149C39.7883 14.9149 39.5508 17.0149 38.9133 16.8899C38.2883 16.7649 38.0383 14.9149 37.5258 14.4149C37.0258 13.9274 34.3508 13.7399 33.3383 13.5024C32.3383 13.2524 30.7008 13.0649 29.8133 12.8149C28.9383 12.5649 28.0383 13.4399 27.6633 13.4399C27.2883 13.4399 28.1633 12.6899 27.7883 12.5649C27.4133 12.4399 27.1633 12.9399 26.9133 12.9399C26.6633 12.9399 24.0008 12.4399 23.7508 12.3149C23.5008 12.1899 24.3758 11.7024 24.1258 11.7024H23.1133Z" fill="#984000"/>
<path fill-rule="evenodd" clip-rule="evenodd" d="M41.971 10.465C41.971 11.154 41.4045 11.713 40.7087 11.713C40.013 11.713 39.4492 11.154 39.4492 10.465C39.4492 9.77596 40.013 9.22021 40.7087 9.22021C41.4045 9.22021 41.971 9.77921 41.971 10.465Z" fill="#808080" stroke="#772600" stroke-width="0.110614"/>
<path fill-rule="evenodd" clip-rule="evenodd" d="M35.5742 10.7023C35.8003 10.4383 36.0805 10.0383 36.8128 10.0383C36.9816 9.97031 36.9816 9.57031 37.3731 9.57031C37.768 9.57031 37.6532 9.97031 37.9367 10.1063C38.2168 10.2383 40.522 9.97031 40.522 9.97031C40.522 9.97031 40.7447 10.1703 40.7447 10.4383C40.7447 10.7063 40.576 10.9023 40.522 10.9023C40.468 10.9023 38.2168 10.7023 38.0481 10.7703C37.8793 10.8383 37.768 10.9023 37.3731 10.9023C36.9816 10.9023 36.8668 10.4383 36.5867 10.4383C36.3066 10.4383 36.0265 10.3703 35.5742 10.7063V10.7023Z" fill="#984000" stroke="#772600" stroke-width="0.194734"/>
<path d="M42.4323 10.5634H43.33C43.654 10.5674 43.7654 10.6834 44.0624 10.6954H44.8488C45.1356 10.6834 45.2875 10.6034 45.5778 10.5634C46.0671 10.5554 45.9018 10.5114 45.8039 10.1634C45.7161 9.90341 45.7026 9.77941 45.5778 9.63141C45.5305 9.31141 45.4225 9.19941 45.409 8.83141C45.3584 8.55141 45.2639 8.36341 45.355 8.03141C45.4833 8.25941 45.5339 8.35141 45.8613 8.36741C46.1988 8.36741 46.3304 8.35541 46.5363 8.49941C46.6915 8.69541 46.9008 8.63141 47.2113 8.63141C47.4678 8.68741 47.5116 8.84341 47.7141 8.96341C47.9538 9.12341 48.109 9.16341 48.4431 9.16341C48.7131 9.22341 48.9494 9.26741 49.1181 9.36341C49.2633 9.56741 49.4894 9.61941 49.7931 9.63141C49.9619 9.63141 50.0969 9.61141 50.242 9.56341C50.5019 9.57941 50.7651 9.56341 51.0858 9.56341C51.295 9.85141 51.3423 9.95941 51.7034 9.96341C51.9531 10.1714 52.1624 10.2034 52.3784 10.2954H53.2221C53.5259 10.3234 53.6204 10.4714 53.8971 10.5634C54.1345 10.6906 54.3779 10.8014 54.6261 10.8954C54.8677 10.9473 55.1131 10.97 55.3585 10.9634C55.5644 11.0914 55.8175 11.0994 55.9761 11.2274C56.209 11.2874 56.5263 11.3594 56.7051 11.4274C57.0021 11.4754 57.1169 11.5874 57.3801 11.6274C57.6063 11.7074 57.3059 11.7714 57.154 11.8274C56.8233 11.8154 56.7996 11.6674 56.479 11.6274C56.3103 11.5114 56.0538 11.5274 55.804 11.4274H55.75C55.9728 11.5874 56.1888 11.6874 56.0875 11.9634C55.8006 11.9634 55.5678 11.9194 55.3011 11.8954C55.0176 11.8314 54.8894 11.7634 54.5721 11.7634C54.8894 11.6714 54.9704 11.7714 55.1898 11.8954C55.2708 12.2154 55.0953 12.0954 54.7949 12.0954C54.5384 11.9874 54.3831 11.8554 54.0659 11.8274H53.3909C53.725 11.8434 53.7959 11.9914 54.0085 12.1634C54.0254 12.2674 54.0051 12.2594 53.8398 12.2954C53.6643 12.1154 53.4381 12.0554 53.1648 11.9634C52.8981 11.9514 52.618 11.9234 52.3784 11.8274C52.213 11.8154 52.24 11.5834 52.6045 11.9634C52.8239 12.1154 52.9015 12.2434 52.8846 12.3634C52.5944 12.2754 52.4526 12.1394 52.267 12.0274C52.0145 11.9236 51.7475 11.8788 51.4806 11.8954C51.1904 11.8034 51.511 11.7514 51.7034 12.0954C52.1219 12.4474 51.6494 12.2954 51.4806 12.2274C51.2275 12.1434 50.9643 12.0194 50.7483 11.9634C50.5795 11.9034 50.431 11.8474 50.242 11.8274C50.5356 11.8594 50.6335 11.9834 50.7483 12.2274C51.0453 12.4674 50.7348 12.3514 50.4681 12.2954C50.2994 12.1194 50.08 12.0274 49.9619 11.8274C49.6818 11.6634 49.6716 11.4674 49.8505 11.8954C49.8944 12.0314 49.8843 12.3274 49.9045 12.3634C49.6986 12.0954 49.7425 12.0274 49.513 12.0274C49.3544 11.8994 49.1249 11.7994 49.0068 11.6274C48.7908 11.6034 48.7773 11.5114 48.5579 11.4274C48.7368 11.6794 48.9764 11.9274 49.1181 12.1634C49.3746 12.3314 49.4455 12.4834 49.6244 12.6274C49.6953 12.7754 49.8944 12.8954 49.6818 12.6954C49.4388 12.4154 49.2599 12.3474 48.8954 12.1634C48.6861 11.9634 48.6119 11.8834 48.3891 11.6954C48.0854 11.5794 48.2035 11.5154 48.3891 11.8954C48.6018 12.1274 48.7638 12.3834 48.9494 12.5634C49.095 12.7695 49.2656 12.9488 49.4556 13.0954C49.5063 13.1834 49.6581 13.1994 49.4556 13.2274C49.2869 13.0434 49.0371 12.9274 48.838 12.7594C48.5579 12.6674 48.4263 12.4954 48.2204 12.2954C48.0854 12.0594 47.8694 11.8794 47.7141 11.6954C47.3901 11.5434 47.7783 11.8394 47.8829 12.0274C47.9538 12.2714 48.0449 12.4674 48.1056 12.6954C48.2001 12.9154 47.8221 12.6434 47.7141 12.5634C47.4921 12.3929 47.2428 12.2785 46.9818 12.2274C46.7581 12.1744 46.5329 12.1303 46.3068 12.0954C46.0536 12.0154 46.4451 12.2874 46.5903 12.5634C46.8738 12.8794 46.3101 12.6194 46.1414 12.5634C45.8628 12.5073 45.5801 12.4845 45.2976 12.4954C44.9365 12.5194 45.1964 12.5754 45.2976 12.7594C45.409 12.8634 45.4866 13.0794 45.4664 13.1594C45.2301 13.1194 45.0276 13.0394 44.734 13.0274C44.4977 13.1194 44.2176 13.0954 43.9476 13.0954C43.9375 13.2634 43.9983 13.1194 44.1164 13.2954C44.3121 13.3874 44.4404 13.4994 44.3999 13.6274H42.7698C42.5909 13.6834 42.8069 13.6554 42.9385 13.8954C42.8643 14.1114 42.7698 14.0274 42.5436 14.0274C42.3918 13.9554 42.0846 13.9234 41.926 13.8274C41.7674 13.8274 41.7809 13.7794 41.6459 13.7594C42.1184 14.1594 41.8821 14.0594 42.1521 14.3594C42.196 14.3794 42.304 14.4274 42.2061 14.4274M38.497 16.5594C38.4633 16.5594 38.389 16.3434 38.2743 16.1594C38.1933 15.9194 38.092 16.0554 37.9908 15.6914C38.0043 15.3154 38.0144 15.2514 37.9908 14.8914C37.7613 14.6994 37.6634 14.6434 37.4845 14.2914C37.201 14.0114 37.5284 13.5314 37.5824 13.1794C37.3326 13.1154 37.2111 13.6394 36.8298 13.8274C36.553 14.0474 36.796 13.3714 36.661 12.9794C36.5699 12.4234 36.2965 13.2594 36.1953 13.4954C36.0096 13.6434 35.9523 13.8354 35.689 13.5594C35.689 13.3554 35.8544 12.7794 35.7835 12.6674C35.5203 12.8234 35.176 13.2874 34.9026 13.3594C34.6259 13.2914 34.96 12.7674 34.96 12.3794C34.8588 12.3394 34.4639 13.4114 34.3019 13.4194C34.1399 13.4274 34.2108 12.3794 34.1331 12.4034C34.015 12.6034 33.7754 13.0194 33.61 13.1634C33.2894 13.1114 33.6572 12.4634 33.7045 12.2234C33.7585 11.9354 33.4041 12.7754 33.2151 12.8274C33.0767 12.9714 32.8034 13.0674 32.7089 13.0954C32.8169 12.8474 33.3501 12.3474 33.3164 12.2034C33.0025 12.2154 32.5266 12.7034 32.26 12.7634C32.0845 12.7634 31.8415 12.8314 31.8111 12.8274C31.8246 12.5074 32.4659 12.2434 32.5671 12.0474C32.2533 12.1074 31.6491 12.4354 31.4736 12.6954C31.2644 12.7474 31.0011 12.8154 30.7986 12.6954C30.829 12.3954 31.3015 11.8154 31.4061 11.6234C31.1193 11.7714 30.9775 11.8874 30.6738 11.9554C30.6164 12.0234 30.4544 12.1674 30.505 12.0234C30.5961 11.7434 30.7311 11.6234 30.8425 11.4234C30.5894 11.4794 30.4949 11.6514 30.2249 11.8234C30.0528 11.8314 29.56 12.4194 29.3946 12.4274C29.1147 12.6889 28.788 12.8709 28.4395 12.9594C28.183 13.0154 28.0581 13.0794 27.9333 13.2274C28.0615 12.9594 28.2573 12.7074 28.4395 12.5634C28.5507 12.3206 28.7297 12.1311 28.9458 12.0274C29.0099 11.9354 29.1854 11.9114 28.9997 11.8954C28.8411 12.0634 28.5711 12.2554 28.4395 12.3634C28.2674 12.4914 28.0683 12.6194 27.9873 12.5634C28.0784 12.2754 28.2404 12.2034 28.3821 11.9634C28.6791 11.7394 28.3821 11.8834 28.156 11.9634C28.0109 12.1154 27.751 12.2314 27.5384 12.3634C27.3021 12.4354 27.1435 12.6034 26.8634 12.6954C26.8634 12.7914 26.9444 12.5234 26.9781 12.4274C27.2076 12.1314 27.2684 12.0474 27.5384 11.9634C27.6059 11.8474 27.6869 11.8954 27.4844 11.8954C27.3291 12.0554 27.1199 12.1434 26.9208 12.2954C26.7216 12.3474 26.4618 12.3634 26.1918 12.3634C25.8408 12.4114 25.8711 12.4434 26.1918 12.2274C26.3706 12.0274 26.5191 12.0794 26.5292 11.8274C26.3166 12.0114 26.0568 12.1474 25.7969 12.2954C25.5809 12.3034 25.5235 12.3634 25.2906 12.3634C25.402 12.2274 25.4695 12.0554 25.6281 11.9634C25.8644 11.6554 25.4796 11.9034 25.402 11.9634H24.5582C24.4097 12.1874 24.5515 11.9634 24.673 11.8274C24.8181 11.7394 24.97 11.6234 24.9531 11.5634C24.7844 11.7354 24.592 11.8154 24.4469 11.9634C24.2916 12.0194 24.1094 12.0434 24.1094 12.0954C24.2343 11.8834 24.4334 11.7514 24.5616 11.5634C24.7506 11.5154 24.9126 11.4434 24.9531 11.3634H24.1668H24.727C25.0139 11.3634 25.2569 11.3314 25.5168 11.2954C25.9623 11.2074 25.4763 11.1634 25.2333 11.1634C25.1894 11.0594 25.375 11.0034 25.5708 10.9634C25.7395 10.8674 25.9521 10.7834 26.1344 10.6954C26.2953 10.6373 26.4469 10.5481 26.5833 10.4314C26.4145 10.4394 26.4145 10.4874 26.2458 10.4954C26.4989 10.4754 26.6778 10.4314 26.9781 10.4314C27.2255 10.3348 27.4688 10.224 27.7071 10.0994C27.8084 9.95541 27.8489 9.96341 27.5958 9.96341C27.8219 9.87941 28.1425 9.83541 28.3248 9.76341C28.5574 9.70566 28.7838 9.6171 28.9997 9.49941C29.1651 9.36741 29.2596 9.21141 29.4486 9.09941C29.668 9.27541 29.6714 9.29941 30.0663 9.29941C30.3835 9.29541 30.5793 9.20341 30.7413 9.03141C30.9843 8.95141 31.0281 8.81541 31.3049 8.76741C31.5649 8.81583 31.8281 8.83725 32.0913 8.83141C32.3613 8.74741 32.6211 8.59141 32.8203 8.43141C32.9924 8.33141 33.1982 8.18741 33.3839 8.09941C33.5864 8.22341 33.7484 8.32341 34.0015 8.36741C34.2614 8.31941 34.3998 8.16741 34.6191 8.09941C34.7544 7.92874 34.9315 7.81263 35.1254 7.76741C35.4528 7.57541 35.4291 7.82741 35.5743 8.03141C35.743 8.23941 35.959 8.13941 36.1919 8.23141C36.3235 8.47141 36.418 8.63141 36.5868 8.76341C36.7184 8.95541 36.8736 9.00341 37.1504 9.03141C37.2516 9.19141 37.1706 9.30341 37.3731 9.36341C37.4541 9.46741 37.5925 9.50741 37.7106 9.56341" stroke="#772600" stroke-width="0.128598"/>
<path d="M41.7818 14.8594V14.8914C41.7818 14.7994 41.7818 14.8514 41.8392 15.0274C41.8594 15.1714 41.8122 15.1554 41.7548 15.2594C41.7447 15.4074 41.7278 15.5154 41.7278 15.6914C41.7075 15.8354 41.64 15.9714 41.586 16.0914C41.532 16.2154 41.2992 16.2874 41.3059 16.4594C41.1709 16.5034 41.1675 16.3994 41.1642 16.2234C41.0832 16.1154 41.0562 15.9674 40.9954 15.8234C40.9617 15.6874 40.8807 15.5834 40.8267 15.4234C40.7457 15.2754 40.6748 15.2314 40.6039 15.0594C40.5735 14.9794 40.5803 14.8754 40.5195 14.8274C40.4284 14.6874 40.3677 14.6674 40.209 14.6594C40.0875 14.6914 40.0403 14.7554 39.9289 14.7914C39.8412 14.8274 39.6724 14.8154 39.5644 14.8594C39.5374 14.9114 39.6184 14.9394 39.6488 15.0594C39.5745 15.1314 39.5475 15.2554 39.507 15.3594C39.4395 15.4594 39.3957 15.5074 39.3653 15.6594C39.4125 15.7514 39.372 15.8754 39.3113 15.9594C39.291 16.1114 39.2269 16.1954 39.1965 16.3234C39.1088 16.3994 39.075 16.4674 39.0008 16.5914C38.9367 16.6994 38.8793 16.6914 38.7207 16.6914C38.5958 16.6514 38.5789 16.5714 38.4675 16.5234C38.4574 16.4834 38.4473 16.4714 38.4102 16.4594" stroke="#782600" stroke-width="0.113901"/>
<path fill-rule="evenodd" clip-rule="evenodd" d="M38.7375 16.2024C38.7375 16.2024 38.6875 16.8274 38.2875 17.2399C37.8875 17.6524 37.0625 18.1274 37.0625 18.1274C37.0625 18.1274 38.175 17.6024 38.2875 17.7149C38.4125 17.8399 37.575 18.7524 37.575 18.7524C37.575 18.7524 38.6625 17.7899 38.8 17.7899C38.9375 17.7899 39.25 18.7274 39.375 18.7024C39.4875 18.6774 39.125 17.5149 39.175 17.3274C39.225 17.1524 39.175 16.1649 39.175 16.1649L38.75 16.2024H38.7375ZM41.3 16.1274C41.3 16.1274 41.25 16.7899 40.85 17.2274C40.45 17.6649 39.625 18.1774 39.625 18.1774C39.625 18.1774 40.7375 17.6149 40.85 17.7399C40.975 17.8649 40.1375 18.8399 40.1375 18.8399C40.1375 18.8399 41.225 17.8149 41.3625 17.8149C41.5 17.8149 41.8125 18.8149 41.9375 18.7899C42.05 18.7649 41.6875 17.5149 41.7375 17.3274C41.7875 17.1274 41.7375 16.0774 41.7375 16.0774L41.3 16.1274ZM37.7125 10.1274C37.7125 10.2399 37.5875 10.3399 37.45 10.3399C37.3125 10.3399 37.175 10.2399 37.175 10.1149C37.175 9.98989 37.3 9.88989 37.45 9.88989C37.6 9.88989 37.7125 9.98989 37.7125 10.1149V10.1274Z" fill="#812E00"/>
</g>
<defs>
<clipPath id="clip0_4447_27816">
<rect width="80" height="60" fill="white" transform="translate(0.289062 0.514893)"/>
</clipPath>
</defs>
</svg>
