<svg width="25" height="24" viewBox="0 0 25 24" fill="none" xmlns="http://www.w3.org/2000/svg">
<path d="M22.1914 7.98015C22.1439 6.94231 21.9791 6.23355 21.7381 5.61346C21.4933 4.96288 21.1095 4.37359 20.6135 3.88651C20.1266 3.3905 19.5371 3.00651 18.8865 2.76163C18.2663 2.52077 17.5577 2.35608 16.5199 2.30891C15.4801 2.26131 15.1479 2.25 12.5 2.25C9.85214 2.25 9.51992 2.26131 8.48015 2.30862C7.44231 2.35608 6.7337 2.52092 6.11346 2.76193C5.46288 3.00666 4.87359 3.3905 4.38651 3.88651C3.8905 4.37344 3.50651 4.96273 3.26163 5.61332C3.02077 6.23355 2.85608 6.94231 2.80891 7.98C2.76131 9.01992 2.75 9.35199 2.75 11.9999C2.75 14.6479 2.76131 14.9801 2.80891 16.0199C2.85622 17.0575 3.02106 17.7663 3.26208 18.3865C3.50681 19.037 3.89064 19.6264 4.38665 20.1133C4.87359 20.6094 5.46303 20.9932 6.11361 21.2379C6.7337 21.4791 7.44246 21.6438 8.4803 21.6912C9.52022 21.7387 9.85228 21.7499 12.5001 21.7499C15.148 21.7499 15.4802 21.7387 16.52 21.6912C17.5578 21.6438 18.2664 21.4791 18.8867 21.2379C20.1963 20.7315 21.2316 19.6962 21.7381 18.3865C21.9792 17.7663 22.1439 17.0575 22.1914 16.0199C22.2387 14.9799 22.25 14.6479 22.25 12C22.25 9.35199 22.2387 9.01992 22.1914 7.98015ZM20.4363 15.94C20.393 16.8906 20.2341 17.4069 20.1007 17.7504C19.7726 18.6008 19.1006 19.2728 18.2502 19.6008C17.9067 19.7343 17.3905 19.8932 16.4398 19.9365C15.4119 19.9835 15.1035 19.9933 12.5 19.9933C9.89632 19.9933 9.58806 19.9835 8.56004 19.9365C7.60953 19.8932 7.09328 19.7343 6.74962 19.6008C6.32621 19.4445 5.94312 19.1953 5.62861 18.8714C5.30473 18.5569 5.05554 18.1739 4.89918 17.7504C4.76573 17.4069 4.60684 16.8906 4.56355 15.94C4.51668 14.9119 4.50671 14.6035 4.50671 12.0001C4.50671 9.39662 4.51668 9.08836 4.56355 8.06019C4.60699 7.10953 4.76573 6.59328 4.89918 6.24977C5.05554 5.82621 5.30488 5.44312 5.62861 5.12861C5.94312 4.80473 6.32621 4.55554 6.74977 4.39933C7.09328 4.26573 7.60953 4.10699 8.56019 4.06355C9.58821 4.01668 9.89662 4.00671 12.5 4.00671C15.1034 4.00671 15.4116 4.01668 16.4398 4.06369C17.3905 4.10699 17.9066 4.26588 18.2502 4.39933C18.6736 4.55569 19.0567 4.80488 19.3712 5.12861C19.6951 5.44312 19.9443 5.82621 20.1005 6.24977C20.2341 6.59328 20.393 7.10953 20.4363 8.06019C20.4832 9.08821 20.4931 9.39662 20.4931 12C20.4931 14.6035 20.4833 14.9118 20.4363 15.94Z" fill="#212224"/>
<path d="M12.4999 6.99319C9.73475 6.99319 7.49319 9.2349 7.49319 12C7.49319 14.7651 9.73475 17.0067 12.4999 17.0067C15.2651 17.0067 17.5067 14.7651 17.5067 12C17.5067 9.2349 15.2651 6.99319 12.4999 6.99319ZM12.4999 15.25C10.7051 15.2498 9.2499 13.7948 9.25005 11.9999C9.25005 10.2051 10.7051 8.7499 12.5 8.7499C14.2949 8.75005 15.75 10.2051 15.75 11.9999C15.75 13.7948 14.2948 15.25 12.4999 15.25Z" fill="#212224"/>
<path d="M18.8745 6.79547C18.8745 7.44159 18.3507 7.96542 17.7045 7.96542C17.0583 7.96542 16.5344 7.44159 16.5344 6.79547C16.5344 6.1492 17.0583 5.62537 17.7045 5.62537C18.3507 5.62537 18.8745 6.1492 18.8745 6.79547Z" fill="#212224"/>
</svg>
