<svg width="25" height="24" viewBox="0 0 25 24" fill="none" xmlns="http://www.w3.org/2000/svg">
<path d="M5.68284 3C4.36297 3 3.5 3.87434 3.5 5.02355C3.5 6.1474 4.33729 7.04668 5.63217 7.04668H5.6573C7.00298 7.04668 7.84042 6.1474 7.84042 5.02355C7.81528 3.87434 7.00298 3 5.68284 3Z" fill="#212224"/>
<path d="M3.72817 8.64569H7.5867V20.3571H3.72817V8.64569Z" fill="#212224"/>
<path d="M13.5804 10.3041C14.0932 9.50594 15.0105 8.37086 17.0578 8.37086C19.5963 8.37086 21.5 10.0447 21.5 13.642V20.3571H17.6417V14.0918C17.6417 12.5174 17.0832 11.4434 15.687 11.4434C14.6211 11.4434 13.9862 12.1677 13.7073 12.867C13.6054 13.1173 13.5802 13.4669 13.5802 13.817V20.3571H9.72172V8.64573H13.5804V10.3041Z" fill="#212224"/>
</svg>
