<?xml version="1.0" encoding="utf-8"?>
<!-- Generator: Adobe Illustrator 22.0.1, SVG Export Plug-In . SVG Version: 6.00 Build 0)  -->
<svg version="1.1" id="Layer_1" xmlns="http://www.w3.org/2000/svg" xmlns:xlink="http://www.w3.org/1999/xlink" x="0px" y="0px"
	 viewBox="0 0 151.8 211.9" style="enable-background:new 0 0 151.8 211.9;" xml:space="preserve">
<g>
	<path d="M72.3,211.2c-7.3-10.3-15.5-21.1-23.1-32.4c-8.3-12.4-16.4-25-24-37.8c-8.8-14.7-17.2-29.7-21.9-46.3
		c-5.1-18-4.4-35.5,4.3-52.8c5.8-11.5,14.2-20.8,23.8-28.4C41.9,5.1,55,0.9,68.8,0.3c9.6-0.5,19.3-0.7,28.7,2.1
		c10.7,3.1,20,8.4,28.3,15.9c14.6,13.1,22.9,29.2,25.5,48.8c1.9,14.4-2.2,27.2-7.6,40c-3.4,7.9-6.8,15.8-10.8,23.4
		c-3.5,6.7-7.7,13.1-11.8,19.5c-4.7,7.4-9.3,14.9-14.3,22.1c-8.7,12.5-17.8,24.8-26.6,37.3C78.4,211.9,76.3,212.7,72.3,211.2z
		 M76.6,203c3.2-4.4,5.9-8,8.4-11.6c7.1-10.2,14.4-20.4,21.3-30.7c5-7.4,9.7-15.1,14.2-22.9c4.1-7.2,7.9-14.5,11.6-22
		c3.7-7.4,8-14.7,10.3-22.6c6.3-20.9,2.3-40.6-10.1-58.3c-6.4-9.1-15.2-15.4-25-20.9C91.3,5.2,74.5,4.5,57.9,8.6
		c-16,4-29.6,13.1-39.1,27.4C5.4,56,2,77,11.8,99.3c4.3,9.8,9.1,19.5,14.3,28.9c6.1,11.2,12.5,22.3,19.5,33
		c8.4,12.9,17.6,25.4,26.6,37.9C73,200.5,74.7,201.4,76.6,203z"/>
	<path d="M115.7,76.7c-1.8,21.6-14.7,37.6-38.1,38.6c-23.6,1-41.3-14.6-41.5-39.6c-0.1-22.2,14-39.2,40.5-39.3
		C98.4,36.4,114.7,51.8,115.7,76.7z M76.2,43.2c-17.1-2.1-32.4,15.6-33.1,29.9c-1,20.3,15.2,36.3,33.3,35.9
		c17.5-0.4,32.9-15.9,32.8-33.3C109.1,57.9,93.5,41.9,76.2,43.2z"/>
</g>
</svg>
