<svg width="25" height="24" viewBox="0 0 25 24" fill="none" xmlns="http://www.w3.org/2000/svg">
<path d="M12.4367 2.25C7.09225 2.25 4.25 5.67484 4.25 9.40926C4.25 11.1412 5.21773 13.3009 6.76683 13.9859C7.00206 14.0919 7.13004 14.0468 7.18245 13.8286C7.22876 13.6629 7.4323 12.8646 7.53102 12.488C7.56149 12.3673 7.54565 12.2625 7.44814 12.1491C6.93381 11.5544 6.52551 10.4708 6.52551 9.45436C6.52551 6.84977 8.59626 4.32075 12.1198 4.32075C15.1668 4.32075 17.2985 6.30009 17.2985 9.13137C17.2985 12.3307 15.6056 14.5441 13.4057 14.5441C12.1881 14.5441 11.2813 13.5885 11.5689 12.4063C11.9163 10.9986 12.5976 9.48483 12.5976 8.46956C12.5976 7.55912 12.0833 6.80589 11.0327 6.80589C9.79313 6.80589 8.78761 8.03323 8.78761 9.68106C8.78761 10.728 9.15813 11.4349 9.15813 11.4349C9.15813 11.4349 7.93201 16.3881 7.70409 17.3132C7.31895 18.8794 7.7565 21.4157 7.79429 21.6339C7.81744 21.7545 7.95273 21.7923 8.0283 21.6936C8.14896 21.5352 9.63102 19.4205 10.0466 17.8921C10.1978 17.3352 10.8181 15.0767 10.8181 15.0767C11.2264 15.8141 12.405 16.432 13.6604 16.432C17.3948 16.432 20.0932 13.1498 20.0932 9.07653C20.0798 5.17148 16.7379 2.25 12.4367 2.25Z" fill="#212224"/>
</svg>
