<?xml version="1.0" encoding="utf-8"?>
<!-- Generator: Adobe Illustrator 25.4.1, SVG Export Plug-In . SVG Version: 6.00 Build 0)  -->
<svg version="1.1" id="Capa_1" xmlns="http://www.w3.org/2000/svg" xmlns:xlink="http://www.w3.org/1999/xlink" x="0px" y="0px"
	 viewBox="0 0 32 32" style="enable-background:new 0 0 32 32;" xml:space="preserve">
<g>
	<path d="M16.3,28.7c0-0.2-0.1-0.3-0.3-0.3c-1.3,0-2.7-0.2-3.9-0.7c-0.5-0.2-0.9-0.1-1.4,0.1c-2.3,1.1-4.6,2.2-6.9,3.4
		c-0.5,0.3-1.1,0.2-1.5-0.2c-0.5-0.4-0.6-0.9-0.4-1.5c0.6-1.8,1.3-3.5,1.9-5.3c0.2-0.7,0.5-1.3,0.8-2c0.1-0.1,0-0.3,0-0.4
		c-0.8-1.2-1.3-2.5-1.7-3.9c-0.1-0.4-0.2-0.9-0.3-1.3C2,12.6,2.8,8.9,5.5,5.6c2.1-2.6,4.9-4.2,8.2-4.8C17,0.2,20.1,0.7,23,2.3
		c3.4,1.9,5.6,4.7,6.7,8.4c1,3.4,0.7,6.7-0.8,9.8c-1.5,3.1-3.8,5.4-7,6.8c-1.5,0.7-3,1-4.6,1.2c-0.2,0-0.5,0-0.7,0
		C16.4,28.5,16.3,28.5,16.3,28.7z M18.8,26.7c0,0.2,0.1,0.3,0.3,0.2c0.4-0.1,0.8-0.2,1.1-0.3c2.9-1,5.2-2.8,6.9-5.4
		c0.7-1.1,1.2-2.3,1.5-3.6c0-0.1,0-0.2-0.1-0.2c0.2,0,0.2-0.1,0.3-0.2c0.1-0.4,0.2-0.8,0.2-1.2c0.1-1.1,0.1-2.2,0-3.3
		c-0.4-2.6-1.4-4.9-3.2-6.9c-2.2-2.4-5-3.8-8.2-4.1c-2.2-0.2-4.4,0.1-6.4,1.1c-2.2,1-3.9,2.5-5.3,4.4c-1.9,2.8-2.6,6-2.1,9.3
		C4,18.4,4.6,20,5.6,21.5c0.2,0.3,0.2,0.6,0.1,0.9c-0.7,2-1.5,4-2.2,5.9c-0.2,0.5-0.3,0.9-0.5,1.4c0,0.1-0.1,0.3,0,0.4
		c0.1,0.1,0.3,0,0.4,0c0.1,0,0.2-0.1,0.3-0.1c2.4-1.2,4.9-2.4,7.3-3.6c0.2-0.1,0.4-0.1,0.6-0.1c0.5,0.2,1,0.3,1.4,0.4
		c0.9,0.3,1.8,0.4,2.7,0.4c0.4,0,0.9,0,1.3-0.1c0.4,0,0.9-0.1,1.3-0.1C18.7,27.1,18.8,27,18.8,26.7"/>
	<path d="M19.6,22.6c-1.4,0-2.6-0.4-3.8-1.1c-1.8-1-3.3-2.5-4.7-4.1c-0.9-1.1-1.6-2.3-2-3.7c-0.6-2.1-0.2-4,1.2-5.7
		c0.3-0.3,0.6-0.7,1.1-0.8c0.5-0.1,0.9,0,1.2,0.4c0.9,0.9,1.7,1.8,2.6,2.6c0.7,0.7,0.7,1.4,0,2.1c-0.2,0.2-0.5,0.4-0.7,0.7
		c-0.4,0.4-0.5,0.8-0.3,1.4c0.2,0.5,0.5,0.9,0.9,1.3c0.5,0.5,1,1,1.7,1.4c0.7,0.4,1.2,0.4,1.7-0.3c0.2-0.2,0.4-0.4,0.6-0.7
		c0.5-0.5,1.3-0.5,1.9,0c0.9,0.9,1.8,1.8,2.7,2.7c0.5,0.5,0.6,1.3,0,1.9C22.8,21.9,21.4,22.6,19.6,22.6z M19.6,21.4
		c1.4,0,2.5-0.6,3.4-1.5c0.1-0.1,0.1-0.2,0-0.3c-0.9-0.9-1.7-1.7-2.6-2.6c-0.1-0.1-0.2-0.1-0.3,0c-0.2,0.2-0.5,0.5-0.7,0.7
		c-0.7,0.8-1.6,0.9-2.6,0.5c-1.1-0.4-1.9-1.2-2.7-2.1c-0.4-0.5-0.8-1.1-1-1.8c-0.3-0.9-0.1-1.6,0.6-2.2c0.3-0.3,0.5-0.5,0.8-0.7
		c0.2-0.1,0.1-0.2,0-0.4c-0.9-0.8-1.7-1.7-2.5-2.5c-0.1-0.1-0.2-0.1-0.3,0c-1.2,1.2-1.7,2.6-1.4,4.3c0.2,1.1,0.7,2.1,1.3,3
		c1.3,1.9,3,3.5,5,4.7C17.5,21.1,18.5,21.4,19.6,21.4z"/>
</g>
</svg>
