<svg width="25" height="24" viewBox="0 0 25 24" fill="none" xmlns="http://www.w3.org/2000/svg">
<path fill-rule="evenodd" clip-rule="evenodd" d="M20.7165 4.94973C21.616 5.19198 22.3252 5.90109 22.5673 6.80071C23.0172 8.44389 22.9999 11.869 22.9999 11.869C22.9999 11.869 22.9999 15.2766 22.5675 16.92C22.3252 17.8194 21.6161 18.5287 20.7165 18.7708C19.0732 19.2034 12.5 19.2034 12.5 19.2034C12.5 19.2034 5.94389 19.2034 4.28341 18.7537C3.38379 18.5114 2.67467 17.8021 2.43242 16.9027C2 15.2766 2 11.8517 2 11.8517C2 11.8517 2 8.44389 2.43242 6.80071C2.67451 5.90125 3.40109 5.17467 4.28325 4.93258C5.92659 4.5 12.4998 4.5 12.4998 4.5C12.4998 4.5 19.0732 4.5 20.7165 4.94973ZM15.8731 11.8517L10.4069 15V8.70344L15.8731 11.8517Z" fill="#212224"/>
</svg>
